solid cycle-latch.stl
facet normal 0.000000e+00 -2.195122e-01 9.756098e-01
    outer loop
        vertex 6.000000e+00 6.650000e+01 -1.400000e+00
        vertex 6.000000e+00 7.050000e+01 -5.000000e-01
        vertex -6.000000e+00 7.050000e+01 -5.000000e-01
    endloop
endfacet
facet normal 0.000000e+00 -2.195122e-01 9.756098e-01
    outer loop
        vertex -6.000000e+00 6.650000e+01 -1.400000e+00
        vertex 6.000000e+00 6.650000e+01 -1.400000e+00
        vertex -6.000000e+00 7.050000e+01 -5.000000e-01
    endloop
endfacet
facet normal 0.000000e+00 -1.000000e+00 0.000000e+00
    outer loop
        vertex -6.000000e+00 6.650000e+01 -5.500000e+00
        vertex 6.000000e+00 6.650000e+01 -5.500000e+00
        vertex 6.000000e+00 6.650000e+01 -5.400000e+00
    endloop
endfacet
facet normal 0.000000e+00 -1.000000e+00 0.000000e+00
    outer loop
        vertex -6.000000e+00 6.650000e+01 -5.500000e+00
        vertex 6.000000e+00 6.650000e+01 -5.400000e+00
        vertex -6.000000e+00 6.650000e+01 -5.400000e+00
    endloop
endfacet
facet normal -1.000000e+00 0.000000e+00 0.000000e+00
    outer loop
        vertex -8.000000e+00 6.456815e+01 -2.882363e+00
        vertex -8.000000e+00 6.476794e+01 -2.400000e+00
        vertex -8.000000e+00 6.508578e+01 -1.985787e+00
    endloop
endfacet
facet normal -1.000000e+00 0.000000e+00 0.000000e+00
    outer loop
        vertex -8.000000e+00 6.450000e+01 -3.400000e+00
        vertex -8.000000e+00 6.456815e+01 -2.882363e+00
        vertex -8.000000e+00 6.508578e+01 -1.985787e+00
    endloop
endfacet
facet normal -1.000000e+00 0.000000e+00 0.000000e+00
    outer loop
        vertex -8.000000e+00 6.450000e+01 -3.400000e+00
        vertex -8.000000e+00 6.508578e+01 -1.985787e+00
        vertex -8.000000e+00 6.550000e+01 -1.667950e+00
    endloop
endfacet
facet normal -1.000000e+00 0.000000e+00 0.000000e+00
    outer loop
        vertex -8.000000e+00 6.450000e+01 -3.400000e+00
        vertex -8.000000e+00 6.550000e+01 -1.667950e+00
        vertex -8.000000e+00 6.598236e+01 -1.468148e+00
    endloop
endfacet
facet normal -1.000000e+00 0.000000e+00 0.000000e+00
    outer loop
        vertex -8.000000e+00 6.450000e+01 -3.400000e+00
        vertex -8.000000e+00 6.598236e+01 -1.468148e+00
        vertex -8.000000e+00 6.650000e+01 -1.400000e+00
    endloop
endfacet
facet normal -1.000000e+00 0.000000e+00 0.000000e+00
    outer loop
        vertex -8.000000e+00 6.450000e+01 -3.400000e+00
        vertex -8.000000e+00 6.650000e+01 -1.400000e+00
        vertex -8.000000e+00 6.701764e+01 -1.468148e+00
    endloop
endfacet
facet normal -1.000000e+00 0.000000e+00 0.000000e+00
    outer loop
        vertex -8.000000e+00 6.450000e+01 -3.400000e+00
        vertex -8.000000e+00 6.701764e+01 -1.468148e+00
        vertex -8.000000e+00 6.750000e+01 -1.667950e+00
    endloop
endfacet
facet normal -1.000000e+00 0.000000e+00 0.000000e+00
    outer loop
        vertex -8.000000e+00 6.450000e+01 -3.400000e+00
        vertex -8.000000e+00 6.750000e+01 -1.667950e+00
        vertex -8.000000e+00 6.791422e+01 -1.985787e+00
    endloop
endfacet
facet normal -1.000000e+00 0.000000e+00 0.000000e+00
    outer loop
        vertex -8.000000e+00 6.450000e+01 -3.400000e+00
        vertex -8.000000e+00 6.791422e+01 -1.985787e+00
        vertex -8.000000e+00 6.823206e+01 -2.400000e+00
    endloop
endfacet
facet normal -1.000000e+00 0.000000e+00 0.000000e+00
    outer loop
        vertex -8.000000e+00 6.450000e+01 -3.400000e+00
        vertex -8.000000e+00 6.823206e+01 -2.400000e+00
        vertex -8.000000e+00 6.843185e+01 -2.882363e+00
    endloop
endfacet
facet normal -1.000000e+00 0.000000e+00 0.000000e+00
    outer loop
        vertex -8.000000e+00 6.450000e+01 -3.400000e+00
        vertex -8.000000e+00 6.843185e+01 -2.882363e+00
        vertex -8.000000e+00 6.850000e+01 -3.400000e+00
    endloop
endfacet
facet normal -1.000000e+00 0.000000e+00 0.000000e+00
    outer loop
        vertex -8.000000e+00 6.450000e+01 -3.400000e+00
        vertex -8.000000e+00 6.850000e+01 -3.400000e+00
        vertex -8.000000e+00 6.456815e+01 -3.917637e+00
    endloop
endfacet
facet normal -1.000000e+00 0.000000e+00 0.000000e+00
    outer loop
        vertex -8.000000e+00 6.456815e+01 -3.917637e+00
        vertex -8.000000e+00 6.850000e+01 -3.400000e+00
        vertex -8.000000e+00 6.476794e+01 -4.400000e+00
    endloop
endfacet
facet normal -1.000000e+00 0.000000e+00 0.000000e+00
    outer loop
        vertex -8.000000e+00 6.476794e+01 -4.400000e+00
        vertex -8.000000e+00 6.850000e+01 -3.400000e+00
        vertex -8.000000e+00 6.508578e+01 -4.814213e+00
    endloop
endfacet
facet normal -1.000000e+00 0.000000e+00 0.000000e+00
    outer loop
        vertex -8.000000e+00 6.508578e+01 -4.814213e+00
        vertex -8.000000e+00 6.850000e+01 -3.400000e+00
        vertex -8.000000e+00 6.550000e+01 -5.132050e+00
    endloop
endfacet
facet normal -1.000000e+00 0.000000e+00 0.000000e+00
    outer loop
        vertex -8.000000e+00 6.550000e+01 -5.132050e+00
        vertex -8.000000e+00 6.850000e+01 -3.400000e+00
        vertex -8.000000e+00 6.598236e+01 -5.331852e+00
    endloop
endfacet
facet normal -1.000000e+00 0.000000e+00 0.000000e+00
    outer loop
        vertex -8.000000e+00 6.598236e+01 -5.331852e+00
        vertex -8.000000e+00 6.850000e+01 -3.400000e+00
        vertex -8.000000e+00 6.843185e+01 -3.917637e+00
    endloop
endfacet
facet normal -1.000000e+00 0.000000e+00 0.000000e+00
    outer loop
        vertex -8.000000e+00 6.598236e+01 -5.331852e+00
        vertex -8.000000e+00 6.843185e+01 -3.917637e+00
        vertex -8.000000e+00 6.823206e+01 -4.400000e+00
    endloop
endfacet
facet normal -1.000000e+00 0.000000e+00 0.000000e+00
    outer loop
        vertex -8.000000e+00 6.598236e+01 -5.331852e+00
        vertex -8.000000e+00 6.823206e+01 -4.400000e+00
        vertex -8.000000e+00 6.650000e+01 -5.400000e+00
    endloop
endfacet
facet normal -1.000000e+00 0.000000e+00 0.000000e+00
    outer loop
        vertex -8.000000e+00 6.650000e+01 -5.400000e+00
        vertex -8.000000e+00 6.823206e+01 -4.400000e+00
        vertex -8.000000e+00 6.791422e+01 -4.814213e+00
    endloop
endfacet
facet normal -1.000000e+00 0.000000e+00 0.000000e+00
    outer loop
        vertex -8.000000e+00 6.650000e+01 -5.400000e+00
        vertex -8.000000e+00 6.791422e+01 -4.814213e+00
        vertex -8.000000e+00 6.750000e+01 -5.132050e+00
    endloop
endfacet
facet normal -1.000000e+00 0.000000e+00 0.000000e+00
    outer loop
        vertex -8.000000e+00 6.650000e+01 -5.400000e+00
        vertex -8.000000e+00 6.750000e+01 -5.132050e+00
        vertex -8.000000e+00 6.701764e+01 -5.331852e+00
    endloop
endfacet
facet normal 0.000000e+00 -9.914455e-01 1.305215e-01
    outer loop
        vertex -8.000000e+00 6.450000e+01 -3.400000e+00
        vertex 8.000000e+00 6.450000e+01 -3.400000e+00
        vertex 8.000000e+00 6.456815e+01 -2.882363e+00
    endloop
endfacet
facet normal 0.000000e+00 -9.914455e-01 1.305215e-01
    outer loop
        vertex -8.000000e+00 6.450000e+01 -3.400000e+00
        vertex 8.000000e+00 6.456815e+01 -2.882363e+00
        vertex -8.000000e+00 6.456815e+01 -2.882363e+00
    endloop
endfacet
facet normal 0.000000e+00 -9.238813e-01 3.826792e-01
    outer loop
        vertex -8.000000e+00 6.456815e+01 -2.882363e+00
        vertex 8.000000e+00 6.456815e+01 -2.882363e+00
        vertex 8.000000e+00 6.476794e+01 -2.400000e+00
    endloop
endfacet
facet normal 0.000000e+00 -9.238813e-01 3.826792e-01
    outer loop
        vertex -8.000000e+00 6.456815e+01 -2.882363e+00
        vertex 8.000000e+00 6.476794e+01 -2.400000e+00
        vertex -8.000000e+00 6.476794e+01 -2.400000e+00
    endloop
endfacet
facet normal 0.000000e+00 -7.933500e-01 6.087658e-01
    outer loop
        vertex -8.000000e+00 6.476794e+01 -2.400000e+00
        vertex 8.000000e+00 6.476794e+01 -2.400000e+00
        vertex 8.000000e+00 6.508578e+01 -1.985787e+00
    endloop
endfacet
facet normal 0.000000e+00 -7.933500e-01 6.087658e-01
    outer loop
        vertex -8.000000e+00 6.476794e+01 -2.400000e+00
        vertex 8.000000e+00 6.508578e+01 -1.985787e+00
        vertex -8.000000e+00 6.508578e+01 -1.985787e+00
    endloop
endfacet
facet normal 0.000000e+00 -6.087595e-01 7.933549e-01
    outer loop
        vertex -8.000000e+00 6.508578e+01 -1.985787e+00
        vertex 8.000000e+00 6.508578e+01 -1.985787e+00
        vertex 8.000000e+00 6.550000e+01 -1.667950e+00
    endloop
endfacet
facet normal 0.000000e+00 -6.087595e-01 7.933549e-01
    outer loop
        vertex -8.000000e+00 6.508578e+01 -1.985787e+00
        vertex 8.000000e+00 6.550000e+01 -1.667950e+00
        vertex -8.000000e+00 6.550000e+01 -1.667950e+00
    endloop
endfacet
facet normal 0.000000e+00 -3.826867e-01 9.238782e-01
    outer loop
        vertex -8.000000e+00 6.550000e+01 -1.667950e+00
        vertex 8.000000e+00 6.550000e+01 -1.667950e+00
        vertex 8.000000e+00 6.598236e+01 -1.468148e+00
    endloop
endfacet
facet normal 0.000000e+00 -3.826867e-01 9.238782e-01
    outer loop
        vertex -8.000000e+00 6.550000e+01 -1.667950e+00
        vertex 8.000000e+00 6.598236e+01 -1.468148e+00
        vertex -8.000000e+00 6.598236e+01 -1.468148e+00
    endloop
endfacet
facet normal 0.000000e+00 -3.826867e-01 -9.238782e-01
    outer loop
        vertex 8.000000e+00 6.550000e+01 -5.132050e+00
        vertex -8.000000e+00 6.598236e+01 -5.331852e+00
        vertex 8.000000e+00 6.598236e+01 -5.331852e+00
    endloop
endfacet
facet normal -0.000000e+00 -3.826867e-01 -9.238782e-01
    outer loop
        vertex 8.000000e+00 6.550000e+01 -5.132050e+00
        vertex -8.000000e+00 6.550000e+01 -5.132050e+00
        vertex -8.000000e+00 6.598236e+01 -5.331852e+00
    endloop
endfacet
facet normal 0.000000e+00 -6.087595e-01 -7.933549e-01
    outer loop
        vertex 8.000000e+00 6.508578e+01 -4.814213e+00
        vertex -8.000000e+00 6.550000e+01 -5.132050e+00
        vertex 8.000000e+00 6.550000e+01 -5.132050e+00
    endloop
endfacet
facet normal -0.000000e+00 -6.087595e-01 -7.933549e-01
    outer loop
        vertex 8.000000e+00 6.508578e+01 -4.814213e+00
        vertex -8.000000e+00 6.508578e+01 -4.814213e+00
        vertex -8.000000e+00 6.550000e+01 -5.132050e+00
    endloop
endfacet
facet normal 0.000000e+00 -7.933500e-01 -6.087658e-01
    outer loop
        vertex 8.000000e+00 6.476794e+01 -4.400000e+00
        vertex -8.000000e+00 6.508578e+01 -4.814213e+00
        vertex 8.000000e+00 6.508578e+01 -4.814213e+00
    endloop
endfacet
facet normal -0.000000e+00 -7.933500e-01 -6.087658e-01
    outer loop
        vertex 8.000000e+00 6.476794e+01 -4.400000e+00
        vertex -8.000000e+00 6.476794e+01 -4.400000e+00
        vertex -8.000000e+00 6.508578e+01 -4.814213e+00
    endloop
endfacet
facet normal 0.000000e+00 -9.238812e-01 -3.826795e-01
    outer loop
        vertex 8.000000e+00 6.456815e+01 -3.917637e+00
        vertex -8.000000e+00 6.476794e+01 -4.400000e+00
        vertex 8.000000e+00 6.476794e+01 -4.400000e+00
    endloop
endfacet
facet normal -0.000000e+00 -9.238812e-01 -3.826795e-01
    outer loop
        vertex 8.000000e+00 6.456815e+01 -3.917637e+00
        vertex -8.000000e+00 6.456815e+01 -3.917637e+00
        vertex -8.000000e+00 6.476794e+01 -4.400000e+00
    endloop
endfacet
facet normal 0.000000e+00 -9.914455e-01 -1.305215e-01
    outer loop
        vertex 8.000000e+00 6.450000e+01 -3.400000e+00
        vertex -8.000000e+00 6.456815e+01 -3.917637e+00
        vertex 8.000000e+00 6.456815e+01 -3.917637e+00
    endloop
endfacet
facet normal -0.000000e+00 -9.914455e-01 -1.305215e-01
    outer loop
        vertex 8.000000e+00 6.450000e+01 -3.400000e+00
        vertex -8.000000e+00 6.450000e+01 -3.400000e+00
        vertex -8.000000e+00 6.456815e+01 -3.917637e+00
    endloop
endfacet
facet normal 1.000000e+00 0.000000e+00 0.000000e+00
    outer loop
        vertex 8.000000e+00 6.791422e+01 -1.985787e+00
        vertex 8.000000e+00 6.843185e+01 -2.882363e+00
        vertex 8.000000e+00 6.823206e+01 -2.400000e+00
    endloop
endfacet
facet normal 1.000000e+00 0.000000e+00 0.000000e+00
    outer loop
        vertex 8.000000e+00 6.791422e+01 -1.985787e+00
        vertex 8.000000e+00 6.850000e+01 -3.400000e+00
        vertex 8.000000e+00 6.843185e+01 -2.882363e+00
    endloop
endfacet
facet normal 1.000000e+00 0.000000e+00 0.000000e+00
    outer loop
        vertex 8.000000e+00 6.750000e+01 -1.667950e+00
        vertex 8.000000e+00 6.850000e+01 -3.400000e+00
        vertex 8.000000e+00 6.791422e+01 -1.985787e+00
    endloop
endfacet
facet normal 1.000000e+00 0.000000e+00 0.000000e+00
    outer loop
        vertex 8.000000e+00 6.701764e+01 -1.468148e+00
        vertex 8.000000e+00 6.850000e+01 -3.400000e+00
        vertex 8.000000e+00 6.750000e+01 -1.667950e+00
    endloop
endfacet
facet normal 1.000000e+00 0.000000e+00 0.000000e+00
    outer loop
        vertex 8.000000e+00 6.650000e+01 -1.400000e+00
        vertex 8.000000e+00 6.850000e+01 -3.400000e+00
        vertex 8.000000e+00 6.701764e+01 -1.468148e+00
    endloop
endfacet
facet normal 1.000000e+00 -0.000000e+00 0.000000e+00
    outer loop
        vertex 8.000000e+00 6.598236e+01 -1.468148e+00
        vertex 8.000000e+00 6.850000e+01 -3.400000e+00
        vertex 8.000000e+00 6.650000e+01 -1.400000e+00
    endloop
endfacet
facet normal 1.000000e+00 -0.000000e+00 0.000000e+00
    outer loop
        vertex 8.000000e+00 6.550000e+01 -1.667950e+00
        vertex 8.000000e+00 6.850000e+01 -3.400000e+00
        vertex 8.000000e+00 6.598236e+01 -1.468148e+00
    endloop
endfacet
facet normal 1.000000e+00 -0.000000e+00 0.000000e+00
    outer loop
        vertex 8.000000e+00 6.508578e+01 -1.985787e+00
        vertex 8.000000e+00 6.850000e+01 -3.400000e+00
        vertex 8.000000e+00 6.550000e+01 -1.667950e+00
    endloop
endfacet
facet normal 1.000000e+00 -0.000000e+00 0.000000e+00
    outer loop
        vertex 8.000000e+00 6.476794e+01 -2.400000e+00
        vertex 8.000000e+00 6.850000e+01 -3.400000e+00
        vertex 8.000000e+00 6.508578e+01 -1.985787e+00
    endloop
endfacet
facet normal 1.000000e+00 -0.000000e+00 0.000000e+00
    outer loop
        vertex 8.000000e+00 6.456815e+01 -2.882363e+00
        vertex 8.000000e+00 6.850000e+01 -3.400000e+00
        vertex 8.000000e+00 6.476794e+01 -2.400000e+00
    endloop
endfacet
facet normal 1.000000e+00 0.000000e+00 0.000000e+00
    outer loop
        vertex 8.000000e+00 6.450000e+01 -3.400000e+00
        vertex 8.000000e+00 6.850000e+01 -3.400000e+00
        vertex 8.000000e+00 6.456815e+01 -2.882363e+00
    endloop
endfacet
facet normal 1.000000e+00 -0.000000e+00 0.000000e+00
    outer loop
        vertex 8.000000e+00 6.450000e+01 -3.400000e+00
        vertex 8.000000e+00 6.456815e+01 -3.917637e+00
        vertex 8.000000e+00 6.850000e+01 -3.400000e+00
    endloop
endfacet
facet normal 1.000000e+00 -0.000000e+00 0.000000e+00
    outer loop
        vertex 8.000000e+00 6.456815e+01 -3.917637e+00
        vertex 8.000000e+00 6.476794e+01 -4.400000e+00
        vertex 8.000000e+00 6.850000e+01 -3.400000e+00
    endloop
endfacet
facet normal 1.000000e+00 -0.000000e+00 0.000000e+00
    outer loop
        vertex 8.000000e+00 6.476794e+01 -4.400000e+00
        vertex 8.000000e+00 6.508578e+01 -4.814213e+00
        vertex 8.000000e+00 6.850000e+01 -3.400000e+00
    endloop
endfacet
facet normal 1.000000e+00 -0.000000e+00 0.000000e+00
    outer loop
        vertex 8.000000e+00 6.508578e+01 -4.814213e+00
        vertex 8.000000e+00 6.550000e+01 -5.132050e+00
        vertex 8.000000e+00 6.850000e+01 -3.400000e+00
    endloop
endfacet
facet normal 1.000000e+00 -0.000000e+00 0.000000e+00
    outer loop
        vertex 8.000000e+00 6.550000e+01 -5.132050e+00
        vertex 8.000000e+00 6.598236e+01 -5.331852e+00
        vertex 8.000000e+00 6.850000e+01 -3.400000e+00
    endloop
endfacet
facet normal 1.000000e+00 0.000000e+00 0.000000e+00
    outer loop
        vertex 8.000000e+00 6.598236e+01 -5.331852e+00
        vertex 8.000000e+00 6.843185e+01 -3.917637e+00
        vertex 8.000000e+00 6.850000e+01 -3.400000e+00
    endloop
endfacet
facet normal 1.000000e+00 0.000000e+00 0.000000e+00
    outer loop
        vertex 8.000000e+00 6.598236e+01 -5.331852e+00
        vertex 8.000000e+00 6.823206e+01 -4.400000e+00
        vertex 8.000000e+00 6.843185e+01 -3.917637e+00
    endloop
endfacet
facet normal 1.000000e+00 -0.000000e+00 0.000000e+00
    outer loop
        vertex 8.000000e+00 6.598236e+01 -5.331852e+00
        vertex 8.000000e+00 6.650000e+01 -5.400000e+00
        vertex 8.000000e+00 6.823206e+01 -4.400000e+00
    endloop
endfacet
facet normal 1.000000e+00 0.000000e+00 0.000000e+00
    outer loop
        vertex 8.000000e+00 6.650000e+01 -5.400000e+00
        vertex 8.000000e+00 6.791422e+01 -4.814213e+00
        vertex 8.000000e+00 6.823206e+01 -4.400000e+00
    endloop
endfacet
facet normal 1.000000e+00 0.000000e+00 0.000000e+00
    outer loop
        vertex 8.000000e+00 6.650000e+01 -5.400000e+00
        vertex 8.000000e+00 6.701764e+01 -5.331852e+00
        vertex 8.000000e+00 6.750000e+01 -5.132050e+00
    endloop
endfacet
facet normal 1.000000e+00 0.000000e+00 0.000000e+00
    outer loop
        vertex 8.000000e+00 6.650000e+01 -5.400000e+00
        vertex 8.000000e+00 6.750000e+01 -5.132050e+00
        vertex 8.000000e+00 6.791422e+01 -4.814213e+00
    endloop
endfacet
facet normal 0.000000e+00 -1.305246e-01 9.914451e-01
    outer loop
        vertex -8.000000e+00 6.598236e+01 -1.468148e+00
        vertex 8.000000e+00 6.598236e+01 -1.468148e+00
        vertex -8.000000e+00 6.650000e+01 -1.400000e+00
    endloop
endfacet
facet normal 0.000000e+00 -1.305246e-01 9.914451e-01
    outer loop
        vertex 8.000000e+00 6.598236e+01 -1.468148e+00
        vertex 8.000000e+00 6.650000e+01 -1.400000e+00
        vertex -8.000000e+00 6.650000e+01 -1.400000e+00
    endloop
endfacet
facet normal 0.000000e+00 1.305246e-01 9.914451e-01
    outer loop
        vertex -6.000000e+00 6.650000e+01 -1.400000e+00
        vertex -8.000000e+00 6.701764e+01 -1.468148e+00
        vertex -8.000000e+00 6.650000e+01 -1.400000e+00
    endloop
endfacet
facet normal 0.000000e+00 1.305246e-01 9.914451e-01
    outer loop
        vertex -6.000000e+00 6.650000e+01 -1.400000e+00
        vertex -6.000000e+00 6.701764e+01 -1.468148e+00
        vertex -8.000000e+00 6.701764e+01 -1.468148e+00
    endloop
endfacet
facet normal 0.000000e+00 1.305246e-01 9.914451e-01
    outer loop
        vertex 8.000000e+00 6.650000e+01 -1.400000e+00
        vertex 8.000000e+00 6.701764e+01 -1.468148e+00
        vertex 6.000000e+00 6.701764e+01 -1.468148e+00
    endloop
endfacet
facet normal -0.000000e+00 1.305246e-01 9.914451e-01
    outer loop
        vertex 6.000000e+00 6.650000e+01 -1.400000e+00
        vertex 8.000000e+00 6.650000e+01 -1.400000e+00
        vertex 6.000000e+00 6.701764e+01 -1.468148e+00
    endloop
endfacet
facet normal 0.000000e+00 3.826867e-01 9.238782e-01
    outer loop
        vertex -6.000000e+00 6.701764e+01 -1.468148e+00
        vertex -8.000000e+00 6.750000e+01 -1.667950e+00
        vertex -8.000000e+00 6.701764e+01 -1.468148e+00
    endloop
endfacet
facet normal 0.000000e+00 3.826867e-01 9.238782e-01
    outer loop
        vertex -6.000000e+00 6.701764e+01 -1.468148e+00
        vertex -6.000000e+00 6.750000e+01 -1.667950e+00
        vertex -8.000000e+00 6.750000e+01 -1.667950e+00
    endloop
endfacet
facet normal 0.000000e+00 3.826867e-01 9.238782e-01
    outer loop
        vertex 8.000000e+00 6.701764e+01 -1.468148e+00
        vertex 8.000000e+00 6.750000e+01 -1.667950e+00
        vertex 6.000000e+00 6.750000e+01 -1.667950e+00
    endloop
endfacet
facet normal -0.000000e+00 3.826867e-01 9.238782e-01
    outer loop
        vertex 6.000000e+00 6.701764e+01 -1.468148e+00
        vertex 8.000000e+00 6.701764e+01 -1.468148e+00
        vertex 6.000000e+00 6.750000e+01 -1.667950e+00
    endloop
endfacet
facet normal 0.000000e+00 6.087595e-01 7.933549e-01
    outer loop
        vertex -6.000000e+00 6.750000e+01 -1.667950e+00
        vertex -8.000000e+00 6.791422e+01 -1.985787e+00
        vertex -8.000000e+00 6.750000e+01 -1.667950e+00
    endloop
endfacet
facet normal 0.000000e+00 6.087595e-01 7.933549e-01
    outer loop
        vertex -6.000000e+00 6.750000e+01 -1.667950e+00
        vertex -6.000000e+00 6.791422e+01 -1.985787e+00
        vertex -8.000000e+00 6.791422e+01 -1.985787e+00
    endloop
endfacet
facet normal 0.000000e+00 6.087595e-01 7.933549e-01
    outer loop
        vertex 8.000000e+00 6.750000e+01 -1.667950e+00
        vertex 8.000000e+00 6.791422e+01 -1.985787e+00
        vertex 6.000000e+00 6.791422e+01 -1.985787e+00
    endloop
endfacet
facet normal -0.000000e+00 6.087595e-01 7.933549e-01
    outer loop
        vertex 6.000000e+00 6.750000e+01 -1.667950e+00
        vertex 8.000000e+00 6.750000e+01 -1.667950e+00
        vertex 6.000000e+00 6.791422e+01 -1.985787e+00
    endloop
endfacet
facet normal 0.000000e+00 7.933500e-01 6.087658e-01
    outer loop
        vertex -6.000000e+00 6.791422e+01 -1.985787e+00
        vertex -8.000000e+00 6.823206e+01 -2.400000e+00
        vertex -8.000000e+00 6.791422e+01 -1.985787e+00
    endloop
endfacet
facet normal 0.000000e+00 7.933500e-01 6.087658e-01
    outer loop
        vertex -6.000000e+00 6.791422e+01 -1.985787e+00
        vertex -6.000000e+00 6.823206e+01 -2.400000e+00
        vertex -8.000000e+00 6.823206e+01 -2.400000e+00
    endloop
endfacet
facet normal 0.000000e+00 7.933500e-01 6.087658e-01
    outer loop
        vertex 8.000000e+00 6.791422e+01 -1.985787e+00
        vertex 8.000000e+00 6.823206e+01 -2.400000e+00
        vertex 6.000000e+00 6.823206e+01 -2.400000e+00
    endloop
endfacet
facet normal -0.000000e+00 7.933500e-01 6.087658e-01
    outer loop
        vertex 6.000000e+00 6.791422e+01 -1.985787e+00
        vertex 8.000000e+00 6.791422e+01 -1.985787e+00
        vertex 6.000000e+00 6.823206e+01 -2.400000e+00
    endloop
endfacet
facet normal 0.000000e+00 9.238813e-01 3.826792e-01
    outer loop
        vertex -6.000000e+00 6.823206e+01 -2.400000e+00
        vertex -8.000000e+00 6.843185e+01 -2.882363e+00
        vertex -8.000000e+00 6.823206e+01 -2.400000e+00
    endloop
endfacet
facet normal 0.000000e+00 9.238813e-01 3.826792e-01
    outer loop
        vertex -6.000000e+00 6.823206e+01 -2.400000e+00
        vertex -6.000000e+00 6.843185e+01 -2.882363e+00
        vertex -8.000000e+00 6.843185e+01 -2.882363e+00
    endloop
endfacet
facet normal 0.000000e+00 9.238813e-01 3.826792e-01
    outer loop
        vertex 8.000000e+00 6.823206e+01 -2.400000e+00
        vertex 8.000000e+00 6.843185e+01 -2.882363e+00
        vertex 6.000000e+00 6.843185e+01 -2.882363e+00
    endloop
endfacet
facet normal -0.000000e+00 9.238813e-01 3.826792e-01
    outer loop
        vertex 6.000000e+00 6.823206e+01 -2.400000e+00
        vertex 8.000000e+00 6.823206e+01 -2.400000e+00
        vertex 6.000000e+00 6.843185e+01 -2.882363e+00
    endloop
endfacet
facet normal 0.000000e+00 9.914455e-01 1.305215e-01
    outer loop
        vertex -6.000000e+00 6.843185e+01 -2.882363e+00
        vertex -8.000000e+00 6.850000e+01 -3.400000e+00
        vertex -8.000000e+00 6.843185e+01 -2.882363e+00
    endloop
endfacet
facet normal 0.000000e+00 9.914455e-01 1.305215e-01
    outer loop
        vertex -6.000000e+00 6.843185e+01 -2.882363e+00
        vertex -6.000000e+00 6.850000e+01 -3.400000e+00
        vertex -8.000000e+00 6.850000e+01 -3.400000e+00
    endloop
endfacet
facet normal 0.000000e+00 9.914455e-01 1.305215e-01
    outer loop
        vertex 8.000000e+00 6.843185e+01 -2.882363e+00
        vertex 8.000000e+00 6.850000e+01 -3.400000e+00
        vertex 6.000000e+00 6.850000e+01 -3.400000e+00
    endloop
endfacet
facet normal -0.000000e+00 9.914455e-01 1.305215e-01
    outer loop
        vertex 6.000000e+00 6.843185e+01 -2.882363e+00
        vertex 8.000000e+00 6.843185e+01 -2.882363e+00
        vertex 6.000000e+00 6.850000e+01 -3.400000e+00
    endloop
endfacet
facet normal 0.000000e+00 9.914455e-01 -1.305215e-01
    outer loop
        vertex -8.000000e+00 6.843185e+01 -3.917637e+00
        vertex -8.000000e+00 6.850000e+01 -3.400000e+00
        vertex -6.000000e+00 6.850000e+01 -3.400000e+00
    endloop
endfacet
facet normal 0.000000e+00 9.914455e-01 -1.305215e-01
    outer loop
        vertex -6.000000e+00 6.843185e+01 -3.917637e+00
        vertex -8.000000e+00 6.843185e+01 -3.917637e+00
        vertex -6.000000e+00 6.850000e+01 -3.400000e+00
    endloop
endfacet
facet normal 0.000000e+00 9.914455e-01 -1.305215e-01
    outer loop
        vertex 6.000000e+00 6.843185e+01 -3.917637e+00
        vertex 8.000000e+00 6.850000e+01 -3.400000e+00
        vertex 8.000000e+00 6.843185e+01 -3.917637e+00
    endloop
endfacet
facet normal 0.000000e+00 9.914455e-01 -1.305215e-01
    outer loop
        vertex 6.000000e+00 6.843185e+01 -3.917637e+00
        vertex 6.000000e+00 6.850000e+01 -3.400000e+00
        vertex 8.000000e+00 6.850000e+01 -3.400000e+00
    endloop
endfacet
facet normal 0.000000e+00 9.238812e-01 -3.826795e-01
    outer loop
        vertex -8.000000e+00 6.823206e+01 -4.400000e+00
        vertex -8.000000e+00 6.843185e+01 -3.917637e+00
        vertex -6.000000e+00 6.843185e+01 -3.917637e+00
    endloop
endfacet
facet normal 0.000000e+00 9.238812e-01 -3.826795e-01
    outer loop
        vertex -6.000000e+00 6.823206e+01 -4.400000e+00
        vertex -8.000000e+00 6.823206e+01 -4.400000e+00
        vertex -6.000000e+00 6.843185e+01 -3.917637e+00
    endloop
endfacet
facet normal 0.000000e+00 9.238812e-01 -3.826795e-01
    outer loop
        vertex 6.000000e+00 6.823206e+01 -4.400000e+00
        vertex 8.000000e+00 6.843185e+01 -3.917637e+00
        vertex 8.000000e+00 6.823206e+01 -4.400000e+00
    endloop
endfacet
facet normal 0.000000e+00 9.238812e-01 -3.826795e-01
    outer loop
        vertex 6.000000e+00 6.823206e+01 -4.400000e+00
        vertex 6.000000e+00 6.843185e+01 -3.917637e+00
        vertex 8.000000e+00 6.843185e+01 -3.917637e+00
    endloop
endfacet
facet normal 0.000000e+00 7.933500e-01 -6.087658e-01
    outer loop
        vertex -8.000000e+00 6.791422e+01 -4.814213e+00
        vertex -8.000000e+00 6.823206e+01 -4.400000e+00
        vertex -6.000000e+00 6.823206e+01 -4.400000e+00
    endloop
endfacet
facet normal 0.000000e+00 7.933500e-01 -6.087658e-01
    outer loop
        vertex -6.000000e+00 6.791422e+01 -4.814213e+00
        vertex -8.000000e+00 6.791422e+01 -4.814213e+00
        vertex -6.000000e+00 6.823206e+01 -4.400000e+00
    endloop
endfacet
facet normal 0.000000e+00 7.933500e-01 -6.087658e-01
    outer loop
        vertex 6.000000e+00 6.791422e+01 -4.814213e+00
        vertex 8.000000e+00 6.823206e+01 -4.400000e+00
        vertex 8.000000e+00 6.791422e+01 -4.814213e+00
    endloop
endfacet
facet normal 0.000000e+00 7.933500e-01 -6.087658e-01
    outer loop
        vertex 6.000000e+00 6.791422e+01 -4.814213e+00
        vertex 6.000000e+00 6.823206e+01 -4.400000e+00
        vertex 8.000000e+00 6.823206e+01 -4.400000e+00
    endloop
endfacet
facet normal 0.000000e+00 6.087595e-01 -7.933549e-01
    outer loop
        vertex -8.000000e+00 6.750000e+01 -5.132050e+00
        vertex -8.000000e+00 6.791422e+01 -4.814213e+00
        vertex -6.000000e+00 6.791422e+01 -4.814213e+00
    endloop
endfacet
facet normal 0.000000e+00 6.087595e-01 -7.933549e-01
    outer loop
        vertex -6.000000e+00 6.750000e+01 -5.132050e+00
        vertex -8.000000e+00 6.750000e+01 -5.132050e+00
        vertex -6.000000e+00 6.791422e+01 -4.814213e+00
    endloop
endfacet
facet normal 0.000000e+00 6.087595e-01 -7.933549e-01
    outer loop
        vertex 6.000000e+00 6.750000e+01 -5.132050e+00
        vertex 8.000000e+00 6.791422e+01 -4.814213e+00
        vertex 8.000000e+00 6.750000e+01 -5.132050e+00
    endloop
endfacet
facet normal 0.000000e+00 6.087595e-01 -7.933549e-01
    outer loop
        vertex 6.000000e+00 6.750000e+01 -5.132050e+00
        vertex 6.000000e+00 6.791422e+01 -4.814213e+00
        vertex 8.000000e+00 6.791422e+01 -4.814213e+00
    endloop
endfacet
facet normal 0.000000e+00 3.826867e-01 -9.238782e-01
    outer loop
        vertex -8.000000e+00 6.701764e+01 -5.331852e+00
        vertex -8.000000e+00 6.750000e+01 -5.132050e+00
        vertex -6.000000e+00 6.750000e+01 -5.132050e+00
    endloop
endfacet
facet normal 0.000000e+00 3.826867e-01 -9.238782e-01
    outer loop
        vertex -6.000000e+00 6.701764e+01 -5.331852e+00
        vertex -8.000000e+00 6.701764e+01 -5.331852e+00
        vertex -6.000000e+00 6.750000e+01 -5.132050e+00
    endloop
endfacet
facet normal 0.000000e+00 3.826867e-01 -9.238782e-01
    outer loop
        vertex 6.000000e+00 6.701764e+01 -5.331852e+00
        vertex 8.000000e+00 6.750000e+01 -5.132050e+00
        vertex 8.000000e+00 6.701764e+01 -5.331852e+00
    endloop
endfacet
facet normal 0.000000e+00 3.826867e-01 -9.238782e-01
    outer loop
        vertex 6.000000e+00 6.701764e+01 -5.331852e+00
        vertex 6.000000e+00 6.750000e+01 -5.132050e+00
        vertex 8.000000e+00 6.750000e+01 -5.132050e+00
    endloop
endfacet
facet normal 0.000000e+00 1.305246e-01 -9.914451e-01
    outer loop
        vertex -8.000000e+00 6.650000e+01 -5.400000e+00
        vertex -8.000000e+00 6.701764e+01 -5.331852e+00
        vertex -6.000000e+00 6.701764e+01 -5.331852e+00
    endloop
endfacet
facet normal 0.000000e+00 1.305246e-01 -9.914451e-01
    outer loop
        vertex -6.000000e+00 6.650000e+01 -5.400000e+00
        vertex -8.000000e+00 6.650000e+01 -5.400000e+00
        vertex -6.000000e+00 6.701764e+01 -5.331852e+00
    endloop
endfacet
facet normal 0.000000e+00 1.305246e-01 -9.914451e-01
    outer loop
        vertex 6.000000e+00 6.650000e+01 -5.400000e+00
        vertex 8.000000e+00 6.701764e+01 -5.331852e+00
        vertex 8.000000e+00 6.650000e+01 -5.400000e+00
    endloop
endfacet
facet normal 0.000000e+00 1.305246e-01 -9.914451e-01
    outer loop
        vertex 6.000000e+00 6.650000e+01 -5.400000e+00
        vertex 6.000000e+00 6.701764e+01 -5.331852e+00
        vertex 8.000000e+00 6.701764e+01 -5.331852e+00
    endloop
endfacet
facet normal -0.000000e+00 -1.305246e-01 -9.914451e-01
    outer loop
        vertex 8.000000e+00 6.598236e+01 -5.331852e+00
        vertex -8.000000e+00 6.598236e+01 -5.331852e+00
        vertex -8.000000e+00 6.650000e+01 -5.400000e+00
    endloop
endfacet
facet normal 0.000000e+00 -1.305246e-01 -9.914451e-01
    outer loop
        vertex 8.000000e+00 6.598236e+01 -5.331852e+00
        vertex -8.000000e+00 6.650000e+01 -5.400000e+00
        vertex 8.000000e+00 6.650000e+01 -5.400000e+00
    endloop
endfacet
facet normal 0.000000e+00 0.000000e+00 -1.000000e+00
    outer loop
        vertex 5.200000e+00 7.373923e+01 -1.400000e+00
        vertex 4.600000e+00 7.390000e+01 -1.400000e+00
        vertex 4.910583e+00 7.385912e+01 -1.400000e+00
    endloop
endfacet
facet normal 0.000000e+00 0.000000e+00 -1.000000e+00
    outer loop
        vertex 5.448528e+00 7.354852e+01 -1.400000e+00
        vertex 4.600000e+00 7.390000e+01 -1.400000e+00
        vertex 5.200000e+00 7.373923e+01 -1.400000e+00
    endloop
endfacet
facet normal 0.000000e+00 0.000000e+00 -1.000000e+00
    outer loop
        vertex 5.448528e+00 7.354852e+01 -1.400000e+00
        vertex 4.289417e+00 7.385912e+01 -1.400000e+00
        vertex 4.600000e+00 7.390000e+01 -1.400000e+00
    endloop
endfacet
facet normal 0.000000e+00 0.000000e+00 -1.000000e+00
    outer loop
        vertex 5.448528e+00 7.354852e+01 -1.400000e+00
        vertex 4.000000e+00 7.373923e+01 -1.400000e+00
        vertex 4.289417e+00 7.385912e+01 -1.400000e+00
    endloop
endfacet
facet normal 0.000000e+00 0.000000e+00 -1.000000e+00
    outer loop
        vertex 3.751472e+00 7.354852e+01 -1.400000e+00
        vertex 4.000000e+00 7.373923e+01 -1.400000e+00
        vertex 5.448528e+00 7.354852e+01 -1.400000e+00
    endloop
endfacet
facet normal 0.000000e+00 0.000000e+00 -1.000000e+00
    outer loop
        vertex 5.639230e+00 7.330000e+01 -1.400000e+00
        vertex 3.751472e+00 7.354852e+01 -1.400000e+00
        vertex 5.448528e+00 7.354852e+01 -1.400000e+00
    endloop
endfacet
facet normal 0.000000e+00 0.000000e+00 -1.000000e+00
    outer loop
        vertex 5.759111e+00 7.301058e+01 -1.400000e+00
        vertex 3.751472e+00 7.354852e+01 -1.400000e+00
        vertex 5.639230e+00 7.330000e+01 -1.400000e+00
    endloop
endfacet
facet normal 0.000000e+00 0.000000e+00 -1.000000e+00
    outer loop
        vertex 5.800000e+00 7.270000e+01 -1.400000e+00
        vertex 3.751472e+00 7.354852e+01 -1.400000e+00
        vertex 5.759111e+00 7.301058e+01 -1.400000e+00
    endloop
endfacet
facet normal 0.000000e+00 0.000000e+00 -1.000000e+00
    outer loop
        vertex 5.759111e+00 7.238942e+01 -1.400000e+00
        vertex 3.751472e+00 7.354852e+01 -1.400000e+00
        vertex 5.800000e+00 7.270000e+01 -1.400000e+00
    endloop
endfacet
facet normal 0.000000e+00 0.000000e+00 -1.000000e+00
    outer loop
        vertex 5.639230e+00 7.210000e+01 -1.400000e+00
        vertex 3.751472e+00 7.354852e+01 -1.400000e+00
        vertex 5.759111e+00 7.238942e+01 -1.400000e+00
    endloop
endfacet
facet normal 0.000000e+00 0.000000e+00 -1.000000e+00
    outer loop
        vertex 5.448528e+00 7.185147e+01 -1.400000e+00
        vertex 3.751472e+00 7.354852e+01 -1.400000e+00
        vertex 5.639230e+00 7.210000e+01 -1.400000e+00
    endloop
endfacet
facet normal 0.000000e+00 0.000000e+00 -1.000000e+00
    outer loop
        vertex 5.200000e+00 7.166077e+01 -1.400000e+00
        vertex 3.751472e+00 7.354852e+01 -1.400000e+00
        vertex 5.448528e+00 7.185147e+01 -1.400000e+00
    endloop
endfacet
facet normal 0.000000e+00 0.000000e+00 -1.000000e+00
    outer loop
        vertex 4.910583e+00 7.154089e+01 -1.400000e+00
        vertex 3.751472e+00 7.354852e+01 -1.400000e+00
        vertex 5.200000e+00 7.166077e+01 -1.400000e+00
    endloop
endfacet
facet normal 0.000000e+00 0.000000e+00 -1.000000e+00
    outer loop
        vertex 4.600000e+00 7.150000e+01 -1.400000e+00
        vertex 3.751472e+00 7.354852e+01 -1.400000e+00
        vertex 4.910583e+00 7.154089e+01 -1.400000e+00
    endloop
endfacet
facet normal 0.000000e+00 0.000000e+00 -1.000000e+00
    outer loop
        vertex 4.600000e+00 7.150000e+01 -1.400000e+00
        vertex 4.289417e+00 7.154089e+01 -1.400000e+00
        vertex 3.751472e+00 7.354852e+01 -1.400000e+00
    endloop
endfacet
facet normal 0.000000e+00 0.000000e+00 -1.000000e+00
    outer loop
        vertex 4.289417e+00 7.154089e+01 -1.400000e+00
        vertex 4.000000e+00 7.166077e+01 -1.400000e+00
        vertex 3.751472e+00 7.354852e+01 -1.400000e+00
    endloop
endfacet
facet normal 0.000000e+00 0.000000e+00 -1.000000e+00
    outer loop
        vertex 4.000000e+00 7.166077e+01 -1.400000e+00
        vertex 3.751472e+00 7.185147e+01 -1.400000e+00
        vertex 3.751472e+00 7.354852e+01 -1.400000e+00
    endloop
endfacet
facet normal 0.000000e+00 0.000000e+00 -1.000000e+00
    outer loop
        vertex 3.751472e+00 7.185147e+01 -1.400000e+00
        vertex 3.560770e+00 7.210000e+01 -1.400000e+00
        vertex 3.751472e+00 7.354852e+01 -1.400000e+00
    endloop
endfacet
facet normal 0.000000e+00 0.000000e+00 -1.000000e+00
    outer loop
        vertex 3.560770e+00 7.210000e+01 -1.400000e+00
        vertex 3.440889e+00 7.238942e+01 -1.400000e+00
        vertex 3.751472e+00 7.354852e+01 -1.400000e+00
    endloop
endfacet
facet normal 0.000000e+00 0.000000e+00 -1.000000e+00
    outer loop
        vertex 3.440889e+00 7.238942e+01 -1.400000e+00
        vertex 3.400000e+00 7.270000e+01 -1.400000e+00
        vertex 3.751472e+00 7.354852e+01 -1.400000e+00
    endloop
endfacet
facet normal 0.000000e+00 0.000000e+00 -1.000000e+00
    outer loop
        vertex 3.400000e+00 7.270000e+01 -1.400000e+00
        vertex 3.440889e+00 7.301058e+01 -1.400000e+00
        vertex 3.751472e+00 7.354852e+01 -1.400000e+00
    endloop
endfacet
facet normal 0.000000e+00 0.000000e+00 -1.000000e+00
    outer loop
        vertex 3.440889e+00 7.301058e+01 -1.400000e+00
        vertex 3.560770e+00 7.330000e+01 -1.400000e+00
        vertex 3.751472e+00 7.354852e+01 -1.400000e+00
    endloop
endfacet
facet normal -9.914445e-01 1.305293e-01 0.000000e+00
    outer loop
        vertex 5.759111e+00 7.238942e+01 -5.500000e+00
        vertex 5.759111e+00 7.238942e+01 -1.400000e+00
        vertex 5.800000e+00 7.270000e+01 -1.400000e+00
    endloop
endfacet
facet normal -9.914445e-01 1.305293e-01 0.000000e+00
    outer loop
        vertex 5.759111e+00 7.238942e+01 -5.500000e+00
        vertex 5.800000e+00 7.270000e+01 -1.400000e+00
        vertex 5.800000e+00 7.270000e+01 -5.500000e+00
    endloop
endfacet
facet normal -9.238812e-01 3.826795e-01 0.000000e+00
    outer loop
        vertex 5.639230e+00 7.210000e+01 -5.500000e+00
        vertex 5.639230e+00 7.210000e+01 -1.400000e+00
        vertex 5.759111e+00 7.238942e+01 -1.400000e+00
    endloop
endfacet
facet normal -9.238812e-01 3.826795e-01 0.000000e+00
    outer loop
        vertex 5.639230e+00 7.210000e+01 -5.500000e+00
        vertex 5.759111e+00 7.238942e+01 -1.400000e+00
        vertex 5.759111e+00 7.238942e+01 -5.500000e+00
    endloop
endfacet
facet normal -7.933532e-01 6.087616e-01 0.000000e+00
    outer loop
        vertex 5.448528e+00 7.185147e+01 -5.500000e+00
        vertex 5.448528e+00 7.185147e+01 -1.400000e+00
        vertex 5.639230e+00 7.210000e+01 -1.400000e+00
    endloop
endfacet
facet normal -7.933532e-01 6.087616e-01 0.000000e+00
    outer loop
        vertex 5.448528e+00 7.185147e+01 -5.500000e+00
        vertex 5.639230e+00 7.210000e+01 -1.400000e+00
        vertex 5.639230e+00 7.210000e+01 -5.500000e+00
    endloop
endfacet
facet normal -6.087649e-01 7.933506e-01 0.000000e+00
    outer loop
        vertex 5.200000e+00 7.166077e+01 -5.500000e+00
        vertex 5.200000e+00 7.166077e+01 -1.400000e+00
        vertex 5.448528e+00 7.185147e+01 -1.400000e+00
    endloop
endfacet
facet normal -6.087649e-01 7.933506e-01 0.000000e+00
    outer loop
        vertex 5.200000e+00 7.166077e+01 -5.500000e+00
        vertex 5.448528e+00 7.185147e+01 -1.400000e+00
        vertex 5.448528e+00 7.185147e+01 -5.500000e+00
    endloop
endfacet
facet normal -3.826635e-01 9.238878e-01 0.000000e+00
    outer loop
        vertex 4.910583e+00 7.154089e+01 -5.500000e+00
        vertex 4.910583e+00 7.154089e+01 -1.400000e+00
        vertex 5.200000e+00 7.166077e+01 -1.400000e+00
    endloop
endfacet
facet normal -3.826635e-01 9.238878e-01 0.000000e+00
    outer loop
        vertex 4.910583e+00 7.154089e+01 -5.500000e+00
        vertex 5.200000e+00 7.166077e+01 -1.400000e+00
        vertex 5.200000e+00 7.166077e+01 -5.500000e+00
    endloop
endfacet
facet normal -1.305404e-01 9.914430e-01 0.000000e+00
    outer loop
        vertex 4.600000e+00 7.150000e+01 -5.500000e+00
        vertex 4.600000e+00 7.150000e+01 -1.400000e+00
        vertex 4.910583e+00 7.154089e+01 -1.400000e+00
    endloop
endfacet
facet normal -1.305404e-01 9.914430e-01 0.000000e+00
    outer loop
        vertex 4.600000e+00 7.150000e+01 -5.500000e+00
        vertex 4.910583e+00 7.154089e+01 -1.400000e+00
        vertex 4.910583e+00 7.154089e+01 -5.500000e+00
    endloop
endfacet
facet normal 1.305405e-01 9.914430e-01 -0.000000e+00
    outer loop
        vertex 4.600000e+00 7.150000e+01 -5.500000e+00
        vertex 4.289417e+00 7.154089e+01 -1.400000e+00
        vertex 4.600000e+00 7.150000e+01 -1.400000e+00
    endloop
endfacet
facet normal 1.305405e-01 9.914430e-01 0.000000e+00
    outer loop
        vertex 4.600000e+00 7.150000e+01 -5.500000e+00
        vertex 4.289417e+00 7.154089e+01 -5.500000e+00
        vertex 4.289417e+00 7.154089e+01 -1.400000e+00
    endloop
endfacet
facet normal 3.826630e-01 9.238880e-01 -0.000000e+00
    outer loop
        vertex 4.289417e+00 7.154089e+01 -5.500000e+00
        vertex 4.000000e+00 7.166077e+01 -1.400000e+00
        vertex 4.289417e+00 7.154089e+01 -1.400000e+00
    endloop
endfacet
facet normal 3.826630e-01 9.238880e-01 0.000000e+00
    outer loop
        vertex 4.289417e+00 7.154089e+01 -5.500000e+00
        vertex 4.000000e+00 7.166077e+01 -5.500000e+00
        vertex 4.000000e+00 7.166077e+01 -1.400000e+00
    endloop
endfacet
facet normal 6.087657e-01 7.933501e-01 -0.000000e+00
    outer loop
        vertex 4.000000e+00 7.166077e+01 -5.500000e+00
        vertex 3.751472e+00 7.185147e+01 -1.400000e+00
        vertex 4.000000e+00 7.166077e+01 -1.400000e+00
    endloop
endfacet
facet normal 6.087657e-01 7.933501e-01 0.000000e+00
    outer loop
        vertex 4.000000e+00 7.166077e+01 -5.500000e+00
        vertex 3.751472e+00 7.185147e+01 -5.500000e+00
        vertex 3.751472e+00 7.185147e+01 -1.400000e+00
    endloop
endfacet
facet normal 7.933525e-01 6.087626e-01 -0.000000e+00
    outer loop
        vertex 3.751472e+00 7.185147e+01 -5.500000e+00
        vertex 3.560770e+00 7.210000e+01 -1.400000e+00
        vertex 3.751472e+00 7.185147e+01 -1.400000e+00
    endloop
endfacet
facet normal 7.933525e-01 6.087626e-01 0.000000e+00
    outer loop
        vertex 3.751472e+00 7.185147e+01 -5.500000e+00
        vertex 3.560770e+00 7.210000e+01 -5.500000e+00
        vertex 3.560770e+00 7.210000e+01 -1.400000e+00
    endloop
endfacet
facet normal 9.238815e-01 3.826788e-01 -0.000000e+00
    outer loop
        vertex 3.560770e+00 7.210000e+01 -5.500000e+00
        vertex 3.440889e+00 7.238942e+01 -1.400000e+00
        vertex 3.560770e+00 7.210000e+01 -1.400000e+00
    endloop
endfacet
facet normal 9.238815e-01 3.826788e-01 0.000000e+00
    outer loop
        vertex 3.560770e+00 7.210000e+01 -5.500000e+00
        vertex 3.440889e+00 7.238942e+01 -5.500000e+00
        vertex 3.440889e+00 7.238942e+01 -1.400000e+00
    endloop
endfacet
facet normal 9.914445e-01 1.305285e-01 -0.000000e+00
    outer loop
        vertex 3.440889e+00 7.238942e+01 -5.500000e+00
        vertex 3.400000e+00 7.270000e+01 -1.400000e+00
        vertex 3.440889e+00 7.238942e+01 -1.400000e+00
    endloop
endfacet
facet normal 9.914445e-01 1.305285e-01 0.000000e+00
    outer loop
        vertex 3.440889e+00 7.238942e+01 -5.500000e+00
        vertex 3.400000e+00 7.270000e+01 -5.500000e+00
        vertex 3.400000e+00 7.270000e+01 -1.400000e+00
    endloop
endfacet
facet normal 9.914449e-01 -1.305254e-01 0.000000e+00
    outer loop
        vertex 3.400000e+00 7.270000e+01 -5.500000e+00
        vertex 3.440889e+00 7.301058e+01 -1.400000e+00
        vertex 3.400000e+00 7.270000e+01 -1.400000e+00
    endloop
endfacet
facet normal 9.914449e-01 -1.305254e-01 0.000000e+00
    outer loop
        vertex 3.400000e+00 7.270000e+01 -5.500000e+00
        vertex 3.440889e+00 7.301058e+01 -5.500000e+00
        vertex 3.440889e+00 7.301058e+01 -1.400000e+00
    endloop
endfacet
facet normal 9.238815e-01 -3.826788e-01 0.000000e+00
    outer loop
        vertex 3.440889e+00 7.301058e+01 -5.500000e+00
        vertex 3.560770e+00 7.330000e+01 -1.400000e+00
        vertex 3.440889e+00 7.301058e+01 -1.400000e+00
    endloop
endfacet
facet normal 9.238815e-01 -3.826788e-01 0.000000e+00
    outer loop
        vertex 3.440889e+00 7.301058e+01 -5.500000e+00
        vertex 3.560770e+00 7.330000e+01 -5.500000e+00
        vertex 3.560770e+00 7.330000e+01 -1.400000e+00
    endloop
endfacet
facet normal 7.933434e-01 -6.087743e-01 0.000000e+00
    outer loop
        vertex 3.560770e+00 7.330000e+01 -5.500000e+00
        vertex 3.751472e+00 7.354852e+01 -1.400000e+00
        vertex 3.560770e+00 7.330000e+01 -1.400000e+00
    endloop
endfacet
facet normal 7.933434e-01 -6.087743e-01 0.000000e+00
    outer loop
        vertex 3.560770e+00 7.330000e+01 -5.500000e+00
        vertex 3.751472e+00 7.354852e+01 -5.500000e+00
        vertex 3.751472e+00 7.354852e+01 -1.400000e+00
    endloop
endfacet
facet normal 6.087657e-01 -7.933501e-01 0.000000e+00
    outer loop
        vertex 3.751472e+00 7.354852e+01 -5.500000e+00
        vertex 4.000000e+00 7.373923e+01 -1.400000e+00
        vertex 3.751472e+00 7.354852e+01 -1.400000e+00
    endloop
endfacet
facet normal 6.087657e-01 -7.933501e-01 0.000000e+00
    outer loop
        vertex 3.751472e+00 7.354852e+01 -5.500000e+00
        vertex 4.000000e+00 7.373923e+01 -5.500000e+00
        vertex 4.000000e+00 7.373923e+01 -1.400000e+00
    endloop
endfacet
facet normal 3.827046e-01 -9.238708e-01 0.000000e+00
    outer loop
        vertex 4.000000e+00 7.373923e+01 -5.500000e+00
        vertex 4.289417e+00 7.385912e+01 -1.400000e+00
        vertex 4.000000e+00 7.373923e+01 -1.400000e+00
    endloop
endfacet
facet normal 3.827046e-01 -9.238708e-01 0.000000e+00
    outer loop
        vertex 4.000000e+00 7.373923e+01 -5.500000e+00
        vertex 4.289417e+00 7.385912e+01 -5.500000e+00
        vertex 4.289417e+00 7.385912e+01 -1.400000e+00
    endloop
endfacet
facet normal 1.305166e-01 -9.914461e-01 0.000000e+00
    outer loop
        vertex 4.289417e+00 7.385912e+01 -5.500000e+00
        vertex 4.600000e+00 7.390000e+01 -1.400000e+00
        vertex 4.289417e+00 7.385912e+01 -1.400000e+00
    endloop
endfacet
facet normal 1.305166e-01 -9.914461e-01 0.000000e+00
    outer loop
        vertex 4.289417e+00 7.385912e+01 -5.500000e+00
        vertex 4.600000e+00 7.390000e+01 -5.500000e+00
        vertex 4.600000e+00 7.390000e+01 -1.400000e+00
    endloop
endfacet
facet normal -1.305164e-01 -9.914461e-01 0.000000e+00
    outer loop
        vertex 4.910583e+00 7.385912e+01 -5.500000e+00
        vertex 4.910583e+00 7.385912e+01 -1.400000e+00
        vertex 4.600000e+00 7.390000e+01 -1.400000e+00
    endloop
endfacet
facet normal -1.305164e-01 -9.914461e-01 0.000000e+00
    outer loop
        vertex 4.910583e+00 7.385912e+01 -5.500000e+00
        vertex 4.600000e+00 7.390000e+01 -1.400000e+00
        vertex 4.600000e+00 7.390000e+01 -5.500000e+00
    endloop
endfacet
facet normal -3.827051e-01 -9.238706e-01 0.000000e+00
    outer loop
        vertex 5.200000e+00 7.373923e+01 -5.500000e+00
        vertex 5.200000e+00 7.373923e+01 -1.400000e+00
        vertex 4.910583e+00 7.385912e+01 -1.400000e+00
    endloop
endfacet
facet normal -3.827051e-01 -9.238706e-01 0.000000e+00
    outer loop
        vertex 5.200000e+00 7.373923e+01 -5.500000e+00
        vertex 4.910583e+00 7.385912e+01 -1.400000e+00
        vertex 4.910583e+00 7.385912e+01 -5.500000e+00
    endloop
endfacet
facet normal -6.087649e-01 -7.933506e-01 0.000000e+00
    outer loop
        vertex 5.448528e+00 7.354852e+01 -5.500000e+00
        vertex 5.448528e+00 7.354852e+01 -1.400000e+00
        vertex 5.200000e+00 7.373923e+01 -1.400000e+00
    endloop
endfacet
facet normal -6.087649e-01 -7.933506e-01 0.000000e+00
    outer loop
        vertex 5.448528e+00 7.354852e+01 -5.500000e+00
        vertex 5.200000e+00 7.373923e+01 -1.400000e+00
        vertex 5.200000e+00 7.373923e+01 -5.500000e+00
    endloop
endfacet
facet normal -7.933442e-01 -6.087734e-01 0.000000e+00
    outer loop
        vertex 5.639230e+00 7.330000e+01 -5.500000e+00
        vertex 5.639230e+00 7.330000e+01 -1.400000e+00
        vertex 5.448528e+00 7.354852e+01 -1.400000e+00
    endloop
endfacet
facet normal -7.933442e-01 -6.087734e-01 0.000000e+00
    outer loop
        vertex 5.639230e+00 7.330000e+01 -5.500000e+00
        vertex 5.448528e+00 7.354852e+01 -1.400000e+00
        vertex 5.448528e+00 7.354852e+01 -5.500000e+00
    endloop
endfacet
facet normal -9.238812e-01 -3.826795e-01 0.000000e+00
    outer loop
        vertex 5.759111e+00 7.301058e+01 -5.500000e+00
        vertex 5.759111e+00 7.301058e+01 -1.400000e+00
        vertex 5.639230e+00 7.330000e+01 -1.400000e+00
    endloop
endfacet
facet normal -9.238812e-01 -3.826795e-01 0.000000e+00
    outer loop
        vertex 5.759111e+00 7.301058e+01 -5.500000e+00
        vertex 5.639230e+00 7.330000e+01 -1.400000e+00
        vertex 5.639230e+00 7.330000e+01 -5.500000e+00
    endloop
endfacet
facet normal -9.914449e-01 -1.305261e-01 0.000000e+00
    outer loop
        vertex 5.800000e+00 7.270000e+01 -5.500000e+00
        vertex 5.800000e+00 7.270000e+01 -1.400000e+00
        vertex 5.759111e+00 7.301058e+01 -1.400000e+00
    endloop
endfacet
facet normal -9.914449e-01 -1.305261e-01 0.000000e+00
    outer loop
        vertex 5.800000e+00 7.270000e+01 -5.500000e+00
        vertex 5.759111e+00 7.301058e+01 -1.400000e+00
        vertex 5.759111e+00 7.301058e+01 -5.500000e+00
    endloop
endfacet
facet normal 0.000000e+00 0.000000e+00 -1.000000e+00
    outer loop
        vertex 6.000000e+00 6.650000e+01 -5.500000e+00
        vertex -6.000000e+00 6.650000e+01 -5.500000e+00
        vertex -6.000000e+00 7.900000e+01 -5.500000e+00
    endloop
endfacet
facet normal 0.000000e+00 0.000000e+00 -1.000000e+00
    outer loop
        vertex 6.000000e+00 6.650000e+01 -5.500000e+00
        vertex 4.600000e+00 7.150000e+01 -5.500000e+00
        vertex 4.910583e+00 7.154089e+01 -5.500000e+00
    endloop
endfacet
facet normal 0.000000e+00 0.000000e+00 -1.000000e+00
    outer loop
        vertex 6.000000e+00 6.650000e+01 -5.500000e+00
        vertex 4.910583e+00 7.154089e+01 -5.500000e+00
        vertex 5.200000e+00 7.166077e+01 -5.500000e+00
    endloop
endfacet
facet normal 0.000000e+00 0.000000e+00 -1.000000e+00
    outer loop
        vertex 6.000000e+00 6.650000e+01 -5.500000e+00
        vertex 4.289417e+00 7.154089e+01 -5.500000e+00
        vertex 4.600000e+00 7.150000e+01 -5.500000e+00
    endloop
endfacet
facet normal 0.000000e+00 0.000000e+00 -1.000000e+00
    outer loop
        vertex 6.000000e+00 6.650000e+01 -5.500000e+00
        vertex 5.200000e+00 7.166077e+01 -5.500000e+00
        vertex 5.448528e+00 7.185147e+01 -5.500000e+00
    endloop
endfacet
facet normal 0.000000e+00 0.000000e+00 -1.000000e+00
    outer loop
        vertex 6.000000e+00 6.650000e+01 -5.500000e+00
        vertex 4.000000e+00 7.166077e+01 -5.500000e+00
        vertex 4.289417e+00 7.154089e+01 -5.500000e+00
    endloop
endfacet
facet normal 0.000000e+00 0.000000e+00 -1.000000e+00
    outer loop
        vertex 6.000000e+00 6.650000e+01 -5.500000e+00
        vertex -6.000000e+00 7.900000e+01 -5.500000e+00
        vertex 4.000000e+00 7.166077e+01 -5.500000e+00
    endloop
endfacet
facet normal 0.000000e+00 0.000000e+00 -1.000000e+00
    outer loop
        vertex 6.000000e+00 6.650000e+01 -5.500000e+00
        vertex 5.448528e+00 7.185147e+01 -5.500000e+00
        vertex 5.639230e+00 7.210000e+01 -5.500000e+00
    endloop
endfacet
facet normal 0.000000e+00 0.000000e+00 -1.000000e+00
    outer loop
        vertex 6.000000e+00 6.650000e+01 -5.500000e+00
        vertex 5.639230e+00 7.210000e+01 -5.500000e+00
        vertex 5.759111e+00 7.238942e+01 -5.500000e+00
    endloop
endfacet
facet normal 0.000000e+00 0.000000e+00 -1.000000e+00
    outer loop
        vertex 6.000000e+00 6.650000e+01 -5.500000e+00
        vertex 5.759111e+00 7.238942e+01 -5.500000e+00
        vertex 5.800000e+00 7.270000e+01 -5.500000e+00
    endloop
endfacet
facet normal 0.000000e+00 0.000000e+00 -1.000000e+00
    outer loop
        vertex 6.000000e+00 6.650000e+01 -5.500000e+00
        vertex 5.800000e+00 7.270000e+01 -5.500000e+00
        vertex 6.000000e+00 7.900000e+01 -5.500000e+00
    endloop
endfacet
facet normal 0.000000e+00 0.000000e+00 -1.000000e+00
    outer loop
        vertex 5.800000e+00 7.270000e+01 -5.500000e+00
        vertex 5.759111e+00 7.301058e+01 -5.500000e+00
        vertex 6.000000e+00 7.900000e+01 -5.500000e+00
    endloop
endfacet
facet normal 0.000000e+00 0.000000e+00 -1.000000e+00
    outer loop
        vertex 5.759111e+00 7.301058e+01 -5.500000e+00
        vertex 5.639230e+00 7.330000e+01 -5.500000e+00
        vertex 6.000000e+00 7.900000e+01 -5.500000e+00
    endloop
endfacet
facet normal 0.000000e+00 0.000000e+00 -1.000000e+00
    outer loop
        vertex 5.639230e+00 7.330000e+01 -5.500000e+00
        vertex 5.448528e+00 7.354852e+01 -5.500000e+00
        vertex 6.000000e+00 7.900000e+01 -5.500000e+00
    endloop
endfacet
facet normal 0.000000e+00 0.000000e+00 -1.000000e+00
    outer loop
        vertex 5.448528e+00 7.354852e+01 -5.500000e+00
        vertex 5.200000e+00 7.373923e+01 -5.500000e+00
        vertex 6.000000e+00 7.900000e+01 -5.500000e+00
    endloop
endfacet
facet normal 0.000000e+00 0.000000e+00 -1.000000e+00
    outer loop
        vertex 5.200000e+00 7.373923e+01 -5.500000e+00
        vertex -6.000000e+00 7.900000e+01 -5.500000e+00
        vertex 6.000000e+00 7.900000e+01 -5.500000e+00
    endloop
endfacet
facet normal 0.000000e+00 0.000000e+00 -1.000000e+00
    outer loop
        vertex 5.200000e+00 7.373923e+01 -5.500000e+00
        vertex 4.910583e+00 7.385912e+01 -5.500000e+00
        vertex -6.000000e+00 7.900000e+01 -5.500000e+00
    endloop
endfacet
facet normal 0.000000e+00 0.000000e+00 -1.000000e+00
    outer loop
        vertex 4.910583e+00 7.385912e+01 -5.500000e+00
        vertex 4.600000e+00 7.390000e+01 -5.500000e+00
        vertex -6.000000e+00 7.900000e+01 -5.500000e+00
    endloop
endfacet
facet normal 0.000000e+00 0.000000e+00 -1.000000e+00
    outer loop
        vertex 4.289417e+00 7.385912e+01 -5.500000e+00
        vertex -6.000000e+00 7.900000e+01 -5.500000e+00
        vertex 4.600000e+00 7.390000e+01 -5.500000e+00
    endloop
endfacet
facet normal 0.000000e+00 0.000000e+00 -1.000000e+00
    outer loop
        vertex 4.000000e+00 7.373923e+01 -5.500000e+00
        vertex -6.000000e+00 7.900000e+01 -5.500000e+00
        vertex 4.289417e+00 7.385912e+01 -5.500000e+00
    endloop
endfacet
facet normal 0.000000e+00 0.000000e+00 -1.000000e+00
    outer loop
        vertex 3.751472e+00 7.354852e+01 -5.500000e+00
        vertex -6.000000e+00 7.900000e+01 -5.500000e+00
        vertex 4.000000e+00 7.373923e+01 -5.500000e+00
    endloop
endfacet
facet normal 0.000000e+00 0.000000e+00 -1.000000e+00
    outer loop
        vertex 3.560770e+00 7.330000e+01 -5.500000e+00
        vertex -6.000000e+00 7.900000e+01 -5.500000e+00
        vertex 3.751472e+00 7.354852e+01 -5.500000e+00
    endloop
endfacet
facet normal 0.000000e+00 0.000000e+00 -1.000000e+00
    outer loop
        vertex 3.440889e+00 7.301058e+01 -5.500000e+00
        vertex -6.000000e+00 7.900000e+01 -5.500000e+00
        vertex 3.560770e+00 7.330000e+01 -5.500000e+00
    endloop
endfacet
facet normal 0.000000e+00 0.000000e+00 -1.000000e+00
    outer loop
        vertex 3.400000e+00 7.270000e+01 -5.500000e+00
        vertex -6.000000e+00 7.900000e+01 -5.500000e+00
        vertex 3.440889e+00 7.301058e+01 -5.500000e+00
    endloop
endfacet
facet normal 0.000000e+00 0.000000e+00 -1.000000e+00
    outer loop
        vertex 3.440889e+00 7.238942e+01 -5.500000e+00
        vertex -6.000000e+00 7.900000e+01 -5.500000e+00
        vertex 3.400000e+00 7.270000e+01 -5.500000e+00
    endloop
endfacet
facet normal 0.000000e+00 0.000000e+00 -1.000000e+00
    outer loop
        vertex 3.560770e+00 7.210000e+01 -5.500000e+00
        vertex -6.000000e+00 7.900000e+01 -5.500000e+00
        vertex 3.440889e+00 7.238942e+01 -5.500000e+00
    endloop
endfacet
facet normal 0.000000e+00 0.000000e+00 -1.000000e+00
    outer loop
        vertex 3.751472e+00 7.185147e+01 -5.500000e+00
        vertex -6.000000e+00 7.900000e+01 -5.500000e+00
        vertex 3.560770e+00 7.210000e+01 -5.500000e+00
    endloop
endfacet
facet normal 0.000000e+00 0.000000e+00 -1.000000e+00
    outer loop
        vertex 4.000000e+00 7.166077e+01 -5.500000e+00
        vertex -6.000000e+00 7.900000e+01 -5.500000e+00
        vertex 3.751472e+00 7.185147e+01 -5.500000e+00
    endloop
endfacet
facet normal 0.000000e+00 0.000000e+00 1.000000e+00
    outer loop
        vertex -6.000000e+00 7.050000e+01 -5.000000e-01
        vertex 6.000000e+00 7.050000e+01 -5.000000e-01
        vertex -6.000000e+00 7.400000e+01 -5.000000e-01
    endloop
endfacet
facet normal 0.000000e+00 -0.000000e+00 1.000000e+00
    outer loop
        vertex 6.000000e+00 7.050000e+01 -5.000000e-01
        vertex 6.000000e+00 7.400000e+01 -5.000000e-01
        vertex -6.000000e+00 7.400000e+01 -5.000000e-01
    endloop
endfacet
facet normal -1.000000e+00 0.000000e+00 0.000000e+00
    outer loop
        vertex -6.000000e+00 7.050000e+01 -5.000000e-01
        vertex -6.000000e+00 7.400000e+01 -5.000000e-01
        vertex -6.000000e+00 7.600000e+01 -4.200000e+00
    endloop
endfacet
facet normal -1.000000e+00 0.000000e+00 0.000000e+00
    outer loop
        vertex -6.000000e+00 6.650000e+01 -5.500000e+00
        vertex -6.000000e+00 6.650000e+01 -5.400000e+00
        vertex -6.000000e+00 6.701764e+01 -5.331852e+00
    endloop
endfacet
facet normal -1.000000e+00 0.000000e+00 0.000000e+00
    outer loop
        vertex -6.000000e+00 7.600000e+01 -4.200000e+00
        vertex -6.000000e+00 7.900000e+01 -4.200000e+00
        vertex -6.000000e+00 7.900000e+01 -5.500000e+00
    endloop
endfacet
facet normal -1.000000e+00 0.000000e+00 0.000000e+00
    outer loop
        vertex -6.000000e+00 6.650000e+01 -5.500000e+00
        vertex -6.000000e+00 7.600000e+01 -4.200000e+00
        vertex -6.000000e+00 7.900000e+01 -5.500000e+00
    endloop
endfacet
facet normal -1.000000e+00 0.000000e+00 0.000000e+00
    outer loop
        vertex -6.000000e+00 6.650000e+01 -1.400000e+00
        vertex -6.000000e+00 7.050000e+01 -5.000000e-01
        vertex -6.000000e+00 6.701764e+01 -1.468148e+00
    endloop
endfacet
facet normal -1.000000e+00 0.000000e+00 0.000000e+00
    outer loop
        vertex -6.000000e+00 6.701764e+01 -1.468148e+00
        vertex -6.000000e+00 7.050000e+01 -5.000000e-01
        vertex -6.000000e+00 7.600000e+01 -4.200000e+00
    endloop
endfacet
facet normal -1.000000e+00 0.000000e+00 0.000000e+00
    outer loop
        vertex -6.000000e+00 6.650000e+01 -5.500000e+00
        vertex -6.000000e+00 6.701764e+01 -5.331852e+00
        vertex -6.000000e+00 7.600000e+01 -4.200000e+00
    endloop
endfacet
facet normal -1.000000e+00 0.000000e+00 0.000000e+00
    outer loop
        vertex -6.000000e+00 6.701764e+01 -5.331852e+00
        vertex -6.000000e+00 6.750000e+01 -5.132050e+00
        vertex -6.000000e+00 7.600000e+01 -4.200000e+00
    endloop
endfacet
facet normal -1.000000e+00 0.000000e+00 0.000000e+00
    outer loop
        vertex -6.000000e+00 6.750000e+01 -5.132050e+00
        vertex -6.000000e+00 6.791422e+01 -4.814213e+00
        vertex -6.000000e+00 7.600000e+01 -4.200000e+00
    endloop
endfacet
facet normal -1.000000e+00 0.000000e+00 0.000000e+00
    outer loop
        vertex -6.000000e+00 6.791422e+01 -4.814213e+00
        vertex -6.000000e+00 6.823206e+01 -4.400000e+00
        vertex -6.000000e+00 7.600000e+01 -4.200000e+00
    endloop
endfacet
facet normal -1.000000e+00 0.000000e+00 0.000000e+00
    outer loop
        vertex -6.000000e+00 6.823206e+01 -4.400000e+00
        vertex -6.000000e+00 6.843185e+01 -3.917637e+00
        vertex -6.000000e+00 7.600000e+01 -4.200000e+00
    endloop
endfacet
facet normal -1.000000e+00 0.000000e+00 0.000000e+00
    outer loop
        vertex -6.000000e+00 6.843185e+01 -3.917637e+00
        vertex -6.000000e+00 6.850000e+01 -3.400000e+00
        vertex -6.000000e+00 7.600000e+01 -4.200000e+00
    endloop
endfacet
facet normal -1.000000e+00 0.000000e+00 0.000000e+00
    outer loop
        vertex -6.000000e+00 6.843185e+01 -2.882363e+00
        vertex -6.000000e+00 7.600000e+01 -4.200000e+00
        vertex -6.000000e+00 6.850000e+01 -3.400000e+00
    endloop
endfacet
facet normal -1.000000e+00 0.000000e+00 0.000000e+00
    outer loop
        vertex -6.000000e+00 6.823206e+01 -2.400000e+00
        vertex -6.000000e+00 7.600000e+01 -4.200000e+00
        vertex -6.000000e+00 6.843185e+01 -2.882363e+00
    endloop
endfacet
facet normal -1.000000e+00 0.000000e+00 0.000000e+00
    outer loop
        vertex -6.000000e+00 6.791422e+01 -1.985787e+00
        vertex -6.000000e+00 7.600000e+01 -4.200000e+00
        vertex -6.000000e+00 6.823206e+01 -2.400000e+00
    endloop
endfacet
facet normal -1.000000e+00 0.000000e+00 0.000000e+00
    outer loop
        vertex -6.000000e+00 6.750000e+01 -1.667950e+00
        vertex -6.000000e+00 7.600000e+01 -4.200000e+00
        vertex -6.000000e+00 6.791422e+01 -1.985787e+00
    endloop
endfacet
facet normal -1.000000e+00 0.000000e+00 0.000000e+00
    outer loop
        vertex -6.000000e+00 6.701764e+01 -1.468148e+00
        vertex -6.000000e+00 7.600000e+01 -4.200000e+00
        vertex -6.000000e+00 6.750000e+01 -1.667950e+00
    endloop
endfacet
facet normal 1.000000e+00 -0.000000e+00 0.000000e+00
    outer loop
        vertex 6.000000e+00 7.050000e+01 -5.000000e-01
        vertex 6.000000e+00 7.600000e+01 -4.200000e+00
        vertex 6.000000e+00 7.400000e+01 -5.000000e-01
    endloop
endfacet
facet normal 1.000000e+00 0.000000e+00 0.000000e+00
    outer loop
        vertex 6.000000e+00 6.650000e+01 -5.500000e+00
        vertex 6.000000e+00 6.701764e+01 -5.331852e+00
        vertex 6.000000e+00 6.650000e+01 -5.400000e+00
    endloop
endfacet
facet normal 1.000000e+00 -0.000000e+00 0.000000e+00
    outer loop
        vertex 6.000000e+00 7.600000e+01 -4.200000e+00
        vertex 6.000000e+00 7.900000e+01 -5.500000e+00
        vertex 6.000000e+00 7.900000e+01 -4.200000e+00
    endloop
endfacet
facet normal 1.000000e+00 0.000000e+00 0.000000e+00
    outer loop
        vertex 6.000000e+00 6.650000e+01 -5.500000e+00
        vertex 6.000000e+00 7.900000e+01 -5.500000e+00
        vertex 6.000000e+00 7.600000e+01 -4.200000e+00
    endloop
endfacet
facet normal 1.000000e+00 -0.000000e+00 0.000000e+00
    outer loop
        vertex 6.000000e+00 6.650000e+01 -1.400000e+00
        vertex 6.000000e+00 6.701764e+01 -1.468148e+00
        vertex 6.000000e+00 7.050000e+01 -5.000000e-01
    endloop
endfacet
facet normal 1.000000e+00 -0.000000e+00 0.000000e+00
    outer loop
        vertex 6.000000e+00 6.701764e+01 -1.468148e+00
        vertex 6.000000e+00 7.600000e+01 -4.200000e+00
        vertex 6.000000e+00 7.050000e+01 -5.000000e-01
    endloop
endfacet
facet normal 1.000000e+00 0.000000e+00 0.000000e+00
    outer loop
        vertex 6.000000e+00 6.650000e+01 -5.500000e+00
        vertex 6.000000e+00 7.600000e+01 -4.200000e+00
        vertex 6.000000e+00 6.701764e+01 -5.331852e+00
    endloop
endfacet
facet normal 1.000000e+00 0.000000e+00 0.000000e+00
    outer loop
        vertex 6.000000e+00 6.701764e+01 -5.331852e+00
        vertex 6.000000e+00 7.600000e+01 -4.200000e+00
        vertex 6.000000e+00 6.750000e+01 -5.132050e+00
    endloop
endfacet
facet normal 1.000000e+00 0.000000e+00 0.000000e+00
    outer loop
        vertex 6.000000e+00 6.750000e+01 -5.132050e+00
        vertex 6.000000e+00 7.600000e+01 -4.200000e+00
        vertex 6.000000e+00 6.791422e+01 -4.814213e+00
    endloop
endfacet
facet normal 1.000000e+00 0.000000e+00 0.000000e+00
    outer loop
        vertex 6.000000e+00 6.791422e+01 -4.814213e+00
        vertex 6.000000e+00 7.600000e+01 -4.200000e+00
        vertex 6.000000e+00 6.823206e+01 -4.400000e+00
    endloop
endfacet
facet normal 1.000000e+00 0.000000e+00 0.000000e+00
    outer loop
        vertex 6.000000e+00 6.823206e+01 -4.400000e+00
        vertex 6.000000e+00 7.600000e+01 -4.200000e+00
        vertex 6.000000e+00 6.843185e+01 -3.917637e+00
    endloop
endfacet
facet normal 1.000000e+00 -0.000000e+00 0.000000e+00
    outer loop
        vertex 6.000000e+00 6.843185e+01 -3.917637e+00
        vertex 6.000000e+00 7.600000e+01 -4.200000e+00
        vertex 6.000000e+00 6.850000e+01 -3.400000e+00
    endloop
endfacet
facet normal 1.000000e+00 0.000000e+00 0.000000e+00
    outer loop
        vertex 6.000000e+00 6.843185e+01 -2.882363e+00
        vertex 6.000000e+00 6.850000e+01 -3.400000e+00
        vertex 6.000000e+00 7.600000e+01 -4.200000e+00
    endloop
endfacet
facet normal 1.000000e+00 0.000000e+00 0.000000e+00
    outer loop
        vertex 6.000000e+00 6.823206e+01 -2.400000e+00
        vertex 6.000000e+00 6.843185e+01 -2.882363e+00
        vertex 6.000000e+00 7.600000e+01 -4.200000e+00
    endloop
endfacet
facet normal 1.000000e+00 0.000000e+00 0.000000e+00
    outer loop
        vertex 6.000000e+00 6.791422e+01 -1.985787e+00
        vertex 6.000000e+00 6.823206e+01 -2.400000e+00
        vertex 6.000000e+00 7.600000e+01 -4.200000e+00
    endloop
endfacet
facet normal 1.000000e+00 0.000000e+00 0.000000e+00
    outer loop
        vertex 6.000000e+00 6.701764e+01 -1.468148e+00
        vertex 6.000000e+00 6.750000e+01 -1.667950e+00
        vertex 6.000000e+00 7.600000e+01 -4.200000e+00
    endloop
endfacet
facet normal 1.000000e+00 0.000000e+00 0.000000e+00
    outer loop
        vertex 6.000000e+00 6.750000e+01 -1.667950e+00
        vertex 6.000000e+00 6.791422e+01 -1.985787e+00
        vertex 6.000000e+00 7.600000e+01 -4.200000e+00
    endloop
endfacet
facet normal 0.000000e+00 1.000000e+00 -0.000000e+00
    outer loop
        vertex 6.000000e+00 7.900000e+01 -5.500000e+00
        vertex -6.000000e+00 7.900000e+01 -5.500000e+00
        vertex 6.000000e+00 7.900000e+01 -4.200000e+00
    endloop
endfacet
facet normal 0.000000e+00 1.000000e+00 0.000000e+00
    outer loop
        vertex -6.000000e+00 7.900000e+01 -5.500000e+00
        vertex -6.000000e+00 7.900000e+01 -4.200000e+00
        vertex 6.000000e+00 7.900000e+01 -4.200000e+00
    endloop
endfacet
facet normal 0.000000e+00 0.000000e+00 1.000000e+00
    outer loop
        vertex -6.000000e+00 7.600000e+01 -4.200000e+00
        vertex 6.000000e+00 7.600000e+01 -4.200000e+00
        vertex -6.000000e+00 7.900000e+01 -4.200000e+00
    endloop
endfacet
facet normal 0.000000e+00 -0.000000e+00 1.000000e+00
    outer loop
        vertex 6.000000e+00 7.600000e+01 -4.200000e+00
        vertex 6.000000e+00 7.900000e+01 -4.200000e+00
        vertex -6.000000e+00 7.900000e+01 -4.200000e+00
    endloop
endfacet
facet normal -0.000000e+00 8.797065e-01 4.755171e-01
    outer loop
        vertex -6.000000e+00 7.400000e+01 -5.000000e-01
        vertex 6.000000e+00 7.400000e+01 -5.000000e-01
        vertex -6.000000e+00 7.600000e+01 -4.200000e+00
    endloop
endfacet
facet normal 0.000000e+00 8.797065e-01 4.755171e-01
    outer loop
        vertex 6.000000e+00 7.400000e+01 -5.000000e-01
        vertex 6.000000e+00 7.600000e+01 -4.200000e+00
        vertex -6.000000e+00 7.600000e+01 -4.200000e+00
    endloop
endfacet
endsolid cycle-latch.stl
