solid disconnector-latch.stl
facet normal 0.000000e+00 -0.000000e+00 1.000000e+00
    outer loop
        vertex 6.000000e+00 5.300000e+01 -5.000000e-01
        vertex 6.000000e+00 5.650000e+01 -5.000000e-01
        vertex -6.000000e+00 5.650000e+01 -5.000000e-01
    endloop
endfacet
facet normal 0.000000e+00 0.000000e+00 1.000000e+00
    outer loop
        vertex -6.000000e+00 5.300000e+01 -5.000000e-01
        vertex 6.000000e+00 5.300000e+01 -5.000000e-01
        vertex -6.000000e+00 5.650000e+01 -5.000000e-01
    endloop
endfacet
facet normal 0.000000e+00 -8.682433e-01 -4.961387e-01
    outer loop
        vertex -6.000000e+00 4.690000e+01 -4.100000e+00
        vertex -6.000000e+00 4.770000e+01 -5.500000e+00
        vertex 6.000000e+00 4.770000e+01 -5.500000e+00
    endloop
endfacet
facet normal -0.000000e+00 -8.682433e-01 -4.961387e-01
    outer loop
        vertex 6.000000e+00 4.690000e+01 -4.100000e+00
        vertex -6.000000e+00 4.690000e+01 -4.100000e+00
        vertex 6.000000e+00 4.770000e+01 -5.500000e+00
    endloop
endfacet
facet normal 0.000000e+00 0.000000e+00 1.000000e+00
    outer loop
        vertex -6.000000e+00 4.690000e+01 -4.100000e+00
        vertex 6.000000e+00 4.950000e+01 -4.100000e+00
        vertex -6.000000e+00 4.950000e+01 -4.100000e+00
    endloop
endfacet
facet normal 0.000000e+00 0.000000e+00 1.000000e+00
    outer loop
        vertex -6.000000e+00 4.690000e+01 -4.100000e+00
        vertex 6.000000e+00 4.690000e+01 -4.100000e+00
        vertex 6.000000e+00 4.950000e+01 -4.100000e+00
    endloop
endfacet
facet normal 0.000000e+00 -7.169949e-01 6.970783e-01
    outer loop
        vertex -6.000000e+00 4.950000e+01 -4.100000e+00
        vertex 6.000000e+00 4.950000e+01 -4.100000e+00
        vertex -6.000000e+00 5.300000e+01 -5.000000e-01
    endloop
endfacet
facet normal 0.000000e+00 -7.169949e-01 6.970783e-01
    outer loop
        vertex 6.000000e+00 4.950000e+01 -4.100000e+00
        vertex 6.000000e+00 5.300000e+01 -5.000000e-01
        vertex -6.000000e+00 5.300000e+01 -5.000000e-01
    endloop
endfacet
facet normal -0.000000e+00 2.195122e-01 9.756098e-01
    outer loop
        vertex -6.000000e+00 5.650000e+01 -5.000000e-01
        vertex 6.000000e+00 5.650000e+01 -5.000000e-01
        vertex 6.000000e+00 6.050000e+01 -1.400000e+00
    endloop
endfacet
facet normal 0.000000e+00 2.195122e-01 9.756098e-01
    outer loop
        vertex -6.000000e+00 5.650000e+01 -5.000000e-01
        vertex 6.000000e+00 6.050000e+01 -1.400000e+00
        vertex -6.000000e+00 6.050000e+01 -1.400000e+00
    endloop
endfacet
facet normal 0.000000e+00 1.000000e+00 -0.000000e+00
    outer loop
        vertex 6.000000e+00 6.050000e+01 -5.500000e+00
        vertex -6.000000e+00 6.050000e+01 -5.500000e+00
        vertex 6.000000e+00 6.050000e+01 -5.400000e+00
    endloop
endfacet
facet normal 0.000000e+00 1.000000e+00 0.000000e+00
    outer loop
        vertex -6.000000e+00 6.050000e+01 -5.500000e+00
        vertex -6.000000e+00 6.050000e+01 -5.400000e+00
        vertex 6.000000e+00 6.050000e+01 -5.400000e+00
    endloop
endfacet
facet normal -1.000000e+00 0.000000e+00 0.000000e+00
    outer loop
        vertex -6.000000e+00 4.950000e+01 -4.100000e+00
        vertex -6.000000e+00 5.300000e+01 -5.000000e-01
        vertex -6.000000e+00 5.650000e+01 -5.000000e-01
    endloop
endfacet
facet normal -1.000000e+00 0.000000e+00 0.000000e+00
    outer loop
        vertex -6.000000e+00 5.998236e+01 -5.331852e+00
        vertex -6.000000e+00 6.050000e+01 -5.400000e+00
        vertex -6.000000e+00 6.050000e+01 -5.500000e+00
    endloop
endfacet
facet normal -1.000000e+00 0.000000e+00 0.000000e+00
    outer loop
        vertex -6.000000e+00 4.690000e+01 -4.100000e+00
        vertex -6.000000e+00 4.950000e+01 -4.100000e+00
        vertex -6.000000e+00 4.770000e+01 -5.500000e+00
    endloop
endfacet
facet normal -1.000000e+00 0.000000e+00 0.000000e+00
    outer loop
        vertex -6.000000e+00 4.770000e+01 -5.500000e+00
        vertex -6.000000e+00 4.950000e+01 -4.100000e+00
        vertex -6.000000e+00 6.050000e+01 -5.500000e+00
    endloop
endfacet
facet normal -1.000000e+00 0.000000e+00 0.000000e+00
    outer loop
        vertex -6.000000e+00 5.650000e+01 -5.000000e-01
        vertex -6.000000e+00 6.050000e+01 -1.400000e+00
        vertex -6.000000e+00 5.998236e+01 -1.468148e+00
    endloop
endfacet
facet normal -1.000000e+00 0.000000e+00 0.000000e+00
    outer loop
        vertex -6.000000e+00 4.950000e+01 -4.100000e+00
        vertex -6.000000e+00 5.650000e+01 -5.000000e-01
        vertex -6.000000e+00 5.998236e+01 -1.468148e+00
    endloop
endfacet
facet normal -1.000000e+00 0.000000e+00 0.000000e+00
    outer loop
        vertex -6.000000e+00 4.950000e+01 -4.100000e+00
        vertex -6.000000e+00 5.998236e+01 -5.331852e+00
        vertex -6.000000e+00 6.050000e+01 -5.500000e+00
    endloop
endfacet
facet normal -1.000000e+00 0.000000e+00 0.000000e+00
    outer loop
        vertex -6.000000e+00 4.950000e+01 -4.100000e+00
        vertex -6.000000e+00 5.950000e+01 -5.132050e+00
        vertex -6.000000e+00 5.998236e+01 -5.331852e+00
    endloop
endfacet
facet normal -1.000000e+00 0.000000e+00 0.000000e+00
    outer loop
        vertex -6.000000e+00 4.950000e+01 -4.100000e+00
        vertex -6.000000e+00 5.908578e+01 -4.814213e+00
        vertex -6.000000e+00 5.950000e+01 -5.132050e+00
    endloop
endfacet
facet normal -1.000000e+00 0.000000e+00 0.000000e+00
    outer loop
        vertex -6.000000e+00 4.950000e+01 -4.100000e+00
        vertex -6.000000e+00 5.876794e+01 -4.400000e+00
        vertex -6.000000e+00 5.908578e+01 -4.814213e+00
    endloop
endfacet
facet normal -1.000000e+00 0.000000e+00 0.000000e+00
    outer loop
        vertex -6.000000e+00 4.950000e+01 -4.100000e+00
        vertex -6.000000e+00 5.856815e+01 -3.917637e+00
        vertex -6.000000e+00 5.876794e+01 -4.400000e+00
    endloop
endfacet
facet normal -1.000000e+00 0.000000e+00 0.000000e+00
    outer loop
        vertex -6.000000e+00 4.950000e+01 -4.100000e+00
        vertex -6.000000e+00 5.850000e+01 -3.400000e+00
        vertex -6.000000e+00 5.856815e+01 -3.917637e+00
    endloop
endfacet
facet normal -1.000000e+00 0.000000e+00 0.000000e+00
    outer loop
        vertex -6.000000e+00 4.950000e+01 -4.100000e+00
        vertex -6.000000e+00 5.856815e+01 -2.882363e+00
        vertex -6.000000e+00 5.850000e+01 -3.400000e+00
    endloop
endfacet
facet normal -1.000000e+00 0.000000e+00 0.000000e+00
    outer loop
        vertex -6.000000e+00 4.950000e+01 -4.100000e+00
        vertex -6.000000e+00 5.876794e+01 -2.400000e+00
        vertex -6.000000e+00 5.856815e+01 -2.882363e+00
    endloop
endfacet
facet normal -1.000000e+00 0.000000e+00 0.000000e+00
    outer loop
        vertex -6.000000e+00 4.950000e+01 -4.100000e+00
        vertex -6.000000e+00 5.908578e+01 -1.985787e+00
        vertex -6.000000e+00 5.876794e+01 -2.400000e+00
    endloop
endfacet
facet normal -1.000000e+00 0.000000e+00 0.000000e+00
    outer loop
        vertex -6.000000e+00 4.950000e+01 -4.100000e+00
        vertex -6.000000e+00 5.998236e+01 -1.468148e+00
        vertex -6.000000e+00 5.950000e+01 -1.667950e+00
    endloop
endfacet
facet normal -1.000000e+00 0.000000e+00 0.000000e+00
    outer loop
        vertex -6.000000e+00 4.950000e+01 -4.100000e+00
        vertex -6.000000e+00 5.950000e+01 -1.667950e+00
        vertex -6.000000e+00 5.908578e+01 -1.985787e+00
    endloop
endfacet
facet normal 1.000000e+00 0.000000e+00 0.000000e+00
    outer loop
        vertex 6.000000e+00 4.950000e+01 -4.100000e+00
        vertex 6.000000e+00 5.650000e+01 -5.000000e-01
        vertex 6.000000e+00 5.300000e+01 -5.000000e-01
    endloop
endfacet
facet normal 1.000000e+00 0.000000e+00 0.000000e+00
    outer loop
        vertex 6.000000e+00 5.998236e+01 -5.331852e+00
        vertex 6.000000e+00 6.050000e+01 -5.500000e+00
        vertex 6.000000e+00 6.050000e+01 -5.400000e+00
    endloop
endfacet
facet normal 1.000000e+00 -0.000000e+00 0.000000e+00
    outer loop
        vertex 6.000000e+00 4.690000e+01 -4.100000e+00
        vertex 6.000000e+00 4.770000e+01 -5.500000e+00
        vertex 6.000000e+00 4.950000e+01 -4.100000e+00
    endloop
endfacet
facet normal 1.000000e+00 0.000000e+00 0.000000e+00
    outer loop
        vertex 6.000000e+00 4.770000e+01 -5.500000e+00
        vertex 6.000000e+00 6.050000e+01 -5.500000e+00
        vertex 6.000000e+00 4.950000e+01 -4.100000e+00
    endloop
endfacet
facet normal 1.000000e+00 0.000000e+00 0.000000e+00
    outer loop
        vertex 6.000000e+00 5.650000e+01 -5.000000e-01
        vertex 6.000000e+00 5.998236e+01 -1.468148e+00
        vertex 6.000000e+00 6.050000e+01 -1.400000e+00
    endloop
endfacet
facet normal 1.000000e+00 0.000000e+00 0.000000e+00
    outer loop
        vertex 6.000000e+00 4.950000e+01 -4.100000e+00
        vertex 6.000000e+00 5.998236e+01 -1.468148e+00
        vertex 6.000000e+00 5.650000e+01 -5.000000e-01
    endloop
endfacet
facet normal 1.000000e+00 0.000000e+00 0.000000e+00
    outer loop
        vertex 6.000000e+00 4.950000e+01 -4.100000e+00
        vertex 6.000000e+00 6.050000e+01 -5.500000e+00
        vertex 6.000000e+00 5.998236e+01 -5.331852e+00
    endloop
endfacet
facet normal 1.000000e+00 0.000000e+00 0.000000e+00
    outer loop
        vertex 6.000000e+00 4.950000e+01 -4.100000e+00
        vertex 6.000000e+00 5.998236e+01 -5.331852e+00
        vertex 6.000000e+00 5.950000e+01 -5.132050e+00
    endloop
endfacet
facet normal 1.000000e+00 0.000000e+00 0.000000e+00
    outer loop
        vertex 6.000000e+00 4.950000e+01 -4.100000e+00
        vertex 6.000000e+00 5.950000e+01 -5.132050e+00
        vertex 6.000000e+00 5.908578e+01 -4.814213e+00
    endloop
endfacet
facet normal 1.000000e+00 0.000000e+00 0.000000e+00
    outer loop
        vertex 6.000000e+00 4.950000e+01 -4.100000e+00
        vertex 6.000000e+00 5.908578e+01 -4.814213e+00
        vertex 6.000000e+00 5.876794e+01 -4.400000e+00
    endloop
endfacet
facet normal 1.000000e+00 -0.000000e+00 0.000000e+00
    outer loop
        vertex 6.000000e+00 4.950000e+01 -4.100000e+00
        vertex 6.000000e+00 5.876794e+01 -4.400000e+00
        vertex 6.000000e+00 5.856815e+01 -3.917637e+00
    endloop
endfacet
facet normal 1.000000e+00 0.000000e+00 0.000000e+00
    outer loop
        vertex 6.000000e+00 4.950000e+01 -4.100000e+00
        vertex 6.000000e+00 5.856815e+01 -3.917637e+00
        vertex 6.000000e+00 5.850000e+01 -3.400000e+00
    endloop
endfacet
facet normal 1.000000e+00 0.000000e+00 0.000000e+00
    outer loop
        vertex 6.000000e+00 4.950000e+01 -4.100000e+00
        vertex 6.000000e+00 5.850000e+01 -3.400000e+00
        vertex 6.000000e+00 5.856815e+01 -2.882363e+00
    endloop
endfacet
facet normal 1.000000e+00 0.000000e+00 0.000000e+00
    outer loop
        vertex 6.000000e+00 4.950000e+01 -4.100000e+00
        vertex 6.000000e+00 5.856815e+01 -2.882363e+00
        vertex 6.000000e+00 5.876794e+01 -2.400000e+00
    endloop
endfacet
facet normal 1.000000e+00 0.000000e+00 0.000000e+00
    outer loop
        vertex 6.000000e+00 4.950000e+01 -4.100000e+00
        vertex 6.000000e+00 5.876794e+01 -2.400000e+00
        vertex 6.000000e+00 5.908578e+01 -1.985787e+00
    endloop
endfacet
facet normal 1.000000e+00 0.000000e+00 0.000000e+00
    outer loop
        vertex 6.000000e+00 4.950000e+01 -4.100000e+00
        vertex 6.000000e+00 5.908578e+01 -1.985787e+00
        vertex 6.000000e+00 5.950000e+01 -1.667950e+00
    endloop
endfacet
facet normal 1.000000e+00 0.000000e+00 0.000000e+00
    outer loop
        vertex 6.000000e+00 4.950000e+01 -4.100000e+00
        vertex 6.000000e+00 5.950000e+01 -1.667950e+00
        vertex 6.000000e+00 5.998236e+01 -1.468148e+00
    endloop
endfacet
facet normal -1.000000e+00 0.000000e+00 0.000000e+00
    outer loop
        vertex -8.000000e+00 5.856815e+01 -2.882363e+00
        vertex -8.000000e+00 5.876794e+01 -2.400000e+00
        vertex -8.000000e+00 5.908578e+01 -1.985787e+00
    endloop
endfacet
facet normal -1.000000e+00 0.000000e+00 0.000000e+00
    outer loop
        vertex -8.000000e+00 5.850000e+01 -3.400000e+00
        vertex -8.000000e+00 5.856815e+01 -2.882363e+00
        vertex -8.000000e+00 5.908578e+01 -1.985787e+00
    endloop
endfacet
facet normal -1.000000e+00 0.000000e+00 0.000000e+00
    outer loop
        vertex -8.000000e+00 5.850000e+01 -3.400000e+00
        vertex -8.000000e+00 5.908578e+01 -1.985787e+00
        vertex -8.000000e+00 5.950000e+01 -1.667950e+00
    endloop
endfacet
facet normal -1.000000e+00 0.000000e+00 0.000000e+00
    outer loop
        vertex -8.000000e+00 5.850000e+01 -3.400000e+00
        vertex -8.000000e+00 5.950000e+01 -1.667950e+00
        vertex -8.000000e+00 5.998236e+01 -1.468148e+00
    endloop
endfacet
facet normal -1.000000e+00 0.000000e+00 0.000000e+00
    outer loop
        vertex -8.000000e+00 5.850000e+01 -3.400000e+00
        vertex -8.000000e+00 5.998236e+01 -1.468148e+00
        vertex -8.000000e+00 6.050000e+01 -1.400000e+00
    endloop
endfacet
facet normal -1.000000e+00 0.000000e+00 0.000000e+00
    outer loop
        vertex -8.000000e+00 5.850000e+01 -3.400000e+00
        vertex -8.000000e+00 6.050000e+01 -1.400000e+00
        vertex -8.000000e+00 6.101764e+01 -1.468148e+00
    endloop
endfacet
facet normal -1.000000e+00 0.000000e+00 0.000000e+00
    outer loop
        vertex -8.000000e+00 5.850000e+01 -3.400000e+00
        vertex -8.000000e+00 6.101764e+01 -1.468148e+00
        vertex -8.000000e+00 6.150000e+01 -1.667950e+00
    endloop
endfacet
facet normal -1.000000e+00 0.000000e+00 0.000000e+00
    outer loop
        vertex -8.000000e+00 5.850000e+01 -3.400000e+00
        vertex -8.000000e+00 6.150000e+01 -1.667950e+00
        vertex -8.000000e+00 6.191422e+01 -1.985787e+00
    endloop
endfacet
facet normal -1.000000e+00 0.000000e+00 0.000000e+00
    outer loop
        vertex -8.000000e+00 5.850000e+01 -3.400000e+00
        vertex -8.000000e+00 6.191422e+01 -1.985787e+00
        vertex -8.000000e+00 6.223206e+01 -2.400000e+00
    endloop
endfacet
facet normal -1.000000e+00 0.000000e+00 0.000000e+00
    outer loop
        vertex -8.000000e+00 5.850000e+01 -3.400000e+00
        vertex -8.000000e+00 6.223206e+01 -2.400000e+00
        vertex -8.000000e+00 6.243185e+01 -2.882363e+00
    endloop
endfacet
facet normal -1.000000e+00 0.000000e+00 0.000000e+00
    outer loop
        vertex -8.000000e+00 5.850000e+01 -3.400000e+00
        vertex -8.000000e+00 6.243185e+01 -2.882363e+00
        vertex -8.000000e+00 6.250000e+01 -3.400000e+00
    endloop
endfacet
facet normal -1.000000e+00 0.000000e+00 0.000000e+00
    outer loop
        vertex -8.000000e+00 5.850000e+01 -3.400000e+00
        vertex -8.000000e+00 6.250000e+01 -3.400000e+00
        vertex -8.000000e+00 6.243185e+01 -3.917637e+00
    endloop
endfacet
facet normal -1.000000e+00 0.000000e+00 0.000000e+00
    outer loop
        vertex -8.000000e+00 5.850000e+01 -3.400000e+00
        vertex -8.000000e+00 6.243185e+01 -3.917637e+00
        vertex -8.000000e+00 6.223206e+01 -4.400000e+00
    endloop
endfacet
facet normal -1.000000e+00 0.000000e+00 0.000000e+00
    outer loop
        vertex -8.000000e+00 5.850000e+01 -3.400000e+00
        vertex -8.000000e+00 6.223206e+01 -4.400000e+00
        vertex -8.000000e+00 6.191422e+01 -4.814213e+00
    endloop
endfacet
facet normal -1.000000e+00 0.000000e+00 0.000000e+00
    outer loop
        vertex -8.000000e+00 5.850000e+01 -3.400000e+00
        vertex -8.000000e+00 6.191422e+01 -4.814213e+00
        vertex -8.000000e+00 6.150000e+01 -5.132050e+00
    endloop
endfacet
facet normal -1.000000e+00 0.000000e+00 0.000000e+00
    outer loop
        vertex -8.000000e+00 5.850000e+01 -3.400000e+00
        vertex -8.000000e+00 6.150000e+01 -5.132050e+00
        vertex -8.000000e+00 6.101764e+01 -5.331852e+00
    endloop
endfacet
facet normal -1.000000e+00 0.000000e+00 0.000000e+00
    outer loop
        vertex -8.000000e+00 5.850000e+01 -3.400000e+00
        vertex -8.000000e+00 6.101764e+01 -5.331852e+00
        vertex -8.000000e+00 5.856815e+01 -3.917637e+00
    endloop
endfacet
facet normal -1.000000e+00 0.000000e+00 0.000000e+00
    outer loop
        vertex -8.000000e+00 5.856815e+01 -3.917637e+00
        vertex -8.000000e+00 6.101764e+01 -5.331852e+00
        vertex -8.000000e+00 5.876794e+01 -4.400000e+00
    endloop
endfacet
facet normal -1.000000e+00 0.000000e+00 0.000000e+00
    outer loop
        vertex -8.000000e+00 5.876794e+01 -4.400000e+00
        vertex -8.000000e+00 6.101764e+01 -5.331852e+00
        vertex -8.000000e+00 6.050000e+01 -5.400000e+00
    endloop
endfacet
facet normal -1.000000e+00 0.000000e+00 0.000000e+00
    outer loop
        vertex -8.000000e+00 5.876794e+01 -4.400000e+00
        vertex -8.000000e+00 6.050000e+01 -5.400000e+00
        vertex -8.000000e+00 5.908578e+01 -4.814213e+00
    endloop
endfacet
facet normal -1.000000e+00 0.000000e+00 0.000000e+00
    outer loop
        vertex -8.000000e+00 5.950000e+01 -5.132050e+00
        vertex -8.000000e+00 6.050000e+01 -5.400000e+00
        vertex -8.000000e+00 5.998236e+01 -5.331852e+00
    endloop
endfacet
facet normal -1.000000e+00 0.000000e+00 0.000000e+00
    outer loop
        vertex -8.000000e+00 5.908578e+01 -4.814213e+00
        vertex -8.000000e+00 6.050000e+01 -5.400000e+00
        vertex -8.000000e+00 5.950000e+01 -5.132050e+00
    endloop
endfacet
facet normal 0.000000e+00 9.914455e-01 1.305215e-01
    outer loop
        vertex 8.000000e+00 6.243185e+01 -2.882363e+00
        vertex 8.000000e+00 6.250000e+01 -3.400000e+00
        vertex -8.000000e+00 6.250000e+01 -3.400000e+00
    endloop
endfacet
facet normal -0.000000e+00 9.914455e-01 1.305215e-01
    outer loop
        vertex -8.000000e+00 6.243185e+01 -2.882363e+00
        vertex 8.000000e+00 6.243185e+01 -2.882363e+00
        vertex -8.000000e+00 6.250000e+01 -3.400000e+00
    endloop
endfacet
facet normal 0.000000e+00 9.238813e-01 3.826792e-01
    outer loop
        vertex 8.000000e+00 6.223206e+01 -2.400000e+00
        vertex 8.000000e+00 6.243185e+01 -2.882363e+00
        vertex -8.000000e+00 6.243185e+01 -2.882363e+00
    endloop
endfacet
facet normal -0.000000e+00 9.238813e-01 3.826792e-01
    outer loop
        vertex -8.000000e+00 6.223206e+01 -2.400000e+00
        vertex 8.000000e+00 6.223206e+01 -2.400000e+00
        vertex -8.000000e+00 6.243185e+01 -2.882363e+00
    endloop
endfacet
facet normal 0.000000e+00 7.933500e-01 6.087658e-01
    outer loop
        vertex 8.000000e+00 6.191422e+01 -1.985787e+00
        vertex 8.000000e+00 6.223206e+01 -2.400000e+00
        vertex -8.000000e+00 6.223206e+01 -2.400000e+00
    endloop
endfacet
facet normal -0.000000e+00 7.933500e-01 6.087658e-01
    outer loop
        vertex -8.000000e+00 6.191422e+01 -1.985787e+00
        vertex 8.000000e+00 6.191422e+01 -1.985787e+00
        vertex -8.000000e+00 6.223206e+01 -2.400000e+00
    endloop
endfacet
facet normal 0.000000e+00 6.087595e-01 7.933549e-01
    outer loop
        vertex 8.000000e+00 6.150000e+01 -1.667950e+00
        vertex 8.000000e+00 6.191422e+01 -1.985787e+00
        vertex -8.000000e+00 6.191422e+01 -1.985787e+00
    endloop
endfacet
facet normal -0.000000e+00 6.087595e-01 7.933549e-01
    outer loop
        vertex -8.000000e+00 6.150000e+01 -1.667950e+00
        vertex 8.000000e+00 6.150000e+01 -1.667950e+00
        vertex -8.000000e+00 6.191422e+01 -1.985787e+00
    endloop
endfacet
facet normal 0.000000e+00 3.826867e-01 9.238782e-01
    outer loop
        vertex 8.000000e+00 6.101764e+01 -1.468148e+00
        vertex 8.000000e+00 6.150000e+01 -1.667950e+00
        vertex -8.000000e+00 6.150000e+01 -1.667950e+00
    endloop
endfacet
facet normal -0.000000e+00 3.826867e-01 9.238782e-01
    outer loop
        vertex -8.000000e+00 6.101764e+01 -1.468148e+00
        vertex 8.000000e+00 6.101764e+01 -1.468148e+00
        vertex -8.000000e+00 6.150000e+01 -1.667950e+00
    endloop
endfacet
facet normal 0.000000e+00 3.826867e-01 -9.238782e-01
    outer loop
        vertex 8.000000e+00 6.101764e+01 -5.331852e+00
        vertex -8.000000e+00 6.101764e+01 -5.331852e+00
        vertex 8.000000e+00 6.150000e+01 -5.132050e+00
    endloop
endfacet
facet normal 0.000000e+00 3.826867e-01 -9.238782e-01
    outer loop
        vertex -8.000000e+00 6.101764e+01 -5.331852e+00
        vertex -8.000000e+00 6.150000e+01 -5.132050e+00
        vertex 8.000000e+00 6.150000e+01 -5.132050e+00
    endloop
endfacet
facet normal 0.000000e+00 6.087595e-01 -7.933549e-01
    outer loop
        vertex 8.000000e+00 6.150000e+01 -5.132050e+00
        vertex -8.000000e+00 6.150000e+01 -5.132050e+00
        vertex 8.000000e+00 6.191422e+01 -4.814213e+00
    endloop
endfacet
facet normal 0.000000e+00 6.087595e-01 -7.933549e-01
    outer loop
        vertex -8.000000e+00 6.150000e+01 -5.132050e+00
        vertex -8.000000e+00 6.191422e+01 -4.814213e+00
        vertex 8.000000e+00 6.191422e+01 -4.814213e+00
    endloop
endfacet
facet normal 0.000000e+00 7.933500e-01 -6.087658e-01
    outer loop
        vertex 8.000000e+00 6.191422e+01 -4.814213e+00
        vertex -8.000000e+00 6.191422e+01 -4.814213e+00
        vertex 8.000000e+00 6.223206e+01 -4.400000e+00
    endloop
endfacet
facet normal 0.000000e+00 7.933500e-01 -6.087658e-01
    outer loop
        vertex -8.000000e+00 6.191422e+01 -4.814213e+00
        vertex -8.000000e+00 6.223206e+01 -4.400000e+00
        vertex 8.000000e+00 6.223206e+01 -4.400000e+00
    endloop
endfacet
facet normal 0.000000e+00 9.238812e-01 -3.826795e-01
    outer loop
        vertex 8.000000e+00 6.223206e+01 -4.400000e+00
        vertex -8.000000e+00 6.223206e+01 -4.400000e+00
        vertex 8.000000e+00 6.243185e+01 -3.917637e+00
    endloop
endfacet
facet normal 0.000000e+00 9.238812e-01 -3.826795e-01
    outer loop
        vertex -8.000000e+00 6.223206e+01 -4.400000e+00
        vertex -8.000000e+00 6.243185e+01 -3.917637e+00
        vertex 8.000000e+00 6.243185e+01 -3.917637e+00
    endloop
endfacet
facet normal 0.000000e+00 9.914455e-01 -1.305215e-01
    outer loop
        vertex 8.000000e+00 6.243185e+01 -3.917637e+00
        vertex -8.000000e+00 6.243185e+01 -3.917637e+00
        vertex 8.000000e+00 6.250000e+01 -3.400000e+00
    endloop
endfacet
facet normal 0.000000e+00 9.914455e-01 -1.305215e-01
    outer loop
        vertex -8.000000e+00 6.243185e+01 -3.917637e+00
        vertex -8.000000e+00 6.250000e+01 -3.400000e+00
        vertex 8.000000e+00 6.250000e+01 -3.400000e+00
    endloop
endfacet
facet normal 1.000000e+00 0.000000e+00 0.000000e+00
    outer loop
        vertex 8.000000e+00 6.191422e+01 -1.985787e+00
        vertex 8.000000e+00 6.243185e+01 -2.882363e+00
        vertex 8.000000e+00 6.223206e+01 -2.400000e+00
    endloop
endfacet
facet normal 1.000000e+00 0.000000e+00 0.000000e+00
    outer loop
        vertex 8.000000e+00 6.191422e+01 -1.985787e+00
        vertex 8.000000e+00 6.250000e+01 -3.400000e+00
        vertex 8.000000e+00 6.243185e+01 -2.882363e+00
    endloop
endfacet
facet normal 1.000000e+00 0.000000e+00 0.000000e+00
    outer loop
        vertex 8.000000e+00 6.150000e+01 -1.667950e+00
        vertex 8.000000e+00 6.250000e+01 -3.400000e+00
        vertex 8.000000e+00 6.191422e+01 -1.985787e+00
    endloop
endfacet
facet normal 1.000000e+00 0.000000e+00 0.000000e+00
    outer loop
        vertex 8.000000e+00 6.101764e+01 -1.468148e+00
        vertex 8.000000e+00 6.250000e+01 -3.400000e+00
        vertex 8.000000e+00 6.150000e+01 -1.667950e+00
    endloop
endfacet
facet normal 1.000000e+00 0.000000e+00 0.000000e+00
    outer loop
        vertex 8.000000e+00 6.050000e+01 -1.400000e+00
        vertex 8.000000e+00 6.250000e+01 -3.400000e+00
        vertex 8.000000e+00 6.101764e+01 -1.468148e+00
    endloop
endfacet
facet normal 1.000000e+00 -0.000000e+00 0.000000e+00
    outer loop
        vertex 8.000000e+00 5.998236e+01 -1.468148e+00
        vertex 8.000000e+00 6.250000e+01 -3.400000e+00
        vertex 8.000000e+00 6.050000e+01 -1.400000e+00
    endloop
endfacet
facet normal 1.000000e+00 -0.000000e+00 0.000000e+00
    outer loop
        vertex 8.000000e+00 5.950000e+01 -1.667950e+00
        vertex 8.000000e+00 6.250000e+01 -3.400000e+00
        vertex 8.000000e+00 5.998236e+01 -1.468148e+00
    endloop
endfacet
facet normal 1.000000e+00 -0.000000e+00 0.000000e+00
    outer loop
        vertex 8.000000e+00 5.908578e+01 -1.985787e+00
        vertex 8.000000e+00 6.250000e+01 -3.400000e+00
        vertex 8.000000e+00 5.950000e+01 -1.667950e+00
    endloop
endfacet
facet normal 1.000000e+00 -0.000000e+00 0.000000e+00
    outer loop
        vertex 8.000000e+00 5.876794e+01 -2.400000e+00
        vertex 8.000000e+00 6.250000e+01 -3.400000e+00
        vertex 8.000000e+00 5.908578e+01 -1.985787e+00
    endloop
endfacet
facet normal 1.000000e+00 -0.000000e+00 0.000000e+00
    outer loop
        vertex 8.000000e+00 5.856815e+01 -2.882363e+00
        vertex 8.000000e+00 6.250000e+01 -3.400000e+00
        vertex 8.000000e+00 5.876794e+01 -2.400000e+00
    endloop
endfacet
facet normal 1.000000e+00 0.000000e+00 0.000000e+00
    outer loop
        vertex 8.000000e+00 5.850000e+01 -3.400000e+00
        vertex 8.000000e+00 6.250000e+01 -3.400000e+00
        vertex 8.000000e+00 5.856815e+01 -2.882363e+00
    endloop
endfacet
facet normal 1.000000e+00 -0.000000e+00 0.000000e+00
    outer loop
        vertex 8.000000e+00 5.850000e+01 -3.400000e+00
        vertex 8.000000e+00 6.243185e+01 -3.917637e+00
        vertex 8.000000e+00 6.250000e+01 -3.400000e+00
    endloop
endfacet
facet normal 1.000000e+00 0.000000e+00 0.000000e+00
    outer loop
        vertex 8.000000e+00 5.850000e+01 -3.400000e+00
        vertex 8.000000e+00 6.223206e+01 -4.400000e+00
        vertex 8.000000e+00 6.243185e+01 -3.917637e+00
    endloop
endfacet
facet normal 1.000000e+00 0.000000e+00 0.000000e+00
    outer loop
        vertex 8.000000e+00 5.850000e+01 -3.400000e+00
        vertex 8.000000e+00 6.191422e+01 -4.814213e+00
        vertex 8.000000e+00 6.223206e+01 -4.400000e+00
    endloop
endfacet
facet normal 1.000000e+00 0.000000e+00 0.000000e+00
    outer loop
        vertex 8.000000e+00 5.850000e+01 -3.400000e+00
        vertex 8.000000e+00 6.150000e+01 -5.132050e+00
        vertex 8.000000e+00 6.191422e+01 -4.814213e+00
    endloop
endfacet
facet normal 1.000000e+00 0.000000e+00 0.000000e+00
    outer loop
        vertex 8.000000e+00 5.850000e+01 -3.400000e+00
        vertex 8.000000e+00 6.101764e+01 -5.331852e+00
        vertex 8.000000e+00 6.150000e+01 -5.132050e+00
    endloop
endfacet
facet normal 1.000000e+00 0.000000e+00 0.000000e+00
    outer loop
        vertex 8.000000e+00 5.850000e+01 -3.400000e+00
        vertex 8.000000e+00 5.856815e+01 -3.917637e+00
        vertex 8.000000e+00 6.101764e+01 -5.331852e+00
    endloop
endfacet
facet normal 1.000000e+00 0.000000e+00 0.000000e+00
    outer loop
        vertex 8.000000e+00 5.856815e+01 -3.917637e+00
        vertex 8.000000e+00 5.876794e+01 -4.400000e+00
        vertex 8.000000e+00 6.101764e+01 -5.331852e+00
    endloop
endfacet
facet normal 1.000000e+00 0.000000e+00 0.000000e+00
    outer loop
        vertex 8.000000e+00 5.876794e+01 -4.400000e+00
        vertex 8.000000e+00 6.050000e+01 -5.400000e+00
        vertex 8.000000e+00 6.101764e+01 -5.331852e+00
    endloop
endfacet
facet normal 1.000000e+00 0.000000e+00 0.000000e+00
    outer loop
        vertex 8.000000e+00 5.876794e+01 -4.400000e+00
        vertex 8.000000e+00 5.908578e+01 -4.814213e+00
        vertex 8.000000e+00 6.050000e+01 -5.400000e+00
    endloop
endfacet
facet normal 1.000000e+00 0.000000e+00 0.000000e+00
    outer loop
        vertex 8.000000e+00 5.908578e+01 -4.814213e+00
        vertex 8.000000e+00 5.950000e+01 -5.132050e+00
        vertex 8.000000e+00 6.050000e+01 -5.400000e+00
    endloop
endfacet
facet normal 1.000000e+00 0.000000e+00 0.000000e+00
    outer loop
        vertex 8.000000e+00 5.950000e+01 -5.132050e+00
        vertex 8.000000e+00 5.998236e+01 -5.331852e+00
        vertex 8.000000e+00 6.050000e+01 -5.400000e+00
    endloop
endfacet
facet normal 0.000000e+00 1.305246e-01 9.914451e-01
    outer loop
        vertex -8.000000e+00 6.050000e+01 -1.400000e+00
        vertex 8.000000e+00 6.101764e+01 -1.468148e+00
        vertex -8.000000e+00 6.101764e+01 -1.468148e+00
    endloop
endfacet
facet normal -0.000000e+00 1.305246e-01 9.914451e-01
    outer loop
        vertex -8.000000e+00 6.050000e+01 -1.400000e+00
        vertex 8.000000e+00 6.050000e+01 -1.400000e+00
        vertex 8.000000e+00 6.101764e+01 -1.468148e+00
    endloop
endfacet
facet normal 0.000000e+00 -1.305246e-01 9.914451e-01
    outer loop
        vertex -8.000000e+00 5.998236e+01 -1.468148e+00
        vertex -6.000000e+00 6.050000e+01 -1.400000e+00
        vertex -8.000000e+00 6.050000e+01 -1.400000e+00
    endloop
endfacet
facet normal 0.000000e+00 -1.305246e-01 9.914451e-01
    outer loop
        vertex -6.000000e+00 5.998236e+01 -1.468148e+00
        vertex -6.000000e+00 6.050000e+01 -1.400000e+00
        vertex -8.000000e+00 5.998236e+01 -1.468148e+00
    endloop
endfacet
facet normal 0.000000e+00 -1.305246e-01 9.914451e-01
    outer loop
        vertex 6.000000e+00 5.998236e+01 -1.468148e+00
        vertex 8.000000e+00 5.998236e+01 -1.468148e+00
        vertex 8.000000e+00 6.050000e+01 -1.400000e+00
    endloop
endfacet
facet normal 0.000000e+00 -1.305246e-01 9.914451e-01
    outer loop
        vertex 6.000000e+00 5.998236e+01 -1.468148e+00
        vertex 8.000000e+00 6.050000e+01 -1.400000e+00
        vertex 6.000000e+00 6.050000e+01 -1.400000e+00
    endloop
endfacet
facet normal 0.000000e+00 -3.826867e-01 9.238782e-01
    outer loop
        vertex -8.000000e+00 5.950000e+01 -1.667950e+00
        vertex -6.000000e+00 5.998236e+01 -1.468148e+00
        vertex -8.000000e+00 5.998236e+01 -1.468148e+00
    endloop
endfacet
facet normal 0.000000e+00 -3.826867e-01 9.238782e-01
    outer loop
        vertex -6.000000e+00 5.950000e+01 -1.667950e+00
        vertex -6.000000e+00 5.998236e+01 -1.468148e+00
        vertex -8.000000e+00 5.950000e+01 -1.667950e+00
    endloop
endfacet
facet normal 0.000000e+00 -3.826867e-01 9.238782e-01
    outer loop
        vertex 6.000000e+00 5.950000e+01 -1.667950e+00
        vertex 8.000000e+00 5.950000e+01 -1.667950e+00
        vertex 8.000000e+00 5.998236e+01 -1.468148e+00
    endloop
endfacet
facet normal 0.000000e+00 -3.826867e-01 9.238782e-01
    outer loop
        vertex 6.000000e+00 5.950000e+01 -1.667950e+00
        vertex 8.000000e+00 5.998236e+01 -1.468148e+00
        vertex 6.000000e+00 5.998236e+01 -1.468148e+00
    endloop
endfacet
facet normal 0.000000e+00 -6.087595e-01 7.933549e-01
    outer loop
        vertex -8.000000e+00 5.908578e+01 -1.985787e+00
        vertex -6.000000e+00 5.950000e+01 -1.667950e+00
        vertex -8.000000e+00 5.950000e+01 -1.667950e+00
    endloop
endfacet
facet normal 0.000000e+00 -6.087595e-01 7.933549e-01
    outer loop
        vertex -6.000000e+00 5.908578e+01 -1.985787e+00
        vertex -6.000000e+00 5.950000e+01 -1.667950e+00
        vertex -8.000000e+00 5.908578e+01 -1.985787e+00
    endloop
endfacet
facet normal 0.000000e+00 -6.087595e-01 7.933549e-01
    outer loop
        vertex 6.000000e+00 5.908578e+01 -1.985787e+00
        vertex 8.000000e+00 5.908578e+01 -1.985787e+00
        vertex 8.000000e+00 5.950000e+01 -1.667950e+00
    endloop
endfacet
facet normal 0.000000e+00 -6.087595e-01 7.933549e-01
    outer loop
        vertex 6.000000e+00 5.908578e+01 -1.985787e+00
        vertex 8.000000e+00 5.950000e+01 -1.667950e+00
        vertex 6.000000e+00 5.950000e+01 -1.667950e+00
    endloop
endfacet
facet normal 0.000000e+00 -7.933500e-01 6.087658e-01
    outer loop
        vertex -8.000000e+00 5.876794e+01 -2.400000e+00
        vertex -6.000000e+00 5.908578e+01 -1.985787e+00
        vertex -8.000000e+00 5.908578e+01 -1.985787e+00
    endloop
endfacet
facet normal 0.000000e+00 -7.933500e-01 6.087658e-01
    outer loop
        vertex -6.000000e+00 5.876794e+01 -2.400000e+00
        vertex -6.000000e+00 5.908578e+01 -1.985787e+00
        vertex -8.000000e+00 5.876794e+01 -2.400000e+00
    endloop
endfacet
facet normal 0.000000e+00 -7.933500e-01 6.087658e-01
    outer loop
        vertex 6.000000e+00 5.876794e+01 -2.400000e+00
        vertex 8.000000e+00 5.876794e+01 -2.400000e+00
        vertex 8.000000e+00 5.908578e+01 -1.985787e+00
    endloop
endfacet
facet normal 0.000000e+00 -7.933500e-01 6.087658e-01
    outer loop
        vertex 6.000000e+00 5.876794e+01 -2.400000e+00
        vertex 8.000000e+00 5.908578e+01 -1.985787e+00
        vertex 6.000000e+00 5.908578e+01 -1.985787e+00
    endloop
endfacet
facet normal 0.000000e+00 -9.238813e-01 3.826792e-01
    outer loop
        vertex -8.000000e+00 5.856815e+01 -2.882363e+00
        vertex -6.000000e+00 5.876794e+01 -2.400000e+00
        vertex -8.000000e+00 5.876794e+01 -2.400000e+00
    endloop
endfacet
facet normal 0.000000e+00 -9.238813e-01 3.826792e-01
    outer loop
        vertex -6.000000e+00 5.856815e+01 -2.882363e+00
        vertex -6.000000e+00 5.876794e+01 -2.400000e+00
        vertex -8.000000e+00 5.856815e+01 -2.882363e+00
    endloop
endfacet
facet normal 0.000000e+00 -9.238813e-01 3.826792e-01
    outer loop
        vertex 6.000000e+00 5.856815e+01 -2.882363e+00
        vertex 8.000000e+00 5.856815e+01 -2.882363e+00
        vertex 8.000000e+00 5.876794e+01 -2.400000e+00
    endloop
endfacet
facet normal 0.000000e+00 -9.238813e-01 3.826792e-01
    outer loop
        vertex 6.000000e+00 5.856815e+01 -2.882363e+00
        vertex 8.000000e+00 5.876794e+01 -2.400000e+00
        vertex 6.000000e+00 5.876794e+01 -2.400000e+00
    endloop
endfacet
facet normal 0.000000e+00 -9.914455e-01 1.305215e-01
    outer loop
        vertex -8.000000e+00 5.850000e+01 -3.400000e+00
        vertex -6.000000e+00 5.856815e+01 -2.882363e+00
        vertex -8.000000e+00 5.856815e+01 -2.882363e+00
    endloop
endfacet
facet normal 0.000000e+00 -9.914455e-01 1.305215e-01
    outer loop
        vertex -6.000000e+00 5.850000e+01 -3.400000e+00
        vertex -6.000000e+00 5.856815e+01 -2.882363e+00
        vertex -8.000000e+00 5.850000e+01 -3.400000e+00
    endloop
endfacet
facet normal 0.000000e+00 -9.914455e-01 1.305215e-01
    outer loop
        vertex 6.000000e+00 5.850000e+01 -3.400000e+00
        vertex 8.000000e+00 5.850000e+01 -3.400000e+00
        vertex 8.000000e+00 5.856815e+01 -2.882363e+00
    endloop
endfacet
facet normal 0.000000e+00 -9.914455e-01 1.305215e-01
    outer loop
        vertex 6.000000e+00 5.850000e+01 -3.400000e+00
        vertex 8.000000e+00 5.856815e+01 -2.882363e+00
        vertex 6.000000e+00 5.856815e+01 -2.882363e+00
    endloop
endfacet
facet normal -0.000000e+00 -9.914455e-01 -1.305215e-01
    outer loop
        vertex -6.000000e+00 5.850000e+01 -3.400000e+00
        vertex -8.000000e+00 5.850000e+01 -3.400000e+00
        vertex -8.000000e+00 5.856815e+01 -3.917637e+00
    endloop
endfacet
facet normal 0.000000e+00 -9.914455e-01 -1.305215e-01
    outer loop
        vertex -6.000000e+00 5.850000e+01 -3.400000e+00
        vertex -8.000000e+00 5.856815e+01 -3.917637e+00
        vertex -6.000000e+00 5.856815e+01 -3.917637e+00
    endloop
endfacet
facet normal 0.000000e+00 -9.914455e-01 -1.305215e-01
    outer loop
        vertex 8.000000e+00 5.850000e+01 -3.400000e+00
        vertex 6.000000e+00 5.856815e+01 -3.917637e+00
        vertex 8.000000e+00 5.856815e+01 -3.917637e+00
    endloop
endfacet
facet normal 0.000000e+00 -9.914455e-01 -1.305215e-01
    outer loop
        vertex 6.000000e+00 5.850000e+01 -3.400000e+00
        vertex 6.000000e+00 5.856815e+01 -3.917637e+00
        vertex 8.000000e+00 5.850000e+01 -3.400000e+00
    endloop
endfacet
facet normal -0.000000e+00 -9.238812e-01 -3.826795e-01
    outer loop
        vertex -6.000000e+00 5.856815e+01 -3.917637e+00
        vertex -8.000000e+00 5.856815e+01 -3.917637e+00
        vertex -8.000000e+00 5.876794e+01 -4.400000e+00
    endloop
endfacet
facet normal 0.000000e+00 -9.238812e-01 -3.826795e-01
    outer loop
        vertex -6.000000e+00 5.856815e+01 -3.917637e+00
        vertex -8.000000e+00 5.876794e+01 -4.400000e+00
        vertex -6.000000e+00 5.876794e+01 -4.400000e+00
    endloop
endfacet
facet normal 0.000000e+00 -9.238812e-01 -3.826795e-01
    outer loop
        vertex 8.000000e+00 5.856815e+01 -3.917637e+00
        vertex 6.000000e+00 5.876794e+01 -4.400000e+00
        vertex 8.000000e+00 5.876794e+01 -4.400000e+00
    endloop
endfacet
facet normal 0.000000e+00 -9.238812e-01 -3.826795e-01
    outer loop
        vertex 6.000000e+00 5.856815e+01 -3.917637e+00
        vertex 6.000000e+00 5.876794e+01 -4.400000e+00
        vertex 8.000000e+00 5.856815e+01 -3.917637e+00
    endloop
endfacet
facet normal -0.000000e+00 -7.933500e-01 -6.087658e-01
    outer loop
        vertex -6.000000e+00 5.876794e+01 -4.400000e+00
        vertex -8.000000e+00 5.876794e+01 -4.400000e+00
        vertex -8.000000e+00 5.908578e+01 -4.814213e+00
    endloop
endfacet
facet normal 0.000000e+00 -7.933500e-01 -6.087658e-01
    outer loop
        vertex -6.000000e+00 5.876794e+01 -4.400000e+00
        vertex -8.000000e+00 5.908578e+01 -4.814213e+00
        vertex -6.000000e+00 5.908578e+01 -4.814213e+00
    endloop
endfacet
facet normal 0.000000e+00 -7.933500e-01 -6.087658e-01
    outer loop
        vertex 8.000000e+00 5.876794e+01 -4.400000e+00
        vertex 6.000000e+00 5.908578e+01 -4.814213e+00
        vertex 8.000000e+00 5.908578e+01 -4.814213e+00
    endloop
endfacet
facet normal 0.000000e+00 -7.933500e-01 -6.087658e-01
    outer loop
        vertex 6.000000e+00 5.876794e+01 -4.400000e+00
        vertex 6.000000e+00 5.908578e+01 -4.814213e+00
        vertex 8.000000e+00 5.876794e+01 -4.400000e+00
    endloop
endfacet
facet normal -0.000000e+00 -6.087595e-01 -7.933549e-01
    outer loop
        vertex -6.000000e+00 5.908578e+01 -4.814213e+00
        vertex -8.000000e+00 5.908578e+01 -4.814213e+00
        vertex -8.000000e+00 5.950000e+01 -5.132050e+00
    endloop
endfacet
facet normal 0.000000e+00 -6.087595e-01 -7.933549e-01
    outer loop
        vertex -6.000000e+00 5.908578e+01 -4.814213e+00
        vertex -8.000000e+00 5.950000e+01 -5.132050e+00
        vertex -6.000000e+00 5.950000e+01 -5.132050e+00
    endloop
endfacet
facet normal 0.000000e+00 -6.087595e-01 -7.933549e-01
    outer loop
        vertex 8.000000e+00 5.908578e+01 -4.814213e+00
        vertex 6.000000e+00 5.950000e+01 -5.132050e+00
        vertex 8.000000e+00 5.950000e+01 -5.132050e+00
    endloop
endfacet
facet normal 0.000000e+00 -6.087595e-01 -7.933549e-01
    outer loop
        vertex 6.000000e+00 5.908578e+01 -4.814213e+00
        vertex 6.000000e+00 5.950000e+01 -5.132050e+00
        vertex 8.000000e+00 5.908578e+01 -4.814213e+00
    endloop
endfacet
facet normal -0.000000e+00 -3.826867e-01 -9.238782e-01
    outer loop
        vertex -6.000000e+00 5.950000e+01 -5.132050e+00
        vertex -8.000000e+00 5.950000e+01 -5.132050e+00
        vertex -8.000000e+00 5.998236e+01 -5.331852e+00
    endloop
endfacet
facet normal 0.000000e+00 -3.826867e-01 -9.238782e-01
    outer loop
        vertex -6.000000e+00 5.950000e+01 -5.132050e+00
        vertex -8.000000e+00 5.998236e+01 -5.331852e+00
        vertex -6.000000e+00 5.998236e+01 -5.331852e+00
    endloop
endfacet
facet normal 0.000000e+00 -3.826867e-01 -9.238782e-01
    outer loop
        vertex 8.000000e+00 5.950000e+01 -5.132050e+00
        vertex 6.000000e+00 5.998236e+01 -5.331852e+00
        vertex 8.000000e+00 5.998236e+01 -5.331852e+00
    endloop
endfacet
facet normal 0.000000e+00 -3.826867e-01 -9.238782e-01
    outer loop
        vertex 6.000000e+00 5.950000e+01 -5.132050e+00
        vertex 6.000000e+00 5.998236e+01 -5.331852e+00
        vertex 8.000000e+00 5.950000e+01 -5.132050e+00
    endloop
endfacet
facet normal -0.000000e+00 -1.305246e-01 -9.914451e-01
    outer loop
        vertex -6.000000e+00 5.998236e+01 -5.331852e+00
        vertex -8.000000e+00 5.998236e+01 -5.331852e+00
        vertex -8.000000e+00 6.050000e+01 -5.400000e+00
    endloop
endfacet
facet normal 0.000000e+00 -1.305246e-01 -9.914451e-01
    outer loop
        vertex -6.000000e+00 5.998236e+01 -5.331852e+00
        vertex -8.000000e+00 6.050000e+01 -5.400000e+00
        vertex -6.000000e+00 6.050000e+01 -5.400000e+00
    endloop
endfacet
facet normal 0.000000e+00 -1.305246e-01 -9.914451e-01
    outer loop
        vertex 8.000000e+00 5.998236e+01 -5.331852e+00
        vertex 6.000000e+00 6.050000e+01 -5.400000e+00
        vertex 8.000000e+00 6.050000e+01 -5.400000e+00
    endloop
endfacet
facet normal 0.000000e+00 -1.305246e-01 -9.914451e-01
    outer loop
        vertex 6.000000e+00 5.998236e+01 -5.331852e+00
        vertex 6.000000e+00 6.050000e+01 -5.400000e+00
        vertex 8.000000e+00 5.998236e+01 -5.331852e+00
    endloop
endfacet
facet normal 0.000000e+00 1.305246e-01 -9.914451e-01
    outer loop
        vertex -8.000000e+00 6.050000e+01 -5.400000e+00
        vertex -8.000000e+00 6.101764e+01 -5.331852e+00
        vertex 8.000000e+00 6.101764e+01 -5.331852e+00
    endloop
endfacet
facet normal 0.000000e+00 1.305246e-01 -9.914451e-01
    outer loop
        vertex 8.000000e+00 6.050000e+01 -5.400000e+00
        vertex -8.000000e+00 6.050000e+01 -5.400000e+00
        vertex 8.000000e+00 6.101764e+01 -5.331852e+00
    endloop
endfacet
facet normal 0.000000e+00 0.000000e+00 -1.000000e+00
    outer loop
        vertex -6.000000e+00 4.770000e+01 -5.500000e+00
        vertex -6.000000e+00 6.050000e+01 -5.500000e+00
        vertex 6.000000e+00 6.050000e+01 -5.500000e+00
    endloop
endfacet
facet normal 0.000000e+00 0.000000e+00 -1.000000e+00
    outer loop
        vertex 5.200000e+00 5.683923e+01 -5.500000e+00
        vertex 4.910583e+00 5.695911e+01 -5.500000e+00
        vertex 6.000000e+00 6.050000e+01 -5.500000e+00
    endloop
endfacet
facet normal 0.000000e+00 0.000000e+00 -1.000000e+00
    outer loop
        vertex 4.910583e+00 5.695911e+01 -5.500000e+00
        vertex 4.600000e+00 5.700000e+01 -5.500000e+00
        vertex 6.000000e+00 6.050000e+01 -5.500000e+00
    endloop
endfacet
facet normal 0.000000e+00 0.000000e+00 -1.000000e+00
    outer loop
        vertex 5.448528e+00 5.664853e+01 -5.500000e+00
        vertex 5.200000e+00 5.683923e+01 -5.500000e+00
        vertex 6.000000e+00 6.050000e+01 -5.500000e+00
    endloop
endfacet
facet normal 0.000000e+00 0.000000e+00 -1.000000e+00
    outer loop
        vertex 4.289417e+00 5.695911e+01 -5.500000e+00
        vertex 6.000000e+00 6.050000e+01 -5.500000e+00
        vertex 4.600000e+00 5.700000e+01 -5.500000e+00
    endloop
endfacet
facet normal 0.000000e+00 0.000000e+00 -1.000000e+00
    outer loop
        vertex 5.639230e+00 5.640000e+01 -5.500000e+00
        vertex 5.448528e+00 5.664853e+01 -5.500000e+00
        vertex 6.000000e+00 6.050000e+01 -5.500000e+00
    endloop
endfacet
facet normal 0.000000e+00 0.000000e+00 -1.000000e+00
    outer loop
        vertex 4.000000e+00 5.683923e+01 -5.500000e+00
        vertex 6.000000e+00 6.050000e+01 -5.500000e+00
        vertex 4.289417e+00 5.695911e+01 -5.500000e+00
    endloop
endfacet
facet normal 0.000000e+00 0.000000e+00 -1.000000e+00
    outer loop
        vertex 5.759111e+00 5.611058e+01 -5.500000e+00
        vertex 5.639230e+00 5.640000e+01 -5.500000e+00
        vertex 6.000000e+00 6.050000e+01 -5.500000e+00
    endloop
endfacet
facet normal 0.000000e+00 0.000000e+00 -1.000000e+00
    outer loop
        vertex 3.751472e+00 5.664853e+01 -5.500000e+00
        vertex 6.000000e+00 6.050000e+01 -5.500000e+00
        vertex 4.000000e+00 5.683923e+01 -5.500000e+00
    endloop
endfacet
facet normal 0.000000e+00 0.000000e+00 -1.000000e+00
    outer loop
        vertex -6.000000e+00 4.770000e+01 -5.500000e+00
        vertex 6.000000e+00 6.050000e+01 -5.500000e+00
        vertex 3.751472e+00 5.664853e+01 -5.500000e+00
    endloop
endfacet
facet normal 0.000000e+00 0.000000e+00 -1.000000e+00
    outer loop
        vertex 5.800000e+00 5.580000e+01 -5.500000e+00
        vertex 5.759111e+00 5.611058e+01 -5.500000e+00
        vertex 6.000000e+00 6.050000e+01 -5.500000e+00
    endloop
endfacet
facet normal 0.000000e+00 0.000000e+00 -1.000000e+00
    outer loop
        vertex 6.000000e+00 4.770000e+01 -5.500000e+00
        vertex 5.800000e+00 5.580000e+01 -5.500000e+00
        vertex 6.000000e+00 6.050000e+01 -5.500000e+00
    endloop
endfacet
facet normal 0.000000e+00 0.000000e+00 -1.000000e+00
    outer loop
        vertex 6.000000e+00 4.770000e+01 -5.500000e+00
        vertex 5.759111e+00 5.548942e+01 -5.500000e+00
        vertex 5.800000e+00 5.580000e+01 -5.500000e+00
    endloop
endfacet
facet normal 0.000000e+00 0.000000e+00 -1.000000e+00
    outer loop
        vertex 6.000000e+00 4.770000e+01 -5.500000e+00
        vertex 5.639230e+00 5.520000e+01 -5.500000e+00
        vertex 5.759111e+00 5.548942e+01 -5.500000e+00
    endloop
endfacet
facet normal 0.000000e+00 0.000000e+00 -1.000000e+00
    outer loop
        vertex 6.000000e+00 4.770000e+01 -5.500000e+00
        vertex 5.448528e+00 5.495147e+01 -5.500000e+00
        vertex 5.639230e+00 5.520000e+01 -5.500000e+00
    endloop
endfacet
facet normal 0.000000e+00 0.000000e+00 -1.000000e+00
    outer loop
        vertex 6.000000e+00 4.770000e+01 -5.500000e+00
        vertex 5.200000e+00 5.476077e+01 -5.500000e+00
        vertex 5.448528e+00 5.495147e+01 -5.500000e+00
    endloop
endfacet
facet normal 0.000000e+00 0.000000e+00 -1.000000e+00
    outer loop
        vertex 6.000000e+00 4.770000e+01 -5.500000e+00
        vertex -6.000000e+00 4.770000e+01 -5.500000e+00
        vertex 5.200000e+00 5.476077e+01 -5.500000e+00
    endloop
endfacet
facet normal 0.000000e+00 0.000000e+00 -1.000000e+00
    outer loop
        vertex -6.000000e+00 4.770000e+01 -5.500000e+00
        vertex 3.751472e+00 5.664853e+01 -5.500000e+00
        vertex 3.560770e+00 5.640000e+01 -5.500000e+00
    endloop
endfacet
facet normal 0.000000e+00 0.000000e+00 -1.000000e+00
    outer loop
        vertex -6.000000e+00 4.770000e+01 -5.500000e+00
        vertex 3.560770e+00 5.640000e+01 -5.500000e+00
        vertex 3.440889e+00 5.611058e+01 -5.500000e+00
    endloop
endfacet
facet normal 0.000000e+00 0.000000e+00 -1.000000e+00
    outer loop
        vertex -6.000000e+00 4.770000e+01 -5.500000e+00
        vertex 3.440889e+00 5.611058e+01 -5.500000e+00
        vertex 3.400000e+00 5.580000e+01 -5.500000e+00
    endloop
endfacet
facet normal 0.000000e+00 0.000000e+00 -1.000000e+00
    outer loop
        vertex -6.000000e+00 4.770000e+01 -5.500000e+00
        vertex 3.400000e+00 5.580000e+01 -5.500000e+00
        vertex 3.440889e+00 5.548942e+01 -5.500000e+00
    endloop
endfacet
facet normal 0.000000e+00 0.000000e+00 -1.000000e+00
    outer loop
        vertex -6.000000e+00 4.770000e+01 -5.500000e+00
        vertex 3.440889e+00 5.548942e+01 -5.500000e+00
        vertex 3.560770e+00 5.520000e+01 -5.500000e+00
    endloop
endfacet
facet normal 0.000000e+00 0.000000e+00 -1.000000e+00
    outer loop
        vertex -6.000000e+00 4.770000e+01 -5.500000e+00
        vertex 3.560770e+00 5.520000e+01 -5.500000e+00
        vertex 3.751472e+00 5.495147e+01 -5.500000e+00
    endloop
endfacet
facet normal 0.000000e+00 0.000000e+00 -1.000000e+00
    outer loop
        vertex -6.000000e+00 4.770000e+01 -5.500000e+00
        vertex 3.751472e+00 5.495147e+01 -5.500000e+00
        vertex 4.000000e+00 5.476077e+01 -5.500000e+00
    endloop
endfacet
facet normal 0.000000e+00 0.000000e+00 -1.000000e+00
    outer loop
        vertex -6.000000e+00 4.770000e+01 -5.500000e+00
        vertex 4.000000e+00 5.476077e+01 -5.500000e+00
        vertex 4.289417e+00 5.464089e+01 -5.500000e+00
    endloop
endfacet
facet normal 0.000000e+00 0.000000e+00 -1.000000e+00
    outer loop
        vertex -6.000000e+00 4.770000e+01 -5.500000e+00
        vertex 4.289417e+00 5.464089e+01 -5.500000e+00
        vertex 4.600000e+00 5.460000e+01 -5.500000e+00
    endloop
endfacet
facet normal 0.000000e+00 0.000000e+00 -1.000000e+00
    outer loop
        vertex -6.000000e+00 4.770000e+01 -5.500000e+00
        vertex 4.600000e+00 5.460000e+01 -5.500000e+00
        vertex 4.910583e+00 5.464089e+01 -5.500000e+00
    endloop
endfacet
facet normal 0.000000e+00 0.000000e+00 -1.000000e+00
    outer loop
        vertex -6.000000e+00 4.770000e+01 -5.500000e+00
        vertex 4.910583e+00 5.464089e+01 -5.500000e+00
        vertex 5.200000e+00 5.476077e+01 -5.500000e+00
    endloop
endfacet
facet normal 0.000000e+00 0.000000e+00 -1.000000e+00
    outer loop
        vertex 5.639230e+00 5.640000e+01 -1.400000e+00
        vertex 5.200000e+00 5.683923e+01 -1.400000e+00
        vertex 5.448528e+00 5.664853e+01 -1.400000e+00
    endloop
endfacet
facet normal 0.000000e+00 0.000000e+00 -1.000000e+00
    outer loop
        vertex 5.759111e+00 5.611058e+01 -1.400000e+00
        vertex 5.200000e+00 5.683923e+01 -1.400000e+00
        vertex 5.639230e+00 5.640000e+01 -1.400000e+00
    endloop
endfacet
facet normal 0.000000e+00 0.000000e+00 -1.000000e+00
    outer loop
        vertex 5.800000e+00 5.580000e+01 -1.400000e+00
        vertex 5.200000e+00 5.683923e+01 -1.400000e+00
        vertex 5.759111e+00 5.611058e+01 -1.400000e+00
    endloop
endfacet
facet normal 0.000000e+00 0.000000e+00 -1.000000e+00
    outer loop
        vertex 5.759111e+00 5.548942e+01 -1.400000e+00
        vertex 5.200000e+00 5.683923e+01 -1.400000e+00
        vertex 5.800000e+00 5.580000e+01 -1.400000e+00
    endloop
endfacet
facet normal 0.000000e+00 0.000000e+00 -1.000000e+00
    outer loop
        vertex 5.639230e+00 5.520000e+01 -1.400000e+00
        vertex 5.200000e+00 5.683923e+01 -1.400000e+00
        vertex 5.759111e+00 5.548942e+01 -1.400000e+00
    endloop
endfacet
facet normal 0.000000e+00 0.000000e+00 -1.000000e+00
    outer loop
        vertex 5.448528e+00 5.495147e+01 -1.400000e+00
        vertex 5.200000e+00 5.683923e+01 -1.400000e+00
        vertex 5.639230e+00 5.520000e+01 -1.400000e+00
    endloop
endfacet
facet normal 0.000000e+00 0.000000e+00 -1.000000e+00
    outer loop
        vertex 5.200000e+00 5.476077e+01 -1.400000e+00
        vertex 5.200000e+00 5.683923e+01 -1.400000e+00
        vertex 5.448528e+00 5.495147e+01 -1.400000e+00
    endloop
endfacet
facet normal 0.000000e+00 0.000000e+00 -1.000000e+00
    outer loop
        vertex 4.910583e+00 5.464089e+01 -1.400000e+00
        vertex 5.200000e+00 5.683923e+01 -1.400000e+00
        vertex 5.200000e+00 5.476077e+01 -1.400000e+00
    endloop
endfacet
facet normal 0.000000e+00 0.000000e+00 -1.000000e+00
    outer loop
        vertex 4.600000e+00 5.460000e+01 -1.400000e+00
        vertex 5.200000e+00 5.683923e+01 -1.400000e+00
        vertex 4.910583e+00 5.464089e+01 -1.400000e+00
    endloop
endfacet
facet normal 0.000000e+00 0.000000e+00 -1.000000e+00
    outer loop
        vertex 4.600000e+00 5.460000e+01 -1.400000e+00
        vertex 4.289417e+00 5.464089e+01 -1.400000e+00
        vertex 5.200000e+00 5.683923e+01 -1.400000e+00
    endloop
endfacet
facet normal 0.000000e+00 0.000000e+00 -1.000000e+00
    outer loop
        vertex 4.289417e+00 5.464089e+01 -1.400000e+00
        vertex 4.000000e+00 5.476077e+01 -1.400000e+00
        vertex 5.200000e+00 5.683923e+01 -1.400000e+00
    endloop
endfacet
facet normal 0.000000e+00 0.000000e+00 -1.000000e+00
    outer loop
        vertex 4.000000e+00 5.476077e+01 -1.400000e+00
        vertex 3.751472e+00 5.495147e+01 -1.400000e+00
        vertex 5.200000e+00 5.683923e+01 -1.400000e+00
    endloop
endfacet
facet normal 0.000000e+00 0.000000e+00 -1.000000e+00
    outer loop
        vertex 3.751472e+00 5.495147e+01 -1.400000e+00
        vertex 4.910583e+00 5.695911e+01 -1.400000e+00
        vertex 5.200000e+00 5.683923e+01 -1.400000e+00
    endloop
endfacet
facet normal 0.000000e+00 0.000000e+00 -1.000000e+00
    outer loop
        vertex 3.751472e+00 5.495147e+01 -1.400000e+00
        vertex 4.600000e+00 5.700000e+01 -1.400000e+00
        vertex 4.910583e+00 5.695911e+01 -1.400000e+00
    endloop
endfacet
facet normal 0.000000e+00 0.000000e+00 -1.000000e+00
    outer loop
        vertex 3.751472e+00 5.495147e+01 -1.400000e+00
        vertex 3.560770e+00 5.520000e+01 -1.400000e+00
        vertex 4.600000e+00 5.700000e+01 -1.400000e+00
    endloop
endfacet
facet normal 0.000000e+00 0.000000e+00 -1.000000e+00
    outer loop
        vertex 3.560770e+00 5.520000e+01 -1.400000e+00
        vertex 3.440889e+00 5.548942e+01 -1.400000e+00
        vertex 4.600000e+00 5.700000e+01 -1.400000e+00
    endloop
endfacet
facet normal 0.000000e+00 0.000000e+00 -1.000000e+00
    outer loop
        vertex 3.440889e+00 5.548942e+01 -1.400000e+00
        vertex 4.289417e+00 5.695911e+01 -1.400000e+00
        vertex 4.600000e+00 5.700000e+01 -1.400000e+00
    endloop
endfacet
facet normal 0.000000e+00 0.000000e+00 -1.000000e+00
    outer loop
        vertex 3.440889e+00 5.548942e+01 -1.400000e+00
        vertex 4.000000e+00 5.683923e+01 -1.400000e+00
        vertex 4.289417e+00 5.695911e+01 -1.400000e+00
    endloop
endfacet
facet normal 0.000000e+00 0.000000e+00 -1.000000e+00
    outer loop
        vertex 3.440889e+00 5.548942e+01 -1.400000e+00
        vertex 3.751472e+00 5.664853e+01 -1.400000e+00
        vertex 4.000000e+00 5.683923e+01 -1.400000e+00
    endloop
endfacet
facet normal 0.000000e+00 0.000000e+00 -1.000000e+00
    outer loop
        vertex 3.440889e+00 5.548942e+01 -1.400000e+00
        vertex 3.400000e+00 5.580000e+01 -1.400000e+00
        vertex 3.751472e+00 5.664853e+01 -1.400000e+00
    endloop
endfacet
facet normal 0.000000e+00 0.000000e+00 -1.000000e+00
    outer loop
        vertex 3.400000e+00 5.580000e+01 -1.400000e+00
        vertex 3.440889e+00 5.611058e+01 -1.400000e+00
        vertex 3.751472e+00 5.664853e+01 -1.400000e+00
    endloop
endfacet
facet normal 0.000000e+00 0.000000e+00 -1.000000e+00
    outer loop
        vertex 3.440889e+00 5.611058e+01 -1.400000e+00
        vertex 3.560770e+00 5.640000e+01 -1.400000e+00
        vertex 3.751472e+00 5.664853e+01 -1.400000e+00
    endloop
endfacet
facet normal -9.914449e-01 -1.305261e-01 0.000000e+00
    outer loop
        vertex 5.800000e+00 5.580000e+01 -1.400000e+00
        vertex 5.759111e+00 5.611058e+01 -1.400000e+00
        vertex 5.759111e+00 5.611058e+01 -5.500000e+00
    endloop
endfacet
facet normal -9.914449e-01 -1.305261e-01 0.000000e+00
    outer loop
        vertex 5.800000e+00 5.580000e+01 -5.500000e+00
        vertex 5.800000e+00 5.580000e+01 -1.400000e+00
        vertex 5.759111e+00 5.611058e+01 -5.500000e+00
    endloop
endfacet
facet normal -9.238794e-01 -3.826838e-01 0.000000e+00
    outer loop
        vertex 5.759111e+00 5.611058e+01 -1.400000e+00
        vertex 5.639230e+00 5.640000e+01 -1.400000e+00
        vertex 5.639230e+00 5.640000e+01 -5.500000e+00
    endloop
endfacet
facet normal -9.238794e-01 -3.826838e-01 0.000000e+00
    outer loop
        vertex 5.759111e+00 5.611058e+01 -5.500000e+00
        vertex 5.759111e+00 5.611058e+01 -1.400000e+00
        vertex 5.639230e+00 5.640000e+01 -5.500000e+00
    endloop
endfacet
facet normal -7.933532e-01 -6.087616e-01 0.000000e+00
    outer loop
        vertex 5.639230e+00 5.640000e+01 -1.400000e+00
        vertex 5.448528e+00 5.664853e+01 -1.400000e+00
        vertex 5.448528e+00 5.664853e+01 -5.500000e+00
    endloop
endfacet
facet normal -7.933532e-01 -6.087616e-01 0.000000e+00
    outer loop
        vertex 5.639230e+00 5.640000e+01 -5.500000e+00
        vertex 5.639230e+00 5.640000e+01 -1.400000e+00
        vertex 5.448528e+00 5.664853e+01 -5.500000e+00
    endloop
endfacet
facet normal -6.087573e-01 -7.933565e-01 0.000000e+00
    outer loop
        vertex 5.448528e+00 5.664853e+01 -1.400000e+00
        vertex 5.200000e+00 5.683923e+01 -1.400000e+00
        vertex 5.200000e+00 5.683923e+01 -5.500000e+00
    endloop
endfacet
facet normal -6.087573e-01 -7.933565e-01 0.000000e+00
    outer loop
        vertex 5.448528e+00 5.664853e+01 -5.500000e+00
        vertex 5.448528e+00 5.664853e+01 -1.400000e+00
        vertex 5.200000e+00 5.683923e+01 -5.500000e+00
    endloop
endfacet
facet normal -3.826843e-01 -9.238791e-01 0.000000e+00
    outer loop
        vertex 5.200000e+00 5.683923e+01 -1.400000e+00
        vertex 4.910583e+00 5.695911e+01 -1.400000e+00
        vertex 4.910583e+00 5.695911e+01 -5.500000e+00
    endloop
endfacet
facet normal -3.826843e-01 -9.238791e-01 0.000000e+00
    outer loop
        vertex 5.200000e+00 5.683923e+01 -5.500000e+00
        vertex 5.200000e+00 5.683923e+01 -1.400000e+00
        vertex 4.910583e+00 5.695911e+01 -5.500000e+00
    endloop
endfacet
facet normal -1.305284e-01 -9.914446e-01 0.000000e+00
    outer loop
        vertex 4.910583e+00 5.695911e+01 -1.400000e+00
        vertex 4.600000e+00 5.700000e+01 -1.400000e+00
        vertex 4.600000e+00 5.700000e+01 -5.500000e+00
    endloop
endfacet
facet normal -1.305284e-01 -9.914446e-01 0.000000e+00
    outer loop
        vertex 4.910583e+00 5.695911e+01 -5.500000e+00
        vertex 4.910583e+00 5.695911e+01 -1.400000e+00
        vertex 4.600000e+00 5.700000e+01 -5.500000e+00
    endloop
endfacet
facet normal 1.305286e-01 -9.914445e-01 0.000000e+00
    outer loop
        vertex 4.289417e+00 5.695911e+01 -1.400000e+00
        vertex 4.600000e+00 5.700000e+01 -5.500000e+00
        vertex 4.600000e+00 5.700000e+01 -1.400000e+00
    endloop
endfacet
facet normal 1.305286e-01 -9.914445e-01 0.000000e+00
    outer loop
        vertex 4.289417e+00 5.695911e+01 -5.500000e+00
        vertex 4.600000e+00 5.700000e+01 -5.500000e+00
        vertex 4.289417e+00 5.695911e+01 -1.400000e+00
    endloop
endfacet
facet normal 3.826838e-01 -9.238794e-01 0.000000e+00
    outer loop
        vertex 4.000000e+00 5.683923e+01 -1.400000e+00
        vertex 4.289417e+00 5.695911e+01 -5.500000e+00
        vertex 4.289417e+00 5.695911e+01 -1.400000e+00
    endloop
endfacet
facet normal 3.826838e-01 -9.238794e-01 0.000000e+00
    outer loop
        vertex 4.000000e+00 5.683923e+01 -5.500000e+00
        vertex 4.289417e+00 5.695911e+01 -5.500000e+00
        vertex 4.000000e+00 5.683923e+01 -1.400000e+00
    endloop
endfacet
facet normal 6.087580e-01 -7.933560e-01 0.000000e+00
    outer loop
        vertex 3.751472e+00 5.664853e+01 -1.400000e+00
        vertex 4.000000e+00 5.683923e+01 -5.500000e+00
        vertex 4.000000e+00 5.683923e+01 -1.400000e+00
    endloop
endfacet
facet normal 6.087580e-01 -7.933560e-01 0.000000e+00
    outer loop
        vertex 3.751472e+00 5.664853e+01 -5.500000e+00
        vertex 4.000000e+00 5.683923e+01 -5.500000e+00
        vertex 3.751472e+00 5.664853e+01 -1.400000e+00
    endloop
endfacet
facet normal 7.933525e-01 -6.087626e-01 0.000000e+00
    outer loop
        vertex 3.560770e+00 5.640000e+01 -1.400000e+00
        vertex 3.751472e+00 5.664853e+01 -5.500000e+00
        vertex 3.751472e+00 5.664853e+01 -1.400000e+00
    endloop
endfacet
facet normal 7.933525e-01 -6.087626e-01 0.000000e+00
    outer loop
        vertex 3.560770e+00 5.640000e+01 -5.500000e+00
        vertex 3.751472e+00 5.664853e+01 -5.500000e+00
        vertex 3.560770e+00 5.640000e+01 -1.400000e+00
    endloop
endfacet
facet normal 9.238797e-01 -3.826831e-01 0.000000e+00
    outer loop
        vertex 3.440889e+00 5.611058e+01 -1.400000e+00
        vertex 3.560770e+00 5.640000e+01 -5.500000e+00
        vertex 3.560770e+00 5.640000e+01 -1.400000e+00
    endloop
endfacet
facet normal 9.238797e-01 -3.826831e-01 0.000000e+00
    outer loop
        vertex 3.440889e+00 5.611058e+01 -5.500000e+00
        vertex 3.560770e+00 5.640000e+01 -5.500000e+00
        vertex 3.440889e+00 5.611058e+01 -1.400000e+00
    endloop
endfacet
facet normal 9.914449e-01 -1.305254e-01 0.000000e+00
    outer loop
        vertex 3.400000e+00 5.580000e+01 -1.400000e+00
        vertex 3.440889e+00 5.611058e+01 -5.500000e+00
        vertex 3.440889e+00 5.611058e+01 -1.400000e+00
    endloop
endfacet
facet normal 9.914449e-01 -1.305254e-01 0.000000e+00
    outer loop
        vertex 3.400000e+00 5.580000e+01 -5.500000e+00
        vertex 3.440889e+00 5.611058e+01 -5.500000e+00
        vertex 3.400000e+00 5.580000e+01 -1.400000e+00
    endloop
endfacet
facet normal 9.914448e-01 1.305269e-01 0.000000e+00
    outer loop
        vertex 3.440889e+00 5.548942e+01 -1.400000e+00
        vertex 3.400000e+00 5.580000e+01 -5.500000e+00
        vertex 3.400000e+00 5.580000e+01 -1.400000e+00
    endloop
endfacet
facet normal 9.914448e-01 1.305269e-01 -0.000000e+00
    outer loop
        vertex 3.440889e+00 5.548942e+01 -5.500000e+00
        vertex 3.400000e+00 5.580000e+01 -5.500000e+00
        vertex 3.440889e+00 5.548942e+01 -1.400000e+00
    endloop
endfacet
facet normal 9.238797e-01 3.826831e-01 0.000000e+00
    outer loop
        vertex 3.560770e+00 5.520000e+01 -1.400000e+00
        vertex 3.440889e+00 5.548942e+01 -5.500000e+00
        vertex 3.440889e+00 5.548942e+01 -1.400000e+00
    endloop
endfacet
facet normal 9.238797e-01 3.826831e-01 -0.000000e+00
    outer loop
        vertex 3.560770e+00 5.520000e+01 -5.500000e+00
        vertex 3.440889e+00 5.548942e+01 -5.500000e+00
        vertex 3.560770e+00 5.520000e+01 -1.400000e+00
    endloop
endfacet
facet normal 7.933525e-01 6.087626e-01 0.000000e+00
    outer loop
        vertex 3.751472e+00 5.495147e+01 -1.400000e+00
        vertex 3.560770e+00 5.520000e+01 -5.500000e+00
        vertex 3.560770e+00 5.520000e+01 -1.400000e+00
    endloop
endfacet
facet normal 7.933525e-01 6.087626e-01 -0.000000e+00
    outer loop
        vertex 3.751472e+00 5.495147e+01 -5.500000e+00
        vertex 3.560770e+00 5.520000e+01 -5.500000e+00
        vertex 3.751472e+00 5.495147e+01 -1.400000e+00
    endloop
endfacet
facet normal 6.087657e-01 7.933501e-01 0.000000e+00
    outer loop
        vertex 4.000000e+00 5.476077e+01 -1.400000e+00
        vertex 3.751472e+00 5.495147e+01 -5.500000e+00
        vertex 3.751472e+00 5.495147e+01 -1.400000e+00
    endloop
endfacet
facet normal 6.087657e-01 7.933501e-01 -0.000000e+00
    outer loop
        vertex 4.000000e+00 5.476077e+01 -5.500000e+00
        vertex 3.751472e+00 5.495147e+01 -5.500000e+00
        vertex 4.000000e+00 5.476077e+01 -1.400000e+00
    endloop
endfacet
facet normal 3.826838e-01 9.238794e-01 0.000000e+00
    outer loop
        vertex 4.289417e+00 5.464089e+01 -1.400000e+00
        vertex 4.000000e+00 5.476077e+01 -5.500000e+00
        vertex 4.000000e+00 5.476077e+01 -1.400000e+00
    endloop
endfacet
facet normal 3.826838e-01 9.238794e-01 -0.000000e+00
    outer loop
        vertex 4.289417e+00 5.464089e+01 -5.500000e+00
        vertex 4.000000e+00 5.476077e+01 -5.500000e+00
        vertex 4.289417e+00 5.464089e+01 -1.400000e+00
    endloop
endfacet
facet normal 1.305286e-01 9.914445e-01 0.000000e+00
    outer loop
        vertex 4.600000e+00 5.460000e+01 -1.400000e+00
        vertex 4.289417e+00 5.464089e+01 -5.500000e+00
        vertex 4.289417e+00 5.464089e+01 -1.400000e+00
    endloop
endfacet
facet normal 1.305286e-01 9.914445e-01 -0.000000e+00
    outer loop
        vertex 4.600000e+00 5.460000e+01 -5.500000e+00
        vertex 4.289417e+00 5.464089e+01 -5.500000e+00
        vertex 4.600000e+00 5.460000e+01 -1.400000e+00
    endloop
endfacet
facet normal -1.305284e-01 9.914446e-01 0.000000e+00
    outer loop
        vertex 4.600000e+00 5.460000e+01 -1.400000e+00
        vertex 4.910583e+00 5.464089e+01 -1.400000e+00
        vertex 4.910583e+00 5.464089e+01 -5.500000e+00
    endloop
endfacet
facet normal -1.305284e-01 9.914446e-01 0.000000e+00
    outer loop
        vertex 4.600000e+00 5.460000e+01 -5.500000e+00
        vertex 4.600000e+00 5.460000e+01 -1.400000e+00
        vertex 4.910583e+00 5.464089e+01 -5.500000e+00
    endloop
endfacet
facet normal -3.826843e-01 9.238791e-01 0.000000e+00
    outer loop
        vertex 4.910583e+00 5.464089e+01 -1.400000e+00
        vertex 5.200000e+00 5.476077e+01 -1.400000e+00
        vertex 5.200000e+00 5.476077e+01 -5.500000e+00
    endloop
endfacet
facet normal -3.826843e-01 9.238791e-01 0.000000e+00
    outer loop
        vertex 4.910583e+00 5.464089e+01 -5.500000e+00
        vertex 4.910583e+00 5.464089e+01 -1.400000e+00
        vertex 5.200000e+00 5.476077e+01 -5.500000e+00
    endloop
endfacet
facet normal -6.087649e-01 7.933506e-01 0.000000e+00
    outer loop
        vertex 5.200000e+00 5.476077e+01 -1.400000e+00
        vertex 5.448528e+00 5.495147e+01 -1.400000e+00
        vertex 5.448528e+00 5.495147e+01 -5.500000e+00
    endloop
endfacet
facet normal -6.087649e-01 7.933506e-01 0.000000e+00
    outer loop
        vertex 5.200000e+00 5.476077e+01 -5.500000e+00
        vertex 5.200000e+00 5.476077e+01 -1.400000e+00
        vertex 5.448528e+00 5.495147e+01 -5.500000e+00
    endloop
endfacet
facet normal -7.933532e-01 6.087616e-01 0.000000e+00
    outer loop
        vertex 5.448528e+00 5.495147e+01 -1.400000e+00
        vertex 5.639230e+00 5.520000e+01 -1.400000e+00
        vertex 5.639230e+00 5.520000e+01 -5.500000e+00
    endloop
endfacet
facet normal -7.933532e-01 6.087616e-01 0.000000e+00
    outer loop
        vertex 5.448528e+00 5.495147e+01 -5.500000e+00
        vertex 5.448528e+00 5.495147e+01 -1.400000e+00
        vertex 5.639230e+00 5.520000e+01 -5.500000e+00
    endloop
endfacet
facet normal -9.238794e-01 3.826838e-01 0.000000e+00
    outer loop
        vertex 5.639230e+00 5.520000e+01 -1.400000e+00
        vertex 5.759111e+00 5.548942e+01 -1.400000e+00
        vertex 5.759111e+00 5.548942e+01 -5.500000e+00
    endloop
endfacet
facet normal -9.238794e-01 3.826838e-01 0.000000e+00
    outer loop
        vertex 5.639230e+00 5.520000e+01 -5.500000e+00
        vertex 5.639230e+00 5.520000e+01 -1.400000e+00
        vertex 5.759111e+00 5.548942e+01 -5.500000e+00
    endloop
endfacet
facet normal -9.914446e-01 1.305277e-01 0.000000e+00
    outer loop
        vertex 5.759111e+00 5.548942e+01 -1.400000e+00
        vertex 5.800000e+00 5.580000e+01 -1.400000e+00
        vertex 5.800000e+00 5.580000e+01 -5.500000e+00
    endloop
endfacet
facet normal -9.914446e-01 1.305277e-01 0.000000e+00
    outer loop
        vertex 5.759111e+00 5.548942e+01 -5.500000e+00
        vertex 5.759111e+00 5.548942e+01 -1.400000e+00
        vertex 5.800000e+00 5.580000e+01 -5.500000e+00
    endloop
endfacet
endsolid disconnector-latch.stl
