solid disconnector-pin.stl
facet normal -1.000000e+00 0.000000e+00 0.000000e+00
    outer loop
        vertex -8.000000e+00 4.336474e+01 -1.099176e+01
        vertex -8.000000e+00 4.385650e+01 -1.184350e+01
        vertex -8.000000e+00 4.355455e+01 -1.145000e+01
    endloop
endfacet
facet normal -1.000000e+00 0.000000e+00 0.000000e+00
    outer loop
        vertex -8.000000e+00 4.336474e+01 -1.099176e+01
        vertex -8.000000e+00 4.425000e+01 -1.214545e+01
        vertex -8.000000e+00 4.385650e+01 -1.184350e+01
    endloop
endfacet
facet normal -1.000000e+00 0.000000e+00 0.000000e+00
    outer loop
        vertex -8.000000e+00 4.336474e+01 -1.099176e+01
        vertex -8.000000e+00 4.470824e+01 -1.233526e+01
        vertex -8.000000e+00 4.425000e+01 -1.214545e+01
    endloop
endfacet
facet normal -1.000000e+00 0.000000e+00 0.000000e+00
    outer loop
        vertex -8.000000e+00 4.336474e+01 -1.099176e+01
        vertex -8.000000e+00 4.520000e+01 -1.240000e+01
        vertex -8.000000e+00 4.470824e+01 -1.233526e+01
    endloop
endfacet
facet normal -1.000000e+00 0.000000e+00 0.000000e+00
    outer loop
        vertex -8.000000e+00 4.336474e+01 -1.099176e+01
        vertex -8.000000e+00 4.569176e+01 -1.233526e+01
        vertex -8.000000e+00 4.520000e+01 -1.240000e+01
    endloop
endfacet
facet normal -1.000000e+00 0.000000e+00 0.000000e+00
    outer loop
        vertex -8.000000e+00 4.336474e+01 -1.099176e+01
        vertex -8.000000e+00 4.615000e+01 -1.214545e+01
        vertex -8.000000e+00 4.569176e+01 -1.233526e+01
    endloop
endfacet
facet normal -1.000000e+00 0.000000e+00 0.000000e+00
    outer loop
        vertex -8.000000e+00 4.336474e+01 -1.099176e+01
        vertex -8.000000e+00 4.654350e+01 -1.184350e+01
        vertex -8.000000e+00 4.615000e+01 -1.214545e+01
    endloop
endfacet
facet normal -1.000000e+00 0.000000e+00 0.000000e+00
    outer loop
        vertex -8.000000e+00 4.336474e+01 -1.099176e+01
        vertex -8.000000e+00 4.684545e+01 -1.145000e+01
        vertex -8.000000e+00 4.654350e+01 -1.184350e+01
    endloop
endfacet
facet normal -1.000000e+00 0.000000e+00 0.000000e+00
    outer loop
        vertex -8.000000e+00 4.330000e+01 -1.050000e+01
        vertex -8.000000e+00 4.684545e+01 -1.145000e+01
        vertex -8.000000e+00 4.336474e+01 -1.099176e+01
    endloop
endfacet
facet normal -1.000000e+00 0.000000e+00 0.000000e+00
    outer loop
        vertex -8.000000e+00 4.330000e+01 -1.050000e+01
        vertex -8.000000e+00 4.336474e+01 -1.000824e+01
        vertex -8.000000e+00 4.684545e+01 -1.145000e+01
    endloop
endfacet
facet normal -1.000000e+00 0.000000e+00 0.000000e+00
    outer loop
        vertex -8.000000e+00 4.336474e+01 -1.000824e+01
        vertex -8.000000e+00 4.703526e+01 -1.099176e+01
        vertex -8.000000e+00 4.684545e+01 -1.145000e+01
    endloop
endfacet
facet normal -1.000000e+00 0.000000e+00 0.000000e+00
    outer loop
        vertex -8.000000e+00 4.336474e+01 -1.000824e+01
        vertex -8.000000e+00 4.710000e+01 -1.050000e+01
        vertex -8.000000e+00 4.703526e+01 -1.099176e+01
    endloop
endfacet
facet normal -1.000000e+00 0.000000e+00 0.000000e+00
    outer loop
        vertex -8.000000e+00 4.336474e+01 -1.000824e+01
        vertex -8.000000e+00 4.703526e+01 -1.000824e+01
        vertex -8.000000e+00 4.710000e+01 -1.050000e+01
    endloop
endfacet
facet normal -1.000000e+00 0.000000e+00 0.000000e+00
    outer loop
        vertex -8.000000e+00 4.336474e+01 -1.000824e+01
        vertex -8.000000e+00 4.684545e+01 -9.550000e+00
        vertex -8.000000e+00 4.703526e+01 -1.000824e+01
    endloop
endfacet
facet normal -1.000000e+00 0.000000e+00 0.000000e+00
    outer loop
        vertex -8.000000e+00 4.336474e+01 -1.000824e+01
        vertex -8.000000e+00 4.654350e+01 -9.156497e+00
        vertex -8.000000e+00 4.684545e+01 -9.550000e+00
    endloop
endfacet
facet normal -1.000000e+00 0.000000e+00 0.000000e+00
    outer loop
        vertex -8.000000e+00 4.336474e+01 -1.000824e+01
        vertex -8.000000e+00 4.355455e+01 -9.550000e+00
        vertex -8.000000e+00 4.654350e+01 -9.156497e+00
    endloop
endfacet
facet normal -1.000000e+00 0.000000e+00 0.000000e+00
    outer loop
        vertex -8.000000e+00 4.355455e+01 -9.550000e+00
        vertex -8.000000e+00 4.385650e+01 -9.156497e+00
        vertex -8.000000e+00 4.654350e+01 -9.156497e+00
    endloop
endfacet
facet normal -1.000000e+00 0.000000e+00 0.000000e+00
    outer loop
        vertex -8.000000e+00 4.385650e+01 -9.156497e+00
        vertex -8.000000e+00 4.425000e+01 -8.854551e+00
        vertex -8.000000e+00 4.654350e+01 -9.156497e+00
    endloop
endfacet
facet normal -1.000000e+00 0.000000e+00 0.000000e+00
    outer loop
        vertex -8.000000e+00 4.425000e+01 -8.854551e+00
        vertex -8.000000e+00 4.615000e+01 -8.854551e+00
        vertex -8.000000e+00 4.654350e+01 -9.156497e+00
    endloop
endfacet
facet normal -1.000000e+00 0.000000e+00 0.000000e+00
    outer loop
        vertex -8.000000e+00 4.425000e+01 -8.854551e+00
        vertex -8.000000e+00 4.470824e+01 -8.664741e+00
        vertex -8.000000e+00 4.615000e+01 -8.854551e+00
    endloop
endfacet
facet normal -1.000000e+00 0.000000e+00 0.000000e+00
    outer loop
        vertex -8.000000e+00 4.470824e+01 -8.664741e+00
        vertex -8.000000e+00 4.520000e+01 -8.600000e+00
        vertex -8.000000e+00 4.615000e+01 -8.854551e+00
    endloop
endfacet
facet normal -1.000000e+00 0.000000e+00 0.000000e+00
    outer loop
        vertex -8.000000e+00 4.520000e+01 -8.600000e+00
        vertex -8.000000e+00 4.569176e+01 -8.664741e+00
        vertex -8.000000e+00 4.615000e+01 -8.854551e+00
    endloop
endfacet
facet normal 0.000000e+00 9.914453e-01 1.305228e-01
    outer loop
        vertex 8.000000e+00 4.703526e+01 -1.000824e+01
        vertex 8.000000e+00 4.710000e+01 -1.050000e+01
        vertex -8.000000e+00 4.710000e+01 -1.050000e+01
    endloop
endfacet
facet normal -0.000000e+00 9.914453e-01 1.305228e-01
    outer loop
        vertex -8.000000e+00 4.703526e+01 -1.000824e+01
        vertex 8.000000e+00 4.703526e+01 -1.000824e+01
        vertex -8.000000e+00 4.710000e+01 -1.050000e+01
    endloop
endfacet
facet normal 0.000000e+00 9.238787e-01 3.826853e-01
    outer loop
        vertex 8.000000e+00 4.684545e+01 -9.550000e+00
        vertex 8.000000e+00 4.703526e+01 -1.000824e+01
        vertex -8.000000e+00 4.703526e+01 -1.000824e+01
    endloop
endfacet
facet normal -0.000000e+00 9.238787e-01 3.826853e-01
    outer loop
        vertex -8.000000e+00 4.684545e+01 -9.550000e+00
        vertex 8.000000e+00 4.684545e+01 -9.550000e+00
        vertex -8.000000e+00 4.703526e+01 -1.000824e+01
    endloop
endfacet
facet normal 0.000000e+00 7.933542e-01 6.087603e-01
    outer loop
        vertex 8.000000e+00 4.654350e+01 -9.156497e+00
        vertex 8.000000e+00 4.684545e+01 -9.550000e+00
        vertex -8.000000e+00 4.684545e+01 -9.550000e+00
    endloop
endfacet
facet normal -0.000000e+00 7.933542e-01 6.087603e-01
    outer loop
        vertex -8.000000e+00 4.654350e+01 -9.156497e+00
        vertex 8.000000e+00 4.654350e+01 -9.156497e+00
        vertex -8.000000e+00 4.684545e+01 -9.550000e+00
    endloop
endfacet
facet normal 0.000000e+00 6.087634e-01 7.933518e-01
    outer loop
        vertex 8.000000e+00 4.615000e+01 -8.854551e+00
        vertex 8.000000e+00 4.654350e+01 -9.156497e+00
        vertex -8.000000e+00 4.654350e+01 -9.156497e+00
    endloop
endfacet
facet normal -0.000000e+00 6.087634e-01 7.933518e-01
    outer loop
        vertex -8.000000e+00 4.615000e+01 -8.854551e+00
        vertex 8.000000e+00 4.615000e+01 -8.854551e+00
        vertex -8.000000e+00 4.654350e+01 -9.156497e+00
    endloop
endfacet
facet normal 0.000000e+00 3.826830e-01 9.238797e-01
    outer loop
        vertex 8.000000e+00 4.569176e+01 -8.664741e+00
        vertex 8.000000e+00 4.615000e+01 -8.854551e+00
        vertex -8.000000e+00 4.615000e+01 -8.854551e+00
    endloop
endfacet
facet normal -0.000000e+00 3.826830e-01 9.238797e-01
    outer loop
        vertex -8.000000e+00 4.569176e+01 -8.664741e+00
        vertex 8.000000e+00 4.569176e+01 -8.664741e+00
        vertex -8.000000e+00 4.615000e+01 -8.854551e+00
    endloop
endfacet
facet normal 0.000000e+00 1.305246e-01 9.914451e-01
    outer loop
        vertex 8.000000e+00 4.520000e+01 -8.600000e+00
        vertex 8.000000e+00 4.569176e+01 -8.664741e+00
        vertex -8.000000e+00 4.569176e+01 -8.664741e+00
    endloop
endfacet
facet normal -0.000000e+00 1.305246e-01 9.914451e-01
    outer loop
        vertex -8.000000e+00 4.520000e+01 -8.600000e+00
        vertex 8.000000e+00 4.520000e+01 -8.600000e+00
        vertex -8.000000e+00 4.569176e+01 -8.664741e+00
    endloop
endfacet
facet normal 0.000000e+00 -1.305246e-01 9.914451e-01
    outer loop
        vertex -8.000000e+00 4.470824e+01 -8.664741e+00
        vertex 8.000000e+00 4.470824e+01 -8.664741e+00
        vertex 8.000000e+00 4.520000e+01 -8.600000e+00
    endloop
endfacet
facet normal 0.000000e+00 -1.305246e-01 9.914451e-01
    outer loop
        vertex -8.000000e+00 4.470824e+01 -8.664741e+00
        vertex 8.000000e+00 4.520000e+01 -8.600000e+00
        vertex -8.000000e+00 4.520000e+01 -8.600000e+00
    endloop
endfacet
facet normal 0.000000e+00 -3.826830e-01 9.238797e-01
    outer loop
        vertex -8.000000e+00 4.425000e+01 -8.854551e+00
        vertex 8.000000e+00 4.425000e+01 -8.854551e+00
        vertex 8.000000e+00 4.470824e+01 -8.664741e+00
    endloop
endfacet
facet normal 0.000000e+00 -3.826830e-01 9.238797e-01
    outer loop
        vertex -8.000000e+00 4.425000e+01 -8.854551e+00
        vertex 8.000000e+00 4.470824e+01 -8.664741e+00
        vertex -8.000000e+00 4.470824e+01 -8.664741e+00
    endloop
endfacet
facet normal 0.000000e+00 -6.087634e-01 7.933518e-01
    outer loop
        vertex -8.000000e+00 4.385650e+01 -9.156497e+00
        vertex 8.000000e+00 4.385650e+01 -9.156497e+00
        vertex 8.000000e+00 4.425000e+01 -8.854551e+00
    endloop
endfacet
facet normal 0.000000e+00 -6.087634e-01 7.933518e-01
    outer loop
        vertex -8.000000e+00 4.385650e+01 -9.156497e+00
        vertex 8.000000e+00 4.425000e+01 -8.854551e+00
        vertex -8.000000e+00 4.425000e+01 -8.854551e+00
    endloop
endfacet
facet normal 0.000000e+00 -7.933505e-01 6.087651e-01
    outer loop
        vertex -8.000000e+00 4.355455e+01 -9.550000e+00
        vertex 8.000000e+00 4.355455e+01 -9.550000e+00
        vertex 8.000000e+00 4.385650e+01 -9.156497e+00
    endloop
endfacet
facet normal 0.000000e+00 -7.933505e-01 6.087651e-01
    outer loop
        vertex -8.000000e+00 4.355455e+01 -9.550000e+00
        vertex 8.000000e+00 4.385650e+01 -9.156497e+00
        vertex -8.000000e+00 4.385650e+01 -9.156497e+00
    endloop
endfacet
facet normal 0.000000e+00 -9.238815e-01 3.826787e-01
    outer loop
        vertex -8.000000e+00 4.336474e+01 -1.000824e+01
        vertex 8.000000e+00 4.336474e+01 -1.000824e+01
        vertex 8.000000e+00 4.355455e+01 -9.550000e+00
    endloop
endfacet
facet normal 0.000000e+00 -9.238815e-01 3.826787e-01
    outer loop
        vertex -8.000000e+00 4.336474e+01 -1.000824e+01
        vertex 8.000000e+00 4.355455e+01 -9.550000e+00
        vertex -8.000000e+00 4.355455e+01 -9.550000e+00
    endloop
endfacet
facet normal 0.000000e+00 -9.914443e-01 1.305303e-01
    outer loop
        vertex -8.000000e+00 4.330000e+01 -1.050000e+01
        vertex 8.000000e+00 4.330000e+01 -1.050000e+01
        vertex 8.000000e+00 4.336474e+01 -1.000824e+01
    endloop
endfacet
facet normal 0.000000e+00 -9.914443e-01 1.305303e-01
    outer loop
        vertex -8.000000e+00 4.330000e+01 -1.050000e+01
        vertex 8.000000e+00 4.336474e+01 -1.000824e+01
        vertex -8.000000e+00 4.336474e+01 -1.000824e+01
    endloop
endfacet
facet normal 0.000000e+00 -9.914443e-01 -1.305303e-01
    outer loop
        vertex 8.000000e+00 4.330000e+01 -1.050000e+01
        vertex -8.000000e+00 4.336474e+01 -1.099176e+01
        vertex 8.000000e+00 4.336474e+01 -1.099176e+01
    endloop
endfacet
facet normal -0.000000e+00 -9.914443e-01 -1.305303e-01
    outer loop
        vertex 8.000000e+00 4.330000e+01 -1.050000e+01
        vertex -8.000000e+00 4.330000e+01 -1.050000e+01
        vertex -8.000000e+00 4.336474e+01 -1.099176e+01
    endloop
endfacet
facet normal 0.000000e+00 -9.238815e-01 -3.826787e-01
    outer loop
        vertex 8.000000e+00 4.336474e+01 -1.099176e+01
        vertex -8.000000e+00 4.355455e+01 -1.145000e+01
        vertex 8.000000e+00 4.355455e+01 -1.145000e+01
    endloop
endfacet
facet normal -0.000000e+00 -9.238815e-01 -3.826787e-01
    outer loop
        vertex 8.000000e+00 4.336474e+01 -1.099176e+01
        vertex -8.000000e+00 4.336474e+01 -1.099176e+01
        vertex -8.000000e+00 4.355455e+01 -1.145000e+01
    endloop
endfacet
facet normal 0.000000e+00 -7.933505e-01 -6.087651e-01
    outer loop
        vertex 8.000000e+00 4.355455e+01 -1.145000e+01
        vertex -8.000000e+00 4.385650e+01 -1.184350e+01
        vertex 8.000000e+00 4.385650e+01 -1.184350e+01
    endloop
endfacet
facet normal -0.000000e+00 -7.933505e-01 -6.087651e-01
    outer loop
        vertex 8.000000e+00 4.355455e+01 -1.145000e+01
        vertex -8.000000e+00 4.355455e+01 -1.145000e+01
        vertex -8.000000e+00 4.385650e+01 -1.184350e+01
    endloop
endfacet
facet normal 0.000000e+00 -6.087634e-01 -7.933518e-01
    outer loop
        vertex 8.000000e+00 4.385650e+01 -1.184350e+01
        vertex -8.000000e+00 4.425000e+01 -1.214545e+01
        vertex 8.000000e+00 4.425000e+01 -1.214545e+01
    endloop
endfacet
facet normal -0.000000e+00 -6.087634e-01 -7.933518e-01
    outer loop
        vertex 8.000000e+00 4.385650e+01 -1.184350e+01
        vertex -8.000000e+00 4.385650e+01 -1.184350e+01
        vertex -8.000000e+00 4.425000e+01 -1.214545e+01
    endloop
endfacet
facet normal 0.000000e+00 -3.826830e-01 -9.238797e-01
    outer loop
        vertex 8.000000e+00 4.425000e+01 -1.214545e+01
        vertex -8.000000e+00 4.470824e+01 -1.233526e+01
        vertex 8.000000e+00 4.470824e+01 -1.233526e+01
    endloop
endfacet
facet normal -0.000000e+00 -3.826830e-01 -9.238797e-01
    outer loop
        vertex 8.000000e+00 4.425000e+01 -1.214545e+01
        vertex -8.000000e+00 4.425000e+01 -1.214545e+01
        vertex -8.000000e+00 4.470824e+01 -1.233526e+01
    endloop
endfacet
facet normal 0.000000e+00 -1.305246e-01 -9.914451e-01
    outer loop
        vertex 8.000000e+00 4.470824e+01 -1.233526e+01
        vertex -8.000000e+00 4.520000e+01 -1.240000e+01
        vertex 8.000000e+00 4.520000e+01 -1.240000e+01
    endloop
endfacet
facet normal -0.000000e+00 -1.305246e-01 -9.914451e-01
    outer loop
        vertex 8.000000e+00 4.470824e+01 -1.233526e+01
        vertex -8.000000e+00 4.470824e+01 -1.233526e+01
        vertex -8.000000e+00 4.520000e+01 -1.240000e+01
    endloop
endfacet
facet normal 0.000000e+00 1.305246e-01 -9.914451e-01
    outer loop
        vertex 8.000000e+00 4.520000e+01 -1.240000e+01
        vertex -8.000000e+00 4.520000e+01 -1.240000e+01
        vertex 8.000000e+00 4.569176e+01 -1.233526e+01
    endloop
endfacet
facet normal 0.000000e+00 1.305246e-01 -9.914451e-01
    outer loop
        vertex -8.000000e+00 4.520000e+01 -1.240000e+01
        vertex -8.000000e+00 4.569176e+01 -1.233526e+01
        vertex 8.000000e+00 4.569176e+01 -1.233526e+01
    endloop
endfacet
facet normal 0.000000e+00 3.826830e-01 -9.238797e-01
    outer loop
        vertex 8.000000e+00 4.569176e+01 -1.233526e+01
        vertex -8.000000e+00 4.569176e+01 -1.233526e+01
        vertex 8.000000e+00 4.615000e+01 -1.214545e+01
    endloop
endfacet
facet normal 0.000000e+00 3.826830e-01 -9.238797e-01
    outer loop
        vertex -8.000000e+00 4.569176e+01 -1.233526e+01
        vertex -8.000000e+00 4.615000e+01 -1.214545e+01
        vertex 8.000000e+00 4.615000e+01 -1.214545e+01
    endloop
endfacet
facet normal 0.000000e+00 6.087634e-01 -7.933518e-01
    outer loop
        vertex 8.000000e+00 4.615000e+01 -1.214545e+01
        vertex -8.000000e+00 4.615000e+01 -1.214545e+01
        vertex 8.000000e+00 4.654350e+01 -1.184350e+01
    endloop
endfacet
facet normal 0.000000e+00 6.087634e-01 -7.933518e-01
    outer loop
        vertex -8.000000e+00 4.615000e+01 -1.214545e+01
        vertex -8.000000e+00 4.654350e+01 -1.184350e+01
        vertex 8.000000e+00 4.654350e+01 -1.184350e+01
    endloop
endfacet
facet normal 0.000000e+00 7.933542e-01 -6.087603e-01
    outer loop
        vertex 8.000000e+00 4.654350e+01 -1.184350e+01
        vertex -8.000000e+00 4.654350e+01 -1.184350e+01
        vertex 8.000000e+00 4.684545e+01 -1.145000e+01
    endloop
endfacet
facet normal 0.000000e+00 7.933542e-01 -6.087603e-01
    outer loop
        vertex -8.000000e+00 4.654350e+01 -1.184350e+01
        vertex -8.000000e+00 4.684545e+01 -1.145000e+01
        vertex 8.000000e+00 4.684545e+01 -1.145000e+01
    endloop
endfacet
facet normal 0.000000e+00 9.238787e-01 -3.826853e-01
    outer loop
        vertex 8.000000e+00 4.684545e+01 -1.145000e+01
        vertex -8.000000e+00 4.684545e+01 -1.145000e+01
        vertex 8.000000e+00 4.703526e+01 -1.099176e+01
    endloop
endfacet
facet normal 0.000000e+00 9.238787e-01 -3.826853e-01
    outer loop
        vertex -8.000000e+00 4.684545e+01 -1.145000e+01
        vertex -8.000000e+00 4.703526e+01 -1.099176e+01
        vertex 8.000000e+00 4.703526e+01 -1.099176e+01
    endloop
endfacet
facet normal 0.000000e+00 9.914453e-01 -1.305228e-01
    outer loop
        vertex 8.000000e+00 4.703526e+01 -1.099176e+01
        vertex -8.000000e+00 4.703526e+01 -1.099176e+01
        vertex 8.000000e+00 4.710000e+01 -1.050000e+01
    endloop
endfacet
facet normal 0.000000e+00 9.914453e-01 -1.305228e-01
    outer loop
        vertex -8.000000e+00 4.703526e+01 -1.099176e+01
        vertex -8.000000e+00 4.710000e+01 -1.050000e+01
        vertex 8.000000e+00 4.710000e+01 -1.050000e+01
    endloop
endfacet
facet normal 1.000000e+00 0.000000e+00 0.000000e+00
    outer loop
        vertex 8.000000e+00 4.336474e+01 -1.000824e+01
        vertex 8.000000e+00 4.385650e+01 -9.156497e+00
        vertex 8.000000e+00 4.355455e+01 -9.550000e+00
    endloop
endfacet
facet normal 1.000000e+00 0.000000e+00 0.000000e+00
    outer loop
        vertex 8.000000e+00 4.336474e+01 -1.000824e+01
        vertex 8.000000e+00 4.425000e+01 -8.854551e+00
        vertex 8.000000e+00 4.385650e+01 -9.156497e+00
    endloop
endfacet
facet normal 1.000000e+00 0.000000e+00 0.000000e+00
    outer loop
        vertex 8.000000e+00 4.336474e+01 -1.000824e+01
        vertex 8.000000e+00 4.470824e+01 -8.664741e+00
        vertex 8.000000e+00 4.425000e+01 -8.854551e+00
    endloop
endfacet
facet normal 1.000000e+00 0.000000e+00 0.000000e+00
    outer loop
        vertex 8.000000e+00 4.336474e+01 -1.000824e+01
        vertex 8.000000e+00 4.520000e+01 -8.600000e+00
        vertex 8.000000e+00 4.470824e+01 -8.664741e+00
    endloop
endfacet
facet normal 1.000000e+00 0.000000e+00 0.000000e+00
    outer loop
        vertex 8.000000e+00 4.336474e+01 -1.000824e+01
        vertex 8.000000e+00 4.569176e+01 -8.664741e+00
        vertex 8.000000e+00 4.520000e+01 -8.600000e+00
    endloop
endfacet
facet normal 1.000000e+00 0.000000e+00 0.000000e+00
    outer loop
        vertex 8.000000e+00 4.336474e+01 -1.000824e+01
        vertex 8.000000e+00 4.615000e+01 -8.854551e+00
        vertex 8.000000e+00 4.569176e+01 -8.664741e+00
    endloop
endfacet
facet normal 1.000000e+00 0.000000e+00 0.000000e+00
    outer loop
        vertex 8.000000e+00 4.336474e+01 -1.000824e+01
        vertex 8.000000e+00 4.654350e+01 -9.156497e+00
        vertex 8.000000e+00 4.615000e+01 -8.854551e+00
    endloop
endfacet
facet normal 1.000000e+00 0.000000e+00 0.000000e+00
    outer loop
        vertex 8.000000e+00 4.336474e+01 -1.000824e+01
        vertex 8.000000e+00 4.684545e+01 -9.550000e+00
        vertex 8.000000e+00 4.654350e+01 -9.156497e+00
    endloop
endfacet
facet normal 1.000000e+00 0.000000e+00 0.000000e+00
    outer loop
        vertex 8.000000e+00 4.330000e+01 -1.050000e+01
        vertex 8.000000e+00 4.684545e+01 -9.550000e+00
        vertex 8.000000e+00 4.336474e+01 -1.000824e+01
    endloop
endfacet
facet normal 1.000000e+00 -0.000000e+00 0.000000e+00
    outer loop
        vertex 8.000000e+00 4.330000e+01 -1.050000e+01
        vertex 8.000000e+00 4.336474e+01 -1.099176e+01
        vertex 8.000000e+00 4.684545e+01 -9.550000e+00
    endloop
endfacet
facet normal 1.000000e+00 0.000000e+00 0.000000e+00
    outer loop
        vertex 8.000000e+00 4.336474e+01 -1.099176e+01
        vertex 8.000000e+00 4.703526e+01 -1.000824e+01
        vertex 8.000000e+00 4.684545e+01 -9.550000e+00
    endloop
endfacet
facet normal 1.000000e+00 0.000000e+00 0.000000e+00
    outer loop
        vertex 8.000000e+00 4.336474e+01 -1.099176e+01
        vertex 8.000000e+00 4.710000e+01 -1.050000e+01
        vertex 8.000000e+00 4.703526e+01 -1.000824e+01
    endloop
endfacet
facet normal 1.000000e+00 0.000000e+00 0.000000e+00
    outer loop
        vertex 8.000000e+00 4.336474e+01 -1.099176e+01
        vertex 8.000000e+00 4.703526e+01 -1.099176e+01
        vertex 8.000000e+00 4.710000e+01 -1.050000e+01
    endloop
endfacet
facet normal 1.000000e+00 -0.000000e+00 0.000000e+00
    outer loop
        vertex 8.000000e+00 4.336474e+01 -1.099176e+01
        vertex 8.000000e+00 4.684545e+01 -1.145000e+01
        vertex 8.000000e+00 4.703526e+01 -1.099176e+01
    endloop
endfacet
facet normal 1.000000e+00 0.000000e+00 0.000000e+00
    outer loop
        vertex 8.000000e+00 4.336474e+01 -1.099176e+01
        vertex 8.000000e+00 4.654350e+01 -1.184350e+01
        vertex 8.000000e+00 4.684545e+01 -1.145000e+01
    endloop
endfacet
facet normal 1.000000e+00 0.000000e+00 0.000000e+00
    outer loop
        vertex 8.000000e+00 4.336474e+01 -1.099176e+01
        vertex 8.000000e+00 4.355455e+01 -1.145000e+01
        vertex 8.000000e+00 4.654350e+01 -1.184350e+01
    endloop
endfacet
facet normal 1.000000e+00 0.000000e+00 0.000000e+00
    outer loop
        vertex 8.000000e+00 4.355455e+01 -1.145000e+01
        vertex 8.000000e+00 4.385650e+01 -1.184350e+01
        vertex 8.000000e+00 4.654350e+01 -1.184350e+01
    endloop
endfacet
facet normal 1.000000e+00 -0.000000e+00 0.000000e+00
    outer loop
        vertex 8.000000e+00 4.385650e+01 -1.184350e+01
        vertex 8.000000e+00 4.425000e+01 -1.214545e+01
        vertex 8.000000e+00 4.654350e+01 -1.184350e+01
    endloop
endfacet
facet normal 1.000000e+00 0.000000e+00 0.000000e+00
    outer loop
        vertex 8.000000e+00 4.425000e+01 -1.214545e+01
        vertex 8.000000e+00 4.615000e+01 -1.214545e+01
        vertex 8.000000e+00 4.654350e+01 -1.184350e+01
    endloop
endfacet
facet normal 1.000000e+00 -0.000000e+00 0.000000e+00
    outer loop
        vertex 8.000000e+00 4.425000e+01 -1.214545e+01
        vertex 8.000000e+00 4.470824e+01 -1.233526e+01
        vertex 8.000000e+00 4.615000e+01 -1.214545e+01
    endloop
endfacet
facet normal 1.000000e+00 -0.000000e+00 0.000000e+00
    outer loop
        vertex 8.000000e+00 4.470824e+01 -1.233526e+01
        vertex 8.000000e+00 4.520000e+01 -1.240000e+01
        vertex 8.000000e+00 4.615000e+01 -1.214545e+01
    endloop
endfacet
facet normal 1.000000e+00 0.000000e+00 0.000000e+00
    outer loop
        vertex 8.000000e+00 4.520000e+01 -1.240000e+01
        vertex 8.000000e+00 4.569176e+01 -1.233526e+01
        vertex 8.000000e+00 4.615000e+01 -1.214545e+01
    endloop
endfacet
endsolid disconnector-pin.stl
