solid disconnector.stl
facet normal 0.000000e+00 -2.079115e-01 9.781476e-01
    outer loop
        vertex -6.000000e+00 4.359400e+01 -2.668496e+00
        vertex 6.000000e+00 4.359400e+01 -2.668496e+00
        vertex 6.000000e+00 4.584374e+01 -2.190299e+00
    endloop
endfacet
facet normal 0.000000e+00 -2.079115e-01 9.781476e-01
    outer loop
        vertex -6.000000e+00 4.359400e+01 -2.668496e+00
        vertex 6.000000e+00 4.584374e+01 -2.190299e+00
        vertex -6.000000e+00 4.584374e+01 -2.190299e+00
    endloop
endfacet
facet normal -0.000000e+00 6.073574e-01 7.944287e-01
    outer loop
        vertex -6.000000e+00 4.584374e+01 -2.190299e+00
        vertex 6.000000e+00 4.584374e+01 -2.190299e+00
        vertex 6.000000e+00 4.730859e+01 -3.310212e+00
    endloop
endfacet
facet normal 0.000000e+00 6.073574e-01 7.944287e-01
    outer loop
        vertex -6.000000e+00 4.584374e+01 -2.190299e+00
        vertex 6.000000e+00 4.730859e+01 -3.310212e+00
        vertex -6.000000e+00 4.730859e+01 -3.310212e+00
    endloop
endfacet
facet normal 0.000000e+00 2.079111e-01 -9.781477e-01
    outer loop
        vertex 6.000000e+00 4.584137e+01 -3.622079e+00
        vertex -6.000000e+00 4.730859e+01 -3.310212e+00
        vertex 6.000000e+00 4.730859e+01 -3.310212e+00
    endloop
endfacet
facet normal 0.000000e+00 2.079111e-01 -9.781477e-01
    outer loop
        vertex 6.000000e+00 4.584137e+01 -3.622079e+00
        vertex -6.000000e+00 4.584137e+01 -3.622079e+00
        vertex -6.000000e+00 4.730859e+01 -3.310212e+00
    endloop
endfacet
facet normal 0.000000e+00 -9.781476e-01 -2.079116e-01
    outer loop
        vertex 6.000000e+00 4.359400e+01 -2.668496e+00
        vertex -6.000000e+00 4.477401e+01 -8.220037e+00
        vertex 6.000000e+00 4.477401e+01 -8.220037e+00
    endloop
endfacet
facet normal -0.000000e+00 -9.781476e-01 -2.079116e-01
    outer loop
        vertex 6.000000e+00 4.359400e+01 -2.668496e+00
        vertex -6.000000e+00 4.359400e+01 -2.668496e+00
        vertex -6.000000e+00 4.477401e+01 -8.220037e+00
    endloop
endfacet
facet normal 0.000000e+00 -9.814500e-01 -1.917185e-01
    outer loop
        vertex 6.000000e+00 4.580913e+01 -1.314854e+01
        vertex -6.000000e+00 4.914828e+01 -3.024237e+01
        vertex 6.000000e+00 4.914828e+01 -3.024237e+01
    endloop
endfacet
facet normal -1.523642e-08 -9.814500e-01 -1.917185e-01
    outer loop
        vertex 6.000000e+00 4.580913e+01 -1.314854e+01
        vertex -6.000000e+00 4.580913e+01 -1.314854e+01
        vertex -6.000000e+00 4.914828e+01 -3.024237e+01
    endloop
endfacet
facet normal -0.000000e+00 9.825128e-01 1.861949e-01
    outer loop
        vertex -6.000000e+00 4.774759e+01 -1.268665e+01
        vertex 6.000000e+00 4.774759e+01 -1.268665e+01
        vertex 6.000000e+00 4.958479e+01 -2.238118e+01
    endloop
endfacet
facet normal 0.000000e+00 9.825128e-01 1.861949e-01
    outer loop
        vertex -6.000000e+00 4.774759e+01 -1.268665e+01
        vertex 6.000000e+00 4.958479e+01 -2.238118e+01
        vertex -6.000000e+00 4.958479e+01 -2.238118e+01
    endloop
endfacet
facet normal -0.000000e+00 9.781476e-01 2.079117e-01
    outer loop
        vertex -6.000000e+00 4.584137e+01 -3.622079e+00
        vertex 6.000000e+00 4.584137e+01 -3.622079e+00
        vertex 6.000000e+00 4.674466e+01 -7.871706e+00
    endloop
endfacet
facet normal 0.000000e+00 9.781476e-01 2.079117e-01
    outer loop
        vertex -6.000000e+00 4.584137e+01 -3.622079e+00
        vertex 6.000000e+00 4.674466e+01 -7.871706e+00
        vertex -6.000000e+00 4.674466e+01 -7.871706e+00
    endloop
endfacet
facet normal -0.000000e+00 9.914444e-01 1.305298e-01
    outer loop
        vertex -6.000000e+00 4.880800e+01 -9.801188e+00
        vertex 6.000000e+00 4.880800e+01 -9.801188e+00
        vertex 6.000000e+00 4.890000e+01 -1.050000e+01
    endloop
endfacet
facet normal 0.000000e+00 9.914444e-01 1.305298e-01
    outer loop
        vertex -6.000000e+00 4.880800e+01 -9.801188e+00
        vertex 6.000000e+00 4.890000e+01 -1.050000e+01
        vertex -6.000000e+00 4.890000e+01 -1.050000e+01
    endloop
endfacet
facet normal -0.000000e+00 9.238803e-01 3.826815e-01
    outer loop
        vertex -6.000000e+00 4.853827e+01 -9.150000e+00
        vertex 6.000000e+00 4.853827e+01 -9.150000e+00
        vertex 6.000000e+00 4.880800e+01 -9.801188e+00
    endloop
endfacet
facet normal 0.000000e+00 9.238803e-01 3.826815e-01
    outer loop
        vertex -6.000000e+00 4.853827e+01 -9.150000e+00
        vertex 6.000000e+00 4.880800e+01 -9.801188e+00
        vertex -6.000000e+00 4.880800e+01 -9.801188e+00
    endloop
endfacet
facet normal -0.000000e+00 7.933527e-01 6.087623e-01
    outer loop
        vertex -6.000000e+00 4.810919e+01 -8.590812e+00
        vertex 6.000000e+00 4.810919e+01 -8.590812e+00
        vertex 6.000000e+00 4.853827e+01 -9.150000e+00
    endloop
endfacet
facet normal 0.000000e+00 7.933527e-01 6.087623e-01
    outer loop
        vertex -6.000000e+00 4.810919e+01 -8.590812e+00
        vertex 6.000000e+00 4.853827e+01 -9.150000e+00
        vertex -6.000000e+00 4.853827e+01 -9.150000e+00
    endloop
endfacet
facet normal -0.000000e+00 6.087608e-01 7.933538e-01
    outer loop
        vertex -6.000000e+00 4.755000e+01 -8.161732e+00
        vertex 6.000000e+00 4.755000e+01 -8.161732e+00
        vertex 6.000000e+00 4.810919e+01 -8.590812e+00
    endloop
endfacet
facet normal 0.000000e+00 6.087608e-01 7.933538e-01
    outer loop
        vertex -6.000000e+00 4.755000e+01 -8.161732e+00
        vertex 6.000000e+00 4.810919e+01 -8.590812e+00
        vertex -6.000000e+00 4.810919e+01 -8.590812e+00
    endloop
endfacet
facet normal -0.000000e+00 3.826842e-01 9.238792e-01
    outer loop
        vertex -6.000000e+00 4.689881e+01 -7.892000e+00
        vertex 6.000000e+00 4.689881e+01 -7.892000e+00
        vertex 6.000000e+00 4.755000e+01 -8.161732e+00
    endloop
endfacet
facet normal 0.000000e+00 3.826842e-01 9.238792e-01
    outer loop
        vertex -6.000000e+00 4.689881e+01 -7.892000e+00
        vertex 6.000000e+00 4.755000e+01 -8.161732e+00
        vertex -6.000000e+00 4.755000e+01 -8.161732e+00
    endloop
endfacet
facet normal 0.000000e+00 -7.933527e-01 6.087623e-01
    outer loop
        vertex -6.000000e+00 4.386173e+01 -9.150000e+00
        vertex 6.000000e+00 4.386173e+01 -9.150000e+00
        vertex 6.000000e+00 4.429081e+01 -8.590812e+00
    endloop
endfacet
facet normal 0.000000e+00 -7.933527e-01 6.087623e-01
    outer loop
        vertex -6.000000e+00 4.386173e+01 -9.150000e+00
        vertex 6.000000e+00 4.429081e+01 -8.590812e+00
        vertex -6.000000e+00 4.429081e+01 -8.590812e+00
    endloop
endfacet
facet normal 0.000000e+00 -9.238784e-01 3.826861e-01
    outer loop
        vertex -6.000000e+00 4.359200e+01 -9.801188e+00
        vertex 6.000000e+00 4.359200e+01 -9.801188e+00
        vertex 6.000000e+00 4.386173e+01 -9.150000e+00
    endloop
endfacet
facet normal 0.000000e+00 -9.238784e-01 3.826861e-01
    outer loop
        vertex -6.000000e+00 4.359200e+01 -9.801188e+00
        vertex 6.000000e+00 4.386173e+01 -9.150000e+00
        vertex -6.000000e+00 4.386173e+01 -9.150000e+00
    endloop
endfacet
facet normal 0.000000e+00 -9.914451e-01 1.305245e-01
    outer loop
        vertex -6.000000e+00 4.350000e+01 -1.050000e+01
        vertex 6.000000e+00 4.350000e+01 -1.050000e+01
        vertex 6.000000e+00 4.359200e+01 -9.801188e+00
    endloop
endfacet
facet normal 0.000000e+00 -9.914451e-01 1.305245e-01
    outer loop
        vertex -6.000000e+00 4.350000e+01 -1.050000e+01
        vertex 6.000000e+00 4.359200e+01 -9.801188e+00
        vertex -6.000000e+00 4.359200e+01 -9.801188e+00
    endloop
endfacet
facet normal 0.000000e+00 -9.914451e-01 -1.305245e-01
    outer loop
        vertex 6.000000e+00 4.350000e+01 -1.050000e+01
        vertex -6.000000e+00 4.359200e+01 -1.119881e+01
        vertex 6.000000e+00 4.359200e+01 -1.119881e+01
    endloop
endfacet
facet normal -0.000000e+00 -9.914451e-01 -1.305245e-01
    outer loop
        vertex 6.000000e+00 4.350000e+01 -1.050000e+01
        vertex -6.000000e+00 4.350000e+01 -1.050000e+01
        vertex -6.000000e+00 4.359200e+01 -1.119881e+01
    endloop
endfacet
facet normal 0.000000e+00 -9.238784e-01 -3.826861e-01
    outer loop
        vertex 6.000000e+00 4.359200e+01 -1.119881e+01
        vertex -6.000000e+00 4.386173e+01 -1.185000e+01
        vertex 6.000000e+00 4.386173e+01 -1.185000e+01
    endloop
endfacet
facet normal -0.000000e+00 -9.238784e-01 -3.826861e-01
    outer loop
        vertex 6.000000e+00 4.359200e+01 -1.119881e+01
        vertex -6.000000e+00 4.359200e+01 -1.119881e+01
        vertex -6.000000e+00 4.386173e+01 -1.185000e+01
    endloop
endfacet
facet normal 0.000000e+00 -7.933527e-01 -6.087623e-01
    outer loop
        vertex 6.000000e+00 4.386173e+01 -1.185000e+01
        vertex -6.000000e+00 4.429081e+01 -1.240919e+01
        vertex 6.000000e+00 4.429081e+01 -1.240919e+01
    endloop
endfacet
facet normal -0.000000e+00 -7.933527e-01 -6.087623e-01
    outer loop
        vertex 6.000000e+00 4.386173e+01 -1.185000e+01
        vertex -6.000000e+00 4.386173e+01 -1.185000e+01
        vertex -6.000000e+00 4.429081e+01 -1.240919e+01
    endloop
endfacet
facet normal 0.000000e+00 -6.087635e-01 -7.933518e-01
    outer loop
        vertex 6.000000e+00 4.429081e+01 -1.240919e+01
        vertex -6.000000e+00 4.485000e+01 -1.283827e+01
        vertex 6.000000e+00 4.485000e+01 -1.283827e+01
    endloop
endfacet
facet normal -0.000000e+00 -6.087635e-01 -7.933518e-01
    outer loop
        vertex 6.000000e+00 4.429081e+01 -1.240919e+01
        vertex -6.000000e+00 4.429081e+01 -1.240919e+01
        vertex -6.000000e+00 4.485000e+01 -1.283827e+01
    endloop
endfacet
facet normal 0.000000e+00 -3.826823e-01 -9.238800e-01
    outer loop
        vertex 6.000000e+00 4.485000e+01 -1.283827e+01
        vertex -6.000000e+00 4.550119e+01 -1.310800e+01
        vertex 6.000000e+00 4.550119e+01 -1.310800e+01
    endloop
endfacet
facet normal -0.000000e+00 -3.826823e-01 -9.238800e-01
    outer loop
        vertex 6.000000e+00 4.485000e+01 -1.283827e+01
        vertex -6.000000e+00 4.485000e+01 -1.283827e+01
        vertex -6.000000e+00 4.550119e+01 -1.310800e+01
    endloop
endfacet
facet normal 0.000000e+00 7.933527e-01 -6.087623e-01
    outer loop
        vertex 6.000000e+00 4.810919e+01 -1.240919e+01
        vertex -6.000000e+00 4.853827e+01 -1.185000e+01
        vertex 6.000000e+00 4.853827e+01 -1.185000e+01
    endloop
endfacet
facet normal 0.000000e+00 7.933527e-01 -6.087623e-01
    outer loop
        vertex 6.000000e+00 4.810919e+01 -1.240919e+01
        vertex -6.000000e+00 4.810919e+01 -1.240919e+01
        vertex -6.000000e+00 4.853827e+01 -1.185000e+01
    endloop
endfacet
facet normal 0.000000e+00 9.238803e-01 -3.826815e-01
    outer loop
        vertex 6.000000e+00 4.853827e+01 -1.185000e+01
        vertex -6.000000e+00 4.880800e+01 -1.119881e+01
        vertex 6.000000e+00 4.880800e+01 -1.119881e+01
    endloop
endfacet
facet normal 0.000000e+00 9.238803e-01 -3.826815e-01
    outer loop
        vertex 6.000000e+00 4.853827e+01 -1.185000e+01
        vertex -6.000000e+00 4.853827e+01 -1.185000e+01
        vertex -6.000000e+00 4.880800e+01 -1.119881e+01
    endloop
endfacet
facet normal 0.000000e+00 9.914444e-01 -1.305298e-01
    outer loop
        vertex 6.000000e+00 4.880800e+01 -1.119881e+01
        vertex -6.000000e+00 4.890000e+01 -1.050000e+01
        vertex 6.000000e+00 4.890000e+01 -1.050000e+01
    endloop
endfacet
facet normal 0.000000e+00 9.914444e-01 -1.305298e-01
    outer loop
        vertex 6.000000e+00 4.880800e+01 -1.119881e+01
        vertex -6.000000e+00 4.880800e+01 -1.119881e+01
        vertex -6.000000e+00 4.890000e+01 -1.050000e+01
    endloop
endfacet
facet normal -0.000000e+00 1.305242e-01 9.914451e-01
    outer loop
        vertex -6.000000e+00 4.674466e+01 -7.871706e+00
        vertex 6.000000e+00 4.674466e+01 -7.871706e+00
        vertex 6.000000e+00 4.689881e+01 -7.892000e+00
    endloop
endfacet
facet normal 0.000000e+00 1.305242e-01 9.914451e-01
    outer loop
        vertex -6.000000e+00 4.674466e+01 -7.871706e+00
        vertex 6.000000e+00 4.689881e+01 -7.892000e+00
        vertex -6.000000e+00 4.689881e+01 -7.892000e+00
    endloop
endfacet
facet normal 0.000000e+00 -6.087643e-01 7.933512e-01
    outer loop
        vertex -6.000000e+00 4.429081e+01 -8.590812e+00
        vertex 6.000000e+00 4.429081e+01 -8.590812e+00
        vertex 6.000000e+00 4.477401e+01 -8.220037e+00
    endloop
endfacet
facet normal 0.000000e+00 -6.087643e-01 7.933512e-01
    outer loop
        vertex -6.000000e+00 4.429081e+01 -8.590812e+00
        vertex 6.000000e+00 4.477401e+01 -8.220037e+00
        vertex -6.000000e+00 4.477401e+01 -8.220037e+00
    endloop
endfacet
facet normal -7.879294e-08 -1.305274e-01 -9.914447e-01
    outer loop
        vertex 6.000000e+00 4.550119e+01 -1.310800e+01
        vertex -6.000000e+00 4.580913e+01 -1.314854e+01
        vertex 6.000000e+00 4.580913e+01 -1.314854e+01
    endloop
endfacet
facet normal -0.000000e+00 -1.305244e-01 -9.914451e-01
    outer loop
        vertex 6.000000e+00 4.550119e+01 -1.310800e+01
        vertex -6.000000e+00 4.550119e+01 -1.310800e+01
        vertex -6.000000e+00 4.580913e+01 -1.314854e+01
    endloop
endfacet
facet normal 0.000000e+00 6.087592e-01 -7.933550e-01
    outer loop
        vertex 6.000000e+00 4.774759e+01 -1.268665e+01
        vertex -6.000000e+00 4.810919e+01 -1.240919e+01
        vertex 6.000000e+00 4.810919e+01 -1.240919e+01
    endloop
endfacet
facet normal 0.000000e+00 6.087592e-01 -7.933550e-01
    outer loop
        vertex 6.000000e+00 4.774759e+01 -1.268665e+01
        vertex -6.000000e+00 4.774759e+01 -1.268665e+01
        vertex -6.000000e+00 4.810919e+01 -1.240919e+01
    endloop
endfacet
facet normal -0.000000e+00 -9.914450e-01 -1.305253e-01
    outer loop
        vertex 6.000000e+00 4.832504e+01 -9.930598e+00
        vertex -6.000000e+00 4.832504e+01 -9.930598e+00
        vertex 6.000000e+00 4.840000e+01 -1.050000e+01
    endloop
endfacet
facet normal 0.000000e+00 -9.914450e-01 -1.305253e-01
    outer loop
        vertex -6.000000e+00 4.832504e+01 -9.930598e+00
        vertex -6.000000e+00 4.840000e+01 -1.050000e+01
        vertex 6.000000e+00 4.840000e+01 -1.050000e+01
    endloop
endfacet
facet normal -0.000000e+00 -9.238779e-01 -3.826873e-01
    outer loop
        vertex 6.000000e+00 4.810526e+01 -9.400000e+00
        vertex -6.000000e+00 4.810526e+01 -9.400000e+00
        vertex 6.000000e+00 4.832504e+01 -9.930598e+00
    endloop
endfacet
facet normal 0.000000e+00 -9.238779e-01 -3.826873e-01
    outer loop
        vertex -6.000000e+00 4.810526e+01 -9.400000e+00
        vertex -6.000000e+00 4.832504e+01 -9.930598e+00
        vertex 6.000000e+00 4.832504e+01 -9.930598e+00
    endloop
endfacet
facet normal -0.000000e+00 -7.933530e-01 -6.087620e-01
    outer loop
        vertex 6.000000e+00 4.775563e+01 -8.944366e+00
        vertex -6.000000e+00 4.775563e+01 -8.944366e+00
        vertex 6.000000e+00 4.810526e+01 -9.400000e+00
    endloop
endfacet
facet normal 0.000000e+00 -7.933530e-01 -6.087620e-01
    outer loop
        vertex -6.000000e+00 4.775563e+01 -8.944366e+00
        vertex -6.000000e+00 4.810526e+01 -9.400000e+00
        vertex 6.000000e+00 4.810526e+01 -9.400000e+00
    endloop
endfacet
facet normal -0.000000e+00 -6.087622e-01 -7.933528e-01
    outer loop
        vertex 6.000000e+00 4.730000e+01 -8.594744e+00
        vertex -6.000000e+00 4.730000e+01 -8.594744e+00
        vertex 6.000000e+00 4.775563e+01 -8.944366e+00
    endloop
endfacet
facet normal 0.000000e+00 -6.087622e-01 -7.933528e-01
    outer loop
        vertex -6.000000e+00 4.730000e+01 -8.594744e+00
        vertex -6.000000e+00 4.775563e+01 -8.944366e+00
        vertex 6.000000e+00 4.775563e+01 -8.944366e+00
    endloop
endfacet
facet normal -0.000000e+00 -3.826837e-01 -9.238794e-01
    outer loop
        vertex 6.000000e+00 4.676940e+01 -8.374963e+00
        vertex -6.000000e+00 4.676940e+01 -8.374963e+00
        vertex 6.000000e+00 4.730000e+01 -8.594744e+00
    endloop
endfacet
facet normal 0.000000e+00 -3.826837e-01 -9.238794e-01
    outer loop
        vertex -6.000000e+00 4.676940e+01 -8.374963e+00
        vertex -6.000000e+00 4.730000e+01 -8.594744e+00
        vertex 6.000000e+00 4.730000e+01 -8.594744e+00
    endloop
endfacet
facet normal -0.000000e+00 -1.305255e-01 -9.914449e-01
    outer loop
        vertex 6.000000e+00 4.620000e+01 -8.300000e+00
        vertex -6.000000e+00 4.620000e+01 -8.300000e+00
        vertex 6.000000e+00 4.676940e+01 -8.374963e+00
    endloop
endfacet
facet normal 0.000000e+00 -1.305255e-01 -9.914449e-01
    outer loop
        vertex -6.000000e+00 4.620000e+01 -8.300000e+00
        vertex -6.000000e+00 4.676940e+01 -8.374963e+00
        vertex 6.000000e+00 4.676940e+01 -8.374963e+00
    endloop
endfacet
facet normal 0.000000e+00 1.305255e-01 -9.914449e-01
    outer loop
        vertex 6.000000e+00 4.563060e+01 -8.374963e+00
        vertex -6.000000e+00 4.563060e+01 -8.374963e+00
        vertex 6.000000e+00 4.620000e+01 -8.300000e+00
    endloop
endfacet
facet normal 0.000000e+00 1.305255e-01 -9.914449e-01
    outer loop
        vertex -6.000000e+00 4.563060e+01 -8.374963e+00
        vertex -6.000000e+00 4.620000e+01 -8.300000e+00
        vertex 6.000000e+00 4.620000e+01 -8.300000e+00
    endloop
endfacet
facet normal 0.000000e+00 3.826837e-01 -9.238794e-01
    outer loop
        vertex 6.000000e+00 4.510000e+01 -8.594744e+00
        vertex -6.000000e+00 4.510000e+01 -8.594744e+00
        vertex 6.000000e+00 4.563060e+01 -8.374963e+00
    endloop
endfacet
facet normal 0.000000e+00 3.826837e-01 -9.238794e-01
    outer loop
        vertex -6.000000e+00 4.510000e+01 -8.594744e+00
        vertex -6.000000e+00 4.563060e+01 -8.374963e+00
        vertex 6.000000e+00 4.563060e+01 -8.374963e+00
    endloop
endfacet
facet normal 0.000000e+00 6.087622e-01 -7.933528e-01
    outer loop
        vertex 6.000000e+00 4.464437e+01 -8.944366e+00
        vertex -6.000000e+00 4.464437e+01 -8.944366e+00
        vertex 6.000000e+00 4.510000e+01 -8.594744e+00
    endloop
endfacet
facet normal 0.000000e+00 6.087622e-01 -7.933528e-01
    outer loop
        vertex -6.000000e+00 4.464437e+01 -8.944366e+00
        vertex -6.000000e+00 4.510000e+01 -8.594744e+00
        vertex 6.000000e+00 4.510000e+01 -8.594744e+00
    endloop
endfacet
facet normal 0.000000e+00 7.933530e-01 -6.087620e-01
    outer loop
        vertex 6.000000e+00 4.429475e+01 -9.400000e+00
        vertex -6.000000e+00 4.429475e+01 -9.400000e+00
        vertex 6.000000e+00 4.464437e+01 -8.944366e+00
    endloop
endfacet
facet normal 0.000000e+00 7.933530e-01 -6.087620e-01
    outer loop
        vertex -6.000000e+00 4.429475e+01 -9.400000e+00
        vertex -6.000000e+00 4.464437e+01 -8.944366e+00
        vertex 6.000000e+00 4.464437e+01 -8.944366e+00
    endloop
endfacet
facet normal 0.000000e+00 9.238779e-01 -3.826873e-01
    outer loop
        vertex 6.000000e+00 4.407496e+01 -9.930598e+00
        vertex -6.000000e+00 4.407496e+01 -9.930598e+00
        vertex 6.000000e+00 4.429475e+01 -9.400000e+00
    endloop
endfacet
facet normal 0.000000e+00 9.238779e-01 -3.826873e-01
    outer loop
        vertex -6.000000e+00 4.407496e+01 -9.930598e+00
        vertex -6.000000e+00 4.429475e+01 -9.400000e+00
        vertex 6.000000e+00 4.429475e+01 -9.400000e+00
    endloop
endfacet
facet normal 0.000000e+00 9.914450e-01 -1.305253e-01
    outer loop
        vertex 6.000000e+00 4.400000e+01 -1.050000e+01
        vertex -6.000000e+00 4.400000e+01 -1.050000e+01
        vertex 6.000000e+00 4.407496e+01 -9.930598e+00
    endloop
endfacet
facet normal 0.000000e+00 9.914450e-01 -1.305253e-01
    outer loop
        vertex -6.000000e+00 4.400000e+01 -1.050000e+01
        vertex -6.000000e+00 4.407496e+01 -9.930598e+00
        vertex 6.000000e+00 4.407496e+01 -9.930598e+00
    endloop
endfacet
facet normal 0.000000e+00 9.914450e-01 1.305253e-01
    outer loop
        vertex 6.000000e+00 4.400000e+01 -1.050000e+01
        vertex 6.000000e+00 4.407496e+01 -1.106940e+01
        vertex -6.000000e+00 4.407496e+01 -1.106940e+01
    endloop
endfacet
facet normal -0.000000e+00 9.914450e-01 1.305253e-01
    outer loop
        vertex -6.000000e+00 4.400000e+01 -1.050000e+01
        vertex 6.000000e+00 4.400000e+01 -1.050000e+01
        vertex -6.000000e+00 4.407496e+01 -1.106940e+01
    endloop
endfacet
facet normal 0.000000e+00 9.238779e-01 3.826873e-01
    outer loop
        vertex 6.000000e+00 4.407496e+01 -1.106940e+01
        vertex 6.000000e+00 4.429475e+01 -1.160000e+01
        vertex -6.000000e+00 4.429475e+01 -1.160000e+01
    endloop
endfacet
facet normal -0.000000e+00 9.238779e-01 3.826873e-01
    outer loop
        vertex -6.000000e+00 4.407496e+01 -1.106940e+01
        vertex 6.000000e+00 4.407496e+01 -1.106940e+01
        vertex -6.000000e+00 4.429475e+01 -1.160000e+01
    endloop
endfacet
facet normal 0.000000e+00 7.933530e-01 6.087620e-01
    outer loop
        vertex 6.000000e+00 4.429475e+01 -1.160000e+01
        vertex 6.000000e+00 4.464437e+01 -1.205563e+01
        vertex -6.000000e+00 4.464437e+01 -1.205563e+01
    endloop
endfacet
facet normal -0.000000e+00 7.933530e-01 6.087620e-01
    outer loop
        vertex -6.000000e+00 4.429475e+01 -1.160000e+01
        vertex 6.000000e+00 4.429475e+01 -1.160000e+01
        vertex -6.000000e+00 4.464437e+01 -1.205563e+01
    endloop
endfacet
facet normal 0.000000e+00 6.087622e-01 7.933528e-01
    outer loop
        vertex 6.000000e+00 4.464437e+01 -1.205563e+01
        vertex 6.000000e+00 4.510000e+01 -1.240526e+01
        vertex -6.000000e+00 4.510000e+01 -1.240526e+01
    endloop
endfacet
facet normal -0.000000e+00 6.087622e-01 7.933528e-01
    outer loop
        vertex -6.000000e+00 4.464437e+01 -1.205563e+01
        vertex 6.000000e+00 4.464437e+01 -1.205563e+01
        vertex -6.000000e+00 4.510000e+01 -1.240526e+01
    endloop
endfacet
facet normal 0.000000e+00 3.826837e-01 9.238794e-01
    outer loop
        vertex 6.000000e+00 4.510000e+01 -1.240526e+01
        vertex 6.000000e+00 4.563060e+01 -1.262504e+01
        vertex -6.000000e+00 4.563060e+01 -1.262504e+01
    endloop
endfacet
facet normal -0.000000e+00 3.826837e-01 9.238794e-01
    outer loop
        vertex -6.000000e+00 4.510000e+01 -1.240526e+01
        vertex 6.000000e+00 4.510000e+01 -1.240526e+01
        vertex -6.000000e+00 4.563060e+01 -1.262504e+01
    endloop
endfacet
facet normal 0.000000e+00 1.305255e-01 9.914449e-01
    outer loop
        vertex 6.000000e+00 4.563060e+01 -1.262504e+01
        vertex 6.000000e+00 4.620000e+01 -1.270000e+01
        vertex -6.000000e+00 4.620000e+01 -1.270000e+01
    endloop
endfacet
facet normal -0.000000e+00 1.305255e-01 9.914449e-01
    outer loop
        vertex -6.000000e+00 4.563060e+01 -1.262504e+01
        vertex 6.000000e+00 4.563060e+01 -1.262504e+01
        vertex -6.000000e+00 4.620000e+01 -1.270000e+01
    endloop
endfacet
facet normal 0.000000e+00 -1.305255e-01 9.914449e-01
    outer loop
        vertex 6.000000e+00 4.620000e+01 -1.270000e+01
        vertex 6.000000e+00 4.676940e+01 -1.262504e+01
        vertex -6.000000e+00 4.676940e+01 -1.262504e+01
    endloop
endfacet
facet normal 0.000000e+00 -1.305255e-01 9.914449e-01
    outer loop
        vertex -6.000000e+00 4.620000e+01 -1.270000e+01
        vertex 6.000000e+00 4.620000e+01 -1.270000e+01
        vertex -6.000000e+00 4.676940e+01 -1.262504e+01
    endloop
endfacet
facet normal 0.000000e+00 -3.826837e-01 9.238794e-01
    outer loop
        vertex 6.000000e+00 4.676940e+01 -1.262504e+01
        vertex 6.000000e+00 4.730000e+01 -1.240526e+01
        vertex -6.000000e+00 4.730000e+01 -1.240526e+01
    endloop
endfacet
facet normal 0.000000e+00 -3.826837e-01 9.238794e-01
    outer loop
        vertex -6.000000e+00 4.676940e+01 -1.262504e+01
        vertex 6.000000e+00 4.676940e+01 -1.262504e+01
        vertex -6.000000e+00 4.730000e+01 -1.240526e+01
    endloop
endfacet
facet normal 0.000000e+00 -6.087622e-01 7.933528e-01
    outer loop
        vertex 6.000000e+00 4.730000e+01 -1.240526e+01
        vertex 6.000000e+00 4.775563e+01 -1.205563e+01
        vertex -6.000000e+00 4.775563e+01 -1.205563e+01
    endloop
endfacet
facet normal 0.000000e+00 -6.087622e-01 7.933528e-01
    outer loop
        vertex -6.000000e+00 4.730000e+01 -1.240526e+01
        vertex 6.000000e+00 4.730000e+01 -1.240526e+01
        vertex -6.000000e+00 4.775563e+01 -1.205563e+01
    endloop
endfacet
facet normal 0.000000e+00 -7.933530e-01 6.087620e-01
    outer loop
        vertex 6.000000e+00 4.775563e+01 -1.205563e+01
        vertex 6.000000e+00 4.810526e+01 -1.160000e+01
        vertex -6.000000e+00 4.810526e+01 -1.160000e+01
    endloop
endfacet
facet normal 0.000000e+00 -7.933530e-01 6.087620e-01
    outer loop
        vertex -6.000000e+00 4.775563e+01 -1.205563e+01
        vertex 6.000000e+00 4.775563e+01 -1.205563e+01
        vertex -6.000000e+00 4.810526e+01 -1.160000e+01
    endloop
endfacet
facet normal 0.000000e+00 -9.238779e-01 3.826873e-01
    outer loop
        vertex 6.000000e+00 4.810526e+01 -1.160000e+01
        vertex 6.000000e+00 4.832504e+01 -1.106940e+01
        vertex -6.000000e+00 4.832504e+01 -1.106940e+01
    endloop
endfacet
facet normal 0.000000e+00 -9.238779e-01 3.826873e-01
    outer loop
        vertex -6.000000e+00 4.810526e+01 -1.160000e+01
        vertex 6.000000e+00 4.810526e+01 -1.160000e+01
        vertex -6.000000e+00 4.832504e+01 -1.106940e+01
    endloop
endfacet
facet normal 0.000000e+00 -9.914450e-01 1.305253e-01
    outer loop
        vertex 6.000000e+00 4.832504e+01 -1.106940e+01
        vertex 6.000000e+00 4.840000e+01 -1.050000e+01
        vertex -6.000000e+00 4.840000e+01 -1.050000e+01
    endloop
endfacet
facet normal 0.000000e+00 -9.914450e-01 1.305253e-01
    outer loop
        vertex -6.000000e+00 4.832504e+01 -1.106940e+01
        vertex 6.000000e+00 4.832504e+01 -1.106940e+01
        vertex -6.000000e+00 4.840000e+01 -1.050000e+01
    endloop
endfacet
facet normal -0.000000e+00 8.950155e-01 4.460351e-01
    outer loop
        vertex -6.000000e+00 6.405327e+01 -2.588118e+01
        vertex 6.000000e+00 6.405327e+01 -2.588118e+01
        vertex -6.000000e+00 6.465179e+01 -2.708217e+01
    endloop
endfacet
facet normal 0.000000e+00 8.950155e-01 4.460351e-01
    outer loop
        vertex 6.000000e+00 6.405327e+01 -2.588118e+01
        vertex 6.000000e+00 6.465179e+01 -2.708217e+01
        vertex -6.000000e+00 6.465179e+01 -2.708217e+01
    endloop
endfacet
facet normal 0.000000e+00 4.280178e-04 -9.999999e-01
    outer loop
        vertex 6.000000e+00 4.914828e+01 -3.024237e+01
        vertex -6.000000e+00 4.914828e+01 -3.024237e+01
        vertex -6.000000e+00 5.845736e+01 -3.023839e+01
    endloop
endfacet
facet normal 0.000000e+00 4.280178e-04 -9.999999e-01
    outer loop
        vertex 6.000000e+00 4.914828e+01 -3.024237e+01
        vertex -6.000000e+00 5.845736e+01 -3.023839e+01
        vertex 6.000000e+00 5.845736e+01 -3.023839e+01
    endloop
endfacet
facet normal 1.000000e+00 0.000000e+00 0.000000e+00
    outer loop
        vertex 6.000000e+00 4.464437e+01 -8.944366e+00
        vertex 6.000000e+00 4.510000e+01 -8.594744e+00
        vertex 6.000000e+00 4.477401e+01 -8.220037e+00
    endloop
endfacet
facet normal 1.000000e+00 -0.000000e+00 0.000000e+00
    outer loop
        vertex 6.000000e+00 4.429081e+01 -8.590812e+00
        vertex 6.000000e+00 4.464437e+01 -8.944366e+00
        vertex 6.000000e+00 4.477401e+01 -8.220037e+00
    endloop
endfacet
facet normal 1.000000e+00 0.000000e+00 0.000000e+00
    outer loop
        vertex 6.000000e+00 4.386173e+01 -9.150000e+00
        vertex 6.000000e+00 4.464437e+01 -8.944366e+00
        vertex 6.000000e+00 4.429081e+01 -8.590812e+00
    endloop
endfacet
facet normal 1.000000e+00 0.000000e+00 0.000000e+00
    outer loop
        vertex 6.000000e+00 4.584137e+01 -3.622079e+00
        vertex 6.000000e+00 4.730859e+01 -3.310212e+00
        vertex 6.000000e+00 4.584374e+01 -2.190299e+00
    endloop
endfacet
facet normal 1.000000e+00 -0.000000e+00 0.000000e+00
    outer loop
        vertex 6.000000e+00 4.386173e+01 -9.150000e+00
        vertex 6.000000e+00 4.429475e+01 -9.400000e+00
        vertex 6.000000e+00 4.464437e+01 -8.944366e+00
    endloop
endfacet
facet normal 1.000000e+00 0.000000e+00 0.000000e+00
    outer loop
        vertex 6.000000e+00 4.359200e+01 -9.801188e+00
        vertex 6.000000e+00 4.429475e+01 -9.400000e+00
        vertex 6.000000e+00 4.386173e+01 -9.150000e+00
    endloop
endfacet
facet normal 1.000000e+00 -0.000000e+00 0.000000e+00
    outer loop
        vertex 6.000000e+00 4.359200e+01 -9.801188e+00
        vertex 6.000000e+00 4.407496e+01 -9.930598e+00
        vertex 6.000000e+00 4.429475e+01 -9.400000e+00
    endloop
endfacet
facet normal 1.000000e+00 0.000000e+00 0.000000e+00
    outer loop
        vertex 6.000000e+00 4.350000e+01 -1.050000e+01
        vertex 6.000000e+00 4.407496e+01 -9.930598e+00
        vertex 6.000000e+00 4.359200e+01 -9.801188e+00
    endloop
endfacet
facet normal 1.000000e+00 0.000000e+00 0.000000e+00
    outer loop
        vertex 6.000000e+00 4.350000e+01 -1.050000e+01
        vertex 6.000000e+00 4.400000e+01 -1.050000e+01
        vertex 6.000000e+00 4.407496e+01 -9.930598e+00
    endloop
endfacet
facet normal 1.000000e+00 -0.000000e+00 0.000000e+00
    outer loop
        vertex 6.000000e+00 4.350000e+01 -1.050000e+01
        vertex 6.000000e+00 4.359200e+01 -1.119881e+01
        vertex 6.000000e+00 4.400000e+01 -1.050000e+01
    endloop
endfacet
facet normal 1.000000e+00 0.000000e+00 0.000000e+00
    outer loop
        vertex 6.000000e+00 4.359200e+01 -1.119881e+01
        vertex 6.000000e+00 4.407496e+01 -1.106940e+01
        vertex 6.000000e+00 4.400000e+01 -1.050000e+01
    endloop
endfacet
facet normal 1.000000e+00 -0.000000e+00 0.000000e+00
    outer loop
        vertex 6.000000e+00 4.359200e+01 -1.119881e+01
        vertex 6.000000e+00 4.386173e+01 -1.185000e+01
        vertex 6.000000e+00 4.407496e+01 -1.106940e+01
    endloop
endfacet
facet normal 1.000000e+00 0.000000e+00 0.000000e+00
    outer loop
        vertex 6.000000e+00 4.386173e+01 -1.185000e+01
        vertex 6.000000e+00 4.429475e+01 -1.160000e+01
        vertex 6.000000e+00 4.407496e+01 -1.106940e+01
    endloop
endfacet
facet normal 1.000000e+00 -0.000000e+00 0.000000e+00
    outer loop
        vertex 6.000000e+00 4.386173e+01 -1.185000e+01
        vertex 6.000000e+00 4.429081e+01 -1.240919e+01
        vertex 6.000000e+00 4.429475e+01 -1.160000e+01
    endloop
endfacet
facet normal 1.000000e+00 0.000000e+00 0.000000e+00
    outer loop
        vertex 6.000000e+00 4.429081e+01 -1.240919e+01
        vertex 6.000000e+00 4.464437e+01 -1.205563e+01
        vertex 6.000000e+00 4.429475e+01 -1.160000e+01
    endloop
endfacet
facet normal 1.000000e+00 -0.000000e+00 0.000000e+00
    outer loop
        vertex 6.000000e+00 4.429081e+01 -1.240919e+01
        vertex 6.000000e+00 4.485000e+01 -1.283827e+01
        vertex 6.000000e+00 4.464437e+01 -1.205563e+01
    endloop
endfacet
facet normal 1.000000e+00 0.000000e+00 0.000000e+00
    outer loop
        vertex 6.000000e+00 4.464437e+01 -1.205563e+01
        vertex 6.000000e+00 4.485000e+01 -1.283827e+01
        vertex 6.000000e+00 4.510000e+01 -1.240526e+01
    endloop
endfacet
facet normal 1.000000e+00 -0.000000e+00 0.000000e+00
    outer loop
        vertex 6.000000e+00 4.485000e+01 -1.283827e+01
        vertex 6.000000e+00 4.550119e+01 -1.310800e+01
        vertex 6.000000e+00 4.510000e+01 -1.240526e+01
    endloop
endfacet
facet normal 1.000000e+00 0.000000e+00 0.000000e+00
    outer loop
        vertex 6.000000e+00 4.510000e+01 -1.240526e+01
        vertex 6.000000e+00 4.550119e+01 -1.310800e+01
        vertex 6.000000e+00 4.563060e+01 -1.262504e+01
    endloop
endfacet
facet normal 1.000000e+00 -0.000000e+00 0.000000e+00
    outer loop
        vertex 6.000000e+00 4.550119e+01 -1.310800e+01
        vertex 6.000000e+00 4.580913e+01 -1.314854e+01
        vertex 6.000000e+00 4.563060e+01 -1.262504e+01
    endloop
endfacet
facet normal 1.000000e+00 -0.000000e+00 0.000000e+00
    outer loop
        vertex 6.000000e+00 4.359400e+01 -2.668496e+00
        vertex 6.000000e+00 4.584137e+01 -3.622079e+00
        vertex 6.000000e+00 4.584374e+01 -2.190299e+00
    endloop
endfacet
facet normal 1.000000e+00 0.000000e+00 0.000000e+00
    outer loop
        vertex 6.000000e+00 4.359400e+01 -2.668496e+00
        vertex 6.000000e+00 4.477401e+01 -8.220037e+00
        vertex 6.000000e+00 4.584137e+01 -3.622079e+00
    endloop
endfacet
facet normal 1.000000e+00 0.000000e+00 0.000000e+00
    outer loop
        vertex 6.000000e+00 4.477401e+01 -8.220037e+00
        vertex 6.000000e+00 4.674466e+01 -7.871706e+00
        vertex 6.000000e+00 4.584137e+01 -3.622079e+00
    endloop
endfacet
facet normal 1.000000e+00 0.000000e+00 0.000000e+00
    outer loop
        vertex 6.000000e+00 4.563060e+01 -1.262504e+01
        vertex 6.000000e+00 4.580913e+01 -1.314854e+01
        vertex 6.000000e+00 4.620000e+01 -1.270000e+01
    endloop
endfacet
facet normal 1.000000e+00 0.000000e+00 0.000000e+00
    outer loop
        vertex 6.000000e+00 4.580913e+01 -1.314854e+01
        vertex 6.000000e+00 4.676940e+01 -1.262504e+01
        vertex 6.000000e+00 4.620000e+01 -1.270000e+01
    endloop
endfacet
facet normal 1.000000e+00 -0.000000e+00 0.000000e+00
    outer loop
        vertex 6.000000e+00 4.477401e+01 -8.220037e+00
        vertex 6.000000e+00 4.510000e+01 -8.594744e+00
        vertex 6.000000e+00 4.674466e+01 -7.871706e+00
    endloop
endfacet
facet normal 1.000000e+00 0.000000e+00 0.000000e+00
    outer loop
        vertex 6.000000e+00 5.845736e+01 -3.023839e+01
        vertex 6.000000e+00 6.465179e+01 -2.708217e+01
        vertex 6.000000e+00 6.405327e+01 -2.588118e+01
    endloop
endfacet
facet normal 1.000000e+00 0.000000e+00 0.000000e+00
    outer loop
        vertex 6.000000e+00 4.958479e+01 -2.238118e+01
        vertex 6.000000e+00 5.845736e+01 -3.023839e+01
        vertex 6.000000e+00 6.405327e+01 -2.588118e+01
    endloop
endfacet
facet normal 1.000000e+00 0.000000e+00 0.000000e+00
    outer loop
        vertex 6.000000e+00 4.914828e+01 -3.024237e+01
        vertex 6.000000e+00 5.845736e+01 -3.023839e+01
        vertex 6.000000e+00 4.958479e+01 -2.238118e+01
    endloop
endfacet
facet normal 1.000000e+00 0.000000e+00 0.000000e+00
    outer loop
        vertex 6.000000e+00 4.580913e+01 -1.314854e+01
        vertex 6.000000e+00 4.914828e+01 -3.024237e+01
        vertex 6.000000e+00 4.958479e+01 -2.238118e+01
    endloop
endfacet
facet normal 1.000000e+00 -0.000000e+00 0.000000e+00
    outer loop
        vertex 6.000000e+00 4.580913e+01 -1.314854e+01
        vertex 6.000000e+00 4.958479e+01 -2.238118e+01
        vertex 6.000000e+00 4.774759e+01 -1.268665e+01
    endloop
endfacet
facet normal 1.000000e+00 0.000000e+00 0.000000e+00
    outer loop
        vertex 6.000000e+00 4.580913e+01 -1.314854e+01
        vertex 6.000000e+00 4.774759e+01 -1.268665e+01
        vertex 6.000000e+00 4.676940e+01 -1.262504e+01
    endloop
endfacet
facet normal 1.000000e+00 -0.000000e+00 0.000000e+00
    outer loop
        vertex 6.000000e+00 4.676940e+01 -1.262504e+01
        vertex 6.000000e+00 4.774759e+01 -1.268665e+01
        vertex 6.000000e+00 4.730000e+01 -1.240526e+01
    endloop
endfacet
facet normal 1.000000e+00 -0.000000e+00 0.000000e+00
    outer loop
        vertex 6.000000e+00 4.730000e+01 -1.240526e+01
        vertex 6.000000e+00 4.774759e+01 -1.268665e+01
        vertex 6.000000e+00 4.775563e+01 -1.205563e+01
    endloop
endfacet
facet normal 1.000000e+00 0.000000e+00 0.000000e+00
    outer loop
        vertex 6.000000e+00 4.774759e+01 -1.268665e+01
        vertex 6.000000e+00 4.810919e+01 -1.240919e+01
        vertex 6.000000e+00 4.775563e+01 -1.205563e+01
    endloop
endfacet
facet normal 1.000000e+00 -0.000000e+00 0.000000e+00
    outer loop
        vertex 6.000000e+00 4.775563e+01 -1.205563e+01
        vertex 6.000000e+00 4.810919e+01 -1.240919e+01
        vertex 6.000000e+00 4.853827e+01 -1.185000e+01
    endloop
endfacet
facet normal 1.000000e+00 0.000000e+00 0.000000e+00
    outer loop
        vertex 6.000000e+00 4.775563e+01 -1.205563e+01
        vertex 6.000000e+00 4.853827e+01 -1.185000e+01
        vertex 6.000000e+00 4.810526e+01 -1.160000e+01
    endloop
endfacet
facet normal 1.000000e+00 -0.000000e+00 0.000000e+00
    outer loop
        vertex 6.000000e+00 4.810526e+01 -1.160000e+01
        vertex 6.000000e+00 4.853827e+01 -1.185000e+01
        vertex 6.000000e+00 4.880800e+01 -1.119881e+01
    endloop
endfacet
facet normal 1.000000e+00 0.000000e+00 0.000000e+00
    outer loop
        vertex 6.000000e+00 4.810526e+01 -1.160000e+01
        vertex 6.000000e+00 4.880800e+01 -1.119881e+01
        vertex 6.000000e+00 4.832504e+01 -1.106940e+01
    endloop
endfacet
facet normal 1.000000e+00 -0.000000e+00 0.000000e+00
    outer loop
        vertex 6.000000e+00 4.832504e+01 -1.106940e+01
        vertex 6.000000e+00 4.880800e+01 -1.119881e+01
        vertex 6.000000e+00 4.890000e+01 -1.050000e+01
    endloop
endfacet
facet normal 1.000000e+00 0.000000e+00 0.000000e+00
    outer loop
        vertex 6.000000e+00 4.832504e+01 -1.106940e+01
        vertex 6.000000e+00 4.890000e+01 -1.050000e+01
        vertex 6.000000e+00 4.840000e+01 -1.050000e+01
    endloop
endfacet
facet normal 1.000000e+00 0.000000e+00 0.000000e+00
    outer loop
        vertex 6.000000e+00 4.840000e+01 -1.050000e+01
        vertex 6.000000e+00 4.890000e+01 -1.050000e+01
        vertex 6.000000e+00 4.880800e+01 -9.801188e+00
    endloop
endfacet
facet normal 1.000000e+00 -0.000000e+00 0.000000e+00
    outer loop
        vertex 6.000000e+00 4.832504e+01 -9.930598e+00
        vertex 6.000000e+00 4.840000e+01 -1.050000e+01
        vertex 6.000000e+00 4.880800e+01 -9.801188e+00
    endloop
endfacet
facet normal 1.000000e+00 0.000000e+00 0.000000e+00
    outer loop
        vertex 6.000000e+00 4.832504e+01 -9.930598e+00
        vertex 6.000000e+00 4.880800e+01 -9.801188e+00
        vertex 6.000000e+00 4.853827e+01 -9.150000e+00
    endloop
endfacet
facet normal 1.000000e+00 -0.000000e+00 0.000000e+00
    outer loop
        vertex 6.000000e+00 4.810526e+01 -9.400000e+00
        vertex 6.000000e+00 4.832504e+01 -9.930598e+00
        vertex 6.000000e+00 4.853827e+01 -9.150000e+00
    endloop
endfacet
facet normal 1.000000e+00 0.000000e+00 0.000000e+00
    outer loop
        vertex 6.000000e+00 4.810526e+01 -9.400000e+00
        vertex 6.000000e+00 4.853827e+01 -9.150000e+00
        vertex 6.000000e+00 4.810919e+01 -8.590812e+00
    endloop
endfacet
facet normal 1.000000e+00 -0.000000e+00 0.000000e+00
    outer loop
        vertex 6.000000e+00 4.775563e+01 -8.944366e+00
        vertex 6.000000e+00 4.810526e+01 -9.400000e+00
        vertex 6.000000e+00 4.810919e+01 -8.590812e+00
    endloop
endfacet
facet normal 1.000000e+00 0.000000e+00 0.000000e+00
    outer loop
        vertex 6.000000e+00 4.755000e+01 -8.161732e+00
        vertex 6.000000e+00 4.775563e+01 -8.944366e+00
        vertex 6.000000e+00 4.810919e+01 -8.590812e+00
    endloop
endfacet
facet normal 1.000000e+00 -0.000000e+00 0.000000e+00
    outer loop
        vertex 6.000000e+00 4.730000e+01 -8.594744e+00
        vertex 6.000000e+00 4.775563e+01 -8.944366e+00
        vertex 6.000000e+00 4.755000e+01 -8.161732e+00
    endloop
endfacet
facet normal 1.000000e+00 0.000000e+00 0.000000e+00
    outer loop
        vertex 6.000000e+00 4.689881e+01 -7.892000e+00
        vertex 6.000000e+00 4.730000e+01 -8.594744e+00
        vertex 6.000000e+00 4.755000e+01 -8.161732e+00
    endloop
endfacet
facet normal 1.000000e+00 -0.000000e+00 0.000000e+00
    outer loop
        vertex 6.000000e+00 4.676940e+01 -8.374963e+00
        vertex 6.000000e+00 4.730000e+01 -8.594744e+00
        vertex 6.000000e+00 4.689881e+01 -7.892000e+00
    endloop
endfacet
facet normal 1.000000e+00 0.000000e+00 0.000000e+00
    outer loop
        vertex 6.000000e+00 4.674466e+01 -7.871706e+00
        vertex 6.000000e+00 4.676940e+01 -8.374963e+00
        vertex 6.000000e+00 4.689881e+01 -7.892000e+00
    endloop
endfacet
facet normal 1.000000e+00 -0.000000e+00 0.000000e+00
    outer loop
        vertex 6.000000e+00 4.620000e+01 -8.300000e+00
        vertex 6.000000e+00 4.676940e+01 -8.374963e+00
        vertex 6.000000e+00 4.674466e+01 -7.871706e+00
    endloop
endfacet
facet normal 1.000000e+00 0.000000e+00 0.000000e+00
    outer loop
        vertex 6.000000e+00 4.510000e+01 -8.594744e+00
        vertex 6.000000e+00 4.563060e+01 -8.374963e+00
        vertex 6.000000e+00 4.674466e+01 -7.871706e+00
    endloop
endfacet
facet normal 1.000000e+00 0.000000e+00 0.000000e+00
    outer loop
        vertex 6.000000e+00 4.563060e+01 -8.374963e+00
        vertex 6.000000e+00 4.620000e+01 -8.300000e+00
        vertex 6.000000e+00 4.674466e+01 -7.871706e+00
    endloop
endfacet
facet normal -1.000000e+00 0.000000e+00 0.000000e+00
    outer loop
        vertex -6.000000e+00 4.464437e+01 -8.944366e+00
        vertex -6.000000e+00 4.477401e+01 -8.220037e+00
        vertex -6.000000e+00 4.510000e+01 -8.594744e+00
    endloop
endfacet
facet normal -1.000000e+00 0.000000e+00 0.000000e+00
    outer loop
        vertex -6.000000e+00 4.429081e+01 -8.590812e+00
        vertex -6.000000e+00 4.477401e+01 -8.220037e+00
        vertex -6.000000e+00 4.464437e+01 -8.944366e+00
    endloop
endfacet
facet normal -1.000000e+00 0.000000e+00 0.000000e+00
    outer loop
        vertex -6.000000e+00 4.386173e+01 -9.150000e+00
        vertex -6.000000e+00 4.429081e+01 -8.590812e+00
        vertex -6.000000e+00 4.464437e+01 -8.944366e+00
    endloop
endfacet
facet normal -1.000000e+00 0.000000e+00 0.000000e+00
    outer loop
        vertex -6.000000e+00 4.584137e+01 -3.622079e+00
        vertex -6.000000e+00 4.584374e+01 -2.190299e+00
        vertex -6.000000e+00 4.730859e+01 -3.310212e+00
    endloop
endfacet
facet normal -1.000000e+00 0.000000e+00 0.000000e+00
    outer loop
        vertex -6.000000e+00 4.386173e+01 -9.150000e+00
        vertex -6.000000e+00 4.464437e+01 -8.944366e+00
        vertex -6.000000e+00 4.429475e+01 -9.400000e+00
    endloop
endfacet
facet normal -1.000000e+00 0.000000e+00 0.000000e+00
    outer loop
        vertex -6.000000e+00 4.359200e+01 -9.801188e+00
        vertex -6.000000e+00 4.386173e+01 -9.150000e+00
        vertex -6.000000e+00 4.429475e+01 -9.400000e+00
    endloop
endfacet
facet normal -1.000000e+00 0.000000e+00 0.000000e+00
    outer loop
        vertex -6.000000e+00 4.359200e+01 -9.801188e+00
        vertex -6.000000e+00 4.429475e+01 -9.400000e+00
        vertex -6.000000e+00 4.407496e+01 -9.930598e+00
    endloop
endfacet
facet normal -1.000000e+00 0.000000e+00 0.000000e+00
    outer loop
        vertex -6.000000e+00 4.350000e+01 -1.050000e+01
        vertex -6.000000e+00 4.359200e+01 -9.801188e+00
        vertex -6.000000e+00 4.407496e+01 -9.930598e+00
    endloop
endfacet
facet normal -1.000000e+00 0.000000e+00 0.000000e+00
    outer loop
        vertex -6.000000e+00 4.350000e+01 -1.050000e+01
        vertex -6.000000e+00 4.407496e+01 -9.930598e+00
        vertex -6.000000e+00 4.400000e+01 -1.050000e+01
    endloop
endfacet
facet normal -1.000000e+00 0.000000e+00 0.000000e+00
    outer loop
        vertex -6.000000e+00 4.350000e+01 -1.050000e+01
        vertex -6.000000e+00 4.400000e+01 -1.050000e+01
        vertex -6.000000e+00 4.359200e+01 -1.119881e+01
    endloop
endfacet
facet normal -1.000000e+00 0.000000e+00 0.000000e+00
    outer loop
        vertex -6.000000e+00 4.359200e+01 -1.119881e+01
        vertex -6.000000e+00 4.400000e+01 -1.050000e+01
        vertex -6.000000e+00 4.407496e+01 -1.106940e+01
    endloop
endfacet
facet normal -1.000000e+00 0.000000e+00 0.000000e+00
    outer loop
        vertex -6.000000e+00 4.359200e+01 -1.119881e+01
        vertex -6.000000e+00 4.407496e+01 -1.106940e+01
        vertex -6.000000e+00 4.386173e+01 -1.185000e+01
    endloop
endfacet
facet normal -1.000000e+00 0.000000e+00 0.000000e+00
    outer loop
        vertex -6.000000e+00 4.386173e+01 -1.185000e+01
        vertex -6.000000e+00 4.407496e+01 -1.106940e+01
        vertex -6.000000e+00 4.429475e+01 -1.160000e+01
    endloop
endfacet
facet normal -1.000000e+00 0.000000e+00 0.000000e+00
    outer loop
        vertex -6.000000e+00 4.386173e+01 -1.185000e+01
        vertex -6.000000e+00 4.429475e+01 -1.160000e+01
        vertex -6.000000e+00 4.429081e+01 -1.240919e+01
    endloop
endfacet
facet normal -1.000000e+00 0.000000e+00 0.000000e+00
    outer loop
        vertex -6.000000e+00 4.429081e+01 -1.240919e+01
        vertex -6.000000e+00 4.429475e+01 -1.160000e+01
        vertex -6.000000e+00 4.464437e+01 -1.205563e+01
    endloop
endfacet
facet normal -1.000000e+00 0.000000e+00 0.000000e+00
    outer loop
        vertex -6.000000e+00 4.429081e+01 -1.240919e+01
        vertex -6.000000e+00 4.464437e+01 -1.205563e+01
        vertex -6.000000e+00 4.485000e+01 -1.283827e+01
    endloop
endfacet
facet normal -1.000000e+00 0.000000e+00 0.000000e+00
    outer loop
        vertex -6.000000e+00 4.464437e+01 -1.205563e+01
        vertex -6.000000e+00 4.510000e+01 -1.240526e+01
        vertex -6.000000e+00 4.485000e+01 -1.283827e+01
    endloop
endfacet
facet normal -1.000000e+00 0.000000e+00 0.000000e+00
    outer loop
        vertex -6.000000e+00 4.485000e+01 -1.283827e+01
        vertex -6.000000e+00 4.510000e+01 -1.240526e+01
        vertex -6.000000e+00 4.550119e+01 -1.310800e+01
    endloop
endfacet
facet normal -1.000000e+00 0.000000e+00 0.000000e+00
    outer loop
        vertex -6.000000e+00 4.510000e+01 -1.240526e+01
        vertex -6.000000e+00 4.563060e+01 -1.262504e+01
        vertex -6.000000e+00 4.550119e+01 -1.310800e+01
    endloop
endfacet
facet normal -1.000000e+00 0.000000e+00 0.000000e+00
    outer loop
        vertex -6.000000e+00 4.550119e+01 -1.310800e+01
        vertex -6.000000e+00 4.563060e+01 -1.262504e+01
        vertex -6.000000e+00 4.580913e+01 -1.314854e+01
    endloop
endfacet
facet normal -1.000000e+00 0.000000e+00 0.000000e+00
    outer loop
        vertex -6.000000e+00 4.359400e+01 -2.668496e+00
        vertex -6.000000e+00 4.584374e+01 -2.190299e+00
        vertex -6.000000e+00 4.584137e+01 -3.622079e+00
    endloop
endfacet
facet normal -1.000000e+00 0.000000e+00 0.000000e+00
    outer loop
        vertex -6.000000e+00 4.359400e+01 -2.668496e+00
        vertex -6.000000e+00 4.584137e+01 -3.622079e+00
        vertex -6.000000e+00 4.477401e+01 -8.220037e+00
    endloop
endfacet
facet normal -1.000000e+00 0.000000e+00 0.000000e+00
    outer loop
        vertex -6.000000e+00 4.477401e+01 -8.220037e+00
        vertex -6.000000e+00 4.584137e+01 -3.622079e+00
        vertex -6.000000e+00 4.674466e+01 -7.871706e+00
    endloop
endfacet
facet normal -1.000000e+00 0.000000e+00 0.000000e+00
    outer loop
        vertex -6.000000e+00 4.563060e+01 -1.262504e+01
        vertex -6.000000e+00 4.620000e+01 -1.270000e+01
        vertex -6.000000e+00 4.580913e+01 -1.314854e+01
    endloop
endfacet
facet normal -1.000000e+00 0.000000e+00 0.000000e+00
    outer loop
        vertex -6.000000e+00 4.580913e+01 -1.314854e+01
        vertex -6.000000e+00 4.620000e+01 -1.270000e+01
        vertex -6.000000e+00 4.676940e+01 -1.262504e+01
    endloop
endfacet
facet normal -1.000000e+00 0.000000e+00 0.000000e+00
    outer loop
        vertex -6.000000e+00 4.477401e+01 -8.220037e+00
        vertex -6.000000e+00 4.674466e+01 -7.871706e+00
        vertex -6.000000e+00 4.510000e+01 -8.594744e+00
    endloop
endfacet
facet normal -1.000000e+00 0.000000e+00 0.000000e+00
    outer loop
        vertex -6.000000e+00 5.845736e+01 -3.023839e+01
        vertex -6.000000e+00 6.405327e+01 -2.588118e+01
        vertex -6.000000e+00 6.465179e+01 -2.708217e+01
    endloop
endfacet
facet normal -1.000000e+00 0.000000e+00 0.000000e+00
    outer loop
        vertex -6.000000e+00 4.958479e+01 -2.238118e+01
        vertex -6.000000e+00 6.405327e+01 -2.588118e+01
        vertex -6.000000e+00 5.845736e+01 -3.023839e+01
    endloop
endfacet
facet normal -1.000000e+00 0.000000e+00 0.000000e+00
    outer loop
        vertex -6.000000e+00 4.914828e+01 -3.024237e+01
        vertex -6.000000e+00 4.958479e+01 -2.238118e+01
        vertex -6.000000e+00 5.845736e+01 -3.023839e+01
    endloop
endfacet
facet normal -1.000000e+00 0.000000e+00 0.000000e+00
    outer loop
        vertex -6.000000e+00 4.580913e+01 -1.314854e+01
        vertex -6.000000e+00 4.958479e+01 -2.238118e+01
        vertex -6.000000e+00 4.914828e+01 -3.024237e+01
    endloop
endfacet
facet normal -1.000000e+00 0.000000e+00 0.000000e+00
    outer loop
        vertex -6.000000e+00 4.580913e+01 -1.314854e+01
        vertex -6.000000e+00 4.774759e+01 -1.268665e+01
        vertex -6.000000e+00 4.958479e+01 -2.238118e+01
    endloop
endfacet
facet normal -1.000000e+00 0.000000e+00 0.000000e+00
    outer loop
        vertex -6.000000e+00 4.580913e+01 -1.314854e+01
        vertex -6.000000e+00 4.676940e+01 -1.262504e+01
        vertex -6.000000e+00 4.774759e+01 -1.268665e+01
    endloop
endfacet
facet normal -1.000000e+00 0.000000e+00 0.000000e+00
    outer loop
        vertex -6.000000e+00 4.676940e+01 -1.262504e+01
        vertex -6.000000e+00 4.730000e+01 -1.240526e+01
        vertex -6.000000e+00 4.774759e+01 -1.268665e+01
    endloop
endfacet
facet normal -1.000000e+00 0.000000e+00 0.000000e+00
    outer loop
        vertex -6.000000e+00 4.730000e+01 -1.240526e+01
        vertex -6.000000e+00 4.775563e+01 -1.205563e+01
        vertex -6.000000e+00 4.774759e+01 -1.268665e+01
    endloop
endfacet
facet normal -1.000000e+00 0.000000e+00 0.000000e+00
    outer loop
        vertex -6.000000e+00 4.774759e+01 -1.268665e+01
        vertex -6.000000e+00 4.775563e+01 -1.205563e+01
        vertex -6.000000e+00 4.810919e+01 -1.240919e+01
    endloop
endfacet
facet normal -1.000000e+00 0.000000e+00 0.000000e+00
    outer loop
        vertex -6.000000e+00 4.775563e+01 -1.205563e+01
        vertex -6.000000e+00 4.853827e+01 -1.185000e+01
        vertex -6.000000e+00 4.810919e+01 -1.240919e+01
    endloop
endfacet
facet normal -1.000000e+00 0.000000e+00 0.000000e+00
    outer loop
        vertex -6.000000e+00 4.775563e+01 -1.205563e+01
        vertex -6.000000e+00 4.810526e+01 -1.160000e+01
        vertex -6.000000e+00 4.853827e+01 -1.185000e+01
    endloop
endfacet
facet normal -1.000000e+00 0.000000e+00 0.000000e+00
    outer loop
        vertex -6.000000e+00 4.810526e+01 -1.160000e+01
        vertex -6.000000e+00 4.880800e+01 -1.119881e+01
        vertex -6.000000e+00 4.853827e+01 -1.185000e+01
    endloop
endfacet
facet normal -1.000000e+00 0.000000e+00 0.000000e+00
    outer loop
        vertex -6.000000e+00 4.810526e+01 -1.160000e+01
        vertex -6.000000e+00 4.832504e+01 -1.106940e+01
        vertex -6.000000e+00 4.880800e+01 -1.119881e+01
    endloop
endfacet
facet normal -1.000000e+00 0.000000e+00 0.000000e+00
    outer loop
        vertex -6.000000e+00 4.832504e+01 -1.106940e+01
        vertex -6.000000e+00 4.890000e+01 -1.050000e+01
        vertex -6.000000e+00 4.880800e+01 -1.119881e+01
    endloop
endfacet
facet normal -1.000000e+00 0.000000e+00 0.000000e+00
    outer loop
        vertex -6.000000e+00 4.832504e+01 -1.106940e+01
        vertex -6.000000e+00 4.840000e+01 -1.050000e+01
        vertex -6.000000e+00 4.890000e+01 -1.050000e+01
    endloop
endfacet
facet normal -1.000000e+00 0.000000e+00 0.000000e+00
    outer loop
        vertex -6.000000e+00 4.840000e+01 -1.050000e+01
        vertex -6.000000e+00 4.880800e+01 -9.801188e+00
        vertex -6.000000e+00 4.890000e+01 -1.050000e+01
    endloop
endfacet
facet normal -1.000000e+00 0.000000e+00 0.000000e+00
    outer loop
        vertex -6.000000e+00 4.832504e+01 -9.930598e+00
        vertex -6.000000e+00 4.880800e+01 -9.801188e+00
        vertex -6.000000e+00 4.840000e+01 -1.050000e+01
    endloop
endfacet
facet normal -1.000000e+00 0.000000e+00 0.000000e+00
    outer loop
        vertex -6.000000e+00 4.832504e+01 -9.930598e+00
        vertex -6.000000e+00 4.853827e+01 -9.150000e+00
        vertex -6.000000e+00 4.880800e+01 -9.801188e+00
    endloop
endfacet
facet normal -1.000000e+00 0.000000e+00 0.000000e+00
    outer loop
        vertex -6.000000e+00 4.810526e+01 -9.400000e+00
        vertex -6.000000e+00 4.853827e+01 -9.150000e+00
        vertex -6.000000e+00 4.832504e+01 -9.930598e+00
    endloop
endfacet
facet normal -1.000000e+00 0.000000e+00 0.000000e+00
    outer loop
        vertex -6.000000e+00 4.810526e+01 -9.400000e+00
        vertex -6.000000e+00 4.810919e+01 -8.590812e+00
        vertex -6.000000e+00 4.853827e+01 -9.150000e+00
    endloop
endfacet
facet normal -1.000000e+00 0.000000e+00 0.000000e+00
    outer loop
        vertex -6.000000e+00 4.775563e+01 -8.944366e+00
        vertex -6.000000e+00 4.810919e+01 -8.590812e+00
        vertex -6.000000e+00 4.810526e+01 -9.400000e+00
    endloop
endfacet
facet normal -1.000000e+00 0.000000e+00 0.000000e+00
    outer loop
        vertex -6.000000e+00 4.755000e+01 -8.161732e+00
        vertex -6.000000e+00 4.810919e+01 -8.590812e+00
        vertex -6.000000e+00 4.775563e+01 -8.944366e+00
    endloop
endfacet
facet normal -1.000000e+00 0.000000e+00 0.000000e+00
    outer loop
        vertex -6.000000e+00 4.730000e+01 -8.594744e+00
        vertex -6.000000e+00 4.755000e+01 -8.161732e+00
        vertex -6.000000e+00 4.775563e+01 -8.944366e+00
    endloop
endfacet
facet normal -1.000000e+00 0.000000e+00 0.000000e+00
    outer loop
        vertex -6.000000e+00 4.689881e+01 -7.892000e+00
        vertex -6.000000e+00 4.755000e+01 -8.161732e+00
        vertex -6.000000e+00 4.730000e+01 -8.594744e+00
    endloop
endfacet
facet normal -1.000000e+00 0.000000e+00 0.000000e+00
    outer loop
        vertex -6.000000e+00 4.676940e+01 -8.374963e+00
        vertex -6.000000e+00 4.689881e+01 -7.892000e+00
        vertex -6.000000e+00 4.730000e+01 -8.594744e+00
    endloop
endfacet
facet normal -1.000000e+00 0.000000e+00 0.000000e+00
    outer loop
        vertex -6.000000e+00 4.674466e+01 -7.871706e+00
        vertex -6.000000e+00 4.689881e+01 -7.892000e+00
        vertex -6.000000e+00 4.676940e+01 -8.374963e+00
    endloop
endfacet
facet normal -1.000000e+00 0.000000e+00 0.000000e+00
    outer loop
        vertex -6.000000e+00 4.620000e+01 -8.300000e+00
        vertex -6.000000e+00 4.674466e+01 -7.871706e+00
        vertex -6.000000e+00 4.676940e+01 -8.374963e+00
    endloop
endfacet
facet normal -1.000000e+00 0.000000e+00 0.000000e+00
    outer loop
        vertex -6.000000e+00 4.563060e+01 -8.374963e+00
        vertex -6.000000e+00 4.674466e+01 -7.871706e+00
        vertex -6.000000e+00 4.620000e+01 -8.300000e+00
    endloop
endfacet
facet normal -1.000000e+00 0.000000e+00 0.000000e+00
    outer loop
        vertex -6.000000e+00 4.510000e+01 -8.594744e+00
        vertex -6.000000e+00 4.674466e+01 -7.871706e+00
        vertex -6.000000e+00 4.563060e+01 -8.374963e+00
    endloop
endfacet
facet normal 0.000000e+00 4.539904e-01 -8.910066e-01
    outer loop
        vertex -6.000000e+00 5.845736e+01 -3.023839e+01
        vertex -6.000000e+00 6.465179e+01 -2.708217e+01
        vertex 6.000000e+00 6.465179e+01 -2.708217e+01
    endloop
endfacet
facet normal 0.000000e+00 4.539904e-01 -8.910066e-01
    outer loop
        vertex 6.000000e+00 5.845736e+01 -3.023839e+01
        vertex -6.000000e+00 5.845736e+01 -3.023839e+01
        vertex 6.000000e+00 6.465179e+01 -2.708217e+01
    endloop
endfacet
facet normal 7.372470e-07 2.351243e-01 9.719653e-01
    outer loop
        vertex 6.000000e+00 4.958479e+01 -2.238118e+01
        vertex 2.828427e+00 5.287926e+01 -2.317813e+01
        vertex 2.000000e+00 5.225753e+01 -2.302773e+01
    endloop
endfacet
facet normal -4.243326e-07 2.351232e-01 9.719656e-01
    outer loop
        vertex 6.000000e+00 4.958479e+01 -2.238118e+01
        vertex 3.464102e+00 5.368952e+01 -2.337413e+01
        vertex 2.828427e+00 5.287926e+01 -2.317813e+01
    endloop
endfacet
facet normal -2.682438e-07 2.351229e-01 9.719657e-01
    outer loop
        vertex 6.000000e+00 4.958479e+01 -2.238118e+01
        vertex 2.000000e+00 5.225753e+01 -2.302773e+01
        vertex 1.035276e+00 5.186670e+01 -2.293318e+01
    endloop
endfacet
facet normal -0.000000e+00 2.351234e-01 9.719655e-01
    outer loop
        vertex -6.000000e+00 4.958479e+01 -2.238118e+01
        vertex 6.000000e+00 4.958479e+01 -2.238118e+01
        vertex 1.035276e+00 5.186670e+01 -2.293318e+01
    endloop
endfacet
facet normal 8.867860e-07 2.351240e-01 9.719654e-01
    outer loop
        vertex 6.000000e+00 4.958479e+01 -2.238118e+01
        vertex 3.863703e+00 5.463308e+01 -2.360239e+01
        vertex 3.464102e+00 5.368952e+01 -2.337413e+01
    endloop
endfacet
facet normal -2.936698e-07 2.351235e-01 9.719655e-01
    outer loop
        vertex 6.000000e+00 4.958479e+01 -2.238118e+01
        vertex 6.000000e+00 6.405327e+01 -2.588118e+01
        vertex 3.863703e+00 5.463308e+01 -2.360239e+01
    endloop
endfacet
facet normal -6.915659e-07 2.351255e-01 9.719650e-01
    outer loop
        vertex -6.000000e+00 4.958479e+01 -2.238118e+01
        vertex 1.035276e+00 5.186670e+01 -2.293318e+01
        vertex 0.000000e+00 5.173339e+01 -2.290094e+01
    endloop
endfacet
facet normal 3.257555e-07 2.351228e-01 9.719657e-01
    outer loop
        vertex -6.000000e+00 4.958479e+01 -2.238118e+01
        vertex 0.000000e+00 5.173339e+01 -2.290094e+01
        vertex -1.035276e+00 5.186670e+01 -2.293318e+01
    endloop
endfacet
facet normal 2.682438e-07 2.351229e-01 9.719657e-01
    outer loop
        vertex -6.000000e+00 4.958479e+01 -2.238118e+01
        vertex -1.035276e+00 5.186670e+01 -2.293318e+01
        vertex -2.000000e+00 5.225753e+01 -2.302773e+01
    endloop
endfacet
facet normal -7.372470e-07 2.351243e-01 9.719653e-01
    outer loop
        vertex -6.000000e+00 4.958479e+01 -2.238118e+01
        vertex -2.000000e+00 5.225753e+01 -2.302773e+01
        vertex -2.828427e+00 5.287926e+01 -2.317813e+01
    endloop
endfacet
facet normal 4.243326e-07 2.351232e-01 9.719656e-01
    outer loop
        vertex -6.000000e+00 4.958479e+01 -2.238118e+01
        vertex -2.828427e+00 5.287926e+01 -2.317813e+01
        vertex -3.464102e+00 5.368952e+01 -2.337413e+01
    endloop
endfacet
facet normal -8.867860e-07 2.351240e-01 9.719654e-01
    outer loop
        vertex -6.000000e+00 4.958479e+01 -2.238118e+01
        vertex -3.464102e+00 5.368952e+01 -2.337413e+01
        vertex -3.863703e+00 5.463308e+01 -2.360239e+01
    endloop
endfacet
facet normal 2.936698e-07 2.351235e-01 9.719655e-01
    outer loop
        vertex -6.000000e+00 4.958479e+01 -2.238118e+01
        vertex -3.863703e+00 5.463308e+01 -2.360239e+01
        vertex -6.000000e+00 6.405327e+01 -2.588118e+01
    endloop
endfacet
facet normal -1.290755e-05 2.351207e-01 9.719661e-01
    outer loop
        vertex -3.863703e+00 5.463308e+01 -2.360239e+01
        vertex -4.000000e+00 5.564564e+01 -2.384733e+01
        vertex -6.000000e+00 6.405327e+01 -2.588118e+01
    endloop
endfacet
facet normal 1.336588e-06 2.351239e-01 9.719654e-01
    outer loop
        vertex -4.000000e+00 5.564564e+01 -2.384733e+01
        vertex -3.863703e+00 5.665821e+01 -2.409228e+01
        vertex -6.000000e+00 6.405327e+01 -2.588118e+01
    endloop
endfacet
facet normal -1.179122e-07 2.351235e-01 9.719655e-01
    outer loop
        vertex -3.863703e+00 5.665821e+01 -2.409228e+01
        vertex -3.464102e+00 5.760177e+01 -2.432053e+01
        vertex -6.000000e+00 6.405327e+01 -2.588118e+01
    endloop
endfacet
facet normal 3.760063e-07 2.351237e-01 9.719654e-01
    outer loop
        vertex -3.464102e+00 5.760177e+01 -2.432053e+01
        vertex -2.828427e+00 5.841202e+01 -2.451653e+01
        vertex -6.000000e+00 6.405327e+01 -2.588118e+01
    endloop
endfacet
facet normal -6.063807e-07 2.351232e-01 9.719656e-01
    outer loop
        vertex -2.828427e+00 5.841202e+01 -2.451653e+01
        vertex -2.000000e+00 5.903375e+01 -2.466693e+01
        vertex -6.000000e+00 6.405327e+01 -2.588118e+01
    endloop
endfacet
facet normal 0.000000e+00 2.351236e-01 9.719655e-01
    outer loop
        vertex -2.000000e+00 5.903375e+01 -2.466693e+01
        vertex 6.000000e+00 6.405327e+01 -2.588118e+01
        vertex -6.000000e+00 6.405327e+01 -2.588118e+01
    endloop
endfacet
facet normal 3.755784e-06 2.351180e-01 9.719669e-01
    outer loop
        vertex -2.000000e+00 5.903375e+01 -2.466693e+01
        vertex -1.035276e+00 5.942459e+01 -2.476148e+01
        vertex 6.000000e+00 6.405327e+01 -2.588118e+01
    endloop
endfacet
facet normal -1.657444e-06 2.351258e-01 9.719650e-01
    outer loop
        vertex -1.035276e+00 5.942459e+01 -2.476148e+01
        vertex 0.000000e+00 5.955789e+01 -2.479372e+01
        vertex 6.000000e+00 6.405327e+01 -2.588118e+01
    endloop
endfacet
facet normal 1.171298e-06 2.351222e-01 9.719658e-01
    outer loop
        vertex 1.035276e+00 5.942459e+01 -2.476148e+01
        vertex 6.000000e+00 6.405327e+01 -2.588118e+01
        vertex 0.000000e+00 5.955789e+01 -2.479372e+01
    endloop
endfacet
facet normal -1.005954e-06 2.351244e-01 9.719653e-01
    outer loop
        vertex 2.000000e+00 5.903375e+01 -2.466693e+01
        vertex 6.000000e+00 6.405327e+01 -2.588118e+01
        vertex 1.035276e+00 5.942459e+01 -2.476148e+01
    endloop
endfacet
facet normal 6.063807e-07 2.351232e-01 9.719656e-01
    outer loop
        vertex 2.828427e+00 5.841202e+01 -2.451653e+01
        vertex 6.000000e+00 6.405327e+01 -2.588118e+01
        vertex 2.000000e+00 5.903375e+01 -2.466693e+01
    endloop
endfacet
facet normal -3.760063e-07 2.351237e-01 9.719654e-01
    outer loop
        vertex 3.464102e+00 5.760177e+01 -2.432053e+01
        vertex 6.000000e+00 6.405327e+01 -2.588118e+01
        vertex 2.828427e+00 5.841202e+01 -2.451653e+01
    endloop
endfacet
facet normal 1.179122e-07 2.351235e-01 9.719655e-01
    outer loop
        vertex 3.863703e+00 5.665821e+01 -2.409228e+01
        vertex 6.000000e+00 6.405327e+01 -2.588118e+01
        vertex 3.464102e+00 5.760177e+01 -2.432053e+01
    endloop
endfacet
facet normal -1.336588e-06 2.351239e-01 9.719654e-01
    outer loop
        vertex 4.000000e+00 5.564564e+01 -2.384733e+01
        vertex 6.000000e+00 6.405327e+01 -2.588118e+01
        vertex 3.863703e+00 5.665821e+01 -2.409228e+01
    endloop
endfacet
facet normal 1.290755e-05 2.351207e-01 9.719661e-01
    outer loop
        vertex 3.863703e+00 5.463308e+01 -2.360239e+01
        vertex 6.000000e+00 6.405327e+01 -2.588118e+01
        vertex 4.000000e+00 5.564564e+01 -2.384733e+01
    endloop
endfacet
facet normal -1.136133e-05 3.420199e-01 9.396927e-01
    outer loop
        vertex 3.863703e+00 5.330403e+01 -2.725392e+01
        vertex 4.000000e+00 5.427687e+01 -2.760800e+01
        vertex 3.863703e+00 5.524971e+01 -2.796209e+01
    endloop
endfacet
facet normal 1.207090e-06 3.420199e-01 9.396927e-01
    outer loop
        vertex 3.863703e+00 5.330403e+01 -2.725392e+01
        vertex 3.863703e+00 5.524971e+01 -2.796209e+01
        vertex 3.464102e+00 5.615625e+01 -2.829204e+01
    endloop
endfacet
facet normal 2.778673e-06 3.420201e-01 9.396926e-01
    outer loop
        vertex 3.464102e+00 5.239748e+01 -2.692396e+01
        vertex 3.863703e+00 5.330403e+01 -2.725392e+01
        vertex 3.464102e+00 5.615625e+01 -2.829204e+01
    endloop
endfacet
facet normal -6.095849e-07 3.420201e-01 9.396926e-01
    outer loop
        vertex 3.464102e+00 5.239748e+01 -2.692396e+01
        vertex 3.464102e+00 5.615625e+01 -2.829204e+01
        vertex 2.828427e+00 5.693472e+01 -2.857538e+01
    endloop
endfacet
facet normal 4.310418e-07 3.420202e-01 9.396926e-01
    outer loop
        vertex 2.828427e+00 5.161902e+01 -2.664062e+01
        vertex 3.464102e+00 5.239748e+01 -2.692396e+01
        vertex 2.828427e+00 5.693472e+01 -2.857538e+01
    endloop
endfacet
facet normal 1.076200e-06 3.420202e-01 9.396926e-01
    outer loop
        vertex 2.828427e+00 5.161902e+01 -2.664062e+01
        vertex 2.828427e+00 5.693472e+01 -2.857538e+01
        vertex 2.000000e+00 5.753206e+01 -2.879279e+01
    endloop
endfacet
facet normal -8.787129e-07 3.420200e-01 9.396927e-01
    outer loop
        vertex 2.000000e+00 5.102168e+01 -2.642321e+01
        vertex 2.828427e+00 5.161902e+01 -2.664062e+01
        vertex 2.000000e+00 5.753206e+01 -2.879279e+01
    endloop
endfacet
facet normal -9.144292e-07 3.420200e-01 9.396927e-01
    outer loop
        vertex 2.000000e+00 5.102168e+01 -2.642321e+01
        vertex 2.000000e+00 5.753206e+01 -2.879279e+01
        vertex 1.035276e+00 5.790756e+01 -2.892947e+01
    endloop
endfacet
facet normal 8.198546e-07 3.420202e-01 9.396926e-01
    outer loop
        vertex 1.035276e+00 5.064618e+01 -2.628654e+01
        vertex 2.000000e+00 5.102168e+01 -2.642321e+01
        vertex 1.035276e+00 5.790756e+01 -2.892947e+01
    endloop
endfacet
facet normal 1.047229e-06 3.420202e-01 9.396926e-01
    outer loop
        vertex 1.035276e+00 5.064618e+01 -2.628654e+01
        vertex 1.035276e+00 5.790756e+01 -2.892947e+01
        vertex 0.000000e+00 5.803564e+01 -2.897608e+01
    endloop
endfacet
facet normal -1.011545e-06 3.420199e-01 9.396927e-01
    outer loop
        vertex 0.000000e+00 5.051810e+01 -2.623992e+01
        vertex 1.035276e+00 5.064618e+01 -2.628654e+01
        vertex 0.000000e+00 5.803564e+01 -2.897608e+01
    endloop
endfacet
facet normal -1.011545e-06 3.420199e-01 9.396927e-01
    outer loop
        vertex 0.000000e+00 5.051810e+01 -2.623992e+01
        vertex 0.000000e+00 5.803564e+01 -2.897608e+01
        vertex -1.035276e+00 5.790756e+01 -2.892947e+01
    endloop
endfacet
facet normal 1.047229e-06 3.420202e-01 9.396926e-01
    outer loop
        vertex 0.000000e+00 5.051810e+01 -2.623992e+01
        vertex -1.035276e+00 5.790756e+01 -2.892947e+01
        vertex -1.035276e+00 5.064618e+01 -2.628654e+01
    endloop
endfacet
facet normal 8.198546e-07 3.420202e-01 9.396926e-01
    outer loop
        vertex -1.035276e+00 5.064618e+01 -2.628654e+01
        vertex -1.035276e+00 5.790756e+01 -2.892947e+01
        vertex -2.000000e+00 5.753206e+01 -2.879279e+01
    endloop
endfacet
facet normal -9.144292e-07 3.420200e-01 9.396927e-01
    outer loop
        vertex -1.035276e+00 5.064618e+01 -2.628654e+01
        vertex -2.000000e+00 5.753206e+01 -2.879279e+01
        vertex -2.000000e+00 5.102168e+01 -2.642321e+01
    endloop
endfacet
facet normal -8.787129e-07 3.420200e-01 9.396927e-01
    outer loop
        vertex -2.000000e+00 5.102168e+01 -2.642321e+01
        vertex -2.000000e+00 5.753206e+01 -2.879279e+01
        vertex -2.828427e+00 5.693472e+01 -2.857538e+01
    endloop
endfacet
facet normal 1.076200e-06 3.420202e-01 9.396926e-01
    outer loop
        vertex -2.000000e+00 5.102168e+01 -2.642321e+01
        vertex -2.828427e+00 5.693472e+01 -2.857538e+01
        vertex -2.828427e+00 5.161902e+01 -2.664062e+01
    endloop
endfacet
facet normal 4.310418e-07 3.420202e-01 9.396926e-01
    outer loop
        vertex -2.828427e+00 5.161902e+01 -2.664062e+01
        vertex -2.828427e+00 5.693472e+01 -2.857538e+01
        vertex -3.464102e+00 5.615625e+01 -2.829204e+01
    endloop
endfacet
facet normal -6.095849e-07 3.420201e-01 9.396926e-01
    outer loop
        vertex -2.828427e+00 5.161902e+01 -2.664062e+01
        vertex -3.464102e+00 5.615625e+01 -2.829204e+01
        vertex -3.464102e+00 5.239748e+01 -2.692396e+01
    endloop
endfacet
facet normal -1.706597e-06 3.420201e-01 9.396926e-01
    outer loop
        vertex -3.464102e+00 5.239748e+01 -2.692396e+01
        vertex -3.464102e+00 5.615625e+01 -2.829204e+01
        vertex -3.863703e+00 5.524971e+01 -2.796209e+01
    endloop
endfacet
facet normal 1.136133e-05 3.420199e-01 9.396927e-01
    outer loop
        vertex -3.863703e+00 5.330403e+01 -2.725392e+01
        vertex -3.863703e+00 5.524971e+01 -2.796209e+01
        vertex -4.000000e+00 5.427687e+01 -2.760800e+01
    endloop
endfacet
facet normal -3.278180e-06 3.420199e-01 9.396927e-01
    outer loop
        vertex -3.464102e+00 5.239748e+01 -2.692396e+01
        vertex -3.863703e+00 5.524971e+01 -2.796209e+01
        vertex -3.863703e+00 5.330403e+01 -2.725392e+01
    endloop
endfacet
facet normal -9.914449e-01 -1.226545e-01 4.464259e-02
    outer loop
        vertex 3.863703e+00 5.524971e+01 -2.796209e+01
        vertex 4.000000e+00 5.564564e+01 -2.384733e+01
        vertex 3.863703e+00 5.665821e+01 -2.409228e+01
    endloop
endfacet
facet normal -9.914448e-01 -1.226548e-01 4.464262e-02
    outer loop
        vertex 4.000000e+00 5.427687e+01 -2.760800e+01
        vertex 4.000000e+00 5.564564e+01 -2.384733e+01
        vertex 3.863703e+00 5.524971e+01 -2.796209e+01
    endloop
endfacet
facet normal -9.238797e-01 -3.596045e-01 1.308855e-01
    outer loop
        vertex 3.464102e+00 5.615625e+01 -2.829204e+01
        vertex 3.863703e+00 5.665821e+01 -2.409228e+01
        vertex 3.464102e+00 5.760177e+01 -2.432053e+01
    endloop
endfacet
facet normal -9.238794e-01 -3.596049e-01 1.308855e-01
    outer loop
        vertex 3.863703e+00 5.524971e+01 -2.796209e+01
        vertex 3.863703e+00 5.665821e+01 -2.409228e+01
        vertex 3.464102e+00 5.615625e+01 -2.829204e+01
    endloop
endfacet
facet normal -7.933531e-01 -5.720488e-01 2.082091e-01
    outer loop
        vertex 2.828427e+00 5.693472e+01 -2.857538e+01
        vertex 3.464102e+00 5.760177e+01 -2.432053e+01
        vertex 2.828427e+00 5.841202e+01 -2.451653e+01
    endloop
endfacet
facet normal -7.933528e-01 -5.720492e-01 2.082092e-01
    outer loop
        vertex 3.464102e+00 5.615625e+01 -2.829204e+01
        vertex 3.464102e+00 5.760177e+01 -2.432053e+01
        vertex 2.828427e+00 5.693472e+01 -2.857538e+01
    endloop
endfacet
facet normal -6.087619e-01 -7.455080e-01 2.713425e-01
    outer loop
        vertex 2.828427e+00 5.693472e+01 -2.857538e+01
        vertex 2.000000e+00 5.903375e+01 -2.466693e+01
        vertex 2.000000e+00 5.753206e+01 -2.879279e+01
    endloop
endfacet
facet normal -6.087596e-01 -7.455094e-01 2.713438e-01
    outer loop
        vertex 2.828427e+00 5.693472e+01 -2.857538e+01
        vertex 2.828427e+00 5.841202e+01 -2.451653e+01
        vertex 2.000000e+00 5.903375e+01 -2.466693e+01
    endloop
endfacet
facet normal -3.826844e-01 -8.681623e-01 3.159856e-01
    outer loop
        vertex 2.000000e+00 5.753206e+01 -2.879279e+01
        vertex 1.035276e+00 5.942459e+01 -2.476148e+01
        vertex 1.035276e+00 5.790756e+01 -2.892947e+01
    endloop
endfacet
facet normal -3.826863e-01 -8.681617e-01 3.159848e-01
    outer loop
        vertex 2.000000e+00 5.753206e+01 -2.879279e+01
        vertex 2.000000e+00 5.903375e+01 -2.466693e+01
        vertex 1.035276e+00 5.942459e+01 -2.476148e+01
    endloop
endfacet
facet normal -1.305273e-01 -9.316535e-01 3.390935e-01
    outer loop
        vertex 1.035276e+00 5.790756e+01 -2.892947e+01
        vertex 0.000000e+00 5.955789e+01 -2.479372e+01
        vertex 0.000000e+00 5.803564e+01 -2.897608e+01
    endloop
endfacet
facet normal -1.305237e-01 -9.316536e-01 3.390945e-01
    outer loop
        vertex 1.035276e+00 5.790756e+01 -2.892947e+01
        vertex 1.035276e+00 5.942459e+01 -2.476148e+01
        vertex 0.000000e+00 5.955789e+01 -2.479372e+01
    endloop
endfacet
facet normal 1.305273e-01 -9.316535e-01 3.390935e-01
    outer loop
        vertex -1.035276e+00 5.790756e+01 -2.892947e+01
        vertex 0.000000e+00 5.803564e+01 -2.897608e+01
        vertex 0.000000e+00 5.955789e+01 -2.479372e+01
    endloop
endfacet
facet normal 1.305237e-01 -9.316536e-01 3.390945e-01
    outer loop
        vertex -1.035276e+00 5.790756e+01 -2.892947e+01
        vertex 0.000000e+00 5.955789e+01 -2.479372e+01
        vertex -1.035276e+00 5.942459e+01 -2.476148e+01
    endloop
endfacet
facet normal 3.826844e-01 -8.681623e-01 3.159856e-01
    outer loop
        vertex -2.000000e+00 5.753206e+01 -2.879279e+01
        vertex -1.035276e+00 5.790756e+01 -2.892947e+01
        vertex -1.035276e+00 5.942459e+01 -2.476148e+01
    endloop
endfacet
facet normal 3.826863e-01 -8.681617e-01 3.159848e-01
    outer loop
        vertex -2.000000e+00 5.753206e+01 -2.879279e+01
        vertex -1.035276e+00 5.942459e+01 -2.476148e+01
        vertex -2.000000e+00 5.903375e+01 -2.466693e+01
    endloop
endfacet
facet normal 6.087619e-01 -7.455080e-01 2.713425e-01
    outer loop
        vertex -2.828427e+00 5.693472e+01 -2.857538e+01
        vertex -2.000000e+00 5.753206e+01 -2.879279e+01
        vertex -2.000000e+00 5.903375e+01 -2.466693e+01
    endloop
endfacet
facet normal 6.087596e-01 -7.455094e-01 2.713438e-01
    outer loop
        vertex -2.828427e+00 5.693472e+01 -2.857538e+01
        vertex -2.000000e+00 5.903375e+01 -2.466693e+01
        vertex -2.828427e+00 5.841202e+01 -2.451653e+01
    endloop
endfacet
facet normal 7.933531e-01 -5.720488e-01 2.082091e-01
    outer loop
        vertex -2.828427e+00 5.693472e+01 -2.857538e+01
        vertex -2.828427e+00 5.841202e+01 -2.451653e+01
        vertex -3.464102e+00 5.760177e+01 -2.432053e+01
    endloop
endfacet
facet normal 7.933528e-01 -5.720492e-01 2.082092e-01
    outer loop
        vertex -3.464102e+00 5.615625e+01 -2.829204e+01
        vertex -2.828427e+00 5.693472e+01 -2.857538e+01
        vertex -3.464102e+00 5.760177e+01 -2.432053e+01
    endloop
endfacet
facet normal 9.238797e-01 -3.596045e-01 1.308855e-01
    outer loop
        vertex -3.464102e+00 5.615625e+01 -2.829204e+01
        vertex -3.464102e+00 5.760177e+01 -2.432053e+01
        vertex -3.863703e+00 5.665821e+01 -2.409228e+01
    endloop
endfacet
facet normal 9.238794e-01 -3.596049e-01 1.308855e-01
    outer loop
        vertex -3.863703e+00 5.524971e+01 -2.796209e+01
        vertex -3.464102e+00 5.615625e+01 -2.829204e+01
        vertex -3.863703e+00 5.665821e+01 -2.409228e+01
    endloop
endfacet
facet normal 9.914449e-01 -1.226545e-01 4.464259e-02
    outer loop
        vertex -3.863703e+00 5.524971e+01 -2.796209e+01
        vertex -3.863703e+00 5.665821e+01 -2.409228e+01
        vertex -4.000000e+00 5.564564e+01 -2.384733e+01
    endloop
endfacet
facet normal 9.914448e-01 -1.226548e-01 4.464262e-02
    outer loop
        vertex -4.000000e+00 5.427687e+01 -2.760800e+01
        vertex -3.863703e+00 5.524971e+01 -2.796209e+01
        vertex -4.000000e+00 5.564564e+01 -2.384733e+01
    endloop
endfacet
facet normal 9.914448e-01 1.226546e-01 -4.464255e-02
    outer loop
        vertex -4.000000e+00 5.427687e+01 -2.760800e+01
        vertex -4.000000e+00 5.564564e+01 -2.384733e+01
        vertex -3.863703e+00 5.463308e+01 -2.360239e+01
    endloop
endfacet
facet normal 9.914449e-01 1.226544e-01 -4.464254e-02
    outer loop
        vertex -3.863703e+00 5.330403e+01 -2.725392e+01
        vertex -4.000000e+00 5.427687e+01 -2.760800e+01
        vertex -3.863703e+00 5.463308e+01 -2.360239e+01
    endloop
endfacet
facet normal 9.238791e-01 3.596057e-01 -1.308857e-01
    outer loop
        vertex -3.863703e+00 5.330403e+01 -2.725392e+01
        vertex -3.863703e+00 5.463308e+01 -2.360239e+01
        vertex -3.464102e+00 5.368952e+01 -2.337413e+01
    endloop
endfacet
facet normal 9.238796e-01 3.596046e-01 -1.308856e-01
    outer loop
        vertex -3.464102e+00 5.239748e+01 -2.692396e+01
        vertex -3.863703e+00 5.330403e+01 -2.725392e+01
        vertex -3.464102e+00 5.368952e+01 -2.337413e+01
    endloop
endfacet
facet normal 7.933544e-01 5.720472e-01 -2.082086e-01
    outer loop
        vertex -3.464102e+00 5.239748e+01 -2.692396e+01
        vertex -3.464102e+00 5.368952e+01 -2.337413e+01
        vertex -2.828427e+00 5.287926e+01 -2.317813e+01
    endloop
endfacet
facet normal 7.933528e-01 5.720494e-01 -2.082086e-01
    outer loop
        vertex -2.828427e+00 5.161902e+01 -2.664062e+01
        vertex -3.464102e+00 5.239748e+01 -2.692396e+01
        vertex -2.828427e+00 5.287926e+01 -2.317813e+01
    endloop
endfacet
facet normal 6.087619e-01 7.455081e-01 -2.713423e-01
    outer loop
        vertex -2.000000e+00 5.102168e+01 -2.642321e+01
        vertex -2.828427e+00 5.161902e+01 -2.664062e+01
        vertex -2.828427e+00 5.287926e+01 -2.317813e+01
    endloop
endfacet
facet normal 6.087600e-01 7.455092e-01 -2.713434e-01
    outer loop
        vertex -2.000000e+00 5.102168e+01 -2.642321e+01
        vertex -2.828427e+00 5.287926e+01 -2.317813e+01
        vertex -2.000000e+00 5.225753e+01 -2.302773e+01
    endloop
endfacet
facet normal 3.826844e-01 8.681623e-01 -3.159855e-01
    outer loop
        vertex -1.035276e+00 5.064618e+01 -2.628654e+01
        vertex -2.000000e+00 5.102168e+01 -2.642321e+01
        vertex -2.000000e+00 5.225753e+01 -2.302773e+01
    endloop
endfacet
facet normal 3.826858e-01 8.681619e-01 -3.159849e-01
    outer loop
        vertex -1.035276e+00 5.064618e+01 -2.628654e+01
        vertex -2.000000e+00 5.225753e+01 -2.302773e+01
        vertex -1.035276e+00 5.186670e+01 -2.293318e+01
    endloop
endfacet
facet normal 1.305273e-01 9.316534e-01 -3.390939e-01
    outer loop
        vertex 0.000000e+00 5.051810e+01 -2.623992e+01
        vertex -1.035276e+00 5.064618e+01 -2.628654e+01
        vertex -1.035276e+00 5.186670e+01 -2.293318e+01
    endloop
endfacet
facet normal 1.305276e-01 9.316534e-01 -3.390937e-01
    outer loop
        vertex 0.000000e+00 5.051810e+01 -2.623992e+01
        vertex -1.035276e+00 5.186670e+01 -2.293318e+01
        vertex 0.000000e+00 5.173339e+01 -2.290094e+01
    endloop
endfacet
facet normal -1.305273e-01 9.316534e-01 -3.390939e-01
    outer loop
        vertex 0.000000e+00 5.051810e+01 -2.623992e+01
        vertex 1.035276e+00 5.186670e+01 -2.293318e+01
        vertex 1.035276e+00 5.064618e+01 -2.628654e+01
    endloop
endfacet
facet normal -1.305276e-01 9.316534e-01 -3.390937e-01
    outer loop
        vertex 0.000000e+00 5.051810e+01 -2.623992e+01
        vertex 0.000000e+00 5.173339e+01 -2.290094e+01
        vertex 1.035276e+00 5.186670e+01 -2.293318e+01
    endloop
endfacet
facet normal -3.826844e-01 8.681623e-01 -3.159855e-01
    outer loop
        vertex 1.035276e+00 5.064618e+01 -2.628654e+01
        vertex 2.000000e+00 5.225753e+01 -2.302773e+01
        vertex 2.000000e+00 5.102168e+01 -2.642321e+01
    endloop
endfacet
facet normal -3.826858e-01 8.681619e-01 -3.159849e-01
    outer loop
        vertex 1.035276e+00 5.064618e+01 -2.628654e+01
        vertex 1.035276e+00 5.186670e+01 -2.293318e+01
        vertex 2.000000e+00 5.225753e+01 -2.302773e+01
    endloop
endfacet
facet normal -6.087619e-01 7.455081e-01 -2.713423e-01
    outer loop
        vertex 2.000000e+00 5.102168e+01 -2.642321e+01
        vertex 2.828427e+00 5.287926e+01 -2.317813e+01
        vertex 2.828427e+00 5.161902e+01 -2.664062e+01
    endloop
endfacet
facet normal -6.087600e-01 7.455092e-01 -2.713434e-01
    outer loop
        vertex 2.000000e+00 5.102168e+01 -2.642321e+01
        vertex 2.000000e+00 5.225753e+01 -2.302773e+01
        vertex 2.828427e+00 5.287926e+01 -2.317813e+01
    endloop
endfacet
facet normal -7.933544e-01 5.720472e-01 -2.082086e-01
    outer loop
        vertex 3.464102e+00 5.239748e+01 -2.692396e+01
        vertex 2.828427e+00 5.287926e+01 -2.317813e+01
        vertex 3.464102e+00 5.368952e+01 -2.337413e+01
    endloop
endfacet
facet normal -7.933528e-01 5.720494e-01 -2.082086e-01
    outer loop
        vertex 2.828427e+00 5.161902e+01 -2.664062e+01
        vertex 2.828427e+00 5.287926e+01 -2.317813e+01
        vertex 3.464102e+00 5.239748e+01 -2.692396e+01
    endloop
endfacet
facet normal -9.238796e-01 3.596046e-01 -1.308856e-01
    outer loop
        vertex 3.464102e+00 5.239748e+01 -2.692396e+01
        vertex 3.464102e+00 5.368952e+01 -2.337413e+01
        vertex 3.863703e+00 5.330403e+01 -2.725392e+01
    endloop
endfacet
facet normal -9.238791e-01 3.596057e-01 -1.308857e-01
    outer loop
        vertex 3.863703e+00 5.330403e+01 -2.725392e+01
        vertex 3.464102e+00 5.368952e+01 -2.337413e+01
        vertex 3.863703e+00 5.463308e+01 -2.360239e+01
    endloop
endfacet
facet normal -9.914449e-01 1.226544e-01 -4.464254e-02
    outer loop
        vertex 3.863703e+00 5.330403e+01 -2.725392e+01
        vertex 3.863703e+00 5.463308e+01 -2.360239e+01
        vertex 4.000000e+00 5.427687e+01 -2.760800e+01
    endloop
endfacet
facet normal -9.914448e-01 1.226546e-01 -4.464255e-02
    outer loop
        vertex 4.000000e+00 5.427687e+01 -2.760800e+01
        vertex 3.863703e+00 5.463308e+01 -2.360239e+01
        vertex 4.000000e+00 5.564564e+01 -2.384733e+01
    endloop
endfacet
endsolid disconnector.stl
