solid selector-pin.stl
facet normal -1.000000e+00 0.000000e+00 0.000000e+00
    outer loop
        vertex -1.150000e+01 1.100000e+02 -3.600000e+01
        vertex -1.150000e+01 1.120000e+02 -3.546410e+01
        vertex -1.150000e+01 1.110353e+02 -3.586371e+01
    endloop
endfacet
facet normal -1.000000e+00 0.000000e+00 0.000000e+00
    outer loop
        vertex -1.150000e+01 1.089647e+02 -3.586371e+01
        vertex -1.150000e+01 1.120000e+02 -3.546410e+01
        vertex -1.150000e+01 1.100000e+02 -3.600000e+01
    endloop
endfacet
facet normal -1.000000e+00 0.000000e+00 0.000000e+00
    outer loop
        vertex -1.150000e+01 1.080000e+02 -3.546410e+01
        vertex -1.150000e+01 1.120000e+02 -3.546410e+01
        vertex -1.150000e+01 1.089647e+02 -3.586371e+01
    endloop
endfacet
facet normal -1.000000e+00 0.000000e+00 0.000000e+00
    outer loop
        vertex -1.150000e+01 1.080000e+02 -3.546410e+01
        vertex -1.150000e+01 1.128284e+02 -3.482843e+01
        vertex -1.150000e+01 1.120000e+02 -3.546410e+01
    endloop
endfacet
facet normal -1.000000e+00 0.000000e+00 0.000000e+00
    outer loop
        vertex -1.150000e+01 1.080000e+02 -3.546410e+01
        vertex -1.150000e+01 1.134641e+02 -3.400000e+01
        vertex -1.150000e+01 1.128284e+02 -3.482843e+01
    endloop
endfacet
facet normal -1.000000e+00 0.000000e+00 0.000000e+00
    outer loop
        vertex -1.150000e+01 1.080000e+02 -3.546410e+01
        vertex -1.150000e+01 1.138637e+02 -3.303527e+01
        vertex -1.150000e+01 1.134641e+02 -3.400000e+01
    endloop
endfacet
facet normal -1.000000e+00 0.000000e+00 0.000000e+00
    outer loop
        vertex -1.150000e+01 1.080000e+02 -3.546410e+01
        vertex -1.150000e+01 1.140000e+02 -3.200000e+01
        vertex -1.150000e+01 1.138637e+02 -3.303527e+01
    endloop
endfacet
facet normal -1.000000e+00 0.000000e+00 0.000000e+00
    outer loop
        vertex -1.150000e+01 1.080000e+02 -3.546410e+01
        vertex -1.150000e+01 1.138637e+02 -3.096472e+01
        vertex -1.150000e+01 1.140000e+02 -3.200000e+01
    endloop
endfacet
facet normal -1.000000e+00 0.000000e+00 0.000000e+00
    outer loop
        vertex -1.150000e+01 1.080000e+02 -3.546410e+01
        vertex -1.150000e+01 1.134641e+02 -3.000000e+01
        vertex -1.150000e+01 1.138637e+02 -3.096472e+01
    endloop
endfacet
facet normal -1.000000e+00 0.000000e+00 0.000000e+00
    outer loop
        vertex -1.150000e+01 1.080000e+02 -3.546410e+01
        vertex -1.150000e+01 1.128284e+02 -2.917157e+01
        vertex -1.150000e+01 1.134641e+02 -3.000000e+01
    endloop
endfacet
facet normal -1.000000e+00 0.000000e+00 0.000000e+00
    outer loop
        vertex -1.150000e+01 1.080000e+02 -3.546410e+01
        vertex -1.150000e+01 1.120000e+02 -2.853590e+01
        vertex -1.150000e+01 1.128284e+02 -2.917157e+01
    endloop
endfacet
facet normal -1.000000e+00 0.000000e+00 0.000000e+00
    outer loop
        vertex -1.150000e+01 1.071716e+02 -3.482843e+01
        vertex -1.150000e+01 1.120000e+02 -2.853590e+01
        vertex -1.150000e+01 1.080000e+02 -3.546410e+01
    endloop
endfacet
facet normal -1.000000e+00 0.000000e+00 0.000000e+00
    outer loop
        vertex -1.150000e+01 1.065359e+02 -3.400000e+01
        vertex -1.150000e+01 1.120000e+02 -2.853590e+01
        vertex -1.150000e+01 1.071716e+02 -3.482843e+01
    endloop
endfacet
facet normal -1.000000e+00 0.000000e+00 0.000000e+00
    outer loop
        vertex -1.150000e+01 1.061363e+02 -3.303528e+01
        vertex -1.150000e+01 1.120000e+02 -2.853590e+01
        vertex -1.150000e+01 1.065359e+02 -3.400000e+01
    endloop
endfacet
facet normal -1.000000e+00 0.000000e+00 0.000000e+00
    outer loop
        vertex -1.150000e+01 1.060000e+02 -3.200000e+01
        vertex -1.150000e+01 1.120000e+02 -2.853590e+01
        vertex -1.150000e+01 1.061363e+02 -3.303528e+01
    endloop
endfacet
facet normal -1.000000e+00 0.000000e+00 0.000000e+00
    outer loop
        vertex -1.150000e+01 1.060000e+02 -3.200000e+01
        vertex -1.150000e+01 1.061363e+02 -3.096472e+01
        vertex -1.150000e+01 1.120000e+02 -2.853590e+01
    endloop
endfacet
facet normal -1.000000e+00 0.000000e+00 0.000000e+00
    outer loop
        vertex -1.150000e+01 1.061363e+02 -3.096472e+01
        vertex -1.150000e+01 1.065359e+02 -3.000000e+01
        vertex -1.150000e+01 1.120000e+02 -2.853590e+01
    endloop
endfacet
facet normal -1.000000e+00 0.000000e+00 0.000000e+00
    outer loop
        vertex -1.150000e+01 1.065359e+02 -3.000000e+01
        vertex -1.150000e+01 1.071716e+02 -2.917157e+01
        vertex -1.150000e+01 1.120000e+02 -2.853590e+01
    endloop
endfacet
facet normal -1.000000e+00 0.000000e+00 0.000000e+00
    outer loop
        vertex -1.150000e+01 1.071716e+02 -2.917157e+01
        vertex -1.150000e+01 1.080000e+02 -2.853590e+01
        vertex -1.150000e+01 1.120000e+02 -2.853590e+01
    endloop
endfacet
facet normal -1.000000e+00 0.000000e+00 0.000000e+00
    outer loop
        vertex -1.150000e+01 1.080000e+02 -2.853590e+01
        vertex -1.150000e+01 1.089647e+02 -2.813630e+01
        vertex -1.150000e+01 1.120000e+02 -2.853590e+01
    endloop
endfacet
facet normal -1.000000e+00 0.000000e+00 0.000000e+00
    outer loop
        vertex -1.150000e+01 1.089647e+02 -2.813630e+01
        vertex -1.150000e+01 1.100000e+02 -2.800000e+01
        vertex -1.150000e+01 1.110353e+02 -2.813630e+01
    endloop
endfacet
facet normal -1.000000e+00 0.000000e+00 0.000000e+00
    outer loop
        vertex -1.150000e+01 1.089647e+02 -2.813630e+01
        vertex -1.150000e+01 1.110353e+02 -2.813630e+01
        vertex -1.150000e+01 1.120000e+02 -2.853590e+01
    endloop
endfacet
facet normal 0.000000e+00 -1.305282e-01 9.914446e-01
    outer loop
        vertex -1.150000e+01 1.089647e+02 -2.813630e+01
        vertex 1.150000e+01 1.089647e+02 -2.813630e+01
        vertex 1.150000e+01 1.100000e+02 -2.800000e+01
    endloop
endfacet
facet normal 0.000000e+00 -1.305282e-01 9.914446e-01
    outer loop
        vertex -1.150000e+01 1.089647e+02 -2.813630e+01
        vertex 1.150000e+01 1.100000e+02 -2.800000e+01
        vertex -1.150000e+01 1.100000e+02 -2.800000e+01
    endloop
endfacet
facet normal 0.000000e+00 -3.826804e-01 9.238808e-01
    outer loop
        vertex -1.150000e+01 1.080000e+02 -2.853590e+01
        vertex 1.150000e+01 1.080000e+02 -2.853590e+01
        vertex 1.150000e+01 1.089647e+02 -2.813630e+01
    endloop
endfacet
facet normal 0.000000e+00 -3.826804e-01 9.238808e-01
    outer loop
        vertex -1.150000e+01 1.080000e+02 -2.853590e+01
        vertex 1.150000e+01 1.089647e+02 -2.813630e+01
        vertex -1.150000e+01 1.089647e+02 -2.813630e+01
    endloop
endfacet
facet normal 0.000000e+00 -6.087595e-01 7.933549e-01
    outer loop
        vertex -1.150000e+01 1.071716e+02 -2.917157e+01
        vertex 1.150000e+01 1.071716e+02 -2.917157e+01
        vertex 1.150000e+01 1.080000e+02 -2.853590e+01
    endloop
endfacet
facet normal 0.000000e+00 -6.087595e-01 7.933549e-01
    outer loop
        vertex -1.150000e+01 1.071716e+02 -2.917157e+01
        vertex 1.150000e+01 1.080000e+02 -2.853590e+01
        vertex -1.150000e+01 1.080000e+02 -2.853590e+01
    endloop
endfacet
facet normal 0.000000e+00 -7.933549e-01 6.087595e-01
    outer loop
        vertex -1.150000e+01 1.065359e+02 -3.000000e+01
        vertex 1.150000e+01 1.065359e+02 -3.000000e+01
        vertex 1.150000e+01 1.071716e+02 -2.917157e+01
    endloop
endfacet
facet normal 0.000000e+00 -7.933549e-01 6.087595e-01
    outer loop
        vertex -1.150000e+01 1.065359e+02 -3.000000e+01
        vertex 1.150000e+01 1.071716e+02 -2.917157e+01
        vertex -1.150000e+01 1.071716e+02 -2.917157e+01
    endloop
endfacet
facet normal 0.000000e+00 -9.238808e-01 3.826804e-01
    outer loop
        vertex -1.150000e+01 1.061363e+02 -3.096472e+01
        vertex 1.150000e+01 1.061363e+02 -3.096472e+01
        vertex 1.150000e+01 1.065359e+02 -3.000000e+01
    endloop
endfacet
facet normal 0.000000e+00 -9.238808e-01 3.826804e-01
    outer loop
        vertex -1.150000e+01 1.061363e+02 -3.096472e+01
        vertex 1.150000e+01 1.065359e+02 -3.000000e+01
        vertex -1.150000e+01 1.065359e+02 -3.000000e+01
    endloop
endfacet
facet normal 0.000000e+00 -9.914446e-01 1.305282e-01
    outer loop
        vertex -1.150000e+01 1.060000e+02 -3.200000e+01
        vertex 1.150000e+01 1.060000e+02 -3.200000e+01
        vertex 1.150000e+01 1.061363e+02 -3.096472e+01
    endloop
endfacet
facet normal 0.000000e+00 -9.914446e-01 1.305282e-01
    outer loop
        vertex -1.150000e+01 1.060000e+02 -3.200000e+01
        vertex 1.150000e+01 1.061363e+02 -3.096472e+01
        vertex -1.150000e+01 1.061363e+02 -3.096472e+01
    endloop
endfacet
facet normal 0.000000e+00 -9.914446e-01 -1.305282e-01
    outer loop
        vertex 1.150000e+01 1.060000e+02 -3.200000e+01
        vertex -1.150000e+01 1.061363e+02 -3.303528e+01
        vertex 1.150000e+01 1.061363e+02 -3.303528e+01
    endloop
endfacet
facet normal 0.000000e+00 -9.914446e-01 -1.305282e-01
    outer loop
        vertex -1.150000e+01 1.060000e+02 -3.200000e+01
        vertex -1.150000e+01 1.061363e+02 -3.303528e+01
        vertex 1.150000e+01 1.060000e+02 -3.200000e+01
    endloop
endfacet
facet normal 0.000000e+00 -9.238808e-01 -3.826804e-01
    outer loop
        vertex 1.150000e+01 1.061363e+02 -3.303528e+01
        vertex -1.150000e+01 1.065359e+02 -3.400000e+01
        vertex 1.150000e+01 1.065359e+02 -3.400000e+01
    endloop
endfacet
facet normal 0.000000e+00 -9.238808e-01 -3.826804e-01
    outer loop
        vertex -1.150000e+01 1.061363e+02 -3.303528e+01
        vertex -1.150000e+01 1.065359e+02 -3.400000e+01
        vertex 1.150000e+01 1.061363e+02 -3.303528e+01
    endloop
endfacet
facet normal 0.000000e+00 -7.933549e-01 -6.087595e-01
    outer loop
        vertex 1.150000e+01 1.065359e+02 -3.400000e+01
        vertex -1.150000e+01 1.071716e+02 -3.482843e+01
        vertex 1.150000e+01 1.071716e+02 -3.482843e+01
    endloop
endfacet
facet normal 0.000000e+00 -7.933549e-01 -6.087595e-01
    outer loop
        vertex -1.150000e+01 1.065359e+02 -3.400000e+01
        vertex -1.150000e+01 1.071716e+02 -3.482843e+01
        vertex 1.150000e+01 1.065359e+02 -3.400000e+01
    endloop
endfacet
facet normal 0.000000e+00 -6.087548e-01 -7.933584e-01
    outer loop
        vertex 1.150000e+01 1.071716e+02 -3.482843e+01
        vertex -1.150000e+01 1.080000e+02 -3.546410e+01
        vertex 1.150000e+01 1.080000e+02 -3.546410e+01
    endloop
endfacet
facet normal 0.000000e+00 -6.087548e-01 -7.933584e-01
    outer loop
        vertex -1.150000e+01 1.071716e+02 -3.482843e+01
        vertex -1.150000e+01 1.080000e+02 -3.546410e+01
        vertex 1.150000e+01 1.071716e+02 -3.482843e+01
    endloop
endfacet
facet normal 0.000000e+00 -3.826929e-01 -9.238756e-01
    outer loop
        vertex 1.150000e+01 1.080000e+02 -3.546410e+01
        vertex -1.150000e+01 1.089647e+02 -3.586371e+01
        vertex 1.150000e+01 1.089647e+02 -3.586371e+01
    endloop
endfacet
facet normal 0.000000e+00 -3.826929e-01 -9.238756e-01
    outer loop
        vertex -1.150000e+01 1.080000e+02 -3.546410e+01
        vertex -1.150000e+01 1.089647e+02 -3.586371e+01
        vertex 1.150000e+01 1.080000e+02 -3.546410e+01
    endloop
endfacet
facet normal 0.000000e+00 -1.305210e-01 -9.914455e-01
    outer loop
        vertex 1.150000e+01 1.089647e+02 -3.586371e+01
        vertex -1.150000e+01 1.100000e+02 -3.600000e+01
        vertex 1.150000e+01 1.100000e+02 -3.600000e+01
    endloop
endfacet
facet normal 0.000000e+00 -1.305210e-01 -9.914455e-01
    outer loop
        vertex -1.150000e+01 1.089647e+02 -3.586371e+01
        vertex -1.150000e+01 1.100000e+02 -3.600000e+01
        vertex 1.150000e+01 1.089647e+02 -3.586371e+01
    endloop
endfacet
facet normal 0.000000e+00 9.914455e-01 1.305210e-01
    outer loop
        vertex -7.000000e+00 1.138637e+02 -3.096472e+01
        vertex -1.150000e+01 1.140000e+02 -3.200000e+01
        vertex -1.150000e+01 1.138637e+02 -3.096472e+01
    endloop
endfacet
facet normal 0.000000e+00 9.914455e-01 1.305210e-01
    outer loop
        vertex -7.000000e+00 1.138637e+02 -3.096472e+01
        vertex -7.000000e+00 1.140000e+02 -3.200000e+01
        vertex -1.150000e+01 1.140000e+02 -3.200000e+01
    endloop
endfacet
facet normal -0.000000e+00 9.914455e-01 1.305210e-01
    outer loop
        vertex 7.000000e+00 1.138637e+02 -3.096472e+01
        vertex 1.150000e+01 1.138637e+02 -3.096472e+01
        vertex 1.150000e+01 1.140000e+02 -3.200000e+01
    endloop
endfacet
facet normal 0.000000e+00 9.914455e-01 1.305210e-01
    outer loop
        vertex 7.000000e+00 1.138637e+02 -3.096472e+01
        vertex 1.150000e+01 1.140000e+02 -3.200000e+01
        vertex 7.000000e+00 1.140000e+02 -3.200000e+01
    endloop
endfacet
facet normal 0.000000e+00 9.238808e-01 3.826804e-01
    outer loop
        vertex -7.000000e+00 1.134641e+02 -3.000000e+01
        vertex -1.150000e+01 1.138637e+02 -3.096472e+01
        vertex -1.150000e+01 1.134641e+02 -3.000000e+01
    endloop
endfacet
facet normal 0.000000e+00 9.238808e-01 3.826804e-01
    outer loop
        vertex -7.000000e+00 1.134641e+02 -3.000000e+01
        vertex -7.000000e+00 1.138637e+02 -3.096472e+01
        vertex -1.150000e+01 1.138637e+02 -3.096472e+01
    endloop
endfacet
facet normal -0.000000e+00 9.238808e-01 3.826804e-01
    outer loop
        vertex 7.000000e+00 1.134641e+02 -3.000000e+01
        vertex 1.150000e+01 1.134641e+02 -3.000000e+01
        vertex 1.150000e+01 1.138637e+02 -3.096472e+01
    endloop
endfacet
facet normal 0.000000e+00 9.238808e-01 3.826804e-01
    outer loop
        vertex 7.000000e+00 1.134641e+02 -3.000000e+01
        vertex 1.150000e+01 1.138637e+02 -3.096472e+01
        vertex 7.000000e+00 1.138637e+02 -3.096472e+01
    endloop
endfacet
facet normal 0.000000e+00 7.933514e-01 6.087641e-01
    outer loop
        vertex -7.000000e+00 1.128284e+02 -2.917157e+01
        vertex -1.150000e+01 1.134641e+02 -3.000000e+01
        vertex -1.150000e+01 1.128284e+02 -2.917157e+01
    endloop
endfacet
facet normal 0.000000e+00 7.933514e-01 6.087641e-01
    outer loop
        vertex -7.000000e+00 1.128284e+02 -2.917157e+01
        vertex -7.000000e+00 1.134641e+02 -3.000000e+01
        vertex -1.150000e+01 1.134641e+02 -3.000000e+01
    endloop
endfacet
facet normal -0.000000e+00 7.933514e-01 6.087641e-01
    outer loop
        vertex 7.000000e+00 1.128284e+02 -2.917157e+01
        vertex 1.150000e+01 1.128284e+02 -2.917157e+01
        vertex 1.150000e+01 1.134641e+02 -3.000000e+01
    endloop
endfacet
facet normal 0.000000e+00 7.933514e-01 6.087641e-01
    outer loop
        vertex 7.000000e+00 1.128284e+02 -2.917157e+01
        vertex 1.150000e+01 1.134641e+02 -3.000000e+01
        vertex 7.000000e+00 1.134641e+02 -3.000000e+01
    endloop
endfacet
facet normal 0.000000e+00 6.087595e-01 7.933549e-01
    outer loop
        vertex -7.000000e+00 1.120000e+02 -2.853590e+01
        vertex -1.150000e+01 1.128284e+02 -2.917157e+01
        vertex -1.150000e+01 1.120000e+02 -2.853590e+01
    endloop
endfacet
facet normal 0.000000e+00 6.087595e-01 7.933549e-01
    outer loop
        vertex -7.000000e+00 1.120000e+02 -2.853590e+01
        vertex -7.000000e+00 1.128284e+02 -2.917157e+01
        vertex -1.150000e+01 1.128284e+02 -2.917157e+01
    endloop
endfacet
facet normal -0.000000e+00 6.087595e-01 7.933549e-01
    outer loop
        vertex 7.000000e+00 1.120000e+02 -2.853590e+01
        vertex 1.150000e+01 1.120000e+02 -2.853590e+01
        vertex 1.150000e+01 1.128284e+02 -2.917157e+01
    endloop
endfacet
facet normal 0.000000e+00 6.087595e-01 7.933549e-01
    outer loop
        vertex 7.000000e+00 1.120000e+02 -2.853590e+01
        vertex 1.150000e+01 1.128284e+02 -2.917157e+01
        vertex 7.000000e+00 1.128284e+02 -2.917157e+01
    endloop
endfacet
facet normal 0.000000e+00 3.826804e-01 9.238808e-01
    outer loop
        vertex -7.000000e+00 1.110353e+02 -2.813630e+01
        vertex -1.150000e+01 1.120000e+02 -2.853590e+01
        vertex -1.150000e+01 1.110353e+02 -2.813630e+01
    endloop
endfacet
facet normal 0.000000e+00 3.826804e-01 9.238808e-01
    outer loop
        vertex -7.000000e+00 1.110353e+02 -2.813630e+01
        vertex -7.000000e+00 1.120000e+02 -2.853590e+01
        vertex -1.150000e+01 1.120000e+02 -2.853590e+01
    endloop
endfacet
facet normal -0.000000e+00 3.826804e-01 9.238808e-01
    outer loop
        vertex 7.000000e+00 1.110353e+02 -2.813630e+01
        vertex 1.150000e+01 1.110353e+02 -2.813630e+01
        vertex 1.150000e+01 1.120000e+02 -2.853590e+01
    endloop
endfacet
facet normal 0.000000e+00 3.826804e-01 9.238808e-01
    outer loop
        vertex 7.000000e+00 1.110353e+02 -2.813630e+01
        vertex 1.150000e+01 1.120000e+02 -2.853590e+01
        vertex 7.000000e+00 1.120000e+02 -2.853590e+01
    endloop
endfacet
facet normal 0.000000e+00 1.305282e-01 9.914446e-01
    outer loop
        vertex -7.000000e+00 1.100000e+02 -2.800000e+01
        vertex -1.150000e+01 1.110353e+02 -2.813630e+01
        vertex -1.150000e+01 1.100000e+02 -2.800000e+01
    endloop
endfacet
facet normal 0.000000e+00 1.305282e-01 9.914446e-01
    outer loop
        vertex -7.000000e+00 1.100000e+02 -2.800000e+01
        vertex -7.000000e+00 1.110353e+02 -2.813630e+01
        vertex -1.150000e+01 1.110353e+02 -2.813630e+01
    endloop
endfacet
facet normal -0.000000e+00 1.305282e-01 9.914446e-01
    outer loop
        vertex 7.000000e+00 1.100000e+02 -2.800000e+01
        vertex 1.150000e+01 1.100000e+02 -2.800000e+01
        vertex 1.150000e+01 1.110353e+02 -2.813630e+01
    endloop
endfacet
facet normal 0.000000e+00 1.305282e-01 9.914446e-01
    outer loop
        vertex 7.000000e+00 1.100000e+02 -2.800000e+01
        vertex 1.150000e+01 1.110353e+02 -2.813630e+01
        vertex 7.000000e+00 1.110353e+02 -2.813630e+01
    endloop
endfacet
facet normal 0.000000e+00 1.305210e-01 -9.914455e-01
    outer loop
        vertex -1.150000e+01 1.100000e+02 -3.600000e+01
        vertex -1.150000e+01 1.110353e+02 -3.586371e+01
        vertex -7.000000e+00 1.110353e+02 -3.586371e+01
    endloop
endfacet
facet normal 0.000000e+00 1.305210e-01 -9.914455e-01
    outer loop
        vertex -7.000000e+00 1.100000e+02 -3.600000e+01
        vertex -1.150000e+01 1.100000e+02 -3.600000e+01
        vertex -7.000000e+00 1.110353e+02 -3.586371e+01
    endloop
endfacet
facet normal 0.000000e+00 1.305210e-01 -9.914455e-01
    outer loop
        vertex 1.150000e+01 1.100000e+02 -3.600000e+01
        vertex 7.000000e+00 1.110353e+02 -3.586371e+01
        vertex 1.150000e+01 1.110353e+02 -3.586371e+01
    endloop
endfacet
facet normal 0.000000e+00 1.305210e-01 -9.914455e-01
    outer loop
        vertex 7.000000e+00 1.100000e+02 -3.600000e+01
        vertex 7.000000e+00 1.110353e+02 -3.586371e+01
        vertex 1.150000e+01 1.100000e+02 -3.600000e+01
    endloop
endfacet
facet normal 0.000000e+00 3.826929e-01 -9.238756e-01
    outer loop
        vertex -1.150000e+01 1.110353e+02 -3.586371e+01
        vertex -1.150000e+01 1.120000e+02 -3.546410e+01
        vertex -7.000000e+00 1.120000e+02 -3.546410e+01
    endloop
endfacet
facet normal 0.000000e+00 3.826929e-01 -9.238756e-01
    outer loop
        vertex -7.000000e+00 1.110353e+02 -3.586371e+01
        vertex -1.150000e+01 1.110353e+02 -3.586371e+01
        vertex -7.000000e+00 1.120000e+02 -3.546410e+01
    endloop
endfacet
facet normal 0.000000e+00 3.826929e-01 -9.238756e-01
    outer loop
        vertex 1.150000e+01 1.110353e+02 -3.586371e+01
        vertex 7.000000e+00 1.120000e+02 -3.546410e+01
        vertex 1.150000e+01 1.120000e+02 -3.546410e+01
    endloop
endfacet
facet normal 0.000000e+00 3.826929e-01 -9.238756e-01
    outer loop
        vertex 7.000000e+00 1.110353e+02 -3.586371e+01
        vertex 7.000000e+00 1.120000e+02 -3.546410e+01
        vertex 1.150000e+01 1.110353e+02 -3.586371e+01
    endloop
endfacet
facet normal 0.000000e+00 6.087548e-01 -7.933584e-01
    outer loop
        vertex -1.150000e+01 1.120000e+02 -3.546410e+01
        vertex -1.150000e+01 1.128284e+02 -3.482843e+01
        vertex -7.000000e+00 1.128284e+02 -3.482843e+01
    endloop
endfacet
facet normal 0.000000e+00 6.087548e-01 -7.933584e-01
    outer loop
        vertex -7.000000e+00 1.120000e+02 -3.546410e+01
        vertex -1.150000e+01 1.120000e+02 -3.546410e+01
        vertex -7.000000e+00 1.128284e+02 -3.482843e+01
    endloop
endfacet
facet normal 0.000000e+00 6.087548e-01 -7.933584e-01
    outer loop
        vertex 1.150000e+01 1.120000e+02 -3.546410e+01
        vertex 7.000000e+00 1.128284e+02 -3.482843e+01
        vertex 1.150000e+01 1.128284e+02 -3.482843e+01
    endloop
endfacet
facet normal 0.000000e+00 6.087548e-01 -7.933584e-01
    outer loop
        vertex 7.000000e+00 1.120000e+02 -3.546410e+01
        vertex 7.000000e+00 1.128284e+02 -3.482843e+01
        vertex 1.150000e+01 1.120000e+02 -3.546410e+01
    endloop
endfacet
facet normal 0.000000e+00 7.933514e-01 -6.087641e-01
    outer loop
        vertex -1.150000e+01 1.128284e+02 -3.482843e+01
        vertex -1.150000e+01 1.134641e+02 -3.400000e+01
        vertex -7.000000e+00 1.134641e+02 -3.400000e+01
    endloop
endfacet
facet normal 0.000000e+00 7.933514e-01 -6.087641e-01
    outer loop
        vertex -7.000000e+00 1.128284e+02 -3.482843e+01
        vertex -1.150000e+01 1.128284e+02 -3.482843e+01
        vertex -7.000000e+00 1.134641e+02 -3.400000e+01
    endloop
endfacet
facet normal 0.000000e+00 7.933514e-01 -6.087641e-01
    outer loop
        vertex 1.150000e+01 1.128284e+02 -3.482843e+01
        vertex 7.000000e+00 1.134641e+02 -3.400000e+01
        vertex 1.150000e+01 1.134641e+02 -3.400000e+01
    endloop
endfacet
facet normal 0.000000e+00 7.933514e-01 -6.087641e-01
    outer loop
        vertex 7.000000e+00 1.128284e+02 -3.482843e+01
        vertex 7.000000e+00 1.134641e+02 -3.400000e+01
        vertex 1.150000e+01 1.128284e+02 -3.482843e+01
    endloop
endfacet
facet normal 0.000000e+00 9.238818e-01 -3.826779e-01
    outer loop
        vertex -1.150000e+01 1.134641e+02 -3.400000e+01
        vertex -1.150000e+01 1.138637e+02 -3.303527e+01
        vertex -7.000000e+00 1.138637e+02 -3.303527e+01
    endloop
endfacet
facet normal 0.000000e+00 9.238818e-01 -3.826779e-01
    outer loop
        vertex -7.000000e+00 1.134641e+02 -3.400000e+01
        vertex -1.150000e+01 1.134641e+02 -3.400000e+01
        vertex -7.000000e+00 1.138637e+02 -3.303527e+01
    endloop
endfacet
facet normal 0.000000e+00 9.238818e-01 -3.826779e-01
    outer loop
        vertex 1.150000e+01 1.134641e+02 -3.400000e+01
        vertex 7.000000e+00 1.138637e+02 -3.303527e+01
        vertex 1.150000e+01 1.138637e+02 -3.303527e+01
    endloop
endfacet
facet normal 0.000000e+00 9.238818e-01 -3.826779e-01
    outer loop
        vertex 7.000000e+00 1.134641e+02 -3.400000e+01
        vertex 7.000000e+00 1.138637e+02 -3.303527e+01
        vertex 1.150000e+01 1.134641e+02 -3.400000e+01
    endloop
endfacet
facet normal 0.000000e+00 9.914454e-01 -1.305220e-01
    outer loop
        vertex -1.150000e+01 1.138637e+02 -3.303527e+01
        vertex -1.150000e+01 1.140000e+02 -3.200000e+01
        vertex -7.000000e+00 1.140000e+02 -3.200000e+01
    endloop
endfacet
facet normal 0.000000e+00 9.914454e-01 -1.305220e-01
    outer loop
        vertex -7.000000e+00 1.138637e+02 -3.303527e+01
        vertex -1.150000e+01 1.138637e+02 -3.303527e+01
        vertex -7.000000e+00 1.140000e+02 -3.200000e+01
    endloop
endfacet
facet normal 0.000000e+00 9.914454e-01 -1.305220e-01
    outer loop
        vertex 1.150000e+01 1.138637e+02 -3.303527e+01
        vertex 7.000000e+00 1.140000e+02 -3.200000e+01
        vertex 1.150000e+01 1.140000e+02 -3.200000e+01
    endloop
endfacet
facet normal 0.000000e+00 9.914454e-01 -1.305220e-01
    outer loop
        vertex 7.000000e+00 1.138637e+02 -3.303527e+01
        vertex 7.000000e+00 1.140000e+02 -3.200000e+01
        vertex 1.150000e+01 1.138637e+02 -3.303527e+01
    endloop
endfacet
facet normal 0.000000e+00 1.000000e+00 -0.000000e+00
    outer loop
        vertex 7.000000e+00 1.100000e+02 -3.600000e+01
        vertex -7.000000e+00 1.100000e+02 -2.800000e+01
        vertex 7.000000e+00 1.100000e+02 -2.800000e+01
    endloop
endfacet
facet normal 0.000000e+00 1.000000e+00 0.000000e+00
    outer loop
        vertex 7.000000e+00 1.100000e+02 -3.600000e+01
        vertex -7.000000e+00 1.100000e+02 -3.600000e+01
        vertex -7.000000e+00 1.100000e+02 -2.800000e+01
    endloop
endfacet
facet normal 1.000000e+00 0.000000e+00 0.000000e+00
    outer loop
        vertex -7.000000e+00 1.100000e+02 -3.600000e+01
        vertex -7.000000e+00 1.110353e+02 -2.813630e+01
        vertex -7.000000e+00 1.100000e+02 -2.800000e+01
    endloop
endfacet
facet normal 1.000000e+00 0.000000e+00 0.000000e+00
    outer loop
        vertex -7.000000e+00 1.100000e+02 -3.600000e+01
        vertex -7.000000e+00 1.110353e+02 -3.586371e+01
        vertex -7.000000e+00 1.110353e+02 -2.813630e+01
    endloop
endfacet
facet normal 1.000000e+00 0.000000e+00 0.000000e+00
    outer loop
        vertex -7.000000e+00 1.110353e+02 -3.586371e+01
        vertex -7.000000e+00 1.120000e+02 -3.546410e+01
        vertex -7.000000e+00 1.110353e+02 -2.813630e+01
    endloop
endfacet
facet normal 1.000000e+00 0.000000e+00 0.000000e+00
    outer loop
        vertex -7.000000e+00 1.110353e+02 -2.813630e+01
        vertex -7.000000e+00 1.120000e+02 -3.546410e+01
        vertex -7.000000e+00 1.128284e+02 -3.482843e+01
    endloop
endfacet
facet normal 1.000000e+00 0.000000e+00 0.000000e+00
    outer loop
        vertex -7.000000e+00 1.110353e+02 -2.813630e+01
        vertex -7.000000e+00 1.128284e+02 -3.482843e+01
        vertex -7.000000e+00 1.134641e+02 -3.400000e+01
    endloop
endfacet
facet normal 1.000000e+00 0.000000e+00 0.000000e+00
    outer loop
        vertex -7.000000e+00 1.110353e+02 -2.813630e+01
        vertex -7.000000e+00 1.134641e+02 -3.400000e+01
        vertex -7.000000e+00 1.138637e+02 -3.303527e+01
    endloop
endfacet
facet normal 1.000000e+00 0.000000e+00 0.000000e+00
    outer loop
        vertex -7.000000e+00 1.110353e+02 -2.813630e+01
        vertex -7.000000e+00 1.138637e+02 -3.303527e+01
        vertex -7.000000e+00 1.120000e+02 -2.853590e+01
    endloop
endfacet
facet normal 1.000000e+00 0.000000e+00 0.000000e+00
    outer loop
        vertex -7.000000e+00 1.120000e+02 -2.853590e+01
        vertex -7.000000e+00 1.138637e+02 -3.303527e+01
        vertex -7.000000e+00 1.128284e+02 -2.917157e+01
    endloop
endfacet
facet normal 1.000000e+00 0.000000e+00 0.000000e+00
    outer loop
        vertex -7.000000e+00 1.128284e+02 -2.917157e+01
        vertex -7.000000e+00 1.138637e+02 -3.303527e+01
        vertex -7.000000e+00 1.140000e+02 -3.200000e+01
    endloop
endfacet
facet normal 1.000000e+00 0.000000e+00 0.000000e+00
    outer loop
        vertex -7.000000e+00 1.128284e+02 -2.917157e+01
        vertex -7.000000e+00 1.140000e+02 -3.200000e+01
        vertex -7.000000e+00 1.138637e+02 -3.096472e+01
    endloop
endfacet
facet normal 1.000000e+00 0.000000e+00 0.000000e+00
    outer loop
        vertex -7.000000e+00 1.128284e+02 -2.917157e+01
        vertex -7.000000e+00 1.138637e+02 -3.096472e+01
        vertex -7.000000e+00 1.134641e+02 -3.000000e+01
    endloop
endfacet
facet normal -1.000000e+00 0.000000e+00 0.000000e+00
    outer loop
        vertex 7.000000e+00 1.100000e+02 -3.600000e+01
        vertex 7.000000e+00 1.100000e+02 -2.800000e+01
        vertex 7.000000e+00 1.110353e+02 -2.813630e+01
    endloop
endfacet
facet normal -1.000000e+00 0.000000e+00 0.000000e+00
    outer loop
        vertex 7.000000e+00 1.100000e+02 -3.600000e+01
        vertex 7.000000e+00 1.110353e+02 -2.813630e+01
        vertex 7.000000e+00 1.110353e+02 -3.586371e+01
    endloop
endfacet
facet normal -1.000000e+00 0.000000e+00 0.000000e+00
    outer loop
        vertex 7.000000e+00 1.110353e+02 -3.586371e+01
        vertex 7.000000e+00 1.110353e+02 -2.813630e+01
        vertex 7.000000e+00 1.120000e+02 -3.546410e+01
    endloop
endfacet
facet normal -1.000000e+00 0.000000e+00 0.000000e+00
    outer loop
        vertex 7.000000e+00 1.110353e+02 -2.813630e+01
        vertex 7.000000e+00 1.128284e+02 -3.482843e+01
        vertex 7.000000e+00 1.120000e+02 -3.546410e+01
    endloop
endfacet
facet normal -1.000000e+00 0.000000e+00 0.000000e+00
    outer loop
        vertex 7.000000e+00 1.110353e+02 -2.813630e+01
        vertex 7.000000e+00 1.134641e+02 -3.400000e+01
        vertex 7.000000e+00 1.128284e+02 -3.482843e+01
    endloop
endfacet
facet normal -1.000000e+00 0.000000e+00 0.000000e+00
    outer loop
        vertex 7.000000e+00 1.110353e+02 -2.813630e+01
        vertex 7.000000e+00 1.138637e+02 -3.303527e+01
        vertex 7.000000e+00 1.134641e+02 -3.400000e+01
    endloop
endfacet
facet normal -1.000000e+00 0.000000e+00 0.000000e+00
    outer loop
        vertex 7.000000e+00 1.110353e+02 -2.813630e+01
        vertex 7.000000e+00 1.120000e+02 -2.853590e+01
        vertex 7.000000e+00 1.138637e+02 -3.303527e+01
    endloop
endfacet
facet normal -1.000000e+00 0.000000e+00 0.000000e+00
    outer loop
        vertex 7.000000e+00 1.120000e+02 -2.853590e+01
        vertex 7.000000e+00 1.128284e+02 -2.917157e+01
        vertex 7.000000e+00 1.138637e+02 -3.303527e+01
    endloop
endfacet
facet normal -1.000000e+00 0.000000e+00 0.000000e+00
    outer loop
        vertex 7.000000e+00 1.128284e+02 -2.917157e+01
        vertex 7.000000e+00 1.140000e+02 -3.200000e+01
        vertex 7.000000e+00 1.138637e+02 -3.303527e+01
    endloop
endfacet
facet normal -1.000000e+00 0.000000e+00 0.000000e+00
    outer loop
        vertex 7.000000e+00 1.128284e+02 -2.917157e+01
        vertex 7.000000e+00 1.134641e+02 -3.000000e+01
        vertex 7.000000e+00 1.138637e+02 -3.096472e+01
    endloop
endfacet
facet normal -1.000000e+00 0.000000e+00 0.000000e+00
    outer loop
        vertex 7.000000e+00 1.128284e+02 -2.917157e+01
        vertex 7.000000e+00 1.138637e+02 -3.096472e+01
        vertex 7.000000e+00 1.140000e+02 -3.200000e+01
    endloop
endfacet
facet normal 1.000000e+00 0.000000e+00 0.000000e+00
    outer loop
        vertex 1.150000e+01 1.116500e+02 -3.030000e+01
        vertex 1.150000e+01 1.128284e+02 -2.917157e+01
        vertex 1.150000e+01 1.120000e+02 -2.853590e+01
    endloop
endfacet
facet normal 1.000000e+00 0.000000e+00 0.000000e+00
    outer loop
        vertex 1.150000e+01 1.116500e+02 -3.030000e+01
        vertex 1.150000e+01 1.134641e+02 -3.000000e+01
        vertex 1.150000e+01 1.128284e+02 -2.917157e+01
    endloop
endfacet
facet normal 1.000000e+00 0.000000e+00 0.000000e+00
    outer loop
        vertex 1.150000e+01 1.110353e+02 -2.813630e+01
        vertex 1.150000e+01 1.116500e+02 -3.030000e+01
        vertex 1.150000e+01 1.120000e+02 -2.853590e+01
    endloop
endfacet
facet normal 1.000000e+00 0.000000e+00 0.000000e+00
    outer loop
        vertex 1.150000e+01 1.083500e+02 -3.030000e+01
        vertex 1.150000e+01 1.116500e+02 -3.030000e+01
        vertex 1.150000e+01 1.110353e+02 -2.813630e+01
    endloop
endfacet
facet normal 1.000000e+00 0.000000e+00 0.000000e+00
    outer loop
        vertex 1.150000e+01 1.116500e+02 -3.360000e+01
        vertex 1.150000e+01 1.134641e+02 -3.000000e+01
        vertex 1.150000e+01 1.116500e+02 -3.030000e+01
    endloop
endfacet
facet normal 1.000000e+00 0.000000e+00 0.000000e+00
    outer loop
        vertex 1.150000e+01 1.083500e+02 -3.030000e+01
        vertex 1.150000e+01 1.110353e+02 -2.813630e+01
        vertex 1.150000e+01 1.100000e+02 -2.800000e+01
    endloop
endfacet
facet normal 1.000000e+00 0.000000e+00 0.000000e+00
    outer loop
        vertex 1.150000e+01 1.083500e+02 -3.030000e+01
        vertex 1.150000e+01 1.100000e+02 -2.800000e+01
        vertex 1.150000e+01 1.089647e+02 -2.813630e+01
    endloop
endfacet
facet normal 1.000000e+00 -0.000000e+00 0.000000e+00
    outer loop
        vertex 1.150000e+01 1.080000e+02 -2.853590e+01
        vertex 1.150000e+01 1.083500e+02 -3.030000e+01
        vertex 1.150000e+01 1.089647e+02 -2.813630e+01
    endloop
endfacet
facet normal 1.000000e+00 -0.000000e+00 0.000000e+00
    outer loop
        vertex 1.150000e+01 1.071716e+02 -2.917157e+01
        vertex 1.150000e+01 1.083500e+02 -3.030000e+01
        vertex 1.150000e+01 1.080000e+02 -2.853590e+01
    endloop
endfacet
facet normal 1.000000e+00 -0.000000e+00 0.000000e+00
    outer loop
        vertex 1.150000e+01 1.065359e+02 -3.000000e+01
        vertex 1.150000e+01 1.083500e+02 -3.030000e+01
        vertex 1.150000e+01 1.071716e+02 -2.917157e+01
    endloop
endfacet
facet normal 1.000000e+00 0.000000e+00 0.000000e+00
    outer loop
        vertex 1.150000e+01 1.065359e+02 -3.000000e+01
        vertex 1.150000e+01 1.083500e+02 -3.360000e+01
        vertex 1.150000e+01 1.083500e+02 -3.030000e+01
    endloop
endfacet
facet normal 1.000000e+00 0.000000e+00 0.000000e+00
    outer loop
        vertex 1.150000e+01 1.116500e+02 -3.360000e+01
        vertex 1.150000e+01 1.138637e+02 -3.096472e+01
        vertex 1.150000e+01 1.134641e+02 -3.000000e+01
    endloop
endfacet
facet normal 1.000000e+00 0.000000e+00 0.000000e+00
    outer loop
        vertex 1.150000e+01 1.116500e+02 -3.360000e+01
        vertex 1.150000e+01 1.140000e+02 -3.200000e+01
        vertex 1.150000e+01 1.138637e+02 -3.096472e+01
    endloop
endfacet
facet normal 1.000000e+00 0.000000e+00 0.000000e+00
    outer loop
        vertex 1.150000e+01 1.116500e+02 -3.360000e+01
        vertex 1.150000e+01 1.138637e+02 -3.303527e+01
        vertex 1.150000e+01 1.140000e+02 -3.200000e+01
    endloop
endfacet
facet normal 1.000000e+00 -0.000000e+00 0.000000e+00
    outer loop
        vertex 1.150000e+01 1.116500e+02 -3.360000e+01
        vertex 1.150000e+01 1.134641e+02 -3.400000e+01
        vertex 1.150000e+01 1.138637e+02 -3.303527e+01
    endloop
endfacet
facet normal 1.000000e+00 0.000000e+00 0.000000e+00
    outer loop
        vertex 1.150000e+01 1.116500e+02 -3.360000e+01
        vertex 1.150000e+01 1.128284e+02 -3.482843e+01
        vertex 1.150000e+01 1.134641e+02 -3.400000e+01
    endloop
endfacet
facet normal 1.000000e+00 0.000000e+00 0.000000e+00
    outer loop
        vertex 1.150000e+01 1.116500e+02 -3.360000e+01
        vertex 1.150000e+01 1.120000e+02 -3.546410e+01
        vertex 1.150000e+01 1.128284e+02 -3.482843e+01
    endloop
endfacet
facet normal 1.000000e+00 -0.000000e+00 0.000000e+00
    outer loop
        vertex 1.150000e+01 1.083500e+02 -3.360000e+01
        vertex 1.150000e+01 1.120000e+02 -3.546410e+01
        vertex 1.150000e+01 1.116500e+02 -3.360000e+01
    endloop
endfacet
facet normal 1.000000e+00 -0.000000e+00 0.000000e+00
    outer loop
        vertex 1.150000e+01 1.061363e+02 -3.096472e+01
        vertex 1.150000e+01 1.083500e+02 -3.360000e+01
        vertex 1.150000e+01 1.065359e+02 -3.000000e+01
    endloop
endfacet
facet normal 1.000000e+00 -0.000000e+00 0.000000e+00
    outer loop
        vertex 1.150000e+01 1.060000e+02 -3.200000e+01
        vertex 1.150000e+01 1.083500e+02 -3.360000e+01
        vertex 1.150000e+01 1.061363e+02 -3.096472e+01
    endloop
endfacet
facet normal 1.000000e+00 0.000000e+00 0.000000e+00
    outer loop
        vertex 1.150000e+01 1.060000e+02 -3.200000e+01
        vertex 1.150000e+01 1.061363e+02 -3.303528e+01
        vertex 1.150000e+01 1.083500e+02 -3.360000e+01
    endloop
endfacet
facet normal 1.000000e+00 0.000000e+00 0.000000e+00
    outer loop
        vertex 1.150000e+01 1.061363e+02 -3.303528e+01
        vertex 1.150000e+01 1.065359e+02 -3.400000e+01
        vertex 1.150000e+01 1.083500e+02 -3.360000e+01
    endloop
endfacet
facet normal 1.000000e+00 -0.000000e+00 0.000000e+00
    outer loop
        vertex 1.150000e+01 1.065359e+02 -3.400000e+01
        vertex 1.150000e+01 1.071716e+02 -3.482843e+01
        vertex 1.150000e+01 1.083500e+02 -3.360000e+01
    endloop
endfacet
facet normal 1.000000e+00 -0.000000e+00 0.000000e+00
    outer loop
        vertex 1.150000e+01 1.071716e+02 -3.482843e+01
        vertex 1.150000e+01 1.080000e+02 -3.546410e+01
        vertex 1.150000e+01 1.083500e+02 -3.360000e+01
    endloop
endfacet
facet normal 1.000000e+00 -0.000000e+00 0.000000e+00
    outer loop
        vertex 1.150000e+01 1.080000e+02 -3.546410e+01
        vertex 1.150000e+01 1.089647e+02 -3.586371e+01
        vertex 1.150000e+01 1.083500e+02 -3.360000e+01
    endloop
endfacet
facet normal 1.000000e+00 0.000000e+00 0.000000e+00
    outer loop
        vertex 1.150000e+01 1.083500e+02 -3.360000e+01
        vertex 1.150000e+01 1.089647e+02 -3.586371e+01
        vertex 1.150000e+01 1.100000e+02 -3.600000e+01
    endloop
endfacet
facet normal 1.000000e+00 0.000000e+00 0.000000e+00
    outer loop
        vertex 1.150000e+01 1.083500e+02 -3.360000e+01
        vertex 1.150000e+01 1.100000e+02 -3.600000e+01
        vertex 1.150000e+01 1.110353e+02 -3.586371e+01
    endloop
endfacet
facet normal 1.000000e+00 0.000000e+00 0.000000e+00
    outer loop
        vertex 1.150000e+01 1.083500e+02 -3.360000e+01
        vertex 1.150000e+01 1.110353e+02 -3.586371e+01
        vertex 1.150000e+01 1.120000e+02 -3.546410e+01
    endloop
endfacet
facet normal 0.000000e+00 0.000000e+00 -1.000000e+00
    outer loop
        vertex 1.470000e+01 1.083500e+02 -3.360000e+01
        vertex 1.150000e+01 1.116500e+02 -3.360000e+01
        vertex 1.470000e+01 1.116500e+02 -3.360000e+01
    endloop
endfacet
facet normal 0.000000e+00 0.000000e+00 -1.000000e+00
    outer loop
        vertex 1.150000e+01 1.083500e+02 -3.360000e+01
        vertex 1.150000e+01 1.116500e+02 -3.360000e+01
        vertex 1.470000e+01 1.083500e+02 -3.360000e+01
    endloop
endfacet
facet normal 0.000000e+00 1.000000e+00 -0.000000e+00
    outer loop
        vertex 1.470000e+01 1.116500e+02 -3.360000e+01
        vertex 1.150000e+01 1.116500e+02 -3.030000e+01
        vertex 1.470000e+01 1.116500e+02 -3.030000e+01
    endloop
endfacet
facet normal 0.000000e+00 1.000000e+00 0.000000e+00
    outer loop
        vertex 1.150000e+01 1.116500e+02 -3.360000e+01
        vertex 1.150000e+01 1.116500e+02 -3.030000e+01
        vertex 1.470000e+01 1.116500e+02 -3.360000e+01
    endloop
endfacet
facet normal 0.000000e+00 -0.000000e+00 1.000000e+00
    outer loop
        vertex 1.470000e+01 1.083500e+02 -3.030000e+01
        vertex 1.470000e+01 1.116500e+02 -3.030000e+01
        vertex 1.150000e+01 1.116500e+02 -3.030000e+01
    endloop
endfacet
facet normal 0.000000e+00 0.000000e+00 1.000000e+00
    outer loop
        vertex 1.150000e+01 1.083500e+02 -3.030000e+01
        vertex 1.470000e+01 1.083500e+02 -3.030000e+01
        vertex 1.150000e+01 1.116500e+02 -3.030000e+01
    endloop
endfacet
facet normal 0.000000e+00 -1.000000e+00 0.000000e+00
    outer loop
        vertex 1.470000e+01 1.083500e+02 -3.360000e+01
        vertex 1.470000e+01 1.083500e+02 -3.030000e+01
        vertex 1.150000e+01 1.083500e+02 -3.030000e+01
    endloop
endfacet
facet normal 0.000000e+00 -1.000000e+00 0.000000e+00
    outer loop
        vertex 1.150000e+01 1.083500e+02 -3.360000e+01
        vertex 1.470000e+01 1.083500e+02 -3.360000e+01
        vertex 1.150000e+01 1.083500e+02 -3.030000e+01
    endloop
endfacet
facet normal 1.000000e+00 -0.000000e+00 0.000000e+00
    outer loop
        vertex 1.470000e+01 1.107071e+02 -3.270711e+01
        vertex 1.470000e+01 1.116500e+02 -3.360000e+01
        vertex 1.470000e+01 1.108660e+02 -3.250000e+01
    endloop
endfacet
facet normal 1.000000e+00 -0.000000e+00 0.000000e+00
    outer loop
        vertex 1.470000e+01 1.105000e+02 -3.286602e+01
        vertex 1.470000e+01 1.116500e+02 -3.360000e+01
        vertex 1.470000e+01 1.107071e+02 -3.270711e+01
    endloop
endfacet
facet normal 1.000000e+00 -0.000000e+00 0.000000e+00
    outer loop
        vertex 1.470000e+01 1.108660e+02 -3.250000e+01
        vertex 1.470000e+01 1.116500e+02 -3.360000e+01
        vertex 1.470000e+01 1.109659e+02 -3.225882e+01
    endloop
endfacet
facet normal 1.000000e+00 -0.000000e+00 0.000000e+00
    outer loop
        vertex 1.470000e+01 1.109659e+02 -3.225882e+01
        vertex 1.470000e+01 1.116500e+02 -3.360000e+01
        vertex 1.470000e+01 1.116500e+02 -3.030000e+01
    endloop
endfacet
facet normal 1.000000e+00 -0.000000e+00 0.000000e+00
    outer loop
        vertex 1.470000e+01 1.102588e+02 -3.296593e+01
        vertex 1.470000e+01 1.116500e+02 -3.360000e+01
        vertex 1.470000e+01 1.105000e+02 -3.286602e+01
    endloop
endfacet
facet normal 1.000000e+00 0.000000e+00 0.000000e+00
    outer loop
        vertex 1.470000e+01 1.083500e+02 -3.360000e+01
        vertex 1.470000e+01 1.116500e+02 -3.360000e+01
        vertex 1.470000e+01 1.102588e+02 -3.296593e+01
    endloop
endfacet
facet normal 1.000000e+00 0.000000e+00 0.000000e+00
    outer loop
        vertex 1.470000e+01 1.109659e+02 -3.225882e+01
        vertex 1.470000e+01 1.116500e+02 -3.030000e+01
        vertex 1.470000e+01 1.110000e+02 -3.200000e+01
    endloop
endfacet
facet normal 1.000000e+00 -0.000000e+00 0.000000e+00
    outer loop
        vertex 1.470000e+01 1.109659e+02 -3.174118e+01
        vertex 1.470000e+01 1.110000e+02 -3.200000e+01
        vertex 1.470000e+01 1.116500e+02 -3.030000e+01
    endloop
endfacet
facet normal 1.000000e+00 -0.000000e+00 0.000000e+00
    outer loop
        vertex 1.470000e+01 1.108660e+02 -3.150000e+01
        vertex 1.470000e+01 1.109659e+02 -3.174118e+01
        vertex 1.470000e+01 1.116500e+02 -3.030000e+01
    endloop
endfacet
facet normal 1.000000e+00 -0.000000e+00 0.000000e+00
    outer loop
        vertex 1.470000e+01 1.107071e+02 -3.129289e+01
        vertex 1.470000e+01 1.108660e+02 -3.150000e+01
        vertex 1.470000e+01 1.116500e+02 -3.030000e+01
    endloop
endfacet
facet normal 1.000000e+00 -0.000000e+00 0.000000e+00
    outer loop
        vertex 1.470000e+01 1.105000e+02 -3.113397e+01
        vertex 1.470000e+01 1.107071e+02 -3.129289e+01
        vertex 1.470000e+01 1.116500e+02 -3.030000e+01
    endloop
endfacet
facet normal 1.000000e+00 -0.000000e+00 0.000000e+00
    outer loop
        vertex 1.470000e+01 1.102588e+02 -3.103407e+01
        vertex 1.470000e+01 1.105000e+02 -3.113397e+01
        vertex 1.470000e+01 1.116500e+02 -3.030000e+01
    endloop
endfacet
facet normal 1.000000e+00 -0.000000e+00 0.000000e+00
    outer loop
        vertex 1.470000e+01 1.083500e+02 -3.030000e+01
        vertex 1.470000e+01 1.102588e+02 -3.103407e+01
        vertex 1.470000e+01 1.116500e+02 -3.030000e+01
    endloop
endfacet
facet normal 1.000000e+00 0.000000e+00 0.000000e+00
    outer loop
        vertex 1.470000e+01 1.083500e+02 -3.030000e+01
        vertex 1.470000e+01 1.100000e+02 -3.100000e+01
        vertex 1.470000e+01 1.102588e+02 -3.103407e+01
    endloop
endfacet
facet normal 1.000000e+00 0.000000e+00 0.000000e+00
    outer loop
        vertex 1.470000e+01 1.083500e+02 -3.030000e+01
        vertex 1.470000e+01 1.097412e+02 -3.103407e+01
        vertex 1.470000e+01 1.100000e+02 -3.100000e+01
    endloop
endfacet
facet normal 1.000000e+00 0.000000e+00 0.000000e+00
    outer loop
        vertex 1.470000e+01 1.083500e+02 -3.030000e+01
        vertex 1.470000e+01 1.095000e+02 -3.113397e+01
        vertex 1.470000e+01 1.097412e+02 -3.103407e+01
    endloop
endfacet
facet normal 1.000000e+00 0.000000e+00 0.000000e+00
    outer loop
        vertex 1.470000e+01 1.083500e+02 -3.030000e+01
        vertex 1.470000e+01 1.092929e+02 -3.129289e+01
        vertex 1.470000e+01 1.095000e+02 -3.113397e+01
    endloop
endfacet
facet normal 1.000000e+00 0.000000e+00 0.000000e+00
    outer loop
        vertex 1.470000e+01 1.083500e+02 -3.030000e+01
        vertex 1.470000e+01 1.091340e+02 -3.150000e+01
        vertex 1.470000e+01 1.092929e+02 -3.129289e+01
    endloop
endfacet
facet normal 1.000000e+00 0.000000e+00 0.000000e+00
    outer loop
        vertex 1.470000e+01 1.083500e+02 -3.030000e+01
        vertex 1.470000e+01 1.090341e+02 -3.174118e+01
        vertex 1.470000e+01 1.091340e+02 -3.150000e+01
    endloop
endfacet
facet normal 1.000000e+00 0.000000e+00 0.000000e+00
    outer loop
        vertex 1.470000e+01 1.083500e+02 -3.360000e+01
        vertex 1.470000e+01 1.090341e+02 -3.174118e+01
        vertex 1.470000e+01 1.083500e+02 -3.030000e+01
    endloop
endfacet
facet normal 1.000000e+00 0.000000e+00 0.000000e+00
    outer loop
        vertex 1.470000e+01 1.083500e+02 -3.360000e+01
        vertex 1.470000e+01 1.090000e+02 -3.200000e+01
        vertex 1.470000e+01 1.090341e+02 -3.174118e+01
    endloop
endfacet
facet normal 1.000000e+00 0.000000e+00 0.000000e+00
    outer loop
        vertex 1.470000e+01 1.083500e+02 -3.360000e+01
        vertex 1.470000e+01 1.090341e+02 -3.225882e+01
        vertex 1.470000e+01 1.090000e+02 -3.200000e+01
    endloop
endfacet
facet normal 1.000000e+00 0.000000e+00 0.000000e+00
    outer loop
        vertex 1.470000e+01 1.083500e+02 -3.360000e+01
        vertex 1.470000e+01 1.091340e+02 -3.250000e+01
        vertex 1.470000e+01 1.090341e+02 -3.225882e+01
    endloop
endfacet
facet normal 1.000000e+00 0.000000e+00 0.000000e+00
    outer loop
        vertex 1.470000e+01 1.083500e+02 -3.360000e+01
        vertex 1.470000e+01 1.092929e+02 -3.270711e+01
        vertex 1.470000e+01 1.091340e+02 -3.250000e+01
    endloop
endfacet
facet normal 1.000000e+00 0.000000e+00 0.000000e+00
    outer loop
        vertex 1.470000e+01 1.083500e+02 -3.360000e+01
        vertex 1.470000e+01 1.095000e+02 -3.286602e+01
        vertex 1.470000e+01 1.092929e+02 -3.270711e+01
    endloop
endfacet
facet normal 1.000000e+00 0.000000e+00 0.000000e+00
    outer loop
        vertex 1.470000e+01 1.083500e+02 -3.360000e+01
        vertex 1.470000e+01 1.097412e+02 -3.296593e+01
        vertex 1.470000e+01 1.095000e+02 -3.286602e+01
    endloop
endfacet
facet normal 1.000000e+00 0.000000e+00 0.000000e+00
    outer loop
        vertex 1.470000e+01 1.083500e+02 -3.360000e+01
        vertex 1.470000e+01 1.102588e+02 -3.296593e+01
        vertex 1.470000e+01 1.100000e+02 -3.300000e+01
    endloop
endfacet
facet normal 1.000000e+00 0.000000e+00 0.000000e+00
    outer loop
        vertex 1.470000e+01 1.083500e+02 -3.360000e+01
        vertex 1.470000e+01 1.100000e+02 -3.300000e+01
        vertex 1.470000e+01 1.097412e+02 -3.296593e+01
    endloop
endfacet
facet normal 1.000000e+00 0.000000e+00 0.000000e+00
    outer loop
        vertex 8.000000e+00 1.095000e+02 -3.286602e+01
        vertex 8.000000e+00 1.097412e+02 -3.296593e+01
        vertex 8.000000e+00 1.100000e+02 -3.300000e+01
    endloop
endfacet
facet normal 1.000000e+00 0.000000e+00 0.000000e+00
    outer loop
        vertex 8.000000e+00 1.095000e+02 -3.286602e+01
        vertex 8.000000e+00 1.100000e+02 -3.300000e+01
        vertex 8.000000e+00 1.102588e+02 -3.296593e+01
    endloop
endfacet
facet normal 1.000000e+00 -0.000000e+00 0.000000e+00
    outer loop
        vertex 8.000000e+00 1.095000e+02 -3.286602e+01
        vertex 8.000000e+00 1.102588e+02 -3.296593e+01
        vertex 8.000000e+00 1.105000e+02 -3.286602e+01
    endloop
endfacet
facet normal 1.000000e+00 0.000000e+00 0.000000e+00
    outer loop
        vertex 8.000000e+00 1.092929e+02 -3.270711e+01
        vertex 8.000000e+00 1.095000e+02 -3.286602e+01
        vertex 8.000000e+00 1.105000e+02 -3.286602e+01
    endloop
endfacet
facet normal 1.000000e+00 0.000000e+00 0.000000e+00
    outer loop
        vertex 8.000000e+00 1.091340e+02 -3.250000e+01
        vertex 8.000000e+00 1.092929e+02 -3.270711e+01
        vertex 8.000000e+00 1.105000e+02 -3.286602e+01
    endloop
endfacet
facet normal 1.000000e+00 0.000000e+00 0.000000e+00
    outer loop
        vertex 8.000000e+00 1.090341e+02 -3.225882e+01
        vertex 8.000000e+00 1.091340e+02 -3.250000e+01
        vertex 8.000000e+00 1.105000e+02 -3.286602e+01
    endloop
endfacet
facet normal 1.000000e+00 0.000000e+00 0.000000e+00
    outer loop
        vertex 8.000000e+00 1.090000e+02 -3.200000e+01
        vertex 8.000000e+00 1.090341e+02 -3.225882e+01
        vertex 8.000000e+00 1.105000e+02 -3.286602e+01
    endloop
endfacet
facet normal 1.000000e+00 -0.000000e+00 0.000000e+00
    outer loop
        vertex 8.000000e+00 1.090000e+02 -3.200000e+01
        vertex 8.000000e+00 1.105000e+02 -3.286602e+01
        vertex 8.000000e+00 1.090341e+02 -3.174118e+01
    endloop
endfacet
facet normal 1.000000e+00 -0.000000e+00 0.000000e+00
    outer loop
        vertex 8.000000e+00 1.090341e+02 -3.174118e+01
        vertex 8.000000e+00 1.105000e+02 -3.286602e+01
        vertex 8.000000e+00 1.091340e+02 -3.150000e+01
    endloop
endfacet
facet normal 1.000000e+00 -0.000000e+00 0.000000e+00
    outer loop
        vertex 8.000000e+00 1.091340e+02 -3.150000e+01
        vertex 8.000000e+00 1.105000e+02 -3.286602e+01
        vertex 8.000000e+00 1.092929e+02 -3.129289e+01
    endloop
endfacet
facet normal 1.000000e+00 -0.000000e+00 0.000000e+00
    outer loop
        vertex 8.000000e+00 1.092929e+02 -3.129289e+01
        vertex 8.000000e+00 1.105000e+02 -3.286602e+01
        vertex 8.000000e+00 1.095000e+02 -3.113397e+01
    endloop
endfacet
facet normal 1.000000e+00 0.000000e+00 0.000000e+00
    outer loop
        vertex 8.000000e+00 1.095000e+02 -3.113397e+01
        vertex 8.000000e+00 1.105000e+02 -3.286602e+01
        vertex 8.000000e+00 1.107071e+02 -3.270711e+01
    endloop
endfacet
facet normal 1.000000e+00 0.000000e+00 0.000000e+00
    outer loop
        vertex 8.000000e+00 1.095000e+02 -3.113397e+01
        vertex 8.000000e+00 1.107071e+02 -3.270711e+01
        vertex 8.000000e+00 1.108660e+02 -3.250000e+01
    endloop
endfacet
facet normal 1.000000e+00 0.000000e+00 0.000000e+00
    outer loop
        vertex 8.000000e+00 1.095000e+02 -3.113397e+01
        vertex 8.000000e+00 1.108660e+02 -3.250000e+01
        vertex 8.000000e+00 1.109659e+02 -3.225882e+01
    endloop
endfacet
facet normal 1.000000e+00 0.000000e+00 0.000000e+00
    outer loop
        vertex 8.000000e+00 1.095000e+02 -3.113397e+01
        vertex 8.000000e+00 1.109659e+02 -3.225882e+01
        vertex 8.000000e+00 1.110000e+02 -3.200000e+01
    endloop
endfacet
facet normal 1.000000e+00 0.000000e+00 0.000000e+00
    outer loop
        vertex 8.000000e+00 1.095000e+02 -3.113397e+01
        vertex 8.000000e+00 1.110000e+02 -3.200000e+01
        vertex 8.000000e+00 1.109659e+02 -3.174118e+01
    endloop
endfacet
facet normal 1.000000e+00 0.000000e+00 0.000000e+00
    outer loop
        vertex 8.000000e+00 1.095000e+02 -3.113397e+01
        vertex 8.000000e+00 1.109659e+02 -3.174118e+01
        vertex 8.000000e+00 1.108660e+02 -3.150000e+01
    endloop
endfacet
facet normal 1.000000e+00 0.000000e+00 0.000000e+00
    outer loop
        vertex 8.000000e+00 1.095000e+02 -3.113397e+01
        vertex 8.000000e+00 1.108660e+02 -3.150000e+01
        vertex 8.000000e+00 1.107071e+02 -3.129289e+01
    endloop
endfacet
facet normal 1.000000e+00 -0.000000e+00 0.000000e+00
    outer loop
        vertex 8.000000e+00 1.095000e+02 -3.113397e+01
        vertex 8.000000e+00 1.107071e+02 -3.129289e+01
        vertex 8.000000e+00 1.105000e+02 -3.113397e+01
    endloop
endfacet
facet normal 1.000000e+00 0.000000e+00 0.000000e+00
    outer loop
        vertex 8.000000e+00 1.095000e+02 -3.113397e+01
        vertex 8.000000e+00 1.105000e+02 -3.113397e+01
        vertex 8.000000e+00 1.102588e+02 -3.103407e+01
    endloop
endfacet
facet normal 1.000000e+00 0.000000e+00 0.000000e+00
    outer loop
        vertex 8.000000e+00 1.097412e+02 -3.103407e+01
        vertex 8.000000e+00 1.102588e+02 -3.103407e+01
        vertex 8.000000e+00 1.100000e+02 -3.100000e+01
    endloop
endfacet
facet normal 1.000000e+00 0.000000e+00 0.000000e+00
    outer loop
        vertex 8.000000e+00 1.095000e+02 -3.113397e+01
        vertex 8.000000e+00 1.102588e+02 -3.103407e+01
        vertex 8.000000e+00 1.097412e+02 -3.103407e+01
    endloop
endfacet
facet normal 0.000000e+00 -9.914455e-01 -1.305210e-01
    outer loop
        vertex 8.000000e+00 1.109659e+02 -3.174118e+01
        vertex 8.000000e+00 1.110000e+02 -3.200000e+01
        vertex 1.150000e+01 1.109659e+02 -3.174118e+01
    endloop
endfacet
facet normal 0.000000e+00 -9.914455e-01 -1.305210e-01
    outer loop
        vertex 1.150000e+01 1.109659e+02 -3.174118e+01
        vertex 8.000000e+00 1.110000e+02 -3.200000e+01
        vertex 1.150000e+01 1.110000e+02 -3.200000e+01
    endloop
endfacet
facet normal 0.000000e+00 -9.914455e-01 -1.305210e-01
    outer loop
        vertex 1.150000e+01 1.109659e+02 -3.174118e+01
        vertex 1.150000e+01 1.110000e+02 -3.200000e+01
        vertex 1.470000e+01 1.110000e+02 -3.200000e+01
    endloop
endfacet
facet normal 0.000000e+00 -9.914455e-01 -1.305210e-01
    outer loop
        vertex 1.150000e+01 1.109659e+02 -3.174118e+01
        vertex 1.470000e+01 1.110000e+02 -3.200000e+01
        vertex 1.470000e+01 1.109659e+02 -3.174118e+01
    endloop
endfacet
facet normal 0.000000e+00 -9.238808e-01 -3.826804e-01
    outer loop
        vertex 8.000000e+00 1.108660e+02 -3.150000e+01
        vertex 8.000000e+00 1.109659e+02 -3.174118e+01
        vertex 1.150000e+01 1.108660e+02 -3.150000e+01
    endloop
endfacet
facet normal 0.000000e+00 -9.238808e-01 -3.826804e-01
    outer loop
        vertex 1.150000e+01 1.108660e+02 -3.150000e+01
        vertex 8.000000e+00 1.109659e+02 -3.174118e+01
        vertex 1.150000e+01 1.109659e+02 -3.174118e+01
    endloop
endfacet
facet normal 0.000000e+00 -9.238808e-01 -3.826804e-01
    outer loop
        vertex 1.150000e+01 1.108660e+02 -3.150000e+01
        vertex 1.150000e+01 1.109659e+02 -3.174118e+01
        vertex 1.470000e+01 1.109659e+02 -3.174118e+01
    endloop
endfacet
facet normal 0.000000e+00 -9.238808e-01 -3.826804e-01
    outer loop
        vertex 1.150000e+01 1.108660e+02 -3.150000e+01
        vertex 1.470000e+01 1.109659e+02 -3.174118e+01
        vertex 1.470000e+01 1.108660e+02 -3.150000e+01
    endloop
endfacet
facet normal 0.000000e+00 -7.933514e-01 -6.087641e-01
    outer loop
        vertex 8.000000e+00 1.107071e+02 -3.129289e+01
        vertex 8.000000e+00 1.108660e+02 -3.150000e+01
        vertex 1.150000e+01 1.107071e+02 -3.129289e+01
    endloop
endfacet
facet normal 0.000000e+00 -7.933514e-01 -6.087641e-01
    outer loop
        vertex 1.150000e+01 1.107071e+02 -3.129289e+01
        vertex 8.000000e+00 1.108660e+02 -3.150000e+01
        vertex 1.150000e+01 1.108660e+02 -3.150000e+01
    endloop
endfacet
facet normal 0.000000e+00 -7.933514e-01 -6.087641e-01
    outer loop
        vertex 1.150000e+01 1.107071e+02 -3.129289e+01
        vertex 1.150000e+01 1.108660e+02 -3.150000e+01
        vertex 1.470000e+01 1.108660e+02 -3.150000e+01
    endloop
endfacet
facet normal 0.000000e+00 -7.933514e-01 -6.087641e-01
    outer loop
        vertex 1.150000e+01 1.107071e+02 -3.129289e+01
        vertex 1.470000e+01 1.108660e+02 -3.150000e+01
        vertex 1.470000e+01 1.107071e+02 -3.129289e+01
    endloop
endfacet
facet normal 0.000000e+00 -6.087595e-01 -7.933549e-01
    outer loop
        vertex 8.000000e+00 1.105000e+02 -3.113397e+01
        vertex 8.000000e+00 1.107071e+02 -3.129289e+01
        vertex 1.150000e+01 1.105000e+02 -3.113397e+01
    endloop
endfacet
facet normal 0.000000e+00 -6.087595e-01 -7.933549e-01
    outer loop
        vertex 1.150000e+01 1.105000e+02 -3.113397e+01
        vertex 8.000000e+00 1.107071e+02 -3.129289e+01
        vertex 1.150000e+01 1.107071e+02 -3.129289e+01
    endloop
endfacet
facet normal 0.000000e+00 -6.087595e-01 -7.933549e-01
    outer loop
        vertex 1.150000e+01 1.105000e+02 -3.113397e+01
        vertex 1.150000e+01 1.107071e+02 -3.129289e+01
        vertex 1.470000e+01 1.107071e+02 -3.129289e+01
    endloop
endfacet
facet normal 0.000000e+00 -6.087595e-01 -7.933549e-01
    outer loop
        vertex 1.150000e+01 1.105000e+02 -3.113397e+01
        vertex 1.470000e+01 1.107071e+02 -3.129289e+01
        vertex 1.470000e+01 1.105000e+02 -3.113397e+01
    endloop
endfacet
facet normal 0.000000e+00 -3.826804e-01 -9.238808e-01
    outer loop
        vertex 8.000000e+00 1.102588e+02 -3.103407e+01
        vertex 8.000000e+00 1.105000e+02 -3.113397e+01
        vertex 1.150000e+01 1.102588e+02 -3.103407e+01
    endloop
endfacet
facet normal 0.000000e+00 -3.826804e-01 -9.238808e-01
    outer loop
        vertex 1.150000e+01 1.102588e+02 -3.103407e+01
        vertex 8.000000e+00 1.105000e+02 -3.113397e+01
        vertex 1.150000e+01 1.105000e+02 -3.113397e+01
    endloop
endfacet
facet normal 0.000000e+00 -3.826804e-01 -9.238808e-01
    outer loop
        vertex 1.150000e+01 1.102588e+02 -3.103407e+01
        vertex 1.150000e+01 1.105000e+02 -3.113397e+01
        vertex 1.470000e+01 1.105000e+02 -3.113397e+01
    endloop
endfacet
facet normal 0.000000e+00 -3.826804e-01 -9.238808e-01
    outer loop
        vertex 1.150000e+01 1.102588e+02 -3.103407e+01
        vertex 1.470000e+01 1.105000e+02 -3.113397e+01
        vertex 1.470000e+01 1.102588e+02 -3.103407e+01
    endloop
endfacet
facet normal 0.000000e+00 -1.305282e-01 -9.914446e-01
    outer loop
        vertex 8.000000e+00 1.100000e+02 -3.100000e+01
        vertex 8.000000e+00 1.102588e+02 -3.103407e+01
        vertex 1.150000e+01 1.100000e+02 -3.100000e+01
    endloop
endfacet
facet normal 0.000000e+00 -1.305282e-01 -9.914446e-01
    outer loop
        vertex 1.150000e+01 1.100000e+02 -3.100000e+01
        vertex 8.000000e+00 1.102588e+02 -3.103407e+01
        vertex 1.150000e+01 1.102588e+02 -3.103407e+01
    endloop
endfacet
facet normal 0.000000e+00 -1.305282e-01 -9.914446e-01
    outer loop
        vertex 1.150000e+01 1.100000e+02 -3.100000e+01
        vertex 1.150000e+01 1.102588e+02 -3.103407e+01
        vertex 1.470000e+01 1.102588e+02 -3.103407e+01
    endloop
endfacet
facet normal 0.000000e+00 -1.305282e-01 -9.914446e-01
    outer loop
        vertex 1.150000e+01 1.100000e+02 -3.100000e+01
        vertex 1.470000e+01 1.102588e+02 -3.103407e+01
        vertex 1.470000e+01 1.100000e+02 -3.100000e+01
    endloop
endfacet
facet normal 0.000000e+00 1.305282e-01 -9.914446e-01
    outer loop
        vertex 8.000000e+00 1.097412e+02 -3.103407e+01
        vertex 8.000000e+00 1.100000e+02 -3.100000e+01
        vertex 1.150000e+01 1.100000e+02 -3.100000e+01
    endloop
endfacet
facet normal 0.000000e+00 1.305282e-01 -9.914446e-01
    outer loop
        vertex 8.000000e+00 1.097412e+02 -3.103407e+01
        vertex 1.150000e+01 1.100000e+02 -3.100000e+01
        vertex 1.150000e+01 1.097412e+02 -3.103407e+01
    endloop
endfacet
facet normal 0.000000e+00 1.305282e-01 -9.914446e-01
    outer loop
        vertex 1.150000e+01 1.097412e+02 -3.103407e+01
        vertex 1.150000e+01 1.100000e+02 -3.100000e+01
        vertex 1.470000e+01 1.100000e+02 -3.100000e+01
    endloop
endfacet
facet normal 0.000000e+00 1.305282e-01 -9.914446e-01
    outer loop
        vertex 1.150000e+01 1.097412e+02 -3.103407e+01
        vertex 1.470000e+01 1.100000e+02 -3.100000e+01
        vertex 1.470000e+01 1.097412e+02 -3.103407e+01
    endloop
endfacet
facet normal 0.000000e+00 3.826804e-01 -9.238808e-01
    outer loop
        vertex 8.000000e+00 1.095000e+02 -3.113397e+01
        vertex 8.000000e+00 1.097412e+02 -3.103407e+01
        vertex 1.150000e+01 1.097412e+02 -3.103407e+01
    endloop
endfacet
facet normal 0.000000e+00 3.826804e-01 -9.238808e-01
    outer loop
        vertex 8.000000e+00 1.095000e+02 -3.113397e+01
        vertex 1.150000e+01 1.097412e+02 -3.103407e+01
        vertex 1.150000e+01 1.095000e+02 -3.113397e+01
    endloop
endfacet
facet normal 0.000000e+00 3.826804e-01 -9.238808e-01
    outer loop
        vertex 1.150000e+01 1.095000e+02 -3.113397e+01
        vertex 1.150000e+01 1.097412e+02 -3.103407e+01
        vertex 1.470000e+01 1.097412e+02 -3.103407e+01
    endloop
endfacet
facet normal 0.000000e+00 3.826804e-01 -9.238808e-01
    outer loop
        vertex 1.150000e+01 1.095000e+02 -3.113397e+01
        vertex 1.470000e+01 1.097412e+02 -3.103407e+01
        vertex 1.470000e+01 1.095000e+02 -3.113397e+01
    endloop
endfacet
facet normal 0.000000e+00 6.087595e-01 -7.933549e-01
    outer loop
        vertex 8.000000e+00 1.092929e+02 -3.129289e+01
        vertex 8.000000e+00 1.095000e+02 -3.113397e+01
        vertex 1.150000e+01 1.095000e+02 -3.113397e+01
    endloop
endfacet
facet normal 0.000000e+00 6.087595e-01 -7.933549e-01
    outer loop
        vertex 8.000000e+00 1.092929e+02 -3.129289e+01
        vertex 1.150000e+01 1.095000e+02 -3.113397e+01
        vertex 1.150000e+01 1.092929e+02 -3.129289e+01
    endloop
endfacet
facet normal 0.000000e+00 6.087595e-01 -7.933549e-01
    outer loop
        vertex 1.150000e+01 1.092929e+02 -3.129289e+01
        vertex 1.150000e+01 1.095000e+02 -3.113397e+01
        vertex 1.470000e+01 1.095000e+02 -3.113397e+01
    endloop
endfacet
facet normal 0.000000e+00 6.087595e-01 -7.933549e-01
    outer loop
        vertex 1.150000e+01 1.092929e+02 -3.129289e+01
        vertex 1.470000e+01 1.095000e+02 -3.113397e+01
        vertex 1.470000e+01 1.092929e+02 -3.129289e+01
    endloop
endfacet
facet normal 0.000000e+00 7.933514e-01 -6.087641e-01
    outer loop
        vertex 8.000000e+00 1.091340e+02 -3.150000e+01
        vertex 8.000000e+00 1.092929e+02 -3.129289e+01
        vertex 1.150000e+01 1.092929e+02 -3.129289e+01
    endloop
endfacet
facet normal 0.000000e+00 7.933514e-01 -6.087641e-01
    outer loop
        vertex 8.000000e+00 1.091340e+02 -3.150000e+01
        vertex 1.150000e+01 1.092929e+02 -3.129289e+01
        vertex 1.150000e+01 1.091340e+02 -3.150000e+01
    endloop
endfacet
facet normal 0.000000e+00 7.933514e-01 -6.087641e-01
    outer loop
        vertex 1.150000e+01 1.091340e+02 -3.150000e+01
        vertex 1.150000e+01 1.092929e+02 -3.129289e+01
        vertex 1.470000e+01 1.092929e+02 -3.129289e+01
    endloop
endfacet
facet normal 0.000000e+00 7.933514e-01 -6.087641e-01
    outer loop
        vertex 1.150000e+01 1.091340e+02 -3.150000e+01
        vertex 1.470000e+01 1.092929e+02 -3.129289e+01
        vertex 1.470000e+01 1.091340e+02 -3.150000e+01
    endloop
endfacet
facet normal 0.000000e+00 9.238808e-01 -3.826804e-01
    outer loop
        vertex 8.000000e+00 1.090341e+02 -3.174118e+01
        vertex 8.000000e+00 1.091340e+02 -3.150000e+01
        vertex 1.150000e+01 1.091340e+02 -3.150000e+01
    endloop
endfacet
facet normal 0.000000e+00 9.238808e-01 -3.826804e-01
    outer loop
        vertex 8.000000e+00 1.090341e+02 -3.174118e+01
        vertex 1.150000e+01 1.091340e+02 -3.150000e+01
        vertex 1.150000e+01 1.090341e+02 -3.174118e+01
    endloop
endfacet
facet normal 0.000000e+00 9.238808e-01 -3.826804e-01
    outer loop
        vertex 1.150000e+01 1.090341e+02 -3.174118e+01
        vertex 1.150000e+01 1.091340e+02 -3.150000e+01
        vertex 1.470000e+01 1.091340e+02 -3.150000e+01
    endloop
endfacet
facet normal 0.000000e+00 9.238808e-01 -3.826804e-01
    outer loop
        vertex 1.150000e+01 1.090341e+02 -3.174118e+01
        vertex 1.470000e+01 1.091340e+02 -3.150000e+01
        vertex 1.470000e+01 1.090341e+02 -3.174118e+01
    endloop
endfacet
facet normal 0.000000e+00 9.914455e-01 -1.305210e-01
    outer loop
        vertex 8.000000e+00 1.090000e+02 -3.200000e+01
        vertex 8.000000e+00 1.090341e+02 -3.174118e+01
        vertex 1.150000e+01 1.090341e+02 -3.174118e+01
    endloop
endfacet
facet normal 0.000000e+00 9.914455e-01 -1.305210e-01
    outer loop
        vertex 8.000000e+00 1.090000e+02 -3.200000e+01
        vertex 1.150000e+01 1.090341e+02 -3.174118e+01
        vertex 1.150000e+01 1.090000e+02 -3.200000e+01
    endloop
endfacet
facet normal 0.000000e+00 9.914455e-01 -1.305210e-01
    outer loop
        vertex 1.150000e+01 1.090000e+02 -3.200000e+01
        vertex 1.150000e+01 1.090341e+02 -3.174118e+01
        vertex 1.470000e+01 1.090341e+02 -3.174118e+01
    endloop
endfacet
facet normal 0.000000e+00 9.914455e-01 -1.305210e-01
    outer loop
        vertex 1.150000e+01 1.090000e+02 -3.200000e+01
        vertex 1.470000e+01 1.090341e+02 -3.174118e+01
        vertex 1.470000e+01 1.090000e+02 -3.200000e+01
    endloop
endfacet
facet normal -0.000000e+00 9.914455e-01 1.305210e-01
    outer loop
        vertex 8.000000e+00 1.090000e+02 -3.200000e+01
        vertex 1.150000e+01 1.090000e+02 -3.200000e+01
        vertex 8.000000e+00 1.090341e+02 -3.225882e+01
    endloop
endfacet
facet normal 0.000000e+00 9.914455e-01 1.305210e-01
    outer loop
        vertex 1.150000e+01 1.090000e+02 -3.200000e+01
        vertex 1.150000e+01 1.090341e+02 -3.225882e+01
        vertex 8.000000e+00 1.090341e+02 -3.225882e+01
    endloop
endfacet
facet normal -0.000000e+00 9.914455e-01 1.305210e-01
    outer loop
        vertex 1.150000e+01 1.090000e+02 -3.200000e+01
        vertex 1.470000e+01 1.090000e+02 -3.200000e+01
        vertex 1.150000e+01 1.090341e+02 -3.225882e+01
    endloop
endfacet
facet normal 0.000000e+00 9.914455e-01 1.305210e-01
    outer loop
        vertex 1.470000e+01 1.090000e+02 -3.200000e+01
        vertex 1.470000e+01 1.090341e+02 -3.225882e+01
        vertex 1.150000e+01 1.090341e+02 -3.225882e+01
    endloop
endfacet
facet normal -0.000000e+00 9.238808e-01 3.826804e-01
    outer loop
        vertex 8.000000e+00 1.090341e+02 -3.225882e+01
        vertex 1.150000e+01 1.090341e+02 -3.225882e+01
        vertex 8.000000e+00 1.091340e+02 -3.250000e+01
    endloop
endfacet
facet normal 0.000000e+00 9.238808e-01 3.826804e-01
    outer loop
        vertex 1.150000e+01 1.090341e+02 -3.225882e+01
        vertex 1.150000e+01 1.091340e+02 -3.250000e+01
        vertex 8.000000e+00 1.091340e+02 -3.250000e+01
    endloop
endfacet
facet normal -0.000000e+00 9.238808e-01 3.826804e-01
    outer loop
        vertex 1.150000e+01 1.090341e+02 -3.225882e+01
        vertex 1.470000e+01 1.090341e+02 -3.225882e+01
        vertex 1.150000e+01 1.091340e+02 -3.250000e+01
    endloop
endfacet
facet normal 0.000000e+00 9.238808e-01 3.826804e-01
    outer loop
        vertex 1.470000e+01 1.090341e+02 -3.225882e+01
        vertex 1.470000e+01 1.091340e+02 -3.250000e+01
        vertex 1.150000e+01 1.091340e+02 -3.250000e+01
    endloop
endfacet
facet normal -0.000000e+00 7.933514e-01 6.087641e-01
    outer loop
        vertex 8.000000e+00 1.091340e+02 -3.250000e+01
        vertex 1.150000e+01 1.091340e+02 -3.250000e+01
        vertex 8.000000e+00 1.092929e+02 -3.270711e+01
    endloop
endfacet
facet normal 0.000000e+00 7.933514e-01 6.087641e-01
    outer loop
        vertex 1.150000e+01 1.091340e+02 -3.250000e+01
        vertex 1.150000e+01 1.092929e+02 -3.270711e+01
        vertex 8.000000e+00 1.092929e+02 -3.270711e+01
    endloop
endfacet
facet normal -0.000000e+00 7.933514e-01 6.087641e-01
    outer loop
        vertex 1.150000e+01 1.091340e+02 -3.250000e+01
        vertex 1.470000e+01 1.091340e+02 -3.250000e+01
        vertex 1.150000e+01 1.092929e+02 -3.270711e+01
    endloop
endfacet
facet normal 0.000000e+00 7.933514e-01 6.087641e-01
    outer loop
        vertex 1.470000e+01 1.091340e+02 -3.250000e+01
        vertex 1.470000e+01 1.092929e+02 -3.270711e+01
        vertex 1.150000e+01 1.092929e+02 -3.270711e+01
    endloop
endfacet
facet normal -0.000000e+00 6.087548e-01 7.933584e-01
    outer loop
        vertex 8.000000e+00 1.092929e+02 -3.270711e+01
        vertex 1.150000e+01 1.092929e+02 -3.270711e+01
        vertex 8.000000e+00 1.095000e+02 -3.286602e+01
    endloop
endfacet
facet normal 0.000000e+00 6.087548e-01 7.933584e-01
    outer loop
        vertex 1.150000e+01 1.092929e+02 -3.270711e+01
        vertex 1.150000e+01 1.095000e+02 -3.286602e+01
        vertex 8.000000e+00 1.095000e+02 -3.286602e+01
    endloop
endfacet
facet normal -0.000000e+00 6.087548e-01 7.933584e-01
    outer loop
        vertex 1.150000e+01 1.092929e+02 -3.270711e+01
        vertex 1.470000e+01 1.092929e+02 -3.270711e+01
        vertex 1.150000e+01 1.095000e+02 -3.286602e+01
    endloop
endfacet
facet normal 0.000000e+00 6.087548e-01 7.933584e-01
    outer loop
        vertex 1.470000e+01 1.092929e+02 -3.270711e+01
        vertex 1.470000e+01 1.095000e+02 -3.286602e+01
        vertex 1.150000e+01 1.095000e+02 -3.286602e+01
    endloop
endfacet
facet normal -0.000000e+00 3.826929e-01 9.238756e-01
    outer loop
        vertex 8.000000e+00 1.095000e+02 -3.286602e+01
        vertex 1.150000e+01 1.095000e+02 -3.286602e+01
        vertex 8.000000e+00 1.097412e+02 -3.296593e+01
    endloop
endfacet
facet normal 0.000000e+00 3.826929e-01 9.238756e-01
    outer loop
        vertex 1.150000e+01 1.095000e+02 -3.286602e+01
        vertex 1.150000e+01 1.097412e+02 -3.296593e+01
        vertex 8.000000e+00 1.097412e+02 -3.296593e+01
    endloop
endfacet
facet normal -0.000000e+00 3.826929e-01 9.238756e-01
    outer loop
        vertex 1.150000e+01 1.095000e+02 -3.286602e+01
        vertex 1.470000e+01 1.095000e+02 -3.286602e+01
        vertex 1.150000e+01 1.097412e+02 -3.296593e+01
    endloop
endfacet
facet normal 0.000000e+00 3.826929e-01 9.238756e-01
    outer loop
        vertex 1.470000e+01 1.095000e+02 -3.286602e+01
        vertex 1.470000e+01 1.097412e+02 -3.296593e+01
        vertex 1.150000e+01 1.097412e+02 -3.296593e+01
    endloop
endfacet
facet normal -0.000000e+00 1.305210e-01 9.914455e-01
    outer loop
        vertex 8.000000e+00 1.097412e+02 -3.296593e+01
        vertex 1.150000e+01 1.097412e+02 -3.296593e+01
        vertex 8.000000e+00 1.100000e+02 -3.300000e+01
    endloop
endfacet
facet normal 0.000000e+00 1.305210e-01 9.914455e-01
    outer loop
        vertex 1.150000e+01 1.097412e+02 -3.296593e+01
        vertex 1.150000e+01 1.100000e+02 -3.300000e+01
        vertex 8.000000e+00 1.100000e+02 -3.300000e+01
    endloop
endfacet
facet normal -0.000000e+00 1.305210e-01 9.914455e-01
    outer loop
        vertex 1.150000e+01 1.097412e+02 -3.296593e+01
        vertex 1.470000e+01 1.097412e+02 -3.296593e+01
        vertex 1.150000e+01 1.100000e+02 -3.300000e+01
    endloop
endfacet
facet normal 0.000000e+00 1.305210e-01 9.914455e-01
    outer loop
        vertex 1.470000e+01 1.097412e+02 -3.296593e+01
        vertex 1.470000e+01 1.100000e+02 -3.300000e+01
        vertex 1.150000e+01 1.100000e+02 -3.300000e+01
    endloop
endfacet
facet normal 0.000000e+00 -1.305210e-01 9.914455e-01
    outer loop
        vertex 8.000000e+00 1.100000e+02 -3.300000e+01
        vertex 1.150000e+01 1.102588e+02 -3.296593e+01
        vertex 8.000000e+00 1.102588e+02 -3.296593e+01
    endloop
endfacet
facet normal 0.000000e+00 -1.305210e-01 9.914455e-01
    outer loop
        vertex 8.000000e+00 1.100000e+02 -3.300000e+01
        vertex 1.150000e+01 1.100000e+02 -3.300000e+01
        vertex 1.150000e+01 1.102588e+02 -3.296593e+01
    endloop
endfacet
facet normal 0.000000e+00 -1.305210e-01 9.914455e-01
    outer loop
        vertex 1.150000e+01 1.100000e+02 -3.300000e+01
        vertex 1.470000e+01 1.100000e+02 -3.300000e+01
        vertex 1.150000e+01 1.102588e+02 -3.296593e+01
    endloop
endfacet
facet normal 0.000000e+00 -1.305210e-01 9.914455e-01
    outer loop
        vertex 1.470000e+01 1.100000e+02 -3.300000e+01
        vertex 1.470000e+01 1.102588e+02 -3.296593e+01
        vertex 1.150000e+01 1.102588e+02 -3.296593e+01
    endloop
endfacet
facet normal 0.000000e+00 -3.826929e-01 9.238756e-01
    outer loop
        vertex 8.000000e+00 1.102588e+02 -3.296593e+01
        vertex 1.150000e+01 1.105000e+02 -3.286602e+01
        vertex 8.000000e+00 1.105000e+02 -3.286602e+01
    endloop
endfacet
facet normal 0.000000e+00 -3.826929e-01 9.238756e-01
    outer loop
        vertex 8.000000e+00 1.102588e+02 -3.296593e+01
        vertex 1.150000e+01 1.102588e+02 -3.296593e+01
        vertex 1.150000e+01 1.105000e+02 -3.286602e+01
    endloop
endfacet
facet normal 0.000000e+00 -3.826929e-01 9.238756e-01
    outer loop
        vertex 1.150000e+01 1.102588e+02 -3.296593e+01
        vertex 1.470000e+01 1.102588e+02 -3.296593e+01
        vertex 1.150000e+01 1.105000e+02 -3.286602e+01
    endloop
endfacet
facet normal 0.000000e+00 -3.826929e-01 9.238756e-01
    outer loop
        vertex 1.470000e+01 1.102588e+02 -3.296593e+01
        vertex 1.470000e+01 1.105000e+02 -3.286602e+01
        vertex 1.150000e+01 1.105000e+02 -3.286602e+01
    endloop
endfacet
facet normal 0.000000e+00 -6.087548e-01 7.933584e-01
    outer loop
        vertex 8.000000e+00 1.105000e+02 -3.286602e+01
        vertex 1.150000e+01 1.107071e+02 -3.270711e+01
        vertex 8.000000e+00 1.107071e+02 -3.270711e+01
    endloop
endfacet
facet normal 0.000000e+00 -6.087548e-01 7.933584e-01
    outer loop
        vertex 8.000000e+00 1.105000e+02 -3.286602e+01
        vertex 1.150000e+01 1.105000e+02 -3.286602e+01
        vertex 1.150000e+01 1.107071e+02 -3.270711e+01
    endloop
endfacet
facet normal 0.000000e+00 -6.087548e-01 7.933584e-01
    outer loop
        vertex 1.150000e+01 1.105000e+02 -3.286602e+01
        vertex 1.470000e+01 1.105000e+02 -3.286602e+01
        vertex 1.150000e+01 1.107071e+02 -3.270711e+01
    endloop
endfacet
facet normal 0.000000e+00 -6.087548e-01 7.933584e-01
    outer loop
        vertex 1.470000e+01 1.105000e+02 -3.286602e+01
        vertex 1.470000e+01 1.107071e+02 -3.270711e+01
        vertex 1.150000e+01 1.107071e+02 -3.270711e+01
    endloop
endfacet
facet normal 0.000000e+00 -7.933514e-01 6.087641e-01
    outer loop
        vertex 8.000000e+00 1.107071e+02 -3.270711e+01
        vertex 1.150000e+01 1.108660e+02 -3.250000e+01
        vertex 8.000000e+00 1.108660e+02 -3.250000e+01
    endloop
endfacet
facet normal 0.000000e+00 -7.933514e-01 6.087641e-01
    outer loop
        vertex 8.000000e+00 1.107071e+02 -3.270711e+01
        vertex 1.150000e+01 1.107071e+02 -3.270711e+01
        vertex 1.150000e+01 1.108660e+02 -3.250000e+01
    endloop
endfacet
facet normal 0.000000e+00 -7.933514e-01 6.087641e-01
    outer loop
        vertex 1.150000e+01 1.107071e+02 -3.270711e+01
        vertex 1.470000e+01 1.107071e+02 -3.270711e+01
        vertex 1.150000e+01 1.108660e+02 -3.250000e+01
    endloop
endfacet
facet normal 0.000000e+00 -7.933514e-01 6.087641e-01
    outer loop
        vertex 1.470000e+01 1.107071e+02 -3.270711e+01
        vertex 1.470000e+01 1.108660e+02 -3.250000e+01
        vertex 1.150000e+01 1.108660e+02 -3.250000e+01
    endloop
endfacet
facet normal 0.000000e+00 -9.238808e-01 3.826804e-01
    outer loop
        vertex 8.000000e+00 1.108660e+02 -3.250000e+01
        vertex 1.150000e+01 1.109659e+02 -3.225882e+01
        vertex 8.000000e+00 1.109659e+02 -3.225882e+01
    endloop
endfacet
facet normal 0.000000e+00 -9.238808e-01 3.826804e-01
    outer loop
        vertex 8.000000e+00 1.108660e+02 -3.250000e+01
        vertex 1.150000e+01 1.108660e+02 -3.250000e+01
        vertex 1.150000e+01 1.109659e+02 -3.225882e+01
    endloop
endfacet
facet normal 0.000000e+00 -9.238808e-01 3.826804e-01
    outer loop
        vertex 1.150000e+01 1.108660e+02 -3.250000e+01
        vertex 1.470000e+01 1.108660e+02 -3.250000e+01
        vertex 1.150000e+01 1.109659e+02 -3.225882e+01
    endloop
endfacet
facet normal 0.000000e+00 -9.238808e-01 3.826804e-01
    outer loop
        vertex 1.470000e+01 1.108660e+02 -3.250000e+01
        vertex 1.470000e+01 1.109659e+02 -3.225882e+01
        vertex 1.150000e+01 1.109659e+02 -3.225882e+01
    endloop
endfacet
facet normal 0.000000e+00 -9.914455e-01 1.305210e-01
    outer loop
        vertex 8.000000e+00 1.109659e+02 -3.225882e+01
        vertex 1.150000e+01 1.110000e+02 -3.200000e+01
        vertex 8.000000e+00 1.110000e+02 -3.200000e+01
    endloop
endfacet
facet normal 0.000000e+00 -9.914455e-01 1.305210e-01
    outer loop
        vertex 8.000000e+00 1.109659e+02 -3.225882e+01
        vertex 1.150000e+01 1.109659e+02 -3.225882e+01
        vertex 1.150000e+01 1.110000e+02 -3.200000e+01
    endloop
endfacet
facet normal 0.000000e+00 -9.914455e-01 1.305210e-01
    outer loop
        vertex 1.150000e+01 1.109659e+02 -3.225882e+01
        vertex 1.470000e+01 1.109659e+02 -3.225882e+01
        vertex 1.150000e+01 1.110000e+02 -3.200000e+01
    endloop
endfacet
facet normal 0.000000e+00 -9.914455e-01 1.305210e-01
    outer loop
        vertex 1.470000e+01 1.109659e+02 -3.225882e+01
        vertex 1.470000e+01 1.110000e+02 -3.200000e+01
        vertex 1.150000e+01 1.110000e+02 -3.200000e+01
    endloop
endfacet
endsolid selector-pin.stl
