solid selector-pin.stl
facet normal 0.000000e+00 -9.914455e-01 -1.305210e-01
    outer loop
        vertex 8.000000e+00 1.109659e+02 -3.174118e+01
        vertex 8.000000e+00 1.110000e+02 -3.200000e+01
        vertex 1.470000e+01 1.110000e+02 -3.200000e+01
    endloop
endfacet
facet normal 0.000000e+00 -9.914455e-01 -1.305210e-01
    outer loop
        vertex 8.000000e+00 1.109659e+02 -3.174118e+01
        vertex 1.470000e+01 1.110000e+02 -3.200000e+01
        vertex 1.470000e+01 1.109659e+02 -3.174118e+01
    endloop
endfacet
facet normal 0.000000e+00 -9.238808e-01 -3.826804e-01
    outer loop
        vertex 8.000000e+00 1.108660e+02 -3.150000e+01
        vertex 8.000000e+00 1.109659e+02 -3.174118e+01
        vertex 1.470000e+01 1.109659e+02 -3.174118e+01
    endloop
endfacet
facet normal 0.000000e+00 -9.238808e-01 -3.826804e-01
    outer loop
        vertex 8.000000e+00 1.108660e+02 -3.150000e+01
        vertex 1.470000e+01 1.109659e+02 -3.174118e+01
        vertex 1.470000e+01 1.108660e+02 -3.150000e+01
    endloop
endfacet
facet normal 0.000000e+00 -7.933514e-01 -6.087641e-01
    outer loop
        vertex 8.000000e+00 1.107071e+02 -3.129289e+01
        vertex 8.000000e+00 1.108660e+02 -3.150000e+01
        vertex 1.470000e+01 1.108660e+02 -3.150000e+01
    endloop
endfacet
facet normal 0.000000e+00 -7.933514e-01 -6.087641e-01
    outer loop
        vertex 8.000000e+00 1.107071e+02 -3.129289e+01
        vertex 1.470000e+01 1.108660e+02 -3.150000e+01
        vertex 1.470000e+01 1.107071e+02 -3.129289e+01
    endloop
endfacet
facet normal 0.000000e+00 -6.087595e-01 -7.933549e-01
    outer loop
        vertex 8.000000e+00 1.105000e+02 -3.113397e+01
        vertex 8.000000e+00 1.107071e+02 -3.129289e+01
        vertex 1.470000e+01 1.107071e+02 -3.129289e+01
    endloop
endfacet
facet normal 0.000000e+00 -6.087595e-01 -7.933549e-01
    outer loop
        vertex 8.000000e+00 1.105000e+02 -3.113397e+01
        vertex 1.470000e+01 1.107071e+02 -3.129289e+01
        vertex 1.470000e+01 1.105000e+02 -3.113397e+01
    endloop
endfacet
facet normal 0.000000e+00 -3.826804e-01 -9.238808e-01
    outer loop
        vertex 8.000000e+00 1.102588e+02 -3.103407e+01
        vertex 8.000000e+00 1.105000e+02 -3.113397e+01
        vertex 1.470000e+01 1.105000e+02 -3.113397e+01
    endloop
endfacet
facet normal 0.000000e+00 -3.826804e-01 -9.238808e-01
    outer loop
        vertex 8.000000e+00 1.102588e+02 -3.103407e+01
        vertex 1.470000e+01 1.105000e+02 -3.113397e+01
        vertex 1.470000e+01 1.102588e+02 -3.103407e+01
    endloop
endfacet
facet normal 0.000000e+00 -1.305282e-01 -9.914446e-01
    outer loop
        vertex 8.000000e+00 1.100000e+02 -3.100000e+01
        vertex 8.000000e+00 1.102588e+02 -3.103407e+01
        vertex 1.470000e+01 1.102588e+02 -3.103407e+01
    endloop
endfacet
facet normal 0.000000e+00 -1.305282e-01 -9.914446e-01
    outer loop
        vertex 8.000000e+00 1.100000e+02 -3.100000e+01
        vertex 1.470000e+01 1.102588e+02 -3.103407e+01
        vertex 1.470000e+01 1.100000e+02 -3.100000e+01
    endloop
endfacet
facet normal 0.000000e+00 1.305282e-01 -9.914446e-01
    outer loop
        vertex 8.000000e+00 1.097412e+02 -3.103407e+01
        vertex 8.000000e+00 1.100000e+02 -3.100000e+01
        vertex 1.470000e+01 1.100000e+02 -3.100000e+01
    endloop
endfacet
facet normal 0.000000e+00 1.305282e-01 -9.914446e-01
    outer loop
        vertex 8.000000e+00 1.097412e+02 -3.103407e+01
        vertex 1.470000e+01 1.100000e+02 -3.100000e+01
        vertex 1.470000e+01 1.097412e+02 -3.103407e+01
    endloop
endfacet
facet normal 0.000000e+00 3.826804e-01 -9.238808e-01
    outer loop
        vertex 8.000000e+00 1.095000e+02 -3.113397e+01
        vertex 8.000000e+00 1.097412e+02 -3.103407e+01
        vertex 1.470000e+01 1.097412e+02 -3.103407e+01
    endloop
endfacet
facet normal 0.000000e+00 3.826804e-01 -9.238808e-01
    outer loop
        vertex 8.000000e+00 1.095000e+02 -3.113397e+01
        vertex 1.470000e+01 1.097412e+02 -3.103407e+01
        vertex 1.470000e+01 1.095000e+02 -3.113397e+01
    endloop
endfacet
facet normal 0.000000e+00 6.087595e-01 -7.933549e-01
    outer loop
        vertex 8.000000e+00 1.092929e+02 -3.129289e+01
        vertex 8.000000e+00 1.095000e+02 -3.113397e+01
        vertex 1.470000e+01 1.095000e+02 -3.113397e+01
    endloop
endfacet
facet normal 0.000000e+00 6.087595e-01 -7.933549e-01
    outer loop
        vertex 8.000000e+00 1.092929e+02 -3.129289e+01
        vertex 1.470000e+01 1.095000e+02 -3.113397e+01
        vertex 1.470000e+01 1.092929e+02 -3.129289e+01
    endloop
endfacet
facet normal 0.000000e+00 7.933514e-01 -6.087641e-01
    outer loop
        vertex 8.000000e+00 1.091340e+02 -3.150000e+01
        vertex 8.000000e+00 1.092929e+02 -3.129289e+01
        vertex 1.470000e+01 1.092929e+02 -3.129289e+01
    endloop
endfacet
facet normal 0.000000e+00 7.933514e-01 -6.087641e-01
    outer loop
        vertex 8.000000e+00 1.091340e+02 -3.150000e+01
        vertex 1.470000e+01 1.092929e+02 -3.129289e+01
        vertex 1.470000e+01 1.091340e+02 -3.150000e+01
    endloop
endfacet
facet normal 0.000000e+00 9.238808e-01 -3.826804e-01
    outer loop
        vertex 8.000000e+00 1.090341e+02 -3.174118e+01
        vertex 8.000000e+00 1.091340e+02 -3.150000e+01
        vertex 1.470000e+01 1.091340e+02 -3.150000e+01
    endloop
endfacet
facet normal 0.000000e+00 9.238808e-01 -3.826804e-01
    outer loop
        vertex 8.000000e+00 1.090341e+02 -3.174118e+01
        vertex 1.470000e+01 1.091340e+02 -3.150000e+01
        vertex 1.470000e+01 1.090341e+02 -3.174118e+01
    endloop
endfacet
facet normal 0.000000e+00 9.914455e-01 -1.305210e-01
    outer loop
        vertex 8.000000e+00 1.090000e+02 -3.200000e+01
        vertex 8.000000e+00 1.090341e+02 -3.174118e+01
        vertex 1.470000e+01 1.090341e+02 -3.174118e+01
    endloop
endfacet
facet normal 0.000000e+00 9.914455e-01 -1.305210e-01
    outer loop
        vertex 8.000000e+00 1.090000e+02 -3.200000e+01
        vertex 1.470000e+01 1.090341e+02 -3.174118e+01
        vertex 1.470000e+01 1.090000e+02 -3.200000e+01
    endloop
endfacet
facet normal -0.000000e+00 9.914455e-01 1.305210e-01
    outer loop
        vertex 8.000000e+00 1.090000e+02 -3.200000e+01
        vertex 1.470000e+01 1.090000e+02 -3.200000e+01
        vertex 8.000000e+00 1.090341e+02 -3.225882e+01
    endloop
endfacet
facet normal 0.000000e+00 9.914455e-01 1.305210e-01
    outer loop
        vertex 1.470000e+01 1.090000e+02 -3.200000e+01
        vertex 1.470000e+01 1.090341e+02 -3.225882e+01
        vertex 8.000000e+00 1.090341e+02 -3.225882e+01
    endloop
endfacet
facet normal -0.000000e+00 9.238808e-01 3.826804e-01
    outer loop
        vertex 8.000000e+00 1.090341e+02 -3.225882e+01
        vertex 1.470000e+01 1.090341e+02 -3.225882e+01
        vertex 8.000000e+00 1.091340e+02 -3.250000e+01
    endloop
endfacet
facet normal 0.000000e+00 9.238808e-01 3.826804e-01
    outer loop
        vertex 1.470000e+01 1.090341e+02 -3.225882e+01
        vertex 1.470000e+01 1.091340e+02 -3.250000e+01
        vertex 8.000000e+00 1.091340e+02 -3.250000e+01
    endloop
endfacet
facet normal -0.000000e+00 7.933514e-01 6.087641e-01
    outer loop
        vertex 8.000000e+00 1.091340e+02 -3.250000e+01
        vertex 1.470000e+01 1.091340e+02 -3.250000e+01
        vertex 8.000000e+00 1.092929e+02 -3.270711e+01
    endloop
endfacet
facet normal 0.000000e+00 7.933514e-01 6.087641e-01
    outer loop
        vertex 1.470000e+01 1.091340e+02 -3.250000e+01
        vertex 1.470000e+01 1.092929e+02 -3.270711e+01
        vertex 8.000000e+00 1.092929e+02 -3.270711e+01
    endloop
endfacet
facet normal -0.000000e+00 6.087548e-01 7.933584e-01
    outer loop
        vertex 8.000000e+00 1.092929e+02 -3.270711e+01
        vertex 1.470000e+01 1.092929e+02 -3.270711e+01
        vertex 8.000000e+00 1.095000e+02 -3.286602e+01
    endloop
endfacet
facet normal 0.000000e+00 6.087548e-01 7.933584e-01
    outer loop
        vertex 1.470000e+01 1.092929e+02 -3.270711e+01
        vertex 1.470000e+01 1.095000e+02 -3.286602e+01
        vertex 8.000000e+00 1.095000e+02 -3.286602e+01
    endloop
endfacet
facet normal -0.000000e+00 3.826929e-01 9.238756e-01
    outer loop
        vertex 8.000000e+00 1.095000e+02 -3.286602e+01
        vertex 1.470000e+01 1.095000e+02 -3.286602e+01
        vertex 8.000000e+00 1.097412e+02 -3.296593e+01
    endloop
endfacet
facet normal 0.000000e+00 3.826929e-01 9.238756e-01
    outer loop
        vertex 1.470000e+01 1.095000e+02 -3.286602e+01
        vertex 1.470000e+01 1.097412e+02 -3.296593e+01
        vertex 8.000000e+00 1.097412e+02 -3.296593e+01
    endloop
endfacet
facet normal -0.000000e+00 1.305210e-01 9.914455e-01
    outer loop
        vertex 8.000000e+00 1.097412e+02 -3.296593e+01
        vertex 1.470000e+01 1.097412e+02 -3.296593e+01
        vertex 8.000000e+00 1.100000e+02 -3.300000e+01
    endloop
endfacet
facet normal 0.000000e+00 1.305210e-01 9.914455e-01
    outer loop
        vertex 1.470000e+01 1.097412e+02 -3.296593e+01
        vertex 1.470000e+01 1.100000e+02 -3.300000e+01
        vertex 8.000000e+00 1.100000e+02 -3.300000e+01
    endloop
endfacet
facet normal 0.000000e+00 -1.305210e-01 9.914455e-01
    outer loop
        vertex 8.000000e+00 1.100000e+02 -3.300000e+01
        vertex 1.470000e+01 1.100000e+02 -3.300000e+01
        vertex 8.000000e+00 1.102588e+02 -3.296593e+01
    endloop
endfacet
facet normal 0.000000e+00 -1.305210e-01 9.914455e-01
    outer loop
        vertex 1.470000e+01 1.100000e+02 -3.300000e+01
        vertex 1.470000e+01 1.102588e+02 -3.296593e+01
        vertex 8.000000e+00 1.102588e+02 -3.296593e+01
    endloop
endfacet
facet normal 0.000000e+00 -3.826929e-01 9.238756e-01
    outer loop
        vertex 8.000000e+00 1.102588e+02 -3.296593e+01
        vertex 1.470000e+01 1.102588e+02 -3.296593e+01
        vertex 8.000000e+00 1.105000e+02 -3.286602e+01
    endloop
endfacet
facet normal 0.000000e+00 -3.826929e-01 9.238756e-01
    outer loop
        vertex 1.470000e+01 1.102588e+02 -3.296593e+01
        vertex 1.470000e+01 1.105000e+02 -3.286602e+01
        vertex 8.000000e+00 1.105000e+02 -3.286602e+01
    endloop
endfacet
facet normal 0.000000e+00 -6.087548e-01 7.933584e-01
    outer loop
        vertex 8.000000e+00 1.105000e+02 -3.286602e+01
        vertex 1.470000e+01 1.105000e+02 -3.286602e+01
        vertex 8.000000e+00 1.107071e+02 -3.270711e+01
    endloop
endfacet
facet normal 0.000000e+00 -6.087548e-01 7.933584e-01
    outer loop
        vertex 1.470000e+01 1.105000e+02 -3.286602e+01
        vertex 1.470000e+01 1.107071e+02 -3.270711e+01
        vertex 8.000000e+00 1.107071e+02 -3.270711e+01
    endloop
endfacet
facet normal 0.000000e+00 -7.933514e-01 6.087641e-01
    outer loop
        vertex 8.000000e+00 1.107071e+02 -3.270711e+01
        vertex 1.470000e+01 1.107071e+02 -3.270711e+01
        vertex 8.000000e+00 1.108660e+02 -3.250000e+01
    endloop
endfacet
facet normal 0.000000e+00 -7.933514e-01 6.087641e-01
    outer loop
        vertex 1.470000e+01 1.107071e+02 -3.270711e+01
        vertex 1.470000e+01 1.108660e+02 -3.250000e+01
        vertex 8.000000e+00 1.108660e+02 -3.250000e+01
    endloop
endfacet
facet normal 0.000000e+00 -9.238808e-01 3.826804e-01
    outer loop
        vertex 8.000000e+00 1.108660e+02 -3.250000e+01
        vertex 1.470000e+01 1.108660e+02 -3.250000e+01
        vertex 8.000000e+00 1.109659e+02 -3.225882e+01
    endloop
endfacet
facet normal 0.000000e+00 -9.238808e-01 3.826804e-01
    outer loop
        vertex 1.470000e+01 1.108660e+02 -3.250000e+01
        vertex 1.470000e+01 1.109659e+02 -3.225882e+01
        vertex 8.000000e+00 1.109659e+02 -3.225882e+01
    endloop
endfacet
facet normal 0.000000e+00 -9.914455e-01 1.305210e-01
    outer loop
        vertex 8.000000e+00 1.109659e+02 -3.225882e+01
        vertex 1.470000e+01 1.109659e+02 -3.225882e+01
        vertex 8.000000e+00 1.110000e+02 -3.200000e+01
    endloop
endfacet
facet normal 0.000000e+00 -9.914455e-01 1.305210e-01
    outer loop
        vertex 1.470000e+01 1.109659e+02 -3.225882e+01
        vertex 1.470000e+01 1.110000e+02 -3.200000e+01
        vertex 8.000000e+00 1.110000e+02 -3.200000e+01
    endloop
endfacet
facet normal 1.000000e+00 -0.000000e+00 0.000000e+00
    outer loop
        vertex -1.150000e+01 1.051620e+02 -3.070367e+01
        vertex -1.150000e+01 1.061363e+02 -3.096472e+01
        vertex -1.150000e+01 1.056624e+02 -2.949569e+01
    endloop
endfacet
facet normal 1.000000e+00 0.000000e+00 0.000000e+00
    outer loop
        vertex -1.150000e+01 1.049914e+02 -3.200000e+01
        vertex -1.150000e+01 1.061363e+02 -3.096472e+01
        vertex -1.150000e+01 1.051620e+02 -3.070367e+01
    endloop
endfacet
facet normal 1.000000e+00 0.000000e+00 0.000000e+00
    outer loop
        vertex -1.150000e+01 1.056624e+02 -2.949569e+01
        vertex -1.150000e+01 1.061363e+02 -3.096472e+01
        vertex -1.150000e+01 1.065359e+02 -3.000000e+01
    endloop
endfacet
facet normal 1.000000e+00 -0.000000e+00 0.000000e+00
    outer loop
        vertex -1.150000e+01 1.056624e+02 -2.949569e+01
        vertex -1.150000e+01 1.065359e+02 -3.000000e+01
        vertex -1.150000e+01 1.064584e+02 -2.845836e+01
    endloop
endfacet
facet normal 1.000000e+00 0.000000e+00 0.000000e+00
    outer loop
        vertex -1.150000e+01 1.064584e+02 -2.845836e+01
        vertex -1.150000e+01 1.065359e+02 -3.000000e+01
        vertex -1.150000e+01 1.071716e+02 -2.917157e+01
    endloop
endfacet
facet normal 1.000000e+00 -0.000000e+00 0.000000e+00
    outer loop
        vertex -1.150000e+01 1.064584e+02 -2.845836e+01
        vertex -1.150000e+01 1.071716e+02 -2.917157e+01
        vertex -1.150000e+01 1.074957e+02 -2.766240e+01
    endloop
endfacet
facet normal 1.000000e+00 0.000000e+00 0.000000e+00
    outer loop
        vertex -1.150000e+01 1.071716e+02 -2.917157e+01
        vertex -1.150000e+01 1.080000e+02 -2.853590e+01
        vertex -1.150000e+01 1.074957e+02 -2.766240e+01
    endloop
endfacet
facet normal 1.000000e+00 -0.000000e+00 0.000000e+00
    outer loop
        vertex -1.150000e+01 1.074957e+02 -2.766240e+01
        vertex -1.150000e+01 1.080000e+02 -2.853590e+01
        vertex -1.150000e+01 1.087037e+02 -2.716204e+01
    endloop
endfacet
facet normal 1.000000e+00 0.000000e+00 0.000000e+00
    outer loop
        vertex -1.150000e+01 1.080000e+02 -2.853590e+01
        vertex -1.150000e+01 1.089647e+02 -2.813630e+01
        vertex -1.150000e+01 1.087037e+02 -2.716204e+01
    endloop
endfacet
facet normal 1.000000e+00 -0.000000e+00 0.000000e+00
    outer loop
        vertex -1.150000e+01 1.087037e+02 -2.716204e+01
        vertex -1.150000e+01 1.089647e+02 -2.813630e+01
        vertex -1.150000e+01 1.100000e+02 -2.699137e+01
    endloop
endfacet
facet normal 1.000000e+00 0.000000e+00 0.000000e+00
    outer loop
        vertex -1.150000e+01 1.089647e+02 -2.813630e+01
        vertex -1.150000e+01 1.100000e+02 -2.800000e+01
        vertex -1.150000e+01 1.100000e+02 -2.699137e+01
    endloop
endfacet
facet normal 1.000000e+00 0.000000e+00 0.000000e+00
    outer loop
        vertex -1.150000e+01 1.100000e+02 -2.800000e+01
        vertex -1.150000e+01 1.112963e+02 -2.716204e+01
        vertex -1.150000e+01 1.100000e+02 -2.699137e+01
    endloop
endfacet
facet normal 1.000000e+00 -0.000000e+00 0.000000e+00
    outer loop
        vertex -1.150000e+01 1.100000e+02 -2.800000e+01
        vertex -1.150000e+01 1.110353e+02 -2.813630e+01
        vertex -1.150000e+01 1.112963e+02 -2.716204e+01
    endloop
endfacet
facet normal 1.000000e+00 0.000000e+00 0.000000e+00
    outer loop
        vertex -1.150000e+01 1.110353e+02 -2.813630e+01
        vertex -1.150000e+01 1.125043e+02 -2.766240e+01
        vertex -1.150000e+01 1.112963e+02 -2.716204e+01
    endloop
endfacet
facet normal 1.000000e+00 -0.000000e+00 0.000000e+00
    outer loop
        vertex -1.150000e+01 1.110353e+02 -2.813630e+01
        vertex -1.150000e+01 1.120000e+02 -2.853590e+01
        vertex -1.150000e+01 1.125043e+02 -2.766240e+01
    endloop
endfacet
facet normal 1.000000e+00 0.000000e+00 0.000000e+00
    outer loop
        vertex -1.150000e+01 1.120000e+02 -2.853590e+01
        vertex -1.150000e+01 1.135416e+02 -2.845836e+01
        vertex -1.150000e+01 1.125043e+02 -2.766240e+01
    endloop
endfacet
facet normal 1.000000e+00 -0.000000e+00 0.000000e+00
    outer loop
        vertex -1.150000e+01 1.120000e+02 -2.853590e+01
        vertex -1.150000e+01 1.128284e+02 -2.917157e+01
        vertex -1.150000e+01 1.135416e+02 -2.845836e+01
    endloop
endfacet
facet normal 1.000000e+00 -0.000000e+00 0.000000e+00
    outer loop
        vertex -1.150000e+01 1.128284e+02 -2.917157e+01
        vertex -1.150000e+01 1.143376e+02 -2.949569e+01
        vertex -1.150000e+01 1.135416e+02 -2.845836e+01
    endloop
endfacet
facet normal 1.000000e+00 0.000000e+00 0.000000e+00
    outer loop
        vertex -1.150000e+01 1.049914e+02 -3.200000e+01
        vertex -1.150000e+01 1.060000e+02 -3.200000e+01
        vertex -1.150000e+01 1.061363e+02 -3.096472e+01
    endloop
endfacet
facet normal 1.000000e+00 -0.000000e+00 0.000000e+00
    outer loop
        vertex -1.150000e+01 1.049914e+02 -3.200000e+01
        vertex -1.150000e+01 1.051620e+02 -3.329633e+01
        vertex -1.150000e+01 1.060000e+02 -3.200000e+01
    endloop
endfacet
facet normal 1.000000e+00 0.000000e+00 0.000000e+00
    outer loop
        vertex -1.150000e+01 1.051620e+02 -3.329633e+01
        vertex -1.150000e+01 1.061363e+02 -3.303528e+01
        vertex -1.150000e+01 1.060000e+02 -3.200000e+01
    endloop
endfacet
facet normal 1.000000e+00 -0.000000e+00 0.000000e+00
    outer loop
        vertex -1.150000e+01 1.051620e+02 -3.329633e+01
        vertex -1.150000e+01 1.056624e+02 -3.450431e+01
        vertex -1.150000e+01 1.061363e+02 -3.303528e+01
    endloop
endfacet
facet normal 1.000000e+00 0.000000e+00 0.000000e+00
    outer loop
        vertex -1.150000e+01 1.056624e+02 -3.450431e+01
        vertex -1.150000e+01 1.065359e+02 -3.400000e+01
        vertex -1.150000e+01 1.061363e+02 -3.303528e+01
    endloop
endfacet
facet normal 1.000000e+00 -0.000000e+00 0.000000e+00
    outer loop
        vertex -1.150000e+01 1.056624e+02 -3.450431e+01
        vertex -1.150000e+01 1.064584e+02 -3.554164e+01
        vertex -1.150000e+01 1.065359e+02 -3.400000e+01
    endloop
endfacet
facet normal 1.000000e+00 0.000000e+00 0.000000e+00
    outer loop
        vertex -1.150000e+01 1.128284e+02 -2.917157e+01
        vertex -1.150000e+01 1.134641e+02 -3.000000e+01
        vertex -1.150000e+01 1.143376e+02 -2.949569e+01
    endloop
endfacet
facet normal 1.000000e+00 -0.000000e+00 0.000000e+00
    outer loop
        vertex -1.150000e+01 1.134641e+02 -3.000000e+01
        vertex -1.150000e+01 1.148380e+02 -3.070367e+01
        vertex -1.150000e+01 1.143376e+02 -2.949569e+01
    endloop
endfacet
facet normal 1.000000e+00 0.000000e+00 0.000000e+00
    outer loop
        vertex -1.150000e+01 1.134641e+02 -3.000000e+01
        vertex -1.150000e+01 1.138637e+02 -3.096472e+01
        vertex -1.150000e+01 1.148380e+02 -3.070367e+01
    endloop
endfacet
facet normal 1.000000e+00 -0.000000e+00 0.000000e+00
    outer loop
        vertex -1.150000e+01 1.138637e+02 -3.096472e+01
        vertex -1.150000e+01 1.150086e+02 -3.200000e+01
        vertex -1.150000e+01 1.148380e+02 -3.070367e+01
    endloop
endfacet
facet normal 1.000000e+00 0.000000e+00 0.000000e+00
    outer loop
        vertex -1.150000e+01 1.138637e+02 -3.096472e+01
        vertex -1.150000e+01 1.140000e+02 -3.200000e+01
        vertex -1.150000e+01 1.150086e+02 -3.200000e+01
    endloop
endfacet
facet normal 1.000000e+00 -0.000000e+00 0.000000e+00
    outer loop
        vertex -1.150000e+01 1.140000e+02 -3.200000e+01
        vertex -1.150000e+01 1.148380e+02 -3.329632e+01
        vertex -1.150000e+01 1.150086e+02 -3.200000e+01
    endloop
endfacet
facet normal 1.000000e+00 -0.000000e+00 0.000000e+00
    outer loop
        vertex -1.150000e+01 1.138637e+02 -3.303527e+01
        vertex -1.150000e+01 1.148380e+02 -3.329632e+01
        vertex -1.150000e+01 1.140000e+02 -3.200000e+01
    endloop
endfacet
facet normal 1.000000e+00 0.000000e+00 0.000000e+00
    outer loop
        vertex -1.150000e+01 1.138637e+02 -3.303527e+01
        vertex -1.150000e+01 1.143376e+02 -3.450431e+01
        vertex -1.150000e+01 1.148380e+02 -3.329632e+01
    endloop
endfacet
facet normal 1.000000e+00 -0.000000e+00 0.000000e+00
    outer loop
        vertex -1.150000e+01 1.134641e+02 -3.400000e+01
        vertex -1.150000e+01 1.143376e+02 -3.450431e+01
        vertex -1.150000e+01 1.138637e+02 -3.303527e+01
    endloop
endfacet
facet normal 1.000000e+00 0.000000e+00 0.000000e+00
    outer loop
        vertex -1.150000e+01 1.134641e+02 -3.400000e+01
        vertex -1.150000e+01 1.135416e+02 -3.554164e+01
        vertex -1.150000e+01 1.143376e+02 -3.450431e+01
    endloop
endfacet
facet normal 1.000000e+00 -0.000000e+00 0.000000e+00
    outer loop
        vertex -1.150000e+01 1.128284e+02 -3.482843e+01
        vertex -1.150000e+01 1.135416e+02 -3.554164e+01
        vertex -1.150000e+01 1.134641e+02 -3.400000e+01
    endloop
endfacet
facet normal 1.000000e+00 0.000000e+00 0.000000e+00
    outer loop
        vertex -1.150000e+01 1.125043e+02 -3.633759e+01
        vertex -1.150000e+01 1.135416e+02 -3.554164e+01
        vertex -1.150000e+01 1.128284e+02 -3.482843e+01
    endloop
endfacet
facet normal 1.000000e+00 -0.000000e+00 0.000000e+00
    outer loop
        vertex -1.150000e+01 1.120000e+02 -3.546410e+01
        vertex -1.150000e+01 1.125043e+02 -3.633759e+01
        vertex -1.150000e+01 1.128284e+02 -3.482843e+01
    endloop
endfacet
facet normal 1.000000e+00 0.000000e+00 0.000000e+00
    outer loop
        vertex -1.150000e+01 1.112963e+02 -3.683797e+01
        vertex -1.150000e+01 1.125043e+02 -3.633759e+01
        vertex -1.150000e+01 1.120000e+02 -3.546410e+01
    endloop
endfacet
facet normal 1.000000e+00 0.000000e+00 0.000000e+00
    outer loop
        vertex -1.150000e+01 1.064584e+02 -3.554164e+01
        vertex -1.150000e+01 1.071716e+02 -3.482843e+01
        vertex -1.150000e+01 1.065359e+02 -3.400000e+01
    endloop
endfacet
facet normal 1.000000e+00 -0.000000e+00 0.000000e+00
    outer loop
        vertex -1.150000e+01 1.064584e+02 -3.554164e+01
        vertex -1.150000e+01 1.074957e+02 -3.633759e+01
        vertex -1.150000e+01 1.071716e+02 -3.482843e+01
    endloop
endfacet
facet normal 1.000000e+00 0.000000e+00 0.000000e+00
    outer loop
        vertex -1.150000e+01 1.071716e+02 -3.482843e+01
        vertex -1.150000e+01 1.074957e+02 -3.633759e+01
        vertex -1.150000e+01 1.080000e+02 -3.546410e+01
    endloop
endfacet
facet normal 1.000000e+00 -0.000000e+00 0.000000e+00
    outer loop
        vertex -1.150000e+01 1.074957e+02 -3.633759e+01
        vertex -1.150000e+01 1.087037e+02 -3.683797e+01
        vertex -1.150000e+01 1.080000e+02 -3.546410e+01
    endloop
endfacet
facet normal 1.000000e+00 -0.000000e+00 0.000000e+00
    outer loop
        vertex -1.150000e+01 1.110353e+02 -3.586371e+01
        vertex -1.150000e+01 1.112963e+02 -3.683797e+01
        vertex -1.150000e+01 1.120000e+02 -3.546410e+01
    endloop
endfacet
facet normal 1.000000e+00 0.000000e+00 0.000000e+00
    outer loop
        vertex -1.150000e+01 1.100000e+02 -3.700863e+01
        vertex -1.150000e+01 1.112963e+02 -3.683797e+01
        vertex -1.150000e+01 1.110353e+02 -3.586371e+01
    endloop
endfacet
facet normal 1.000000e+00 0.000000e+00 0.000000e+00
    outer loop
        vertex -1.150000e+01 1.100000e+02 -3.700863e+01
        vertex -1.150000e+01 1.110353e+02 -3.586371e+01
        vertex -1.150000e+01 1.100000e+02 -3.600000e+01
    endloop
endfacet
facet normal 1.000000e+00 -0.000000e+00 0.000000e+00
    outer loop
        vertex -1.150000e+01 1.087037e+02 -3.683797e+01
        vertex -1.150000e+01 1.100000e+02 -3.700863e+01
        vertex -1.150000e+01 1.100000e+02 -3.600000e+01
    endloop
endfacet
facet normal 1.000000e+00 0.000000e+00 0.000000e+00
    outer loop
        vertex -1.150000e+01 1.087037e+02 -3.683797e+01
        vertex -1.150000e+01 1.100000e+02 -3.600000e+01
        vertex -1.150000e+01 1.089647e+02 -3.586371e+01
    endloop
endfacet
facet normal 1.000000e+00 0.000000e+00 0.000000e+00
    outer loop
        vertex -1.150000e+01 1.080000e+02 -3.546410e+01
        vertex -1.150000e+01 1.087037e+02 -3.683797e+01
        vertex -1.150000e+01 1.089647e+02 -3.586371e+01
    endloop
endfacet
facet normal -1.000000e+00 0.000000e+00 0.000000e+00
    outer loop
        vertex -1.250000e+01 1.100000e+02 -3.700863e+01
        vertex -1.250000e+01 1.125043e+02 -3.633759e+01
        vertex -1.250000e+01 1.112963e+02 -3.683797e+01
    endloop
endfacet
facet normal -1.000000e+00 0.000000e+00 0.000000e+00
    outer loop
        vertex -1.250000e+01 1.087037e+02 -3.683797e+01
        vertex -1.250000e+01 1.125043e+02 -3.633759e+01
        vertex -1.250000e+01 1.100000e+02 -3.700863e+01
    endloop
endfacet
facet normal -1.000000e+00 0.000000e+00 0.000000e+00
    outer loop
        vertex -1.250000e+01 1.074957e+02 -3.633759e+01
        vertex -1.250000e+01 1.125043e+02 -3.633759e+01
        vertex -1.250000e+01 1.087037e+02 -3.683797e+01
    endloop
endfacet
facet normal -1.000000e+00 0.000000e+00 0.000000e+00
    outer loop
        vertex -1.250000e+01 1.074957e+02 -3.633759e+01
        vertex -1.250000e+01 1.135416e+02 -3.554164e+01
        vertex -1.250000e+01 1.125043e+02 -3.633759e+01
    endloop
endfacet
facet normal -1.000000e+00 0.000000e+00 0.000000e+00
    outer loop
        vertex -1.250000e+01 1.074957e+02 -3.633759e+01
        vertex -1.250000e+01 1.143376e+02 -3.450431e+01
        vertex -1.250000e+01 1.135416e+02 -3.554164e+01
    endloop
endfacet
facet normal -1.000000e+00 0.000000e+00 0.000000e+00
    outer loop
        vertex -1.250000e+01 1.074957e+02 -3.633759e+01
        vertex -1.250000e+01 1.148380e+02 -3.329632e+01
        vertex -1.250000e+01 1.143376e+02 -3.450431e+01
    endloop
endfacet
facet normal -1.000000e+00 0.000000e+00 0.000000e+00
    outer loop
        vertex -1.250000e+01 1.074957e+02 -3.633759e+01
        vertex -1.250000e+01 1.150086e+02 -3.200000e+01
        vertex -1.250000e+01 1.148380e+02 -3.329632e+01
    endloop
endfacet
facet normal -1.000000e+00 0.000000e+00 0.000000e+00
    outer loop
        vertex -1.250000e+01 1.074957e+02 -3.633759e+01
        vertex -1.250000e+01 1.148380e+02 -3.070367e+01
        vertex -1.250000e+01 1.150086e+02 -3.200000e+01
    endloop
endfacet
facet normal -1.000000e+00 0.000000e+00 0.000000e+00
    outer loop
        vertex -1.250000e+01 1.074957e+02 -3.633759e+01
        vertex -1.250000e+01 1.143376e+02 -2.949569e+01
        vertex -1.250000e+01 1.148380e+02 -3.070367e+01
    endloop
endfacet
facet normal -1.000000e+00 0.000000e+00 0.000000e+00
    outer loop
        vertex -1.250000e+01 1.074957e+02 -3.633759e+01
        vertex -1.250000e+01 1.135416e+02 -2.845836e+01
        vertex -1.250000e+01 1.143376e+02 -2.949569e+01
    endloop
endfacet
facet normal -1.000000e+00 0.000000e+00 0.000000e+00
    outer loop
        vertex -1.250000e+01 1.074957e+02 -3.633759e+01
        vertex -1.250000e+01 1.125043e+02 -2.766240e+01
        vertex -1.250000e+01 1.135416e+02 -2.845836e+01
    endloop
endfacet
facet normal -1.000000e+00 0.000000e+00 0.000000e+00
    outer loop
        vertex -1.250000e+01 1.074957e+02 -3.633759e+01
        vertex -1.250000e+01 1.112963e+02 -2.716204e+01
        vertex -1.250000e+01 1.125043e+02 -2.766240e+01
    endloop
endfacet
facet normal -1.000000e+00 0.000000e+00 0.000000e+00
    outer loop
        vertex -1.250000e+01 1.074957e+02 -3.633759e+01
        vertex -1.250000e+01 1.100000e+02 -2.699137e+01
        vertex -1.250000e+01 1.112963e+02 -2.716204e+01
    endloop
endfacet
facet normal -1.000000e+00 0.000000e+00 0.000000e+00
    outer loop
        vertex -1.250000e+01 1.074957e+02 -3.633759e+01
        vertex -1.250000e+01 1.087037e+02 -2.716204e+01
        vertex -1.250000e+01 1.100000e+02 -2.699137e+01
    endloop
endfacet
facet normal -1.000000e+00 0.000000e+00 0.000000e+00
    outer loop
        vertex -1.250000e+01 1.064584e+02 -3.554164e+01
        vertex -1.250000e+01 1.087037e+02 -2.716204e+01
        vertex -1.250000e+01 1.074957e+02 -3.633759e+01
    endloop
endfacet
facet normal -1.000000e+00 0.000000e+00 0.000000e+00
    outer loop
        vertex -1.250000e+01 1.056624e+02 -3.450431e+01
        vertex -1.250000e+01 1.087037e+02 -2.716204e+01
        vertex -1.250000e+01 1.064584e+02 -3.554164e+01
    endloop
endfacet
facet normal -1.000000e+00 0.000000e+00 0.000000e+00
    outer loop
        vertex -1.250000e+01 1.056624e+02 -3.450431e+01
        vertex -1.250000e+01 1.074957e+02 -2.766240e+01
        vertex -1.250000e+01 1.087037e+02 -2.716204e+01
    endloop
endfacet
facet normal -1.000000e+00 0.000000e+00 0.000000e+00
    outer loop
        vertex -1.250000e+01 1.056624e+02 -3.450431e+01
        vertex -1.250000e+01 1.064584e+02 -2.845836e+01
        vertex -1.250000e+01 1.074957e+02 -2.766240e+01
    endloop
endfacet
facet normal -1.000000e+00 0.000000e+00 0.000000e+00
    outer loop
        vertex -1.250000e+01 1.056624e+02 -3.450431e+01
        vertex -1.250000e+01 1.056624e+02 -2.949569e+01
        vertex -1.250000e+01 1.064584e+02 -2.845836e+01
    endloop
endfacet
facet normal -1.000000e+00 0.000000e+00 0.000000e+00
    outer loop
        vertex -1.250000e+01 1.051620e+02 -3.070367e+01
        vertex -1.250000e+01 1.056624e+02 -2.949569e+01
        vertex -1.250000e+01 1.056624e+02 -3.450431e+01
    endloop
endfacet
facet normal -1.000000e+00 0.000000e+00 0.000000e+00
    outer loop
        vertex -1.250000e+01 1.051620e+02 -3.329633e+01
        vertex -1.250000e+01 1.051620e+02 -3.070367e+01
        vertex -1.250000e+01 1.056624e+02 -3.450431e+01
    endloop
endfacet
facet normal -1.000000e+00 0.000000e+00 0.000000e+00
    outer loop
        vertex -1.250000e+01 1.049914e+02 -3.200000e+01
        vertex -1.250000e+01 1.051620e+02 -3.070367e+01
        vertex -1.250000e+01 1.051620e+02 -3.329633e+01
    endloop
endfacet
facet normal 0.000000e+00 -1.305282e-01 9.914446e-01
    outer loop
        vertex -1.150000e+01 1.089647e+02 -2.813630e+01
        vertex 1.150000e+01 1.089647e+02 -2.813630e+01
        vertex 1.150000e+01 1.100000e+02 -2.800000e+01
    endloop
endfacet
facet normal 0.000000e+00 -1.305282e-01 9.914446e-01
    outer loop
        vertex -1.150000e+01 1.089647e+02 -2.813630e+01
        vertex 1.150000e+01 1.100000e+02 -2.800000e+01
        vertex -1.150000e+01 1.100000e+02 -2.800000e+01
    endloop
endfacet
facet normal 0.000000e+00 -3.826804e-01 9.238808e-01
    outer loop
        vertex -1.150000e+01 1.080000e+02 -2.853590e+01
        vertex 1.150000e+01 1.080000e+02 -2.853590e+01
        vertex 1.150000e+01 1.089647e+02 -2.813630e+01
    endloop
endfacet
facet normal 0.000000e+00 -3.826804e-01 9.238808e-01
    outer loop
        vertex -1.150000e+01 1.080000e+02 -2.853590e+01
        vertex 1.150000e+01 1.089647e+02 -2.813630e+01
        vertex -1.150000e+01 1.089647e+02 -2.813630e+01
    endloop
endfacet
facet normal 0.000000e+00 -6.087595e-01 7.933549e-01
    outer loop
        vertex -1.150000e+01 1.071716e+02 -2.917157e+01
        vertex 1.150000e+01 1.071716e+02 -2.917157e+01
        vertex 1.150000e+01 1.080000e+02 -2.853590e+01
    endloop
endfacet
facet normal 0.000000e+00 -6.087595e-01 7.933549e-01
    outer loop
        vertex -1.150000e+01 1.071716e+02 -2.917157e+01
        vertex 1.150000e+01 1.080000e+02 -2.853590e+01
        vertex -1.150000e+01 1.080000e+02 -2.853590e+01
    endloop
endfacet
facet normal 0.000000e+00 -7.933549e-01 6.087595e-01
    outer loop
        vertex -1.150000e+01 1.065359e+02 -3.000000e+01
        vertex 1.150000e+01 1.065359e+02 -3.000000e+01
        vertex 1.150000e+01 1.071716e+02 -2.917157e+01
    endloop
endfacet
facet normal 0.000000e+00 -7.933549e-01 6.087595e-01
    outer loop
        vertex -1.150000e+01 1.065359e+02 -3.000000e+01
        vertex 1.150000e+01 1.071716e+02 -2.917157e+01
        vertex -1.150000e+01 1.071716e+02 -2.917157e+01
    endloop
endfacet
facet normal 0.000000e+00 -9.238808e-01 3.826804e-01
    outer loop
        vertex -1.150000e+01 1.061363e+02 -3.096472e+01
        vertex 1.150000e+01 1.061363e+02 -3.096472e+01
        vertex 1.150000e+01 1.065359e+02 -3.000000e+01
    endloop
endfacet
facet normal 0.000000e+00 -9.238808e-01 3.826804e-01
    outer loop
        vertex -1.150000e+01 1.061363e+02 -3.096472e+01
        vertex 1.150000e+01 1.065359e+02 -3.000000e+01
        vertex -1.150000e+01 1.065359e+02 -3.000000e+01
    endloop
endfacet
facet normal 0.000000e+00 -9.914446e-01 1.305282e-01
    outer loop
        vertex -1.150000e+01 1.060000e+02 -3.200000e+01
        vertex 1.150000e+01 1.060000e+02 -3.200000e+01
        vertex 1.150000e+01 1.061363e+02 -3.096472e+01
    endloop
endfacet
facet normal 0.000000e+00 -9.914446e-01 1.305282e-01
    outer loop
        vertex -1.150000e+01 1.060000e+02 -3.200000e+01
        vertex 1.150000e+01 1.061363e+02 -3.096472e+01
        vertex -1.150000e+01 1.061363e+02 -3.096472e+01
    endloop
endfacet
facet normal 0.000000e+00 -9.914446e-01 -1.305282e-01
    outer loop
        vertex 1.150000e+01 1.060000e+02 -3.200000e+01
        vertex -1.150000e+01 1.061363e+02 -3.303528e+01
        vertex 1.150000e+01 1.061363e+02 -3.303528e+01
    endloop
endfacet
facet normal 0.000000e+00 -9.914446e-01 -1.305282e-01
    outer loop
        vertex -1.150000e+01 1.060000e+02 -3.200000e+01
        vertex -1.150000e+01 1.061363e+02 -3.303528e+01
        vertex 1.150000e+01 1.060000e+02 -3.200000e+01
    endloop
endfacet
facet normal 0.000000e+00 -9.238808e-01 -3.826804e-01
    outer loop
        vertex 1.150000e+01 1.061363e+02 -3.303528e+01
        vertex -1.150000e+01 1.065359e+02 -3.400000e+01
        vertex 1.150000e+01 1.065359e+02 -3.400000e+01
    endloop
endfacet
facet normal 0.000000e+00 -9.238808e-01 -3.826804e-01
    outer loop
        vertex -1.150000e+01 1.061363e+02 -3.303528e+01
        vertex -1.150000e+01 1.065359e+02 -3.400000e+01
        vertex 1.150000e+01 1.061363e+02 -3.303528e+01
    endloop
endfacet
facet normal 0.000000e+00 -7.933549e-01 -6.087595e-01
    outer loop
        vertex 1.150000e+01 1.065359e+02 -3.400000e+01
        vertex -1.150000e+01 1.071716e+02 -3.482843e+01
        vertex 1.150000e+01 1.071716e+02 -3.482843e+01
    endloop
endfacet
facet normal 0.000000e+00 -7.933549e-01 -6.087595e-01
    outer loop
        vertex -1.150000e+01 1.065359e+02 -3.400000e+01
        vertex -1.150000e+01 1.071716e+02 -3.482843e+01
        vertex 1.150000e+01 1.065359e+02 -3.400000e+01
    endloop
endfacet
facet normal 0.000000e+00 -6.087548e-01 -7.933584e-01
    outer loop
        vertex 1.150000e+01 1.071716e+02 -3.482843e+01
        vertex -1.150000e+01 1.080000e+02 -3.546410e+01
        vertex 1.150000e+01 1.080000e+02 -3.546410e+01
    endloop
endfacet
facet normal 0.000000e+00 -6.087548e-01 -7.933584e-01
    outer loop
        vertex -1.150000e+01 1.071716e+02 -3.482843e+01
        vertex -1.150000e+01 1.080000e+02 -3.546410e+01
        vertex 1.150000e+01 1.071716e+02 -3.482843e+01
    endloop
endfacet
facet normal 0.000000e+00 -3.826929e-01 -9.238756e-01
    outer loop
        vertex 1.150000e+01 1.080000e+02 -3.546410e+01
        vertex -1.150000e+01 1.089647e+02 -3.586371e+01
        vertex 1.150000e+01 1.089647e+02 -3.586371e+01
    endloop
endfacet
facet normal 0.000000e+00 -3.826929e-01 -9.238756e-01
    outer loop
        vertex -1.150000e+01 1.080000e+02 -3.546410e+01
        vertex -1.150000e+01 1.089647e+02 -3.586371e+01
        vertex 1.150000e+01 1.080000e+02 -3.546410e+01
    endloop
endfacet
facet normal 0.000000e+00 -1.305210e-01 -9.914455e-01
    outer loop
        vertex 1.150000e+01 1.089647e+02 -3.586371e+01
        vertex -1.150000e+01 1.100000e+02 -3.600000e+01
        vertex 1.150000e+01 1.100000e+02 -3.600000e+01
    endloop
endfacet
facet normal 0.000000e+00 -1.305210e-01 -9.914455e-01
    outer loop
        vertex -1.150000e+01 1.089647e+02 -3.586371e+01
        vertex -1.150000e+01 1.100000e+02 -3.600000e+01
        vertex 1.150000e+01 1.089647e+02 -3.586371e+01
    endloop
endfacet
facet normal 0.000000e+00 9.914455e-01 1.305210e-01
    outer loop
        vertex -7.000000e+00 1.138637e+02 -3.096472e+01
        vertex -1.150000e+01 1.140000e+02 -3.200000e+01
        vertex -1.150000e+01 1.138637e+02 -3.096472e+01
    endloop
endfacet
facet normal 0.000000e+00 9.914455e-01 1.305210e-01
    outer loop
        vertex -7.000000e+00 1.138637e+02 -3.096472e+01
        vertex -7.000000e+00 1.140000e+02 -3.200000e+01
        vertex -1.150000e+01 1.140000e+02 -3.200000e+01
    endloop
endfacet
facet normal -0.000000e+00 9.914455e-01 1.305210e-01
    outer loop
        vertex 7.000000e+00 1.138637e+02 -3.096472e+01
        vertex 1.150000e+01 1.138637e+02 -3.096472e+01
        vertex 1.150000e+01 1.140000e+02 -3.200000e+01
    endloop
endfacet
facet normal 0.000000e+00 9.914455e-01 1.305210e-01
    outer loop
        vertex 7.000000e+00 1.138637e+02 -3.096472e+01
        vertex 1.150000e+01 1.140000e+02 -3.200000e+01
        vertex 7.000000e+00 1.140000e+02 -3.200000e+01
    endloop
endfacet
facet normal 0.000000e+00 9.238808e-01 3.826804e-01
    outer loop
        vertex -7.000000e+00 1.134641e+02 -3.000000e+01
        vertex -1.150000e+01 1.138637e+02 -3.096472e+01
        vertex -1.150000e+01 1.134641e+02 -3.000000e+01
    endloop
endfacet
facet normal 0.000000e+00 9.238808e-01 3.826804e-01
    outer loop
        vertex -7.000000e+00 1.134641e+02 -3.000000e+01
        vertex -7.000000e+00 1.138637e+02 -3.096472e+01
        vertex -1.150000e+01 1.138637e+02 -3.096472e+01
    endloop
endfacet
facet normal -0.000000e+00 9.238808e-01 3.826804e-01
    outer loop
        vertex 7.000000e+00 1.134641e+02 -3.000000e+01
        vertex 1.150000e+01 1.134641e+02 -3.000000e+01
        vertex 1.150000e+01 1.138637e+02 -3.096472e+01
    endloop
endfacet
facet normal 0.000000e+00 9.238808e-01 3.826804e-01
    outer loop
        vertex 7.000000e+00 1.134641e+02 -3.000000e+01
        vertex 1.150000e+01 1.138637e+02 -3.096472e+01
        vertex 7.000000e+00 1.138637e+02 -3.096472e+01
    endloop
endfacet
facet normal 0.000000e+00 7.933514e-01 6.087641e-01
    outer loop
        vertex -7.000000e+00 1.128284e+02 -2.917157e+01
        vertex -1.150000e+01 1.134641e+02 -3.000000e+01
        vertex -1.150000e+01 1.128284e+02 -2.917157e+01
    endloop
endfacet
facet normal 0.000000e+00 7.933514e-01 6.087641e-01
    outer loop
        vertex -7.000000e+00 1.128284e+02 -2.917157e+01
        vertex -7.000000e+00 1.134641e+02 -3.000000e+01
        vertex -1.150000e+01 1.134641e+02 -3.000000e+01
    endloop
endfacet
facet normal -0.000000e+00 7.933514e-01 6.087641e-01
    outer loop
        vertex 7.000000e+00 1.128284e+02 -2.917157e+01
        vertex 1.150000e+01 1.128284e+02 -2.917157e+01
        vertex 1.150000e+01 1.134641e+02 -3.000000e+01
    endloop
endfacet
facet normal 0.000000e+00 7.933514e-01 6.087641e-01
    outer loop
        vertex 7.000000e+00 1.128284e+02 -2.917157e+01
        vertex 1.150000e+01 1.134641e+02 -3.000000e+01
        vertex 7.000000e+00 1.134641e+02 -3.000000e+01
    endloop
endfacet
facet normal 0.000000e+00 6.087595e-01 7.933549e-01
    outer loop
        vertex -7.000000e+00 1.120000e+02 -2.853590e+01
        vertex -1.150000e+01 1.128284e+02 -2.917157e+01
        vertex -1.150000e+01 1.120000e+02 -2.853590e+01
    endloop
endfacet
facet normal 0.000000e+00 6.087595e-01 7.933549e-01
    outer loop
        vertex -7.000000e+00 1.120000e+02 -2.853590e+01
        vertex -7.000000e+00 1.128284e+02 -2.917157e+01
        vertex -1.150000e+01 1.128284e+02 -2.917157e+01
    endloop
endfacet
facet normal -0.000000e+00 6.087595e-01 7.933549e-01
    outer loop
        vertex 7.000000e+00 1.120000e+02 -2.853590e+01
        vertex 1.150000e+01 1.120000e+02 -2.853590e+01
        vertex 1.150000e+01 1.128284e+02 -2.917157e+01
    endloop
endfacet
facet normal 0.000000e+00 6.087595e-01 7.933549e-01
    outer loop
        vertex 7.000000e+00 1.120000e+02 -2.853590e+01
        vertex 1.150000e+01 1.128284e+02 -2.917157e+01
        vertex 7.000000e+00 1.128284e+02 -2.917157e+01
    endloop
endfacet
facet normal 0.000000e+00 3.826804e-01 9.238808e-01
    outer loop
        vertex -7.000000e+00 1.110353e+02 -2.813630e+01
        vertex -1.150000e+01 1.120000e+02 -2.853590e+01
        vertex -1.150000e+01 1.110353e+02 -2.813630e+01
    endloop
endfacet
facet normal 0.000000e+00 3.826804e-01 9.238808e-01
    outer loop
        vertex -7.000000e+00 1.110353e+02 -2.813630e+01
        vertex -7.000000e+00 1.120000e+02 -2.853590e+01
        vertex -1.150000e+01 1.120000e+02 -2.853590e+01
    endloop
endfacet
facet normal -0.000000e+00 3.826804e-01 9.238808e-01
    outer loop
        vertex 7.000000e+00 1.110353e+02 -2.813630e+01
        vertex 1.150000e+01 1.110353e+02 -2.813630e+01
        vertex 1.150000e+01 1.120000e+02 -2.853590e+01
    endloop
endfacet
facet normal 0.000000e+00 3.826804e-01 9.238808e-01
    outer loop
        vertex 7.000000e+00 1.110353e+02 -2.813630e+01
        vertex 1.150000e+01 1.120000e+02 -2.853590e+01
        vertex 7.000000e+00 1.120000e+02 -2.853590e+01
    endloop
endfacet
facet normal 0.000000e+00 1.305282e-01 9.914446e-01
    outer loop
        vertex -7.000000e+00 1.100000e+02 -2.800000e+01
        vertex -1.150000e+01 1.110353e+02 -2.813630e+01
        vertex -1.150000e+01 1.100000e+02 -2.800000e+01
    endloop
endfacet
facet normal 0.000000e+00 1.305282e-01 9.914446e-01
    outer loop
        vertex -7.000000e+00 1.100000e+02 -2.800000e+01
        vertex -7.000000e+00 1.110353e+02 -2.813630e+01
        vertex -1.150000e+01 1.110353e+02 -2.813630e+01
    endloop
endfacet
facet normal -0.000000e+00 1.305282e-01 9.914446e-01
    outer loop
        vertex 7.000000e+00 1.100000e+02 -2.800000e+01
        vertex 1.150000e+01 1.100000e+02 -2.800000e+01
        vertex 1.150000e+01 1.110353e+02 -2.813630e+01
    endloop
endfacet
facet normal 0.000000e+00 1.305282e-01 9.914446e-01
    outer loop
        vertex 7.000000e+00 1.100000e+02 -2.800000e+01
        vertex 1.150000e+01 1.110353e+02 -2.813630e+01
        vertex 7.000000e+00 1.110353e+02 -2.813630e+01
    endloop
endfacet
facet normal 0.000000e+00 1.305210e-01 -9.914455e-01
    outer loop
        vertex -1.150000e+01 1.100000e+02 -3.600000e+01
        vertex -1.150000e+01 1.110353e+02 -3.586371e+01
        vertex -7.000000e+00 1.110353e+02 -3.586371e+01
    endloop
endfacet
facet normal 0.000000e+00 1.305210e-01 -9.914455e-01
    outer loop
        vertex -7.000000e+00 1.100000e+02 -3.600000e+01
        vertex -1.150000e+01 1.100000e+02 -3.600000e+01
        vertex -7.000000e+00 1.110353e+02 -3.586371e+01
    endloop
endfacet
facet normal 0.000000e+00 1.305210e-01 -9.914455e-01
    outer loop
        vertex 1.150000e+01 1.100000e+02 -3.600000e+01
        vertex 7.000000e+00 1.110353e+02 -3.586371e+01
        vertex 1.150000e+01 1.110353e+02 -3.586371e+01
    endloop
endfacet
facet normal 0.000000e+00 1.305210e-01 -9.914455e-01
    outer loop
        vertex 7.000000e+00 1.100000e+02 -3.600000e+01
        vertex 7.000000e+00 1.110353e+02 -3.586371e+01
        vertex 1.150000e+01 1.100000e+02 -3.600000e+01
    endloop
endfacet
facet normal 0.000000e+00 3.826929e-01 -9.238756e-01
    outer loop
        vertex -1.150000e+01 1.110353e+02 -3.586371e+01
        vertex -1.150000e+01 1.120000e+02 -3.546410e+01
        vertex -7.000000e+00 1.120000e+02 -3.546410e+01
    endloop
endfacet
facet normal 0.000000e+00 3.826929e-01 -9.238756e-01
    outer loop
        vertex -7.000000e+00 1.110353e+02 -3.586371e+01
        vertex -1.150000e+01 1.110353e+02 -3.586371e+01
        vertex -7.000000e+00 1.120000e+02 -3.546410e+01
    endloop
endfacet
facet normal 0.000000e+00 3.826929e-01 -9.238756e-01
    outer loop
        vertex 1.150000e+01 1.110353e+02 -3.586371e+01
        vertex 7.000000e+00 1.120000e+02 -3.546410e+01
        vertex 1.150000e+01 1.120000e+02 -3.546410e+01
    endloop
endfacet
facet normal 0.000000e+00 3.826929e-01 -9.238756e-01
    outer loop
        vertex 7.000000e+00 1.110353e+02 -3.586371e+01
        vertex 7.000000e+00 1.120000e+02 -3.546410e+01
        vertex 1.150000e+01 1.110353e+02 -3.586371e+01
    endloop
endfacet
facet normal 0.000000e+00 6.087548e-01 -7.933584e-01
    outer loop
        vertex -1.150000e+01 1.120000e+02 -3.546410e+01
        vertex -1.150000e+01 1.128284e+02 -3.482843e+01
        vertex -7.000000e+00 1.128284e+02 -3.482843e+01
    endloop
endfacet
facet normal 0.000000e+00 6.087548e-01 -7.933584e-01
    outer loop
        vertex -7.000000e+00 1.120000e+02 -3.546410e+01
        vertex -1.150000e+01 1.120000e+02 -3.546410e+01
        vertex -7.000000e+00 1.128284e+02 -3.482843e+01
    endloop
endfacet
facet normal 0.000000e+00 6.087548e-01 -7.933584e-01
    outer loop
        vertex 1.150000e+01 1.120000e+02 -3.546410e+01
        vertex 7.000000e+00 1.128284e+02 -3.482843e+01
        vertex 1.150000e+01 1.128284e+02 -3.482843e+01
    endloop
endfacet
facet normal 0.000000e+00 6.087548e-01 -7.933584e-01
    outer loop
        vertex 7.000000e+00 1.120000e+02 -3.546410e+01
        vertex 7.000000e+00 1.128284e+02 -3.482843e+01
        vertex 1.150000e+01 1.120000e+02 -3.546410e+01
    endloop
endfacet
facet normal 0.000000e+00 7.933514e-01 -6.087641e-01
    outer loop
        vertex -1.150000e+01 1.128284e+02 -3.482843e+01
        vertex -1.150000e+01 1.134641e+02 -3.400000e+01
        vertex -7.000000e+00 1.134641e+02 -3.400000e+01
    endloop
endfacet
facet normal 0.000000e+00 7.933514e-01 -6.087641e-01
    outer loop
        vertex -7.000000e+00 1.128284e+02 -3.482843e+01
        vertex -1.150000e+01 1.128284e+02 -3.482843e+01
        vertex -7.000000e+00 1.134641e+02 -3.400000e+01
    endloop
endfacet
facet normal 0.000000e+00 7.933514e-01 -6.087641e-01
    outer loop
        vertex 1.150000e+01 1.128284e+02 -3.482843e+01
        vertex 7.000000e+00 1.134641e+02 -3.400000e+01
        vertex 1.150000e+01 1.134641e+02 -3.400000e+01
    endloop
endfacet
facet normal 0.000000e+00 7.933514e-01 -6.087641e-01
    outer loop
        vertex 7.000000e+00 1.128284e+02 -3.482843e+01
        vertex 7.000000e+00 1.134641e+02 -3.400000e+01
        vertex 1.150000e+01 1.128284e+02 -3.482843e+01
    endloop
endfacet
facet normal 0.000000e+00 9.238818e-01 -3.826779e-01
    outer loop
        vertex -1.150000e+01 1.134641e+02 -3.400000e+01
        vertex -1.150000e+01 1.138637e+02 -3.303527e+01
        vertex -7.000000e+00 1.138637e+02 -3.303527e+01
    endloop
endfacet
facet normal 0.000000e+00 9.238818e-01 -3.826779e-01
    outer loop
        vertex -7.000000e+00 1.134641e+02 -3.400000e+01
        vertex -1.150000e+01 1.134641e+02 -3.400000e+01
        vertex -7.000000e+00 1.138637e+02 -3.303527e+01
    endloop
endfacet
facet normal 0.000000e+00 9.238818e-01 -3.826779e-01
    outer loop
        vertex 1.150000e+01 1.134641e+02 -3.400000e+01
        vertex 7.000000e+00 1.138637e+02 -3.303527e+01
        vertex 1.150000e+01 1.138637e+02 -3.303527e+01
    endloop
endfacet
facet normal 0.000000e+00 9.238818e-01 -3.826779e-01
    outer loop
        vertex 7.000000e+00 1.134641e+02 -3.400000e+01
        vertex 7.000000e+00 1.138637e+02 -3.303527e+01
        vertex 1.150000e+01 1.134641e+02 -3.400000e+01
    endloop
endfacet
facet normal 0.000000e+00 9.914454e-01 -1.305220e-01
    outer loop
        vertex -1.150000e+01 1.138637e+02 -3.303527e+01
        vertex -1.150000e+01 1.140000e+02 -3.200000e+01
        vertex -7.000000e+00 1.140000e+02 -3.200000e+01
    endloop
endfacet
facet normal 0.000000e+00 9.914454e-01 -1.305220e-01
    outer loop
        vertex -7.000000e+00 1.138637e+02 -3.303527e+01
        vertex -1.150000e+01 1.138637e+02 -3.303527e+01
        vertex -7.000000e+00 1.140000e+02 -3.200000e+01
    endloop
endfacet
facet normal 0.000000e+00 9.914454e-01 -1.305220e-01
    outer loop
        vertex 1.150000e+01 1.138637e+02 -3.303527e+01
        vertex 7.000000e+00 1.140000e+02 -3.200000e+01
        vertex 1.150000e+01 1.140000e+02 -3.200000e+01
    endloop
endfacet
facet normal 0.000000e+00 9.914454e-01 -1.305220e-01
    outer loop
        vertex 7.000000e+00 1.138637e+02 -3.303527e+01
        vertex 7.000000e+00 1.140000e+02 -3.200000e+01
        vertex 1.150000e+01 1.138637e+02 -3.303527e+01
    endloop
endfacet
facet normal 0.000000e+00 1.000000e+00 -0.000000e+00
    outer loop
        vertex 7.000000e+00 1.100000e+02 -3.600000e+01
        vertex -7.000000e+00 1.100000e+02 -2.800000e+01
        vertex 7.000000e+00 1.100000e+02 -2.800000e+01
    endloop
endfacet
facet normal 0.000000e+00 1.000000e+00 0.000000e+00
    outer loop
        vertex 7.000000e+00 1.100000e+02 -3.600000e+01
        vertex -7.000000e+00 1.100000e+02 -3.600000e+01
        vertex -7.000000e+00 1.100000e+02 -2.800000e+01
    endloop
endfacet
facet normal 1.000000e+00 0.000000e+00 0.000000e+00
    outer loop
        vertex -7.000000e+00 1.100000e+02 -3.600000e+01
        vertex -7.000000e+00 1.110353e+02 -2.813630e+01
        vertex -7.000000e+00 1.100000e+02 -2.800000e+01
    endloop
endfacet
facet normal 1.000000e+00 0.000000e+00 0.000000e+00
    outer loop
        vertex -7.000000e+00 1.100000e+02 -3.600000e+01
        vertex -7.000000e+00 1.110353e+02 -3.586371e+01
        vertex -7.000000e+00 1.110353e+02 -2.813630e+01
    endloop
endfacet
facet normal 1.000000e+00 0.000000e+00 0.000000e+00
    outer loop
        vertex -7.000000e+00 1.110353e+02 -3.586371e+01
        vertex -7.000000e+00 1.120000e+02 -3.546410e+01
        vertex -7.000000e+00 1.110353e+02 -2.813630e+01
    endloop
endfacet
facet normal 1.000000e+00 0.000000e+00 0.000000e+00
    outer loop
        vertex -7.000000e+00 1.110353e+02 -2.813630e+01
        vertex -7.000000e+00 1.120000e+02 -3.546410e+01
        vertex -7.000000e+00 1.128284e+02 -3.482843e+01
    endloop
endfacet
facet normal 1.000000e+00 0.000000e+00 0.000000e+00
    outer loop
        vertex -7.000000e+00 1.110353e+02 -2.813630e+01
        vertex -7.000000e+00 1.128284e+02 -3.482843e+01
        vertex -7.000000e+00 1.134641e+02 -3.400000e+01
    endloop
endfacet
facet normal 1.000000e+00 0.000000e+00 0.000000e+00
    outer loop
        vertex -7.000000e+00 1.110353e+02 -2.813630e+01
        vertex -7.000000e+00 1.134641e+02 -3.400000e+01
        vertex -7.000000e+00 1.138637e+02 -3.303527e+01
    endloop
endfacet
facet normal 1.000000e+00 0.000000e+00 0.000000e+00
    outer loop
        vertex -7.000000e+00 1.110353e+02 -2.813630e+01
        vertex -7.000000e+00 1.138637e+02 -3.303527e+01
        vertex -7.000000e+00 1.120000e+02 -2.853590e+01
    endloop
endfacet
facet normal 1.000000e+00 0.000000e+00 0.000000e+00
    outer loop
        vertex -7.000000e+00 1.120000e+02 -2.853590e+01
        vertex -7.000000e+00 1.138637e+02 -3.303527e+01
        vertex -7.000000e+00 1.128284e+02 -2.917157e+01
    endloop
endfacet
facet normal 1.000000e+00 0.000000e+00 0.000000e+00
    outer loop
        vertex -7.000000e+00 1.128284e+02 -2.917157e+01
        vertex -7.000000e+00 1.138637e+02 -3.303527e+01
        vertex -7.000000e+00 1.140000e+02 -3.200000e+01
    endloop
endfacet
facet normal 1.000000e+00 0.000000e+00 0.000000e+00
    outer loop
        vertex -7.000000e+00 1.128284e+02 -2.917157e+01
        vertex -7.000000e+00 1.140000e+02 -3.200000e+01
        vertex -7.000000e+00 1.138637e+02 -3.096472e+01
    endloop
endfacet
facet normal 1.000000e+00 0.000000e+00 0.000000e+00
    outer loop
        vertex -7.000000e+00 1.128284e+02 -2.917157e+01
        vertex -7.000000e+00 1.138637e+02 -3.096472e+01
        vertex -7.000000e+00 1.134641e+02 -3.000000e+01
    endloop
endfacet
facet normal -1.000000e+00 0.000000e+00 0.000000e+00
    outer loop
        vertex 7.000000e+00 1.100000e+02 -3.600000e+01
        vertex 7.000000e+00 1.100000e+02 -2.800000e+01
        vertex 7.000000e+00 1.110353e+02 -2.813630e+01
    endloop
endfacet
facet normal -1.000000e+00 0.000000e+00 0.000000e+00
    outer loop
        vertex 7.000000e+00 1.100000e+02 -3.600000e+01
        vertex 7.000000e+00 1.110353e+02 -2.813630e+01
        vertex 7.000000e+00 1.110353e+02 -3.586371e+01
    endloop
endfacet
facet normal -1.000000e+00 0.000000e+00 0.000000e+00
    outer loop
        vertex 7.000000e+00 1.110353e+02 -3.586371e+01
        vertex 7.000000e+00 1.110353e+02 -2.813630e+01
        vertex 7.000000e+00 1.120000e+02 -3.546410e+01
    endloop
endfacet
facet normal -1.000000e+00 0.000000e+00 0.000000e+00
    outer loop
        vertex 7.000000e+00 1.110353e+02 -2.813630e+01
        vertex 7.000000e+00 1.128284e+02 -3.482843e+01
        vertex 7.000000e+00 1.120000e+02 -3.546410e+01
    endloop
endfacet
facet normal -1.000000e+00 0.000000e+00 0.000000e+00
    outer loop
        vertex 7.000000e+00 1.110353e+02 -2.813630e+01
        vertex 7.000000e+00 1.134641e+02 -3.400000e+01
        vertex 7.000000e+00 1.128284e+02 -3.482843e+01
    endloop
endfacet
facet normal -1.000000e+00 0.000000e+00 0.000000e+00
    outer loop
        vertex 7.000000e+00 1.110353e+02 -2.813630e+01
        vertex 7.000000e+00 1.138637e+02 -3.303527e+01
        vertex 7.000000e+00 1.134641e+02 -3.400000e+01
    endloop
endfacet
facet normal -1.000000e+00 0.000000e+00 0.000000e+00
    outer loop
        vertex 7.000000e+00 1.110353e+02 -2.813630e+01
        vertex 7.000000e+00 1.120000e+02 -2.853590e+01
        vertex 7.000000e+00 1.138637e+02 -3.303527e+01
    endloop
endfacet
facet normal -1.000000e+00 0.000000e+00 0.000000e+00
    outer loop
        vertex 7.000000e+00 1.120000e+02 -2.853590e+01
        vertex 7.000000e+00 1.128284e+02 -2.917157e+01
        vertex 7.000000e+00 1.138637e+02 -3.303527e+01
    endloop
endfacet
facet normal -1.000000e+00 0.000000e+00 0.000000e+00
    outer loop
        vertex 7.000000e+00 1.128284e+02 -2.917157e+01
        vertex 7.000000e+00 1.140000e+02 -3.200000e+01
        vertex 7.000000e+00 1.138637e+02 -3.303527e+01
    endloop
endfacet
facet normal -1.000000e+00 0.000000e+00 0.000000e+00
    outer loop
        vertex 7.000000e+00 1.128284e+02 -2.917157e+01
        vertex 7.000000e+00 1.134641e+02 -3.000000e+01
        vertex 7.000000e+00 1.138637e+02 -3.096472e+01
    endloop
endfacet
facet normal -1.000000e+00 0.000000e+00 0.000000e+00
    outer loop
        vertex 7.000000e+00 1.128284e+02 -2.917157e+01
        vertex 7.000000e+00 1.138637e+02 -3.096472e+01
        vertex 7.000000e+00 1.140000e+02 -3.200000e+01
    endloop
endfacet
facet normal 1.000000e+00 0.000000e+00 0.000000e+00
    outer loop
        vertex 1.150000e+01 1.116500e+02 -3.030000e+01
        vertex 1.150000e+01 1.128284e+02 -2.917157e+01
        vertex 1.150000e+01 1.120000e+02 -2.853590e+01
    endloop
endfacet
facet normal 1.000000e+00 0.000000e+00 0.000000e+00
    outer loop
        vertex 1.150000e+01 1.116500e+02 -3.030000e+01
        vertex 1.150000e+01 1.134641e+02 -3.000000e+01
        vertex 1.150000e+01 1.128284e+02 -2.917157e+01
    endloop
endfacet
facet normal 1.000000e+00 0.000000e+00 0.000000e+00
    outer loop
        vertex 1.150000e+01 1.110353e+02 -2.813630e+01
        vertex 1.150000e+01 1.116500e+02 -3.030000e+01
        vertex 1.150000e+01 1.120000e+02 -2.853590e+01
    endloop
endfacet
facet normal 1.000000e+00 0.000000e+00 0.000000e+00
    outer loop
        vertex 1.150000e+01 1.083500e+02 -3.030000e+01
        vertex 1.150000e+01 1.116500e+02 -3.030000e+01
        vertex 1.150000e+01 1.110353e+02 -2.813630e+01
    endloop
endfacet
facet normal 1.000000e+00 0.000000e+00 0.000000e+00
    outer loop
        vertex 1.150000e+01 1.116500e+02 -3.360000e+01
        vertex 1.150000e+01 1.134641e+02 -3.000000e+01
        vertex 1.150000e+01 1.116500e+02 -3.030000e+01
    endloop
endfacet
facet normal 1.000000e+00 0.000000e+00 0.000000e+00
    outer loop
        vertex 1.150000e+01 1.083500e+02 -3.030000e+01
        vertex 1.150000e+01 1.110353e+02 -2.813630e+01
        vertex 1.150000e+01 1.100000e+02 -2.800000e+01
    endloop
endfacet
facet normal 1.000000e+00 0.000000e+00 0.000000e+00
    outer loop
        vertex 1.150000e+01 1.083500e+02 -3.030000e+01
        vertex 1.150000e+01 1.100000e+02 -2.800000e+01
        vertex 1.150000e+01 1.089647e+02 -2.813630e+01
    endloop
endfacet
facet normal 1.000000e+00 -0.000000e+00 0.000000e+00
    outer loop
        vertex 1.150000e+01 1.080000e+02 -2.853590e+01
        vertex 1.150000e+01 1.083500e+02 -3.030000e+01
        vertex 1.150000e+01 1.089647e+02 -2.813630e+01
    endloop
endfacet
facet normal 1.000000e+00 -0.000000e+00 0.000000e+00
    outer loop
        vertex 1.150000e+01 1.071716e+02 -2.917157e+01
        vertex 1.150000e+01 1.083500e+02 -3.030000e+01
        vertex 1.150000e+01 1.080000e+02 -2.853590e+01
    endloop
endfacet
facet normal 1.000000e+00 -0.000000e+00 0.000000e+00
    outer loop
        vertex 1.150000e+01 1.065359e+02 -3.000000e+01
        vertex 1.150000e+01 1.083500e+02 -3.030000e+01
        vertex 1.150000e+01 1.071716e+02 -2.917157e+01
    endloop
endfacet
facet normal 1.000000e+00 0.000000e+00 0.000000e+00
    outer loop
        vertex 1.150000e+01 1.065359e+02 -3.000000e+01
        vertex 1.150000e+01 1.083500e+02 -3.360000e+01
        vertex 1.150000e+01 1.083500e+02 -3.030000e+01
    endloop
endfacet
facet normal 1.000000e+00 0.000000e+00 0.000000e+00
    outer loop
        vertex 1.150000e+01 1.116500e+02 -3.360000e+01
        vertex 1.150000e+01 1.138637e+02 -3.096472e+01
        vertex 1.150000e+01 1.134641e+02 -3.000000e+01
    endloop
endfacet
facet normal 1.000000e+00 0.000000e+00 0.000000e+00
    outer loop
        vertex 1.150000e+01 1.116500e+02 -3.360000e+01
        vertex 1.150000e+01 1.140000e+02 -3.200000e+01
        vertex 1.150000e+01 1.138637e+02 -3.096472e+01
    endloop
endfacet
facet normal 1.000000e+00 0.000000e+00 0.000000e+00
    outer loop
        vertex 1.150000e+01 1.116500e+02 -3.360000e+01
        vertex 1.150000e+01 1.138637e+02 -3.303527e+01
        vertex 1.150000e+01 1.140000e+02 -3.200000e+01
    endloop
endfacet
facet normal 1.000000e+00 -0.000000e+00 0.000000e+00
    outer loop
        vertex 1.150000e+01 1.116500e+02 -3.360000e+01
        vertex 1.150000e+01 1.134641e+02 -3.400000e+01
        vertex 1.150000e+01 1.138637e+02 -3.303527e+01
    endloop
endfacet
facet normal 1.000000e+00 0.000000e+00 0.000000e+00
    outer loop
        vertex 1.150000e+01 1.116500e+02 -3.360000e+01
        vertex 1.150000e+01 1.128284e+02 -3.482843e+01
        vertex 1.150000e+01 1.134641e+02 -3.400000e+01
    endloop
endfacet
facet normal 1.000000e+00 0.000000e+00 0.000000e+00
    outer loop
        vertex 1.150000e+01 1.116500e+02 -3.360000e+01
        vertex 1.150000e+01 1.120000e+02 -3.546410e+01
        vertex 1.150000e+01 1.128284e+02 -3.482843e+01
    endloop
endfacet
facet normal 1.000000e+00 -0.000000e+00 0.000000e+00
    outer loop
        vertex 1.150000e+01 1.083500e+02 -3.360000e+01
        vertex 1.150000e+01 1.120000e+02 -3.546410e+01
        vertex 1.150000e+01 1.116500e+02 -3.360000e+01
    endloop
endfacet
facet normal 1.000000e+00 -0.000000e+00 0.000000e+00
    outer loop
        vertex 1.150000e+01 1.061363e+02 -3.096472e+01
        vertex 1.150000e+01 1.083500e+02 -3.360000e+01
        vertex 1.150000e+01 1.065359e+02 -3.000000e+01
    endloop
endfacet
facet normal 1.000000e+00 -0.000000e+00 0.000000e+00
    outer loop
        vertex 1.150000e+01 1.060000e+02 -3.200000e+01
        vertex 1.150000e+01 1.083500e+02 -3.360000e+01
        vertex 1.150000e+01 1.061363e+02 -3.096472e+01
    endloop
endfacet
facet normal 1.000000e+00 0.000000e+00 0.000000e+00
    outer loop
        vertex 1.150000e+01 1.060000e+02 -3.200000e+01
        vertex 1.150000e+01 1.061363e+02 -3.303528e+01
        vertex 1.150000e+01 1.083500e+02 -3.360000e+01
    endloop
endfacet
facet normal 1.000000e+00 0.000000e+00 0.000000e+00
    outer loop
        vertex 1.150000e+01 1.061363e+02 -3.303528e+01
        vertex 1.150000e+01 1.065359e+02 -3.400000e+01
        vertex 1.150000e+01 1.083500e+02 -3.360000e+01
    endloop
endfacet
facet normal 1.000000e+00 -0.000000e+00 0.000000e+00
    outer loop
        vertex 1.150000e+01 1.065359e+02 -3.400000e+01
        vertex 1.150000e+01 1.071716e+02 -3.482843e+01
        vertex 1.150000e+01 1.083500e+02 -3.360000e+01
    endloop
endfacet
facet normal 1.000000e+00 -0.000000e+00 0.000000e+00
    outer loop
        vertex 1.150000e+01 1.071716e+02 -3.482843e+01
        vertex 1.150000e+01 1.080000e+02 -3.546410e+01
        vertex 1.150000e+01 1.083500e+02 -3.360000e+01
    endloop
endfacet
facet normal 1.000000e+00 -0.000000e+00 0.000000e+00
    outer loop
        vertex 1.150000e+01 1.080000e+02 -3.546410e+01
        vertex 1.150000e+01 1.089647e+02 -3.586371e+01
        vertex 1.150000e+01 1.083500e+02 -3.360000e+01
    endloop
endfacet
facet normal 1.000000e+00 0.000000e+00 0.000000e+00
    outer loop
        vertex 1.150000e+01 1.083500e+02 -3.360000e+01
        vertex 1.150000e+01 1.089647e+02 -3.586371e+01
        vertex 1.150000e+01 1.100000e+02 -3.600000e+01
    endloop
endfacet
facet normal 1.000000e+00 0.000000e+00 0.000000e+00
    outer loop
        vertex 1.150000e+01 1.083500e+02 -3.360000e+01
        vertex 1.150000e+01 1.100000e+02 -3.600000e+01
        vertex 1.150000e+01 1.110353e+02 -3.586371e+01
    endloop
endfacet
facet normal 1.000000e+00 0.000000e+00 0.000000e+00
    outer loop
        vertex 1.150000e+01 1.083500e+02 -3.360000e+01
        vertex 1.150000e+01 1.110353e+02 -3.586371e+01
        vertex 1.150000e+01 1.120000e+02 -3.546410e+01
    endloop
endfacet
facet normal 0.000000e+00 0.000000e+00 -1.000000e+00
    outer loop
        vertex 1.470000e+01 1.083500e+02 -3.360000e+01
        vertex 1.150000e+01 1.116500e+02 -3.360000e+01
        vertex 1.470000e+01 1.116500e+02 -3.360000e+01
    endloop
endfacet
facet normal 0.000000e+00 0.000000e+00 -1.000000e+00
    outer loop
        vertex 1.150000e+01 1.083500e+02 -3.360000e+01
        vertex 1.150000e+01 1.116500e+02 -3.360000e+01
        vertex 1.470000e+01 1.083500e+02 -3.360000e+01
    endloop
endfacet
facet normal 0.000000e+00 1.000000e+00 -0.000000e+00
    outer loop
        vertex 1.470000e+01 1.116500e+02 -3.360000e+01
        vertex 1.150000e+01 1.116500e+02 -3.030000e+01
        vertex 1.470000e+01 1.116500e+02 -3.030000e+01
    endloop
endfacet
facet normal 0.000000e+00 1.000000e+00 0.000000e+00
    outer loop
        vertex 1.150000e+01 1.116500e+02 -3.360000e+01
        vertex 1.150000e+01 1.116500e+02 -3.030000e+01
        vertex 1.470000e+01 1.116500e+02 -3.360000e+01
    endloop
endfacet
facet normal 0.000000e+00 -0.000000e+00 1.000000e+00
    outer loop
        vertex 1.470000e+01 1.083500e+02 -3.030000e+01
        vertex 1.470000e+01 1.116500e+02 -3.030000e+01
        vertex 1.150000e+01 1.116500e+02 -3.030000e+01
    endloop
endfacet
facet normal 0.000000e+00 0.000000e+00 1.000000e+00
    outer loop
        vertex 1.150000e+01 1.083500e+02 -3.030000e+01
        vertex 1.470000e+01 1.083500e+02 -3.030000e+01
        vertex 1.150000e+01 1.116500e+02 -3.030000e+01
    endloop
endfacet
facet normal 0.000000e+00 -1.000000e+00 0.000000e+00
    outer loop
        vertex 1.470000e+01 1.083500e+02 -3.360000e+01
        vertex 1.470000e+01 1.083500e+02 -3.030000e+01
        vertex 1.150000e+01 1.083500e+02 -3.030000e+01
    endloop
endfacet
facet normal 0.000000e+00 -1.000000e+00 0.000000e+00
    outer loop
        vertex 1.150000e+01 1.083500e+02 -3.360000e+01
        vertex 1.470000e+01 1.083500e+02 -3.360000e+01
        vertex 1.150000e+01 1.083500e+02 -3.030000e+01
    endloop
endfacet
facet normal 1.000000e+00 -0.000000e+00 0.000000e+00
    outer loop
        vertex 1.470000e+01 1.107071e+02 -3.270711e+01
        vertex 1.470000e+01 1.116500e+02 -3.360000e+01
        vertex 1.470000e+01 1.108660e+02 -3.250000e+01
    endloop
endfacet
facet normal 1.000000e+00 -0.000000e+00 0.000000e+00
    outer loop
        vertex 1.470000e+01 1.105000e+02 -3.286602e+01
        vertex 1.470000e+01 1.116500e+02 -3.360000e+01
        vertex 1.470000e+01 1.107071e+02 -3.270711e+01
    endloop
endfacet
facet normal 1.000000e+00 -0.000000e+00 0.000000e+00
    outer loop
        vertex 1.470000e+01 1.108660e+02 -3.250000e+01
        vertex 1.470000e+01 1.116500e+02 -3.360000e+01
        vertex 1.470000e+01 1.109659e+02 -3.225882e+01
    endloop
endfacet
facet normal 1.000000e+00 -0.000000e+00 0.000000e+00
    outer loop
        vertex 1.470000e+01 1.109659e+02 -3.225882e+01
        vertex 1.470000e+01 1.116500e+02 -3.360000e+01
        vertex 1.470000e+01 1.116500e+02 -3.030000e+01
    endloop
endfacet
facet normal 1.000000e+00 -0.000000e+00 0.000000e+00
    outer loop
        vertex 1.470000e+01 1.102588e+02 -3.296593e+01
        vertex 1.470000e+01 1.116500e+02 -3.360000e+01
        vertex 1.470000e+01 1.105000e+02 -3.286602e+01
    endloop
endfacet
facet normal 1.000000e+00 0.000000e+00 0.000000e+00
    outer loop
        vertex 1.470000e+01 1.083500e+02 -3.360000e+01
        vertex 1.470000e+01 1.116500e+02 -3.360000e+01
        vertex 1.470000e+01 1.102588e+02 -3.296593e+01
    endloop
endfacet
facet normal 1.000000e+00 0.000000e+00 0.000000e+00
    outer loop
        vertex 1.470000e+01 1.109659e+02 -3.225882e+01
        vertex 1.470000e+01 1.116500e+02 -3.030000e+01
        vertex 1.470000e+01 1.110000e+02 -3.200000e+01
    endloop
endfacet
facet normal 1.000000e+00 -0.000000e+00 0.000000e+00
    outer loop
        vertex 1.470000e+01 1.109659e+02 -3.174118e+01
        vertex 1.470000e+01 1.110000e+02 -3.200000e+01
        vertex 1.470000e+01 1.116500e+02 -3.030000e+01
    endloop
endfacet
facet normal 1.000000e+00 -0.000000e+00 0.000000e+00
    outer loop
        vertex 1.470000e+01 1.108660e+02 -3.150000e+01
        vertex 1.470000e+01 1.109659e+02 -3.174118e+01
        vertex 1.470000e+01 1.116500e+02 -3.030000e+01
    endloop
endfacet
facet normal 1.000000e+00 -0.000000e+00 0.000000e+00
    outer loop
        vertex 1.470000e+01 1.107071e+02 -3.129289e+01
        vertex 1.470000e+01 1.108660e+02 -3.150000e+01
        vertex 1.470000e+01 1.116500e+02 -3.030000e+01
    endloop
endfacet
facet normal 1.000000e+00 -0.000000e+00 0.000000e+00
    outer loop
        vertex 1.470000e+01 1.105000e+02 -3.113397e+01
        vertex 1.470000e+01 1.107071e+02 -3.129289e+01
        vertex 1.470000e+01 1.116500e+02 -3.030000e+01
    endloop
endfacet
facet normal 1.000000e+00 -0.000000e+00 0.000000e+00
    outer loop
        vertex 1.470000e+01 1.102588e+02 -3.103407e+01
        vertex 1.470000e+01 1.105000e+02 -3.113397e+01
        vertex 1.470000e+01 1.116500e+02 -3.030000e+01
    endloop
endfacet
facet normal 1.000000e+00 -0.000000e+00 0.000000e+00
    outer loop
        vertex 1.470000e+01 1.083500e+02 -3.030000e+01
        vertex 1.470000e+01 1.102588e+02 -3.103407e+01
        vertex 1.470000e+01 1.116500e+02 -3.030000e+01
    endloop
endfacet
facet normal 1.000000e+00 0.000000e+00 0.000000e+00
    outer loop
        vertex 1.470000e+01 1.083500e+02 -3.030000e+01
        vertex 1.470000e+01 1.100000e+02 -3.100000e+01
        vertex 1.470000e+01 1.102588e+02 -3.103407e+01
    endloop
endfacet
facet normal 1.000000e+00 0.000000e+00 0.000000e+00
    outer loop
        vertex 1.470000e+01 1.083500e+02 -3.030000e+01
        vertex 1.470000e+01 1.097412e+02 -3.103407e+01
        vertex 1.470000e+01 1.100000e+02 -3.100000e+01
    endloop
endfacet
facet normal 1.000000e+00 0.000000e+00 0.000000e+00
    outer loop
        vertex 1.470000e+01 1.083500e+02 -3.030000e+01
        vertex 1.470000e+01 1.095000e+02 -3.113397e+01
        vertex 1.470000e+01 1.097412e+02 -3.103407e+01
    endloop
endfacet
facet normal 1.000000e+00 0.000000e+00 0.000000e+00
    outer loop
        vertex 1.470000e+01 1.083500e+02 -3.030000e+01
        vertex 1.470000e+01 1.092929e+02 -3.129289e+01
        vertex 1.470000e+01 1.095000e+02 -3.113397e+01
    endloop
endfacet
facet normal 1.000000e+00 0.000000e+00 0.000000e+00
    outer loop
        vertex 1.470000e+01 1.083500e+02 -3.030000e+01
        vertex 1.470000e+01 1.091340e+02 -3.150000e+01
        vertex 1.470000e+01 1.092929e+02 -3.129289e+01
    endloop
endfacet
facet normal 1.000000e+00 0.000000e+00 0.000000e+00
    outer loop
        vertex 1.470000e+01 1.083500e+02 -3.030000e+01
        vertex 1.470000e+01 1.090341e+02 -3.174118e+01
        vertex 1.470000e+01 1.091340e+02 -3.150000e+01
    endloop
endfacet
facet normal 1.000000e+00 0.000000e+00 0.000000e+00
    outer loop
        vertex 1.470000e+01 1.083500e+02 -3.360000e+01
        vertex 1.470000e+01 1.090341e+02 -3.174118e+01
        vertex 1.470000e+01 1.083500e+02 -3.030000e+01
    endloop
endfacet
facet normal 1.000000e+00 0.000000e+00 0.000000e+00
    outer loop
        vertex 1.470000e+01 1.083500e+02 -3.360000e+01
        vertex 1.470000e+01 1.090000e+02 -3.200000e+01
        vertex 1.470000e+01 1.090341e+02 -3.174118e+01
    endloop
endfacet
facet normal 1.000000e+00 0.000000e+00 0.000000e+00
    outer loop
        vertex 1.470000e+01 1.083500e+02 -3.360000e+01
        vertex 1.470000e+01 1.090341e+02 -3.225882e+01
        vertex 1.470000e+01 1.090000e+02 -3.200000e+01
    endloop
endfacet
facet normal 1.000000e+00 0.000000e+00 0.000000e+00
    outer loop
        vertex 1.470000e+01 1.083500e+02 -3.360000e+01
        vertex 1.470000e+01 1.091340e+02 -3.250000e+01
        vertex 1.470000e+01 1.090341e+02 -3.225882e+01
    endloop
endfacet
facet normal 1.000000e+00 0.000000e+00 0.000000e+00
    outer loop
        vertex 1.470000e+01 1.083500e+02 -3.360000e+01
        vertex 1.470000e+01 1.092929e+02 -3.270711e+01
        vertex 1.470000e+01 1.091340e+02 -3.250000e+01
    endloop
endfacet
facet normal 1.000000e+00 0.000000e+00 0.000000e+00
    outer loop
        vertex 1.470000e+01 1.083500e+02 -3.360000e+01
        vertex 1.470000e+01 1.095000e+02 -3.286602e+01
        vertex 1.470000e+01 1.092929e+02 -3.270711e+01
    endloop
endfacet
facet normal 1.000000e+00 0.000000e+00 0.000000e+00
    outer loop
        vertex 1.470000e+01 1.083500e+02 -3.360000e+01
        vertex 1.470000e+01 1.097412e+02 -3.296593e+01
        vertex 1.470000e+01 1.095000e+02 -3.286602e+01
    endloop
endfacet
facet normal 1.000000e+00 0.000000e+00 0.000000e+00
    outer loop
        vertex 1.470000e+01 1.083500e+02 -3.360000e+01
        vertex 1.470000e+01 1.102588e+02 -3.296593e+01
        vertex 1.470000e+01 1.100000e+02 -3.300000e+01
    endloop
endfacet
facet normal 1.000000e+00 0.000000e+00 0.000000e+00
    outer loop
        vertex 1.470000e+01 1.083500e+02 -3.360000e+01
        vertex 1.470000e+01 1.100000e+02 -3.300000e+01
        vertex 1.470000e+01 1.097412e+02 -3.296593e+01
    endloop
endfacet
facet normal 1.000000e+00 0.000000e+00 0.000000e+00
    outer loop
        vertex 8.000000e+00 1.095000e+02 -3.286602e+01
        vertex 8.000000e+00 1.097412e+02 -3.296593e+01
        vertex 8.000000e+00 1.100000e+02 -3.300000e+01
    endloop
endfacet
facet normal 1.000000e+00 0.000000e+00 0.000000e+00
    outer loop
        vertex 8.000000e+00 1.095000e+02 -3.286602e+01
        vertex 8.000000e+00 1.100000e+02 -3.300000e+01
        vertex 8.000000e+00 1.102588e+02 -3.296593e+01
    endloop
endfacet
facet normal 1.000000e+00 -0.000000e+00 0.000000e+00
    outer loop
        vertex 8.000000e+00 1.095000e+02 -3.286602e+01
        vertex 8.000000e+00 1.102588e+02 -3.296593e+01
        vertex 8.000000e+00 1.105000e+02 -3.286602e+01
    endloop
endfacet
facet normal 1.000000e+00 0.000000e+00 0.000000e+00
    outer loop
        vertex 8.000000e+00 1.092929e+02 -3.270711e+01
        vertex 8.000000e+00 1.095000e+02 -3.286602e+01
        vertex 8.000000e+00 1.105000e+02 -3.286602e+01
    endloop
endfacet
facet normal 1.000000e+00 0.000000e+00 0.000000e+00
    outer loop
        vertex 8.000000e+00 1.091340e+02 -3.250000e+01
        vertex 8.000000e+00 1.092929e+02 -3.270711e+01
        vertex 8.000000e+00 1.105000e+02 -3.286602e+01
    endloop
endfacet
facet normal 1.000000e+00 0.000000e+00 0.000000e+00
    outer loop
        vertex 8.000000e+00 1.090341e+02 -3.225882e+01
        vertex 8.000000e+00 1.091340e+02 -3.250000e+01
        vertex 8.000000e+00 1.105000e+02 -3.286602e+01
    endloop
endfacet
facet normal 1.000000e+00 0.000000e+00 0.000000e+00
    outer loop
        vertex 8.000000e+00 1.090000e+02 -3.200000e+01
        vertex 8.000000e+00 1.090341e+02 -3.225882e+01
        vertex 8.000000e+00 1.105000e+02 -3.286602e+01
    endloop
endfacet
facet normal 1.000000e+00 -0.000000e+00 0.000000e+00
    outer loop
        vertex 8.000000e+00 1.090000e+02 -3.200000e+01
        vertex 8.000000e+00 1.105000e+02 -3.286602e+01
        vertex 8.000000e+00 1.090341e+02 -3.174118e+01
    endloop
endfacet
facet normal 1.000000e+00 -0.000000e+00 0.000000e+00
    outer loop
        vertex 8.000000e+00 1.090341e+02 -3.174118e+01
        vertex 8.000000e+00 1.105000e+02 -3.286602e+01
        vertex 8.000000e+00 1.091340e+02 -3.150000e+01
    endloop
endfacet
facet normal 1.000000e+00 -0.000000e+00 0.000000e+00
    outer loop
        vertex 8.000000e+00 1.091340e+02 -3.150000e+01
        vertex 8.000000e+00 1.105000e+02 -3.286602e+01
        vertex 8.000000e+00 1.092929e+02 -3.129289e+01
    endloop
endfacet
facet normal 1.000000e+00 -0.000000e+00 0.000000e+00
    outer loop
        vertex 8.000000e+00 1.092929e+02 -3.129289e+01
        vertex 8.000000e+00 1.105000e+02 -3.286602e+01
        vertex 8.000000e+00 1.095000e+02 -3.113397e+01
    endloop
endfacet
facet normal 1.000000e+00 0.000000e+00 0.000000e+00
    outer loop
        vertex 8.000000e+00 1.095000e+02 -3.113397e+01
        vertex 8.000000e+00 1.105000e+02 -3.286602e+01
        vertex 8.000000e+00 1.107071e+02 -3.270711e+01
    endloop
endfacet
facet normal 1.000000e+00 0.000000e+00 0.000000e+00
    outer loop
        vertex 8.000000e+00 1.095000e+02 -3.113397e+01
        vertex 8.000000e+00 1.107071e+02 -3.270711e+01
        vertex 8.000000e+00 1.108660e+02 -3.250000e+01
    endloop
endfacet
facet normal 1.000000e+00 0.000000e+00 0.000000e+00
    outer loop
        vertex 8.000000e+00 1.095000e+02 -3.113397e+01
        vertex 8.000000e+00 1.108660e+02 -3.250000e+01
        vertex 8.000000e+00 1.109659e+02 -3.225882e+01
    endloop
endfacet
facet normal 1.000000e+00 0.000000e+00 0.000000e+00
    outer loop
        vertex 8.000000e+00 1.095000e+02 -3.113397e+01
        vertex 8.000000e+00 1.109659e+02 -3.225882e+01
        vertex 8.000000e+00 1.110000e+02 -3.200000e+01
    endloop
endfacet
facet normal 1.000000e+00 0.000000e+00 0.000000e+00
    outer loop
        vertex 8.000000e+00 1.095000e+02 -3.113397e+01
        vertex 8.000000e+00 1.110000e+02 -3.200000e+01
        vertex 8.000000e+00 1.109659e+02 -3.174118e+01
    endloop
endfacet
facet normal 1.000000e+00 0.000000e+00 0.000000e+00
    outer loop
        vertex 8.000000e+00 1.095000e+02 -3.113397e+01
        vertex 8.000000e+00 1.109659e+02 -3.174118e+01
        vertex 8.000000e+00 1.108660e+02 -3.150000e+01
    endloop
endfacet
facet normal 1.000000e+00 0.000000e+00 0.000000e+00
    outer loop
        vertex 8.000000e+00 1.095000e+02 -3.113397e+01
        vertex 8.000000e+00 1.108660e+02 -3.150000e+01
        vertex 8.000000e+00 1.107071e+02 -3.129289e+01
    endloop
endfacet
facet normal 1.000000e+00 -0.000000e+00 0.000000e+00
    outer loop
        vertex 8.000000e+00 1.095000e+02 -3.113397e+01
        vertex 8.000000e+00 1.107071e+02 -3.129289e+01
        vertex 8.000000e+00 1.105000e+02 -3.113397e+01
    endloop
endfacet
facet normal 1.000000e+00 0.000000e+00 0.000000e+00
    outer loop
        vertex 8.000000e+00 1.095000e+02 -3.113397e+01
        vertex 8.000000e+00 1.105000e+02 -3.113397e+01
        vertex 8.000000e+00 1.102588e+02 -3.103407e+01
    endloop
endfacet
facet normal 1.000000e+00 0.000000e+00 0.000000e+00
    outer loop
        vertex 8.000000e+00 1.097412e+02 -3.103407e+01
        vertex 8.000000e+00 1.102588e+02 -3.103407e+01
        vertex 8.000000e+00 1.100000e+02 -3.100000e+01
    endloop
endfacet
facet normal 1.000000e+00 0.000000e+00 0.000000e+00
    outer loop
        vertex 8.000000e+00 1.095000e+02 -3.113397e+01
        vertex 8.000000e+00 1.102588e+02 -3.103407e+01
        vertex 8.000000e+00 1.097412e+02 -3.103407e+01
    endloop
endfacet
facet normal 0.000000e+00 9.914450e-01 -1.305250e-01
    outer loop
        vertex -1.150000e+01 1.148380e+02 -3.329632e+01
        vertex -1.250000e+01 1.148380e+02 -3.329632e+01
        vertex -1.150000e+01 1.150086e+02 -3.200000e+01
    endloop
endfacet
facet normal 0.000000e+00 9.914450e-01 -1.305250e-01
    outer loop
        vertex -1.250000e+01 1.148380e+02 -3.329632e+01
        vertex -1.250000e+01 1.150086e+02 -3.200000e+01
        vertex -1.150000e+01 1.150086e+02 -3.200000e+01
    endloop
endfacet
facet normal 0.000000e+00 9.914451e-01 1.305241e-01
    outer loop
        vertex -1.150000e+01 1.148380e+02 -3.070367e+01
        vertex -1.150000e+01 1.150086e+02 -3.200000e+01
        vertex -1.250000e+01 1.150086e+02 -3.200000e+01
    endloop
endfacet
facet normal 0.000000e+00 9.914451e-01 1.305241e-01
    outer loop
        vertex -1.150000e+01 1.148380e+02 -3.070367e+01
        vertex -1.250000e+01 1.150086e+02 -3.200000e+01
        vertex -1.250000e+01 1.148380e+02 -3.070367e+01
    endloop
endfacet
facet normal 0.000000e+00 9.238811e-01 3.826796e-01
    outer loop
        vertex -1.150000e+01 1.143376e+02 -2.949569e+01
        vertex -1.150000e+01 1.148380e+02 -3.070367e+01
        vertex -1.250000e+01 1.148380e+02 -3.070367e+01
    endloop
endfacet
facet normal 0.000000e+00 9.238811e-01 3.826796e-01
    outer loop
        vertex -1.150000e+01 1.143376e+02 -2.949569e+01
        vertex -1.250000e+01 1.148380e+02 -3.070367e+01
        vertex -1.250000e+01 1.143376e+02 -2.949569e+01
    endloop
endfacet
facet normal 0.000000e+00 7.933512e-01 6.087642e-01
    outer loop
        vertex -1.150000e+01 1.135416e+02 -2.845836e+01
        vertex -1.150000e+01 1.143376e+02 -2.949569e+01
        vertex -1.250000e+01 1.143376e+02 -2.949569e+01
    endloop
endfacet
facet normal 0.000000e+00 7.933512e-01 6.087642e-01
    outer loop
        vertex -1.150000e+01 1.135416e+02 -2.845836e+01
        vertex -1.250000e+01 1.143376e+02 -2.949569e+01
        vertex -1.250000e+01 1.135416e+02 -2.845836e+01
    endloop
endfacet
facet normal 0.000000e+00 6.087592e-01 7.933550e-01
    outer loop
        vertex -1.150000e+01 1.125043e+02 -2.766240e+01
        vertex -1.150000e+01 1.135416e+02 -2.845836e+01
        vertex -1.250000e+01 1.135416e+02 -2.845836e+01
    endloop
endfacet
facet normal 0.000000e+00 6.087592e-01 7.933550e-01
    outer loop
        vertex -1.150000e+01 1.125043e+02 -2.766240e+01
        vertex -1.250000e+01 1.135416e+02 -2.845836e+01
        vertex -1.250000e+01 1.125043e+02 -2.766240e+01
    endloop
endfacet
facet normal 0.000000e+00 3.826821e-01 9.238801e-01
    outer loop
        vertex -1.150000e+01 1.112963e+02 -2.716204e+01
        vertex -1.150000e+01 1.125043e+02 -2.766240e+01
        vertex -1.250000e+01 1.125043e+02 -2.766240e+01
    endloop
endfacet
facet normal 0.000000e+00 3.826821e-01 9.238801e-01
    outer loop
        vertex -1.150000e+01 1.112963e+02 -2.716204e+01
        vertex -1.250000e+01 1.125043e+02 -2.766240e+01
        vertex -1.250000e+01 1.112963e+02 -2.716204e+01
    endloop
endfacet
facet normal 0.000000e+00 1.305278e-01 9.914446e-01
    outer loop
        vertex -1.150000e+01 1.100000e+02 -2.699137e+01
        vertex -1.150000e+01 1.112963e+02 -2.716204e+01
        vertex -1.250000e+01 1.112963e+02 -2.716204e+01
    endloop
endfacet
facet normal 0.000000e+00 1.305278e-01 9.914446e-01
    outer loop
        vertex -1.150000e+01 1.100000e+02 -2.699137e+01
        vertex -1.250000e+01 1.112963e+02 -2.716204e+01
        vertex -1.250000e+01 1.100000e+02 -2.699137e+01
    endloop
endfacet
facet normal 0.000000e+00 -1.305278e-01 9.914446e-01
    outer loop
        vertex -1.150000e+01 1.087037e+02 -2.716204e+01
        vertex -1.150000e+01 1.100000e+02 -2.699137e+01
        vertex -1.250000e+01 1.087037e+02 -2.716204e+01
    endloop
endfacet
facet normal 0.000000e+00 -1.305278e-01 9.914446e-01
    outer loop
        vertex -1.250000e+01 1.087037e+02 -2.716204e+01
        vertex -1.150000e+01 1.100000e+02 -2.699137e+01
        vertex -1.250000e+01 1.100000e+02 -2.699137e+01
    endloop
endfacet
facet normal 0.000000e+00 -3.826821e-01 9.238801e-01
    outer loop
        vertex -1.150000e+01 1.074957e+02 -2.766240e+01
        vertex -1.150000e+01 1.087037e+02 -2.716204e+01
        vertex -1.250000e+01 1.074957e+02 -2.766240e+01
    endloop
endfacet
facet normal 0.000000e+00 -3.826821e-01 9.238801e-01
    outer loop
        vertex -1.250000e+01 1.074957e+02 -2.766240e+01
        vertex -1.150000e+01 1.087037e+02 -2.716204e+01
        vertex -1.250000e+01 1.087037e+02 -2.716204e+01
    endloop
endfacet
facet normal 0.000000e+00 -6.087573e-01 7.933565e-01
    outer loop
        vertex -1.150000e+01 1.064584e+02 -2.845836e+01
        vertex -1.150000e+01 1.074957e+02 -2.766240e+01
        vertex -1.250000e+01 1.064584e+02 -2.845836e+01
    endloop
endfacet
facet normal 0.000000e+00 -6.087573e-01 7.933565e-01
    outer loop
        vertex -1.250000e+01 1.064584e+02 -2.845836e+01
        vertex -1.150000e+01 1.074957e+02 -2.766240e+01
        vertex -1.250000e+01 1.074957e+02 -2.766240e+01
    endloop
endfacet
facet normal 0.000000e+00 -7.933568e-01 6.087569e-01
    outer loop
        vertex -1.150000e+01 1.056624e+02 -2.949569e+01
        vertex -1.150000e+01 1.064584e+02 -2.845836e+01
        vertex -1.250000e+01 1.056624e+02 -2.949569e+01
    endloop
endfacet
facet normal 0.000000e+00 -7.933568e-01 6.087569e-01
    outer loop
        vertex -1.250000e+01 1.056624e+02 -2.949569e+01
        vertex -1.150000e+01 1.064584e+02 -2.845836e+01
        vertex -1.250000e+01 1.064584e+02 -2.845836e+01
    endloop
endfacet
facet normal 0.000000e+00 -9.238807e-01 3.826806e-01
    outer loop
        vertex -1.150000e+01 1.051620e+02 -3.070367e+01
        vertex -1.150000e+01 1.056624e+02 -2.949569e+01
        vertex -1.250000e+01 1.051620e+02 -3.070367e+01
    endloop
endfacet
facet normal 0.000000e+00 -9.238807e-01 3.826806e-01
    outer loop
        vertex -1.250000e+01 1.051620e+02 -3.070367e+01
        vertex -1.150000e+01 1.056624e+02 -2.949569e+01
        vertex -1.250000e+01 1.056624e+02 -2.949569e+01
    endloop
endfacet
facet normal 0.000000e+00 -9.914444e-01 1.305296e-01
    outer loop
        vertex -1.150000e+01 1.049914e+02 -3.200000e+01
        vertex -1.150000e+01 1.051620e+02 -3.070367e+01
        vertex -1.250000e+01 1.049914e+02 -3.200000e+01
    endloop
endfacet
facet normal 0.000000e+00 -9.914444e-01 1.305296e-01
    outer loop
        vertex -1.250000e+01 1.049914e+02 -3.200000e+01
        vertex -1.150000e+01 1.051620e+02 -3.070367e+01
        vertex -1.250000e+01 1.051620e+02 -3.070367e+01
    endloop
endfacet
facet normal 0.000000e+00 -9.914444e-01 -1.305296e-01
    outer loop
        vertex -1.150000e+01 1.049914e+02 -3.200000e+01
        vertex -1.250000e+01 1.051620e+02 -3.329633e+01
        vertex -1.150000e+01 1.051620e+02 -3.329633e+01
    endloop
endfacet
facet normal -0.000000e+00 -9.914444e-01 -1.305296e-01
    outer loop
        vertex -1.150000e+01 1.049914e+02 -3.200000e+01
        vertex -1.250000e+01 1.049914e+02 -3.200000e+01
        vertex -1.250000e+01 1.051620e+02 -3.329633e+01
    endloop
endfacet
facet normal 0.000000e+00 -9.238805e-01 -3.826811e-01
    outer loop
        vertex -1.150000e+01 1.051620e+02 -3.329633e+01
        vertex -1.250000e+01 1.056624e+02 -3.450431e+01
        vertex -1.150000e+01 1.056624e+02 -3.450431e+01
    endloop
endfacet
facet normal -0.000000e+00 -9.238805e-01 -3.826811e-01
    outer loop
        vertex -1.150000e+01 1.051620e+02 -3.329633e+01
        vertex -1.250000e+01 1.051620e+02 -3.329633e+01
        vertex -1.250000e+01 1.056624e+02 -3.450431e+01
    endloop
endfacet
facet normal 0.000000e+00 -7.933550e-01 -6.087592e-01
    outer loop
        vertex -1.150000e+01 1.056624e+02 -3.450431e+01
        vertex -1.250000e+01 1.064584e+02 -3.554164e+01
        vertex -1.150000e+01 1.064584e+02 -3.554164e+01
    endloop
endfacet
facet normal -0.000000e+00 -7.933550e-01 -6.087592e-01
    outer loop
        vertex -1.150000e+01 1.056624e+02 -3.450431e+01
        vertex -1.250000e+01 1.056624e+02 -3.450431e+01
        vertex -1.250000e+01 1.064584e+02 -3.554164e+01
    endloop
endfacet
facet normal 0.000000e+00 -6.087574e-01 -7.933564e-01
    outer loop
        vertex -1.150000e+01 1.064584e+02 -3.554164e+01
        vertex -1.250000e+01 1.074957e+02 -3.633759e+01
        vertex -1.150000e+01 1.074957e+02 -3.633759e+01
    endloop
endfacet
facet normal -0.000000e+00 -6.087574e-01 -7.933564e-01
    outer loop
        vertex -1.150000e+01 1.064584e+02 -3.554164e+01
        vertex -1.250000e+01 1.064584e+02 -3.554164e+01
        vertex -1.250000e+01 1.074957e+02 -3.633759e+01
    endloop
endfacet
facet normal 0.000000e+00 -3.826925e-01 -9.238757e-01
    outer loop
        vertex -1.150000e+01 1.074957e+02 -3.633759e+01
        vertex -1.250000e+01 1.087037e+02 -3.683797e+01
        vertex -1.150000e+01 1.087037e+02 -3.683797e+01
    endloop
endfacet
facet normal -0.000000e+00 -3.826925e-01 -9.238757e-01
    outer loop
        vertex -1.150000e+01 1.074957e+02 -3.633759e+01
        vertex -1.250000e+01 1.074957e+02 -3.633759e+01
        vertex -1.250000e+01 1.087037e+02 -3.683797e+01
    endloop
endfacet
facet normal 0.000000e+00 -1.305206e-01 -9.914456e-01
    outer loop
        vertex -1.150000e+01 1.087037e+02 -3.683797e+01
        vertex -1.250000e+01 1.100000e+02 -3.700863e+01
        vertex -1.150000e+01 1.100000e+02 -3.700863e+01
    endloop
endfacet
facet normal -0.000000e+00 -1.305206e-01 -9.914456e-01
    outer loop
        vertex -1.150000e+01 1.087037e+02 -3.683797e+01
        vertex -1.250000e+01 1.087037e+02 -3.683797e+01
        vertex -1.250000e+01 1.100000e+02 -3.700863e+01
    endloop
endfacet
facet normal 0.000000e+00 1.305206e-01 -9.914456e-01
    outer loop
        vertex -1.150000e+01 1.100000e+02 -3.700863e+01
        vertex -1.250000e+01 1.100000e+02 -3.700863e+01
        vertex -1.150000e+01 1.112963e+02 -3.683797e+01
    endloop
endfacet
facet normal 0.000000e+00 1.305206e-01 -9.914456e-01
    outer loop
        vertex -1.250000e+01 1.100000e+02 -3.700863e+01
        vertex -1.250000e+01 1.112963e+02 -3.683797e+01
        vertex -1.150000e+01 1.112963e+02 -3.683797e+01
    endloop
endfacet
facet normal 0.000000e+00 3.826925e-01 -9.238757e-01
    outer loop
        vertex -1.150000e+01 1.112963e+02 -3.683797e+01
        vertex -1.250000e+01 1.112963e+02 -3.683797e+01
        vertex -1.150000e+01 1.125043e+02 -3.633759e+01
    endloop
endfacet
facet normal 0.000000e+00 3.826925e-01 -9.238757e-01
    outer loop
        vertex -1.250000e+01 1.112963e+02 -3.683797e+01
        vertex -1.250000e+01 1.125043e+02 -3.633759e+01
        vertex -1.150000e+01 1.125043e+02 -3.633759e+01
    endloop
endfacet
facet normal 0.000000e+00 6.087574e-01 -7.933564e-01
    outer loop
        vertex -1.150000e+01 1.125043e+02 -3.633759e+01
        vertex -1.250000e+01 1.125043e+02 -3.633759e+01
        vertex -1.150000e+01 1.135416e+02 -3.554164e+01
    endloop
endfacet
facet normal 0.000000e+00 6.087574e-01 -7.933564e-01
    outer loop
        vertex -1.250000e+01 1.125043e+02 -3.633759e+01
        vertex -1.250000e+01 1.135416e+02 -3.554164e+01
        vertex -1.150000e+01 1.135416e+02 -3.554164e+01
    endloop
endfacet
facet normal 0.000000e+00 7.933512e-01 -6.087642e-01
    outer loop
        vertex -1.150000e+01 1.135416e+02 -3.554164e+01
        vertex -1.250000e+01 1.135416e+02 -3.554164e+01
        vertex -1.150000e+01 1.143376e+02 -3.450431e+01
    endloop
endfacet
facet normal 0.000000e+00 7.933512e-01 -6.087642e-01
    outer loop
        vertex -1.250000e+01 1.135416e+02 -3.554164e+01
        vertex -1.250000e+01 1.143376e+02 -3.450431e+01
        vertex -1.150000e+01 1.143376e+02 -3.450431e+01
    endloop
endfacet
facet normal 0.000000e+00 9.238822e-01 -3.826770e-01
    outer loop
        vertex -1.150000e+01 1.143376e+02 -3.450431e+01
        vertex -1.250000e+01 1.143376e+02 -3.450431e+01
        vertex -1.150000e+01 1.148380e+02 -3.329632e+01
    endloop
endfacet
facet normal 0.000000e+00 9.238822e-01 -3.826770e-01
    outer loop
        vertex -1.250000e+01 1.143376e+02 -3.450431e+01
        vertex -1.250000e+01 1.148380e+02 -3.329632e+01
        vertex -1.150000e+01 1.148380e+02 -3.329632e+01
    endloop
endfacet
endsolid selector-pin.stl
