solid selector.stl
facet normal 1.000000e+00 0.000000e+00 0.000000e+00
    outer loop
        vertex 1.670000e+01 1.295764e+02 -3.152862e+01
        vertex 1.670000e+01 1.297027e+02 -3.200000e+01
        vertex 1.670000e+01 1.296706e+02 -3.175600e+01
    endloop
endfacet
facet normal 1.000000e+00 0.000000e+00 0.000000e+00
    outer loop
        vertex 1.670000e+01 1.295764e+02 -3.152862e+01
        vertex 1.670000e+01 1.296706e+02 -3.224400e+01
        vertex 1.670000e+01 1.297027e+02 -3.200000e+01
    endloop
endfacet
facet normal 1.000000e+00 0.000000e+00 0.000000e+00
    outer loop
        vertex 1.670000e+01 1.295764e+02 -3.247138e+01
        vertex 1.670000e+01 1.296706e+02 -3.224400e+01
        vertex 1.670000e+01 1.295764e+02 -3.152862e+01
    endloop
endfacet
facet normal 1.000000e+00 0.000000e+00 0.000000e+00
    outer loop
        vertex 1.670000e+01 1.294266e+02 -3.266662e+01
        vertex 1.670000e+01 1.295764e+02 -3.247138e+01
        vertex 1.670000e+01 1.295764e+02 -3.152862e+01
    endloop
endfacet
facet normal 1.000000e+00 0.000000e+00 0.000000e+00
    outer loop
        vertex 1.670000e+01 1.292314e+02 -3.281644e+01
        vertex 1.670000e+01 1.294266e+02 -3.266662e+01
        vertex 1.670000e+01 1.295764e+02 -3.152862e+01
    endloop
endfacet
facet normal 1.000000e+00 0.000000e+00 0.000000e+00
    outer loop
        vertex 1.670000e+01 1.290040e+02 -3.291062e+01
        vertex 1.670000e+01 1.292314e+02 -3.281644e+01
        vertex 1.670000e+01 1.295764e+02 -3.152862e+01
    endloop
endfacet
facet normal 1.000000e+00 0.000000e+00 0.000000e+00
    outer loop
        vertex 1.670000e+01 1.286289e+02 -3.296000e+01
        vertex 1.670000e+01 1.290040e+02 -3.291062e+01
        vertex 1.670000e+01 1.295764e+02 -3.152862e+01
    endloop
endfacet
facet normal 1.000000e+00 0.000000e+00 0.000000e+00
    outer loop
        vertex 1.670000e+01 1.286289e+02 -3.296000e+01
        vertex 1.670000e+01 1.295764e+02 -3.152862e+01
        vertex 1.670000e+01 1.294266e+02 -3.133338e+01
    endloop
endfacet
facet normal 1.000000e+00 0.000000e+00 0.000000e+00
    outer loop
        vertex 1.670000e+01 1.286289e+02 -3.296000e+01
        vertex 1.670000e+01 1.294266e+02 -3.133338e+01
        vertex 1.670000e+01 1.292314e+02 -3.118356e+01
    endloop
endfacet
facet normal 1.000000e+00 0.000000e+00 0.000000e+00
    outer loop
        vertex 1.670000e+01 1.286289e+02 -3.296000e+01
        vertex 1.670000e+01 1.292314e+02 -3.118356e+01
        vertex 1.670000e+01 1.290040e+02 -3.108938e+01
    endloop
endfacet
facet normal 1.000000e+00 0.000000e+00 0.000000e+00
    outer loop
        vertex 1.670000e+01 1.286289e+02 -3.296000e+01
        vertex 1.670000e+01 1.290040e+02 -3.108938e+01
        vertex 1.670000e+01 1.286289e+02 -3.104000e+01
    endloop
endfacet
facet normal 1.000000e+00 -0.000000e+00 0.000000e+00
    outer loop
        vertex 1.670000e+01 1.149711e+02 -3.104000e+01
        vertex 1.670000e+01 1.286289e+02 -3.296000e+01
        vertex 1.670000e+01 1.286289e+02 -3.104000e+01
    endloop
endfacet
facet normal 1.000000e+00 0.000000e+00 0.000000e+00
    outer loop
        vertex 1.670000e+01 1.149711e+02 -3.296000e+01
        vertex 1.670000e+01 1.286289e+02 -3.296000e+01
        vertex 1.670000e+01 1.149711e+02 -3.104000e+01
    endloop
endfacet
facet normal 1.000000e+00 -0.000000e+00 0.000000e+00
    outer loop
        vertex 1.670000e+01 1.145960e+02 -3.108938e+01
        vertex 1.670000e+01 1.149711e+02 -3.296000e+01
        vertex 1.670000e+01 1.149711e+02 -3.104000e+01
    endloop
endfacet
facet normal 1.000000e+00 -0.000000e+00 0.000000e+00
    outer loop
        vertex 1.670000e+01 1.145960e+02 -3.291062e+01
        vertex 1.670000e+01 1.149711e+02 -3.296000e+01
        vertex 1.670000e+01 1.145960e+02 -3.108938e+01
    endloop
endfacet
facet normal 1.000000e+00 -0.000000e+00 0.000000e+00
    outer loop
        vertex 1.670000e+01 1.143686e+02 -3.281644e+01
        vertex 1.670000e+01 1.145960e+02 -3.291062e+01
        vertex 1.670000e+01 1.145960e+02 -3.108938e+01
    endloop
endfacet
facet normal 1.000000e+00 0.000000e+00 0.000000e+00
    outer loop
        vertex 1.670000e+01 1.143686e+02 -3.281644e+01
        vertex 1.670000e+01 1.145960e+02 -3.108938e+01
        vertex 1.670000e+01 1.143686e+02 -3.118356e+01
    endloop
endfacet
facet normal 1.000000e+00 -0.000000e+00 0.000000e+00
    outer loop
        vertex 1.670000e+01 1.141734e+02 -3.133338e+01
        vertex 1.670000e+01 1.143686e+02 -3.281644e+01
        vertex 1.670000e+01 1.143686e+02 -3.118356e+01
    endloop
endfacet
facet normal 1.000000e+00 -0.000000e+00 0.000000e+00
    outer loop
        vertex 1.670000e+01 1.140236e+02 -3.152863e+01
        vertex 1.670000e+01 1.143686e+02 -3.281644e+01
        vertex 1.670000e+01 1.141734e+02 -3.133338e+01
    endloop
endfacet
facet normal 1.000000e+00 -0.000000e+00 0.000000e+00
    outer loop
        vertex 1.670000e+01 1.139294e+02 -3.175600e+01
        vertex 1.670000e+01 1.143686e+02 -3.281644e+01
        vertex 1.670000e+01 1.140236e+02 -3.152863e+01
    endloop
endfacet
facet normal 1.000000e+00 0.000000e+00 0.000000e+00
    outer loop
        vertex 1.670000e+01 1.139294e+02 -3.175600e+01
        vertex 1.670000e+01 1.141734e+02 -3.266663e+01
        vertex 1.670000e+01 1.143686e+02 -3.281644e+01
    endloop
endfacet
facet normal 1.000000e+00 0.000000e+00 0.000000e+00
    outer loop
        vertex 1.670000e+01 1.139294e+02 -3.175600e+01
        vertex 1.670000e+01 1.140236e+02 -3.247137e+01
        vertex 1.670000e+01 1.141734e+02 -3.266663e+01
    endloop
endfacet
facet normal 1.000000e+00 -0.000000e+00 0.000000e+00
    outer loop
        vertex 1.670000e+01 1.138973e+02 -3.200000e+01
        vertex 1.670000e+01 1.140236e+02 -3.247137e+01
        vertex 1.670000e+01 1.139294e+02 -3.175600e+01
    endloop
endfacet
facet normal 1.000000e+00 0.000000e+00 0.000000e+00
    outer loop
        vertex 1.670000e+01 1.138973e+02 -3.200000e+01
        vertex 1.670000e+01 1.139294e+02 -3.224400e+01
        vertex 1.670000e+01 1.140236e+02 -3.247137e+01
    endloop
endfacet
facet normal 8.920553e-01 -5.898764e-02 4.480600e-01
    outer loop
        vertex 1.570000e+01 1.142739e+02 -2.914086e+01
        vertex 1.670000e+01 1.145960e+02 -3.108938e+01
        vertex 1.670000e+01 1.149711e+02 -3.104000e+01
    endloop
endfacet
facet normal 8.920553e-01 -5.898762e-02 4.480600e-01
    outer loop
        vertex 1.570000e+01 1.142739e+02 -2.914086e+01
        vertex 1.670000e+01 1.149711e+02 -3.104000e+01
        vertex 1.570000e+01 1.150400e+02 -2.904000e+01
    endloop
endfacet
facet normal 8.944272e-01 -0.000000e+00 4.472136e-01
    outer loop
        vertex 1.670000e+01 1.149711e+02 -3.104000e+01
        vertex 1.670000e+01 1.286289e+02 -3.104000e+01
        vertex 1.570000e+01 1.150400e+02 -2.904000e+01
    endloop
endfacet
facet normal 8.944272e-01 -0.000000e+00 4.472136e-01
    outer loop
        vertex 1.570000e+01 1.150400e+02 -2.904000e+01
        vertex 1.670000e+01 1.286289e+02 -3.104000e+01
        vertex 1.570000e+01 1.289600e+02 -2.904000e+01
    endloop
endfacet
facet normal 8.967260e-01 5.776908e-02 4.387998e-01
    outer loop
        vertex 1.570000e+01 1.289600e+02 -2.904000e+01
        vertex 1.670000e+01 1.290040e+02 -3.108938e+01
        vertex 1.570000e+01 1.297261e+02 -2.914086e+01
    endloop
endfacet
facet normal 8.967260e-01 5.776865e-02 4.387998e-01
    outer loop
        vertex 1.670000e+01 1.286289e+02 -3.104000e+01
        vertex 1.670000e+01 1.290040e+02 -3.108938e+01
        vertex 1.570000e+01 1.289600e+02 -2.904000e+01
    endloop
endfacet
facet normal 9.009702e-01 1.660389e-01 4.008538e-01
    outer loop
        vertex 1.670000e+01 1.292314e+02 -3.118356e+01
        vertex 1.570000e+01 1.304400e+02 -2.943657e+01
        vertex 1.570000e+01 1.297261e+02 -2.914086e+01
    endloop
endfacet
facet normal 9.009701e-01 1.660404e-01 4.008534e-01
    outer loop
        vertex 1.670000e+01 1.290040e+02 -3.108938e+01
        vertex 1.670000e+01 1.292314e+02 -3.118356e+01
        vertex 1.570000e+01 1.297261e+02 -2.914086e+01
    endloop
endfacet
facet normal 9.045676e-01 2.595334e-01 3.382305e-01
    outer loop
        vertex 1.670000e+01 1.294266e+02 -3.133338e+01
        vertex 1.570000e+01 1.310530e+02 -2.990697e+01
        vertex 1.570000e+01 1.304400e+02 -2.943657e+01
    endloop
endfacet
facet normal 9.045677e-01 2.595317e-01 3.382315e-01
    outer loop
        vertex 1.670000e+01 1.292314e+02 -3.118356e+01
        vertex 1.670000e+01 1.294266e+02 -3.133338e+01
        vertex 1.570000e+01 1.304400e+02 -2.943657e+01
    endloop
endfacet
facet normal 9.073686e-01 3.334750e-01 2.558841e-01
    outer loop
        vertex 1.670000e+01 1.295764e+02 -3.152862e+01
        vertex 1.570000e+01 1.315234e+02 -3.052000e+01
        vertex 1.570000e+01 1.310530e+02 -2.990697e+01
    endloop
endfacet
facet normal 9.073682e-01 3.334784e-01 2.558808e-01
    outer loop
        vertex 1.670000e+01 1.294266e+02 -3.133338e+01
        vertex 1.670000e+01 1.295764e+02 -3.152862e+01
        vertex 1.570000e+01 1.310530e+02 -2.990697e+01
    endloop
endfacet
facet normal 9.092779e-01 3.845099e-01 1.592664e-01
    outer loop
        vertex 1.670000e+01 1.296706e+02 -3.175600e+01
        vertex 1.570000e+01 1.318191e+02 -3.123390e+01
        vertex 1.570000e+01 1.315234e+02 -3.052000e+01
    endloop
endfacet
facet normal 9.092795e-01 3.844990e-01 1.592841e-01
    outer loop
        vertex 1.670000e+01 1.295764e+02 -3.152862e+01
        vertex 1.670000e+01 1.296706e+02 -3.175600e+01
        vertex 1.570000e+01 1.315234e+02 -3.052000e+01
    endloop
endfacet
facet normal 9.102449e-01 4.105279e-01 5.404763e-02
    outer loop
        vertex 1.670000e+01 1.297027e+02 -3.200000e+01
        vertex 1.570000e+01 1.319200e+02 -3.200000e+01
        vertex 1.570000e+01 1.318191e+02 -3.123390e+01
    endloop
endfacet
facet normal 9.102443e-01 4.105301e-01 5.404076e-02
    outer loop
        vertex 1.670000e+01 1.296706e+02 -3.175600e+01
        vertex 1.670000e+01 1.297027e+02 -3.200000e+01
        vertex 1.570000e+01 1.318191e+02 -3.123390e+01
    endloop
endfacet
facet normal 9.102449e-01 4.105279e-01 -5.404749e-02
    outer loop
        vertex 1.670000e+01 1.297027e+02 -3.200000e+01
        vertex 1.570000e+01 1.318191e+02 -3.276611e+01
        vertex 1.570000e+01 1.319200e+02 -3.200000e+01
    endloop
endfacet
facet normal 9.102443e-01 4.105301e-01 -5.404076e-02
    outer loop
        vertex 1.670000e+01 1.296706e+02 -3.224400e+01
        vertex 1.570000e+01 1.318191e+02 -3.276611e+01
        vertex 1.670000e+01 1.297027e+02 -3.200000e+01
    endloop
endfacet
facet normal 9.092780e-01 3.845097e-01 -1.592667e-01
    outer loop
        vertex 1.670000e+01 1.296706e+02 -3.224400e+01
        vertex 1.570000e+01 1.315234e+02 -3.348000e+01
        vertex 1.570000e+01 1.318191e+02 -3.276611e+01
    endloop
endfacet
facet normal 9.092793e-01 3.844996e-01 -1.592830e-01
    outer loop
        vertex 1.670000e+01 1.295764e+02 -3.247138e+01
        vertex 1.570000e+01 1.315234e+02 -3.348000e+01
        vertex 1.670000e+01 1.296706e+02 -3.224400e+01
    endloop
endfacet
facet normal 9.073685e-01 3.334755e-01 -2.558837e-01
    outer loop
        vertex 1.670000e+01 1.295764e+02 -3.247138e+01
        vertex 1.570000e+01 1.310530e+02 -3.409304e+01
        vertex 1.570000e+01 1.315234e+02 -3.348000e+01
    endloop
endfacet
facet normal 9.073684e-01 3.334770e-01 -2.558822e-01
    outer loop
        vertex 1.670000e+01 1.294266e+02 -3.266662e+01
        vertex 1.570000e+01 1.310530e+02 -3.409304e+01
        vertex 1.670000e+01 1.295764e+02 -3.247138e+01
    endloop
endfacet
facet normal 9.045677e-01 2.595326e-01 -3.382309e-01
    outer loop
        vertex 1.670000e+01 1.294266e+02 -3.266662e+01
        vertex 1.570000e+01 1.304400e+02 -3.456343e+01
        vertex 1.570000e+01 1.310530e+02 -3.409304e+01
    endloop
endfacet
facet normal 9.045679e-01 2.595294e-01 -3.382328e-01
    outer loop
        vertex 1.670000e+01 1.292314e+02 -3.281644e+01
        vertex 1.570000e+01 1.304400e+02 -3.456343e+01
        vertex 1.670000e+01 1.294266e+02 -3.266662e+01
    endloop
endfacet
facet normal 9.009704e-01 1.660396e-01 -4.008530e-01
    outer loop
        vertex 1.670000e+01 1.292314e+02 -3.281644e+01
        vertex 1.570000e+01 1.297261e+02 -3.485914e+01
        vertex 1.570000e+01 1.304400e+02 -3.456343e+01
    endloop
endfacet
facet normal 9.009700e-01 1.660462e-01 -4.008512e-01
    outer loop
        vertex 1.670000e+01 1.290040e+02 -3.291062e+01
        vertex 1.570000e+01 1.297261e+02 -3.485914e+01
        vertex 1.670000e+01 1.292314e+02 -3.281644e+01
    endloop
endfacet
facet normal 8.967259e-01 5.776803e-02 -4.388002e-01
    outer loop
        vertex 1.570000e+01 1.289600e+02 -3.496000e+01
        vertex 1.570000e+01 1.297261e+02 -3.485914e+01
        vertex 1.670000e+01 1.290040e+02 -3.291062e+01
    endloop
endfacet
facet normal 8.967260e-01 5.776646e-02 -4.388002e-01
    outer loop
        vertex 1.670000e+01 1.286289e+02 -3.296000e+01
        vertex 1.570000e+01 1.289600e+02 -3.496000e+01
        vertex 1.670000e+01 1.290040e+02 -3.291062e+01
    endloop
endfacet
facet normal 8.944272e-01 0.000000e+00 -4.472136e-01
    outer loop
        vertex 1.570000e+01 1.150400e+02 -3.496000e+01
        vertex 1.570000e+01 1.289600e+02 -3.496000e+01
        vertex 1.670000e+01 1.286289e+02 -3.296000e+01
    endloop
endfacet
facet normal 8.944272e-01 0.000000e+00 -4.472136e-01
    outer loop
        vertex 1.670000e+01 1.149711e+02 -3.296000e+01
        vertex 1.570000e+01 1.150400e+02 -3.496000e+01
        vertex 1.670000e+01 1.286289e+02 -3.296000e+01
    endloop
endfacet
facet normal 8.920553e-01 -5.898653e-02 -4.480602e-01
    outer loop
        vertex 1.570000e+01 1.142739e+02 -3.485914e+01
        vertex 1.570000e+01 1.150400e+02 -3.496000e+01
        vertex 1.670000e+01 1.149711e+02 -3.296000e+01
    endloop
endfacet
facet normal 8.920551e-01 -5.898440e-02 -4.480609e-01
    outer loop
        vertex 1.570000e+01 1.142739e+02 -3.485914e+01
        vertex 1.670000e+01 1.149711e+02 -3.296000e+01
        vertex 1.670000e+01 1.145960e+02 -3.291062e+01
    endloop
endfacet
facet normal 8.872546e-01 -1.765250e-01 -4.261669e-01
    outer loop
        vertex 1.570000e+01 1.135600e+02 -3.456343e+01
        vertex 1.570000e+01 1.142739e+02 -3.485914e+01
        vertex 1.670000e+01 1.145960e+02 -3.291062e+01
    endloop
endfacet
facet normal 8.872551e-01 -1.765313e-01 -4.261633e-01
    outer loop
        vertex 1.570000e+01 1.135600e+02 -3.456343e+01
        vertex 1.670000e+01 1.145960e+02 -3.291062e+01
        vertex 1.670000e+01 1.143686e+02 -3.281644e+01
    endloop
endfacet
facet normal 8.826911e-01 -2.860889e-01 -3.728399e-01
    outer loop
        vertex 1.570000e+01 1.129470e+02 -3.409304e+01
        vertex 1.570000e+01 1.135600e+02 -3.456343e+01
        vertex 1.670000e+01 1.143686e+02 -3.281644e+01
    endloop
endfacet
facet normal 8.826905e-01 -2.860842e-01 -3.728448e-01
    outer loop
        vertex 1.570000e+01 1.129470e+02 -3.409304e+01
        vertex 1.670000e+01 1.143686e+02 -3.281644e+01
        vertex 1.670000e+01 1.141734e+02 -3.266663e+01
    endloop
endfacet
facet normal 8.787690e-01 -3.786286e-01 -2.905260e-01
    outer loop
        vertex 1.570000e+01 1.124766e+02 -3.348000e+01
        vertex 1.570000e+01 1.129470e+02 -3.409304e+01
        vertex 1.670000e+01 1.141734e+02 -3.266663e+01
    endloop
endfacet
facet normal 8.787695e-01 -3.786309e-01 -2.905217e-01
    outer loop
        vertex 1.570000e+01 1.124766e+02 -3.348000e+01
        vertex 1.670000e+01 1.141734e+02 -3.266663e+01
        vertex 1.670000e+01 1.140236e+02 -3.247137e+01
    endloop
endfacet
facet normal 8.758848e-01 -4.457882e-01 -1.846583e-01
    outer loop
        vertex 1.570000e+01 1.121809e+02 -3.276611e+01
        vertex 1.570000e+01 1.124766e+02 -3.348000e+01
        vertex 1.670000e+01 1.140236e+02 -3.247137e+01
    endloop
endfacet
facet normal 8.758848e-01 -4.457884e-01 -1.846576e-01
    outer loop
        vertex 1.570000e+01 1.121809e+02 -3.276611e+01
        vertex 1.670000e+01 1.140236e+02 -3.247137e+01
        vertex 1.670000e+01 1.139294e+02 -3.224400e+01
    endloop
endfacet
facet normal 8.743535e-01 -4.811384e-01 -6.333882e-02
    outer loop
        vertex 1.570000e+01 1.120800e+02 -3.200000e+01
        vertex 1.570000e+01 1.121809e+02 -3.276611e+01
        vertex 1.670000e+01 1.139294e+02 -3.224400e+01
    endloop
endfacet
facet normal 8.743536e-01 -4.811383e-01 -6.333736e-02
    outer loop
        vertex 1.570000e+01 1.120800e+02 -3.200000e+01
        vertex 1.670000e+01 1.139294e+02 -3.224400e+01
        vertex 1.670000e+01 1.138973e+02 -3.200000e+01
    endloop
endfacet
facet normal 8.743536e-01 -4.811383e-01 6.333736e-02
    outer loop
        vertex 1.570000e+01 1.120800e+02 -3.200000e+01
        vertex 1.670000e+01 1.138973e+02 -3.200000e+01
        vertex 1.670000e+01 1.139294e+02 -3.175600e+01
    endloop
endfacet
facet normal 8.743535e-01 -4.811384e-01 6.333899e-02
    outer loop
        vertex 1.570000e+01 1.120800e+02 -3.200000e+01
        vertex 1.670000e+01 1.139294e+02 -3.175600e+01
        vertex 1.570000e+01 1.121809e+02 -3.123390e+01
    endloop
endfacet
facet normal 8.758847e-01 -4.457881e-01 1.846590e-01
    outer loop
        vertex 1.570000e+01 1.121809e+02 -3.123390e+01
        vertex 1.670000e+01 1.139294e+02 -3.175600e+01
        vertex 1.670000e+01 1.140236e+02 -3.152863e+01
    endloop
endfacet
facet normal 8.758848e-01 -4.457884e-01 1.846578e-01
    outer loop
        vertex 1.570000e+01 1.121809e+02 -3.123390e+01
        vertex 1.670000e+01 1.140236e+02 -3.152863e+01
        vertex 1.570000e+01 1.124766e+02 -3.052000e+01
    endloop
endfacet
facet normal 8.787695e-01 -3.786295e-01 2.905234e-01
    outer loop
        vertex 1.570000e+01 1.124766e+02 -3.052000e+01
        vertex 1.670000e+01 1.140236e+02 -3.152863e+01
        vertex 1.670000e+01 1.141734e+02 -3.133338e+01
    endloop
endfacet
facet normal 8.787692e-01 -3.786279e-01 2.905264e-01
    outer loop
        vertex 1.570000e+01 1.124766e+02 -3.052000e+01
        vertex 1.670000e+01 1.141734e+02 -3.133338e+01
        vertex 1.570000e+01 1.129470e+02 -2.990697e+01
    endloop
endfacet
facet normal 8.826909e-01 -2.860906e-01 3.728389e-01
    outer loop
        vertex 1.570000e+01 1.129470e+02 -2.990697e+01
        vertex 1.670000e+01 1.141734e+02 -3.133338e+01
        vertex 1.670000e+01 1.143686e+02 -3.118356e+01
    endloop
endfacet
facet normal 8.826908e-01 -2.860899e-01 3.728397e-01
    outer loop
        vertex 1.570000e+01 1.129470e+02 -2.990697e+01
        vertex 1.670000e+01 1.143686e+02 -3.118356e+01
        vertex 1.570000e+01 1.135600e+02 -2.943657e+01
    endloop
endfacet
facet normal 8.872548e-01 -1.765224e-01 4.261676e-01
    outer loop
        vertex 1.570000e+01 1.135600e+02 -2.943657e+01
        vertex 1.670000e+01 1.143686e+02 -3.118356e+01
        vertex 1.670000e+01 1.145960e+02 -3.108938e+01
    endloop
endfacet
facet normal 8.872549e-01 -1.765239e-01 4.261668e-01
    outer loop
        vertex 1.570000e+01 1.135600e+02 -2.943657e+01
        vertex 1.670000e+01 1.145960e+02 -3.108938e+01
        vertex 1.570000e+01 1.142739e+02 -2.914086e+01
    endloop
endfacet
facet normal 0.000000e+00 -6.087614e-01 7.933534e-01
    outer loop
        vertex 1.570000e+01 1.129470e+02 -2.990697e+01
        vertex 1.570000e+01 1.135600e+02 -2.943657e+01
        vertex 1.470000e+01 1.135600e+02 -2.943657e+01
    endloop
endfacet
facet normal 0.000000e+00 -6.087614e-01 7.933534e-01
    outer loop
        vertex 1.470000e+01 1.129470e+02 -2.990697e+01
        vertex 1.570000e+01 1.129470e+02 -2.990697e+01
        vertex 1.470000e+01 1.135600e+02 -2.943657e+01
    endloop
endfacet
facet normal 0.000000e+00 -7.933584e-01 6.087548e-01
    outer loop
        vertex 1.570000e+01 1.124766e+02 -3.052000e+01
        vertex 1.570000e+01 1.129470e+02 -2.990697e+01
        vertex 1.470000e+01 1.129470e+02 -2.990697e+01
    endloop
endfacet
facet normal 0.000000e+00 -7.933584e-01 6.087548e-01
    outer loop
        vertex 1.470000e+01 1.124766e+02 -3.052000e+01
        vertex 1.570000e+01 1.124766e+02 -3.052000e+01
        vertex 1.470000e+01 1.129470e+02 -2.990697e+01
    endloop
endfacet
facet normal 0.000000e+00 -9.238750e-01 3.826945e-01
    outer loop
        vertex 1.570000e+01 1.121809e+02 -3.123390e+01
        vertex 1.570000e+01 1.124766e+02 -3.052000e+01
        vertex 1.470000e+01 1.124766e+02 -3.052000e+01
    endloop
endfacet
facet normal 0.000000e+00 -9.238750e-01 3.826945e-01
    outer loop
        vertex 1.470000e+01 1.121809e+02 -3.123390e+01
        vertex 1.570000e+01 1.121809e+02 -3.123390e+01
        vertex 1.470000e+01 1.124766e+02 -3.052000e+01
    endloop
endfacet
facet normal 0.000000e+00 -9.914460e-01 1.305179e-01
    outer loop
        vertex 1.570000e+01 1.120800e+02 -3.200000e+01
        vertex 1.570000e+01 1.121809e+02 -3.123390e+01
        vertex 1.470000e+01 1.121809e+02 -3.123390e+01
    endloop
endfacet
facet normal 0.000000e+00 -9.914460e-01 1.305179e-01
    outer loop
        vertex 1.470000e+01 1.120800e+02 -3.200000e+01
        vertex 1.570000e+01 1.120800e+02 -3.200000e+01
        vertex 1.470000e+01 1.121809e+02 -3.123390e+01
    endloop
endfacet
facet normal 0.000000e+00 -9.914460e-01 -1.305176e-01
    outer loop
        vertex 1.470000e+01 1.120800e+02 -3.200000e+01
        vertex 1.570000e+01 1.121809e+02 -3.276611e+01
        vertex 1.570000e+01 1.120800e+02 -3.200000e+01
    endloop
endfacet
facet normal 0.000000e+00 -9.914460e-01 -1.305176e-01
    outer loop
        vertex 1.470000e+01 1.120800e+02 -3.200000e+01
        vertex 1.470000e+01 1.121809e+02 -3.276611e+01
        vertex 1.570000e+01 1.121809e+02 -3.276611e+01
    endloop
endfacet
facet normal 0.000000e+00 -9.238746e-01 -3.826954e-01
    outer loop
        vertex 1.470000e+01 1.121809e+02 -3.276611e+01
        vertex 1.570000e+01 1.124766e+02 -3.348000e+01
        vertex 1.570000e+01 1.121809e+02 -3.276611e+01
    endloop
endfacet
facet normal 0.000000e+00 -9.238746e-01 -3.826954e-01
    outer loop
        vertex 1.470000e+01 1.121809e+02 -3.276611e+01
        vertex 1.470000e+01 1.124766e+02 -3.348000e+01
        vertex 1.570000e+01 1.124766e+02 -3.348000e+01
    endloop
endfacet
facet normal 0.000000e+00 -7.933593e-01 -6.087536e-01
    outer loop
        vertex 1.470000e+01 1.124766e+02 -3.348000e+01
        vertex 1.570000e+01 1.129470e+02 -3.409304e+01
        vertex 1.570000e+01 1.124766e+02 -3.348000e+01
    endloop
endfacet
facet normal 0.000000e+00 -7.933593e-01 -6.087536e-01
    outer loop
        vertex 1.470000e+01 1.124766e+02 -3.348000e+01
        vertex 1.470000e+01 1.129470e+02 -3.409304e+01
        vertex 1.570000e+01 1.129470e+02 -3.409304e+01
    endloop
endfacet
facet normal 0.000000e+00 -6.087598e-01 -7.933546e-01
    outer loop
        vertex 1.470000e+01 1.129470e+02 -3.409304e+01
        vertex 1.570000e+01 1.135600e+02 -3.456343e+01
        vertex 1.570000e+01 1.129470e+02 -3.409304e+01
    endloop
endfacet
facet normal 0.000000e+00 -6.087598e-01 -7.933546e-01
    outer loop
        vertex 1.470000e+01 1.129470e+02 -3.409304e+01
        vertex 1.470000e+01 1.135600e+02 -3.456343e+01
        vertex 1.570000e+01 1.135600e+02 -3.456343e+01
    endloop
endfacet
facet normal 1.000000e+00 -0.000000e+00 0.000000e+00
    outer loop
        vertex 1.370000e+01 1.050328e+02 -3.150000e+01
        vertex 1.370000e+01 1.079000e+02 -3.250000e+01
        vertex 1.370000e+01 1.079000e+02 -3.150000e+01
    endloop
endfacet
facet normal 1.000000e+00 -0.000000e+00 0.000000e+00
    outer loop
        vertex 1.370000e+01 1.050000e+02 -3.200000e+01
        vertex 1.370000e+01 1.079000e+02 -3.250000e+01
        vertex 1.370000e+01 1.050328e+02 -3.150000e+01
    endloop
endfacet
facet normal 1.000000e+00 0.000000e+00 0.000000e+00
    outer loop
        vertex 1.370000e+01 1.050000e+02 -3.200000e+01
        vertex 1.370000e+01 1.050328e+02 -3.250000e+01
        vertex 1.370000e+01 1.079000e+02 -3.250000e+01
    endloop
endfacet
facet normal 1.737828e-01 -0.000000e+00 9.847840e-01
    outer loop
        vertex 1.470000e+01 1.050475e+02 -3.267647e+01
        vertex 1.470000e+01 1.079000e+02 -3.267647e+01
        vertex 1.370000e+01 1.079000e+02 -3.250000e+01
    endloop
endfacet
facet normal 1.737869e-01 -0.000000e+00 9.847833e-01
    outer loop
        vertex 1.370000e+01 1.050328e+02 -3.250000e+01
        vertex 1.456492e+01 1.050428e+02 -3.265263e+01
        vertex 1.370000e+01 1.079000e+02 -3.250000e+01
    endloop
endfacet
facet normal 1.737563e-01 -9.562205e-06 9.847887e-01
    outer loop
        vertex 1.456492e+01 1.050428e+02 -3.265263e+01
        vertex 1.470000e+01 1.050475e+02 -3.267647e+01
        vertex 1.370000e+01 1.079000e+02 -3.250000e+01
    endloop
endfacet
facet normal 0.000000e+00 -1.000000e+00 0.000000e+00
    outer loop
        vertex 1.470000e+01 1.079000e+02 -3.267647e+01
        vertex 1.470000e+01 1.079000e+02 -3.132353e+01
        vertex 1.370000e+01 1.079000e+02 -3.150000e+01
    endloop
endfacet
facet normal 0.000000e+00 -1.000000e+00 0.000000e+00
    outer loop
        vertex 1.470000e+01 1.079000e+02 -3.267647e+01
        vertex 1.370000e+01 1.079000e+02 -3.150000e+01
        vertex 1.370000e+01 1.079000e+02 -3.250000e+01
    endloop
endfacet
facet normal 1.737846e-01 0.000000e+00 -9.847837e-01
    outer loop
        vertex 1.470000e+01 1.050475e+02 -3.132353e+01
        vertex 1.370000e+01 1.079000e+02 -3.150000e+01
        vertex 1.470000e+01 1.079000e+02 -3.132353e+01
    endloop
endfacet
facet normal 1.737830e-01 -5.819248e-07 -9.847839e-01
    outer loop
        vertex 1.456492e+01 1.050428e+02 -3.134737e+01
        vertex 1.370000e+01 1.079000e+02 -3.150000e+01
        vertex 1.470000e+01 1.050475e+02 -3.132353e+01
    endloop
endfacet
facet normal 1.737848e-01 0.000000e+00 -9.847836e-01
    outer loop
        vertex 1.370000e+01 1.050328e+02 -3.150000e+01
        vertex 1.370000e+01 1.079000e+02 -3.150000e+01
        vertex 1.456492e+01 1.050428e+02 -3.134737e+01
    endloop
endfacet
facet normal -0.000000e+00 7.518366e-01 6.593494e-01
    outer loop
        vertex 1.160000e+01 1.135355e+02 -2.846447e+01
        vertex 1.470000e+01 1.135355e+02 -2.846447e+01
        vertex 1.470000e+01 1.139668e+02 -2.895619e+01
    endloop
endfacet
facet normal 0.000000e+00 7.518366e-01 6.593494e-01
    outer loop
        vertex 1.160000e+01 1.135355e+02 -2.846447e+01
        vertex 1.470000e+01 1.139668e+02 -2.895619e+01
        vertex 1.160000e+01 1.139668e+02 -2.895619e+01
    endloop
endfacet
facet normal -0.000000e+00 6.593490e-01 7.518370e-01
    outer loop
        vertex 1.160000e+01 1.130438e+02 -2.803323e+01
        vertex 1.470000e+01 1.130438e+02 -2.803323e+01
        vertex 1.470000e+01 1.135355e+02 -2.846447e+01
    endloop
endfacet
facet normal 0.000000e+00 6.593490e-01 7.518370e-01
    outer loop
        vertex 1.160000e+01 1.130438e+02 -2.803323e+01
        vertex 1.470000e+01 1.135355e+02 -2.846447e+01
        vertex 1.160000e+01 1.135355e+02 -2.846447e+01
    endloop
endfacet
facet normal -0.000000e+00 5.555707e-01 8.314693e-01
    outer loop
        vertex 1.160000e+01 1.125000e+02 -2.766987e+01
        vertex 1.470000e+01 1.125000e+02 -2.766987e+01
        vertex 1.470000e+01 1.130438e+02 -2.803323e+01
    endloop
endfacet
facet normal 0.000000e+00 5.555707e-01 8.314693e-01
    outer loop
        vertex 1.160000e+01 1.125000e+02 -2.766987e+01
        vertex 1.470000e+01 1.130438e+02 -2.803323e+01
        vertex 1.160000e+01 1.130438e+02 -2.803323e+01
    endloop
endfacet
facet normal -0.000000e+00 4.422865e-01 8.968738e-01
    outer loop
        vertex 1.160000e+01 1.119134e+02 -2.738060e+01
        vertex 1.470000e+01 1.119134e+02 -2.738060e+01
        vertex 1.470000e+01 1.125000e+02 -2.766987e+01
    endloop
endfacet
facet normal 0.000000e+00 4.422865e-01 8.968738e-01
    outer loop
        vertex 1.160000e+01 1.119134e+02 -2.738060e+01
        vertex 1.470000e+01 1.125000e+02 -2.766987e+01
        vertex 1.160000e+01 1.125000e+02 -2.766987e+01
    endloop
endfacet
facet normal -0.000000e+00 3.214426e-01 9.469290e-01
    outer loop
        vertex 1.160000e+01 1.112941e+02 -2.717037e+01
        vertex 1.470000e+01 1.112941e+02 -2.717037e+01
        vertex 1.470000e+01 1.119134e+02 -2.738060e+01
    endloop
endfacet
facet normal 0.000000e+00 3.214426e-01 9.469290e-01
    outer loop
        vertex 1.160000e+01 1.112941e+02 -2.717037e+01
        vertex 1.470000e+01 1.119134e+02 -2.738060e+01
        vertex 1.160000e+01 1.119134e+02 -2.738060e+01
    endloop
endfacet
facet normal -0.000000e+00 1.950886e-01 9.807856e-01
    outer loop
        vertex 1.160000e+01 1.106526e+02 -2.704278e+01
        vertex 1.470000e+01 1.106526e+02 -2.704278e+01
        vertex 1.470000e+01 1.112941e+02 -2.717037e+01
    endloop
endfacet
facet normal 0.000000e+00 1.950886e-01 9.807856e-01
    outer loop
        vertex 1.160000e+01 1.106526e+02 -2.704278e+01
        vertex 1.470000e+01 1.112941e+02 -2.717037e+01
        vertex 1.160000e+01 1.112941e+02 -2.717037e+01
    endloop
endfacet
facet normal -0.000000e+00 6.540349e-02 9.978589e-01
    outer loop
        vertex 1.160000e+01 1.100000e+02 -2.700000e+01
        vertex 1.470000e+01 1.100000e+02 -2.700000e+01
        vertex 1.470000e+01 1.106526e+02 -2.704278e+01
    endloop
endfacet
facet normal 0.000000e+00 6.540349e-02 9.978589e-01
    outer loop
        vertex 1.160000e+01 1.100000e+02 -2.700000e+01
        vertex 1.470000e+01 1.106526e+02 -2.704278e+01
        vertex 1.160000e+01 1.106526e+02 -2.704278e+01
    endloop
endfacet
facet normal 0.000000e+00 -6.540349e-02 9.978589e-01
    outer loop
        vertex 1.160000e+01 1.093474e+02 -2.704278e+01
        vertex 1.470000e+01 1.093474e+02 -2.704278e+01
        vertex 1.470000e+01 1.100000e+02 -2.700000e+01
    endloop
endfacet
facet normal 0.000000e+00 -6.540349e-02 9.978589e-01
    outer loop
        vertex 1.160000e+01 1.093474e+02 -2.704278e+01
        vertex 1.470000e+01 1.100000e+02 -2.700000e+01
        vertex 1.160000e+01 1.100000e+02 -2.700000e+01
    endloop
endfacet
facet normal 0.000000e+00 -1.950886e-01 9.807856e-01
    outer loop
        vertex 1.160000e+01 1.087059e+02 -2.717037e+01
        vertex 1.470000e+01 1.087059e+02 -2.717037e+01
        vertex 1.470000e+01 1.093474e+02 -2.704278e+01
    endloop
endfacet
facet normal 0.000000e+00 -1.950886e-01 9.807856e-01
    outer loop
        vertex 1.160000e+01 1.087059e+02 -2.717037e+01
        vertex 1.470000e+01 1.093474e+02 -2.704278e+01
        vertex 1.160000e+01 1.093474e+02 -2.704278e+01
    endloop
endfacet
facet normal 0.000000e+00 -3.214426e-01 9.469290e-01
    outer loop
        vertex 1.160000e+01 1.080866e+02 -2.738060e+01
        vertex 1.470000e+01 1.080866e+02 -2.738060e+01
        vertex 1.470000e+01 1.087059e+02 -2.717037e+01
    endloop
endfacet
facet normal 0.000000e+00 -3.214426e-01 9.469290e-01
    outer loop
        vertex 1.160000e+01 1.080866e+02 -2.738060e+01
        vertex 1.470000e+01 1.087059e+02 -2.717037e+01
        vertex 1.160000e+01 1.087059e+02 -2.717037e+01
    endloop
endfacet
facet normal 0.000000e+00 -4.422865e-01 8.968738e-01
    outer loop
        vertex 1.160000e+01 1.075000e+02 -2.766987e+01
        vertex 1.470000e+01 1.075000e+02 -2.766987e+01
        vertex 1.470000e+01 1.080866e+02 -2.738060e+01
    endloop
endfacet
facet normal 0.000000e+00 -4.422865e-01 8.968738e-01
    outer loop
        vertex 1.160000e+01 1.075000e+02 -2.766987e+01
        vertex 1.470000e+01 1.080866e+02 -2.738060e+01
        vertex 1.160000e+01 1.080866e+02 -2.738060e+01
    endloop
endfacet
facet normal 0.000000e+00 -5.555707e-01 8.314693e-01
    outer loop
        vertex 1.160000e+01 1.069562e+02 -2.803323e+01
        vertex 1.470000e+01 1.069562e+02 -2.803323e+01
        vertex 1.470000e+01 1.075000e+02 -2.766987e+01
    endloop
endfacet
facet normal 0.000000e+00 -5.555707e-01 8.314693e-01
    outer loop
        vertex 1.160000e+01 1.069562e+02 -2.803323e+01
        vertex 1.470000e+01 1.075000e+02 -2.766987e+01
        vertex 1.160000e+01 1.075000e+02 -2.766987e+01
    endloop
endfacet
facet normal 0.000000e+00 -6.593490e-01 7.518370e-01
    outer loop
        vertex 1.160000e+01 1.064645e+02 -2.846447e+01
        vertex 1.470000e+01 1.064645e+02 -2.846447e+01
        vertex 1.470000e+01 1.069562e+02 -2.803323e+01
    endloop
endfacet
facet normal 0.000000e+00 -6.593490e-01 7.518370e-01
    outer loop
        vertex 1.160000e+01 1.064645e+02 -2.846447e+01
        vertex 1.470000e+01 1.069562e+02 -2.803323e+01
        vertex 1.160000e+01 1.069562e+02 -2.803323e+01
    endloop
endfacet
facet normal 0.000000e+00 -7.518366e-01 6.593494e-01
    outer loop
        vertex 1.160000e+01 1.060332e+02 -2.895619e+01
        vertex 1.470000e+01 1.060332e+02 -2.895619e+01
        vertex 1.470000e+01 1.064645e+02 -2.846447e+01
    endloop
endfacet
facet normal 0.000000e+00 -7.518366e-01 6.593494e-01
    outer loop
        vertex 1.160000e+01 1.060332e+02 -2.895619e+01
        vertex 1.470000e+01 1.064645e+02 -2.846447e+01
        vertex 1.160000e+01 1.064645e+02 -2.846447e+01
    endloop
endfacet
facet normal 0.000000e+00 -8.314720e-01 5.555667e-01
    outer loop
        vertex 1.160000e+01 1.056699e+02 -2.950000e+01
        vertex 1.470000e+01 1.056699e+02 -2.950000e+01
        vertex 1.470000e+01 1.060332e+02 -2.895619e+01
    endloop
endfacet
facet normal 0.000000e+00 -8.314720e-01 5.555667e-01
    outer loop
        vertex 1.160000e+01 1.056699e+02 -2.950000e+01
        vertex 1.470000e+01 1.060332e+02 -2.895619e+01
        vertex 1.160000e+01 1.060332e+02 -2.895619e+01
    endloop
endfacet
facet normal 0.000000e+00 -8.968692e-01 4.422958e-01
    outer loop
        vertex 1.160000e+01 1.053806e+02 -3.008658e+01
        vertex 1.470000e+01 1.053806e+02 -3.008658e+01
        vertex 1.470000e+01 1.056699e+02 -2.950000e+01
    endloop
endfacet
facet normal 0.000000e+00 -8.968692e-01 4.422958e-01
    outer loop
        vertex 1.160000e+01 1.053806e+02 -3.008658e+01
        vertex 1.470000e+01 1.056699e+02 -2.950000e+01
        vertex 1.160000e+01 1.056699e+02 -2.950000e+01
    endloop
endfacet
facet normal 0.000000e+00 -9.469317e-01 3.214347e-01
    outer loop
        vertex 1.160000e+01 1.051704e+02 -3.070590e+01
        vertex 1.470000e+01 1.051704e+02 -3.070590e+01
        vertex 1.470000e+01 1.053806e+02 -3.008658e+01
    endloop
endfacet
facet normal 0.000000e+00 -9.469317e-01 3.214347e-01
    outer loop
        vertex 1.160000e+01 1.051704e+02 -3.070590e+01
        vertex 1.470000e+01 1.053806e+02 -3.008658e+01
        vertex 1.160000e+01 1.053806e+02 -3.008658e+01
    endloop
endfacet
facet normal 0.000000e+00 -9.469314e-01 -3.214356e-01
    outer loop
        vertex 1.470000e+01 1.051704e+02 -3.329410e+01
        vertex 1.160000e+01 1.053806e+02 -3.391342e+01
        vertex 1.470000e+01 1.053806e+02 -3.391342e+01
    endloop
endfacet
facet normal 0.000000e+00 -9.469314e-01 -3.214356e-01
    outer loop
        vertex 1.160000e+01 1.051704e+02 -3.329410e+01
        vertex 1.160000e+01 1.053806e+02 -3.391342e+01
        vertex 1.470000e+01 1.051704e+02 -3.329410e+01
    endloop
endfacet
facet normal 0.000000e+00 -8.968692e-01 -4.422958e-01
    outer loop
        vertex 1.470000e+01 1.053806e+02 -3.391342e+01
        vertex 1.160000e+01 1.056699e+02 -3.450000e+01
        vertex 1.470000e+01 1.056699e+02 -3.450000e+01
    endloop
endfacet
facet normal 0.000000e+00 -8.968692e-01 -4.422958e-01
    outer loop
        vertex 1.160000e+01 1.053806e+02 -3.391342e+01
        vertex 1.160000e+01 1.056699e+02 -3.450000e+01
        vertex 1.470000e+01 1.053806e+02 -3.391342e+01
    endloop
endfacet
facet normal 0.000000e+00 -8.314720e-01 -5.555667e-01
    outer loop
        vertex 1.470000e+01 1.056699e+02 -3.450000e+01
        vertex 1.160000e+01 1.060332e+02 -3.504381e+01
        vertex 1.470000e+01 1.060332e+02 -3.504381e+01
    endloop
endfacet
facet normal 0.000000e+00 -8.314720e-01 -5.555667e-01
    outer loop
        vertex 1.160000e+01 1.056699e+02 -3.450000e+01
        vertex 1.160000e+01 1.060332e+02 -3.504381e+01
        vertex 1.470000e+01 1.056699e+02 -3.450000e+01
    endloop
endfacet
facet normal 0.000000e+00 -7.518366e-01 -6.593494e-01
    outer loop
        vertex 1.470000e+01 1.060332e+02 -3.504381e+01
        vertex 1.160000e+01 1.064645e+02 -3.553553e+01
        vertex 1.470000e+01 1.064645e+02 -3.553553e+01
    endloop
endfacet
facet normal 0.000000e+00 -7.518366e-01 -6.593494e-01
    outer loop
        vertex 1.160000e+01 1.060332e+02 -3.504381e+01
        vertex 1.160000e+01 1.064645e+02 -3.553553e+01
        vertex 1.470000e+01 1.060332e+02 -3.504381e+01
    endloop
endfacet
facet normal 0.000000e+00 -6.593490e-01 -7.518370e-01
    outer loop
        vertex 1.470000e+01 1.064645e+02 -3.553553e+01
        vertex 1.160000e+01 1.069562e+02 -3.596677e+01
        vertex 1.470000e+01 1.069562e+02 -3.596677e+01
    endloop
endfacet
facet normal 0.000000e+00 -6.593490e-01 -7.518370e-01
    outer loop
        vertex 1.160000e+01 1.064645e+02 -3.553553e+01
        vertex 1.160000e+01 1.069562e+02 -3.596677e+01
        vertex 1.470000e+01 1.064645e+02 -3.553553e+01
    endloop
endfacet
facet normal 0.000000e+00 -5.555707e-01 -8.314693e-01
    outer loop
        vertex 1.470000e+01 1.069562e+02 -3.596677e+01
        vertex 1.160000e+01 1.075000e+02 -3.633013e+01
        vertex 1.470000e+01 1.075000e+02 -3.633013e+01
    endloop
endfacet
facet normal 0.000000e+00 -5.555707e-01 -8.314693e-01
    outer loop
        vertex 1.160000e+01 1.069562e+02 -3.596677e+01
        vertex 1.160000e+01 1.075000e+02 -3.633013e+01
        vertex 1.470000e+01 1.069562e+02 -3.596677e+01
    endloop
endfacet
facet normal 0.000000e+00 -4.422841e-01 -8.968750e-01
    outer loop
        vertex 1.470000e+01 1.075000e+02 -3.633013e+01
        vertex 1.160000e+01 1.080866e+02 -3.661940e+01
        vertex 1.470000e+01 1.080866e+02 -3.661940e+01
    endloop
endfacet
facet normal 0.000000e+00 -4.422841e-01 -8.968750e-01
    outer loop
        vertex 1.160000e+01 1.075000e+02 -3.633013e+01
        vertex 1.160000e+01 1.080866e+02 -3.661940e+01
        vertex 1.470000e+01 1.075000e+02 -3.633013e+01
    endloop
endfacet
facet normal 0.000000e+00 -3.214426e-01 -9.469290e-01
    outer loop
        vertex 1.470000e+01 1.080866e+02 -3.661940e+01
        vertex 1.160000e+01 1.087059e+02 -3.682963e+01
        vertex 1.470000e+01 1.087059e+02 -3.682963e+01
    endloop
endfacet
facet normal 0.000000e+00 -3.214426e-01 -9.469290e-01
    outer loop
        vertex 1.160000e+01 1.080866e+02 -3.661940e+01
        vertex 1.160000e+01 1.087059e+02 -3.682963e+01
        vertex 1.470000e+01 1.080866e+02 -3.661940e+01
    endloop
endfacet
facet normal 0.000000e+00 -1.950942e-01 -9.807845e-01
    outer loop
        vertex 1.470000e+01 1.087059e+02 -3.682963e+01
        vertex 1.160000e+01 1.093474e+02 -3.695723e+01
        vertex 1.470000e+01 1.093474e+02 -3.695723e+01
    endloop
endfacet
facet normal 0.000000e+00 -1.950942e-01 -9.807845e-01
    outer loop
        vertex 1.160000e+01 1.087059e+02 -3.682963e+01
        vertex 1.160000e+01 1.093474e+02 -3.695723e+01
        vertex 1.470000e+01 1.087059e+02 -3.682963e+01
    endloop
endfacet
facet normal 0.000000e+00 -6.540059e-02 -9.978591e-01
    outer loop
        vertex 1.470000e+01 1.093474e+02 -3.695723e+01
        vertex 1.160000e+01 1.100000e+02 -3.700000e+01
        vertex 1.470000e+01 1.100000e+02 -3.700000e+01
    endloop
endfacet
facet normal 0.000000e+00 -6.540059e-02 -9.978591e-01
    outer loop
        vertex 1.160000e+01 1.093474e+02 -3.695723e+01
        vertex 1.160000e+01 1.100000e+02 -3.700000e+01
        vertex 1.470000e+01 1.093474e+02 -3.695723e+01
    endloop
endfacet
facet normal 0.000000e+00 6.540059e-02 -9.978591e-01
    outer loop
        vertex 1.470000e+01 1.100000e+02 -3.700000e+01
        vertex 1.160000e+01 1.106526e+02 -3.695723e+01
        vertex 1.470000e+01 1.106526e+02 -3.695723e+01
    endloop
endfacet
facet normal 0.000000e+00 6.540059e-02 -9.978591e-01
    outer loop
        vertex 1.160000e+01 1.100000e+02 -3.700000e+01
        vertex 1.160000e+01 1.106526e+02 -3.695723e+01
        vertex 1.470000e+01 1.100000e+02 -3.700000e+01
    endloop
endfacet
facet normal 0.000000e+00 1.950942e-01 -9.807845e-01
    outer loop
        vertex 1.470000e+01 1.106526e+02 -3.695723e+01
        vertex 1.160000e+01 1.112941e+02 -3.682963e+01
        vertex 1.470000e+01 1.112941e+02 -3.682963e+01
    endloop
endfacet
facet normal 0.000000e+00 1.950942e-01 -9.807845e-01
    outer loop
        vertex 1.160000e+01 1.106526e+02 -3.695723e+01
        vertex 1.160000e+01 1.112941e+02 -3.682963e+01
        vertex 1.470000e+01 1.106526e+02 -3.695723e+01
    endloop
endfacet
facet normal 0.000000e+00 3.214426e-01 -9.469290e-01
    outer loop
        vertex 1.470000e+01 1.112941e+02 -3.682963e+01
        vertex 1.160000e+01 1.119134e+02 -3.661940e+01
        vertex 1.470000e+01 1.119134e+02 -3.661940e+01
    endloop
endfacet
facet normal 0.000000e+00 3.214426e-01 -9.469290e-01
    outer loop
        vertex 1.160000e+01 1.112941e+02 -3.682963e+01
        vertex 1.160000e+01 1.119134e+02 -3.661940e+01
        vertex 1.470000e+01 1.112941e+02 -3.682963e+01
    endloop
endfacet
facet normal 0.000000e+00 4.422841e-01 -8.968750e-01
    outer loop
        vertex 1.470000e+01 1.119134e+02 -3.661940e+01
        vertex 1.160000e+01 1.125000e+02 -3.633013e+01
        vertex 1.470000e+01 1.125000e+02 -3.633013e+01
    endloop
endfacet
facet normal 0.000000e+00 4.422841e-01 -8.968750e-01
    outer loop
        vertex 1.160000e+01 1.119134e+02 -3.661940e+01
        vertex 1.160000e+01 1.125000e+02 -3.633013e+01
        vertex 1.470000e+01 1.119134e+02 -3.661940e+01
    endloop
endfacet
facet normal 0.000000e+00 5.555707e-01 -8.314693e-01
    outer loop
        vertex 1.470000e+01 1.125000e+02 -3.633013e+01
        vertex 1.160000e+01 1.130438e+02 -3.596677e+01
        vertex 1.470000e+01 1.130438e+02 -3.596677e+01
    endloop
endfacet
facet normal 0.000000e+00 5.555707e-01 -8.314693e-01
    outer loop
        vertex 1.160000e+01 1.125000e+02 -3.633013e+01
        vertex 1.160000e+01 1.130438e+02 -3.596677e+01
        vertex 1.470000e+01 1.125000e+02 -3.633013e+01
    endloop
endfacet
facet normal 0.000000e+00 6.593490e-01 -7.518370e-01
    outer loop
        vertex 1.470000e+01 1.130438e+02 -3.596677e+01
        vertex 1.160000e+01 1.135355e+02 -3.553553e+01
        vertex 1.470000e+01 1.135355e+02 -3.553553e+01
    endloop
endfacet
facet normal 0.000000e+00 6.593490e-01 -7.518370e-01
    outer loop
        vertex 1.160000e+01 1.130438e+02 -3.596677e+01
        vertex 1.160000e+01 1.135355e+02 -3.553553e+01
        vertex 1.470000e+01 1.130438e+02 -3.596677e+01
    endloop
endfacet
facet normal 0.000000e+00 7.518366e-01 -6.593494e-01
    outer loop
        vertex 1.470000e+01 1.135355e+02 -3.553553e+01
        vertex 1.160000e+01 1.139668e+02 -3.504381e+01
        vertex 1.470000e+01 1.139668e+02 -3.504381e+01
    endloop
endfacet
facet normal 0.000000e+00 7.518366e-01 -6.593494e-01
    outer loop
        vertex 1.160000e+01 1.135355e+02 -3.553553e+01
        vertex 1.160000e+01 1.139668e+02 -3.504381e+01
        vertex 1.470000e+01 1.135355e+02 -3.553553e+01
    endloop
endfacet
facet normal 0.000000e+00 8.314765e-01 5.555599e-01
    outer loop
        vertex 1.470000e+01 1.139668e+02 -2.895619e+01
        vertex 1.470000e+01 1.141300e+02 -2.920047e+01
        vertex 1.160000e+01 1.141300e+02 -2.920047e+01
    endloop
endfacet
facet normal -0.000000e+00 8.314765e-01 5.555599e-01
    outer loop
        vertex 1.160000e+01 1.139668e+02 -2.895619e+01
        vertex 1.470000e+01 1.139668e+02 -2.895619e+01
        vertex 1.160000e+01 1.141300e+02 -2.920047e+01
    endloop
endfacet
facet normal 0.000000e+00 8.314745e-01 -5.555629e-01
    outer loop
        vertex 1.470000e+01 1.139668e+02 -3.504381e+01
        vertex 1.160000e+01 1.141300e+02 -3.479953e+01
        vertex 1.470000e+01 1.141300e+02 -3.479953e+01
    endloop
endfacet
facet normal 0.000000e+00 8.314745e-01 -5.555629e-01
    outer loop
        vertex 1.160000e+01 1.139668e+02 -3.504381e+01
        vertex 1.160000e+01 1.141300e+02 -3.479953e+01
        vertex 1.470000e+01 1.139668e+02 -3.504381e+01
    endloop
endfacet
facet normal 0.000000e+00 -0.000000e+00 1.000000e+00
    outer loop
        vertex 1.570000e+01 1.150400e+02 -2.904000e+01
        vertex 1.570000e+01 1.289600e+02 -2.904000e+01
        vertex 1.160000e+01 1.289600e+02 -2.904000e+01
    endloop
endfacet
facet normal 0.000000e+00 0.000000e+00 1.000000e+00
    outer loop
        vertex 1.160000e+01 1.150400e+02 -2.904000e+01
        vertex 1.570000e+01 1.150400e+02 -2.904000e+01
        vertex 1.160000e+01 1.289600e+02 -2.904000e+01
    endloop
endfacet
facet normal 0.000000e+00 -1.305249e-01 9.914450e-01
    outer loop
        vertex 1.570000e+01 1.142739e+02 -2.914086e+01
        vertex 1.570000e+01 1.150400e+02 -2.904000e+01
        vertex 1.160000e+01 1.150400e+02 -2.904000e+01
    endloop
endfacet
facet normal 0.000000e+00 -1.305249e-01 9.914450e-01
    outer loop
        vertex 1.160000e+01 1.142739e+02 -2.914086e+01
        vertex 1.570000e+01 1.142739e+02 -2.914086e+01
        vertex 1.160000e+01 1.150400e+02 -2.904000e+01
    endloop
endfacet
facet normal 0.000000e+00 -1.305224e-01 -9.914454e-01
    outer loop
        vertex 1.160000e+01 1.142739e+02 -3.485914e+01
        vertex 1.570000e+01 1.150400e+02 -3.496000e+01
        vertex 1.570000e+01 1.142739e+02 -3.485914e+01
    endloop
endfacet
facet normal 0.000000e+00 -1.305224e-01 -9.914454e-01
    outer loop
        vertex 1.160000e+01 1.142739e+02 -3.485914e+01
        vertex 1.160000e+01 1.150400e+02 -3.496000e+01
        vertex 1.570000e+01 1.150400e+02 -3.496000e+01
    endloop
endfacet
facet normal 0.000000e+00 0.000000e+00 -1.000000e+00
    outer loop
        vertex 1.570000e+01 1.150400e+02 -3.496000e+01
        vertex 1.160000e+01 1.289600e+02 -3.496000e+01
        vertex 1.570000e+01 1.289600e+02 -3.496000e+01
    endloop
endfacet
facet normal 0.000000e+00 0.000000e+00 -1.000000e+00
    outer loop
        vertex 1.160000e+01 1.150400e+02 -3.496000e+01
        vertex 1.160000e+01 1.289600e+02 -3.496000e+01
        vertex 1.570000e+01 1.150400e+02 -3.496000e+01
    endloop
endfacet
facet normal 0.000000e+00 1.305237e-01 -9.914452e-01
    outer loop
        vertex 1.570000e+01 1.289600e+02 -3.496000e+01
        vertex 1.160000e+01 1.297261e+02 -3.485914e+01
        vertex 1.570000e+01 1.297261e+02 -3.485914e+01
    endloop
endfacet
facet normal 0.000000e+00 1.305237e-01 -9.914452e-01
    outer loop
        vertex 1.160000e+01 1.289600e+02 -3.496000e+01
        vertex 1.160000e+01 1.297261e+02 -3.485914e+01
        vertex 1.570000e+01 1.289600e+02 -3.496000e+01
    endloop
endfacet
facet normal 0.000000e+00 3.826852e-01 -9.238788e-01
    outer loop
        vertex 1.570000e+01 1.297261e+02 -3.485914e+01
        vertex 1.160000e+01 1.304400e+02 -3.456343e+01
        vertex 1.570000e+01 1.304400e+02 -3.456343e+01
    endloop
endfacet
facet normal 0.000000e+00 3.826852e-01 -9.238788e-01
    outer loop
        vertex 1.160000e+01 1.297261e+02 -3.485914e+01
        vertex 1.160000e+01 1.304400e+02 -3.456343e+01
        vertex 1.570000e+01 1.297261e+02 -3.485914e+01
    endloop
endfacet
facet normal 0.000000e+00 6.087598e-01 -7.933546e-01
    outer loop
        vertex 1.570000e+01 1.304400e+02 -3.456343e+01
        vertex 1.160000e+01 1.310530e+02 -3.409304e+01
        vertex 1.570000e+01 1.310530e+02 -3.409304e+01
    endloop
endfacet
facet normal 0.000000e+00 6.087598e-01 -7.933546e-01
    outer loop
        vertex 1.160000e+01 1.304400e+02 -3.456343e+01
        vertex 1.160000e+01 1.310530e+02 -3.409304e+01
        vertex 1.570000e+01 1.304400e+02 -3.456343e+01
    endloop
endfacet
facet normal 0.000000e+00 7.933546e-01 -6.087598e-01
    outer loop
        vertex 1.570000e+01 1.310530e+02 -3.409304e+01
        vertex 1.160000e+01 1.315234e+02 -3.348000e+01
        vertex 1.570000e+01 1.315234e+02 -3.348000e+01
    endloop
endfacet
facet normal 0.000000e+00 7.933546e-01 -6.087598e-01
    outer loop
        vertex 1.160000e+01 1.310530e+02 -3.409304e+01
        vertex 1.160000e+01 1.315234e+02 -3.348000e+01
        vertex 1.570000e+01 1.310530e+02 -3.409304e+01
    endloop
endfacet
facet normal 0.000000e+00 9.238816e-01 -3.826785e-01
    outer loop
        vertex 1.570000e+01 1.315234e+02 -3.348000e+01
        vertex 1.160000e+01 1.318191e+02 -3.276611e+01
        vertex 1.570000e+01 1.318191e+02 -3.276611e+01
    endloop
endfacet
facet normal 0.000000e+00 9.238816e-01 -3.826785e-01
    outer loop
        vertex 1.160000e+01 1.315234e+02 -3.348000e+01
        vertex 1.160000e+01 1.318191e+02 -3.276611e+01
        vertex 1.570000e+01 1.315234e+02 -3.348000e+01
    endloop
endfacet
facet normal 0.000000e+00 9.914447e-01 -1.305273e-01
    outer loop
        vertex 1.570000e+01 1.318191e+02 -3.276611e+01
        vertex 1.160000e+01 1.319200e+02 -3.200000e+01
        vertex 1.570000e+01 1.319200e+02 -3.200000e+01
    endloop
endfacet
facet normal 0.000000e+00 9.914447e-01 -1.305273e-01
    outer loop
        vertex 1.160000e+01 1.318191e+02 -3.276611e+01
        vertex 1.160000e+01 1.319200e+02 -3.200000e+01
        vertex 1.570000e+01 1.318191e+02 -3.276611e+01
    endloop
endfacet
facet normal -0.000000e+00 9.914446e-01 1.305276e-01
    outer loop
        vertex 1.160000e+01 1.318191e+02 -3.123390e+01
        vertex 1.570000e+01 1.318191e+02 -3.123390e+01
        vertex 1.570000e+01 1.319200e+02 -3.200000e+01
    endloop
endfacet
facet normal 0.000000e+00 9.914446e-01 1.305276e-01
    outer loop
        vertex 1.160000e+01 1.318191e+02 -3.123390e+01
        vertex 1.570000e+01 1.319200e+02 -3.200000e+01
        vertex 1.160000e+01 1.319200e+02 -3.200000e+01
    endloop
endfacet
facet normal -0.000000e+00 9.238819e-01 3.826776e-01
    outer loop
        vertex 1.160000e+01 1.315234e+02 -3.052000e+01
        vertex 1.570000e+01 1.315234e+02 -3.052000e+01
        vertex 1.570000e+01 1.318191e+02 -3.123390e+01
    endloop
endfacet
facet normal 0.000000e+00 9.238819e-01 3.826776e-01
    outer loop
        vertex 1.160000e+01 1.315234e+02 -3.052000e+01
        vertex 1.570000e+01 1.318191e+02 -3.123390e+01
        vertex 1.160000e+01 1.318191e+02 -3.123390e+01
    endloop
endfacet
facet normal -0.000000e+00 7.933537e-01 6.087610e-01
    outer loop
        vertex 1.160000e+01 1.310530e+02 -2.990697e+01
        vertex 1.570000e+01 1.310530e+02 -2.990697e+01
        vertex 1.570000e+01 1.315234e+02 -3.052000e+01
    endloop
endfacet
facet normal 0.000000e+00 7.933537e-01 6.087610e-01
    outer loop
        vertex 1.160000e+01 1.310530e+02 -2.990697e+01
        vertex 1.570000e+01 1.315234e+02 -3.052000e+01
        vertex 1.160000e+01 1.315234e+02 -3.052000e+01
    endloop
endfacet
facet normal -0.000000e+00 6.087614e-01 7.933534e-01
    outer loop
        vertex 1.160000e+01 1.304400e+02 -2.943657e+01
        vertex 1.570000e+01 1.304400e+02 -2.943657e+01
        vertex 1.570000e+01 1.310530e+02 -2.990697e+01
    endloop
endfacet
facet normal 0.000000e+00 6.087614e-01 7.933534e-01
    outer loop
        vertex 1.160000e+01 1.304400e+02 -2.943657e+01
        vertex 1.570000e+01 1.310530e+02 -2.990697e+01
        vertex 1.160000e+01 1.310530e+02 -2.990697e+01
    endloop
endfacet
facet normal -0.000000e+00 3.826831e-01 9.238797e-01
    outer loop
        vertex 1.160000e+01 1.297261e+02 -2.914086e+01
        vertex 1.570000e+01 1.297261e+02 -2.914086e+01
        vertex 1.570000e+01 1.304400e+02 -2.943657e+01
    endloop
endfacet
facet normal 0.000000e+00 3.826831e-01 9.238797e-01
    outer loop
        vertex 1.160000e+01 1.297261e+02 -2.914086e+01
        vertex 1.570000e+01 1.304400e+02 -2.943657e+01
        vertex 1.160000e+01 1.304400e+02 -2.943657e+01
    endloop
endfacet
facet normal -0.000000e+00 1.305262e-01 9.914449e-01
    outer loop
        vertex 1.160000e+01 1.289600e+02 -2.904000e+01
        vertex 1.570000e+01 1.289600e+02 -2.904000e+01
        vertex 1.570000e+01 1.297261e+02 -2.914086e+01
    endloop
endfacet
facet normal 0.000000e+00 1.305262e-01 9.914449e-01
    outer loop
        vertex 1.160000e+01 1.289600e+02 -2.904000e+01
        vertex 1.570000e+01 1.297261e+02 -2.914086e+01
        vertex 1.160000e+01 1.297261e+02 -2.914086e+01
    endloop
endfacet
facet normal 0.000000e+00 -3.826863e-01 9.238784e-01
    outer loop
        vertex 1.470000e+01 1.135600e+02 -2.943657e+01
        vertex 1.570000e+01 1.135600e+02 -2.943657e+01
        vertex 1.470000e+01 1.141300e+02 -2.920047e+01
    endloop
endfacet
facet normal 0.000000e+00 -3.826705e-01 9.238849e-01
    outer loop
        vertex 1.160000e+01 1.141300e+02 -2.920047e+01
        vertex 1.470000e+01 1.141300e+02 -2.920047e+01
        vertex 1.160000e+01 1.142739e+02 -2.914086e+01
    endloop
endfacet
facet normal 0.000000e+00 -3.826705e-01 9.238849e-01
    outer loop
        vertex 1.470000e+01 1.141300e+02 -2.920047e+01
        vertex 1.570000e+01 1.142739e+02 -2.914086e+01
        vertex 1.160000e+01 1.142739e+02 -2.914086e+01
    endloop
endfacet
facet normal 2.129180e-06 -3.826831e-01 9.238797e-01
    outer loop
        vertex 1.570000e+01 1.135600e+02 -2.943657e+01
        vertex 1.570000e+01 1.142739e+02 -2.914086e+01
        vertex 1.470000e+01 1.141300e+02 -2.920047e+01
    endloop
endfacet
facet normal 0.000000e+00 -3.826889e-01 -9.238772e-01
    outer loop
        vertex 1.470000e+01 1.135600e+02 -3.456343e+01
        vertex 1.470000e+01 1.141300e+02 -3.479953e+01
        vertex 1.570000e+01 1.135600e+02 -3.456343e+01
    endloop
endfacet
facet normal 0.000000e+00 -3.826705e-01 -9.238849e-01
    outer loop
        vertex 1.160000e+01 1.141300e+02 -3.479953e+01
        vertex 1.160000e+01 1.142739e+02 -3.485914e+01
        vertex 1.470000e+01 1.141300e+02 -3.479953e+01
    endloop
endfacet
facet normal 2.484408e-06 -3.826852e-01 -9.238788e-01
    outer loop
        vertex 1.570000e+01 1.135600e+02 -3.456343e+01
        vertex 1.470000e+01 1.141300e+02 -3.479953e+01
        vertex 1.570000e+01 1.142739e+02 -3.485914e+01
    endloop
endfacet
facet normal 0.000000e+00 -3.826705e-01 -9.238849e-01
    outer loop
        vertex 1.470000e+01 1.141300e+02 -3.479953e+01
        vertex 1.160000e+01 1.142739e+02 -3.485914e+01
        vertex 1.570000e+01 1.142739e+02 -3.485914e+01
    endloop
endfacet
facet normal 0.000000e+00 -9.807856e-01 1.950886e-01
    outer loop
        vertex 1.160000e+01 1.050428e+02 -3.134737e+01
        vertex 1.456492e+01 1.050428e+02 -3.134737e+01
        vertex 1.160000e+01 1.051704e+02 -3.070590e+01
    endloop
endfacet
facet normal 0.000000e+00 -9.807856e-01 1.950886e-01
    outer loop
        vertex 1.456492e+01 1.050428e+02 -3.134737e+01
        vertex 1.470000e+01 1.051704e+02 -3.070590e+01
        vertex 1.160000e+01 1.051704e+02 -3.070590e+01
    endloop
endfacet
facet normal 2.899780e-05 -9.807868e-01 1.950827e-01
    outer loop
        vertex 1.456492e+01 1.050428e+02 -3.134737e+01
        vertex 1.470000e+01 1.050475e+02 -3.132353e+01
        vertex 1.470000e+01 1.051704e+02 -3.070590e+01
    endloop
endfacet
facet normal 0.000000e+00 -9.978587e-01 6.540658e-02
    outer loop
        vertex 1.160000e+01 1.050000e+02 -3.200000e+01
        vertex 1.370000e+01 1.050000e+02 -3.200000e+01
        vertex 1.160000e+01 1.050428e+02 -3.134737e+01
    endloop
endfacet
facet normal 1.493895e-06 -9.978584e-01 6.541137e-02
    outer loop
        vertex 1.370000e+01 1.050000e+02 -3.200000e+01
        vertex 1.370000e+01 1.050328e+02 -3.150000e+01
        vertex 1.160000e+01 1.050428e+02 -3.134737e+01
    endloop
endfacet
facet normal 0.000000e+00 -9.978597e-01 6.539091e-02
    outer loop
        vertex 1.370000e+01 1.050328e+02 -3.150000e+01
        vertex 1.456492e+01 1.050428e+02 -3.134737e+01
        vertex 1.160000e+01 1.050428e+02 -3.134737e+01
    endloop
endfacet
facet normal 0.000000e+00 -9.978587e-01 -6.540640e-02
    outer loop
        vertex 1.160000e+01 1.050000e+02 -3.200000e+01
        vertex 1.160000e+01 1.050428e+02 -3.265263e+01
        vertex 1.370000e+01 1.050000e+02 -3.200000e+01
    endloop
endfacet
facet normal 0.000000e+00 -9.978598e-01 -6.539010e-02
    outer loop
        vertex 1.370000e+01 1.050328e+02 -3.250000e+01
        vertex 1.160000e+01 1.050428e+02 -3.265263e+01
        vertex 1.456492e+01 1.050428e+02 -3.265263e+01
    endloop
endfacet
facet normal 1.553305e-06 -9.978584e-01 -6.541137e-02
    outer loop
        vertex 1.370000e+01 1.050000e+02 -3.200000e+01
        vertex 1.160000e+01 1.050428e+02 -3.265263e+01
        vertex 1.370000e+01 1.050328e+02 -3.250000e+01
    endloop
endfacet
facet normal 0.000000e+00 -9.807856e-01 -1.950886e-01
    outer loop
        vertex 1.160000e+01 1.050428e+02 -3.265263e+01
        vertex 1.160000e+01 1.051704e+02 -3.329410e+01
        vertex 1.456492e+01 1.050428e+02 -3.265263e+01
    endloop
endfacet
facet normal 0.000000e+00 -9.807856e-01 -1.950886e-01
    outer loop
        vertex 1.456492e+01 1.050428e+02 -3.265263e+01
        vertex 1.160000e+01 1.051704e+02 -3.329410e+01
        vertex 1.470000e+01 1.051704e+02 -3.329410e+01
    endloop
endfacet
facet normal 3.471943e-05 -9.807870e-01 -1.950816e-01
    outer loop
        vertex 1.456492e+01 1.050428e+02 -3.265263e+01
        vertex 1.470000e+01 1.051704e+02 -3.329410e+01
        vertex 1.470000e+01 1.050475e+02 -3.267647e+01
    endloop
endfacet
facet normal 1.000000e+00 0.000000e+00 0.000000e+00
    outer loop
        vertex 1.470000e+01 1.117500e+02 -3.370000e+01
        vertex 1.470000e+01 1.124766e+02 -3.348000e+01
        vertex 1.470000e+01 1.121809e+02 -3.276611e+01
    endloop
endfacet
facet normal 1.000000e+00 0.000000e+00 0.000000e+00
    outer loop
        vertex 1.470000e+01 1.135600e+02 -2.943657e+01
        vertex 1.470000e+01 1.141300e+02 -2.920047e+01
        vertex 1.470000e+01 1.139668e+02 -2.895619e+01
    endloop
endfacet
facet normal 1.000000e+00 0.000000e+00 0.000000e+00
    outer loop
        vertex 1.470000e+01 1.135600e+02 -3.456343e+01
        vertex 1.470000e+01 1.139668e+02 -3.504381e+01
        vertex 1.470000e+01 1.141300e+02 -3.479953e+01
    endloop
endfacet
facet normal 1.000000e+00 -0.000000e+00 0.000000e+00
    outer loop
        vertex 1.470000e+01 1.117500e+02 -3.370000e+01
        vertex 1.470000e+01 1.129470e+02 -3.409304e+01
        vertex 1.470000e+01 1.124766e+02 -3.348000e+01
    endloop
endfacet
facet normal 1.000000e+00 0.000000e+00 0.000000e+00
    outer loop
        vertex 1.470000e+01 1.135355e+02 -2.846447e+01
        vertex 1.470000e+01 1.135600e+02 -2.943657e+01
        vertex 1.470000e+01 1.139668e+02 -2.895619e+01
    endloop
endfacet
facet normal 1.000000e+00 0.000000e+00 0.000000e+00
    outer loop
        vertex 1.470000e+01 1.135355e+02 -3.553553e+01
        vertex 1.470000e+01 1.139668e+02 -3.504381e+01
        vertex 1.470000e+01 1.135600e+02 -3.456343e+01
    endloop
endfacet
facet normal 1.000000e+00 0.000000e+00 0.000000e+00
    outer loop
        vertex 1.470000e+01 1.129470e+02 -3.409304e+01
        vertex 1.470000e+01 1.135355e+02 -3.553553e+01
        vertex 1.470000e+01 1.135600e+02 -3.456343e+01
    endloop
endfacet
facet normal 1.000000e+00 0.000000e+00 0.000000e+00
    outer loop
        vertex 1.470000e+01 1.129470e+02 -2.990697e+01
        vertex 1.470000e+01 1.135600e+02 -2.943657e+01
        vertex 1.470000e+01 1.135355e+02 -2.846447e+01
    endloop
endfacet
facet normal 1.000000e+00 0.000000e+00 0.000000e+00
    outer loop
        vertex 1.470000e+01 1.129470e+02 -3.409304e+01
        vertex 1.470000e+01 1.130438e+02 -3.596677e+01
        vertex 1.470000e+01 1.135355e+02 -3.553553e+01
    endloop
endfacet
facet normal 1.000000e+00 0.000000e+00 0.000000e+00
    outer loop
        vertex 1.470000e+01 1.117500e+02 -3.370000e+01
        vertex 1.470000e+01 1.130438e+02 -3.596677e+01
        vertex 1.470000e+01 1.129470e+02 -3.409304e+01
    endloop
endfacet
facet normal 1.000000e+00 -0.000000e+00 0.000000e+00
    outer loop
        vertex 1.470000e+01 1.082500e+02 -3.370000e+01
        vertex 1.470000e+01 1.130438e+02 -3.596677e+01
        vertex 1.470000e+01 1.117500e+02 -3.370000e+01
    endloop
endfacet
facet normal 1.000000e+00 0.000000e+00 0.000000e+00
    outer loop
        vertex 1.470000e+01 1.129470e+02 -2.990697e+01
        vertex 1.470000e+01 1.135355e+02 -2.846447e+01
        vertex 1.470000e+01 1.130438e+02 -2.803323e+01
    endloop
endfacet
facet normal 1.000000e+00 0.000000e+00 0.000000e+00
    outer loop
        vertex 1.470000e+01 1.125000e+02 -2.766987e+01
        vertex 1.470000e+01 1.129470e+02 -2.990697e+01
        vertex 1.470000e+01 1.130438e+02 -2.803323e+01
    endloop
endfacet
facet normal 1.000000e+00 -0.000000e+00 0.000000e+00
    outer loop
        vertex 1.470000e+01 1.050475e+02 -3.267647e+01
        vertex 1.470000e+01 1.051704e+02 -3.329410e+01
        vertex 1.470000e+01 1.079000e+02 -3.267647e+01
    endloop
endfacet
facet normal 1.000000e+00 -0.000000e+00 0.000000e+00
    outer loop
        vertex 1.470000e+01 1.051704e+02 -3.329410e+01
        vertex 1.470000e+01 1.053806e+02 -3.391342e+01
        vertex 1.470000e+01 1.079000e+02 -3.267647e+01
    endloop
endfacet
facet normal 1.000000e+00 -0.000000e+00 0.000000e+00
    outer loop
        vertex 1.470000e+01 1.053806e+02 -3.391342e+01
        vertex 1.470000e+01 1.056699e+02 -3.450000e+01
        vertex 1.470000e+01 1.079000e+02 -3.267647e+01
    endloop
endfacet
facet normal 1.000000e+00 0.000000e+00 0.000000e+00
    outer loop
        vertex 1.470000e+01 1.050475e+02 -3.132353e+01
        vertex 1.470000e+01 1.079000e+02 -3.132353e+01
        vertex 1.470000e+01 1.051704e+02 -3.070590e+01
    endloop
endfacet
facet normal 1.000000e+00 -0.000000e+00 0.000000e+00
    outer loop
        vertex 1.470000e+01 1.051704e+02 -3.070590e+01
        vertex 1.470000e+01 1.079000e+02 -3.132353e+01
        vertex 1.470000e+01 1.053806e+02 -3.008658e+01
    endloop
endfacet
facet normal 1.000000e+00 -0.000000e+00 0.000000e+00
    outer loop
        vertex 1.470000e+01 1.053806e+02 -3.008658e+01
        vertex 1.470000e+01 1.079000e+02 -3.132353e+01
        vertex 1.470000e+01 1.056699e+02 -2.950000e+01
    endloop
endfacet
facet normal 1.000000e+00 -0.000000e+00 0.000000e+00
    outer loop
        vertex 1.470000e+01 1.056699e+02 -2.950000e+01
        vertex 1.470000e+01 1.079000e+02 -3.132353e+01
        vertex 1.470000e+01 1.060332e+02 -2.895619e+01
    endloop
endfacet
facet normal 1.000000e+00 -0.000000e+00 0.000000e+00
    outer loop
        vertex 1.470000e+01 1.056699e+02 -3.450000e+01
        vertex 1.470000e+01 1.060332e+02 -3.504381e+01
        vertex 1.470000e+01 1.079000e+02 -3.267647e+01
    endloop
endfacet
facet normal 1.000000e+00 -0.000000e+00 0.000000e+00
    outer loop
        vertex 1.470000e+01 1.060332e+02 -2.895619e+01
        vertex 1.470000e+01 1.079000e+02 -3.132353e+01
        vertex 1.470000e+01 1.064645e+02 -2.846447e+01
    endloop
endfacet
facet normal 1.000000e+00 -0.000000e+00 0.000000e+00
    outer loop
        vertex 1.470000e+01 1.060332e+02 -3.504381e+01
        vertex 1.470000e+01 1.064645e+02 -3.553553e+01
        vertex 1.470000e+01 1.079000e+02 -3.267647e+01
    endloop
endfacet
facet normal 1.000000e+00 0.000000e+00 0.000000e+00
    outer loop
        vertex 1.470000e+01 1.124766e+02 -3.052000e+01
        vertex 1.470000e+01 1.129470e+02 -2.990697e+01
        vertex 1.470000e+01 1.125000e+02 -2.766987e+01
    endloop
endfacet
facet normal 1.000000e+00 0.000000e+00 0.000000e+00
    outer loop
        vertex 1.470000e+01 1.117500e+02 -3.370000e+01
        vertex 1.470000e+01 1.121809e+02 -3.276611e+01
        vertex 1.470000e+01 1.120800e+02 -3.200000e+01
    endloop
endfacet
facet normal 1.000000e+00 -0.000000e+00 0.000000e+00
    outer loop
        vertex 1.470000e+01 1.064645e+02 -2.846447e+01
        vertex 1.470000e+01 1.079000e+02 -3.132353e+01
        vertex 1.470000e+01 1.069562e+02 -2.803323e+01
    endloop
endfacet
facet normal 1.000000e+00 -0.000000e+00 0.000000e+00
    outer loop
        vertex 1.470000e+01 1.064645e+02 -3.553553e+01
        vertex 1.470000e+01 1.069562e+02 -3.596677e+01
        vertex 1.470000e+01 1.079000e+02 -3.267647e+01
    endloop
endfacet
facet normal 1.000000e+00 0.000000e+00 0.000000e+00
    outer loop
        vertex 1.470000e+01 1.119134e+02 -2.738060e+01
        vertex 1.470000e+01 1.124766e+02 -3.052000e+01
        vertex 1.470000e+01 1.125000e+02 -2.766987e+01
    endloop
endfacet
facet normal 1.000000e+00 -0.000000e+00 0.000000e+00
    outer loop
        vertex 1.470000e+01 1.069562e+02 -2.803323e+01
        vertex 1.470000e+01 1.079000e+02 -3.132353e+01
        vertex 1.470000e+01 1.075000e+02 -2.766987e+01
    endloop
endfacet
facet normal 1.000000e+00 -0.000000e+00 0.000000e+00
    outer loop
        vertex 1.470000e+01 1.069562e+02 -3.596677e+01
        vertex 1.470000e+01 1.075000e+02 -3.633013e+01
        vertex 1.470000e+01 1.079000e+02 -3.267647e+01
    endloop
endfacet
facet normal 1.000000e+00 0.000000e+00 0.000000e+00
    outer loop
        vertex 1.470000e+01 1.112941e+02 -2.717037e+01
        vertex 1.470000e+01 1.124766e+02 -3.052000e+01
        vertex 1.470000e+01 1.119134e+02 -2.738060e+01
    endloop
endfacet
facet normal 1.000000e+00 -0.000000e+00 0.000000e+00
    outer loop
        vertex 1.470000e+01 1.075000e+02 -2.766987e+01
        vertex 1.470000e+01 1.079000e+02 -3.132353e+01
        vertex 1.470000e+01 1.080866e+02 -2.738060e+01
    endloop
endfacet
facet normal 1.000000e+00 -0.000000e+00 0.000000e+00
    outer loop
        vertex 1.470000e+01 1.075000e+02 -3.633013e+01
        vertex 1.470000e+01 1.080866e+02 -3.661940e+01
        vertex 1.470000e+01 1.079000e+02 -3.267647e+01
    endloop
endfacet
facet normal 1.000000e+00 0.000000e+00 0.000000e+00
    outer loop
        vertex 1.470000e+01 1.079000e+02 -3.132353e+01
        vertex 1.470000e+01 1.087059e+02 -2.717037e+01
        vertex 1.470000e+01 1.080866e+02 -2.738060e+01
    endloop
endfacet
facet normal 1.000000e+00 0.000000e+00 0.000000e+00
    outer loop
        vertex 1.470000e+01 1.079000e+02 -3.267647e+01
        vertex 1.470000e+01 1.080866e+02 -3.661940e+01
        vertex 1.470000e+01 1.087059e+02 -3.682963e+01
    endloop
endfacet
facet normal 1.000000e+00 0.000000e+00 0.000000e+00
    outer loop
        vertex 1.470000e+01 1.106526e+02 -2.704278e+01
        vertex 1.470000e+01 1.124766e+02 -3.052000e+01
        vertex 1.470000e+01 1.112941e+02 -2.717037e+01
    endloop
endfacet
facet normal 1.000000e+00 0.000000e+00 0.000000e+00
    outer loop
        vertex 1.470000e+01 1.079000e+02 -3.267647e+01
        vertex 1.470000e+01 1.087059e+02 -3.682963e+01
        vertex 1.470000e+01 1.093474e+02 -3.695723e+01
    endloop
endfacet
facet normal 1.000000e+00 0.000000e+00 0.000000e+00
    outer loop
        vertex 1.470000e+01 1.106526e+02 -2.704278e+01
        vertex 1.470000e+01 1.121809e+02 -3.123390e+01
        vertex 1.470000e+01 1.124766e+02 -3.052000e+01
    endloop
endfacet
facet normal 1.000000e+00 0.000000e+00 0.000000e+00
    outer loop
        vertex 1.470000e+01 1.117500e+02 -3.370000e+01
        vertex 1.470000e+01 1.120800e+02 -3.200000e+01
        vertex 1.470000e+01 1.117500e+02 -3.020000e+01
    endloop
endfacet
facet normal 1.000000e+00 0.000000e+00 0.000000e+00
    outer loop
        vertex 1.470000e+01 1.117500e+02 -3.020000e+01
        vertex 1.470000e+01 1.120800e+02 -3.200000e+01
        vertex 1.470000e+01 1.121809e+02 -3.123390e+01
    endloop
endfacet
facet normal 1.000000e+00 0.000000e+00 0.000000e+00
    outer loop
        vertex 1.470000e+01 1.082500e+02 -3.370000e+01
        vertex 1.470000e+01 1.125000e+02 -3.633013e+01
        vertex 1.470000e+01 1.130438e+02 -3.596677e+01
    endloop
endfacet
facet normal 1.000000e+00 0.000000e+00 0.000000e+00
    outer loop
        vertex 1.470000e+01 1.082500e+02 -3.370000e+01
        vertex 1.470000e+01 1.119134e+02 -3.661940e+01
        vertex 1.470000e+01 1.125000e+02 -3.633013e+01
    endloop
endfacet
facet normal 1.000000e+00 0.000000e+00 0.000000e+00
    outer loop
        vertex 1.470000e+01 1.082500e+02 -3.370000e+01
        vertex 1.470000e+01 1.112941e+02 -3.682963e+01
        vertex 1.470000e+01 1.119134e+02 -3.661940e+01
    endloop
endfacet
facet normal 1.000000e+00 0.000000e+00 0.000000e+00
    outer loop
        vertex 1.470000e+01 1.082500e+02 -3.370000e+01
        vertex 1.470000e+01 1.106526e+02 -3.695723e+01
        vertex 1.470000e+01 1.112941e+02 -3.682963e+01
    endloop
endfacet
facet normal 1.000000e+00 0.000000e+00 0.000000e+00
    outer loop
        vertex 1.470000e+01 1.082500e+02 -3.370000e+01
        vertex 1.470000e+01 1.100000e+02 -3.700000e+01
        vertex 1.470000e+01 1.106526e+02 -3.695723e+01
    endloop
endfacet
facet normal 1.000000e+00 0.000000e+00 0.000000e+00
    outer loop
        vertex 1.470000e+01 1.082500e+02 -3.370000e+01
        vertex 1.470000e+01 1.093474e+02 -3.695723e+01
        vertex 1.470000e+01 1.100000e+02 -3.700000e+01
    endloop
endfacet
facet normal 1.000000e+00 0.000000e+00 0.000000e+00
    outer loop
        vertex 1.470000e+01 1.093474e+02 -2.704278e+01
        vertex 1.470000e+01 1.106526e+02 -2.704278e+01
        vertex 1.470000e+01 1.100000e+02 -2.700000e+01
    endloop
endfacet
facet normal 1.000000e+00 0.000000e+00 0.000000e+00
    outer loop
        vertex 1.470000e+01 1.087059e+02 -2.717037e+01
        vertex 1.470000e+01 1.106526e+02 -2.704278e+01
        vertex 1.470000e+01 1.093474e+02 -2.704278e+01
    endloop
endfacet
facet normal 1.000000e+00 0.000000e+00 0.000000e+00
    outer loop
        vertex 1.470000e+01 1.106526e+02 -2.704278e+01
        vertex 1.470000e+01 1.117500e+02 -3.020000e+01
        vertex 1.470000e+01 1.121809e+02 -3.123390e+01
    endloop
endfacet
facet normal 1.000000e+00 0.000000e+00 0.000000e+00
    outer loop
        vertex 1.470000e+01 1.082500e+02 -3.020000e+01
        vertex 1.470000e+01 1.117500e+02 -3.020000e+01
        vertex 1.470000e+01 1.106526e+02 -2.704278e+01
    endloop
endfacet
facet normal 1.000000e+00 0.000000e+00 0.000000e+00
    outer loop
        vertex 1.470000e+01 1.082500e+02 -3.020000e+01
        vertex 1.470000e+01 1.106526e+02 -2.704278e+01
        vertex 1.470000e+01 1.087059e+02 -2.717037e+01
    endloop
endfacet
facet normal 1.000000e+00 0.000000e+00 0.000000e+00
    outer loop
        vertex 1.470000e+01 1.079000e+02 -3.132353e+01
        vertex 1.470000e+01 1.082500e+02 -3.020000e+01
        vertex 1.470000e+01 1.087059e+02 -2.717037e+01
    endloop
endfacet
facet normal 1.000000e+00 -0.000000e+00 0.000000e+00
    outer loop
        vertex 1.470000e+01 1.079000e+02 -3.132353e+01
        vertex 1.470000e+01 1.082500e+02 -3.370000e+01
        vertex 1.470000e+01 1.082500e+02 -3.020000e+01
    endloop
endfacet
facet normal 1.000000e+00 -0.000000e+00 0.000000e+00
    outer loop
        vertex 1.470000e+01 1.079000e+02 -3.267647e+01
        vertex 1.470000e+01 1.082500e+02 -3.370000e+01
        vertex 1.470000e+01 1.079000e+02 -3.132353e+01
    endloop
endfacet
facet normal 1.000000e+00 0.000000e+00 0.000000e+00
    outer loop
        vertex 1.470000e+01 1.079000e+02 -3.267647e+01
        vertex 1.470000e+01 1.093474e+02 -3.695723e+01
        vertex 1.470000e+01 1.082500e+02 -3.370000e+01
    endloop
endfacet
facet normal -1.000000e+00 0.000000e+00 0.000000e+00
    outer loop
        vertex 1.160000e+01 1.117500e+02 -3.370000e+01
        vertex 1.160000e+01 1.117500e+02 -3.020000e+01
        vertex 1.160000e+01 1.135355e+02 -2.846447e+01
    endloop
endfacet
facet normal -1.000000e+00 0.000000e+00 0.000000e+00
    outer loop
        vertex 1.160000e+01 1.117500e+02 -3.020000e+01
        vertex 1.160000e+01 1.130438e+02 -2.803323e+01
        vertex 1.160000e+01 1.135355e+02 -2.846447e+01
    endloop
endfacet
facet normal -1.000000e+00 0.000000e+00 0.000000e+00
    outer loop
        vertex 1.160000e+01 1.082500e+02 -3.020000e+01
        vertex 1.160000e+01 1.130438e+02 -2.803323e+01
        vertex 1.160000e+01 1.117500e+02 -3.020000e+01
    endloop
endfacet
facet normal -1.000000e+00 0.000000e+00 0.000000e+00
    outer loop
        vertex 1.160000e+01 1.082500e+02 -3.020000e+01
        vertex 1.160000e+01 1.125000e+02 -2.766987e+01
        vertex 1.160000e+01 1.130438e+02 -2.803323e+01
    endloop
endfacet
facet normal -1.000000e+00 0.000000e+00 0.000000e+00
    outer loop
        vertex 1.160000e+01 1.082500e+02 -3.020000e+01
        vertex 1.160000e+01 1.119134e+02 -2.738060e+01
        vertex 1.160000e+01 1.125000e+02 -2.766987e+01
    endloop
endfacet
facet normal -1.000000e+00 0.000000e+00 0.000000e+00
    outer loop
        vertex 1.160000e+01 1.082500e+02 -3.020000e+01
        vertex 1.160000e+01 1.112941e+02 -2.717037e+01
        vertex 1.160000e+01 1.119134e+02 -2.738060e+01
    endloop
endfacet
facet normal -1.000000e+00 0.000000e+00 0.000000e+00
    outer loop
        vertex 1.160000e+01 1.082500e+02 -3.020000e+01
        vertex 1.160000e+01 1.106526e+02 -2.704278e+01
        vertex 1.160000e+01 1.112941e+02 -2.717037e+01
    endloop
endfacet
facet normal -1.000000e+00 0.000000e+00 0.000000e+00
    outer loop
        vertex 1.160000e+01 1.082500e+02 -3.020000e+01
        vertex 1.160000e+01 1.100000e+02 -2.700000e+01
        vertex 1.160000e+01 1.106526e+02 -2.704278e+01
    endloop
endfacet
facet normal -1.000000e+00 0.000000e+00 0.000000e+00
    outer loop
        vertex 1.160000e+01 1.082500e+02 -3.020000e+01
        vertex 1.160000e+01 1.093474e+02 -2.704278e+01
        vertex 1.160000e+01 1.100000e+02 -2.700000e+01
    endloop
endfacet
facet normal -1.000000e+00 0.000000e+00 0.000000e+00
    outer loop
        vertex 1.160000e+01 1.082500e+02 -3.020000e+01
        vertex 1.160000e+01 1.087059e+02 -2.717037e+01
        vertex 1.160000e+01 1.093474e+02 -2.704278e+01
    endloop
endfacet
facet normal -1.000000e+00 0.000000e+00 0.000000e+00
    outer loop
        vertex 1.160000e+01 1.080866e+02 -2.738060e+01
        vertex 1.160000e+01 1.087059e+02 -2.717037e+01
        vertex 1.160000e+01 1.082500e+02 -3.020000e+01
    endloop
endfacet
facet normal -1.000000e+00 0.000000e+00 0.000000e+00
    outer loop
        vertex 1.160000e+01 1.075000e+02 -2.766987e+01
        vertex 1.160000e+01 1.080866e+02 -2.738060e+01
        vertex 1.160000e+01 1.082500e+02 -3.020000e+01
    endloop
endfacet
facet normal -1.000000e+00 0.000000e+00 0.000000e+00
    outer loop
        vertex 1.160000e+01 1.069562e+02 -2.803323e+01
        vertex 1.160000e+01 1.075000e+02 -2.766987e+01
        vertex 1.160000e+01 1.082500e+02 -3.020000e+01
    endloop
endfacet
facet normal -1.000000e+00 0.000000e+00 0.000000e+00
    outer loop
        vertex 1.160000e+01 1.064645e+02 -2.846447e+01
        vertex 1.160000e+01 1.069562e+02 -2.803323e+01
        vertex 1.160000e+01 1.082500e+02 -3.020000e+01
    endloop
endfacet
facet normal -1.000000e+00 0.000000e+00 0.000000e+00
    outer loop
        vertex 1.160000e+01 1.064645e+02 -2.846447e+01
        vertex 1.160000e+01 1.082500e+02 -3.020000e+01
        vertex 1.160000e+01 1.082500e+02 -3.370000e+01
    endloop
endfacet
facet normal -1.000000e+00 0.000000e+00 0.000000e+00
    outer loop
        vertex 1.160000e+01 1.117500e+02 -3.370000e+01
        vertex 1.160000e+01 1.135355e+02 -2.846447e+01
        vertex 1.160000e+01 1.139668e+02 -2.895619e+01
    endloop
endfacet
facet normal -1.000000e+00 0.000000e+00 0.000000e+00
    outer loop
        vertex 1.160000e+01 1.060332e+02 -2.895619e+01
        vertex 1.160000e+01 1.064645e+02 -2.846447e+01
        vertex 1.160000e+01 1.082500e+02 -3.370000e+01
    endloop
endfacet
facet normal -1.000000e+00 0.000000e+00 0.000000e+00
    outer loop
        vertex 1.160000e+01 1.056699e+02 -2.950000e+01
        vertex 1.160000e+01 1.060332e+02 -2.895619e+01
        vertex 1.160000e+01 1.082500e+02 -3.370000e+01
    endloop
endfacet
facet normal -1.000000e+00 0.000000e+00 0.000000e+00
    outer loop
        vertex 1.160000e+01 1.053806e+02 -3.008658e+01
        vertex 1.160000e+01 1.056699e+02 -2.950000e+01
        vertex 1.160000e+01 1.082500e+02 -3.370000e+01
    endloop
endfacet
facet normal -1.000000e+00 0.000000e+00 0.000000e+00
    outer loop
        vertex 1.160000e+01 1.051704e+02 -3.070590e+01
        vertex 1.160000e+01 1.053806e+02 -3.008658e+01
        vertex 1.160000e+01 1.082500e+02 -3.370000e+01
    endloop
endfacet
facet normal -1.000000e+00 0.000000e+00 0.000000e+00
    outer loop
        vertex 1.160000e+01 1.050428e+02 -3.134737e+01
        vertex 1.160000e+01 1.051704e+02 -3.070590e+01
        vertex 1.160000e+01 1.082500e+02 -3.370000e+01
    endloop
endfacet
facet normal -1.000000e+00 0.000000e+00 0.000000e+00
    outer loop
        vertex 1.160000e+01 1.050000e+02 -3.200000e+01
        vertex 1.160000e+01 1.050428e+02 -3.134737e+01
        vertex 1.160000e+01 1.082500e+02 -3.370000e+01
    endloop
endfacet
facet normal -1.000000e+00 0.000000e+00 0.000000e+00
    outer loop
        vertex 1.160000e+01 1.050000e+02 -3.200000e+01
        vertex 1.160000e+01 1.082500e+02 -3.370000e+01
        vertex 1.160000e+01 1.050428e+02 -3.265263e+01
    endloop
endfacet
facet normal -1.000000e+00 0.000000e+00 0.000000e+00
    outer loop
        vertex 1.160000e+01 1.050428e+02 -3.265263e+01
        vertex 1.160000e+01 1.082500e+02 -3.370000e+01
        vertex 1.160000e+01 1.051704e+02 -3.329410e+01
    endloop
endfacet
facet normal -1.000000e+00 0.000000e+00 0.000000e+00
    outer loop
        vertex 1.160000e+01 1.051704e+02 -3.329410e+01
        vertex 1.160000e+01 1.082500e+02 -3.370000e+01
        vertex 1.160000e+01 1.053806e+02 -3.391342e+01
    endloop
endfacet
facet normal -1.000000e+00 0.000000e+00 0.000000e+00
    outer loop
        vertex 1.160000e+01 1.053806e+02 -3.391342e+01
        vertex 1.160000e+01 1.082500e+02 -3.370000e+01
        vertex 1.160000e+01 1.056699e+02 -3.450000e+01
    endloop
endfacet
facet normal -1.000000e+00 0.000000e+00 0.000000e+00
    outer loop
        vertex 1.160000e+01 1.056699e+02 -3.450000e+01
        vertex 1.160000e+01 1.082500e+02 -3.370000e+01
        vertex 1.160000e+01 1.060332e+02 -3.504381e+01
    endloop
endfacet
facet normal -1.000000e+00 0.000000e+00 0.000000e+00
    outer loop
        vertex 1.160000e+01 1.060332e+02 -3.504381e+01
        vertex 1.160000e+01 1.082500e+02 -3.370000e+01
        vertex 1.160000e+01 1.064645e+02 -3.553553e+01
    endloop
endfacet
facet normal -1.000000e+00 0.000000e+00 0.000000e+00
    outer loop
        vertex 1.160000e+01 1.064645e+02 -3.553553e+01
        vertex 1.160000e+01 1.082500e+02 -3.370000e+01
        vertex 1.160000e+01 1.117500e+02 -3.370000e+01
    endloop
endfacet
facet normal -1.000000e+00 0.000000e+00 0.000000e+00
    outer loop
        vertex 1.160000e+01 1.064645e+02 -3.553553e+01
        vertex 1.160000e+01 1.117500e+02 -3.370000e+01
        vertex 1.160000e+01 1.069562e+02 -3.596677e+01
    endloop
endfacet
facet normal -1.000000e+00 0.000000e+00 0.000000e+00
    outer loop
        vertex 1.160000e+01 1.069562e+02 -3.596677e+01
        vertex 1.160000e+01 1.117500e+02 -3.370000e+01
        vertex 1.160000e+01 1.075000e+02 -3.633013e+01
    endloop
endfacet
facet normal -1.000000e+00 0.000000e+00 0.000000e+00
    outer loop
        vertex 1.160000e+01 1.075000e+02 -3.633013e+01
        vertex 1.160000e+01 1.117500e+02 -3.370000e+01
        vertex 1.160000e+01 1.080866e+02 -3.661940e+01
    endloop
endfacet
facet normal -1.000000e+00 0.000000e+00 0.000000e+00
    outer loop
        vertex 1.160000e+01 1.080866e+02 -3.661940e+01
        vertex 1.160000e+01 1.117500e+02 -3.370000e+01
        vertex 1.160000e+01 1.087059e+02 -3.682963e+01
    endloop
endfacet
facet normal -1.000000e+00 0.000000e+00 0.000000e+00
    outer loop
        vertex 1.160000e+01 1.087059e+02 -3.682963e+01
        vertex 1.160000e+01 1.117500e+02 -3.370000e+01
        vertex 1.160000e+01 1.093474e+02 -3.695723e+01
    endloop
endfacet
facet normal -1.000000e+00 0.000000e+00 0.000000e+00
    outer loop
        vertex 1.160000e+01 1.093474e+02 -3.695723e+01
        vertex 1.160000e+01 1.117500e+02 -3.370000e+01
        vertex 1.160000e+01 1.100000e+02 -3.700000e+01
    endloop
endfacet
facet normal -1.000000e+00 0.000000e+00 0.000000e+00
    outer loop
        vertex 1.160000e+01 1.100000e+02 -3.700000e+01
        vertex 1.160000e+01 1.117500e+02 -3.370000e+01
        vertex 1.160000e+01 1.106526e+02 -3.695723e+01
    endloop
endfacet
facet normal -1.000000e+00 0.000000e+00 0.000000e+00
    outer loop
        vertex 1.160000e+01 1.106526e+02 -3.695723e+01
        vertex 1.160000e+01 1.117500e+02 -3.370000e+01
        vertex 1.160000e+01 1.112941e+02 -3.682963e+01
    endloop
endfacet
facet normal -1.000000e+00 0.000000e+00 0.000000e+00
    outer loop
        vertex 1.160000e+01 1.112941e+02 -3.682963e+01
        vertex 1.160000e+01 1.117500e+02 -3.370000e+01
        vertex 1.160000e+01 1.119134e+02 -3.661940e+01
    endloop
endfacet
facet normal -1.000000e+00 0.000000e+00 0.000000e+00
    outer loop
        vertex 1.160000e+01 1.117500e+02 -3.370000e+01
        vertex 1.160000e+01 1.125000e+02 -3.633013e+01
        vertex 1.160000e+01 1.119134e+02 -3.661940e+01
    endloop
endfacet
facet normal -1.000000e+00 0.000000e+00 0.000000e+00
    outer loop
        vertex 1.160000e+01 1.117500e+02 -3.370000e+01
        vertex 1.160000e+01 1.130438e+02 -3.596677e+01
        vertex 1.160000e+01 1.125000e+02 -3.633013e+01
    endloop
endfacet
facet normal -1.000000e+00 0.000000e+00 0.000000e+00
    outer loop
        vertex 1.160000e+01 1.117500e+02 -3.370000e+01
        vertex 1.160000e+01 1.139668e+02 -2.895619e+01
        vertex 1.160000e+01 1.130438e+02 -3.596677e+01
    endloop
endfacet
facet normal -1.000000e+00 0.000000e+00 0.000000e+00
    outer loop
        vertex 1.160000e+01 1.310530e+02 -2.990697e+01
        vertex 1.160000e+01 1.315234e+02 -3.052000e+01
        vertex 1.160000e+01 1.318191e+02 -3.123390e+01
    endloop
endfacet
facet normal -1.000000e+00 0.000000e+00 0.000000e+00
    outer loop
        vertex 1.160000e+01 1.304400e+02 -2.943657e+01
        vertex 1.160000e+01 1.310530e+02 -2.990697e+01
        vertex 1.160000e+01 1.318191e+02 -3.123390e+01
    endloop
endfacet
facet normal -1.000000e+00 0.000000e+00 0.000000e+00
    outer loop
        vertex 1.160000e+01 1.297261e+02 -2.914086e+01
        vertex 1.160000e+01 1.304400e+02 -2.943657e+01
        vertex 1.160000e+01 1.318191e+02 -3.123390e+01
    endloop
endfacet
facet normal -1.000000e+00 0.000000e+00 0.000000e+00
    outer loop
        vertex 1.160000e+01 1.297261e+02 -2.914086e+01
        vertex 1.160000e+01 1.318191e+02 -3.123390e+01
        vertex 1.160000e+01 1.319200e+02 -3.200000e+01
    endloop
endfacet
facet normal -1.000000e+00 0.000000e+00 0.000000e+00
    outer loop
        vertex 1.160000e+01 1.297261e+02 -2.914086e+01
        vertex 1.160000e+01 1.319200e+02 -3.200000e+01
        vertex 1.160000e+01 1.318191e+02 -3.276611e+01
    endloop
endfacet
facet normal -1.000000e+00 0.000000e+00 0.000000e+00
    outer loop
        vertex 1.160000e+01 1.289600e+02 -2.904000e+01
        vertex 1.160000e+01 1.297261e+02 -2.914086e+01
        vertex 1.160000e+01 1.318191e+02 -3.276611e+01
    endloop
endfacet
facet normal -1.000000e+00 0.000000e+00 0.000000e+00
    outer loop
        vertex 1.160000e+01 1.150400e+02 -2.904000e+01
        vertex 1.160000e+01 1.289600e+02 -2.904000e+01
        vertex 1.160000e+01 1.318191e+02 -3.276611e+01
    endloop
endfacet
facet normal -1.000000e+00 0.000000e+00 0.000000e+00
    outer loop
        vertex 1.160000e+01 1.289600e+02 -3.496000e+01
        vertex 1.160000e+01 1.304400e+02 -3.456343e+01
        vertex 1.160000e+01 1.297261e+02 -3.485914e+01
    endloop
endfacet
facet normal -1.000000e+00 0.000000e+00 0.000000e+00
    outer loop
        vertex 1.160000e+01 1.289600e+02 -3.496000e+01
        vertex 1.160000e+01 1.310530e+02 -3.409304e+01
        vertex 1.160000e+01 1.304400e+02 -3.456343e+01
    endloop
endfacet
facet normal -1.000000e+00 0.000000e+00 0.000000e+00
    outer loop
        vertex 1.160000e+01 1.289600e+02 -3.496000e+01
        vertex 1.160000e+01 1.315234e+02 -3.348000e+01
        vertex 1.160000e+01 1.310530e+02 -3.409304e+01
    endloop
endfacet
facet normal -1.000000e+00 0.000000e+00 0.000000e+00
    outer loop
        vertex 1.160000e+01 1.289600e+02 -3.496000e+01
        vertex 1.160000e+01 1.318191e+02 -3.276611e+01
        vertex 1.160000e+01 1.315234e+02 -3.348000e+01
    endloop
endfacet
facet normal -1.000000e+00 0.000000e+00 0.000000e+00
    outer loop
        vertex 1.160000e+01 1.150400e+02 -2.904000e+01
        vertex 1.160000e+01 1.318191e+02 -3.276611e+01
        vertex 1.160000e+01 1.289600e+02 -3.496000e+01
    endloop
endfacet
facet normal -1.000000e+00 0.000000e+00 0.000000e+00
    outer loop
        vertex 1.160000e+01 1.150400e+02 -3.496000e+01
        vertex 1.160000e+01 1.150400e+02 -2.904000e+01
        vertex 1.160000e+01 1.289600e+02 -3.496000e+01
    endloop
endfacet
facet normal -1.000000e+00 0.000000e+00 0.000000e+00
    outer loop
        vertex 1.160000e+01 1.142739e+02 -2.914086e+01
        vertex 1.160000e+01 1.150400e+02 -2.904000e+01
        vertex 1.160000e+01 1.150400e+02 -3.496000e+01
    endloop
endfacet
facet normal -1.000000e+00 0.000000e+00 0.000000e+00
    outer loop
        vertex 1.160000e+01 1.142739e+02 -3.485914e+01
        vertex 1.160000e+01 1.142739e+02 -2.914086e+01
        vertex 1.160000e+01 1.150400e+02 -3.496000e+01
    endloop
endfacet
facet normal -1.000000e+00 0.000000e+00 0.000000e+00
    outer loop
        vertex 1.160000e+01 1.130438e+02 -3.596677e+01
        vertex 1.160000e+01 1.139668e+02 -2.895619e+01
        vertex 1.160000e+01 1.135355e+02 -3.553553e+01
    endloop
endfacet
facet normal -1.000000e+00 0.000000e+00 0.000000e+00
    outer loop
        vertex 1.160000e+01 1.135355e+02 -3.553553e+01
        vertex 1.160000e+01 1.139668e+02 -2.895619e+01
        vertex 1.160000e+01 1.139668e+02 -3.504381e+01
    endloop
endfacet
facet normal -1.000000e+00 0.000000e+00 0.000000e+00
    outer loop
        vertex 1.160000e+01 1.139668e+02 -3.504381e+01
        vertex 1.160000e+01 1.139668e+02 -2.895619e+01
        vertex 1.160000e+01 1.141300e+02 -2.920047e+01
    endloop
endfacet
facet normal -1.000000e+00 0.000000e+00 0.000000e+00
    outer loop
        vertex 1.160000e+01 1.141300e+02 -2.920047e+01
        vertex 1.160000e+01 1.142739e+02 -2.914086e+01
        vertex 1.160000e+01 1.142739e+02 -3.485914e+01
    endloop
endfacet
facet normal -1.000000e+00 0.000000e+00 0.000000e+00
    outer loop
        vertex 1.160000e+01 1.141300e+02 -3.479953e+01
        vertex 1.160000e+01 1.141300e+02 -2.920047e+01
        vertex 1.160000e+01 1.142739e+02 -3.485914e+01
    endloop
endfacet
facet normal -1.000000e+00 0.000000e+00 0.000000e+00
    outer loop
        vertex 1.160000e+01 1.139668e+02 -3.504381e+01
        vertex 1.160000e+01 1.141300e+02 -2.920047e+01
        vertex 1.160000e+01 1.141300e+02 -3.479953e+01
    endloop
endfacet
facet normal 0.000000e+00 -0.000000e+00 1.000000e+00
    outer loop
        vertex 1.470000e+01 1.082500e+02 -3.370000e+01
        vertex 1.470000e+01 1.117500e+02 -3.370000e+01
        vertex 1.160000e+01 1.117500e+02 -3.370000e+01
    endloop
endfacet
facet normal 0.000000e+00 0.000000e+00 1.000000e+00
    outer loop
        vertex 1.160000e+01 1.082500e+02 -3.370000e+01
        vertex 1.470000e+01 1.082500e+02 -3.370000e+01
        vertex 1.160000e+01 1.117500e+02 -3.370000e+01
    endloop
endfacet
facet normal 0.000000e+00 -1.000000e+00 0.000000e+00
    outer loop
        vertex 1.470000e+01 1.117500e+02 -3.370000e+01
        vertex 1.470000e+01 1.117500e+02 -3.020000e+01
        vertex 1.160000e+01 1.117500e+02 -3.020000e+01
    endloop
endfacet
facet normal 0.000000e+00 -1.000000e+00 0.000000e+00
    outer loop
        vertex 1.160000e+01 1.117500e+02 -3.370000e+01
        vertex 1.470000e+01 1.117500e+02 -3.370000e+01
        vertex 1.160000e+01 1.117500e+02 -3.020000e+01
    endloop
endfacet
facet normal 0.000000e+00 0.000000e+00 -1.000000e+00
    outer loop
        vertex 1.160000e+01 1.082500e+02 -3.020000e+01
        vertex 1.470000e+01 1.117500e+02 -3.020000e+01
        vertex 1.470000e+01 1.082500e+02 -3.020000e+01
    endloop
endfacet
facet normal 0.000000e+00 0.000000e+00 -1.000000e+00
    outer loop
        vertex 1.160000e+01 1.082500e+02 -3.020000e+01
        vertex 1.160000e+01 1.117500e+02 -3.020000e+01
        vertex 1.470000e+01 1.117500e+02 -3.020000e+01
    endloop
endfacet
facet normal 0.000000e+00 1.000000e+00 0.000000e+00
    outer loop
        vertex 1.160000e+01 1.082500e+02 -3.370000e+01
        vertex 1.470000e+01 1.082500e+02 -3.020000e+01
        vertex 1.470000e+01 1.082500e+02 -3.370000e+01
    endloop
endfacet
facet normal 0.000000e+00 1.000000e+00 0.000000e+00
    outer loop
        vertex 1.160000e+01 1.082500e+02 -3.370000e+01
        vertex 1.160000e+01 1.082500e+02 -3.020000e+01
        vertex 1.470000e+01 1.082500e+02 -3.020000e+01
    endloop
endfacet
endsolid selector.stl
