solid trigger-pin.stl
facet normal -1.000000e+00 0.000000e+00 0.000000e+00
    outer loop
        vertex -8.000000e+00 8.089777e+01 -3.677646e+01
        vertex -8.000000e+00 8.089777e+01 -3.522354e+01
        vertex -8.000000e+00 8.100000e+01 -3.600000e+01
    endloop
endfacet
facet normal -1.000000e+00 0.000000e+00 0.000000e+00
    outer loop
        vertex -8.000000e+00 8.059808e+01 -3.750000e+01
        vertex -8.000000e+00 8.089777e+01 -3.522354e+01
        vertex -8.000000e+00 8.089777e+01 -3.677646e+01
    endloop
endfacet
facet normal -1.000000e+00 0.000000e+00 0.000000e+00
    outer loop
        vertex -8.000000e+00 8.012132e+01 -3.812132e+01
        vertex -8.000000e+00 8.089777e+01 -3.522354e+01
        vertex -8.000000e+00 8.059808e+01 -3.750000e+01
    endloop
endfacet
facet normal -1.000000e+00 0.000000e+00 0.000000e+00
    outer loop
        vertex -8.000000e+00 7.950000e+01 -3.859808e+01
        vertex -8.000000e+00 8.089777e+01 -3.522354e+01
        vertex -8.000000e+00 8.012132e+01 -3.812132e+01
    endloop
endfacet
facet normal -1.000000e+00 0.000000e+00 0.000000e+00
    outer loop
        vertex -8.000000e+00 7.877646e+01 -3.889778e+01
        vertex -8.000000e+00 8.089777e+01 -3.522354e+01
        vertex -8.000000e+00 7.950000e+01 -3.859808e+01
    endloop
endfacet
facet normal -1.000000e+00 0.000000e+00 0.000000e+00
    outer loop
        vertex -8.000000e+00 7.800000e+01 -3.900000e+01
        vertex -8.000000e+00 8.089777e+01 -3.522354e+01
        vertex -8.000000e+00 7.877646e+01 -3.889778e+01
    endloop
endfacet
facet normal -1.000000e+00 0.000000e+00 0.000000e+00
    outer loop
        vertex -8.000000e+00 7.722354e+01 -3.889778e+01
        vertex -8.000000e+00 8.089777e+01 -3.522354e+01
        vertex -8.000000e+00 7.800000e+01 -3.900000e+01
    endloop
endfacet
facet normal -1.000000e+00 0.000000e+00 0.000000e+00
    outer loop
        vertex -8.000000e+00 7.650000e+01 -3.859808e+01
        vertex -8.000000e+00 8.089777e+01 -3.522354e+01
        vertex -8.000000e+00 7.722354e+01 -3.889778e+01
    endloop
endfacet
facet normal -1.000000e+00 0.000000e+00 0.000000e+00
    outer loop
        vertex -8.000000e+00 7.587868e+01 -3.812132e+01
        vertex -8.000000e+00 8.089777e+01 -3.522354e+01
        vertex -8.000000e+00 7.650000e+01 -3.859808e+01
    endloop
endfacet
facet normal -1.000000e+00 0.000000e+00 0.000000e+00
    outer loop
        vertex -8.000000e+00 7.540192e+01 -3.750000e+01
        vertex -8.000000e+00 8.089777e+01 -3.522354e+01
        vertex -8.000000e+00 7.587868e+01 -3.812132e+01
    endloop
endfacet
facet normal -1.000000e+00 0.000000e+00 0.000000e+00
    outer loop
        vertex -8.000000e+00 7.510223e+01 -3.677646e+01
        vertex -8.000000e+00 8.089777e+01 -3.522354e+01
        vertex -8.000000e+00 7.540192e+01 -3.750000e+01
    endloop
endfacet
facet normal -1.000000e+00 0.000000e+00 0.000000e+00
    outer loop
        vertex -8.000000e+00 7.500000e+01 -3.600000e+01
        vertex -8.000000e+00 8.089777e+01 -3.522354e+01
        vertex -8.000000e+00 7.510223e+01 -3.677646e+01
    endloop
endfacet
facet normal -1.000000e+00 0.000000e+00 0.000000e+00
    outer loop
        vertex -8.000000e+00 7.500000e+01 -3.600000e+01
        vertex -8.000000e+00 7.510223e+01 -3.522354e+01
        vertex -8.000000e+00 8.089777e+01 -3.522354e+01
    endloop
endfacet
facet normal -1.000000e+00 0.000000e+00 0.000000e+00
    outer loop
        vertex -8.000000e+00 7.510223e+01 -3.522354e+01
        vertex -8.000000e+00 7.540192e+01 -3.450000e+01
        vertex -8.000000e+00 8.089777e+01 -3.522354e+01
    endloop
endfacet
facet normal -1.000000e+00 0.000000e+00 0.000000e+00
    outer loop
        vertex -8.000000e+00 7.540192e+01 -3.450000e+01
        vertex -8.000000e+00 8.059808e+01 -3.450000e+01
        vertex -8.000000e+00 8.089777e+01 -3.522354e+01
    endloop
endfacet
facet normal -1.000000e+00 0.000000e+00 0.000000e+00
    outer loop
        vertex -8.000000e+00 7.540192e+01 -3.450000e+01
        vertex -8.000000e+00 7.587868e+01 -3.387868e+01
        vertex -8.000000e+00 8.059808e+01 -3.450000e+01
    endloop
endfacet
facet normal -1.000000e+00 0.000000e+00 0.000000e+00
    outer loop
        vertex -8.000000e+00 7.587868e+01 -3.387868e+01
        vertex -8.000000e+00 7.650000e+01 -3.340192e+01
        vertex -8.000000e+00 8.059808e+01 -3.450000e+01
    endloop
endfacet
facet normal -1.000000e+00 0.000000e+00 0.000000e+00
    outer loop
        vertex -8.000000e+00 7.650000e+01 -3.340192e+01
        vertex -8.000000e+00 7.722354e+01 -3.310222e+01
        vertex -8.000000e+00 8.059808e+01 -3.450000e+01
    endloop
endfacet
facet normal -1.000000e+00 0.000000e+00 0.000000e+00
    outer loop
        vertex -8.000000e+00 7.722354e+01 -3.310222e+01
        vertex -8.000000e+00 7.800000e+01 -3.300000e+01
        vertex -8.000000e+00 8.059808e+01 -3.450000e+01
    endloop
endfacet
facet normal -1.000000e+00 0.000000e+00 0.000000e+00
    outer loop
        vertex -8.000000e+00 7.800000e+01 -3.300000e+01
        vertex -8.000000e+00 8.012132e+01 -3.387868e+01
        vertex -8.000000e+00 8.059808e+01 -3.450000e+01
    endloop
endfacet
facet normal -1.000000e+00 0.000000e+00 0.000000e+00
    outer loop
        vertex -8.000000e+00 7.800000e+01 -3.300000e+01
        vertex -8.000000e+00 7.877646e+01 -3.310222e+01
        vertex -8.000000e+00 7.950000e+01 -3.340192e+01
    endloop
endfacet
facet normal -1.000000e+00 0.000000e+00 0.000000e+00
    outer loop
        vertex -8.000000e+00 7.800000e+01 -3.300000e+01
        vertex -8.000000e+00 7.950000e+01 -3.340192e+01
        vertex -8.000000e+00 8.012132e+01 -3.387868e+01
    endloop
endfacet
facet normal 0.000000e+00 9.914443e-01 1.305306e-01
    outer loop
        vertex 8.000000e+00 8.089777e+01 -3.522354e+01
        vertex 8.000000e+00 8.100000e+01 -3.600000e+01
        vertex -8.000000e+00 8.100000e+01 -3.600000e+01
    endloop
endfacet
facet normal -0.000000e+00 9.914443e-01 1.305306e-01
    outer loop
        vertex -8.000000e+00 8.089777e+01 -3.522354e+01
        vertex 8.000000e+00 8.089777e+01 -3.522354e+01
        vertex -8.000000e+00 8.100000e+01 -3.600000e+01
    endloop
endfacet
facet normal 0.000000e+00 9.238808e-01 3.826804e-01
    outer loop
        vertex 8.000000e+00 8.059808e+01 -3.450000e+01
        vertex 8.000000e+00 8.089777e+01 -3.522354e+01
        vertex -8.000000e+00 8.089777e+01 -3.522354e+01
    endloop
endfacet
facet normal -0.000000e+00 9.238808e-01 3.826804e-01
    outer loop
        vertex -8.000000e+00 8.059808e+01 -3.450000e+01
        vertex 8.000000e+00 8.059808e+01 -3.450000e+01
        vertex -8.000000e+00 8.089777e+01 -3.522354e+01
    endloop
endfacet
facet normal 0.000000e+00 7.933542e-01 6.087602e-01
    outer loop
        vertex 8.000000e+00 8.012132e+01 -3.387868e+01
        vertex 8.000000e+00 8.059808e+01 -3.450000e+01
        vertex -8.000000e+00 8.059808e+01 -3.450000e+01
    endloop
endfacet
facet normal -0.000000e+00 7.933542e-01 6.087602e-01
    outer loop
        vertex -8.000000e+00 8.012132e+01 -3.387868e+01
        vertex 8.000000e+00 8.012132e+01 -3.387868e+01
        vertex -8.000000e+00 8.059808e+01 -3.450000e+01
    endloop
endfacet
facet normal 0.000000e+00 6.087610e-01 7.933537e-01
    outer loop
        vertex 8.000000e+00 7.950000e+01 -3.340192e+01
        vertex 8.000000e+00 8.012132e+01 -3.387868e+01
        vertex -8.000000e+00 8.012132e+01 -3.387868e+01
    endloop
endfacet
facet normal -0.000000e+00 6.087610e-01 7.933537e-01
    outer loop
        vertex -8.000000e+00 7.950000e+01 -3.340192e+01
        vertex 8.000000e+00 7.950000e+01 -3.340192e+01
        vertex -8.000000e+00 8.012132e+01 -3.387868e+01
    endloop
endfacet
facet normal 0.000000e+00 3.826846e-01 9.238790e-01
    outer loop
        vertex 8.000000e+00 7.877646e+01 -3.310222e+01
        vertex 8.000000e+00 7.950000e+01 -3.340192e+01
        vertex -8.000000e+00 7.950000e+01 -3.340192e+01
    endloop
endfacet
facet normal -0.000000e+00 3.826846e-01 9.238790e-01
    outer loop
        vertex -8.000000e+00 7.877646e+01 -3.310222e+01
        vertex 8.000000e+00 7.877646e+01 -3.310222e+01
        vertex -8.000000e+00 7.950000e+01 -3.340192e+01
    endloop
endfacet
facet normal 0.000000e+00 1.305258e-01 9.914449e-01
    outer loop
        vertex 8.000000e+00 7.800000e+01 -3.300000e+01
        vertex 8.000000e+00 7.877646e+01 -3.310222e+01
        vertex -8.000000e+00 7.877646e+01 -3.310222e+01
    endloop
endfacet
facet normal -0.000000e+00 1.305258e-01 9.914449e-01
    outer loop
        vertex -8.000000e+00 7.800000e+01 -3.300000e+01
        vertex 8.000000e+00 7.800000e+01 -3.300000e+01
        vertex -8.000000e+00 7.877646e+01 -3.310222e+01
    endloop
endfacet
facet normal 0.000000e+00 -1.305258e-01 9.914449e-01
    outer loop
        vertex -8.000000e+00 7.722354e+01 -3.310222e+01
        vertex 8.000000e+00 7.722354e+01 -3.310222e+01
        vertex 8.000000e+00 7.800000e+01 -3.300000e+01
    endloop
endfacet
facet normal 0.000000e+00 -1.305258e-01 9.914449e-01
    outer loop
        vertex -8.000000e+00 7.722354e+01 -3.310222e+01
        vertex 8.000000e+00 7.800000e+01 -3.300000e+01
        vertex -8.000000e+00 7.800000e+01 -3.300000e+01
    endloop
endfacet
facet normal 0.000000e+00 -3.826846e-01 9.238790e-01
    outer loop
        vertex -8.000000e+00 7.650000e+01 -3.340192e+01
        vertex 8.000000e+00 7.650000e+01 -3.340192e+01
        vertex 8.000000e+00 7.722354e+01 -3.310222e+01
    endloop
endfacet
facet normal 0.000000e+00 -3.826846e-01 9.238790e-01
    outer loop
        vertex -8.000000e+00 7.650000e+01 -3.340192e+01
        vertex 8.000000e+00 7.722354e+01 -3.310222e+01
        vertex -8.000000e+00 7.722354e+01 -3.310222e+01
    endloop
endfacet
facet normal 0.000000e+00 -6.087610e-01 7.933537e-01
    outer loop
        vertex -8.000000e+00 7.587868e+01 -3.387868e+01
        vertex 8.000000e+00 7.587868e+01 -3.387868e+01
        vertex 8.000000e+00 7.650000e+01 -3.340192e+01
    endloop
endfacet
facet normal 0.000000e+00 -6.087610e-01 7.933537e-01
    outer loop
        vertex -8.000000e+00 7.587868e+01 -3.387868e+01
        vertex 8.000000e+00 7.650000e+01 -3.340192e+01
        vertex -8.000000e+00 7.650000e+01 -3.340192e+01
    endloop
endfacet
facet normal 0.000000e+00 -7.933542e-01 6.087602e-01
    outer loop
        vertex -8.000000e+00 7.540192e+01 -3.450000e+01
        vertex 8.000000e+00 7.540192e+01 -3.450000e+01
        vertex 8.000000e+00 7.587868e+01 -3.387868e+01
    endloop
endfacet
facet normal 0.000000e+00 -7.933542e-01 6.087602e-01
    outer loop
        vertex -8.000000e+00 7.540192e+01 -3.450000e+01
        vertex 8.000000e+00 7.587868e+01 -3.387868e+01
        vertex -8.000000e+00 7.587868e+01 -3.387868e+01
    endloop
endfacet
facet normal 0.000000e+00 -9.238808e-01 3.826804e-01
    outer loop
        vertex -8.000000e+00 7.510223e+01 -3.522354e+01
        vertex 8.000000e+00 7.510223e+01 -3.522354e+01
        vertex 8.000000e+00 7.540192e+01 -3.450000e+01
    endloop
endfacet
facet normal 0.000000e+00 -9.238808e-01 3.826804e-01
    outer loop
        vertex -8.000000e+00 7.510223e+01 -3.522354e+01
        vertex 8.000000e+00 7.540192e+01 -3.450000e+01
        vertex -8.000000e+00 7.540192e+01 -3.450000e+01
    endloop
endfacet
facet normal 0.000000e+00 -9.914443e-01 1.305306e-01
    outer loop
        vertex -8.000000e+00 7.500000e+01 -3.600000e+01
        vertex 8.000000e+00 7.500000e+01 -3.600000e+01
        vertex 8.000000e+00 7.510223e+01 -3.522354e+01
    endloop
endfacet
facet normal 0.000000e+00 -9.914443e-01 1.305306e-01
    outer loop
        vertex -8.000000e+00 7.500000e+01 -3.600000e+01
        vertex 8.000000e+00 7.510223e+01 -3.522354e+01
        vertex -8.000000e+00 7.510223e+01 -3.522354e+01
    endloop
endfacet
facet normal 0.000000e+00 -9.914443e-01 -1.305306e-01
    outer loop
        vertex 8.000000e+00 7.500000e+01 -3.600000e+01
        vertex -8.000000e+00 7.510223e+01 -3.677646e+01
        vertex 8.000000e+00 7.510223e+01 -3.677646e+01
    endloop
endfacet
facet normal -0.000000e+00 -9.914443e-01 -1.305306e-01
    outer loop
        vertex 8.000000e+00 7.500000e+01 -3.600000e+01
        vertex -8.000000e+00 7.500000e+01 -3.600000e+01
        vertex -8.000000e+00 7.510223e+01 -3.677646e+01
    endloop
endfacet
facet normal 0.000000e+00 -9.238808e-01 -3.826804e-01
    outer loop
        vertex 8.000000e+00 7.510223e+01 -3.677646e+01
        vertex -8.000000e+00 7.540192e+01 -3.750000e+01
        vertex 8.000000e+00 7.540192e+01 -3.750000e+01
    endloop
endfacet
facet normal -0.000000e+00 -9.238808e-01 -3.826804e-01
    outer loop
        vertex 8.000000e+00 7.510223e+01 -3.677646e+01
        vertex -8.000000e+00 7.510223e+01 -3.677646e+01
        vertex -8.000000e+00 7.540192e+01 -3.750000e+01
    endloop
endfacet
facet normal 0.000000e+00 -7.933542e-01 -6.087602e-01
    outer loop
        vertex 8.000000e+00 7.540192e+01 -3.750000e+01
        vertex -8.000000e+00 7.587868e+01 -3.812132e+01
        vertex 8.000000e+00 7.587868e+01 -3.812132e+01
    endloop
endfacet
facet normal -0.000000e+00 -7.933542e-01 -6.087602e-01
    outer loop
        vertex 8.000000e+00 7.540192e+01 -3.750000e+01
        vertex -8.000000e+00 7.540192e+01 -3.750000e+01
        vertex -8.000000e+00 7.587868e+01 -3.812132e+01
    endloop
endfacet
facet normal 0.000000e+00 -6.087610e-01 -7.933537e-01
    outer loop
        vertex 8.000000e+00 7.587868e+01 -3.812132e+01
        vertex -8.000000e+00 7.650000e+01 -3.859808e+01
        vertex 8.000000e+00 7.650000e+01 -3.859808e+01
    endloop
endfacet
facet normal -0.000000e+00 -6.087610e-01 -7.933537e-01
    outer loop
        vertex 8.000000e+00 7.587868e+01 -3.812132e+01
        vertex -8.000000e+00 7.587868e+01 -3.812132e+01
        vertex -8.000000e+00 7.650000e+01 -3.859808e+01
    endloop
endfacet
facet normal 0.000000e+00 -3.826846e-01 -9.238790e-01
    outer loop
        vertex 8.000000e+00 7.650000e+01 -3.859808e+01
        vertex -8.000000e+00 7.722354e+01 -3.889778e+01
        vertex 8.000000e+00 7.722354e+01 -3.889778e+01
    endloop
endfacet
facet normal -0.000000e+00 -3.826846e-01 -9.238790e-01
    outer loop
        vertex 8.000000e+00 7.650000e+01 -3.859808e+01
        vertex -8.000000e+00 7.650000e+01 -3.859808e+01
        vertex -8.000000e+00 7.722354e+01 -3.889778e+01
    endloop
endfacet
facet normal 0.000000e+00 -1.305258e-01 -9.914449e-01
    outer loop
        vertex 8.000000e+00 7.722354e+01 -3.889778e+01
        vertex -8.000000e+00 7.800000e+01 -3.900000e+01
        vertex 8.000000e+00 7.800000e+01 -3.900000e+01
    endloop
endfacet
facet normal -0.000000e+00 -1.305258e-01 -9.914449e-01
    outer loop
        vertex 8.000000e+00 7.722354e+01 -3.889778e+01
        vertex -8.000000e+00 7.722354e+01 -3.889778e+01
        vertex -8.000000e+00 7.800000e+01 -3.900000e+01
    endloop
endfacet
facet normal 0.000000e+00 1.305258e-01 -9.914449e-01
    outer loop
        vertex 8.000000e+00 7.800000e+01 -3.900000e+01
        vertex -8.000000e+00 7.800000e+01 -3.900000e+01
        vertex 8.000000e+00 7.877646e+01 -3.889778e+01
    endloop
endfacet
facet normal 0.000000e+00 1.305258e-01 -9.914449e-01
    outer loop
        vertex -8.000000e+00 7.800000e+01 -3.900000e+01
        vertex -8.000000e+00 7.877646e+01 -3.889778e+01
        vertex 8.000000e+00 7.877646e+01 -3.889778e+01
    endloop
endfacet
facet normal 0.000000e+00 3.826846e-01 -9.238790e-01
    outer loop
        vertex 8.000000e+00 7.877646e+01 -3.889778e+01
        vertex -8.000000e+00 7.877646e+01 -3.889778e+01
        vertex 8.000000e+00 7.950000e+01 -3.859808e+01
    endloop
endfacet
facet normal 0.000000e+00 3.826846e-01 -9.238790e-01
    outer loop
        vertex -8.000000e+00 7.877646e+01 -3.889778e+01
        vertex -8.000000e+00 7.950000e+01 -3.859808e+01
        vertex 8.000000e+00 7.950000e+01 -3.859808e+01
    endloop
endfacet
facet normal 0.000000e+00 6.087610e-01 -7.933537e-01
    outer loop
        vertex 8.000000e+00 7.950000e+01 -3.859808e+01
        vertex -8.000000e+00 7.950000e+01 -3.859808e+01
        vertex 8.000000e+00 8.012132e+01 -3.812132e+01
    endloop
endfacet
facet normal 0.000000e+00 6.087610e-01 -7.933537e-01
    outer loop
        vertex -8.000000e+00 7.950000e+01 -3.859808e+01
        vertex -8.000000e+00 8.012132e+01 -3.812132e+01
        vertex 8.000000e+00 8.012132e+01 -3.812132e+01
    endloop
endfacet
facet normal 0.000000e+00 7.933542e-01 -6.087602e-01
    outer loop
        vertex 8.000000e+00 8.012132e+01 -3.812132e+01
        vertex -8.000000e+00 8.012132e+01 -3.812132e+01
        vertex 8.000000e+00 8.059808e+01 -3.750000e+01
    endloop
endfacet
facet normal 0.000000e+00 7.933542e-01 -6.087602e-01
    outer loop
        vertex -8.000000e+00 8.012132e+01 -3.812132e+01
        vertex -8.000000e+00 8.059808e+01 -3.750000e+01
        vertex 8.000000e+00 8.059808e+01 -3.750000e+01
    endloop
endfacet
facet normal 0.000000e+00 9.238808e-01 -3.826804e-01
    outer loop
        vertex 8.000000e+00 8.059808e+01 -3.750000e+01
        vertex -8.000000e+00 8.059808e+01 -3.750000e+01
        vertex 8.000000e+00 8.089777e+01 -3.677646e+01
    endloop
endfacet
facet normal 0.000000e+00 9.238808e-01 -3.826804e-01
    outer loop
        vertex -8.000000e+00 8.059808e+01 -3.750000e+01
        vertex -8.000000e+00 8.089777e+01 -3.677646e+01
        vertex 8.000000e+00 8.089777e+01 -3.677646e+01
    endloop
endfacet
facet normal 0.000000e+00 9.914443e-01 -1.305306e-01
    outer loop
        vertex 8.000000e+00 8.089777e+01 -3.677646e+01
        vertex -8.000000e+00 8.089777e+01 -3.677646e+01
        vertex 8.000000e+00 8.100000e+01 -3.600000e+01
    endloop
endfacet
facet normal 0.000000e+00 9.914443e-01 -1.305306e-01
    outer loop
        vertex -8.000000e+00 8.089777e+01 -3.677646e+01
        vertex -8.000000e+00 8.100000e+01 -3.600000e+01
        vertex 8.000000e+00 8.100000e+01 -3.600000e+01
    endloop
endfacet
facet normal 1.000000e+00 0.000000e+00 0.000000e+00
    outer loop
        vertex 8.000000e+00 8.089777e+01 -3.677646e+01
        vertex 8.000000e+00 8.100000e+01 -3.600000e+01
        vertex 8.000000e+00 8.089777e+01 -3.522354e+01
    endloop
endfacet
facet normal 1.000000e+00 0.000000e+00 0.000000e+00
    outer loop
        vertex 8.000000e+00 8.059808e+01 -3.450000e+01
        vertex 8.000000e+00 8.089777e+01 -3.677646e+01
        vertex 8.000000e+00 8.089777e+01 -3.522354e+01
    endloop
endfacet
facet normal 1.000000e+00 0.000000e+00 0.000000e+00
    outer loop
        vertex 8.000000e+00 8.012132e+01 -3.387868e+01
        vertex 8.000000e+00 8.089777e+01 -3.677646e+01
        vertex 8.000000e+00 8.059808e+01 -3.450000e+01
    endloop
endfacet
facet normal 1.000000e+00 0.000000e+00 0.000000e+00
    outer loop
        vertex 8.000000e+00 7.950000e+01 -3.340192e+01
        vertex 8.000000e+00 8.089777e+01 -3.677646e+01
        vertex 8.000000e+00 8.012132e+01 -3.387868e+01
    endloop
endfacet
facet normal 1.000000e+00 0.000000e+00 0.000000e+00
    outer loop
        vertex 8.000000e+00 7.877646e+01 -3.310222e+01
        vertex 8.000000e+00 8.089777e+01 -3.677646e+01
        vertex 8.000000e+00 7.950000e+01 -3.340192e+01
    endloop
endfacet
facet normal 1.000000e+00 0.000000e+00 0.000000e+00
    outer loop
        vertex 8.000000e+00 7.800000e+01 -3.300000e+01
        vertex 8.000000e+00 8.089777e+01 -3.677646e+01
        vertex 8.000000e+00 7.877646e+01 -3.310222e+01
    endloop
endfacet
facet normal 1.000000e+00 -0.000000e+00 0.000000e+00
    outer loop
        vertex 8.000000e+00 7.722354e+01 -3.310222e+01
        vertex 8.000000e+00 8.089777e+01 -3.677646e+01
        vertex 8.000000e+00 7.800000e+01 -3.300000e+01
    endloop
endfacet
facet normal 1.000000e+00 -0.000000e+00 0.000000e+00
    outer loop
        vertex 8.000000e+00 7.650000e+01 -3.340192e+01
        vertex 8.000000e+00 8.089777e+01 -3.677646e+01
        vertex 8.000000e+00 7.722354e+01 -3.310222e+01
    endloop
endfacet
facet normal 1.000000e+00 -0.000000e+00 0.000000e+00
    outer loop
        vertex 8.000000e+00 7.587868e+01 -3.387868e+01
        vertex 8.000000e+00 8.089777e+01 -3.677646e+01
        vertex 8.000000e+00 7.650000e+01 -3.340192e+01
    endloop
endfacet
facet normal 1.000000e+00 -0.000000e+00 0.000000e+00
    outer loop
        vertex 8.000000e+00 7.540192e+01 -3.450000e+01
        vertex 8.000000e+00 8.089777e+01 -3.677646e+01
        vertex 8.000000e+00 7.587868e+01 -3.387868e+01
    endloop
endfacet
facet normal 1.000000e+00 -0.000000e+00 0.000000e+00
    outer loop
        vertex 8.000000e+00 7.510223e+01 -3.522354e+01
        vertex 8.000000e+00 8.089777e+01 -3.677646e+01
        vertex 8.000000e+00 7.540192e+01 -3.450000e+01
    endloop
endfacet
facet normal 1.000000e+00 -0.000000e+00 0.000000e+00
    outer loop
        vertex 8.000000e+00 7.500000e+01 -3.600000e+01
        vertex 8.000000e+00 8.089777e+01 -3.677646e+01
        vertex 8.000000e+00 7.510223e+01 -3.522354e+01
    endloop
endfacet
facet normal 1.000000e+00 0.000000e+00 0.000000e+00
    outer loop
        vertex 8.000000e+00 7.500000e+01 -3.600000e+01
        vertex 8.000000e+00 7.510223e+01 -3.677646e+01
        vertex 8.000000e+00 8.089777e+01 -3.677646e+01
    endloop
endfacet
facet normal 1.000000e+00 -0.000000e+00 0.000000e+00
    outer loop
        vertex 8.000000e+00 7.510223e+01 -3.677646e+01
        vertex 8.000000e+00 7.540192e+01 -3.750000e+01
        vertex 8.000000e+00 8.089777e+01 -3.677646e+01
    endloop
endfacet
facet normal 1.000000e+00 0.000000e+00 0.000000e+00
    outer loop
        vertex 8.000000e+00 7.540192e+01 -3.750000e+01
        vertex 8.000000e+00 8.059808e+01 -3.750000e+01
        vertex 8.000000e+00 8.089777e+01 -3.677646e+01
    endloop
endfacet
facet normal 1.000000e+00 -0.000000e+00 0.000000e+00
    outer loop
        vertex 8.000000e+00 7.540192e+01 -3.750000e+01
        vertex 8.000000e+00 7.587868e+01 -3.812132e+01
        vertex 8.000000e+00 8.059808e+01 -3.750000e+01
    endloop
endfacet
facet normal 1.000000e+00 -0.000000e+00 0.000000e+00
    outer loop
        vertex 8.000000e+00 7.587868e+01 -3.812132e+01
        vertex 8.000000e+00 7.650000e+01 -3.859808e+01
        vertex 8.000000e+00 8.059808e+01 -3.750000e+01
    endloop
endfacet
facet normal 1.000000e+00 -0.000000e+00 0.000000e+00
    outer loop
        vertex 8.000000e+00 7.650000e+01 -3.859808e+01
        vertex 8.000000e+00 7.722354e+01 -3.889778e+01
        vertex 8.000000e+00 8.059808e+01 -3.750000e+01
    endloop
endfacet
facet normal 1.000000e+00 -0.000000e+00 0.000000e+00
    outer loop
        vertex 8.000000e+00 7.722354e+01 -3.889778e+01
        vertex 8.000000e+00 7.800000e+01 -3.900000e+01
        vertex 8.000000e+00 8.059808e+01 -3.750000e+01
    endloop
endfacet
facet normal 1.000000e+00 0.000000e+00 0.000000e+00
    outer loop
        vertex 8.000000e+00 7.800000e+01 -3.900000e+01
        vertex 8.000000e+00 8.012132e+01 -3.812132e+01
        vertex 8.000000e+00 8.059808e+01 -3.750000e+01
    endloop
endfacet
facet normal 1.000000e+00 0.000000e+00 0.000000e+00
    outer loop
        vertex 8.000000e+00 7.800000e+01 -3.900000e+01
        vertex 8.000000e+00 7.877646e+01 -3.889778e+01
        vertex 8.000000e+00 7.950000e+01 -3.859808e+01
    endloop
endfacet
facet normal 1.000000e+00 0.000000e+00 0.000000e+00
    outer loop
        vertex 8.000000e+00 7.800000e+01 -3.900000e+01
        vertex 8.000000e+00 7.950000e+01 -3.859808e+01
        vertex 8.000000e+00 8.012132e+01 -3.812132e+01
    endloop
endfacet
endsolid trigger-pin.stl
