solid ar-15-vice-mag.stl
facet normal 0.000000e+00 0.000000e+00 -1.000000e+00
    outer loop
        vertex 2.850000e+01 -1.100000e+01 -6.600000e+01
        vertex 2.850000e+01 1.100000e+01 -6.600000e+01
        vertex 9.050000e+01 1.100000e+01 -6.600000e+01
    endloop
endfacet
facet normal 0.000000e+00 0.000000e+00 -1.000000e+00
    outer loop
        vertex 2.850000e+01 -1.100000e+01 -6.600000e+01
        vertex 9.050000e+01 1.100000e+01 -6.600000e+01
        vertex 9.050000e+01 -1.100000e+01 -6.600000e+01
    endloop
endfacet
facet normal -1.000000e+00 0.000000e+00 0.000000e+00
    outer loop
        vertex 2.750000e+01 -1.000000e+01 -6.500000e+01
        vertex 2.750000e+01 -1.000000e+01 4.050000e+01
        vertex 2.750000e+01 1.000000e+01 -6.500000e+01
    endloop
endfacet
facet normal -1.000000e+00 0.000000e+00 0.000000e+00
    outer loop
        vertex 2.750000e+01 -1.000000e+01 4.050000e+01
        vertex 2.750000e+01 1.000000e+01 4.050000e+01
        vertex 2.750000e+01 1.000000e+01 -6.500000e+01
    endloop
endfacet
facet normal 0.000000e+00 1.000000e+00 0.000000e+00
    outer loop
        vertex 3.560000e+01 9.000000e+00 1.000000e+01
        vertex 3.560000e+01 9.000000e+00 1.710000e+01
        vertex 5.100000e+01 9.000000e+00 1.000000e+01
    endloop
endfacet
facet normal 0.000000e+00 1.000000e+00 -0.000000e+00
    outer loop
        vertex 5.100000e+01 9.000000e+00 1.000000e+01
        vertex 3.560000e+01 9.000000e+00 1.710000e+01
        vertex 5.100000e+01 9.000000e+00 1.710000e+01
    endloop
endfacet
facet normal 1.000000e+00 0.000000e+00 0.000000e+00
    outer loop
        vertex 3.560000e+01 9.000000e+00 1.000000e+01
        vertex 3.560000e+01 1.100000e+01 1.000000e+01
        vertex 3.560000e+01 9.000000e+00 1.710000e+01
    endloop
endfacet
facet normal 1.000000e+00 -0.000000e+00 0.000000e+00
    outer loop
        vertex 3.560000e+01 9.000000e+00 1.710000e+01
        vertex 3.560000e+01 1.100000e+01 1.000000e+01
        vertex 3.560000e+01 1.100000e+01 1.710000e+01
    endloop
endfacet
facet normal 0.000000e+00 0.000000e+00 -1.000000e+00
    outer loop
        vertex 3.560000e+01 9.000000e+00 1.710000e+01
        vertex 3.560000e+01 1.100000e+01 1.710000e+01
        vertex 5.100000e+01 9.000000e+00 1.710000e+01
    endloop
endfacet
facet normal 0.000000e+00 0.000000e+00 -1.000000e+00
    outer loop
        vertex 5.100000e+01 9.000000e+00 1.710000e+01
        vertex 3.560000e+01 1.100000e+01 1.710000e+01
        vertex 5.100000e+01 1.100000e+01 1.710000e+01
    endloop
endfacet
facet normal -1.000000e+00 0.000000e+00 0.000000e+00
    outer loop
        vertex 5.100000e+01 9.000000e+00 1.000000e+01
        vertex 5.100000e+01 9.000000e+00 1.710000e+01
        vertex 5.100000e+01 1.100000e+01 1.710000e+01
    endloop
endfacet
facet normal -1.000000e+00 0.000000e+00 0.000000e+00
    outer loop
        vertex 5.100000e+01 9.000000e+00 1.000000e+01
        vertex 5.100000e+01 1.100000e+01 1.710000e+01
        vertex 5.100000e+01 1.100000e+01 1.000000e+01
    endloop
endfacet
facet normal 0.000000e+00 0.000000e+00 1.000000e+00
    outer loop
        vertex 3.560000e+01 9.000000e+00 1.000000e+01
        vertex 5.100000e+01 9.000000e+00 1.000000e+01
        vertex 5.100000e+01 1.100000e+01 1.000000e+01
    endloop
endfacet
facet normal 0.000000e+00 0.000000e+00 1.000000e+00
    outer loop
        vertex 3.560000e+01 9.000000e+00 1.000000e+01
        vertex 5.100000e+01 1.100000e+01 1.000000e+01
        vertex 3.560000e+01 1.100000e+01 1.000000e+01
    endloop
endfacet
facet normal 0.000000e+00 1.000000e+00 0.000000e+00
    outer loop
        vertex 3.750000e+01 1.250000e+01 5.000000e+00
        vertex 3.750000e+01 1.250000e+01 9.500000e+00
        vertex 4.900000e+01 1.250000e+01 5.000000e+00
    endloop
endfacet
facet normal 0.000000e+00 1.000000e+00 -0.000000e+00
    outer loop
        vertex 4.900000e+01 1.250000e+01 5.000000e+00
        vertex 3.750000e+01 1.250000e+01 9.500000e+00
        vertex 4.900000e+01 1.250000e+01 9.500000e+00
    endloop
endfacet
facet normal 0.000000e+00 9.908302e-01 -1.351132e-01
    outer loop
        vertex 4.950000e+01 1.100000e+01 -6.000000e+00
        vertex 3.750000e+01 1.250000e+01 5.000000e+00
        vertex 4.900000e+01 1.250000e+01 5.000000e+00
    endloop
endfacet
facet normal 0.000000e+00 9.908302e-01 -1.351132e-01
    outer loop
        vertex 3.700000e+01 1.100000e+01 -6.000000e+00
        vertex 3.750000e+01 1.250000e+01 5.000000e+00
        vertex 4.950000e+01 1.100000e+01 -6.000000e+00
    endloop
endfacet
facet normal 9.486833e-01 3.162278e-01 0.000000e+00
    outer loop
        vertex 4.950000e+01 1.100000e+01 9.500000e+00
        vertex 4.900000e+01 1.250000e+01 5.000000e+00
        vertex 4.900000e+01 1.250000e+01 9.500000e+00
    endloop
endfacet
facet normal 9.486833e-01 3.162278e-01 -0.000000e+00
    outer loop
        vertex 4.950000e+01 1.100000e+01 -6.000000e+00
        vertex 4.900000e+01 1.250000e+01 5.000000e+00
        vertex 4.950000e+01 1.100000e+01 9.500000e+00
    endloop
endfacet
facet normal -9.486833e-01 3.162278e-01 0.000000e+00
    outer loop
        vertex 3.700000e+01 1.100000e+01 9.500000e+00
        vertex 3.750000e+01 1.250000e+01 9.500000e+00
        vertex 3.750000e+01 1.250000e+01 5.000000e+00
    endloop
endfacet
facet normal -9.486833e-01 3.162278e-01 0.000000e+00
    outer loop
        vertex 3.700000e+01 1.100000e+01 -6.000000e+00
        vertex 3.700000e+01 1.100000e+01 9.500000e+00
        vertex 3.750000e+01 1.250000e+01 5.000000e+00
    endloop
endfacet
facet normal 0.000000e+00 0.000000e+00 1.000000e+00
    outer loop
        vertex 4.950000e+01 1.100000e+01 9.500000e+00
        vertex 4.900000e+01 1.250000e+01 9.500000e+00
        vertex 3.750000e+01 1.250000e+01 9.500000e+00
    endloop
endfacet
facet normal 0.000000e+00 0.000000e+00 1.000000e+00
    outer loop
        vertex 3.700000e+01 1.100000e+01 9.500000e+00
        vertex 4.950000e+01 1.100000e+01 9.500000e+00
        vertex 3.750000e+01 1.250000e+01 9.500000e+00
    endloop
endfacet
facet normal 1.000000e+00 0.000000e+00 0.000000e+00
    outer loop
        vertex 9.050000e+01 -1.100000e+01 -6.600000e+01
        vertex 9.050000e+01 1.100000e+01 -6.600000e+01
        vertex 9.050000e+01 -1.100000e+01 -2.200000e+01
    endloop
endfacet
facet normal 1.000000e+00 -0.000000e+00 0.000000e+00
    outer loop
        vertex 9.050000e+01 -1.100000e+01 -2.200000e+01
        vertex 9.050000e+01 1.100000e+01 -6.600000e+01
        vertex 9.050000e+01 1.100000e+01 -2.200000e+01
    endloop
endfacet
facet normal 5.547002e-01 0.000000e+00 8.320503e-01
    outer loop
        vertex 9.050000e+01 -1.100000e+01 -2.200000e+01
        vertex 8.750000e+01 1.100000e+01 -2.000000e+01
        vertex 8.750000e+01 -1.100000e+01 -2.000000e+01
    endloop
endfacet
facet normal 5.547002e-01 -0.000000e+00 8.320503e-01
    outer loop
        vertex 9.050000e+01 -1.100000e+01 -2.200000e+01
        vertex 9.050000e+01 1.100000e+01 -2.200000e+01
        vertex 8.750000e+01 1.100000e+01 -2.000000e+01
    endloop
endfacet
facet normal -7.071068e-01 -7.071068e-01 0.000000e+00
    outer loop
        vertex 2.850000e+01 -1.100000e+01 -6.600000e+01
        vertex 2.850000e+01 -1.100000e+01 4.150000e+01
        vertex 2.750000e+01 -1.000000e+01 -6.500000e+01
    endloop
endfacet
facet normal -7.071068e-01 -7.071068e-01 0.000000e+00
    outer loop
        vertex 2.850000e+01 -1.100000e+01 4.150000e+01
        vertex 2.750000e+01 -1.000000e+01 4.050000e+01
        vertex 2.750000e+01 -1.000000e+01 -6.500000e+01
    endloop
endfacet
facet normal -7.071068e-01 0.000000e+00 -7.071068e-01
    outer loop
        vertex 2.850000e+01 -1.100000e+01 -6.600000e+01
        vertex 2.750000e+01 -1.000000e+01 -6.500000e+01
        vertex 2.850000e+01 1.100000e+01 -6.600000e+01
    endloop
endfacet
facet normal -7.071068e-01 0.000000e+00 -7.071068e-01
    outer loop
        vertex 2.750000e+01 -1.000000e+01 -6.500000e+01
        vertex 2.750000e+01 1.000000e+01 -6.500000e+01
        vertex 2.850000e+01 1.100000e+01 -6.600000e+01
    endloop
endfacet
facet normal -7.071068e-01 7.071068e-01 0.000000e+00
    outer loop
        vertex 2.750000e+01 1.000000e+01 -6.500000e+01
        vertex 2.850000e+01 1.100000e+01 4.150000e+01
        vertex 2.850000e+01 1.100000e+01 -6.600000e+01
    endloop
endfacet
facet normal -7.071068e-01 7.071068e-01 0.000000e+00
    outer loop
        vertex 2.750000e+01 1.000000e+01 -6.500000e+01
        vertex 2.750000e+01 1.000000e+01 4.050000e+01
        vertex 2.850000e+01 1.100000e+01 4.150000e+01
    endloop
endfacet
facet normal -7.071068e-01 0.000000e+00 7.071068e-01
    outer loop
        vertex 2.850000e+01 -1.100000e+01 4.150000e+01
        vertex 2.750000e+01 1.000000e+01 4.050000e+01
        vertex 2.750000e+01 -1.000000e+01 4.050000e+01
    endloop
endfacet
facet normal -7.071068e-01 0.000000e+00 7.071068e-01
    outer loop
        vertex 2.850000e+01 -1.100000e+01 4.150000e+01
        vertex 2.850000e+01 1.100000e+01 4.150000e+01
        vertex 2.750000e+01 1.000000e+01 4.050000e+01
    endloop
endfacet
facet normal 0.000000e+00 -1.000000e+00 0.000000e+00
    outer loop
        vertex 8.605025e+01 -1.100000e+01 -1.925000e+01
        vertex 8.605025e+01 -1.100000e+01 4.150000e+01
        vertex 2.850000e+01 -1.100000e+01 4.150000e+01
    endloop
endfacet
facet normal 0.000000e+00 -1.000000e+00 0.000000e+00
    outer loop
        vertex 2.850000e+01 -1.100000e+01 -6.600000e+01
        vertex 8.605025e+01 -1.100000e+01 -1.925000e+01
        vertex 2.850000e+01 -1.100000e+01 4.150000e+01
    endloop
endfacet
facet normal 0.000000e+00 -1.000000e+00 0.000000e+00
    outer loop
        vertex 2.850000e+01 -1.100000e+01 -6.600000e+01
        vertex 9.050000e+01 -1.100000e+01 -6.600000e+01
        vertex 8.605025e+01 -1.100000e+01 -1.925000e+01
    endloop
endfacet
facet normal 0.000000e+00 -1.000000e+00 0.000000e+00
    outer loop
        vertex 9.050000e+01 -1.100000e+01 -6.600000e+01
        vertex 9.050000e+01 -1.100000e+01 -2.200000e+01
        vertex 8.605025e+01 -1.100000e+01 -1.925000e+01
    endloop
endfacet
facet normal 0.000000e+00 -1.000000e+00 0.000000e+00
    outer loop
        vertex 9.050000e+01 -1.100000e+01 -2.200000e+01
        vertex 8.750000e+01 -1.100000e+01 -2.000000e+01
        vertex 8.605025e+01 -1.100000e+01 -1.925000e+01
    endloop
endfacet
facet normal 0.000000e+00 -1.000000e+00 0.000000e+00
    outer loop
        vertex 8.750000e+01 -1.100000e+01 -2.000000e+01
        vertex 8.750000e+01 -1.100000e+01 -1.925000e+01
        vertex 8.605025e+01 -1.100000e+01 -1.925000e+01
    endloop
endfacet
facet normal 0.000000e+00 1.000000e+00 -0.000000e+00
    outer loop
        vertex 8.605025e+01 1.100000e+01 -1.925000e+01
        vertex 2.850000e+01 1.100000e+01 4.150000e+01
        vertex 8.605025e+01 1.100000e+01 4.150000e+01
    endloop
endfacet
facet normal 0.000000e+00 1.000000e+00 0.000000e+00
    outer loop
        vertex 2.850000e+01 1.100000e+01 -6.600000e+01
        vertex 9.050000e+01 1.100000e+01 -2.200000e+01
        vertex 9.050000e+01 1.100000e+01 -6.600000e+01
    endloop
endfacet
facet normal 0.000000e+00 1.000000e+00 -0.000000e+00
    outer loop
        vertex 3.560000e+01 1.100000e+01 1.710000e+01
        vertex 2.850000e+01 1.100000e+01 4.150000e+01
        vertex 5.100000e+01 1.100000e+01 1.710000e+01
    endloop
endfacet
facet normal 0.000000e+00 1.000000e+00 -0.000000e+00
    outer loop
        vertex 3.700000e+01 1.100000e+01 -6.000000e+00
        vertex 3.560000e+01 1.100000e+01 1.000000e+01
        vertex 3.700000e+01 1.100000e+01 9.500000e+00
    endloop
endfacet
facet normal 0.000000e+00 1.000000e+00 0.000000e+00
    outer loop
        vertex 2.850000e+01 1.100000e+01 -6.600000e+01
        vertex 2.850000e+01 1.100000e+01 4.150000e+01
        vertex 3.560000e+01 1.100000e+01 1.710000e+01
    endloop
endfacet
facet normal 0.000000e+00 1.000000e+00 0.000000e+00
    outer loop
        vertex 2.850000e+01 1.100000e+01 -6.600000e+01
        vertex 8.750000e+01 1.100000e+01 -2.000000e+01
        vertex 9.050000e+01 1.100000e+01 -2.200000e+01
    endloop
endfacet
facet normal 0.000000e+00 1.000000e+00 -0.000000e+00
    outer loop
        vertex 3.700000e+01 1.100000e+01 9.500000e+00
        vertex 3.560000e+01 1.100000e+01 1.000000e+01
        vertex 4.950000e+01 1.100000e+01 9.500000e+00
    endloop
endfacet
facet normal 0.000000e+00 1.000000e+00 -0.000000e+00
    outer loop
        vertex 4.950000e+01 1.100000e+01 9.500000e+00
        vertex 3.560000e+01 1.100000e+01 1.000000e+01
        vertex 5.100000e+01 1.100000e+01 1.000000e+01
    endloop
endfacet
facet normal 0.000000e+00 1.000000e+00 0.000000e+00
    outer loop
        vertex 4.950000e+01 1.100000e+01 -6.000000e+00
        vertex 4.950000e+01 1.100000e+01 9.500000e+00
        vertex 5.100000e+01 1.100000e+01 1.000000e+01
    endloop
endfacet
facet normal 0.000000e+00 1.000000e+00 -0.000000e+00
    outer loop
        vertex 8.750000e+01 1.100000e+01 -2.000000e+01
        vertex 8.605025e+01 1.100000e+01 -1.925000e+01
        vertex 8.750000e+01 1.100000e+01 -1.925000e+01
    endloop
endfacet
facet normal 0.000000e+00 1.000000e+00 0.000000e+00
    outer loop
        vertex 2.850000e+01 1.100000e+01 -6.600000e+01
        vertex 8.605025e+01 1.100000e+01 -1.925000e+01
        vertex 8.750000e+01 1.100000e+01 -2.000000e+01
    endloop
endfacet
facet normal 0.000000e+00 1.000000e+00 0.000000e+00
    outer loop
        vertex 2.850000e+01 1.100000e+01 -6.600000e+01
        vertex 3.560000e+01 1.100000e+01 1.710000e+01
        vertex 3.560000e+01 1.100000e+01 1.000000e+01
    endloop
endfacet
facet normal 0.000000e+00 1.000000e+00 0.000000e+00
    outer loop
        vertex 2.850000e+01 1.100000e+01 -6.600000e+01
        vertex 3.560000e+01 1.100000e+01 1.000000e+01
        vertex 3.700000e+01 1.100000e+01 -6.000000e+00
    endloop
endfacet
facet normal 0.000000e+00 1.000000e+00 0.000000e+00
    outer loop
        vertex 2.850000e+01 1.100000e+01 -6.600000e+01
        vertex 3.700000e+01 1.100000e+01 -6.000000e+00
        vertex 8.605025e+01 1.100000e+01 -1.925000e+01
    endloop
endfacet
facet normal 0.000000e+00 1.000000e+00 0.000000e+00
    outer loop
        vertex 8.605025e+01 1.100000e+01 -1.925000e+01
        vertex 3.700000e+01 1.100000e+01 -6.000000e+00
        vertex 4.950000e+01 1.100000e+01 -6.000000e+00
    endloop
endfacet
facet normal 0.000000e+00 1.000000e+00 0.000000e+00
    outer loop
        vertex 8.605025e+01 1.100000e+01 -1.925000e+01
        vertex 4.950000e+01 1.100000e+01 -6.000000e+00
        vertex 5.100000e+01 1.100000e+01 1.000000e+01
    endloop
endfacet
facet normal 0.000000e+00 1.000000e+00 0.000000e+00
    outer loop
        vertex 8.605025e+01 1.100000e+01 -1.925000e+01
        vertex 5.100000e+01 1.100000e+01 1.000000e+01
        vertex 5.100000e+01 1.100000e+01 1.710000e+01
    endloop
endfacet
facet normal 0.000000e+00 1.000000e+00 0.000000e+00
    outer loop
        vertex 8.605025e+01 1.100000e+01 -1.925000e+01
        vertex 5.100000e+01 1.100000e+01 1.710000e+01
        vertex 2.850000e+01 1.100000e+01 4.150000e+01
    endloop
endfacet
facet normal 0.000000e+00 0.000000e+00 1.000000e+00
    outer loop
        vertex 2.950000e+01 -1.000000e+01 4.250000e+01
        vertex 8.563604e+01 1.000000e+01 4.250000e+01
        vertex 2.950000e+01 1.000000e+01 4.250000e+01
    endloop
endfacet
facet normal 0.000000e+00 0.000000e+00 1.000000e+00
    outer loop
        vertex 2.950000e+01 -1.000000e+01 4.250000e+01
        vertex 8.563604e+01 -1.000000e+01 4.250000e+01
        vertex 8.563604e+01 1.000000e+01 4.250000e+01
    endloop
endfacet
facet normal 0.000000e+00 0.000000e+00 1.000000e+00
    outer loop
        vertex 8.563604e+01 -1.000000e+01 4.250000e+01
        vertex 8.650000e+01 -9.136039e+00 4.250000e+01
        vertex 8.563604e+01 1.000000e+01 4.250000e+01
    endloop
endfacet
facet normal 0.000000e+00 -0.000000e+00 1.000000e+00
    outer loop
        vertex 8.650000e+01 -9.136039e+00 4.250000e+01
        vertex 8.650000e+01 9.136039e+00 4.250000e+01
        vertex 8.563604e+01 1.000000e+01 4.250000e+01
    endloop
endfacet
facet normal 1.000000e+00 0.000000e+00 0.000000e+00
    outer loop
        vertex 8.750000e+01 -9.550252e+00 -1.925000e+01
        vertex 8.750000e+01 9.550252e+00 4.150000e+01
        vertex 8.750000e+01 -9.550252e+00 4.150000e+01
    endloop
endfacet
facet normal 1.000000e+00 0.000000e+00 0.000000e+00
    outer loop
        vertex 8.750000e+01 -1.100000e+01 -2.000000e+01
        vertex 8.750000e+01 -9.550252e+00 -1.925000e+01
        vertex 8.750000e+01 -1.100000e+01 -1.925000e+01
    endloop
endfacet
facet normal 1.000000e+00 0.000000e+00 0.000000e+00
    outer loop
        vertex 8.750000e+01 -1.100000e+01 -2.000000e+01
        vertex 8.750000e+01 1.100000e+01 -2.000000e+01
        vertex 8.750000e+01 -9.550252e+00 -1.925000e+01
    endloop
endfacet
facet normal 1.000000e+00 -0.000000e+00 0.000000e+00
    outer loop
        vertex 8.750000e+01 9.550252e+00 -1.925000e+01
        vertex 8.750000e+01 1.100000e+01 -2.000000e+01
        vertex 8.750000e+01 1.100000e+01 -1.925000e+01
    endloop
endfacet
facet normal 1.000000e+00 -0.000000e+00 0.000000e+00
    outer loop
        vertex 8.750000e+01 -9.550252e+00 -1.925000e+01
        vertex 8.750000e+01 1.100000e+01 -2.000000e+01
        vertex 8.750000e+01 9.550252e+00 -1.925000e+01
    endloop
endfacet
facet normal 1.000000e+00 0.000000e+00 0.000000e+00
    outer loop
        vertex 8.750000e+01 -9.550252e+00 -1.925000e+01
        vertex 8.750000e+01 9.550252e+00 -1.925000e+01
        vertex 8.750000e+01 9.550252e+00 4.150000e+01
    endloop
endfacet
facet normal 0.000000e+00 -0.000000e+00 1.000000e+00
    outer loop
        vertex 8.750000e+01 9.550252e+00 -1.925000e+01
        vertex 8.750000e+01 1.100000e+01 -1.925000e+01
        vertex 8.605025e+01 1.100000e+01 -1.925000e+01
    endloop
endfacet
facet normal 7.071075e-01 7.071061e-01 0.000000e+00
    outer loop
        vertex 8.750000e+01 9.550252e+00 -1.925000e+01
        vertex 8.605025e+01 1.100000e+01 -1.925000e+01
        vertex 8.605025e+01 1.100000e+01 4.150000e+01
    endloop
endfacet
facet normal 7.071075e-01 7.071061e-01 -0.000000e+00
    outer loop
        vertex 8.750000e+01 9.550252e+00 -1.925000e+01
        vertex 8.605025e+01 1.100000e+01 4.150000e+01
        vertex 8.750000e+01 9.550252e+00 4.150000e+01
    endloop
endfacet
facet normal 0.000000e+00 0.000000e+00 1.000000e+00
    outer loop
        vertex 8.605025e+01 -1.100000e+01 -1.925000e+01
        vertex 8.750000e+01 -1.100000e+01 -1.925000e+01
        vertex 8.750000e+01 -9.550252e+00 -1.925000e+01
    endloop
endfacet
facet normal 7.071075e-01 -7.071061e-01 0.000000e+00
    outer loop
        vertex 8.605025e+01 -1.100000e+01 -1.925000e+01
        vertex 8.750000e+01 -9.550252e+00 -1.925000e+01
        vertex 8.605025e+01 -1.100000e+01 4.150000e+01
    endloop
endfacet
facet normal 7.071075e-01 -7.071061e-01 0.000000e+00
    outer loop
        vertex 8.605025e+01 -1.100000e+01 4.150000e+01
        vertex 8.750000e+01 -9.550252e+00 -1.925000e+01
        vertex 8.750000e+01 -9.550252e+00 4.150000e+01
    endloop
endfacet
facet normal -7.071068e-01 0.000000e+00 7.071068e-01
    outer loop
        vertex 2.850000e+01 -1.100000e+01 4.150000e+01
        vertex 2.950000e+01 -1.000000e+01 4.250000e+01
        vertex 2.850000e+01 1.100000e+01 4.150000e+01
    endloop
endfacet
facet normal -7.071068e-01 0.000000e+00 7.071068e-01
    outer loop
        vertex 2.950000e+01 -1.000000e+01 4.250000e+01
        vertex 2.950000e+01 1.000000e+01 4.250000e+01
        vertex 2.850000e+01 1.100000e+01 4.150000e+01
    endloop
endfacet
facet normal 0.000000e+00 7.071068e-01 7.071068e-01
    outer loop
        vertex 2.950000e+01 1.000000e+01 4.250000e+01
        vertex 8.605025e+01 1.100000e+01 4.150000e+01
        vertex 2.850000e+01 1.100000e+01 4.150000e+01
    endloop
endfacet
facet normal -0.000000e+00 7.071068e-01 7.071068e-01
    outer loop
        vertex 2.950000e+01 1.000000e+01 4.250000e+01
        vertex 8.563604e+01 1.000000e+01 4.250000e+01
        vertex 8.605025e+01 1.100000e+01 4.150000e+01
    endloop
endfacet
facet normal 5.000005e-01 4.999995e-01 7.071068e-01
    outer loop
        vertex 8.650000e+01 9.136039e+00 4.250000e+01
        vertex 8.750000e+01 9.550252e+00 4.150000e+01
        vertex 8.605025e+01 1.100000e+01 4.150000e+01
    endloop
endfacet
facet normal 5.000001e-01 4.999995e-01 7.071071e-01
    outer loop
        vertex 8.650000e+01 9.136039e+00 4.250000e+01
        vertex 8.605025e+01 1.100000e+01 4.150000e+01
        vertex 8.563604e+01 1.000000e+01 4.250000e+01
    endloop
endfacet
facet normal 7.071068e-01 -0.000000e+00 7.071068e-01
    outer loop
        vertex 8.750000e+01 -9.550252e+00 4.150000e+01
        vertex 8.750000e+01 9.550252e+00 4.150000e+01
        vertex 8.650000e+01 -9.136039e+00 4.250000e+01
    endloop
endfacet
facet normal 7.071068e-01 -0.000000e+00 7.071068e-01
    outer loop
        vertex 8.650000e+01 -9.136039e+00 4.250000e+01
        vertex 8.750000e+01 9.550252e+00 4.150000e+01
        vertex 8.650000e+01 9.136039e+00 4.250000e+01
    endloop
endfacet
facet normal 5.000005e-01 -4.999995e-01 7.071068e-01
    outer loop
        vertex 8.605025e+01 -1.100000e+01 4.150000e+01
        vertex 8.750000e+01 -9.550252e+00 4.150000e+01
        vertex 8.650000e+01 -9.136039e+00 4.250000e+01
    endloop
endfacet
facet normal 5.000001e-01 -4.999995e-01 7.071071e-01
    outer loop
        vertex 8.605025e+01 -1.100000e+01 4.150000e+01
        vertex 8.650000e+01 -9.136039e+00 4.250000e+01
        vertex 8.563604e+01 -1.000000e+01 4.250000e+01
    endloop
endfacet
facet normal 0.000000e+00 -7.071068e-01 7.071068e-01
    outer loop
        vertex 2.850000e+01 -1.100000e+01 4.150000e+01
        vertex 8.605025e+01 -1.100000e+01 4.150000e+01
        vertex 2.950000e+01 -1.000000e+01 4.250000e+01
    endloop
endfacet
facet normal 0.000000e+00 -7.071068e-01 7.071068e-01
    outer loop
        vertex 8.605025e+01 -1.100000e+01 4.150000e+01
        vertex 8.563604e+01 -1.000000e+01 4.250000e+01
        vertex 2.950000e+01 -1.000000e+01 4.250000e+01
    endloop
endfacet
endsolid ar-15-vice-mag.stl
