solid pins.stl
facet normal 1.000000e+00 0.000000e+00 0.000000e+00
    outer loop
        vertex -8.200000e+00 7.539137e+01 -3.600000e+01
        vertex -8.200000e+00 7.645451e+01 -3.558589e+01
        vertex -8.200000e+00 7.548026e+01 -3.532484e+01
    endloop
endfacet
facet normal 1.000000e+00 -0.000000e+00 0.000000e+00
    outer loop
        vertex -8.200000e+00 7.548026e+01 -3.532484e+01
        vertex -8.200000e+00 7.645451e+01 -3.558589e+01
        vertex -8.200000e+00 7.574086e+01 -3.469568e+01
    endloop
endfacet
facet normal 1.000000e+00 -0.000000e+00 0.000000e+00
    outer loop
        vertex -8.200000e+00 7.539137e+01 -3.600000e+01
        vertex -8.200000e+00 7.548026e+01 -3.667516e+01
        vertex -8.200000e+00 7.645451e+01 -3.558589e+01
    endloop
endfacet
facet normal 1.000000e+00 -0.000000e+00 0.000000e+00
    outer loop
        vertex -8.200000e+00 7.574086e+01 -3.469568e+01
        vertex -8.200000e+00 7.645451e+01 -3.558589e+01
        vertex -8.200000e+00 7.615542e+01 -3.415542e+01
    endloop
endfacet
facet normal 1.000000e+00 -0.000000e+00 0.000000e+00
    outer loop
        vertex -8.200000e+00 7.548026e+01 -3.667516e+01
        vertex -8.200000e+00 7.574086e+01 -3.730432e+01
        vertex -8.200000e+00 7.645451e+01 -3.558589e+01
    endloop
endfacet
facet normal 1.000000e+00 -0.000000e+00 0.000000e+00
    outer loop
        vertex -8.200000e+00 7.615542e+01 -3.415542e+01
        vertex -8.200000e+00 7.645451e+01 -3.558589e+01
        vertex -8.200000e+00 7.669569e+01 -3.374086e+01
    endloop
endfacet
facet normal 1.000000e+00 -0.000000e+00 0.000000e+00
    outer loop
        vertex -8.200000e+00 7.574086e+01 -3.730432e+01
        vertex -8.200000e+00 7.615542e+01 -3.784458e+01
        vertex -8.200000e+00 7.645451e+01 -3.558589e+01
    endloop
endfacet
facet normal 1.000000e+00 0.000000e+00 0.000000e+00
    outer loop
        vertex -8.200000e+00 7.645451e+01 -3.558589e+01
        vertex -8.200000e+00 7.732483e+01 -3.348026e+01
        vertex -8.200000e+00 7.669569e+01 -3.374086e+01
    endloop
endfacet
facet normal 1.000000e+00 0.000000e+00 0.000000e+00
    outer loop
        vertex -8.200000e+00 8.025914e+01 -3.730432e+01
        vertex -8.200000e+00 8.051974e+01 -3.667516e+01
        vertex -8.200000e+00 8.060863e+01 -3.600000e+01
    endloop
endfacet
facet normal 1.000000e+00 0.000000e+00 0.000000e+00
    outer loop
        vertex -8.200000e+00 7.984458e+01 -3.784458e+01
        vertex -8.200000e+00 8.025914e+01 -3.730432e+01
        vertex -8.200000e+00 8.060863e+01 -3.600000e+01
    endloop
endfacet
facet normal 1.000000e+00 0.000000e+00 0.000000e+00
    outer loop
        vertex -8.200000e+00 7.930431e+01 -3.825914e+01
        vertex -8.200000e+00 7.984458e+01 -3.784458e+01
        vertex -8.200000e+00 8.060863e+01 -3.600000e+01
    endloop
endfacet
facet normal 1.000000e+00 0.000000e+00 0.000000e+00
    outer loop
        vertex -8.200000e+00 7.930431e+01 -3.825914e+01
        vertex -8.200000e+00 8.060863e+01 -3.600000e+01
        vertex -8.200000e+00 8.051974e+01 -3.532484e+01
    endloop
endfacet
facet normal 1.000000e+00 0.000000e+00 0.000000e+00
    outer loop
        vertex -8.200000e+00 7.930431e+01 -3.825914e+01
        vertex -8.200000e+00 8.051974e+01 -3.532484e+01
        vertex -8.200000e+00 8.025914e+01 -3.469568e+01
    endloop
endfacet
facet normal 1.000000e+00 0.000000e+00 0.000000e+00
    outer loop
        vertex -8.200000e+00 7.930431e+01 -3.825914e+01
        vertex -8.200000e+00 8.025914e+01 -3.469568e+01
        vertex -8.200000e+00 7.984458e+01 -3.415542e+01
    endloop
endfacet
facet normal 1.000000e+00 0.000000e+00 0.000000e+00
    outer loop
        vertex -8.200000e+00 7.669569e+01 -3.825914e+01
        vertex -8.200000e+00 7.732483e+01 -3.851974e+01
        vertex -8.200000e+00 7.800000e+01 -3.860863e+01
    endloop
endfacet
facet normal 1.000000e+00 0.000000e+00 0.000000e+00
    outer loop
        vertex -8.200000e+00 7.615542e+01 -3.784458e+01
        vertex -8.200000e+00 7.669569e+01 -3.825914e+01
        vertex -8.200000e+00 7.800000e+01 -3.860863e+01
    endloop
endfacet
facet normal 1.000000e+00 0.000000e+00 0.000000e+00
    outer loop
        vertex -8.200000e+00 7.615542e+01 -3.784458e+01
        vertex -8.200000e+00 7.800000e+01 -3.860863e+01
        vertex -8.200000e+00 7.867517e+01 -3.851974e+01
    endloop
endfacet
facet normal 1.000000e+00 0.000000e+00 0.000000e+00
    outer loop
        vertex -8.200000e+00 7.615542e+01 -3.784458e+01
        vertex -8.200000e+00 7.867517e+01 -3.851974e+01
        vertex -8.200000e+00 7.930431e+01 -3.825914e+01
    endloop
endfacet
facet normal 1.000000e+00 0.000000e+00 0.000000e+00
    outer loop
        vertex -8.200000e+00 7.800000e+01 -3.339137e+01
        vertex -8.200000e+00 7.930431e+01 -3.374086e+01
        vertex -8.200000e+00 7.867517e+01 -3.348026e+01
    endloop
endfacet
facet normal 1.000000e+00 0.000000e+00 0.000000e+00
    outer loop
        vertex -8.200000e+00 7.800000e+01 -3.339137e+01
        vertex -8.200000e+00 7.984458e+01 -3.415542e+01
        vertex -8.200000e+00 7.930431e+01 -3.374086e+01
    endloop
endfacet
facet normal 1.000000e+00 -0.000000e+00 0.000000e+00
    outer loop
        vertex -8.200000e+00 7.732483e+01 -3.348026e+01
        vertex -8.200000e+00 7.984458e+01 -3.415542e+01
        vertex -8.200000e+00 7.800000e+01 -3.339137e+01
    endloop
endfacet
facet normal 1.000000e+00 0.000000e+00 0.000000e+00
    outer loop
        vertex -8.200000e+00 7.645451e+01 -3.558589e+01
        vertex -8.200000e+00 7.661436e+01 -3.520000e+01
        vertex -8.200000e+00 7.732483e+01 -3.348026e+01
    endloop
endfacet
facet normal 1.000000e+00 0.000000e+00 0.000000e+00
    outer loop
        vertex -8.200000e+00 7.661436e+01 -3.520000e+01
        vertex -8.200000e+00 7.686863e+01 -3.486863e+01
        vertex -8.200000e+00 7.732483e+01 -3.348026e+01
    endloop
endfacet
facet normal 1.000000e+00 0.000000e+00 0.000000e+00
    outer loop
        vertex -8.200000e+00 7.686863e+01 -3.486863e+01
        vertex -8.200000e+00 7.720000e+01 -3.461436e+01
        vertex -8.200000e+00 7.732483e+01 -3.348026e+01
    endloop
endfacet
facet normal 1.000000e+00 0.000000e+00 0.000000e+00
    outer loop
        vertex -8.200000e+00 7.720000e+01 -3.461436e+01
        vertex -8.200000e+00 7.758589e+01 -3.445452e+01
        vertex -8.200000e+00 7.732483e+01 -3.348026e+01
    endloop
endfacet
facet normal 1.000000e+00 0.000000e+00 0.000000e+00
    outer loop
        vertex -8.200000e+00 7.732483e+01 -3.348026e+01
        vertex -8.200000e+00 7.758589e+01 -3.445452e+01
        vertex -8.200000e+00 7.984458e+01 -3.415542e+01
    endloop
endfacet
facet normal 1.000000e+00 0.000000e+00 0.000000e+00
    outer loop
        vertex -8.200000e+00 7.615542e+01 -3.784458e+01
        vertex -8.200000e+00 7.640000e+01 -3.600000e+01
        vertex -8.200000e+00 7.645451e+01 -3.558589e+01
    endloop
endfacet
facet normal 1.000000e+00 0.000000e+00 0.000000e+00
    outer loop
        vertex -8.200000e+00 7.615542e+01 -3.784458e+01
        vertex -8.200000e+00 7.645451e+01 -3.641411e+01
        vertex -8.200000e+00 7.640000e+01 -3.600000e+01
    endloop
endfacet
facet normal 1.000000e+00 0.000000e+00 0.000000e+00
    outer loop
        vertex -8.200000e+00 7.615542e+01 -3.784458e+01
        vertex -8.200000e+00 7.661436e+01 -3.680000e+01
        vertex -8.200000e+00 7.645451e+01 -3.641411e+01
    endloop
endfacet
facet normal 1.000000e+00 0.000000e+00 0.000000e+00
    outer loop
        vertex -8.200000e+00 7.615542e+01 -3.784458e+01
        vertex -8.200000e+00 7.686863e+01 -3.713137e+01
        vertex -8.200000e+00 7.661436e+01 -3.680000e+01
    endloop
endfacet
facet normal 1.000000e+00 0.000000e+00 0.000000e+00
    outer loop
        vertex -8.200000e+00 7.615542e+01 -3.784458e+01
        vertex -8.200000e+00 7.720000e+01 -3.738564e+01
        vertex -8.200000e+00 7.686863e+01 -3.713137e+01
    endloop
endfacet
facet normal 1.000000e+00 -0.000000e+00 0.000000e+00
    outer loop
        vertex -8.200000e+00 7.615542e+01 -3.784458e+01
        vertex -8.200000e+00 7.930431e+01 -3.825914e+01
        vertex -8.200000e+00 7.720000e+01 -3.738564e+01
    endloop
endfacet
facet normal 1.000000e+00 0.000000e+00 0.000000e+00
    outer loop
        vertex -8.200000e+00 7.720000e+01 -3.738564e+01
        vertex -8.200000e+00 7.930431e+01 -3.825914e+01
        vertex -8.200000e+00 7.758589e+01 -3.754548e+01
    endloop
endfacet
facet normal 1.000000e+00 0.000000e+00 0.000000e+00
    outer loop
        vertex -8.200000e+00 7.758589e+01 -3.754548e+01
        vertex -8.200000e+00 7.930431e+01 -3.825914e+01
        vertex -8.200000e+00 7.800000e+01 -3.760000e+01
    endloop
endfacet
facet normal 1.000000e+00 -0.000000e+00 0.000000e+00
    outer loop
        vertex -8.200000e+00 7.800000e+01 -3.760000e+01
        vertex -8.200000e+00 7.930431e+01 -3.825914e+01
        vertex -8.200000e+00 7.841411e+01 -3.754548e+01
    endloop
endfacet
facet normal 1.000000e+00 -0.000000e+00 0.000000e+00
    outer loop
        vertex -8.200000e+00 7.841411e+01 -3.754548e+01
        vertex -8.200000e+00 7.930431e+01 -3.825914e+01
        vertex -8.200000e+00 7.880000e+01 -3.738564e+01
    endloop
endfacet
facet normal 1.000000e+00 -0.000000e+00 0.000000e+00
    outer loop
        vertex -8.200000e+00 7.880000e+01 -3.738564e+01
        vertex -8.200000e+00 7.930431e+01 -3.825914e+01
        vertex -8.200000e+00 7.913137e+01 -3.713137e+01
    endloop
endfacet
facet normal 1.000000e+00 -0.000000e+00 0.000000e+00
    outer loop
        vertex -8.200000e+00 7.913137e+01 -3.713137e+01
        vertex -8.200000e+00 7.930431e+01 -3.825914e+01
        vertex -8.200000e+00 7.938564e+01 -3.680000e+01
    endloop
endfacet
facet normal 1.000000e+00 0.000000e+00 0.000000e+00
    outer loop
        vertex -8.200000e+00 7.930431e+01 -3.825914e+01
        vertex -8.200000e+00 7.954549e+01 -3.641411e+01
        vertex -8.200000e+00 7.938564e+01 -3.680000e+01
    endloop
endfacet
facet normal 1.000000e+00 0.000000e+00 0.000000e+00
    outer loop
        vertex -8.200000e+00 7.930431e+01 -3.825914e+01
        vertex -8.200000e+00 7.984458e+01 -3.415542e+01
        vertex -8.200000e+00 7.954549e+01 -3.641411e+01
    endloop
endfacet
facet normal 1.000000e+00 0.000000e+00 0.000000e+00
    outer loop
        vertex -8.200000e+00 7.954549e+01 -3.641411e+01
        vertex -8.200000e+00 7.984458e+01 -3.415542e+01
        vertex -8.200000e+00 7.960000e+01 -3.600000e+01
    endloop
endfacet
facet normal 1.000000e+00 -0.000000e+00 0.000000e+00
    outer loop
        vertex -8.200000e+00 7.954549e+01 -3.558589e+01
        vertex -8.200000e+00 7.960000e+01 -3.600000e+01
        vertex -8.200000e+00 7.984458e+01 -3.415542e+01
    endloop
endfacet
facet normal 1.000000e+00 -0.000000e+00 0.000000e+00
    outer loop
        vertex -8.200000e+00 7.938564e+01 -3.520000e+01
        vertex -8.200000e+00 7.954549e+01 -3.558589e+01
        vertex -8.200000e+00 7.984458e+01 -3.415542e+01
    endloop
endfacet
facet normal 1.000000e+00 -0.000000e+00 0.000000e+00
    outer loop
        vertex -8.200000e+00 7.913137e+01 -3.486863e+01
        vertex -8.200000e+00 7.938564e+01 -3.520000e+01
        vertex -8.200000e+00 7.984458e+01 -3.415542e+01
    endloop
endfacet
facet normal 1.000000e+00 -0.000000e+00 0.000000e+00
    outer loop
        vertex -8.200000e+00 7.880000e+01 -3.461436e+01
        vertex -8.200000e+00 7.913137e+01 -3.486863e+01
        vertex -8.200000e+00 7.984458e+01 -3.415542e+01
    endloop
endfacet
facet normal 1.000000e+00 -0.000000e+00 0.000000e+00
    outer loop
        vertex -8.200000e+00 7.841411e+01 -3.445452e+01
        vertex -8.200000e+00 7.880000e+01 -3.461436e+01
        vertex -8.200000e+00 7.984458e+01 -3.415542e+01
    endloop
endfacet
facet normal 1.000000e+00 0.000000e+00 0.000000e+00
    outer loop
        vertex -8.200000e+00 7.758589e+01 -3.445452e+01
        vertex -8.200000e+00 7.800000e+01 -3.440000e+01
        vertex -8.200000e+00 7.984458e+01 -3.415542e+01
    endloop
endfacet
facet normal 1.000000e+00 -0.000000e+00 0.000000e+00
    outer loop
        vertex -8.200000e+00 7.800000e+01 -3.440000e+01
        vertex -8.200000e+00 7.841411e+01 -3.445452e+01
        vertex -8.200000e+00 7.984458e+01 -3.415542e+01
    endloop
endfacet
facet normal -1.000000e+00 0.000000e+00 0.000000e+00
    outer loop
        vertex -9.200000e+00 8.025914e+01 -3.730432e+01
        vertex -9.200000e+00 8.060863e+01 -3.600000e+01
        vertex -9.200000e+00 8.051974e+01 -3.667516e+01
    endloop
endfacet
facet normal -1.000000e+00 0.000000e+00 0.000000e+00
    outer loop
        vertex -9.200000e+00 7.984458e+01 -3.784458e+01
        vertex -9.200000e+00 8.060863e+01 -3.600000e+01
        vertex -9.200000e+00 8.025914e+01 -3.730432e+01
    endloop
endfacet
facet normal -1.000000e+00 0.000000e+00 0.000000e+00
    outer loop
        vertex -9.200000e+00 7.930431e+01 -3.825914e+01
        vertex -9.200000e+00 8.060863e+01 -3.600000e+01
        vertex -9.200000e+00 7.984458e+01 -3.784458e+01
    endloop
endfacet
facet normal -1.000000e+00 0.000000e+00 0.000000e+00
    outer loop
        vertex -9.200000e+00 7.930431e+01 -3.825914e+01
        vertex -9.200000e+00 8.051974e+01 -3.532484e+01
        vertex -9.200000e+00 8.060863e+01 -3.600000e+01
    endloop
endfacet
facet normal -1.000000e+00 0.000000e+00 0.000000e+00
    outer loop
        vertex -9.200000e+00 7.930431e+01 -3.825914e+01
        vertex -9.200000e+00 8.025914e+01 -3.469568e+01
        vertex -9.200000e+00 8.051974e+01 -3.532484e+01
    endloop
endfacet
facet normal -1.000000e+00 0.000000e+00 0.000000e+00
    outer loop
        vertex -9.200000e+00 7.930431e+01 -3.825914e+01
        vertex -9.200000e+00 7.984458e+01 -3.415542e+01
        vertex -9.200000e+00 8.025914e+01 -3.469568e+01
    endloop
endfacet
facet normal -1.000000e+00 0.000000e+00 0.000000e+00
    outer loop
        vertex -9.200000e+00 7.930431e+01 -3.825914e+01
        vertex -9.200000e+00 7.930431e+01 -3.374086e+01
        vertex -9.200000e+00 7.984458e+01 -3.415542e+01
    endloop
endfacet
facet normal -1.000000e+00 0.000000e+00 0.000000e+00
    outer loop
        vertex -9.200000e+00 7.867517e+01 -3.851974e+01
        vertex -9.200000e+00 7.930431e+01 -3.374086e+01
        vertex -9.200000e+00 7.930431e+01 -3.825914e+01
    endloop
endfacet
facet normal -1.000000e+00 0.000000e+00 0.000000e+00
    outer loop
        vertex -9.200000e+00 7.800000e+01 -3.860863e+01
        vertex -9.200000e+00 7.930431e+01 -3.374086e+01
        vertex -9.200000e+00 7.867517e+01 -3.851974e+01
    endloop
endfacet
facet normal -1.000000e+00 0.000000e+00 0.000000e+00
    outer loop
        vertex -9.200000e+00 7.732483e+01 -3.851974e+01
        vertex -9.200000e+00 7.930431e+01 -3.374086e+01
        vertex -9.200000e+00 7.800000e+01 -3.860863e+01
    endloop
endfacet
facet normal -1.000000e+00 0.000000e+00 0.000000e+00
    outer loop
        vertex -9.200000e+00 7.669569e+01 -3.825914e+01
        vertex -9.200000e+00 7.930431e+01 -3.374086e+01
        vertex -9.200000e+00 7.732483e+01 -3.851974e+01
    endloop
endfacet
facet normal -1.000000e+00 0.000000e+00 0.000000e+00
    outer loop
        vertex -9.200000e+00 7.615542e+01 -3.784458e+01
        vertex -9.200000e+00 7.930431e+01 -3.374086e+01
        vertex -9.200000e+00 7.669569e+01 -3.825914e+01
    endloop
endfacet
facet normal -1.000000e+00 0.000000e+00 0.000000e+00
    outer loop
        vertex -9.200000e+00 7.574086e+01 -3.730432e+01
        vertex -9.200000e+00 7.930431e+01 -3.374086e+01
        vertex -9.200000e+00 7.615542e+01 -3.784458e+01
    endloop
endfacet
facet normal -1.000000e+00 0.000000e+00 0.000000e+00
    outer loop
        vertex -9.200000e+00 7.548026e+01 -3.667516e+01
        vertex -9.200000e+00 7.930431e+01 -3.374086e+01
        vertex -9.200000e+00 7.574086e+01 -3.730432e+01
    endloop
endfacet
facet normal -1.000000e+00 0.000000e+00 0.000000e+00
    outer loop
        vertex -9.200000e+00 7.539137e+01 -3.600000e+01
        vertex -9.200000e+00 7.930431e+01 -3.374086e+01
        vertex -9.200000e+00 7.548026e+01 -3.667516e+01
    endloop
endfacet
facet normal -1.000000e+00 0.000000e+00 0.000000e+00
    outer loop
        vertex -9.200000e+00 7.539137e+01 -3.600000e+01
        vertex -9.200000e+00 7.548026e+01 -3.532484e+01
        vertex -9.200000e+00 7.930431e+01 -3.374086e+01
    endloop
endfacet
facet normal -1.000000e+00 0.000000e+00 0.000000e+00
    outer loop
        vertex -9.200000e+00 7.548026e+01 -3.532484e+01
        vertex -9.200000e+00 7.574086e+01 -3.469568e+01
        vertex -9.200000e+00 7.930431e+01 -3.374086e+01
    endloop
endfacet
facet normal -1.000000e+00 0.000000e+00 0.000000e+00
    outer loop
        vertex -9.200000e+00 7.574086e+01 -3.469568e+01
        vertex -9.200000e+00 7.615542e+01 -3.415542e+01
        vertex -9.200000e+00 7.930431e+01 -3.374086e+01
    endloop
endfacet
facet normal -1.000000e+00 0.000000e+00 0.000000e+00
    outer loop
        vertex -9.200000e+00 7.615542e+01 -3.415542e+01
        vertex -9.200000e+00 7.669569e+01 -3.374086e+01
        vertex -9.200000e+00 7.930431e+01 -3.374086e+01
    endloop
endfacet
facet normal -1.000000e+00 0.000000e+00 0.000000e+00
    outer loop
        vertex -9.200000e+00 7.669569e+01 -3.374086e+01
        vertex -9.200000e+00 7.732483e+01 -3.348026e+01
        vertex -9.200000e+00 7.930431e+01 -3.374086e+01
    endloop
endfacet
facet normal -1.000000e+00 0.000000e+00 0.000000e+00
    outer loop
        vertex -9.200000e+00 7.732483e+01 -3.348026e+01
        vertex -9.200000e+00 7.800000e+01 -3.339137e+01
        vertex -9.200000e+00 7.930431e+01 -3.374086e+01
    endloop
endfacet
facet normal -1.000000e+00 0.000000e+00 0.000000e+00
    outer loop
        vertex -9.200000e+00 7.800000e+01 -3.339137e+01
        vertex -9.200000e+00 7.867517e+01 -3.348026e+01
        vertex -9.200000e+00 7.930431e+01 -3.374086e+01
    endloop
endfacet
facet normal 0.000000e+00 9.914469e-01 1.305112e-01
    outer loop
        vertex 8.000000e+00 7.954549e+01 -3.558589e+01
        vertex 8.000000e+00 7.960000e+01 -3.600000e+01
        vertex -8.200000e+00 7.960000e+01 -3.600000e+01
    endloop
endfacet
facet normal 0.000000e+00 9.914469e-01 1.305112e-01
    outer loop
        vertex 8.000000e+00 7.954549e+01 -3.558589e+01
        vertex -8.200000e+00 7.960000e+01 -3.600000e+01
        vertex -8.200000e+00 7.954549e+01 -3.558589e+01
    endloop
endfacet
facet normal 0.000000e+00 9.238712e-01 3.827035e-01
    outer loop
        vertex 8.000000e+00 7.938564e+01 -3.520000e+01
        vertex 8.000000e+00 7.954549e+01 -3.558589e+01
        vertex -8.200000e+00 7.954549e+01 -3.558589e+01
    endloop
endfacet
facet normal 0.000000e+00 9.238712e-01 3.827035e-01
    outer loop
        vertex 8.000000e+00 7.938564e+01 -3.520000e+01
        vertex -8.200000e+00 7.954549e+01 -3.558589e+01
        vertex -8.200000e+00 7.938564e+01 -3.520000e+01
    endloop
endfacet
facet normal 0.000000e+00 7.933595e-01 6.087534e-01
    outer loop
        vertex 8.000000e+00 7.913137e+01 -3.486863e+01
        vertex 8.000000e+00 7.938564e+01 -3.520000e+01
        vertex -8.200000e+00 7.938564e+01 -3.520000e+01
    endloop
endfacet
facet normal 0.000000e+00 7.933595e-01 6.087534e-01
    outer loop
        vertex 8.000000e+00 7.913137e+01 -3.486863e+01
        vertex -8.200000e+00 7.938564e+01 -3.520000e+01
        vertex -8.200000e+00 7.913137e+01 -3.486863e+01
    endloop
endfacet
facet normal 0.000000e+00 6.087693e-01 7.933473e-01
    outer loop
        vertex 8.000000e+00 7.880000e+01 -3.461436e+01
        vertex 8.000000e+00 7.913137e+01 -3.486863e+01
        vertex -8.200000e+00 7.913137e+01 -3.486863e+01
    endloop
endfacet
facet normal 0.000000e+00 6.087693e-01 7.933473e-01
    outer loop
        vertex 8.000000e+00 7.880000e+01 -3.461436e+01
        vertex -8.200000e+00 7.913137e+01 -3.486863e+01
        vertex -8.200000e+00 7.880000e+01 -3.461436e+01
    endloop
endfacet
facet normal 0.000000e+00 3.826768e-01 9.238822e-01
    outer loop
        vertex 8.000000e+00 7.841411e+01 -3.445452e+01
        vertex 8.000000e+00 7.880000e+01 -3.461436e+01
        vertex -8.200000e+00 7.880000e+01 -3.461436e+01
    endloop
endfacet
facet normal 0.000000e+00 3.826768e-01 9.238822e-01
    outer loop
        vertex 8.000000e+00 7.841411e+01 -3.445452e+01
        vertex -8.200000e+00 7.880000e+01 -3.461436e+01
        vertex -8.200000e+00 7.841411e+01 -3.445452e+01
    endloop
endfacet
facet normal 0.000000e+00 1.305202e-01 9.914457e-01
    outer loop
        vertex 8.000000e+00 7.800000e+01 -3.440000e+01
        vertex 8.000000e+00 7.841411e+01 -3.445452e+01
        vertex -8.200000e+00 7.841411e+01 -3.445452e+01
    endloop
endfacet
facet normal 0.000000e+00 1.305202e-01 9.914457e-01
    outer loop
        vertex 8.000000e+00 7.800000e+01 -3.440000e+01
        vertex -8.200000e+00 7.841411e+01 -3.445452e+01
        vertex -8.200000e+00 7.800000e+01 -3.440000e+01
    endloop
endfacet
facet normal 0.000000e+00 -1.305202e-01 9.914457e-01
    outer loop
        vertex 8.000000e+00 7.758589e+01 -3.445452e+01
        vertex 8.000000e+00 7.800000e+01 -3.440000e+01
        vertex -8.200000e+00 7.758589e+01 -3.445452e+01
    endloop
endfacet
facet normal 0.000000e+00 -1.305202e-01 9.914457e-01
    outer loop
        vertex -8.200000e+00 7.758589e+01 -3.445452e+01
        vertex 8.000000e+00 7.800000e+01 -3.440000e+01
        vertex -8.200000e+00 7.800000e+01 -3.440000e+01
    endloop
endfacet
facet normal 0.000000e+00 -3.826768e-01 9.238822e-01
    outer loop
        vertex 8.000000e+00 7.720000e+01 -3.461436e+01
        vertex 8.000000e+00 7.758589e+01 -3.445452e+01
        vertex -8.200000e+00 7.720000e+01 -3.461436e+01
    endloop
endfacet
facet normal 0.000000e+00 -3.826768e-01 9.238822e-01
    outer loop
        vertex -8.200000e+00 7.720000e+01 -3.461436e+01
        vertex 8.000000e+00 7.758589e+01 -3.445452e+01
        vertex -8.200000e+00 7.758589e+01 -3.445452e+01
    endloop
endfacet
facet normal 0.000000e+00 -6.087693e-01 7.933473e-01
    outer loop
        vertex 8.000000e+00 7.686863e+01 -3.486863e+01
        vertex 8.000000e+00 7.720000e+01 -3.461436e+01
        vertex -8.200000e+00 7.686863e+01 -3.486863e+01
    endloop
endfacet
facet normal 0.000000e+00 -6.087693e-01 7.933473e-01
    outer loop
        vertex -8.200000e+00 7.686863e+01 -3.486863e+01
        vertex 8.000000e+00 7.720000e+01 -3.461436e+01
        vertex -8.200000e+00 7.720000e+01 -3.461436e+01
    endloop
endfacet
facet normal 0.000000e+00 -7.933595e-01 6.087534e-01
    outer loop
        vertex 8.000000e+00 7.661436e+01 -3.520000e+01
        vertex 8.000000e+00 7.686863e+01 -3.486863e+01
        vertex -8.200000e+00 7.661436e+01 -3.520000e+01
    endloop
endfacet
facet normal 0.000000e+00 -7.933595e-01 6.087534e-01
    outer loop
        vertex -8.200000e+00 7.661436e+01 -3.520000e+01
        vertex 8.000000e+00 7.686863e+01 -3.486863e+01
        vertex -8.200000e+00 7.686863e+01 -3.486863e+01
    endloop
endfacet
facet normal 0.000000e+00 -9.238712e-01 3.827035e-01
    outer loop
        vertex 8.000000e+00 7.645451e+01 -3.558589e+01
        vertex 8.000000e+00 7.661436e+01 -3.520000e+01
        vertex -8.200000e+00 7.645451e+01 -3.558589e+01
    endloop
endfacet
facet normal 0.000000e+00 -9.238712e-01 3.827035e-01
    outer loop
        vertex -8.200000e+00 7.645451e+01 -3.558589e+01
        vertex 8.000000e+00 7.661436e+01 -3.520000e+01
        vertex -8.200000e+00 7.661436e+01 -3.520000e+01
    endloop
endfacet
facet normal 0.000000e+00 -9.914469e-01 1.305112e-01
    outer loop
        vertex 8.000000e+00 7.640000e+01 -3.600000e+01
        vertex 8.000000e+00 7.645451e+01 -3.558589e+01
        vertex -8.200000e+00 7.640000e+01 -3.600000e+01
    endloop
endfacet
facet normal 0.000000e+00 -9.914469e-01 1.305112e-01
    outer loop
        vertex -8.200000e+00 7.640000e+01 -3.600000e+01
        vertex 8.000000e+00 7.645451e+01 -3.558589e+01
        vertex -8.200000e+00 7.645451e+01 -3.558589e+01
    endloop
endfacet
facet normal 0.000000e+00 -9.914469e-01 -1.305112e-01
    outer loop
        vertex 8.000000e+00 7.640000e+01 -3.600000e+01
        vertex -8.200000e+00 7.645451e+01 -3.641411e+01
        vertex 8.000000e+00 7.645451e+01 -3.641411e+01
    endloop
endfacet
facet normal -0.000000e+00 -9.914469e-01 -1.305112e-01
    outer loop
        vertex 8.000000e+00 7.640000e+01 -3.600000e+01
        vertex -8.200000e+00 7.640000e+01 -3.600000e+01
        vertex -8.200000e+00 7.645451e+01 -3.641411e+01
    endloop
endfacet
facet normal 0.000000e+00 -9.238712e-01 -3.827035e-01
    outer loop
        vertex 8.000000e+00 7.645451e+01 -3.641411e+01
        vertex -8.200000e+00 7.661436e+01 -3.680000e+01
        vertex 8.000000e+00 7.661436e+01 -3.680000e+01
    endloop
endfacet
facet normal -0.000000e+00 -9.238712e-01 -3.827035e-01
    outer loop
        vertex 8.000000e+00 7.645451e+01 -3.641411e+01
        vertex -8.200000e+00 7.645451e+01 -3.641411e+01
        vertex -8.200000e+00 7.661436e+01 -3.680000e+01
    endloop
endfacet
facet normal 0.000000e+00 -7.933595e-01 -6.087534e-01
    outer loop
        vertex 8.000000e+00 7.661436e+01 -3.680000e+01
        vertex -8.200000e+00 7.686863e+01 -3.713137e+01
        vertex 8.000000e+00 7.686863e+01 -3.713137e+01
    endloop
endfacet
facet normal -0.000000e+00 -7.933595e-01 -6.087534e-01
    outer loop
        vertex 8.000000e+00 7.661436e+01 -3.680000e+01
        vertex -8.200000e+00 7.661436e+01 -3.680000e+01
        vertex -8.200000e+00 7.686863e+01 -3.713137e+01
    endloop
endfacet
facet normal 0.000000e+00 -6.087693e-01 -7.933473e-01
    outer loop
        vertex 8.000000e+00 7.686863e+01 -3.713137e+01
        vertex -8.200000e+00 7.720000e+01 -3.738564e+01
        vertex 8.000000e+00 7.720000e+01 -3.738564e+01
    endloop
endfacet
facet normal -0.000000e+00 -6.087693e-01 -7.933473e-01
    outer loop
        vertex 8.000000e+00 7.686863e+01 -3.713137e+01
        vertex -8.200000e+00 7.686863e+01 -3.713137e+01
        vertex -8.200000e+00 7.720000e+01 -3.738564e+01
    endloop
endfacet
facet normal 0.000000e+00 -3.826768e-01 -9.238822e-01
    outer loop
        vertex 8.000000e+00 7.720000e+01 -3.738564e+01
        vertex -8.200000e+00 7.758589e+01 -3.754548e+01
        vertex 8.000000e+00 7.758589e+01 -3.754548e+01
    endloop
endfacet
facet normal -0.000000e+00 -3.826768e-01 -9.238822e-01
    outer loop
        vertex 8.000000e+00 7.720000e+01 -3.738564e+01
        vertex -8.200000e+00 7.720000e+01 -3.738564e+01
        vertex -8.200000e+00 7.758589e+01 -3.754548e+01
    endloop
endfacet
facet normal 0.000000e+00 -1.305202e-01 -9.914457e-01
    outer loop
        vertex 8.000000e+00 7.758589e+01 -3.754548e+01
        vertex -8.200000e+00 7.800000e+01 -3.760000e+01
        vertex 8.000000e+00 7.800000e+01 -3.760000e+01
    endloop
endfacet
facet normal -0.000000e+00 -1.305202e-01 -9.914457e-01
    outer loop
        vertex 8.000000e+00 7.758589e+01 -3.754548e+01
        vertex -8.200000e+00 7.758589e+01 -3.754548e+01
        vertex -8.200000e+00 7.800000e+01 -3.760000e+01
    endloop
endfacet
facet normal 0.000000e+00 1.305202e-01 -9.914457e-01
    outer loop
        vertex 8.000000e+00 7.800000e+01 -3.760000e+01
        vertex -8.200000e+00 7.800000e+01 -3.760000e+01
        vertex 8.000000e+00 7.841411e+01 -3.754548e+01
    endloop
endfacet
facet normal 0.000000e+00 1.305202e-01 -9.914457e-01
    outer loop
        vertex -8.200000e+00 7.800000e+01 -3.760000e+01
        vertex -8.200000e+00 7.841411e+01 -3.754548e+01
        vertex 8.000000e+00 7.841411e+01 -3.754548e+01
    endloop
endfacet
facet normal 0.000000e+00 3.826768e-01 -9.238822e-01
    outer loop
        vertex 8.000000e+00 7.841411e+01 -3.754548e+01
        vertex -8.200000e+00 7.841411e+01 -3.754548e+01
        vertex 8.000000e+00 7.880000e+01 -3.738564e+01
    endloop
endfacet
facet normal 0.000000e+00 3.826768e-01 -9.238822e-01
    outer loop
        vertex -8.200000e+00 7.841411e+01 -3.754548e+01
        vertex -8.200000e+00 7.880000e+01 -3.738564e+01
        vertex 8.000000e+00 7.880000e+01 -3.738564e+01
    endloop
endfacet
facet normal 0.000000e+00 6.087693e-01 -7.933473e-01
    outer loop
        vertex 8.000000e+00 7.880000e+01 -3.738564e+01
        vertex -8.200000e+00 7.880000e+01 -3.738564e+01
        vertex 8.000000e+00 7.913137e+01 -3.713137e+01
    endloop
endfacet
facet normal 0.000000e+00 6.087693e-01 -7.933473e-01
    outer loop
        vertex -8.200000e+00 7.880000e+01 -3.738564e+01
        vertex -8.200000e+00 7.913137e+01 -3.713137e+01
        vertex 8.000000e+00 7.913137e+01 -3.713137e+01
    endloop
endfacet
facet normal 0.000000e+00 7.933595e-01 -6.087534e-01
    outer loop
        vertex 8.000000e+00 7.913137e+01 -3.713137e+01
        vertex -8.200000e+00 7.913137e+01 -3.713137e+01
        vertex 8.000000e+00 7.938564e+01 -3.680000e+01
    endloop
endfacet
facet normal 0.000000e+00 7.933595e-01 -6.087534e-01
    outer loop
        vertex -8.200000e+00 7.913137e+01 -3.713137e+01
        vertex -8.200000e+00 7.938564e+01 -3.680000e+01
        vertex 8.000000e+00 7.938564e+01 -3.680000e+01
    endloop
endfacet
facet normal 0.000000e+00 9.238712e-01 -3.827035e-01
    outer loop
        vertex 8.000000e+00 7.938564e+01 -3.680000e+01
        vertex -8.200000e+00 7.938564e+01 -3.680000e+01
        vertex 8.000000e+00 7.954549e+01 -3.641411e+01
    endloop
endfacet
facet normal 0.000000e+00 9.238712e-01 -3.827035e-01
    outer loop
        vertex -8.200000e+00 7.938564e+01 -3.680000e+01
        vertex -8.200000e+00 7.954549e+01 -3.641411e+01
        vertex 8.000000e+00 7.954549e+01 -3.641411e+01
    endloop
endfacet
facet normal 0.000000e+00 9.914469e-01 -1.305112e-01
    outer loop
        vertex 8.000000e+00 7.954549e+01 -3.641411e+01
        vertex -8.200000e+00 7.954549e+01 -3.641411e+01
        vertex 8.000000e+00 7.960000e+01 -3.600000e+01
    endloop
endfacet
facet normal 0.000000e+00 9.914469e-01 -1.305112e-01
    outer loop
        vertex -8.200000e+00 7.954549e+01 -3.641411e+01
        vertex -8.200000e+00 7.960000e+01 -3.600000e+01
        vertex 8.000000e+00 7.960000e+01 -3.600000e+01
    endloop
endfacet
facet normal 1.000000e+00 0.000000e+00 0.000000e+00
    outer loop
        vertex 8.000000e+00 7.938564e+01 -3.520000e+01
        vertex 8.000000e+00 7.960000e+01 -3.600000e+01
        vertex 8.000000e+00 7.954549e+01 -3.558589e+01
    endloop
endfacet
facet normal 1.000000e+00 0.000000e+00 0.000000e+00
    outer loop
        vertex 8.000000e+00 7.938564e+01 -3.520000e+01
        vertex 8.000000e+00 7.954549e+01 -3.641411e+01
        vertex 8.000000e+00 7.960000e+01 -3.600000e+01
    endloop
endfacet
facet normal 1.000000e+00 0.000000e+00 0.000000e+00
    outer loop
        vertex 8.000000e+00 7.938564e+01 -3.680000e+01
        vertex 8.000000e+00 7.954549e+01 -3.641411e+01
        vertex 8.000000e+00 7.938564e+01 -3.520000e+01
    endloop
endfacet
facet normal 1.000000e+00 0.000000e+00 0.000000e+00
    outer loop
        vertex 8.000000e+00 7.913137e+01 -3.486863e+01
        vertex 8.000000e+00 7.938564e+01 -3.680000e+01
        vertex 8.000000e+00 7.938564e+01 -3.520000e+01
    endloop
endfacet
facet normal 1.000000e+00 0.000000e+00 0.000000e+00
    outer loop
        vertex 8.000000e+00 7.880000e+01 -3.461436e+01
        vertex 8.000000e+00 7.938564e+01 -3.680000e+01
        vertex 8.000000e+00 7.913137e+01 -3.486863e+01
    endloop
endfacet
facet normal 1.000000e+00 0.000000e+00 0.000000e+00
    outer loop
        vertex 8.000000e+00 7.841411e+01 -3.445452e+01
        vertex 8.000000e+00 7.938564e+01 -3.680000e+01
        vertex 8.000000e+00 7.880000e+01 -3.461436e+01
    endloop
endfacet
facet normal 1.000000e+00 0.000000e+00 0.000000e+00
    outer loop
        vertex 8.000000e+00 7.800000e+01 -3.440000e+01
        vertex 8.000000e+00 7.938564e+01 -3.680000e+01
        vertex 8.000000e+00 7.841411e+01 -3.445452e+01
    endloop
endfacet
facet normal 1.000000e+00 -0.000000e+00 0.000000e+00
    outer loop
        vertex 8.000000e+00 7.758589e+01 -3.445452e+01
        vertex 8.000000e+00 7.938564e+01 -3.680000e+01
        vertex 8.000000e+00 7.800000e+01 -3.440000e+01
    endloop
endfacet
facet normal 1.000000e+00 -0.000000e+00 0.000000e+00
    outer loop
        vertex 8.000000e+00 7.720000e+01 -3.461436e+01
        vertex 8.000000e+00 7.938564e+01 -3.680000e+01
        vertex 8.000000e+00 7.758589e+01 -3.445452e+01
    endloop
endfacet
facet normal 1.000000e+00 -0.000000e+00 0.000000e+00
    outer loop
        vertex 8.000000e+00 7.686863e+01 -3.486863e+01
        vertex 8.000000e+00 7.938564e+01 -3.680000e+01
        vertex 8.000000e+00 7.720000e+01 -3.461436e+01
    endloop
endfacet
facet normal 1.000000e+00 -0.000000e+00 0.000000e+00
    outer loop
        vertex 8.000000e+00 7.661436e+01 -3.520000e+01
        vertex 8.000000e+00 7.938564e+01 -3.680000e+01
        vertex 8.000000e+00 7.686863e+01 -3.486863e+01
    endloop
endfacet
facet normal 1.000000e+00 -0.000000e+00 0.000000e+00
    outer loop
        vertex 8.000000e+00 7.645451e+01 -3.558589e+01
        vertex 8.000000e+00 7.938564e+01 -3.680000e+01
        vertex 8.000000e+00 7.661436e+01 -3.520000e+01
    endloop
endfacet
facet normal 1.000000e+00 0.000000e+00 0.000000e+00
    outer loop
        vertex 8.000000e+00 7.645451e+01 -3.558589e+01
        vertex 8.000000e+00 7.913137e+01 -3.713137e+01
        vertex 8.000000e+00 7.938564e+01 -3.680000e+01
    endloop
endfacet
facet normal 1.000000e+00 0.000000e+00 0.000000e+00
    outer loop
        vertex 8.000000e+00 7.645451e+01 -3.558589e+01
        vertex 8.000000e+00 7.880000e+01 -3.738564e+01
        vertex 8.000000e+00 7.913137e+01 -3.713137e+01
    endloop
endfacet
facet normal 1.000000e+00 0.000000e+00 0.000000e+00
    outer loop
        vertex 8.000000e+00 7.645451e+01 -3.558589e+01
        vertex 8.000000e+00 7.841411e+01 -3.754548e+01
        vertex 8.000000e+00 7.880000e+01 -3.738564e+01
    endloop
endfacet
facet normal 1.000000e+00 0.000000e+00 0.000000e+00
    outer loop
        vertex 8.000000e+00 7.645451e+01 -3.558589e+01
        vertex 8.000000e+00 7.800000e+01 -3.760000e+01
        vertex 8.000000e+00 7.841411e+01 -3.754548e+01
    endloop
endfacet
facet normal 1.000000e+00 0.000000e+00 0.000000e+00
    outer loop
        vertex 8.000000e+00 7.645451e+01 -3.558589e+01
        vertex 8.000000e+00 7.758589e+01 -3.754548e+01
        vertex 8.000000e+00 7.800000e+01 -3.760000e+01
    endloop
endfacet
facet normal 1.000000e+00 0.000000e+00 0.000000e+00
    outer loop
        vertex 8.000000e+00 7.645451e+01 -3.558589e+01
        vertex 8.000000e+00 7.720000e+01 -3.738564e+01
        vertex 8.000000e+00 7.758589e+01 -3.754548e+01
    endloop
endfacet
facet normal 1.000000e+00 0.000000e+00 0.000000e+00
    outer loop
        vertex 8.000000e+00 7.645451e+01 -3.558589e+01
        vertex 8.000000e+00 7.686863e+01 -3.713137e+01
        vertex 8.000000e+00 7.720000e+01 -3.738564e+01
    endloop
endfacet
facet normal 1.000000e+00 0.000000e+00 0.000000e+00
    outer loop
        vertex 8.000000e+00 7.645451e+01 -3.558589e+01
        vertex 8.000000e+00 7.661436e+01 -3.680000e+01
        vertex 8.000000e+00 7.686863e+01 -3.713137e+01
    endloop
endfacet
facet normal 1.000000e+00 -0.000000e+00 0.000000e+00
    outer loop
        vertex 8.000000e+00 7.640000e+01 -3.600000e+01
        vertex 8.000000e+00 7.661436e+01 -3.680000e+01
        vertex 8.000000e+00 7.645451e+01 -3.558589e+01
    endloop
endfacet
facet normal 1.000000e+00 0.000000e+00 0.000000e+00
    outer loop
        vertex 8.000000e+00 7.640000e+01 -3.600000e+01
        vertex 8.000000e+00 7.645451e+01 -3.641411e+01
        vertex 8.000000e+00 7.661436e+01 -3.680000e+01
    endloop
endfacet
facet normal 0.000000e+00 9.914457e-01 -1.305197e-01
    outer loop
        vertex -8.200000e+00 8.051974e+01 -3.667516e+01
        vertex -9.200000e+00 8.051974e+01 -3.667516e+01
        vertex -8.200000e+00 8.060863e+01 -3.600000e+01
    endloop
endfacet
facet normal 0.000000e+00 9.914457e-01 -1.305197e-01
    outer loop
        vertex -9.200000e+00 8.051974e+01 -3.667516e+01
        vertex -9.200000e+00 8.060863e+01 -3.600000e+01
        vertex -8.200000e+00 8.060863e+01 -3.600000e+01
    endloop
endfacet
facet normal 0.000000e+00 9.914457e-01 1.305197e-01
    outer loop
        vertex -8.200000e+00 8.051974e+01 -3.532484e+01
        vertex -8.200000e+00 8.060863e+01 -3.600000e+01
        vertex -9.200000e+00 8.060863e+01 -3.600000e+01
    endloop
endfacet
facet normal 0.000000e+00 9.914457e-01 1.305197e-01
    outer loop
        vertex -8.200000e+00 8.051974e+01 -3.532484e+01
        vertex -9.200000e+00 8.060863e+01 -3.600000e+01
        vertex -9.200000e+00 8.051974e+01 -3.532484e+01
    endloop
endfacet
facet normal 0.000000e+00 9.238792e-01 3.826843e-01
    outer loop
        vertex -8.200000e+00 8.025914e+01 -3.469568e+01
        vertex -8.200000e+00 8.051974e+01 -3.532484e+01
        vertex -9.200000e+00 8.051974e+01 -3.532484e+01
    endloop
endfacet
facet normal 0.000000e+00 9.238792e-01 3.826843e-01
    outer loop
        vertex -8.200000e+00 8.025914e+01 -3.469568e+01
        vertex -9.200000e+00 8.051974e+01 -3.532484e+01
        vertex -9.200000e+00 8.025914e+01 -3.469568e+01
    endloop
endfacet
facet normal 0.000000e+00 7.933518e-01 6.087633e-01
    outer loop
        vertex -8.200000e+00 7.984458e+01 -3.415542e+01
        vertex -8.200000e+00 8.025914e+01 -3.469568e+01
        vertex -9.200000e+00 8.025914e+01 -3.469568e+01
    endloop
endfacet
facet normal 0.000000e+00 7.933518e-01 6.087633e-01
    outer loop
        vertex -8.200000e+00 7.984458e+01 -3.415542e+01
        vertex -9.200000e+00 8.025914e+01 -3.469568e+01
        vertex -9.200000e+00 7.984458e+01 -3.415542e+01
    endloop
endfacet
facet normal 0.000000e+00 6.087615e-01 7.933533e-01
    outer loop
        vertex -8.200000e+00 7.930431e+01 -3.374086e+01
        vertex -8.200000e+00 7.984458e+01 -3.415542e+01
        vertex -9.200000e+00 7.984458e+01 -3.415542e+01
    endloop
endfacet
facet normal 0.000000e+00 6.087615e-01 7.933533e-01
    outer loop
        vertex -8.200000e+00 7.930431e+01 -3.374086e+01
        vertex -9.200000e+00 7.984458e+01 -3.415542e+01
        vertex -9.200000e+00 7.930431e+01 -3.374086e+01
    endloop
endfacet
facet normal 0.000000e+00 3.826854e-01 9.238787e-01
    outer loop
        vertex -8.200000e+00 7.867517e+01 -3.348026e+01
        vertex -8.200000e+00 7.930431e+01 -3.374086e+01
        vertex -9.200000e+00 7.930431e+01 -3.374086e+01
    endloop
endfacet
facet normal 0.000000e+00 3.826854e-01 9.238787e-01
    outer loop
        vertex -8.200000e+00 7.867517e+01 -3.348026e+01
        vertex -9.200000e+00 7.930431e+01 -3.374086e+01
        vertex -9.200000e+00 7.867517e+01 -3.348026e+01
    endloop
endfacet
facet normal 0.000000e+00 1.305238e-01 9.914452e-01
    outer loop
        vertex -8.200000e+00 7.800000e+01 -3.339137e+01
        vertex -8.200000e+00 7.867517e+01 -3.348026e+01
        vertex -9.200000e+00 7.867517e+01 -3.348026e+01
    endloop
endfacet
facet normal 0.000000e+00 1.305238e-01 9.914452e-01
    outer loop
        vertex -8.200000e+00 7.800000e+01 -3.339137e+01
        vertex -9.200000e+00 7.867517e+01 -3.348026e+01
        vertex -9.200000e+00 7.800000e+01 -3.339137e+01
    endloop
endfacet
facet normal 0.000000e+00 -1.305238e-01 9.914452e-01
    outer loop
        vertex -8.200000e+00 7.732483e+01 -3.348026e+01
        vertex -8.200000e+00 7.800000e+01 -3.339137e+01
        vertex -9.200000e+00 7.732483e+01 -3.348026e+01
    endloop
endfacet
facet normal 0.000000e+00 -1.305238e-01 9.914452e-01
    outer loop
        vertex -9.200000e+00 7.732483e+01 -3.348026e+01
        vertex -8.200000e+00 7.800000e+01 -3.339137e+01
        vertex -9.200000e+00 7.800000e+01 -3.339137e+01
    endloop
endfacet
facet normal 0.000000e+00 -3.826854e-01 9.238787e-01
    outer loop
        vertex -8.200000e+00 7.669569e+01 -3.374086e+01
        vertex -8.200000e+00 7.732483e+01 -3.348026e+01
        vertex -9.200000e+00 7.669569e+01 -3.374086e+01
    endloop
endfacet
facet normal 0.000000e+00 -3.826854e-01 9.238787e-01
    outer loop
        vertex -9.200000e+00 7.669569e+01 -3.374086e+01
        vertex -8.200000e+00 7.732483e+01 -3.348026e+01
        vertex -9.200000e+00 7.732483e+01 -3.348026e+01
    endloop
endfacet
facet normal 0.000000e+00 -6.087615e-01 7.933533e-01
    outer loop
        vertex -8.200000e+00 7.615542e+01 -3.415542e+01
        vertex -8.200000e+00 7.669569e+01 -3.374086e+01
        vertex -9.200000e+00 7.615542e+01 -3.415542e+01
    endloop
endfacet
facet normal 0.000000e+00 -6.087615e-01 7.933533e-01
    outer loop
        vertex -9.200000e+00 7.615542e+01 -3.415542e+01
        vertex -8.200000e+00 7.669569e+01 -3.374086e+01
        vertex -9.200000e+00 7.669569e+01 -3.374086e+01
    endloop
endfacet
facet normal 0.000000e+00 -7.933518e-01 6.087633e-01
    outer loop
        vertex -8.200000e+00 7.574086e+01 -3.469568e+01
        vertex -8.200000e+00 7.615542e+01 -3.415542e+01
        vertex -9.200000e+00 7.574086e+01 -3.469568e+01
    endloop
endfacet
facet normal 0.000000e+00 -7.933518e-01 6.087633e-01
    outer loop
        vertex -9.200000e+00 7.574086e+01 -3.469568e+01
        vertex -8.200000e+00 7.615542e+01 -3.415542e+01
        vertex -9.200000e+00 7.615542e+01 -3.415542e+01
    endloop
endfacet
facet normal 0.000000e+00 -9.238792e-01 3.826843e-01
    outer loop
        vertex -8.200000e+00 7.548026e+01 -3.532484e+01
        vertex -8.200000e+00 7.574086e+01 -3.469568e+01
        vertex -9.200000e+00 7.548026e+01 -3.532484e+01
    endloop
endfacet
facet normal 0.000000e+00 -9.238792e-01 3.826843e-01
    outer loop
        vertex -9.200000e+00 7.548026e+01 -3.532484e+01
        vertex -8.200000e+00 7.574086e+01 -3.469568e+01
        vertex -9.200000e+00 7.574086e+01 -3.469568e+01
    endloop
endfacet
facet normal 0.000000e+00 -9.914457e-01 1.305197e-01
    outer loop
        vertex -8.200000e+00 7.539137e+01 -3.600000e+01
        vertex -8.200000e+00 7.548026e+01 -3.532484e+01
        vertex -9.200000e+00 7.539137e+01 -3.600000e+01
    endloop
endfacet
facet normal 0.000000e+00 -9.914457e-01 1.305197e-01
    outer loop
        vertex -9.200000e+00 7.539137e+01 -3.600000e+01
        vertex -8.200000e+00 7.548026e+01 -3.532484e+01
        vertex -9.200000e+00 7.548026e+01 -3.532484e+01
    endloop
endfacet
facet normal 0.000000e+00 -9.914457e-01 -1.305197e-01
    outer loop
        vertex -8.200000e+00 7.539137e+01 -3.600000e+01
        vertex -9.200000e+00 7.548026e+01 -3.667516e+01
        vertex -8.200000e+00 7.548026e+01 -3.667516e+01
    endloop
endfacet
facet normal -0.000000e+00 -9.914457e-01 -1.305197e-01
    outer loop
        vertex -8.200000e+00 7.539137e+01 -3.600000e+01
        vertex -9.200000e+00 7.539137e+01 -3.600000e+01
        vertex -9.200000e+00 7.548026e+01 -3.667516e+01
    endloop
endfacet
facet normal 0.000000e+00 -9.238792e-01 -3.826843e-01
    outer loop
        vertex -8.200000e+00 7.548026e+01 -3.667516e+01
        vertex -9.200000e+00 7.574086e+01 -3.730432e+01
        vertex -8.200000e+00 7.574086e+01 -3.730432e+01
    endloop
endfacet
facet normal -0.000000e+00 -9.238792e-01 -3.826843e-01
    outer loop
        vertex -8.200000e+00 7.548026e+01 -3.667516e+01
        vertex -9.200000e+00 7.548026e+01 -3.667516e+01
        vertex -9.200000e+00 7.574086e+01 -3.730432e+01
    endloop
endfacet
facet normal 0.000000e+00 -7.933518e-01 -6.087633e-01
    outer loop
        vertex -8.200000e+00 7.574086e+01 -3.730432e+01
        vertex -9.200000e+00 7.615542e+01 -3.784458e+01
        vertex -8.200000e+00 7.615542e+01 -3.784458e+01
    endloop
endfacet
facet normal -0.000000e+00 -7.933518e-01 -6.087633e-01
    outer loop
        vertex -8.200000e+00 7.574086e+01 -3.730432e+01
        vertex -9.200000e+00 7.574086e+01 -3.730432e+01
        vertex -9.200000e+00 7.615542e+01 -3.784458e+01
    endloop
endfacet
facet normal 0.000000e+00 -6.087615e-01 -7.933533e-01
    outer loop
        vertex -8.200000e+00 7.615542e+01 -3.784458e+01
        vertex -9.200000e+00 7.669569e+01 -3.825914e+01
        vertex -8.200000e+00 7.669569e+01 -3.825914e+01
    endloop
endfacet
facet normal -0.000000e+00 -6.087615e-01 -7.933533e-01
    outer loop
        vertex -8.200000e+00 7.615542e+01 -3.784458e+01
        vertex -9.200000e+00 7.615542e+01 -3.784458e+01
        vertex -9.200000e+00 7.669569e+01 -3.825914e+01
    endloop
endfacet
facet normal 0.000000e+00 -3.826854e-01 -9.238787e-01
    outer loop
        vertex -8.200000e+00 7.669569e+01 -3.825914e+01
        vertex -9.200000e+00 7.732483e+01 -3.851974e+01
        vertex -8.200000e+00 7.732483e+01 -3.851974e+01
    endloop
endfacet
facet normal -0.000000e+00 -3.826854e-01 -9.238787e-01
    outer loop
        vertex -8.200000e+00 7.669569e+01 -3.825914e+01
        vertex -9.200000e+00 7.669569e+01 -3.825914e+01
        vertex -9.200000e+00 7.732483e+01 -3.851974e+01
    endloop
endfacet
facet normal 0.000000e+00 -1.305238e-01 -9.914452e-01
    outer loop
        vertex -8.200000e+00 7.732483e+01 -3.851974e+01
        vertex -9.200000e+00 7.800000e+01 -3.860863e+01
        vertex -8.200000e+00 7.800000e+01 -3.860863e+01
    endloop
endfacet
facet normal -0.000000e+00 -1.305238e-01 -9.914452e-01
    outer loop
        vertex -8.200000e+00 7.732483e+01 -3.851974e+01
        vertex -9.200000e+00 7.732483e+01 -3.851974e+01
        vertex -9.200000e+00 7.800000e+01 -3.860863e+01
    endloop
endfacet
facet normal 0.000000e+00 1.305238e-01 -9.914452e-01
    outer loop
        vertex -8.200000e+00 7.800000e+01 -3.860863e+01
        vertex -9.200000e+00 7.800000e+01 -3.860863e+01
        vertex -8.200000e+00 7.867517e+01 -3.851974e+01
    endloop
endfacet
facet normal 0.000000e+00 1.305238e-01 -9.914452e-01
    outer loop
        vertex -9.200000e+00 7.800000e+01 -3.860863e+01
        vertex -9.200000e+00 7.867517e+01 -3.851974e+01
        vertex -8.200000e+00 7.867517e+01 -3.851974e+01
    endloop
endfacet
facet normal 0.000000e+00 3.826854e-01 -9.238787e-01
    outer loop
        vertex -8.200000e+00 7.867517e+01 -3.851974e+01
        vertex -9.200000e+00 7.867517e+01 -3.851974e+01
        vertex -8.200000e+00 7.930431e+01 -3.825914e+01
    endloop
endfacet
facet normal 0.000000e+00 3.826854e-01 -9.238787e-01
    outer loop
        vertex -9.200000e+00 7.867517e+01 -3.851974e+01
        vertex -9.200000e+00 7.930431e+01 -3.825914e+01
        vertex -8.200000e+00 7.930431e+01 -3.825914e+01
    endloop
endfacet
facet normal 0.000000e+00 6.087615e-01 -7.933533e-01
    outer loop
        vertex -8.200000e+00 7.930431e+01 -3.825914e+01
        vertex -9.200000e+00 7.930431e+01 -3.825914e+01
        vertex -8.200000e+00 7.984458e+01 -3.784458e+01
    endloop
endfacet
facet normal 0.000000e+00 6.087615e-01 -7.933533e-01
    outer loop
        vertex -9.200000e+00 7.930431e+01 -3.825914e+01
        vertex -9.200000e+00 7.984458e+01 -3.784458e+01
        vertex -8.200000e+00 7.984458e+01 -3.784458e+01
    endloop
endfacet
facet normal 0.000000e+00 7.933518e-01 -6.087633e-01
    outer loop
        vertex -8.200000e+00 7.984458e+01 -3.784458e+01
        vertex -9.200000e+00 7.984458e+01 -3.784458e+01
        vertex -8.200000e+00 8.025914e+01 -3.730432e+01
    endloop
endfacet
facet normal 0.000000e+00 7.933518e-01 -6.087633e-01
    outer loop
        vertex -9.200000e+00 7.984458e+01 -3.784458e+01
        vertex -9.200000e+00 8.025914e+01 -3.730432e+01
        vertex -8.200000e+00 8.025914e+01 -3.730432e+01
    endloop
endfacet
facet normal 0.000000e+00 9.238792e-01 -3.826843e-01
    outer loop
        vertex -8.200000e+00 8.025914e+01 -3.730432e+01
        vertex -9.200000e+00 8.025914e+01 -3.730432e+01
        vertex -8.200000e+00 8.051974e+01 -3.667516e+01
    endloop
endfacet
facet normal 0.000000e+00 9.238792e-01 -3.826843e-01
    outer loop
        vertex -9.200000e+00 8.025914e+01 -3.730432e+01
        vertex -9.200000e+00 8.051974e+01 -3.667516e+01
        vertex -8.200000e+00 8.051974e+01 -3.667516e+01
    endloop
endfacet
facet normal 1.000000e+00 -0.000000e+00 0.000000e+00
    outer loop
        vertex -8.200000e+00 5.748026e+01 -9.324838e+00
        vertex -8.200000e+00 5.845452e+01 -9.585890e+00
        vertex -8.200000e+00 5.774086e+01 -8.695683e+00
    endloop
endfacet
facet normal 1.000000e+00 0.000000e+00 0.000000e+00
    outer loop
        vertex -8.200000e+00 5.739137e+01 -1.000000e+01
        vertex -8.200000e+00 5.845452e+01 -9.585890e+00
        vertex -8.200000e+00 5.748026e+01 -9.324838e+00
    endloop
endfacet
facet normal 1.000000e+00 -0.000000e+00 0.000000e+00
    outer loop
        vertex -8.200000e+00 5.739137e+01 -1.000000e+01
        vertex -8.200000e+00 5.748026e+01 -1.067516e+01
        vertex -8.200000e+00 5.845452e+01 -9.585890e+00
    endloop
endfacet
facet normal 1.000000e+00 -0.000000e+00 0.000000e+00
    outer loop
        vertex -8.200000e+00 5.774086e+01 -8.695683e+00
        vertex -8.200000e+00 5.845452e+01 -9.585890e+00
        vertex -8.200000e+00 5.815542e+01 -8.155422e+00
    endloop
endfacet
facet normal 1.000000e+00 -0.000000e+00 0.000000e+00
    outer loop
        vertex -8.200000e+00 5.748026e+01 -1.067516e+01
        vertex -8.200000e+00 5.774086e+01 -1.130432e+01
        vertex -8.200000e+00 5.845452e+01 -9.585890e+00
    endloop
endfacet
facet normal 1.000000e+00 -0.000000e+00 0.000000e+00
    outer loop
        vertex -8.200000e+00 5.815542e+01 -8.155422e+00
        vertex -8.200000e+00 5.845452e+01 -9.585890e+00
        vertex -8.200000e+00 5.869569e+01 -7.740861e+00
    endloop
endfacet
facet normal 1.000000e+00 0.000000e+00 0.000000e+00
    outer loop
        vertex -8.200000e+00 5.845452e+01 -9.585890e+00
        vertex -8.200000e+00 5.932483e+01 -7.480258e+00
        vertex -8.200000e+00 5.869569e+01 -7.740861e+00
    endloop
endfacet
facet normal 1.000000e+00 -0.000000e+00 0.000000e+00
    outer loop
        vertex -8.200000e+00 5.774086e+01 -1.130432e+01
        vertex -8.200000e+00 5.815542e+01 -1.184458e+01
        vertex -8.200000e+00 5.845452e+01 -9.585890e+00
    endloop
endfacet
facet normal 1.000000e+00 0.000000e+00 0.000000e+00
    outer loop
        vertex -8.200000e+00 6.225914e+01 -1.130432e+01
        vertex -8.200000e+00 6.251974e+01 -1.067516e+01
        vertex -8.200000e+00 6.260863e+01 -1.000000e+01
    endloop
endfacet
facet normal 1.000000e+00 0.000000e+00 0.000000e+00
    outer loop
        vertex -8.200000e+00 6.184458e+01 -1.184458e+01
        vertex -8.200000e+00 6.225914e+01 -1.130432e+01
        vertex -8.200000e+00 6.260863e+01 -1.000000e+01
    endloop
endfacet
facet normal 1.000000e+00 0.000000e+00 0.000000e+00
    outer loop
        vertex -8.200000e+00 6.130431e+01 -1.225914e+01
        vertex -8.200000e+00 6.184458e+01 -1.184458e+01
        vertex -8.200000e+00 6.260863e+01 -1.000000e+01
    endloop
endfacet
facet normal 1.000000e+00 0.000000e+00 0.000000e+00
    outer loop
        vertex -8.200000e+00 6.067517e+01 -1.251974e+01
        vertex -8.200000e+00 6.130431e+01 -1.225914e+01
        vertex -8.200000e+00 6.260863e+01 -1.000000e+01
    endloop
endfacet
facet normal 1.000000e+00 0.000000e+00 0.000000e+00
    outer loop
        vertex -8.200000e+00 6.000000e+01 -1.260863e+01
        vertex -8.200000e+00 6.067517e+01 -1.251974e+01
        vertex -8.200000e+00 6.260863e+01 -1.000000e+01
    endloop
endfacet
facet normal 1.000000e+00 -0.000000e+00 0.000000e+00
    outer loop
        vertex -8.200000e+00 5.932483e+01 -1.251974e+01
        vertex -8.200000e+00 6.000000e+01 -1.260863e+01
        vertex -8.200000e+00 6.260863e+01 -1.000000e+01
    endloop
endfacet
facet normal 1.000000e+00 0.000000e+00 0.000000e+00
    outer loop
        vertex -8.200000e+00 6.225914e+01 -8.695683e+00
        vertex -8.200000e+00 6.260863e+01 -1.000000e+01
        vertex -8.200000e+00 6.251974e+01 -9.324838e+00
    endloop
endfacet
facet normal 1.000000e+00 0.000000e+00 0.000000e+00
    outer loop
        vertex -8.200000e+00 6.184458e+01 -8.155422e+00
        vertex -8.200000e+00 6.260863e+01 -1.000000e+01
        vertex -8.200000e+00 6.225914e+01 -8.695683e+00
    endloop
endfacet
facet normal 1.000000e+00 0.000000e+00 0.000000e+00
    outer loop
        vertex -8.200000e+00 6.130431e+01 -7.740861e+00
        vertex -8.200000e+00 6.260863e+01 -1.000000e+01
        vertex -8.200000e+00 6.184458e+01 -8.155422e+00
    endloop
endfacet
facet normal 1.000000e+00 0.000000e+00 0.000000e+00
    outer loop
        vertex -8.200000e+00 6.067517e+01 -7.480258e+00
        vertex -8.200000e+00 6.260863e+01 -1.000000e+01
        vertex -8.200000e+00 6.130431e+01 -7.740861e+00
    endloop
endfacet
facet normal 1.000000e+00 0.000000e+00 0.000000e+00
    outer loop
        vertex -8.200000e+00 6.000000e+01 -7.391371e+00
        vertex -8.200000e+00 6.260863e+01 -1.000000e+01
        vertex -8.200000e+00 6.067517e+01 -7.480258e+00
    endloop
endfacet
facet normal 1.000000e+00 -0.000000e+00 0.000000e+00
    outer loop
        vertex -8.200000e+00 5.932483e+01 -7.480258e+00
        vertex -8.200000e+00 6.260863e+01 -1.000000e+01
        vertex -8.200000e+00 6.000000e+01 -7.391371e+00
    endloop
endfacet
facet normal 1.000000e+00 0.000000e+00 0.000000e+00
    outer loop
        vertex -8.200000e+00 5.815542e+01 -1.184458e+01
        vertex -8.200000e+00 5.869569e+01 -1.225914e+01
        vertex -8.200000e+00 5.932483e+01 -1.251974e+01
    endloop
endfacet
facet normal 1.000000e+00 0.000000e+00 0.000000e+00
    outer loop
        vertex -8.200000e+00 5.815542e+01 -1.184458e+01
        vertex -8.200000e+00 5.840000e+01 -1.000000e+01
        vertex -8.200000e+00 5.845452e+01 -9.585890e+00
    endloop
endfacet
facet normal 1.000000e+00 0.000000e+00 0.000000e+00
    outer loop
        vertex -8.200000e+00 5.815542e+01 -1.184458e+01
        vertex -8.200000e+00 5.845452e+01 -1.041411e+01
        vertex -8.200000e+00 5.840000e+01 -1.000000e+01
    endloop
endfacet
facet normal 1.000000e+00 -0.000000e+00 0.000000e+00
    outer loop
        vertex -8.200000e+00 5.815542e+01 -1.184458e+01
        vertex -8.200000e+00 5.932483e+01 -1.251974e+01
        vertex -8.200000e+00 5.845452e+01 -1.041411e+01
    endloop
endfacet
facet normal 1.000000e+00 0.000000e+00 0.000000e+00
    outer loop
        vertex -8.200000e+00 5.845452e+01 -9.585890e+00
        vertex -8.200000e+00 5.861436e+01 -9.200000e+00
        vertex -8.200000e+00 5.932483e+01 -7.480258e+00
    endloop
endfacet
facet normal 1.000000e+00 0.000000e+00 0.000000e+00
    outer loop
        vertex -8.200000e+00 5.861436e+01 -9.200000e+00
        vertex -8.200000e+00 5.886863e+01 -8.868629e+00
        vertex -8.200000e+00 5.932483e+01 -7.480258e+00
    endloop
endfacet
facet normal 1.000000e+00 0.000000e+00 0.000000e+00
    outer loop
        vertex -8.200000e+00 5.886863e+01 -8.868629e+00
        vertex -8.200000e+00 5.920000e+01 -8.614359e+00
        vertex -8.200000e+00 5.932483e+01 -7.480258e+00
    endloop
endfacet
facet normal 1.000000e+00 0.000000e+00 0.000000e+00
    outer loop
        vertex -8.200000e+00 5.920000e+01 -8.614359e+00
        vertex -8.200000e+00 5.958589e+01 -8.454518e+00
        vertex -8.200000e+00 5.932483e+01 -7.480258e+00
    endloop
endfacet
facet normal 1.000000e+00 0.000000e+00 0.000000e+00
    outer loop
        vertex -8.200000e+00 5.932483e+01 -7.480258e+00
        vertex -8.200000e+00 5.958589e+01 -8.454518e+00
        vertex -8.200000e+00 6.000000e+01 -8.400000e+00
    endloop
endfacet
facet normal 1.000000e+00 0.000000e+00 0.000000e+00
    outer loop
        vertex -8.200000e+00 5.932483e+01 -7.480258e+00
        vertex -8.200000e+00 6.000000e+01 -8.400000e+00
        vertex -8.200000e+00 6.041411e+01 -8.454518e+00
    endloop
endfacet
facet normal 1.000000e+00 0.000000e+00 0.000000e+00
    outer loop
        vertex -8.200000e+00 5.932483e+01 -7.480258e+00
        vertex -8.200000e+00 6.041411e+01 -8.454518e+00
        vertex -8.200000e+00 6.080000e+01 -8.614359e+00
    endloop
endfacet
facet normal 1.000000e+00 0.000000e+00 0.000000e+00
    outer loop
        vertex -8.200000e+00 5.932483e+01 -7.480258e+00
        vertex -8.200000e+00 6.080000e+01 -8.614359e+00
        vertex -8.200000e+00 6.260863e+01 -1.000000e+01
    endloop
endfacet
facet normal 1.000000e+00 0.000000e+00 0.000000e+00
    outer loop
        vertex -8.200000e+00 5.845452e+01 -1.041411e+01
        vertex -8.200000e+00 5.932483e+01 -1.251974e+01
        vertex -8.200000e+00 5.861436e+01 -1.080000e+01
    endloop
endfacet
facet normal 1.000000e+00 0.000000e+00 0.000000e+00
    outer loop
        vertex -8.200000e+00 5.861436e+01 -1.080000e+01
        vertex -8.200000e+00 5.932483e+01 -1.251974e+01
        vertex -8.200000e+00 5.886863e+01 -1.113137e+01
    endloop
endfacet
facet normal 1.000000e+00 0.000000e+00 0.000000e+00
    outer loop
        vertex -8.200000e+00 5.886863e+01 -1.113137e+01
        vertex -8.200000e+00 5.932483e+01 -1.251974e+01
        vertex -8.200000e+00 5.920000e+01 -1.138564e+01
    endloop
endfacet
facet normal 1.000000e+00 0.000000e+00 0.000000e+00
    outer loop
        vertex -8.200000e+00 5.920000e+01 -1.138564e+01
        vertex -8.200000e+00 5.932483e+01 -1.251974e+01
        vertex -8.200000e+00 5.958589e+01 -1.154548e+01
    endloop
endfacet
facet normal 1.000000e+00 0.000000e+00 0.000000e+00
    outer loop
        vertex -8.200000e+00 5.932483e+01 -1.251974e+01
        vertex -8.200000e+00 6.000000e+01 -1.160000e+01
        vertex -8.200000e+00 5.958589e+01 -1.154548e+01
    endloop
endfacet
facet normal 1.000000e+00 0.000000e+00 0.000000e+00
    outer loop
        vertex -8.200000e+00 5.932483e+01 -1.251974e+01
        vertex -8.200000e+00 6.041411e+01 -1.154548e+01
        vertex -8.200000e+00 6.000000e+01 -1.160000e+01
    endloop
endfacet
facet normal 1.000000e+00 0.000000e+00 0.000000e+00
    outer loop
        vertex -8.200000e+00 5.932483e+01 -1.251974e+01
        vertex -8.200000e+00 6.080000e+01 -1.138564e+01
        vertex -8.200000e+00 6.041411e+01 -1.154548e+01
    endloop
endfacet
facet normal 1.000000e+00 0.000000e+00 0.000000e+00
    outer loop
        vertex -8.200000e+00 5.932483e+01 -1.251974e+01
        vertex -8.200000e+00 6.260863e+01 -1.000000e+01
        vertex -8.200000e+00 6.080000e+01 -1.138564e+01
    endloop
endfacet
facet normal 1.000000e+00 0.000000e+00 0.000000e+00
    outer loop
        vertex -8.200000e+00 6.080000e+01 -8.614359e+00
        vertex -8.200000e+00 6.113137e+01 -8.868629e+00
        vertex -8.200000e+00 6.260863e+01 -1.000000e+01
    endloop
endfacet
facet normal 1.000000e+00 0.000000e+00 0.000000e+00
    outer loop
        vertex -8.200000e+00 6.113137e+01 -8.868629e+00
        vertex -8.200000e+00 6.138564e+01 -9.200000e+00
        vertex -8.200000e+00 6.260863e+01 -1.000000e+01
    endloop
endfacet
facet normal 1.000000e+00 0.000000e+00 0.000000e+00
    outer loop
        vertex -8.200000e+00 6.138564e+01 -9.200000e+00
        vertex -8.200000e+00 6.154548e+01 -9.585890e+00
        vertex -8.200000e+00 6.260863e+01 -1.000000e+01
    endloop
endfacet
facet normal 1.000000e+00 0.000000e+00 0.000000e+00
    outer loop
        vertex -8.200000e+00 6.154548e+01 -9.585890e+00
        vertex -8.200000e+00 6.160000e+01 -1.000000e+01
        vertex -8.200000e+00 6.260863e+01 -1.000000e+01
    endloop
endfacet
facet normal 1.000000e+00 0.000000e+00 0.000000e+00
    outer loop
        vertex -8.200000e+00 6.154548e+01 -1.041411e+01
        vertex -8.200000e+00 6.260863e+01 -1.000000e+01
        vertex -8.200000e+00 6.160000e+01 -1.000000e+01
    endloop
endfacet
facet normal 1.000000e+00 0.000000e+00 0.000000e+00
    outer loop
        vertex -8.200000e+00 6.138564e+01 -1.080000e+01
        vertex -8.200000e+00 6.260863e+01 -1.000000e+01
        vertex -8.200000e+00 6.154548e+01 -1.041411e+01
    endloop
endfacet
facet normal 1.000000e+00 0.000000e+00 0.000000e+00
    outer loop
        vertex -8.200000e+00 6.113137e+01 -1.113137e+01
        vertex -8.200000e+00 6.260863e+01 -1.000000e+01
        vertex -8.200000e+00 6.138564e+01 -1.080000e+01
    endloop
endfacet
facet normal 1.000000e+00 0.000000e+00 0.000000e+00
    outer loop
        vertex -8.200000e+00 6.080000e+01 -1.138564e+01
        vertex -8.200000e+00 6.260863e+01 -1.000000e+01
        vertex -8.200000e+00 6.113137e+01 -1.113137e+01
    endloop
endfacet
facet normal -1.000000e+00 0.000000e+00 0.000000e+00
    outer loop
        vertex -9.200000e+00 6.225914e+01 -1.130432e+01
        vertex -9.200000e+00 6.260863e+01 -1.000000e+01
        vertex -9.200000e+00 6.251974e+01 -1.067516e+01
    endloop
endfacet
facet normal -1.000000e+00 0.000000e+00 0.000000e+00
    outer loop
        vertex -9.200000e+00 6.184458e+01 -1.184458e+01
        vertex -9.200000e+00 6.260863e+01 -1.000000e+01
        vertex -9.200000e+00 6.225914e+01 -1.130432e+01
    endloop
endfacet
facet normal -1.000000e+00 0.000000e+00 0.000000e+00
    outer loop
        vertex -9.200000e+00 6.130431e+01 -1.225914e+01
        vertex -9.200000e+00 6.260863e+01 -1.000000e+01
        vertex -9.200000e+00 6.184458e+01 -1.184458e+01
    endloop
endfacet
facet normal -1.000000e+00 0.000000e+00 0.000000e+00
    outer loop
        vertex -9.200000e+00 6.067517e+01 -1.251974e+01
        vertex -9.200000e+00 6.260863e+01 -1.000000e+01
        vertex -9.200000e+00 6.130431e+01 -1.225914e+01
    endloop
endfacet
facet normal -1.000000e+00 0.000000e+00 0.000000e+00
    outer loop
        vertex -9.200000e+00 6.000000e+01 -1.260863e+01
        vertex -9.200000e+00 6.260863e+01 -1.000000e+01
        vertex -9.200000e+00 6.067517e+01 -1.251974e+01
    endloop
endfacet
facet normal -1.000000e+00 0.000000e+00 0.000000e+00
    outer loop
        vertex -9.200000e+00 5.932483e+01 -1.251974e+01
        vertex -9.200000e+00 6.260863e+01 -1.000000e+01
        vertex -9.200000e+00 6.000000e+01 -1.260863e+01
    endloop
endfacet
facet normal -1.000000e+00 0.000000e+00 0.000000e+00
    outer loop
        vertex -9.200000e+00 5.869569e+01 -1.225914e+01
        vertex -9.200000e+00 6.260863e+01 -1.000000e+01
        vertex -9.200000e+00 5.932483e+01 -1.251974e+01
    endloop
endfacet
facet normal -1.000000e+00 0.000000e+00 0.000000e+00
    outer loop
        vertex -9.200000e+00 5.815542e+01 -1.184458e+01
        vertex -9.200000e+00 6.260863e+01 -1.000000e+01
        vertex -9.200000e+00 5.869569e+01 -1.225914e+01
    endloop
endfacet
facet normal -1.000000e+00 0.000000e+00 0.000000e+00
    outer loop
        vertex -9.200000e+00 5.815542e+01 -1.184458e+01
        vertex -9.200000e+00 6.251974e+01 -9.324838e+00
        vertex -9.200000e+00 6.260863e+01 -1.000000e+01
    endloop
endfacet
facet normal -1.000000e+00 0.000000e+00 0.000000e+00
    outer loop
        vertex -9.200000e+00 5.815542e+01 -1.184458e+01
        vertex -9.200000e+00 6.225914e+01 -8.695683e+00
        vertex -9.200000e+00 6.251974e+01 -9.324838e+00
    endloop
endfacet
facet normal -1.000000e+00 0.000000e+00 0.000000e+00
    outer loop
        vertex -9.200000e+00 5.774086e+01 -1.130432e+01
        vertex -9.200000e+00 6.225914e+01 -8.695683e+00
        vertex -9.200000e+00 5.815542e+01 -1.184458e+01
    endloop
endfacet
facet normal -1.000000e+00 0.000000e+00 0.000000e+00
    outer loop
        vertex -9.200000e+00 5.748026e+01 -1.067516e+01
        vertex -9.200000e+00 6.225914e+01 -8.695683e+00
        vertex -9.200000e+00 5.774086e+01 -1.130432e+01
    endloop
endfacet
facet normal -1.000000e+00 0.000000e+00 0.000000e+00
    outer loop
        vertex -9.200000e+00 5.739137e+01 -1.000000e+01
        vertex -9.200000e+00 6.225914e+01 -8.695683e+00
        vertex -9.200000e+00 5.748026e+01 -1.067516e+01
    endloop
endfacet
facet normal -1.000000e+00 0.000000e+00 0.000000e+00
    outer loop
        vertex -9.200000e+00 5.739137e+01 -1.000000e+01
        vertex -9.200000e+00 5.748026e+01 -9.324838e+00
        vertex -9.200000e+00 6.225914e+01 -8.695683e+00
    endloop
endfacet
facet normal -1.000000e+00 0.000000e+00 0.000000e+00
    outer loop
        vertex -9.200000e+00 5.748026e+01 -9.324838e+00
        vertex -9.200000e+00 5.774086e+01 -8.695683e+00
        vertex -9.200000e+00 6.225914e+01 -8.695683e+00
    endloop
endfacet
facet normal -1.000000e+00 0.000000e+00 0.000000e+00
    outer loop
        vertex -9.200000e+00 5.774086e+01 -8.695683e+00
        vertex -9.200000e+00 5.815542e+01 -8.155422e+00
        vertex -9.200000e+00 6.225914e+01 -8.695683e+00
    endloop
endfacet
facet normal -1.000000e+00 0.000000e+00 0.000000e+00
    outer loop
        vertex -9.200000e+00 5.815542e+01 -8.155422e+00
        vertex -9.200000e+00 5.869569e+01 -7.740861e+00
        vertex -9.200000e+00 6.225914e+01 -8.695683e+00
    endloop
endfacet
facet normal -1.000000e+00 0.000000e+00 0.000000e+00
    outer loop
        vertex -9.200000e+00 5.869569e+01 -7.740861e+00
        vertex -9.200000e+00 5.932483e+01 -7.480258e+00
        vertex -9.200000e+00 6.225914e+01 -8.695683e+00
    endloop
endfacet
facet normal -1.000000e+00 0.000000e+00 0.000000e+00
    outer loop
        vertex -9.200000e+00 5.932483e+01 -7.480258e+00
        vertex -9.200000e+00 6.000000e+01 -7.391371e+00
        vertex -9.200000e+00 6.225914e+01 -8.695683e+00
    endloop
endfacet
facet normal -1.000000e+00 0.000000e+00 0.000000e+00
    outer loop
        vertex -9.200000e+00 6.000000e+01 -7.391371e+00
        vertex -9.200000e+00 6.184458e+01 -8.155422e+00
        vertex -9.200000e+00 6.225914e+01 -8.695683e+00
    endloop
endfacet
facet normal -1.000000e+00 0.000000e+00 0.000000e+00
    outer loop
        vertex -9.200000e+00 6.000000e+01 -7.391371e+00
        vertex -9.200000e+00 6.067517e+01 -7.480258e+00
        vertex -9.200000e+00 6.130431e+01 -7.740861e+00
    endloop
endfacet
facet normal -1.000000e+00 0.000000e+00 0.000000e+00
    outer loop
        vertex -9.200000e+00 6.000000e+01 -7.391371e+00
        vertex -9.200000e+00 6.130431e+01 -7.740861e+00
        vertex -9.200000e+00 6.184458e+01 -8.155422e+00
    endloop
endfacet
facet normal 0.000000e+00 9.914457e-01 1.305196e-01
    outer loop
        vertex 8.000000e+00 6.154548e+01 -9.585890e+00
        vertex 8.000000e+00 6.160000e+01 -1.000000e+01
        vertex -8.200000e+00 6.160000e+01 -1.000000e+01
    endloop
endfacet
facet normal 0.000000e+00 9.914457e-01 1.305196e-01
    outer loop
        vertex 8.000000e+00 6.154548e+01 -9.585890e+00
        vertex -8.200000e+00 6.160000e+01 -1.000000e+01
        vertex -8.200000e+00 6.154548e+01 -9.585890e+00
    endloop
endfacet
facet normal 0.000000e+00 9.238774e-01 3.826887e-01
    outer loop
        vertex 8.000000e+00 6.138564e+01 -9.200000e+00
        vertex 8.000000e+00 6.154548e+01 -9.585890e+00
        vertex -8.200000e+00 6.154548e+01 -9.585890e+00
    endloop
endfacet
facet normal 0.000000e+00 9.238774e-01 3.826887e-01
    outer loop
        vertex 8.000000e+00 6.138564e+01 -9.200000e+00
        vertex -8.200000e+00 6.154548e+01 -9.585890e+00
        vertex -8.200000e+00 6.138564e+01 -9.200000e+00
    endloop
endfacet
facet normal 0.000000e+00 7.933542e-01 6.087603e-01
    outer loop
        vertex 8.000000e+00 6.113137e+01 -8.868629e+00
        vertex 8.000000e+00 6.138564e+01 -9.200000e+00
        vertex -8.200000e+00 6.138564e+01 -9.200000e+00
    endloop
endfacet
facet normal 0.000000e+00 7.933542e-01 6.087603e-01
    outer loop
        vertex 8.000000e+00 6.113137e+01 -8.868629e+00
        vertex -8.200000e+00 6.138564e+01 -9.200000e+00
        vertex -8.200000e+00 6.113137e+01 -8.868629e+00
    endloop
endfacet
facet normal 0.000000e+00 6.087620e-01 7.933528e-01
    outer loop
        vertex 8.000000e+00 6.080000e+01 -8.614359e+00
        vertex 8.000000e+00 6.113137e+01 -8.868629e+00
        vertex -8.200000e+00 6.113137e+01 -8.868629e+00
    endloop
endfacet
facet normal 0.000000e+00 6.087620e-01 7.933528e-01
    outer loop
        vertex 8.000000e+00 6.080000e+01 -8.614359e+00
        vertex -8.200000e+00 6.113137e+01 -8.868629e+00
        vertex -8.200000e+00 6.080000e+01 -8.614359e+00
    endloop
endfacet
facet normal 0.000000e+00 3.826853e-01 9.238788e-01
    outer loop
        vertex 8.000000e+00 6.041411e+01 -8.454518e+00
        vertex 8.000000e+00 6.080000e+01 -8.614359e+00
        vertex -8.200000e+00 6.080000e+01 -8.614359e+00
    endloop
endfacet
facet normal 0.000000e+00 3.826853e-01 9.238788e-01
    outer loop
        vertex 8.000000e+00 6.041411e+01 -8.454518e+00
        vertex -8.200000e+00 6.080000e+01 -8.614359e+00
        vertex -8.200000e+00 6.041411e+01 -8.454518e+00
    endloop
endfacet
facet normal 0.000000e+00 1.305257e-01 9.914449e-01
    outer loop
        vertex 8.000000e+00 6.000000e+01 -8.400000e+00
        vertex 8.000000e+00 6.041411e+01 -8.454518e+00
        vertex -8.200000e+00 6.041411e+01 -8.454518e+00
    endloop
endfacet
facet normal 0.000000e+00 1.305257e-01 9.914449e-01
    outer loop
        vertex 8.000000e+00 6.000000e+01 -8.400000e+00
        vertex -8.200000e+00 6.041411e+01 -8.454518e+00
        vertex -8.200000e+00 6.000000e+01 -8.400000e+00
    endloop
endfacet
facet normal 0.000000e+00 -1.305257e-01 9.914449e-01
    outer loop
        vertex 8.000000e+00 5.958589e+01 -8.454518e+00
        vertex 8.000000e+00 6.000000e+01 -8.400000e+00
        vertex -8.200000e+00 5.958589e+01 -8.454518e+00
    endloop
endfacet
facet normal 0.000000e+00 -1.305257e-01 9.914449e-01
    outer loop
        vertex -8.200000e+00 5.958589e+01 -8.454518e+00
        vertex 8.000000e+00 6.000000e+01 -8.400000e+00
        vertex -8.200000e+00 6.000000e+01 -8.400000e+00
    endloop
endfacet
facet normal 0.000000e+00 -3.826853e-01 9.238788e-01
    outer loop
        vertex 8.000000e+00 5.920000e+01 -8.614359e+00
        vertex 8.000000e+00 5.958589e+01 -8.454518e+00
        vertex -8.200000e+00 5.920000e+01 -8.614359e+00
    endloop
endfacet
facet normal 0.000000e+00 -3.826853e-01 9.238788e-01
    outer loop
        vertex -8.200000e+00 5.920000e+01 -8.614359e+00
        vertex 8.000000e+00 5.958589e+01 -8.454518e+00
        vertex -8.200000e+00 5.958589e+01 -8.454518e+00
    endloop
endfacet
facet normal 0.000000e+00 -6.087620e-01 7.933528e-01
    outer loop
        vertex 8.000000e+00 5.886863e+01 -8.868629e+00
        vertex 8.000000e+00 5.920000e+01 -8.614359e+00
        vertex -8.200000e+00 5.886863e+01 -8.868629e+00
    endloop
endfacet
facet normal 0.000000e+00 -6.087620e-01 7.933528e-01
    outer loop
        vertex -8.200000e+00 5.886863e+01 -8.868629e+00
        vertex 8.000000e+00 5.920000e+01 -8.614359e+00
        vertex -8.200000e+00 5.920000e+01 -8.614359e+00
    endloop
endfacet
facet normal 0.000000e+00 -7.933542e-01 6.087603e-01
    outer loop
        vertex 8.000000e+00 5.861436e+01 -9.200000e+00
        vertex 8.000000e+00 5.886863e+01 -8.868629e+00
        vertex -8.200000e+00 5.861436e+01 -9.200000e+00
    endloop
endfacet
facet normal 0.000000e+00 -7.933542e-01 6.087603e-01
    outer loop
        vertex -8.200000e+00 5.861436e+01 -9.200000e+00
        vertex 8.000000e+00 5.886863e+01 -8.868629e+00
        vertex -8.200000e+00 5.886863e+01 -8.868629e+00
    endloop
endfacet
facet normal 0.000000e+00 -9.238774e-01 3.826887e-01
    outer loop
        vertex 8.000000e+00 5.845452e+01 -9.585890e+00
        vertex 8.000000e+00 5.861436e+01 -9.200000e+00
        vertex -8.200000e+00 5.845452e+01 -9.585890e+00
    endloop
endfacet
facet normal 0.000000e+00 -9.238774e-01 3.826887e-01
    outer loop
        vertex -8.200000e+00 5.845452e+01 -9.585890e+00
        vertex 8.000000e+00 5.861436e+01 -9.200000e+00
        vertex -8.200000e+00 5.861436e+01 -9.200000e+00
    endloop
endfacet
facet normal 0.000000e+00 -9.914457e-01 1.305196e-01
    outer loop
        vertex 8.000000e+00 5.840000e+01 -1.000000e+01
        vertex 8.000000e+00 5.845452e+01 -9.585890e+00
        vertex -8.200000e+00 5.840000e+01 -1.000000e+01
    endloop
endfacet
facet normal 0.000000e+00 -9.914457e-01 1.305196e-01
    outer loop
        vertex -8.200000e+00 5.840000e+01 -1.000000e+01
        vertex 8.000000e+00 5.845452e+01 -9.585890e+00
        vertex -8.200000e+00 5.845452e+01 -9.585890e+00
    endloop
endfacet
facet normal 0.000000e+00 -9.914457e-01 -1.305196e-01
    outer loop
        vertex 8.000000e+00 5.840000e+01 -1.000000e+01
        vertex -8.200000e+00 5.845452e+01 -1.041411e+01
        vertex 8.000000e+00 5.845452e+01 -1.041411e+01
    endloop
endfacet
facet normal -0.000000e+00 -9.914457e-01 -1.305196e-01
    outer loop
        vertex 8.000000e+00 5.840000e+01 -1.000000e+01
        vertex -8.200000e+00 5.840000e+01 -1.000000e+01
        vertex -8.200000e+00 5.845452e+01 -1.041411e+01
    endloop
endfacet
facet normal 0.000000e+00 -9.238774e-01 -3.826887e-01
    outer loop
        vertex 8.000000e+00 5.845452e+01 -1.041411e+01
        vertex -8.200000e+00 5.861436e+01 -1.080000e+01
        vertex 8.000000e+00 5.861436e+01 -1.080000e+01
    endloop
endfacet
facet normal -0.000000e+00 -9.238774e-01 -3.826887e-01
    outer loop
        vertex 8.000000e+00 5.845452e+01 -1.041411e+01
        vertex -8.200000e+00 5.845452e+01 -1.041411e+01
        vertex -8.200000e+00 5.861436e+01 -1.080000e+01
    endloop
endfacet
facet normal 0.000000e+00 -7.933542e-01 -6.087603e-01
    outer loop
        vertex 8.000000e+00 5.861436e+01 -1.080000e+01
        vertex -8.200000e+00 5.886863e+01 -1.113137e+01
        vertex 8.000000e+00 5.886863e+01 -1.113137e+01
    endloop
endfacet
facet normal -0.000000e+00 -7.933542e-01 -6.087603e-01
    outer loop
        vertex 8.000000e+00 5.861436e+01 -1.080000e+01
        vertex -8.200000e+00 5.861436e+01 -1.080000e+01
        vertex -8.200000e+00 5.886863e+01 -1.113137e+01
    endloop
endfacet
facet normal 0.000000e+00 -6.087620e-01 -7.933528e-01
    outer loop
        vertex 8.000000e+00 5.886863e+01 -1.113137e+01
        vertex -8.200000e+00 5.920000e+01 -1.138564e+01
        vertex 8.000000e+00 5.920000e+01 -1.138564e+01
    endloop
endfacet
facet normal -0.000000e+00 -6.087620e-01 -7.933528e-01
    outer loop
        vertex 8.000000e+00 5.886863e+01 -1.113137e+01
        vertex -8.200000e+00 5.886863e+01 -1.113137e+01
        vertex -8.200000e+00 5.920000e+01 -1.138564e+01
    endloop
endfacet
facet normal 0.000000e+00 -3.826853e-01 -9.238788e-01
    outer loop
        vertex 8.000000e+00 5.920000e+01 -1.138564e+01
        vertex -8.200000e+00 5.958589e+01 -1.154548e+01
        vertex 8.000000e+00 5.958589e+01 -1.154548e+01
    endloop
endfacet
facet normal -0.000000e+00 -3.826853e-01 -9.238788e-01
    outer loop
        vertex 8.000000e+00 5.920000e+01 -1.138564e+01
        vertex -8.200000e+00 5.920000e+01 -1.138564e+01
        vertex -8.200000e+00 5.958589e+01 -1.154548e+01
    endloop
endfacet
facet normal 0.000000e+00 -1.305257e-01 -9.914449e-01
    outer loop
        vertex 8.000000e+00 5.958589e+01 -1.154548e+01
        vertex -8.200000e+00 6.000000e+01 -1.160000e+01
        vertex 8.000000e+00 6.000000e+01 -1.160000e+01
    endloop
endfacet
facet normal -0.000000e+00 -1.305257e-01 -9.914449e-01
    outer loop
        vertex 8.000000e+00 5.958589e+01 -1.154548e+01
        vertex -8.200000e+00 5.958589e+01 -1.154548e+01
        vertex -8.200000e+00 6.000000e+01 -1.160000e+01
    endloop
endfacet
facet normal 0.000000e+00 1.305257e-01 -9.914449e-01
    outer loop
        vertex 8.000000e+00 6.000000e+01 -1.160000e+01
        vertex -8.200000e+00 6.000000e+01 -1.160000e+01
        vertex 8.000000e+00 6.041411e+01 -1.154548e+01
    endloop
endfacet
facet normal 0.000000e+00 1.305257e-01 -9.914449e-01
    outer loop
        vertex -8.200000e+00 6.000000e+01 -1.160000e+01
        vertex -8.200000e+00 6.041411e+01 -1.154548e+01
        vertex 8.000000e+00 6.041411e+01 -1.154548e+01
    endloop
endfacet
facet normal 0.000000e+00 3.826853e-01 -9.238788e-01
    outer loop
        vertex 8.000000e+00 6.041411e+01 -1.154548e+01
        vertex -8.200000e+00 6.041411e+01 -1.154548e+01
        vertex 8.000000e+00 6.080000e+01 -1.138564e+01
    endloop
endfacet
facet normal 0.000000e+00 3.826853e-01 -9.238788e-01
    outer loop
        vertex -8.200000e+00 6.041411e+01 -1.154548e+01
        vertex -8.200000e+00 6.080000e+01 -1.138564e+01
        vertex 8.000000e+00 6.080000e+01 -1.138564e+01
    endloop
endfacet
facet normal 0.000000e+00 6.087620e-01 -7.933528e-01
    outer loop
        vertex 8.000000e+00 6.080000e+01 -1.138564e+01
        vertex -8.200000e+00 6.080000e+01 -1.138564e+01
        vertex 8.000000e+00 6.113137e+01 -1.113137e+01
    endloop
endfacet
facet normal 0.000000e+00 6.087620e-01 -7.933528e-01
    outer loop
        vertex -8.200000e+00 6.080000e+01 -1.138564e+01
        vertex -8.200000e+00 6.113137e+01 -1.113137e+01
        vertex 8.000000e+00 6.113137e+01 -1.113137e+01
    endloop
endfacet
facet normal 0.000000e+00 7.933542e-01 -6.087603e-01
    outer loop
        vertex 8.000000e+00 6.113137e+01 -1.113137e+01
        vertex -8.200000e+00 6.113137e+01 -1.113137e+01
        vertex 8.000000e+00 6.138564e+01 -1.080000e+01
    endloop
endfacet
facet normal 0.000000e+00 7.933542e-01 -6.087603e-01
    outer loop
        vertex -8.200000e+00 6.113137e+01 -1.113137e+01
        vertex -8.200000e+00 6.138564e+01 -1.080000e+01
        vertex 8.000000e+00 6.138564e+01 -1.080000e+01
    endloop
endfacet
facet normal 0.000000e+00 9.238774e-01 -3.826887e-01
    outer loop
        vertex 8.000000e+00 6.138564e+01 -1.080000e+01
        vertex -8.200000e+00 6.138564e+01 -1.080000e+01
        vertex 8.000000e+00 6.154548e+01 -1.041411e+01
    endloop
endfacet
facet normal 0.000000e+00 9.238774e-01 -3.826887e-01
    outer loop
        vertex -8.200000e+00 6.138564e+01 -1.080000e+01
        vertex -8.200000e+00 6.154548e+01 -1.041411e+01
        vertex 8.000000e+00 6.154548e+01 -1.041411e+01
    endloop
endfacet
facet normal 0.000000e+00 9.914457e-01 -1.305196e-01
    outer loop
        vertex 8.000000e+00 6.154548e+01 -1.041411e+01
        vertex -8.200000e+00 6.154548e+01 -1.041411e+01
        vertex 8.000000e+00 6.160000e+01 -1.000000e+01
    endloop
endfacet
facet normal 0.000000e+00 9.914457e-01 -1.305196e-01
    outer loop
        vertex -8.200000e+00 6.154548e+01 -1.041411e+01
        vertex -8.200000e+00 6.160000e+01 -1.000000e+01
        vertex 8.000000e+00 6.160000e+01 -1.000000e+01
    endloop
endfacet
facet normal 1.000000e+00 0.000000e+00 0.000000e+00
    outer loop
        vertex 8.000000e+00 6.138564e+01 -9.200000e+00
        vertex 8.000000e+00 6.160000e+01 -1.000000e+01
        vertex 8.000000e+00 6.154548e+01 -9.585890e+00
    endloop
endfacet
facet normal 1.000000e+00 0.000000e+00 0.000000e+00
    outer loop
        vertex 8.000000e+00 6.113137e+01 -8.868629e+00
        vertex 8.000000e+00 6.160000e+01 -1.000000e+01
        vertex 8.000000e+00 6.138564e+01 -9.200000e+00
    endloop
endfacet
facet normal 1.000000e+00 0.000000e+00 0.000000e+00
    outer loop
        vertex 8.000000e+00 6.080000e+01 -8.614359e+00
        vertex 8.000000e+00 6.160000e+01 -1.000000e+01
        vertex 8.000000e+00 6.113137e+01 -8.868629e+00
    endloop
endfacet
facet normal 1.000000e+00 0.000000e+00 0.000000e+00
    outer loop
        vertex 8.000000e+00 6.041411e+01 -8.454518e+00
        vertex 8.000000e+00 6.160000e+01 -1.000000e+01
        vertex 8.000000e+00 6.080000e+01 -8.614359e+00
    endloop
endfacet
facet normal 1.000000e+00 0.000000e+00 0.000000e+00
    outer loop
        vertex 8.000000e+00 6.000000e+01 -8.400000e+00
        vertex 8.000000e+00 6.160000e+01 -1.000000e+01
        vertex 8.000000e+00 6.041411e+01 -8.454518e+00
    endloop
endfacet
facet normal 1.000000e+00 -0.000000e+00 0.000000e+00
    outer loop
        vertex 8.000000e+00 5.958589e+01 -8.454518e+00
        vertex 8.000000e+00 6.160000e+01 -1.000000e+01
        vertex 8.000000e+00 6.000000e+01 -8.400000e+00
    endloop
endfacet
facet normal 1.000000e+00 -0.000000e+00 0.000000e+00
    outer loop
        vertex 8.000000e+00 5.920000e+01 -8.614359e+00
        vertex 8.000000e+00 6.160000e+01 -1.000000e+01
        vertex 8.000000e+00 5.958589e+01 -8.454518e+00
    endloop
endfacet
facet normal 1.000000e+00 -0.000000e+00 0.000000e+00
    outer loop
        vertex 8.000000e+00 5.886863e+01 -8.868629e+00
        vertex 8.000000e+00 6.160000e+01 -1.000000e+01
        vertex 8.000000e+00 5.920000e+01 -8.614359e+00
    endloop
endfacet
facet normal 1.000000e+00 -0.000000e+00 0.000000e+00
    outer loop
        vertex 8.000000e+00 5.861436e+01 -9.200000e+00
        vertex 8.000000e+00 6.160000e+01 -1.000000e+01
        vertex 8.000000e+00 5.886863e+01 -8.868629e+00
    endloop
endfacet
facet normal 1.000000e+00 -0.000000e+00 0.000000e+00
    outer loop
        vertex 8.000000e+00 5.845452e+01 -9.585890e+00
        vertex 8.000000e+00 6.160000e+01 -1.000000e+01
        vertex 8.000000e+00 5.861436e+01 -9.200000e+00
    endloop
endfacet
facet normal 1.000000e+00 0.000000e+00 0.000000e+00
    outer loop
        vertex 8.000000e+00 5.840000e+01 -1.000000e+01
        vertex 8.000000e+00 6.160000e+01 -1.000000e+01
        vertex 8.000000e+00 5.845452e+01 -9.585890e+00
    endloop
endfacet
facet normal 1.000000e+00 -0.000000e+00 0.000000e+00
    outer loop
        vertex 8.000000e+00 5.840000e+01 -1.000000e+01
        vertex 8.000000e+00 6.154548e+01 -1.041411e+01
        vertex 8.000000e+00 6.160000e+01 -1.000000e+01
    endloop
endfacet
facet normal 1.000000e+00 0.000000e+00 0.000000e+00
    outer loop
        vertex 8.000000e+00 5.840000e+01 -1.000000e+01
        vertex 8.000000e+00 6.138564e+01 -1.080000e+01
        vertex 8.000000e+00 6.154548e+01 -1.041411e+01
    endloop
endfacet
facet normal 1.000000e+00 0.000000e+00 0.000000e+00
    outer loop
        vertex 8.000000e+00 5.840000e+01 -1.000000e+01
        vertex 8.000000e+00 5.845452e+01 -1.041411e+01
        vertex 8.000000e+00 6.138564e+01 -1.080000e+01
    endloop
endfacet
facet normal 1.000000e+00 0.000000e+00 0.000000e+00
    outer loop
        vertex 8.000000e+00 5.845452e+01 -1.041411e+01
        vertex 8.000000e+00 5.861436e+01 -1.080000e+01
        vertex 8.000000e+00 6.138564e+01 -1.080000e+01
    endloop
endfacet
facet normal 1.000000e+00 -0.000000e+00 0.000000e+00
    outer loop
        vertex 8.000000e+00 5.861436e+01 -1.080000e+01
        vertex 8.000000e+00 5.886863e+01 -1.113137e+01
        vertex 8.000000e+00 6.138564e+01 -1.080000e+01
    endloop
endfacet
facet normal 1.000000e+00 -0.000000e+00 0.000000e+00
    outer loop
        vertex 8.000000e+00 5.886863e+01 -1.113137e+01
        vertex 8.000000e+00 5.920000e+01 -1.138564e+01
        vertex 8.000000e+00 6.138564e+01 -1.080000e+01
    endloop
endfacet
facet normal 1.000000e+00 0.000000e+00 0.000000e+00
    outer loop
        vertex 8.000000e+00 5.920000e+01 -1.138564e+01
        vertex 8.000000e+00 6.113137e+01 -1.113137e+01
        vertex 8.000000e+00 6.138564e+01 -1.080000e+01
    endloop
endfacet
facet normal 1.000000e+00 0.000000e+00 0.000000e+00
    outer loop
        vertex 8.000000e+00 5.920000e+01 -1.138564e+01
        vertex 8.000000e+00 6.080000e+01 -1.138564e+01
        vertex 8.000000e+00 6.113137e+01 -1.113137e+01
    endloop
endfacet
facet normal 1.000000e+00 -0.000000e+00 0.000000e+00
    outer loop
        vertex 8.000000e+00 5.920000e+01 -1.138564e+01
        vertex 8.000000e+00 5.958589e+01 -1.154548e+01
        vertex 8.000000e+00 6.080000e+01 -1.138564e+01
    endloop
endfacet
facet normal 1.000000e+00 -0.000000e+00 0.000000e+00
    outer loop
        vertex 8.000000e+00 5.958589e+01 -1.154548e+01
        vertex 8.000000e+00 6.000000e+01 -1.160000e+01
        vertex 8.000000e+00 6.080000e+01 -1.138564e+01
    endloop
endfacet
facet normal 1.000000e+00 0.000000e+00 0.000000e+00
    outer loop
        vertex 8.000000e+00 6.000000e+01 -1.160000e+01
        vertex 8.000000e+00 6.041411e+01 -1.154548e+01
        vertex 8.000000e+00 6.080000e+01 -1.138564e+01
    endloop
endfacet
facet normal 0.000000e+00 9.914457e-01 -1.305199e-01
    outer loop
        vertex -8.200000e+00 6.251974e+01 -1.067516e+01
        vertex -9.200000e+00 6.251974e+01 -1.067516e+01
        vertex -8.200000e+00 6.260863e+01 -1.000000e+01
    endloop
endfacet
facet normal 0.000000e+00 9.914457e-01 -1.305199e-01
    outer loop
        vertex -9.200000e+00 6.251974e+01 -1.067516e+01
        vertex -9.200000e+00 6.260863e+01 -1.000000e+01
        vertex -8.200000e+00 6.260863e+01 -1.000000e+01
    endloop
endfacet
facet normal 0.000000e+00 9.914457e-01 1.305199e-01
    outer loop
        vertex -8.200000e+00 6.251974e+01 -9.324838e+00
        vertex -8.200000e+00 6.260863e+01 -1.000000e+01
        vertex -9.200000e+00 6.260863e+01 -1.000000e+01
    endloop
endfacet
facet normal 0.000000e+00 9.914457e-01 1.305199e-01
    outer loop
        vertex -8.200000e+00 6.251974e+01 -9.324838e+00
        vertex -9.200000e+00 6.260863e+01 -1.000000e+01
        vertex -9.200000e+00 6.251974e+01 -9.324838e+00
    endloop
endfacet
facet normal 0.000000e+00 9.238772e-01 3.826890e-01
    outer loop
        vertex -8.200000e+00 6.225914e+01 -8.695683e+00
        vertex -8.200000e+00 6.251974e+01 -9.324838e+00
        vertex -9.200000e+00 6.251974e+01 -9.324838e+00
    endloop
endfacet
facet normal 0.000000e+00 9.238772e-01 3.826890e-01
    outer loop
        vertex -8.200000e+00 6.225914e+01 -8.695683e+00
        vertex -9.200000e+00 6.251974e+01 -9.324838e+00
        vertex -9.200000e+00 6.225914e+01 -8.695683e+00
    endloop
endfacet
facet normal 0.000000e+00 7.933551e-01 6.087592e-01
    outer loop
        vertex -8.200000e+00 6.184458e+01 -8.155422e+00
        vertex -8.200000e+00 6.225914e+01 -8.695683e+00
        vertex -9.200000e+00 6.225914e+01 -8.695683e+00
    endloop
endfacet
facet normal 0.000000e+00 7.933551e-01 6.087592e-01
    outer loop
        vertex -8.200000e+00 6.184458e+01 -8.155422e+00
        vertex -9.200000e+00 6.225914e+01 -8.695683e+00
        vertex -9.200000e+00 6.184458e+01 -8.155422e+00
    endloop
endfacet
facet normal 0.000000e+00 6.087602e-01 7.933543e-01
    outer loop
        vertex -8.200000e+00 6.130431e+01 -7.740861e+00
        vertex -8.200000e+00 6.184458e+01 -8.155422e+00
        vertex -9.200000e+00 6.184458e+01 -8.155422e+00
    endloop
endfacet
facet normal 0.000000e+00 6.087602e-01 7.933543e-01
    outer loop
        vertex -8.200000e+00 6.130431e+01 -7.740861e+00
        vertex -9.200000e+00 6.184458e+01 -8.155422e+00
        vertex -9.200000e+00 6.130431e+01 -7.740861e+00
    endloop
endfacet
facet normal 0.000000e+00 3.826870e-01 9.238781e-01
    outer loop
        vertex -8.200000e+00 6.067517e+01 -7.480258e+00
        vertex -8.200000e+00 6.130431e+01 -7.740861e+00
        vertex -9.200000e+00 6.130431e+01 -7.740861e+00
    endloop
endfacet
facet normal 0.000000e+00 3.826870e-01 9.238781e-01
    outer loop
        vertex -8.200000e+00 6.067517e+01 -7.480258e+00
        vertex -9.200000e+00 6.130431e+01 -7.740861e+00
        vertex -9.200000e+00 6.067517e+01 -7.480258e+00
    endloop
endfacet
facet normal 0.000000e+00 1.305252e-01 9.914450e-01
    outer loop
        vertex -8.200000e+00 6.000000e+01 -7.391371e+00
        vertex -8.200000e+00 6.067517e+01 -7.480258e+00
        vertex -9.200000e+00 6.067517e+01 -7.480258e+00
    endloop
endfacet
facet normal 0.000000e+00 1.305252e-01 9.914450e-01
    outer loop
        vertex -8.200000e+00 6.000000e+01 -7.391371e+00
        vertex -9.200000e+00 6.067517e+01 -7.480258e+00
        vertex -9.200000e+00 6.000000e+01 -7.391371e+00
    endloop
endfacet
facet normal 0.000000e+00 -1.305252e-01 9.914450e-01
    outer loop
        vertex -8.200000e+00 5.932483e+01 -7.480258e+00
        vertex -8.200000e+00 6.000000e+01 -7.391371e+00
        vertex -9.200000e+00 5.932483e+01 -7.480258e+00
    endloop
endfacet
facet normal 0.000000e+00 -1.305252e-01 9.914450e-01
    outer loop
        vertex -9.200000e+00 5.932483e+01 -7.480258e+00
        vertex -8.200000e+00 6.000000e+01 -7.391371e+00
        vertex -9.200000e+00 6.000000e+01 -7.391371e+00
    endloop
endfacet
facet normal 0.000000e+00 -3.826870e-01 9.238781e-01
    outer loop
        vertex -8.200000e+00 5.869569e+01 -7.740861e+00
        vertex -8.200000e+00 5.932483e+01 -7.480258e+00
        vertex -9.200000e+00 5.869569e+01 -7.740861e+00
    endloop
endfacet
facet normal 0.000000e+00 -3.826870e-01 9.238781e-01
    outer loop
        vertex -9.200000e+00 5.869569e+01 -7.740861e+00
        vertex -8.200000e+00 5.932483e+01 -7.480258e+00
        vertex -9.200000e+00 5.932483e+01 -7.480258e+00
    endloop
endfacet
facet normal 0.000000e+00 -6.087602e-01 7.933543e-01
    outer loop
        vertex -8.200000e+00 5.815542e+01 -8.155422e+00
        vertex -8.200000e+00 5.869569e+01 -7.740861e+00
        vertex -9.200000e+00 5.815542e+01 -8.155422e+00
    endloop
endfacet
facet normal 0.000000e+00 -6.087602e-01 7.933543e-01
    outer loop
        vertex -9.200000e+00 5.815542e+01 -8.155422e+00
        vertex -8.200000e+00 5.869569e+01 -7.740861e+00
        vertex -9.200000e+00 5.869569e+01 -7.740861e+00
    endloop
endfacet
facet normal 0.000000e+00 -7.933551e-01 6.087592e-01
    outer loop
        vertex -8.200000e+00 5.774086e+01 -8.695683e+00
        vertex -8.200000e+00 5.815542e+01 -8.155422e+00
        vertex -9.200000e+00 5.774086e+01 -8.695683e+00
    endloop
endfacet
facet normal 0.000000e+00 -7.933551e-01 6.087592e-01
    outer loop
        vertex -9.200000e+00 5.774086e+01 -8.695683e+00
        vertex -8.200000e+00 5.815542e+01 -8.155422e+00
        vertex -9.200000e+00 5.815542e+01 -8.155422e+00
    endloop
endfacet
facet normal 0.000000e+00 -9.238772e-01 3.826890e-01
    outer loop
        vertex -8.200000e+00 5.748026e+01 -9.324838e+00
        vertex -8.200000e+00 5.774086e+01 -8.695683e+00
        vertex -9.200000e+00 5.748026e+01 -9.324838e+00
    endloop
endfacet
facet normal 0.000000e+00 -9.238772e-01 3.826890e-01
    outer loop
        vertex -9.200000e+00 5.748026e+01 -9.324838e+00
        vertex -8.200000e+00 5.774086e+01 -8.695683e+00
        vertex -9.200000e+00 5.774086e+01 -8.695683e+00
    endloop
endfacet
facet normal 0.000000e+00 -9.914457e-01 1.305199e-01
    outer loop
        vertex -8.200000e+00 5.739137e+01 -1.000000e+01
        vertex -8.200000e+00 5.748026e+01 -9.324838e+00
        vertex -9.200000e+00 5.739137e+01 -1.000000e+01
    endloop
endfacet
facet normal 0.000000e+00 -9.914457e-01 1.305199e-01
    outer loop
        vertex -9.200000e+00 5.739137e+01 -1.000000e+01
        vertex -8.200000e+00 5.748026e+01 -9.324838e+00
        vertex -9.200000e+00 5.748026e+01 -9.324838e+00
    endloop
endfacet
facet normal 0.000000e+00 -9.914457e-01 -1.305199e-01
    outer loop
        vertex -8.200000e+00 5.739137e+01 -1.000000e+01
        vertex -9.200000e+00 5.748026e+01 -1.067516e+01
        vertex -8.200000e+00 5.748026e+01 -1.067516e+01
    endloop
endfacet
facet normal -0.000000e+00 -9.914457e-01 -1.305199e-01
    outer loop
        vertex -8.200000e+00 5.739137e+01 -1.000000e+01
        vertex -9.200000e+00 5.739137e+01 -1.000000e+01
        vertex -9.200000e+00 5.748026e+01 -1.067516e+01
    endloop
endfacet
facet normal 0.000000e+00 -9.238772e-01 -3.826890e-01
    outer loop
        vertex -8.200000e+00 5.748026e+01 -1.067516e+01
        vertex -9.200000e+00 5.774086e+01 -1.130432e+01
        vertex -8.200000e+00 5.774086e+01 -1.130432e+01
    endloop
endfacet
facet normal -0.000000e+00 -9.238772e-01 -3.826890e-01
    outer loop
        vertex -8.200000e+00 5.748026e+01 -1.067516e+01
        vertex -9.200000e+00 5.748026e+01 -1.067516e+01
        vertex -9.200000e+00 5.774086e+01 -1.130432e+01
    endloop
endfacet
facet normal 0.000000e+00 -7.933551e-01 -6.087592e-01
    outer loop
        vertex -8.200000e+00 5.774086e+01 -1.130432e+01
        vertex -9.200000e+00 5.815542e+01 -1.184458e+01
        vertex -8.200000e+00 5.815542e+01 -1.184458e+01
    endloop
endfacet
facet normal -0.000000e+00 -7.933551e-01 -6.087592e-01
    outer loop
        vertex -8.200000e+00 5.774086e+01 -1.130432e+01
        vertex -9.200000e+00 5.774086e+01 -1.130432e+01
        vertex -9.200000e+00 5.815542e+01 -1.184458e+01
    endloop
endfacet
facet normal 0.000000e+00 -6.087606e-01 -7.933540e-01
    outer loop
        vertex -8.200000e+00 5.815542e+01 -1.184458e+01
        vertex -9.200000e+00 5.869569e+01 -1.225914e+01
        vertex -8.200000e+00 5.869569e+01 -1.225914e+01
    endloop
endfacet
facet normal -0.000000e+00 -6.087606e-01 -7.933540e-01
    outer loop
        vertex -8.200000e+00 5.815542e+01 -1.184458e+01
        vertex -9.200000e+00 5.815542e+01 -1.184458e+01
        vertex -9.200000e+00 5.869569e+01 -1.225914e+01
    endloop
endfacet
facet normal 0.000000e+00 -3.826858e-01 -9.238786e-01
    outer loop
        vertex -8.200000e+00 5.869569e+01 -1.225914e+01
        vertex -9.200000e+00 5.932483e+01 -1.251974e+01
        vertex -8.200000e+00 5.932483e+01 -1.251974e+01
    endloop
endfacet
facet normal -0.000000e+00 -3.826858e-01 -9.238786e-01
    outer loop
        vertex -8.200000e+00 5.869569e+01 -1.225914e+01
        vertex -9.200000e+00 5.869569e+01 -1.225914e+01
        vertex -9.200000e+00 5.932483e+01 -1.251974e+01
    endloop
endfacet
facet normal 0.000000e+00 -1.305259e-01 -9.914449e-01
    outer loop
        vertex -8.200000e+00 5.932483e+01 -1.251974e+01
        vertex -9.200000e+00 6.000000e+01 -1.260863e+01
        vertex -8.200000e+00 6.000000e+01 -1.260863e+01
    endloop
endfacet
facet normal -0.000000e+00 -1.305259e-01 -9.914449e-01
    outer loop
        vertex -8.200000e+00 5.932483e+01 -1.251974e+01
        vertex -9.200000e+00 5.932483e+01 -1.251974e+01
        vertex -9.200000e+00 6.000000e+01 -1.260863e+01
    endloop
endfacet
facet normal 0.000000e+00 1.305259e-01 -9.914449e-01
    outer loop
        vertex -8.200000e+00 6.000000e+01 -1.260863e+01
        vertex -9.200000e+00 6.000000e+01 -1.260863e+01
        vertex -8.200000e+00 6.067517e+01 -1.251974e+01
    endloop
endfacet
facet normal 0.000000e+00 1.305259e-01 -9.914449e-01
    outer loop
        vertex -9.200000e+00 6.000000e+01 -1.260863e+01
        vertex -9.200000e+00 6.067517e+01 -1.251974e+01
        vertex -8.200000e+00 6.067517e+01 -1.251974e+01
    endloop
endfacet
facet normal 0.000000e+00 3.826858e-01 -9.238786e-01
    outer loop
        vertex -8.200000e+00 6.067517e+01 -1.251974e+01
        vertex -9.200000e+00 6.067517e+01 -1.251974e+01
        vertex -8.200000e+00 6.130431e+01 -1.225914e+01
    endloop
endfacet
facet normal 0.000000e+00 3.826858e-01 -9.238786e-01
    outer loop
        vertex -9.200000e+00 6.067517e+01 -1.251974e+01
        vertex -9.200000e+00 6.130431e+01 -1.225914e+01
        vertex -8.200000e+00 6.130431e+01 -1.225914e+01
    endloop
endfacet
facet normal 0.000000e+00 6.087606e-01 -7.933540e-01
    outer loop
        vertex -8.200000e+00 6.130431e+01 -1.225914e+01
        vertex -9.200000e+00 6.130431e+01 -1.225914e+01
        vertex -8.200000e+00 6.184458e+01 -1.184458e+01
    endloop
endfacet
facet normal 0.000000e+00 6.087606e-01 -7.933540e-01
    outer loop
        vertex -9.200000e+00 6.130431e+01 -1.225914e+01
        vertex -9.200000e+00 6.184458e+01 -1.184458e+01
        vertex -8.200000e+00 6.184458e+01 -1.184458e+01
    endloop
endfacet
facet normal 0.000000e+00 7.933551e-01 -6.087592e-01
    outer loop
        vertex -8.200000e+00 6.184458e+01 -1.184458e+01
        vertex -9.200000e+00 6.184458e+01 -1.184458e+01
        vertex -8.200000e+00 6.225914e+01 -1.130432e+01
    endloop
endfacet
facet normal 0.000000e+00 7.933551e-01 -6.087592e-01
    outer loop
        vertex -9.200000e+00 6.184458e+01 -1.184458e+01
        vertex -9.200000e+00 6.225914e+01 -1.130432e+01
        vertex -8.200000e+00 6.225914e+01 -1.130432e+01
    endloop
endfacet
facet normal 0.000000e+00 9.238772e-01 -3.826890e-01
    outer loop
        vertex -8.200000e+00 6.225914e+01 -1.130432e+01
        vertex -9.200000e+00 6.225914e+01 -1.130432e+01
        vertex -8.200000e+00 6.251974e+01 -1.067516e+01
    endloop
endfacet
facet normal 0.000000e+00 9.238772e-01 -3.826890e-01
    outer loop
        vertex -9.200000e+00 6.225914e+01 -1.130432e+01
        vertex -9.200000e+00 6.251974e+01 -1.067516e+01
        vertex -8.200000e+00 6.251974e+01 -1.067516e+01
    endloop
endfacet
endsolid pins.stl
