solid pusher-stop.stl
facet normal 0.000000e+00 -1.000000e+00 0.000000e+00
    outer loop
        vertex -6.000000e+00 4.350000e+01 -1.000000e+01
        vertex 6.000000e+00 4.350000e+01 -1.000000e+01
        vertex -6.000000e+00 4.350000e+01 -7.000000e+00
    endloop
endfacet
facet normal 0.000000e+00 -1.000000e+00 0.000000e+00
    outer loop
        vertex 6.000000e+00 4.350000e+01 -1.000000e+01
        vertex 6.000000e+00 4.350000e+01 -7.000000e+00
        vertex -6.000000e+00 4.350000e+01 -7.000000e+00
    endloop
endfacet
facet normal 0.000000e+00 0.000000e+00 -1.000000e+00
    outer loop
        vertex 6.000000e+00 5.800000e+01 -1.300000e+01
        vertex -6.000000e+00 6.900000e+01 -1.300000e+01
        vertex 6.000000e+00 6.900000e+01 -1.300000e+01
    endloop
endfacet
facet normal 0.000000e+00 0.000000e+00 -1.000000e+00
    outer loop
        vertex 6.000000e+00 5.800000e+01 -1.300000e+01
        vertex -6.000000e+00 5.800000e+01 -1.300000e+01
        vertex -6.000000e+00 6.900000e+01 -1.300000e+01
    endloop
endfacet
facet normal -0.000000e+00 -2.026056e-01 -9.792604e-01
    outer loop
        vertex 6.000000e+00 4.350000e+01 -1.000000e+01
        vertex -6.000000e+00 4.350000e+01 -1.000000e+01
        vertex 6.000000e+00 5.800000e+01 -1.300000e+01
    endloop
endfacet
facet normal 0.000000e+00 -2.026056e-01 -9.792604e-01
    outer loop
        vertex -6.000000e+00 4.350000e+01 -1.000000e+01
        vertex -6.000000e+00 5.800000e+01 -1.300000e+01
        vertex 6.000000e+00 5.800000e+01 -1.300000e+01
    endloop
endfacet
facet normal 0.000000e+00 0.000000e+00 1.000000e+00
    outer loop
        vertex 6.000000e+00 4.350000e+01 -7.000000e+00
        vertex 3.464102e+00 4.650000e+01 -7.000000e+00
        vertex 2.828427e+00 4.567157e+01 -7.000000e+00
    endloop
endfacet
facet normal 0.000000e+00 0.000000e+00 1.000000e+00
    outer loop
        vertex 6.000000e+00 4.350000e+01 -7.000000e+00
        vertex 2.828427e+00 4.567157e+01 -7.000000e+00
        vertex 2.000000e+00 4.503590e+01 -7.000000e+00
    endloop
endfacet
facet normal 0.000000e+00 0.000000e+00 1.000000e+00
    outer loop
        vertex 6.000000e+00 4.350000e+01 -7.000000e+00
        vertex 3.863703e+00 4.746473e+01 -7.000000e+00
        vertex 3.464102e+00 4.650000e+01 -7.000000e+00
    endloop
endfacet
facet normal 0.000000e+00 0.000000e+00 1.000000e+00
    outer loop
        vertex 6.000000e+00 4.350000e+01 -7.000000e+00
        vertex 2.000000e+00 4.503590e+01 -7.000000e+00
        vertex 1.035276e+00 4.463630e+01 -7.000000e+00
    endloop
endfacet
facet normal 0.000000e+00 -0.000000e+00 1.000000e+00
    outer loop
        vertex 6.000000e+00 4.350000e+01 -7.000000e+00
        vertex 6.000000e+00 6.350000e+01 -7.000000e+00
        vertex 3.863703e+00 4.746473e+01 -7.000000e+00
    endloop
endfacet
facet normal 0.000000e+00 0.000000e+00 1.000000e+00
    outer loop
        vertex -6.000000e+00 4.350000e+01 -7.000000e+00
        vertex 6.000000e+00 4.350000e+01 -7.000000e+00
        vertex 1.035276e+00 4.463630e+01 -7.000000e+00
    endloop
endfacet
facet normal 0.000000e+00 0.000000e+00 1.000000e+00
    outer loop
        vertex -6.000000e+00 4.350000e+01 -7.000000e+00
        vertex 1.035276e+00 4.463630e+01 -7.000000e+00
        vertex 5.329071e-15 4.450000e+01 -7.000000e+00
    endloop
endfacet
facet normal 0.000000e+00 0.000000e+00 1.000000e+00
    outer loop
        vertex -6.000000e+00 4.350000e+01 -7.000000e+00
        vertex 5.329071e-15 4.450000e+01 -7.000000e+00
        vertex -1.035276e+00 4.463630e+01 -7.000000e+00
    endloop
endfacet
facet normal 0.000000e+00 0.000000e+00 1.000000e+00
    outer loop
        vertex -6.000000e+00 4.350000e+01 -7.000000e+00
        vertex -1.035276e+00 4.463630e+01 -7.000000e+00
        vertex -2.000000e+00 4.503590e+01 -7.000000e+00
    endloop
endfacet
facet normal 0.000000e+00 0.000000e+00 1.000000e+00
    outer loop
        vertex -6.000000e+00 4.350000e+01 -7.000000e+00
        vertex -2.000000e+00 4.503590e+01 -7.000000e+00
        vertex -2.828427e+00 4.567157e+01 -7.000000e+00
    endloop
endfacet
facet normal 0.000000e+00 0.000000e+00 1.000000e+00
    outer loop
        vertex -6.000000e+00 4.350000e+01 -7.000000e+00
        vertex -2.828427e+00 4.567157e+01 -7.000000e+00
        vertex -3.464102e+00 4.650000e+01 -7.000000e+00
    endloop
endfacet
facet normal 0.000000e+00 0.000000e+00 1.000000e+00
    outer loop
        vertex -6.000000e+00 4.350000e+01 -7.000000e+00
        vertex -3.464102e+00 4.650000e+01 -7.000000e+00
        vertex -3.863703e+00 4.746473e+01 -7.000000e+00
    endloop
endfacet
facet normal 0.000000e+00 0.000000e+00 1.000000e+00
    outer loop
        vertex -6.000000e+00 4.350000e+01 -7.000000e+00
        vertex -3.863703e+00 4.746473e+01 -7.000000e+00
        vertex -6.000000e+00 6.350000e+01 -7.000000e+00
    endloop
endfacet
facet normal 0.000000e+00 0.000000e+00 1.000000e+00
    outer loop
        vertex -3.863703e+00 4.746473e+01 -7.000000e+00
        vertex -4.000000e+00 4.850000e+01 -7.000000e+00
        vertex -6.000000e+00 6.350000e+01 -7.000000e+00
    endloop
endfacet
facet normal 0.000000e+00 -0.000000e+00 1.000000e+00
    outer loop
        vertex -4.000000e+00 4.850000e+01 -7.000000e+00
        vertex -3.863703e+00 4.953527e+01 -7.000000e+00
        vertex -6.000000e+00 6.350000e+01 -7.000000e+00
    endloop
endfacet
facet normal 0.000000e+00 -0.000000e+00 1.000000e+00
    outer loop
        vertex -3.863703e+00 4.953527e+01 -7.000000e+00
        vertex -3.464102e+00 5.050000e+01 -7.000000e+00
        vertex -6.000000e+00 6.350000e+01 -7.000000e+00
    endloop
endfacet
facet normal 0.000000e+00 -0.000000e+00 1.000000e+00
    outer loop
        vertex -3.464102e+00 5.050000e+01 -7.000000e+00
        vertex 6.000000e+00 6.350000e+01 -7.000000e+00
        vertex -6.000000e+00 6.350000e+01 -7.000000e+00
    endloop
endfacet
facet normal 0.000000e+00 0.000000e+00 1.000000e+00
    outer loop
        vertex -3.464102e+00 5.050000e+01 -7.000000e+00
        vertex -2.828427e+00 5.132843e+01 -7.000000e+00
        vertex 6.000000e+00 6.350000e+01 -7.000000e+00
    endloop
endfacet
facet normal 0.000000e+00 0.000000e+00 1.000000e+00
    outer loop
        vertex -2.828427e+00 5.132843e+01 -7.000000e+00
        vertex -2.000000e+00 5.196410e+01 -7.000000e+00
        vertex 6.000000e+00 6.350000e+01 -7.000000e+00
    endloop
endfacet
facet normal 0.000000e+00 0.000000e+00 1.000000e+00
    outer loop
        vertex -2.000000e+00 5.196410e+01 -7.000000e+00
        vertex -1.035276e+00 5.236370e+01 -7.000000e+00
        vertex 6.000000e+00 6.350000e+01 -7.000000e+00
    endloop
endfacet
facet normal 0.000000e+00 0.000000e+00 1.000000e+00
    outer loop
        vertex -1.035276e+00 5.236370e+01 -7.000000e+00
        vertex 5.329071e-15 5.250000e+01 -7.000000e+00
        vertex 6.000000e+00 6.350000e+01 -7.000000e+00
    endloop
endfacet
facet normal 0.000000e+00 -0.000000e+00 1.000000e+00
    outer loop
        vertex 1.035276e+00 5.236370e+01 -7.000000e+00
        vertex 6.000000e+00 6.350000e+01 -7.000000e+00
        vertex 5.329071e-15 5.250000e+01 -7.000000e+00
    endloop
endfacet
facet normal 0.000000e+00 -0.000000e+00 1.000000e+00
    outer loop
        vertex 2.000000e+00 5.196410e+01 -7.000000e+00
        vertex 6.000000e+00 6.350000e+01 -7.000000e+00
        vertex 1.035276e+00 5.236370e+01 -7.000000e+00
    endloop
endfacet
facet normal 0.000000e+00 -0.000000e+00 1.000000e+00
    outer loop
        vertex 2.828427e+00 5.132843e+01 -7.000000e+00
        vertex 6.000000e+00 6.350000e+01 -7.000000e+00
        vertex 2.000000e+00 5.196410e+01 -7.000000e+00
    endloop
endfacet
facet normal 0.000000e+00 -0.000000e+00 1.000000e+00
    outer loop
        vertex 3.464102e+00 5.050000e+01 -7.000000e+00
        vertex 6.000000e+00 6.350000e+01 -7.000000e+00
        vertex 2.828427e+00 5.132843e+01 -7.000000e+00
    endloop
endfacet
facet normal 0.000000e+00 -0.000000e+00 1.000000e+00
    outer loop
        vertex 3.863703e+00 4.953527e+01 -7.000000e+00
        vertex 6.000000e+00 6.350000e+01 -7.000000e+00
        vertex 3.464102e+00 5.050000e+01 -7.000000e+00
    endloop
endfacet
facet normal 0.000000e+00 -0.000000e+00 1.000000e+00
    outer loop
        vertex 4.000000e+00 4.850000e+01 -7.000000e+00
        vertex 6.000000e+00 6.350000e+01 -7.000000e+00
        vertex 3.863703e+00 4.953527e+01 -7.000000e+00
    endloop
endfacet
facet normal 0.000000e+00 0.000000e+00 1.000000e+00
    outer loop
        vertex 3.863703e+00 4.746473e+01 -7.000000e+00
        vertex 6.000000e+00 6.350000e+01 -7.000000e+00
        vertex 4.000000e+00 4.850000e+01 -7.000000e+00
    endloop
endfacet
facet normal 0.000000e+00 0.000000e+00 1.000000e+00
    outer loop
        vertex 2.000000e+00 5.196410e+01 -9.000000e+00
        vertex 1.035276e+00 5.236370e+01 -9.000000e+00
        vertex 0.000000e+00 5.250000e+01 -9.000000e+00
    endloop
endfacet
facet normal 0.000000e+00 0.000000e+00 1.000000e+00
    outer loop
        vertex 2.000000e+00 5.196410e+01 -9.000000e+00
        vertex 0.000000e+00 5.250000e+01 -9.000000e+00
        vertex -1.035276e+00 5.236370e+01 -9.000000e+00
    endloop
endfacet
facet normal 0.000000e+00 0.000000e+00 1.000000e+00
    outer loop
        vertex 2.000000e+00 5.196410e+01 -9.000000e+00
        vertex -1.035276e+00 5.236370e+01 -9.000000e+00
        vertex -2.000000e+00 5.196410e+01 -9.000000e+00
    endloop
endfacet
facet normal 0.000000e+00 0.000000e+00 1.000000e+00
    outer loop
        vertex 2.828427e+00 5.132843e+01 -9.000000e+00
        vertex 2.000000e+00 5.196410e+01 -9.000000e+00
        vertex -2.000000e+00 5.196410e+01 -9.000000e+00
    endloop
endfacet
facet normal 0.000000e+00 0.000000e+00 1.000000e+00
    outer loop
        vertex 3.464102e+00 5.050000e+01 -9.000000e+00
        vertex 2.828427e+00 5.132843e+01 -9.000000e+00
        vertex -2.000000e+00 5.196410e+01 -9.000000e+00
    endloop
endfacet
facet normal 0.000000e+00 0.000000e+00 1.000000e+00
    outer loop
        vertex 3.863703e+00 4.953527e+01 -9.000000e+00
        vertex 3.464102e+00 5.050000e+01 -9.000000e+00
        vertex -2.000000e+00 5.196410e+01 -9.000000e+00
    endloop
endfacet
facet normal 0.000000e+00 0.000000e+00 1.000000e+00
    outer loop
        vertex 3.863703e+00 4.953527e+01 -9.000000e+00
        vertex -2.000000e+00 5.196410e+01 -9.000000e+00
        vertex -2.828427e+00 5.132843e+01 -9.000000e+00
    endloop
endfacet
facet normal 0.000000e+00 0.000000e+00 1.000000e+00
    outer loop
        vertex 3.863703e+00 4.953527e+01 -9.000000e+00
        vertex -2.828427e+00 5.132843e+01 -9.000000e+00
        vertex -3.464102e+00 5.050000e+01 -9.000000e+00
    endloop
endfacet
facet normal 0.000000e+00 0.000000e+00 1.000000e+00
    outer loop
        vertex 3.863703e+00 4.953527e+01 -9.000000e+00
        vertex -3.464102e+00 5.050000e+01 -9.000000e+00
        vertex -3.863703e+00 4.953527e+01 -9.000000e+00
    endloop
endfacet
facet normal 0.000000e+00 0.000000e+00 1.000000e+00
    outer loop
        vertex 4.000000e+00 4.850000e+01 -9.000000e+00
        vertex 3.863703e+00 4.953527e+01 -9.000000e+00
        vertex -3.863703e+00 4.953527e+01 -9.000000e+00
    endloop
endfacet
facet normal 0.000000e+00 -0.000000e+00 1.000000e+00
    outer loop
        vertex 3.863703e+00 4.746473e+01 -9.000000e+00
        vertex 4.000000e+00 4.850000e+01 -9.000000e+00
        vertex -3.863703e+00 4.953527e+01 -9.000000e+00
    endloop
endfacet
facet normal 0.000000e+00 -0.000000e+00 1.000000e+00
    outer loop
        vertex 3.464102e+00 4.650000e+01 -9.000000e+00
        vertex 3.863703e+00 4.746473e+01 -9.000000e+00
        vertex -3.863703e+00 4.953527e+01 -9.000000e+00
    endloop
endfacet
facet normal 0.000000e+00 -0.000000e+00 1.000000e+00
    outer loop
        vertex 2.828427e+00 4.567157e+01 -9.000000e+00
        vertex 3.464102e+00 4.650000e+01 -9.000000e+00
        vertex -3.863703e+00 4.953527e+01 -9.000000e+00
    endloop
endfacet
facet normal 0.000000e+00 -0.000000e+00 1.000000e+00
    outer loop
        vertex 2.000000e+00 4.503590e+01 -9.000000e+00
        vertex 2.828427e+00 4.567157e+01 -9.000000e+00
        vertex -3.863703e+00 4.953527e+01 -9.000000e+00
    endloop
endfacet
facet normal 0.000000e+00 -0.000000e+00 1.000000e+00
    outer loop
        vertex 1.035276e+00 4.463630e+01 -9.000000e+00
        vertex 2.000000e+00 4.503590e+01 -9.000000e+00
        vertex -3.863703e+00 4.953527e+01 -9.000000e+00
    endloop
endfacet
facet normal 0.000000e+00 -0.000000e+00 1.000000e+00
    outer loop
        vertex 0.000000e+00 4.450000e+01 -9.000000e+00
        vertex 1.035276e+00 4.463630e+01 -9.000000e+00
        vertex -3.863703e+00 4.953527e+01 -9.000000e+00
    endloop
endfacet
facet normal 0.000000e+00 0.000000e+00 1.000000e+00
    outer loop
        vertex 0.000000e+00 4.450000e+01 -9.000000e+00
        vertex -3.863703e+00 4.953527e+01 -9.000000e+00
        vertex -1.035276e+00 4.463630e+01 -9.000000e+00
    endloop
endfacet
facet normal 0.000000e+00 0.000000e+00 1.000000e+00
    outer loop
        vertex -1.035276e+00 4.463630e+01 -9.000000e+00
        vertex -3.863703e+00 4.953527e+01 -9.000000e+00
        vertex -4.000000e+00 4.850000e+01 -9.000000e+00
    endloop
endfacet
facet normal 0.000000e+00 0.000000e+00 1.000000e+00
    outer loop
        vertex -1.035276e+00 4.463630e+01 -9.000000e+00
        vertex -4.000000e+00 4.850000e+01 -9.000000e+00
        vertex -3.863703e+00 4.746473e+01 -9.000000e+00
    endloop
endfacet
facet normal 0.000000e+00 0.000000e+00 1.000000e+00
    outer loop
        vertex -1.035276e+00 4.463630e+01 -9.000000e+00
        vertex -3.863703e+00 4.746473e+01 -9.000000e+00
        vertex -2.000000e+00 4.503590e+01 -9.000000e+00
    endloop
endfacet
facet normal 0.000000e+00 0.000000e+00 1.000000e+00
    outer loop
        vertex -2.828427e+00 4.567157e+01 -9.000000e+00
        vertex -3.863703e+00 4.746473e+01 -9.000000e+00
        vertex -3.464102e+00 4.650000e+01 -9.000000e+00
    endloop
endfacet
facet normal 0.000000e+00 0.000000e+00 1.000000e+00
    outer loop
        vertex -2.000000e+00 4.503590e+01 -9.000000e+00
        vertex -3.863703e+00 4.746473e+01 -9.000000e+00
        vertex -2.828427e+00 4.567157e+01 -9.000000e+00
    endloop
endfacet
facet normal -9.914448e-01 -1.305265e-01 0.000000e+00
    outer loop
        vertex 4.000000e+00 4.850000e+01 -9.000000e+00
        vertex 4.000000e+00 4.850000e+01 -7.000000e+00
        vertex 3.863703e+00 4.953527e+01 -9.000000e+00
    endloop
endfacet
facet normal -9.914448e-01 -1.305265e-01 0.000000e+00
    outer loop
        vertex 4.000000e+00 4.850000e+01 -7.000000e+00
        vertex 3.863703e+00 4.953527e+01 -7.000000e+00
        vertex 3.863703e+00 4.953527e+01 -9.000000e+00
    endloop
endfacet
facet normal -9.238797e-01 -3.826829e-01 0.000000e+00
    outer loop
        vertex 3.863703e+00 4.953527e+01 -9.000000e+00
        vertex 3.863703e+00 4.953527e+01 -7.000000e+00
        vertex 3.464102e+00 5.050000e+01 -9.000000e+00
    endloop
endfacet
facet normal -9.238797e-01 -3.826829e-01 0.000000e+00
    outer loop
        vertex 3.863703e+00 4.953527e+01 -7.000000e+00
        vertex 3.464102e+00 5.050000e+01 -7.000000e+00
        vertex 3.464102e+00 5.050000e+01 -9.000000e+00
    endloop
endfacet
facet normal -7.933531e-01 -6.087618e-01 0.000000e+00
    outer loop
        vertex 3.464102e+00 5.050000e+01 -9.000000e+00
        vertex 3.464102e+00 5.050000e+01 -7.000000e+00
        vertex 2.828427e+00 5.132843e+01 -9.000000e+00
    endloop
endfacet
facet normal -7.933531e-01 -6.087618e-01 0.000000e+00
    outer loop
        vertex 3.464102e+00 5.050000e+01 -7.000000e+00
        vertex 2.828427e+00 5.132843e+01 -7.000000e+00
        vertex 2.828427e+00 5.132843e+01 -9.000000e+00
    endloop
endfacet
facet normal -6.087609e-01 -7.933538e-01 0.000000e+00
    outer loop
        vertex 2.828427e+00 5.132843e+01 -9.000000e+00
        vertex 2.828427e+00 5.132843e+01 -7.000000e+00
        vertex 2.000000e+00 5.196410e+01 -9.000000e+00
    endloop
endfacet
facet normal -6.087609e-01 -7.933538e-01 0.000000e+00
    outer loop
        vertex 2.828427e+00 5.132843e+01 -7.000000e+00
        vertex 2.000000e+00 5.196410e+01 -7.000000e+00
        vertex 2.000000e+00 5.196410e+01 -9.000000e+00
    endloop
endfacet
facet normal -3.826860e-01 -9.238785e-01 0.000000e+00
    outer loop
        vertex 2.000000e+00 5.196410e+01 -9.000000e+00
        vertex 2.000000e+00 5.196410e+01 -7.000000e+00
        vertex 1.035276e+00 5.236370e+01 -9.000000e+00
    endloop
endfacet
facet normal -3.826860e-01 -9.238785e-01 0.000000e+00
    outer loop
        vertex 2.000000e+00 5.196410e+01 -7.000000e+00
        vertex 1.035276e+00 5.236370e+01 -7.000000e+00
        vertex 1.035276e+00 5.236370e+01 -9.000000e+00
    endloop
endfacet
facet normal -1.305249e-01 -9.914450e-01 0.000000e+00
    outer loop
        vertex 1.035276e+00 5.236370e+01 -9.000000e+00
        vertex 1.035276e+00 5.236370e+01 -7.000000e+00
        vertex 0.000000e+00 5.250000e+01 -9.000000e+00
    endloop
endfacet
facet normal -1.305249e-01 -9.914450e-01 3.455461e-16
    outer loop
        vertex 1.035276e+00 5.236370e+01 -7.000000e+00
        vertex 5.329071e-15 5.250000e+01 -7.000000e+00
        vertex 0.000000e+00 5.250000e+01 -9.000000e+00
    endloop
endfacet
facet normal 1.305249e-01 -9.914450e-01 -3.455461e-16
    outer loop
        vertex -1.035276e+00 5.236370e+01 -9.000000e+00
        vertex 0.000000e+00 5.250000e+01 -9.000000e+00
        vertex 5.329071e-15 5.250000e+01 -7.000000e+00
    endloop
endfacet
facet normal 1.305249e-01 -9.914450e-01 0.000000e+00
    outer loop
        vertex -1.035276e+00 5.236370e+01 -9.000000e+00
        vertex 5.329071e-15 5.250000e+01 -7.000000e+00
        vertex -1.035276e+00 5.236370e+01 -7.000000e+00
    endloop
endfacet
facet normal 3.826860e-01 -9.238785e-01 0.000000e+00
    outer loop
        vertex -2.000000e+00 5.196410e+01 -9.000000e+00
        vertex -1.035276e+00 5.236370e+01 -9.000000e+00
        vertex -1.035276e+00 5.236370e+01 -7.000000e+00
    endloop
endfacet
facet normal 3.826860e-01 -9.238785e-01 0.000000e+00
    outer loop
        vertex -2.000000e+00 5.196410e+01 -9.000000e+00
        vertex -1.035276e+00 5.236370e+01 -7.000000e+00
        vertex -2.000000e+00 5.196410e+01 -7.000000e+00
    endloop
endfacet
facet normal 6.087609e-01 -7.933538e-01 0.000000e+00
    outer loop
        vertex -2.828427e+00 5.132843e+01 -9.000000e+00
        vertex -2.000000e+00 5.196410e+01 -9.000000e+00
        vertex -2.000000e+00 5.196410e+01 -7.000000e+00
    endloop
endfacet
facet normal 6.087609e-01 -7.933538e-01 0.000000e+00
    outer loop
        vertex -2.828427e+00 5.132843e+01 -9.000000e+00
        vertex -2.000000e+00 5.196410e+01 -7.000000e+00
        vertex -2.828427e+00 5.132843e+01 -7.000000e+00
    endloop
endfacet
facet normal 7.933531e-01 -6.087618e-01 0.000000e+00
    outer loop
        vertex -3.464102e+00 5.050000e+01 -9.000000e+00
        vertex -2.828427e+00 5.132843e+01 -9.000000e+00
        vertex -2.828427e+00 5.132843e+01 -7.000000e+00
    endloop
endfacet
facet normal 7.933531e-01 -6.087618e-01 0.000000e+00
    outer loop
        vertex -3.464102e+00 5.050000e+01 -9.000000e+00
        vertex -2.828427e+00 5.132843e+01 -7.000000e+00
        vertex -3.464102e+00 5.050000e+01 -7.000000e+00
    endloop
endfacet
facet normal 9.238797e-01 -3.826829e-01 0.000000e+00
    outer loop
        vertex -3.863703e+00 4.953527e+01 -9.000000e+00
        vertex -3.464102e+00 5.050000e+01 -9.000000e+00
        vertex -3.464102e+00 5.050000e+01 -7.000000e+00
    endloop
endfacet
facet normal 9.238797e-01 -3.826829e-01 0.000000e+00
    outer loop
        vertex -3.863703e+00 4.953527e+01 -9.000000e+00
        vertex -3.464102e+00 5.050000e+01 -7.000000e+00
        vertex -3.863703e+00 4.953527e+01 -7.000000e+00
    endloop
endfacet
facet normal 9.914448e-01 -1.305265e-01 0.000000e+00
    outer loop
        vertex -4.000000e+00 4.850000e+01 -9.000000e+00
        vertex -3.863703e+00 4.953527e+01 -9.000000e+00
        vertex -3.863703e+00 4.953527e+01 -7.000000e+00
    endloop
endfacet
facet normal 9.914448e-01 -1.305265e-01 0.000000e+00
    outer loop
        vertex -4.000000e+00 4.850000e+01 -9.000000e+00
        vertex -3.863703e+00 4.953527e+01 -7.000000e+00
        vertex -4.000000e+00 4.850000e+01 -7.000000e+00
    endloop
endfacet
facet normal 9.914448e-01 1.305265e-01 0.000000e+00
    outer loop
        vertex -3.863703e+00 4.746473e+01 -9.000000e+00
        vertex -4.000000e+00 4.850000e+01 -9.000000e+00
        vertex -4.000000e+00 4.850000e+01 -7.000000e+00
    endloop
endfacet
facet normal 9.914448e-01 1.305265e-01 -0.000000e+00
    outer loop
        vertex -3.863703e+00 4.746473e+01 -9.000000e+00
        vertex -4.000000e+00 4.850000e+01 -7.000000e+00
        vertex -3.863703e+00 4.746473e+01 -7.000000e+00
    endloop
endfacet
facet normal 9.238797e-01 3.826829e-01 0.000000e+00
    outer loop
        vertex -3.464102e+00 4.650000e+01 -9.000000e+00
        vertex -3.863703e+00 4.746473e+01 -9.000000e+00
        vertex -3.863703e+00 4.746473e+01 -7.000000e+00
    endloop
endfacet
facet normal 9.238797e-01 3.826829e-01 -0.000000e+00
    outer loop
        vertex -3.464102e+00 4.650000e+01 -9.000000e+00
        vertex -3.863703e+00 4.746473e+01 -7.000000e+00
        vertex -3.464102e+00 4.650000e+01 -7.000000e+00
    endloop
endfacet
facet normal 7.933531e-01 6.087618e-01 0.000000e+00
    outer loop
        vertex -2.828427e+00 4.567157e+01 -9.000000e+00
        vertex -3.464102e+00 4.650000e+01 -9.000000e+00
        vertex -3.464102e+00 4.650000e+01 -7.000000e+00
    endloop
endfacet
facet normal 7.933531e-01 6.087618e-01 -0.000000e+00
    outer loop
        vertex -2.828427e+00 4.567157e+01 -9.000000e+00
        vertex -3.464102e+00 4.650000e+01 -7.000000e+00
        vertex -2.828427e+00 4.567157e+01 -7.000000e+00
    endloop
endfacet
facet normal 6.087609e-01 7.933538e-01 0.000000e+00
    outer loop
        vertex -2.000000e+00 4.503590e+01 -9.000000e+00
        vertex -2.828427e+00 4.567157e+01 -9.000000e+00
        vertex -2.828427e+00 4.567157e+01 -7.000000e+00
    endloop
endfacet
facet normal 6.087609e-01 7.933538e-01 -0.000000e+00
    outer loop
        vertex -2.000000e+00 4.503590e+01 -9.000000e+00
        vertex -2.828427e+00 4.567157e+01 -7.000000e+00
        vertex -2.000000e+00 4.503590e+01 -7.000000e+00
    endloop
endfacet
facet normal 3.826860e-01 9.238785e-01 0.000000e+00
    outer loop
        vertex -1.035276e+00 4.463630e+01 -9.000000e+00
        vertex -2.000000e+00 4.503590e+01 -9.000000e+00
        vertex -2.000000e+00 4.503590e+01 -7.000000e+00
    endloop
endfacet
facet normal 3.826860e-01 9.238785e-01 -0.000000e+00
    outer loop
        vertex -1.035276e+00 4.463630e+01 -9.000000e+00
        vertex -2.000000e+00 4.503590e+01 -7.000000e+00
        vertex -1.035276e+00 4.463630e+01 -7.000000e+00
    endloop
endfacet
facet normal 1.305249e-01 9.914450e-01 0.000000e+00
    outer loop
        vertex 0.000000e+00 4.450000e+01 -9.000000e+00
        vertex -1.035276e+00 4.463630e+01 -9.000000e+00
        vertex -1.035276e+00 4.463630e+01 -7.000000e+00
    endloop
endfacet
facet normal 1.305249e-01 9.914450e-01 -3.477882e-16
    outer loop
        vertex 0.000000e+00 4.450000e+01 -9.000000e+00
        vertex -1.035276e+00 4.463630e+01 -7.000000e+00
        vertex 5.329071e-15 4.450000e+01 -7.000000e+00
    endloop
endfacet
facet normal -1.305249e-01 9.914450e-01 3.477882e-16
    outer loop
        vertex 0.000000e+00 4.450000e+01 -9.000000e+00
        vertex 5.329071e-15 4.450000e+01 -7.000000e+00
        vertex 1.035276e+00 4.463630e+01 -9.000000e+00
    endloop
endfacet
facet normal -1.305249e-01 9.914450e-01 0.000000e+00
    outer loop
        vertex 5.329071e-15 4.450000e+01 -7.000000e+00
        vertex 1.035276e+00 4.463630e+01 -7.000000e+00
        vertex 1.035276e+00 4.463630e+01 -9.000000e+00
    endloop
endfacet
facet normal -3.826860e-01 9.238785e-01 0.000000e+00
    outer loop
        vertex 1.035276e+00 4.463630e+01 -9.000000e+00
        vertex 1.035276e+00 4.463630e+01 -7.000000e+00
        vertex 2.000000e+00 4.503590e+01 -9.000000e+00
    endloop
endfacet
facet normal -3.826860e-01 9.238785e-01 0.000000e+00
    outer loop
        vertex 1.035276e+00 4.463630e+01 -7.000000e+00
        vertex 2.000000e+00 4.503590e+01 -7.000000e+00
        vertex 2.000000e+00 4.503590e+01 -9.000000e+00
    endloop
endfacet
facet normal -6.087609e-01 7.933538e-01 0.000000e+00
    outer loop
        vertex 2.000000e+00 4.503590e+01 -9.000000e+00
        vertex 2.000000e+00 4.503590e+01 -7.000000e+00
        vertex 2.828427e+00 4.567157e+01 -9.000000e+00
    endloop
endfacet
facet normal -6.087609e-01 7.933538e-01 0.000000e+00
    outer loop
        vertex 2.000000e+00 4.503590e+01 -7.000000e+00
        vertex 2.828427e+00 4.567157e+01 -7.000000e+00
        vertex 2.828427e+00 4.567157e+01 -9.000000e+00
    endloop
endfacet
facet normal -7.933531e-01 6.087618e-01 0.000000e+00
    outer loop
        vertex 2.828427e+00 4.567157e+01 -9.000000e+00
        vertex 2.828427e+00 4.567157e+01 -7.000000e+00
        vertex 3.464102e+00 4.650000e+01 -9.000000e+00
    endloop
endfacet
facet normal -7.933531e-01 6.087618e-01 0.000000e+00
    outer loop
        vertex 2.828427e+00 4.567157e+01 -7.000000e+00
        vertex 3.464102e+00 4.650000e+01 -7.000000e+00
        vertex 3.464102e+00 4.650000e+01 -9.000000e+00
    endloop
endfacet
facet normal -9.238797e-01 3.826829e-01 0.000000e+00
    outer loop
        vertex 3.464102e+00 4.650000e+01 -9.000000e+00
        vertex 3.464102e+00 4.650000e+01 -7.000000e+00
        vertex 3.863703e+00 4.746473e+01 -9.000000e+00
    endloop
endfacet
facet normal -9.238797e-01 3.826829e-01 0.000000e+00
    outer loop
        vertex 3.464102e+00 4.650000e+01 -7.000000e+00
        vertex 3.863703e+00 4.746473e+01 -7.000000e+00
        vertex 3.863703e+00 4.746473e+01 -9.000000e+00
    endloop
endfacet
facet normal -9.914448e-01 1.305265e-01 0.000000e+00
    outer loop
        vertex 3.863703e+00 4.746473e+01 -9.000000e+00
        vertex 3.863703e+00 4.746473e+01 -7.000000e+00
        vertex 4.000000e+00 4.850000e+01 -9.000000e+00
    endloop
endfacet
facet normal -9.914448e-01 1.305265e-01 0.000000e+00
    outer loop
        vertex 3.863703e+00 4.746473e+01 -7.000000e+00
        vertex 4.000000e+00 4.850000e+01 -7.000000e+00
        vertex 4.000000e+00 4.850000e+01 -9.000000e+00
    endloop
endfacet
facet normal 0.000000e+00 -9.914446e-01 -1.305285e-01
    outer loop
        vertex -6.000000e+00 6.193185e+01 -9.482362e+00
        vertex -6.000000e+00 6.200000e+01 -1.000000e+01
        vertex 6.000000e+00 6.200000e+01 -1.000000e+01
    endloop
endfacet
facet normal -0.000000e+00 -9.914446e-01 -1.305285e-01
    outer loop
        vertex 6.000000e+00 6.193185e+01 -9.482362e+00
        vertex -6.000000e+00 6.193185e+01 -9.482362e+00
        vertex 6.000000e+00 6.200000e+01 -1.000000e+01
    endloop
endfacet
facet normal 0.000000e+00 -9.238811e-01 -3.826798e-01
    outer loop
        vertex -6.000000e+00 6.173205e+01 -9.000000e+00
        vertex -6.000000e+00 6.193185e+01 -9.482362e+00
        vertex 6.000000e+00 6.193185e+01 -9.482362e+00
    endloop
endfacet
facet normal -0.000000e+00 -9.238811e-01 -3.826798e-01
    outer loop
        vertex 6.000000e+00 6.173205e+01 -9.000000e+00
        vertex -6.000000e+00 6.173205e+01 -9.000000e+00
        vertex 6.000000e+00 6.193185e+01 -9.482362e+00
    endloop
endfacet
facet normal 0.000000e+00 -7.933535e-01 -6.087612e-01
    outer loop
        vertex -6.000000e+00 6.141422e+01 -8.585787e+00
        vertex -6.000000e+00 6.173205e+01 -9.000000e+00
        vertex 6.000000e+00 6.173205e+01 -9.000000e+00
    endloop
endfacet
facet normal -0.000000e+00 -7.933535e-01 -6.087612e-01
    outer loop
        vertex 6.000000e+00 6.141422e+01 -8.585787e+00
        vertex -6.000000e+00 6.141422e+01 -8.585787e+00
        vertex 6.000000e+00 6.173205e+01 -9.000000e+00
    endloop
endfacet
facet normal 0.000000e+00 -6.087606e-01 -7.933540e-01
    outer loop
        vertex -6.000000e+00 6.100000e+01 -8.267949e+00
        vertex -6.000000e+00 6.141422e+01 -8.585787e+00
        vertex 6.000000e+00 6.141422e+01 -8.585787e+00
    endloop
endfacet
facet normal -0.000000e+00 -6.087606e-01 -7.933540e-01
    outer loop
        vertex 6.000000e+00 6.100000e+01 -8.267949e+00
        vertex -6.000000e+00 6.100000e+01 -8.267949e+00
        vertex 6.000000e+00 6.141422e+01 -8.585787e+00
    endloop
endfacet
facet normal 0.000000e+00 -3.826836e-01 -9.238794e-01
    outer loop
        vertex -6.000000e+00 6.051764e+01 -8.068149e+00
        vertex -6.000000e+00 6.100000e+01 -8.267949e+00
        vertex 6.000000e+00 6.100000e+01 -8.267949e+00
    endloop
endfacet
facet normal -0.000000e+00 -3.826836e-01 -9.238794e-01
    outer loop
        vertex 6.000000e+00 6.051764e+01 -8.068149e+00
        vertex -6.000000e+00 6.051764e+01 -8.068149e+00
        vertex 6.000000e+00 6.100000e+01 -8.267949e+00
    endloop
endfacet
facet normal 0.000000e+00 -1.305264e-01 -9.914448e-01
    outer loop
        vertex -6.000000e+00 6.000000e+01 -8.000000e+00
        vertex -6.000000e+00 6.051764e+01 -8.068149e+00
        vertex 6.000000e+00 6.051764e+01 -8.068149e+00
    endloop
endfacet
facet normal -0.000000e+00 -1.305264e-01 -9.914448e-01
    outer loop
        vertex 6.000000e+00 6.000000e+01 -8.000000e+00
        vertex -6.000000e+00 6.000000e+01 -8.000000e+00
        vertex 6.000000e+00 6.051764e+01 -8.068149e+00
    endloop
endfacet
facet normal 0.000000e+00 1.305264e-01 -9.914448e-01
    outer loop
        vertex -6.000000e+00 5.948236e+01 -8.068149e+00
        vertex -6.000000e+00 6.000000e+01 -8.000000e+00
        vertex 6.000000e+00 6.000000e+01 -8.000000e+00
    endloop
endfacet
facet normal 0.000000e+00 1.305264e-01 -9.914448e-01
    outer loop
        vertex 6.000000e+00 5.948236e+01 -8.068149e+00
        vertex -6.000000e+00 5.948236e+01 -8.068149e+00
        vertex 6.000000e+00 6.000000e+01 -8.000000e+00
    endloop
endfacet
facet normal 0.000000e+00 3.826836e-01 -9.238794e-01
    outer loop
        vertex -6.000000e+00 5.900000e+01 -8.267949e+00
        vertex -6.000000e+00 5.948236e+01 -8.068149e+00
        vertex 6.000000e+00 5.948236e+01 -8.068149e+00
    endloop
endfacet
facet normal 0.000000e+00 3.826836e-01 -9.238794e-01
    outer loop
        vertex 6.000000e+00 5.900000e+01 -8.267949e+00
        vertex -6.000000e+00 5.900000e+01 -8.267949e+00
        vertex 6.000000e+00 5.948236e+01 -8.068149e+00
    endloop
endfacet
facet normal 0.000000e+00 6.087606e-01 -7.933540e-01
    outer loop
        vertex -6.000000e+00 5.858578e+01 -8.585787e+00
        vertex -6.000000e+00 5.900000e+01 -8.267949e+00
        vertex 6.000000e+00 5.900000e+01 -8.267949e+00
    endloop
endfacet
facet normal 0.000000e+00 6.087606e-01 -7.933540e-01
    outer loop
        vertex 6.000000e+00 5.858578e+01 -8.585787e+00
        vertex -6.000000e+00 5.858578e+01 -8.585787e+00
        vertex 6.000000e+00 5.900000e+01 -8.267949e+00
    endloop
endfacet
facet normal 0.000000e+00 7.933535e-01 -6.087612e-01
    outer loop
        vertex -6.000000e+00 5.826795e+01 -9.000000e+00
        vertex -6.000000e+00 5.858578e+01 -8.585787e+00
        vertex 6.000000e+00 5.858578e+01 -8.585787e+00
    endloop
endfacet
facet normal 0.000000e+00 7.933535e-01 -6.087612e-01
    outer loop
        vertex 6.000000e+00 5.826795e+01 -9.000000e+00
        vertex -6.000000e+00 5.826795e+01 -9.000000e+00
        vertex 6.000000e+00 5.858578e+01 -8.585787e+00
    endloop
endfacet
facet normal 0.000000e+00 9.238811e-01 -3.826798e-01
    outer loop
        vertex -6.000000e+00 5.806815e+01 -9.482362e+00
        vertex -6.000000e+00 5.826795e+01 -9.000000e+00
        vertex 6.000000e+00 5.826795e+01 -9.000000e+00
    endloop
endfacet
facet normal 0.000000e+00 9.238811e-01 -3.826798e-01
    outer loop
        vertex 6.000000e+00 5.806815e+01 -9.482362e+00
        vertex -6.000000e+00 5.806815e+01 -9.482362e+00
        vertex 6.000000e+00 5.826795e+01 -9.000000e+00
    endloop
endfacet
facet normal 0.000000e+00 9.914446e-01 -1.305285e-01
    outer loop
        vertex -6.000000e+00 5.800000e+01 -1.000000e+01
        vertex -6.000000e+00 5.806815e+01 -9.482362e+00
        vertex 6.000000e+00 5.806815e+01 -9.482362e+00
    endloop
endfacet
facet normal 0.000000e+00 9.914446e-01 -1.305285e-01
    outer loop
        vertex 6.000000e+00 5.800000e+01 -1.000000e+01
        vertex -6.000000e+00 5.800000e+01 -1.000000e+01
        vertex 6.000000e+00 5.806815e+01 -9.482362e+00
    endloop
endfacet
facet normal -0.000000e+00 9.914446e-01 1.305285e-01
    outer loop
        vertex -6.000000e+00 5.800000e+01 -1.000000e+01
        vertex 6.000000e+00 5.800000e+01 -1.000000e+01
        vertex -6.000000e+00 5.806815e+01 -1.051764e+01
    endloop
endfacet
facet normal 0.000000e+00 9.914446e-01 1.305285e-01
    outer loop
        vertex 6.000000e+00 5.800000e+01 -1.000000e+01
        vertex 6.000000e+00 5.806815e+01 -1.051764e+01
        vertex -6.000000e+00 5.806815e+01 -1.051764e+01
    endloop
endfacet
facet normal -0.000000e+00 9.238811e-01 3.826798e-01
    outer loop
        vertex -6.000000e+00 5.806815e+01 -1.051764e+01
        vertex 6.000000e+00 5.806815e+01 -1.051764e+01
        vertex -6.000000e+00 5.826795e+01 -1.100000e+01
    endloop
endfacet
facet normal 0.000000e+00 9.238811e-01 3.826798e-01
    outer loop
        vertex 6.000000e+00 5.806815e+01 -1.051764e+01
        vertex 6.000000e+00 5.826795e+01 -1.100000e+01
        vertex -6.000000e+00 5.826795e+01 -1.100000e+01
    endloop
endfacet
facet normal -0.000000e+00 7.933535e-01 6.087612e-01
    outer loop
        vertex -6.000000e+00 5.826795e+01 -1.100000e+01
        vertex 6.000000e+00 5.826795e+01 -1.100000e+01
        vertex -6.000000e+00 5.858578e+01 -1.141421e+01
    endloop
endfacet
facet normal 0.000000e+00 7.933535e-01 6.087612e-01
    outer loop
        vertex 6.000000e+00 5.826795e+01 -1.100000e+01
        vertex 6.000000e+00 5.858578e+01 -1.141421e+01
        vertex -6.000000e+00 5.858578e+01 -1.141421e+01
    endloop
endfacet
facet normal -0.000000e+00 6.087606e-01 7.933540e-01
    outer loop
        vertex -6.000000e+00 5.858578e+01 -1.141421e+01
        vertex 6.000000e+00 5.858578e+01 -1.141421e+01
        vertex -6.000000e+00 5.900000e+01 -1.173205e+01
    endloop
endfacet
facet normal 0.000000e+00 6.087606e-01 7.933540e-01
    outer loop
        vertex 6.000000e+00 5.858578e+01 -1.141421e+01
        vertex 6.000000e+00 5.900000e+01 -1.173205e+01
        vertex -6.000000e+00 5.900000e+01 -1.173205e+01
    endloop
endfacet
facet normal -0.000000e+00 3.826836e-01 9.238794e-01
    outer loop
        vertex -6.000000e+00 5.900000e+01 -1.173205e+01
        vertex 6.000000e+00 5.900000e+01 -1.173205e+01
        vertex -6.000000e+00 5.948236e+01 -1.193185e+01
    endloop
endfacet
facet normal 0.000000e+00 3.826836e-01 9.238794e-01
    outer loop
        vertex 6.000000e+00 5.900000e+01 -1.173205e+01
        vertex 6.000000e+00 5.948236e+01 -1.193185e+01
        vertex -6.000000e+00 5.948236e+01 -1.193185e+01
    endloop
endfacet
facet normal -0.000000e+00 1.305264e-01 9.914448e-01
    outer loop
        vertex -6.000000e+00 5.948236e+01 -1.193185e+01
        vertex 6.000000e+00 5.948236e+01 -1.193185e+01
        vertex -6.000000e+00 6.000000e+01 -1.200000e+01
    endloop
endfacet
facet normal 0.000000e+00 1.305264e-01 9.914448e-01
    outer loop
        vertex 6.000000e+00 5.948236e+01 -1.193185e+01
        vertex 6.000000e+00 6.000000e+01 -1.200000e+01
        vertex -6.000000e+00 6.000000e+01 -1.200000e+01
    endloop
endfacet
facet normal 0.000000e+00 -1.305264e-01 9.914448e-01
    outer loop
        vertex -6.000000e+00 6.000000e+01 -1.200000e+01
        vertex 6.000000e+00 6.000000e+01 -1.200000e+01
        vertex -6.000000e+00 6.051764e+01 -1.193185e+01
    endloop
endfacet
facet normal 0.000000e+00 -1.305264e-01 9.914448e-01
    outer loop
        vertex 6.000000e+00 6.000000e+01 -1.200000e+01
        vertex 6.000000e+00 6.051764e+01 -1.193185e+01
        vertex -6.000000e+00 6.051764e+01 -1.193185e+01
    endloop
endfacet
facet normal 0.000000e+00 -3.826836e-01 9.238794e-01
    outer loop
        vertex -6.000000e+00 6.051764e+01 -1.193185e+01
        vertex 6.000000e+00 6.051764e+01 -1.193185e+01
        vertex -6.000000e+00 6.100000e+01 -1.173205e+01
    endloop
endfacet
facet normal 0.000000e+00 -3.826836e-01 9.238794e-01
    outer loop
        vertex 6.000000e+00 6.051764e+01 -1.193185e+01
        vertex 6.000000e+00 6.100000e+01 -1.173205e+01
        vertex -6.000000e+00 6.100000e+01 -1.173205e+01
    endloop
endfacet
facet normal 0.000000e+00 -6.087606e-01 7.933540e-01
    outer loop
        vertex -6.000000e+00 6.100000e+01 -1.173205e+01
        vertex 6.000000e+00 6.100000e+01 -1.173205e+01
        vertex -6.000000e+00 6.141422e+01 -1.141421e+01
    endloop
endfacet
facet normal 0.000000e+00 -6.087606e-01 7.933540e-01
    outer loop
        vertex 6.000000e+00 6.100000e+01 -1.173205e+01
        vertex 6.000000e+00 6.141422e+01 -1.141421e+01
        vertex -6.000000e+00 6.141422e+01 -1.141421e+01
    endloop
endfacet
facet normal 0.000000e+00 -7.933535e-01 6.087612e-01
    outer loop
        vertex -6.000000e+00 6.141422e+01 -1.141421e+01
        vertex 6.000000e+00 6.141422e+01 -1.141421e+01
        vertex -6.000000e+00 6.173205e+01 -1.100000e+01
    endloop
endfacet
facet normal 0.000000e+00 -7.933535e-01 6.087612e-01
    outer loop
        vertex 6.000000e+00 6.141422e+01 -1.141421e+01
        vertex 6.000000e+00 6.173205e+01 -1.100000e+01
        vertex -6.000000e+00 6.173205e+01 -1.100000e+01
    endloop
endfacet
facet normal 0.000000e+00 -9.238811e-01 3.826798e-01
    outer loop
        vertex -6.000000e+00 6.173205e+01 -1.100000e+01
        vertex 6.000000e+00 6.173205e+01 -1.100000e+01
        vertex -6.000000e+00 6.193185e+01 -1.051764e+01
    endloop
endfacet
facet normal 0.000000e+00 -9.238811e-01 3.826798e-01
    outer loop
        vertex 6.000000e+00 6.173205e+01 -1.100000e+01
        vertex 6.000000e+00 6.193185e+01 -1.051764e+01
        vertex -6.000000e+00 6.193185e+01 -1.051764e+01
    endloop
endfacet
facet normal 0.000000e+00 -9.914446e-01 1.305285e-01
    outer loop
        vertex -6.000000e+00 6.193185e+01 -1.051764e+01
        vertex 6.000000e+00 6.193185e+01 -1.051764e+01
        vertex -6.000000e+00 6.200000e+01 -1.000000e+01
    endloop
endfacet
facet normal 0.000000e+00 -9.914446e-01 1.305285e-01
    outer loop
        vertex 6.000000e+00 6.193185e+01 -1.051764e+01
        vertex 6.000000e+00 6.200000e+01 -1.000000e+01
        vertex -6.000000e+00 6.200000e+01 -1.000000e+01
    endloop
endfacet
facet normal 0.000000e+00 9.284767e-01 -3.713907e-01
    outer loop
        vertex 3.500000e+00 6.900000e+01 -3.500000e+00
        vertex -3.500000e+00 7.000000e+01 -1.000000e+00
        vertex 3.500000e+00 7.000000e+01 -1.000000e+00
    endloop
endfacet
facet normal 0.000000e+00 9.284767e-01 -3.713907e-01
    outer loop
        vertex 3.500000e+00 6.900000e+01 -3.500000e+00
        vertex -3.500000e+00 6.900000e+01 -3.500000e+00
        vertex -3.500000e+00 7.000000e+01 -1.000000e+00
    endloop
endfacet
facet normal -0.000000e+00 6.000000e-01 8.000000e-01
    outer loop
        vertex -3.500000e+00 6.900000e+01 -3.500000e+00
        vertex 3.500000e+00 6.900000e+01 -3.500000e+00
        vertex 3.500000e+00 7.100000e+01 -5.000000e+00
    endloop
endfacet
facet normal 0.000000e+00 6.000000e-01 8.000000e-01
    outer loop
        vertex -3.500000e+00 6.900000e+01 -3.500000e+00
        vertex 3.500000e+00 7.100000e+01 -5.000000e+00
        vertex -3.500000e+00 7.100000e+01 -5.000000e+00
    endloop
endfacet
facet normal 0.000000e+00 -8.944272e-01 4.472136e-01
    outer loop
        vertex -3.500000e+00 6.375000e+01 -6.500000e+00
        vertex 3.500000e+00 6.650000e+01 -1.000000e+00
        vertex -3.500000e+00 6.650000e+01 -1.000000e+00
    endloop
endfacet
facet normal 0.000000e+00 -8.944272e-01 4.472136e-01
    outer loop
        vertex 6.000000e+00 6.350000e+01 -7.000000e+00
        vertex 6.000000e+00 6.375000e+01 -6.500000e+00
        vertex 3.500000e+00 6.375000e+01 -6.500000e+00
    endloop
endfacet
facet normal 0.000000e+00 -8.944272e-01 4.472136e-01
    outer loop
        vertex -6.000000e+00 6.350000e+01 -7.000000e+00
        vertex -3.500000e+00 6.375000e+01 -6.500000e+00
        vertex -6.000000e+00 6.375000e+01 -6.500000e+00
    endloop
endfacet
facet normal 0.000000e+00 -8.944272e-01 4.472136e-01
    outer loop
        vertex -6.000000e+00 6.350000e+01 -7.000000e+00
        vertex 6.000000e+00 6.350000e+01 -7.000000e+00
        vertex -3.500000e+00 6.375000e+01 -6.500000e+00
    endloop
endfacet
facet normal 0.000000e+00 -8.944272e-01 4.472136e-01
    outer loop
        vertex 6.000000e+00 6.350000e+01 -7.000000e+00
        vertex 3.500000e+00 6.375000e+01 -6.500000e+00
        vertex -3.500000e+00 6.375000e+01 -6.500000e+00
    endloop
endfacet
facet normal 0.000000e+00 -8.944272e-01 4.472136e-01
    outer loop
        vertex -3.500000e+00 6.375000e+01 -6.500000e+00
        vertex 3.500000e+00 6.375000e+01 -6.500000e+00
        vertex 3.500000e+00 6.650000e+01 -1.000000e+00
    endloop
endfacet
facet normal 0.000000e+00 0.000000e+00 1.000000e+00
    outer loop
        vertex -3.500000e+00 6.650000e+01 -1.000000e+00
        vertex 3.500000e+00 6.650000e+01 -1.000000e+00
        vertex 3.500000e+00 7.000000e+01 -1.000000e+00
    endloop
endfacet
facet normal 0.000000e+00 0.000000e+00 1.000000e+00
    outer loop
        vertex -3.500000e+00 6.650000e+01 -1.000000e+00
        vertex 3.500000e+00 7.000000e+01 -1.000000e+00
        vertex -3.500000e+00 7.000000e+01 -1.000000e+00
    endloop
endfacet
facet normal -1.000000e+00 0.000000e+00 0.000000e+00
    outer loop
        vertex -6.000000e+00 6.375000e+01 -6.500000e+00
        vertex -6.000000e+00 7.062500e+01 -6.500000e+00
        vertex -6.000000e+00 6.900000e+01 -1.300000e+01
    endloop
endfacet
facet normal -1.000000e+00 0.000000e+00 0.000000e+00
    outer loop
        vertex -6.000000e+00 5.800000e+01 -1.300000e+01
        vertex -6.000000e+00 5.858578e+01 -1.141421e+01
        vertex -6.000000e+00 5.900000e+01 -1.173205e+01
    endloop
endfacet
facet normal -1.000000e+00 0.000000e+00 0.000000e+00
    outer loop
        vertex -6.000000e+00 5.800000e+01 -1.300000e+01
        vertex -6.000000e+00 5.900000e+01 -1.173205e+01
        vertex -6.000000e+00 5.948236e+01 -1.193185e+01
    endloop
endfacet
facet normal -1.000000e+00 0.000000e+00 0.000000e+00
    outer loop
        vertex -6.000000e+00 5.800000e+01 -1.300000e+01
        vertex -6.000000e+00 5.826795e+01 -1.100000e+01
        vertex -6.000000e+00 5.858578e+01 -1.141421e+01
    endloop
endfacet
facet normal -1.000000e+00 0.000000e+00 0.000000e+00
    outer loop
        vertex -6.000000e+00 4.350000e+01 -1.000000e+01
        vertex -6.000000e+00 4.350000e+01 -7.000000e+00
        vertex -6.000000e+00 5.800000e+01 -1.300000e+01
    endloop
endfacet
facet normal -1.000000e+00 0.000000e+00 0.000000e+00
    outer loop
        vertex -6.000000e+00 5.800000e+01 -1.300000e+01
        vertex -6.000000e+00 5.948236e+01 -1.193185e+01
        vertex -6.000000e+00 6.000000e+01 -1.200000e+01
    endloop
endfacet
facet normal -1.000000e+00 0.000000e+00 0.000000e+00
    outer loop
        vertex -6.000000e+00 4.350000e+01 -7.000000e+00
        vertex -6.000000e+00 5.826795e+01 -1.100000e+01
        vertex -6.000000e+00 5.800000e+01 -1.300000e+01
    endloop
endfacet
facet normal -1.000000e+00 0.000000e+00 0.000000e+00
    outer loop
        vertex -6.000000e+00 5.800000e+01 -1.300000e+01
        vertex -6.000000e+00 6.000000e+01 -1.200000e+01
        vertex -6.000000e+00 6.900000e+01 -1.300000e+01
    endloop
endfacet
facet normal -1.000000e+00 0.000000e+00 0.000000e+00
    outer loop
        vertex -6.000000e+00 6.350000e+01 -7.000000e+00
        vertex -6.000000e+00 6.375000e+01 -6.500000e+00
        vertex -6.000000e+00 6.900000e+01 -1.300000e+01
    endloop
endfacet
facet normal -1.000000e+00 0.000000e+00 0.000000e+00
    outer loop
        vertex -6.000000e+00 4.350000e+01 -7.000000e+00
        vertex -6.000000e+00 5.806815e+01 -1.051764e+01
        vertex -6.000000e+00 5.826795e+01 -1.100000e+01
    endloop
endfacet
facet normal -1.000000e+00 0.000000e+00 0.000000e+00
    outer loop
        vertex -6.000000e+00 4.350000e+01 -7.000000e+00
        vertex -6.000000e+00 5.800000e+01 -1.000000e+01
        vertex -6.000000e+00 5.806815e+01 -1.051764e+01
    endloop
endfacet
facet normal -1.000000e+00 0.000000e+00 0.000000e+00
    outer loop
        vertex -6.000000e+00 4.350000e+01 -7.000000e+00
        vertex -6.000000e+00 5.806815e+01 -9.482362e+00
        vertex -6.000000e+00 5.800000e+01 -1.000000e+01
    endloop
endfacet
facet normal -1.000000e+00 0.000000e+00 0.000000e+00
    outer loop
        vertex -6.000000e+00 4.350000e+01 -7.000000e+00
        vertex -6.000000e+00 5.826795e+01 -9.000000e+00
        vertex -6.000000e+00 5.806815e+01 -9.482362e+00
    endloop
endfacet
facet normal -1.000000e+00 0.000000e+00 0.000000e+00
    outer loop
        vertex -6.000000e+00 4.350000e+01 -7.000000e+00
        vertex -6.000000e+00 5.858578e+01 -8.585787e+00
        vertex -6.000000e+00 5.826795e+01 -9.000000e+00
    endloop
endfacet
facet normal -1.000000e+00 0.000000e+00 0.000000e+00
    outer loop
        vertex -6.000000e+00 4.350000e+01 -7.000000e+00
        vertex -6.000000e+00 5.900000e+01 -8.267949e+00
        vertex -6.000000e+00 5.858578e+01 -8.585787e+00
    endloop
endfacet
facet normal -1.000000e+00 0.000000e+00 0.000000e+00
    outer loop
        vertex -6.000000e+00 4.350000e+01 -7.000000e+00
        vertex -6.000000e+00 5.948236e+01 -8.068149e+00
        vertex -6.000000e+00 5.900000e+01 -8.267949e+00
    endloop
endfacet
facet normal -1.000000e+00 0.000000e+00 0.000000e+00
    outer loop
        vertex -6.000000e+00 4.350000e+01 -7.000000e+00
        vertex -6.000000e+00 6.350000e+01 -7.000000e+00
        vertex -6.000000e+00 5.948236e+01 -8.068149e+00
    endloop
endfacet
facet normal -1.000000e+00 0.000000e+00 0.000000e+00
    outer loop
        vertex -6.000000e+00 5.948236e+01 -8.068149e+00
        vertex -6.000000e+00 6.350000e+01 -7.000000e+00
        vertex -6.000000e+00 6.000000e+01 -8.000000e+00
    endloop
endfacet
facet normal -1.000000e+00 0.000000e+00 0.000000e+00
    outer loop
        vertex -6.000000e+00 6.000000e+01 -8.000000e+00
        vertex -6.000000e+00 6.350000e+01 -7.000000e+00
        vertex -6.000000e+00 6.051764e+01 -8.068149e+00
    endloop
endfacet
facet normal -1.000000e+00 0.000000e+00 0.000000e+00
    outer loop
        vertex -6.000000e+00 6.051764e+01 -8.068149e+00
        vertex -6.000000e+00 6.350000e+01 -7.000000e+00
        vertex -6.000000e+00 6.100000e+01 -8.267949e+00
    endloop
endfacet
facet normal -1.000000e+00 0.000000e+00 0.000000e+00
    outer loop
        vertex -6.000000e+00 6.100000e+01 -8.267949e+00
        vertex -6.000000e+00 6.350000e+01 -7.000000e+00
        vertex -6.000000e+00 6.900000e+01 -1.300000e+01
    endloop
endfacet
facet normal -1.000000e+00 0.000000e+00 0.000000e+00
    outer loop
        vertex -6.000000e+00 6.000000e+01 -1.200000e+01
        vertex -6.000000e+00 6.051764e+01 -1.193185e+01
        vertex -6.000000e+00 6.900000e+01 -1.300000e+01
    endloop
endfacet
facet normal -1.000000e+00 0.000000e+00 0.000000e+00
    outer loop
        vertex -6.000000e+00 6.051764e+01 -1.193185e+01
        vertex -6.000000e+00 6.100000e+01 -1.173205e+01
        vertex -6.000000e+00 6.900000e+01 -1.300000e+01
    endloop
endfacet
facet normal -1.000000e+00 0.000000e+00 0.000000e+00
    outer loop
        vertex -6.000000e+00 6.100000e+01 -1.173205e+01
        vertex -6.000000e+00 6.141422e+01 -1.141421e+01
        vertex -6.000000e+00 6.900000e+01 -1.300000e+01
    endloop
endfacet
facet normal -1.000000e+00 0.000000e+00 0.000000e+00
    outer loop
        vertex -6.000000e+00 6.141422e+01 -1.141421e+01
        vertex -6.000000e+00 6.173205e+01 -1.100000e+01
        vertex -6.000000e+00 6.900000e+01 -1.300000e+01
    endloop
endfacet
facet normal -1.000000e+00 0.000000e+00 0.000000e+00
    outer loop
        vertex -6.000000e+00 6.173205e+01 -1.100000e+01
        vertex -6.000000e+00 6.193185e+01 -1.051764e+01
        vertex -6.000000e+00 6.900000e+01 -1.300000e+01
    endloop
endfacet
facet normal -1.000000e+00 0.000000e+00 0.000000e+00
    outer loop
        vertex -6.000000e+00 6.193185e+01 -1.051764e+01
        vertex -6.000000e+00 6.200000e+01 -1.000000e+01
        vertex -6.000000e+00 6.900000e+01 -1.300000e+01
    endloop
endfacet
facet normal -1.000000e+00 0.000000e+00 0.000000e+00
    outer loop
        vertex -6.000000e+00 6.193185e+01 -9.482362e+00
        vertex -6.000000e+00 6.900000e+01 -1.300000e+01
        vertex -6.000000e+00 6.200000e+01 -1.000000e+01
    endloop
endfacet
facet normal -1.000000e+00 0.000000e+00 0.000000e+00
    outer loop
        vertex -6.000000e+00 6.173205e+01 -9.000000e+00
        vertex -6.000000e+00 6.900000e+01 -1.300000e+01
        vertex -6.000000e+00 6.193185e+01 -9.482362e+00
    endloop
endfacet
facet normal -1.000000e+00 0.000000e+00 0.000000e+00
    outer loop
        vertex -6.000000e+00 6.141422e+01 -8.585787e+00
        vertex -6.000000e+00 6.900000e+01 -1.300000e+01
        vertex -6.000000e+00 6.173205e+01 -9.000000e+00
    endloop
endfacet
facet normal -1.000000e+00 0.000000e+00 0.000000e+00
    outer loop
        vertex -6.000000e+00 6.100000e+01 -8.267949e+00
        vertex -6.000000e+00 6.900000e+01 -1.300000e+01
        vertex -6.000000e+00 6.141422e+01 -8.585787e+00
    endloop
endfacet
facet normal 1.000000e+00 -0.000000e+00 0.000000e+00
    outer loop
        vertex 3.500000e+00 6.650000e+01 -1.000000e+00
        vertex 3.500000e+00 6.900000e+01 -3.500000e+00
        vertex 3.500000e+00 7.000000e+01 -1.000000e+00
    endloop
endfacet
facet normal 1.000000e+00 0.000000e+00 0.000000e+00
    outer loop
        vertex 3.500000e+00 6.375000e+01 -6.500000e+00
        vertex 3.500000e+00 6.900000e+01 -3.500000e+00
        vertex 3.500000e+00 6.650000e+01 -1.000000e+00
    endloop
endfacet
facet normal 1.000000e+00 0.000000e+00 0.000000e+00
    outer loop
        vertex 3.500000e+00 6.375000e+01 -6.500000e+00
        vertex 3.500000e+00 7.062500e+01 -6.500000e+00
        vertex 3.500000e+00 6.900000e+01 -3.500000e+00
    endloop
endfacet
facet normal 1.000000e+00 0.000000e+00 0.000000e+00
    outer loop
        vertex 3.500000e+00 6.900000e+01 -3.500000e+00
        vertex 3.500000e+00 7.062500e+01 -6.500000e+00
        vertex 3.500000e+00 7.100000e+01 -5.000000e+00
    endloop
endfacet
facet normal 0.000000e+00 0.000000e+00 1.000000e+00
    outer loop
        vertex 3.500000e+00 6.375000e+01 -6.500000e+00
        vertex 6.000000e+00 7.062500e+01 -6.500000e+00
        vertex 3.500000e+00 7.062500e+01 -6.500000e+00
    endloop
endfacet
facet normal 0.000000e+00 0.000000e+00 1.000000e+00
    outer loop
        vertex 3.500000e+00 6.375000e+01 -6.500000e+00
        vertex 6.000000e+00 6.375000e+01 -6.500000e+00
        vertex 6.000000e+00 7.062500e+01 -6.500000e+00
    endloop
endfacet
facet normal -1.000000e+00 0.000000e+00 0.000000e+00
    outer loop
        vertex -3.500000e+00 6.650000e+01 -1.000000e+00
        vertex -3.500000e+00 7.000000e+01 -1.000000e+00
        vertex -3.500000e+00 6.900000e+01 -3.500000e+00
    endloop
endfacet
facet normal -1.000000e+00 0.000000e+00 0.000000e+00
    outer loop
        vertex -3.500000e+00 6.375000e+01 -6.500000e+00
        vertex -3.500000e+00 6.650000e+01 -1.000000e+00
        vertex -3.500000e+00 6.900000e+01 -3.500000e+00
    endloop
endfacet
facet normal -1.000000e+00 0.000000e+00 0.000000e+00
    outer loop
        vertex -3.500000e+00 6.375000e+01 -6.500000e+00
        vertex -3.500000e+00 6.900000e+01 -3.500000e+00
        vertex -3.500000e+00 7.062500e+01 -6.500000e+00
    endloop
endfacet
facet normal -1.000000e+00 0.000000e+00 0.000000e+00
    outer loop
        vertex -3.500000e+00 6.900000e+01 -3.500000e+00
        vertex -3.500000e+00 7.100000e+01 -5.000000e+00
        vertex -3.500000e+00 7.062500e+01 -6.500000e+00
    endloop
endfacet
facet normal 0.000000e+00 -0.000000e+00 1.000000e+00
    outer loop
        vertex -3.500000e+00 6.375000e+01 -6.500000e+00
        vertex -3.500000e+00 7.062500e+01 -6.500000e+00
        vertex -6.000000e+00 7.062500e+01 -6.500000e+00
    endloop
endfacet
facet normal 0.000000e+00 0.000000e+00 1.000000e+00
    outer loop
        vertex -3.500000e+00 6.375000e+01 -6.500000e+00
        vertex -6.000000e+00 7.062500e+01 -6.500000e+00
        vertex -6.000000e+00 6.375000e+01 -6.500000e+00
    endloop
endfacet
facet normal 0.000000e+00 9.701425e-01 -2.425356e-01
    outer loop
        vertex 6.000000e+00 7.037500e+01 -7.500000e+00
        vertex 3.500000e+00 7.062500e+01 -6.500000e+00
        vertex 6.000000e+00 7.062500e+01 -6.500000e+00
    endloop
endfacet
facet normal 0.000000e+00 9.701425e-01 -2.425356e-01
    outer loop
        vertex -6.000000e+00 6.900000e+01 -1.300000e+01
        vertex -6.000000e+00 7.062500e+01 -6.500000e+00
        vertex -3.500000e+00 7.062500e+01 -6.500000e+00
    endloop
endfacet
facet normal 0.000000e+00 9.701425e-01 -2.425356e-01
    outer loop
        vertex 6.000000e+00 6.900000e+01 -1.300000e+01
        vertex -1.000000e+00 6.962500e+01 -1.050000e+01
        vertex 6.000000e+00 6.962500e+01 -1.050000e+01
    endloop
endfacet
facet normal 0.000000e+00 9.701425e-01 -2.425356e-01
    outer loop
        vertex 6.000000e+00 6.900000e+01 -1.300000e+01
        vertex -6.000000e+00 6.900000e+01 -1.300000e+01
        vertex -1.000000e+00 6.962500e+01 -1.050000e+01
    endloop
endfacet
facet normal 0.000000e+00 9.701425e-01 -2.425356e-01
    outer loop
        vertex -6.000000e+00 6.900000e+01 -1.300000e+01
        vertex -3.500000e+00 7.062500e+01 -6.500000e+00
        vertex -1.000000e+00 6.962500e+01 -1.050000e+01
    endloop
endfacet
facet normal 0.000000e+00 9.701425e-01 -2.425356e-01
    outer loop
        vertex -1.000000e+00 6.962500e+01 -1.050000e+01
        vertex -3.500000e+00 7.062500e+01 -6.500000e+00
        vertex -1.000000e+00 7.037500e+01 -7.500000e+00
    endloop
endfacet
facet normal 0.000000e+00 9.701425e-01 -2.425356e-01
    outer loop
        vertex -1.000000e+00 7.037500e+01 -7.500000e+00
        vertex -3.500000e+00 7.062500e+01 -6.500000e+00
        vertex -3.500000e+00 7.100000e+01 -5.000000e+00
    endloop
endfacet
facet normal 0.000000e+00 9.701425e-01 -2.425356e-01
    outer loop
        vertex -1.000000e+00 7.037500e+01 -7.500000e+00
        vertex -3.500000e+00 7.100000e+01 -5.000000e+00
        vertex 3.500000e+00 7.100000e+01 -5.000000e+00
    endloop
endfacet
facet normal 0.000000e+00 9.701425e-01 -2.425356e-01
    outer loop
        vertex -1.000000e+00 7.037500e+01 -7.500000e+00
        vertex 3.500000e+00 7.100000e+01 -5.000000e+00
        vertex 3.500000e+00 7.062500e+01 -6.500000e+00
    endloop
endfacet
facet normal 0.000000e+00 9.701425e-01 -2.425356e-01
    outer loop
        vertex -1.000000e+00 7.037500e+01 -7.500000e+00
        vertex 3.500000e+00 7.062500e+01 -6.500000e+00
        vertex 6.000000e+00 7.037500e+01 -7.500000e+00
    endloop
endfacet
facet normal 1.000000e+00 -0.000000e+00 0.000000e+00
    outer loop
        vertex 6.000000e+00 6.700000e+01 -1.050000e+01
        vertex 6.000000e+00 6.900000e+01 -1.300000e+01
        vertex 6.000000e+00 6.962500e+01 -1.050000e+01
    endloop
endfacet
facet normal 1.000000e+00 0.000000e+00 0.000000e+00
    outer loop
        vertex 6.000000e+00 5.800000e+01 -1.300000e+01
        vertex 6.000000e+00 5.900000e+01 -1.173205e+01
        vertex 6.000000e+00 5.858578e+01 -1.141421e+01
    endloop
endfacet
facet normal 1.000000e+00 0.000000e+00 0.000000e+00
    outer loop
        vertex 6.000000e+00 5.800000e+01 -1.300000e+01
        vertex 6.000000e+00 5.948236e+01 -1.193185e+01
        vertex 6.000000e+00 5.900000e+01 -1.173205e+01
    endloop
endfacet
facet normal 1.000000e+00 0.000000e+00 0.000000e+00
    outer loop
        vertex 6.000000e+00 6.700000e+01 -7.500000e+00
        vertex 6.000000e+00 7.037500e+01 -7.500000e+00
        vertex 6.000000e+00 7.062500e+01 -6.500000e+00
    endloop
endfacet
facet normal 1.000000e+00 0.000000e+00 0.000000e+00
    outer loop
        vertex 6.000000e+00 5.800000e+01 -1.300000e+01
        vertex 6.000000e+00 6.900000e+01 -1.300000e+01
        vertex 6.000000e+00 6.700000e+01 -1.050000e+01
    endloop
endfacet
facet normal 1.000000e+00 0.000000e+00 0.000000e+00
    outer loop
        vertex 6.000000e+00 5.800000e+01 -1.300000e+01
        vertex 6.000000e+00 5.858578e+01 -1.141421e+01
        vertex 6.000000e+00 5.826795e+01 -1.100000e+01
    endloop
endfacet
facet normal 1.000000e+00 -0.000000e+00 0.000000e+00
    outer loop
        vertex 6.000000e+00 6.375000e+01 -6.500000e+00
        vertex 6.000000e+00 6.700000e+01 -7.500000e+00
        vertex 6.000000e+00 7.062500e+01 -6.500000e+00
    endloop
endfacet
facet normal 1.000000e+00 0.000000e+00 0.000000e+00
    outer loop
        vertex 6.000000e+00 6.375000e+01 -6.500000e+00
        vertex 6.000000e+00 6.700000e+01 -1.050000e+01
        vertex 6.000000e+00 6.700000e+01 -7.500000e+00
    endloop
endfacet
facet normal 1.000000e+00 -0.000000e+00 0.000000e+00
    outer loop
        vertex 6.000000e+00 4.350000e+01 -1.000000e+01
        vertex 6.000000e+00 5.800000e+01 -1.300000e+01
        vertex 6.000000e+00 4.350000e+01 -7.000000e+00
    endloop
endfacet
facet normal 1.000000e+00 0.000000e+00 0.000000e+00
    outer loop
        vertex 6.000000e+00 5.800000e+01 -1.300000e+01
        vertex 6.000000e+00 6.000000e+01 -1.200000e+01
        vertex 6.000000e+00 5.948236e+01 -1.193185e+01
    endloop
endfacet
facet normal 1.000000e+00 0.000000e+00 0.000000e+00
    outer loop
        vertex 6.000000e+00 4.350000e+01 -7.000000e+00
        vertex 6.000000e+00 5.800000e+01 -1.300000e+01
        vertex 6.000000e+00 5.826795e+01 -1.100000e+01
    endloop
endfacet
facet normal 1.000000e+00 -0.000000e+00 0.000000e+00
    outer loop
        vertex 6.000000e+00 6.350000e+01 -7.000000e+00
        vertex 6.000000e+00 6.700000e+01 -1.050000e+01
        vertex 6.000000e+00 6.375000e+01 -6.500000e+00
    endloop
endfacet
facet normal 1.000000e+00 0.000000e+00 0.000000e+00
    outer loop
        vertex 6.000000e+00 5.800000e+01 -1.300000e+01
        vertex 6.000000e+00 6.051764e+01 -1.193185e+01
        vertex 6.000000e+00 6.000000e+01 -1.200000e+01
    endloop
endfacet
facet normal 1.000000e+00 0.000000e+00 0.000000e+00
    outer loop
        vertex 6.000000e+00 5.800000e+01 -1.300000e+01
        vertex 6.000000e+00 6.700000e+01 -1.050000e+01
        vertex 6.000000e+00 6.051764e+01 -1.193185e+01
    endloop
endfacet
facet normal 1.000000e+00 0.000000e+00 0.000000e+00
    outer loop
        vertex 6.000000e+00 4.350000e+01 -7.000000e+00
        vertex 6.000000e+00 5.826795e+01 -1.100000e+01
        vertex 6.000000e+00 5.806815e+01 -1.051764e+01
    endloop
endfacet
facet normal 1.000000e+00 0.000000e+00 0.000000e+00
    outer loop
        vertex 6.000000e+00 4.350000e+01 -7.000000e+00
        vertex 6.000000e+00 5.806815e+01 -1.051764e+01
        vertex 6.000000e+00 5.800000e+01 -1.000000e+01
    endloop
endfacet
facet normal 1.000000e+00 0.000000e+00 0.000000e+00
    outer loop
        vertex 6.000000e+00 4.350000e+01 -7.000000e+00
        vertex 6.000000e+00 5.800000e+01 -1.000000e+01
        vertex 6.000000e+00 5.806815e+01 -9.482362e+00
    endloop
endfacet
facet normal 1.000000e+00 0.000000e+00 0.000000e+00
    outer loop
        vertex 6.000000e+00 4.350000e+01 -7.000000e+00
        vertex 6.000000e+00 5.806815e+01 -9.482362e+00
        vertex 6.000000e+00 5.826795e+01 -9.000000e+00
    endloop
endfacet
facet normal 1.000000e+00 0.000000e+00 0.000000e+00
    outer loop
        vertex 6.000000e+00 4.350000e+01 -7.000000e+00
        vertex 6.000000e+00 5.826795e+01 -9.000000e+00
        vertex 6.000000e+00 5.858578e+01 -8.585787e+00
    endloop
endfacet
facet normal 1.000000e+00 0.000000e+00 0.000000e+00
    outer loop
        vertex 6.000000e+00 4.350000e+01 -7.000000e+00
        vertex 6.000000e+00 5.858578e+01 -8.585787e+00
        vertex 6.000000e+00 5.900000e+01 -8.267949e+00
    endloop
endfacet
facet normal 1.000000e+00 0.000000e+00 0.000000e+00
    outer loop
        vertex 6.000000e+00 4.350000e+01 -7.000000e+00
        vertex 6.000000e+00 5.900000e+01 -8.267949e+00
        vertex 6.000000e+00 5.948236e+01 -8.068149e+00
    endloop
endfacet
facet normal 1.000000e+00 -0.000000e+00 0.000000e+00
    outer loop
        vertex 6.000000e+00 4.350000e+01 -7.000000e+00
        vertex 6.000000e+00 5.948236e+01 -8.068149e+00
        vertex 6.000000e+00 6.350000e+01 -7.000000e+00
    endloop
endfacet
facet normal 1.000000e+00 0.000000e+00 0.000000e+00
    outer loop
        vertex 6.000000e+00 5.948236e+01 -8.068149e+00
        vertex 6.000000e+00 6.000000e+01 -8.000000e+00
        vertex 6.000000e+00 6.350000e+01 -7.000000e+00
    endloop
endfacet
facet normal 1.000000e+00 -0.000000e+00 0.000000e+00
    outer loop
        vertex 6.000000e+00 6.000000e+01 -8.000000e+00
        vertex 6.000000e+00 6.051764e+01 -8.068149e+00
        vertex 6.000000e+00 6.350000e+01 -7.000000e+00
    endloop
endfacet
facet normal 1.000000e+00 -0.000000e+00 0.000000e+00
    outer loop
        vertex 6.000000e+00 6.051764e+01 -8.068149e+00
        vertex 6.000000e+00 6.700000e+01 -1.050000e+01
        vertex 6.000000e+00 6.350000e+01 -7.000000e+00
    endloop
endfacet
facet normal 1.000000e+00 0.000000e+00 0.000000e+00
    outer loop
        vertex 6.000000e+00 6.051764e+01 -1.193185e+01
        vertex 6.000000e+00 6.700000e+01 -1.050000e+01
        vertex 6.000000e+00 6.100000e+01 -1.173205e+01
    endloop
endfacet
facet normal 1.000000e+00 0.000000e+00 0.000000e+00
    outer loop
        vertex 6.000000e+00 6.100000e+01 -1.173205e+01
        vertex 6.000000e+00 6.700000e+01 -1.050000e+01
        vertex 6.000000e+00 6.141422e+01 -1.141421e+01
    endloop
endfacet
facet normal 1.000000e+00 0.000000e+00 0.000000e+00
    outer loop
        vertex 6.000000e+00 6.141422e+01 -1.141421e+01
        vertex 6.000000e+00 6.700000e+01 -1.050000e+01
        vertex 6.000000e+00 6.173205e+01 -1.100000e+01
    endloop
endfacet
facet normal 1.000000e+00 0.000000e+00 0.000000e+00
    outer loop
        vertex 6.000000e+00 6.173205e+01 -1.100000e+01
        vertex 6.000000e+00 6.700000e+01 -1.050000e+01
        vertex 6.000000e+00 6.193185e+01 -1.051764e+01
    endloop
endfacet
facet normal 1.000000e+00 0.000000e+00 0.000000e+00
    outer loop
        vertex 6.000000e+00 6.193185e+01 -1.051764e+01
        vertex 6.000000e+00 6.700000e+01 -1.050000e+01
        vertex 6.000000e+00 6.200000e+01 -1.000000e+01
    endloop
endfacet
facet normal 1.000000e+00 0.000000e+00 0.000000e+00
    outer loop
        vertex 6.000000e+00 6.193185e+01 -9.482362e+00
        vertex 6.000000e+00 6.200000e+01 -1.000000e+01
        vertex 6.000000e+00 6.700000e+01 -1.050000e+01
    endloop
endfacet
facet normal 1.000000e+00 0.000000e+00 0.000000e+00
    outer loop
        vertex 6.000000e+00 6.173205e+01 -9.000000e+00
        vertex 6.000000e+00 6.193185e+01 -9.482362e+00
        vertex 6.000000e+00 6.700000e+01 -1.050000e+01
    endloop
endfacet
facet normal 1.000000e+00 0.000000e+00 0.000000e+00
    outer loop
        vertex 6.000000e+00 6.141422e+01 -8.585787e+00
        vertex 6.000000e+00 6.173205e+01 -9.000000e+00
        vertex 6.000000e+00 6.700000e+01 -1.050000e+01
    endloop
endfacet
facet normal 1.000000e+00 0.000000e+00 0.000000e+00
    outer loop
        vertex 6.000000e+00 6.051764e+01 -8.068149e+00
        vertex 6.000000e+00 6.100000e+01 -8.267949e+00
        vertex 6.000000e+00 6.700000e+01 -1.050000e+01
    endloop
endfacet
facet normal 1.000000e+00 0.000000e+00 0.000000e+00
    outer loop
        vertex 6.000000e+00 6.100000e+01 -8.267949e+00
        vertex 6.000000e+00 6.141422e+01 -8.585787e+00
        vertex 6.000000e+00 6.700000e+01 -1.050000e+01
    endloop
endfacet
facet normal 1.000000e+00 -0.000000e+00 0.000000e+00
    outer loop
        vertex -1.000000e+00 6.700000e+01 -7.500000e+00
        vertex -1.000000e+00 6.962500e+01 -1.050000e+01
        vertex -1.000000e+00 7.037500e+01 -7.500000e+00
    endloop
endfacet
facet normal 1.000000e+00 0.000000e+00 0.000000e+00
    outer loop
        vertex -1.000000e+00 6.700000e+01 -1.050000e+01
        vertex -1.000000e+00 6.962500e+01 -1.050000e+01
        vertex -1.000000e+00 6.700000e+01 -7.500000e+00
    endloop
endfacet
facet normal 0.000000e+00 0.000000e+00 1.000000e+00
    outer loop
        vertex -1.000000e+00 6.700000e+01 -1.050000e+01
        vertex 6.000000e+00 6.700000e+01 -1.050000e+01
        vertex -1.000000e+00 6.962500e+01 -1.050000e+01
    endloop
endfacet
facet normal 0.000000e+00 -0.000000e+00 1.000000e+00
    outer loop
        vertex 6.000000e+00 6.700000e+01 -1.050000e+01
        vertex 6.000000e+00 6.962500e+01 -1.050000e+01
        vertex -1.000000e+00 6.962500e+01 -1.050000e+01
    endloop
endfacet
facet normal 0.000000e+00 0.000000e+00 -1.000000e+00
    outer loop
        vertex -1.000000e+00 6.700000e+01 -7.500000e+00
        vertex -1.000000e+00 7.037500e+01 -7.500000e+00
        vertex 6.000000e+00 6.700000e+01 -7.500000e+00
    endloop
endfacet
facet normal 0.000000e+00 0.000000e+00 -1.000000e+00
    outer loop
        vertex 6.000000e+00 6.700000e+01 -7.500000e+00
        vertex -1.000000e+00 7.037500e+01 -7.500000e+00
        vertex 6.000000e+00 7.037500e+01 -7.500000e+00
    endloop
endfacet
facet normal 0.000000e+00 1.000000e+00 0.000000e+00
    outer loop
        vertex -1.000000e+00 6.700000e+01 -1.050000e+01
        vertex -1.000000e+00 6.700000e+01 -7.500000e+00
        vertex 6.000000e+00 6.700000e+01 -7.500000e+00
    endloop
endfacet
facet normal 0.000000e+00 1.000000e+00 0.000000e+00
    outer loop
        vertex -1.000000e+00 6.700000e+01 -1.050000e+01
        vertex 6.000000e+00 6.700000e+01 -7.500000e+00
        vertex 6.000000e+00 6.700000e+01 -1.050000e+01
    endloop
endfacet
endsolid pusher-stop.stl
