solid pusher.stl
facet normal -1.000000e+00 0.000000e+00 0.000000e+00
    outer loop
        vertex 1.500000e+00 -3.000000e+00 7.700000e+01
        vertex 1.500000e+00 -3.000000e+00 8.300000e+01
        vertex 1.500000e+00 3.000000e+00 7.700000e+01
    endloop
endfacet
facet normal -1.000000e+00 0.000000e+00 0.000000e+00
    outer loop
        vertex 1.500000e+00 -3.000000e+00 8.300000e+01
        vertex 1.500000e+00 3.000000e+00 8.300000e+01
        vertex 1.500000e+00 3.000000e+00 7.700000e+01
    endloop
endfacet
facet normal -1.961161e-01 -9.805807e-01 0.000000e+00
    outer loop
        vertex 6.500000e+00 -4.000000e+00 7.550000e+01
        vertex 6.500000e+00 -4.000000e+00 8.450000e+01
        vertex 1.500000e+00 -3.000000e+00 7.700000e+01
    endloop
endfacet
facet normal -1.961161e-01 -9.805807e-01 0.000000e+00
    outer loop
        vertex 6.500000e+00 -4.000000e+00 8.450000e+01
        vertex 1.500000e+00 -3.000000e+00 8.300000e+01
        vertex 1.500000e+00 -3.000000e+00 7.700000e+01
    endloop
endfacet
facet normal -2.873479e-01 0.000000e+00 -9.578263e-01
    outer loop
        vertex 6.500000e+00 -4.000000e+00 7.550000e+01
        vertex 1.500000e+00 -3.000000e+00 7.700000e+01
        vertex 6.500000e+00 4.000000e+00 7.550000e+01
    endloop
endfacet
facet normal -2.873479e-01 0.000000e+00 -9.578263e-01
    outer loop
        vertex 1.500000e+00 -3.000000e+00 7.700000e+01
        vertex 1.500000e+00 3.000000e+00 7.700000e+01
        vertex 6.500000e+00 4.000000e+00 7.550000e+01
    endloop
endfacet
facet normal -1.961161e-01 9.805807e-01 0.000000e+00
    outer loop
        vertex 1.500000e+00 3.000000e+00 7.700000e+01
        vertex 6.500000e+00 4.000000e+00 8.450000e+01
        vertex 6.500000e+00 4.000000e+00 7.550000e+01
    endloop
endfacet
facet normal -1.961161e-01 9.805807e-01 0.000000e+00
    outer loop
        vertex 1.500000e+00 3.000000e+00 7.700000e+01
        vertex 1.500000e+00 3.000000e+00 8.300000e+01
        vertex 6.500000e+00 4.000000e+00 8.450000e+01
    endloop
endfacet
facet normal -2.873479e-01 0.000000e+00 9.578263e-01
    outer loop
        vertex 6.500000e+00 -4.000000e+00 8.450000e+01
        vertex 1.500000e+00 3.000000e+00 8.300000e+01
        vertex 1.500000e+00 -3.000000e+00 8.300000e+01
    endloop
endfacet
facet normal -2.873479e-01 0.000000e+00 9.578263e-01
    outer loop
        vertex 6.500000e+00 -4.000000e+00 8.450000e+01
        vertex 6.500000e+00 4.000000e+00 8.450000e+01
        vertex 1.500000e+00 3.000000e+00 8.300000e+01
    endloop
endfacet
facet normal 0.000000e+00 0.000000e+00 -1.000000e+00
    outer loop
        vertex 6.500000e+00 -4.000000e+00 7.550000e+01
        vertex 5.450000e+01 4.000000e+00 7.550000e+01
        vertex 5.450000e+01 -4.000000e+00 7.550000e+01
    endloop
endfacet
facet normal 0.000000e+00 0.000000e+00 -1.000000e+00
    outer loop
        vertex 6.500000e+00 -4.000000e+00 7.550000e+01
        vertex 6.500000e+00 4.000000e+00 7.550000e+01
        vertex 5.450000e+01 4.000000e+00 7.550000e+01
    endloop
endfacet
facet normal 0.000000e+00 -1.000000e+00 0.000000e+00
    outer loop
        vertex 6.500000e+00 -4.000000e+00 7.550000e+01
        vertex 5.450000e+01 -4.000000e+00 7.550000e+01
        vertex 5.450000e+01 -4.000000e+00 8.450000e+01
    endloop
endfacet
facet normal 0.000000e+00 -1.000000e+00 0.000000e+00
    outer loop
        vertex 6.500000e+00 -4.000000e+00 7.550000e+01
        vertex 5.450000e+01 -4.000000e+00 8.450000e+01
        vertex 6.500000e+00 -4.000000e+00 8.450000e+01
    endloop
endfacet
facet normal 0.000000e+00 1.000000e+00 0.000000e+00
    outer loop
        vertex 6.500000e+00 4.000000e+00 7.550000e+01
        vertex 5.450000e+01 4.000000e+00 8.450000e+01
        vertex 5.450000e+01 4.000000e+00 7.550000e+01
    endloop
endfacet
facet normal 0.000000e+00 1.000000e+00 0.000000e+00
    outer loop
        vertex 6.500000e+00 4.000000e+00 7.550000e+01
        vertex 6.500000e+00 4.000000e+00 8.450000e+01
        vertex 5.450000e+01 4.000000e+00 8.450000e+01
    endloop
endfacet
facet normal 0.000000e+00 0.000000e+00 1.000000e+00
    outer loop
        vertex 6.500000e+00 -4.000000e+00 8.450000e+01
        vertex 5.450000e+01 -4.000000e+00 8.450000e+01
        vertex 5.450000e+01 4.000000e+00 8.450000e+01
    endloop
endfacet
facet normal 0.000000e+00 0.000000e+00 1.000000e+00
    outer loop
        vertex 6.500000e+00 -4.000000e+00 8.450000e+01
        vertex 5.450000e+01 4.000000e+00 8.450000e+01
        vertex 6.500000e+00 4.000000e+00 8.450000e+01
    endloop
endfacet
facet normal 0.000000e+00 0.000000e+00 -1.000000e+00
    outer loop
        vertex 5.450000e+01 -4.000000e+00 7.260000e+01
        vertex 5.450000e+01 4.000000e+00 7.260000e+01
        vertex 7.050000e+01 -4.000000e+00 7.260000e+01
    endloop
endfacet
facet normal 0.000000e+00 0.000000e+00 -1.000000e+00
    outer loop
        vertex 7.050000e+01 -4.000000e+00 7.260000e+01
        vertex 5.450000e+01 4.000000e+00 7.260000e+01
        vertex 7.050000e+01 4.000000e+00 7.260000e+01
    endloop
endfacet
facet normal 1.000000e+00 0.000000e+00 0.000000e+00
    outer loop
        vertex 7.050000e+01 -4.000000e+00 7.260000e+01
        vertex 7.050000e+01 4.000000e+00 7.260000e+01
        vertex 7.050000e+01 -4.000000e+00 1.180000e+02
    endloop
endfacet
facet normal 1.000000e+00 -0.000000e+00 0.000000e+00
    outer loop
        vertex 7.050000e+01 -4.000000e+00 1.180000e+02
        vertex 7.050000e+01 4.000000e+00 7.260000e+01
        vertex 7.050000e+01 4.000000e+00 1.180000e+02
    endloop
endfacet
facet normal 0.000000e+00 0.000000e+00 1.000000e+00
    outer loop
        vertex 5.450000e+01 -4.000000e+00 1.180000e+02
        vertex 7.050000e+01 -4.000000e+00 1.180000e+02
        vertex 5.450000e+01 4.000000e+00 1.180000e+02
    endloop
endfacet
facet normal 0.000000e+00 -0.000000e+00 1.000000e+00
    outer loop
        vertex 7.050000e+01 -4.000000e+00 1.180000e+02
        vertex 7.050000e+01 4.000000e+00 1.180000e+02
        vertex 5.450000e+01 4.000000e+00 1.180000e+02
    endloop
endfacet
facet normal 0.000000e+00 -1.000000e+00 0.000000e+00
    outer loop
        vertex 5.830000e+01 -4.000000e+00 1.141000e+02
        vertex 7.050000e+01 -4.000000e+00 1.180000e+02
        vertex 5.450000e+01 -4.000000e+00 1.180000e+02
    endloop
endfacet
facet normal 0.000000e+00 -1.000000e+00 0.000000e+00
    outer loop
        vertex 5.830000e+01 -4.000000e+00 1.141000e+02
        vertex 6.670000e+01 -4.000000e+00 1.141000e+02
        vertex 7.050000e+01 -4.000000e+00 1.180000e+02
    endloop
endfacet
facet normal 0.000000e+00 -1.000000e+00 0.000000e+00
    outer loop
        vertex 7.050000e+01 -4.000000e+00 7.260000e+01
        vertex 7.050000e+01 -4.000000e+00 1.180000e+02
        vertex 6.670000e+01 -4.000000e+00 1.141000e+02
    endloop
endfacet
facet normal 0.000000e+00 -1.000000e+00 0.000000e+00
    outer loop
        vertex 5.450000e+01 -4.000000e+00 7.260000e+01
        vertex 5.830000e+01 -4.000000e+00 1.141000e+02
        vertex 5.450000e+01 -4.000000e+00 1.180000e+02
    endloop
endfacet
facet normal 0.000000e+00 -1.000000e+00 0.000000e+00
    outer loop
        vertex 7.050000e+01 -4.000000e+00 7.260000e+01
        vertex 6.670000e+01 -4.000000e+00 1.141000e+02
        vertex 6.670000e+01 -4.000000e+00 7.600000e+01
    endloop
endfacet
facet normal 0.000000e+00 -1.000000e+00 0.000000e+00
    outer loop
        vertex 5.450000e+01 -4.000000e+00 7.260000e+01
        vertex 7.050000e+01 -4.000000e+00 7.260000e+01
        vertex 6.670000e+01 -4.000000e+00 7.600000e+01
    endloop
endfacet
facet normal 0.000000e+00 -1.000000e+00 0.000000e+00
    outer loop
        vertex 5.450000e+01 -4.000000e+00 7.260000e+01
        vertex 6.670000e+01 -4.000000e+00 7.600000e+01
        vertex 5.830000e+01 -4.000000e+00 7.600000e+01
    endloop
endfacet
facet normal 0.000000e+00 -1.000000e+00 0.000000e+00
    outer loop
        vertex 5.450000e+01 -4.000000e+00 7.260000e+01
        vertex 5.830000e+01 -4.000000e+00 7.600000e+01
        vertex 5.830000e+01 -4.000000e+00 1.141000e+02
    endloop
endfacet
facet normal 0.000000e+00 1.000000e+00 -0.000000e+00
    outer loop
        vertex 5.830000e+01 4.000000e+00 1.141000e+02
        vertex 5.450000e+01 4.000000e+00 1.180000e+02
        vertex 7.050000e+01 4.000000e+00 1.180000e+02
    endloop
endfacet
facet normal 0.000000e+00 1.000000e+00 0.000000e+00
    outer loop
        vertex 5.830000e+01 4.000000e+00 1.141000e+02
        vertex 7.050000e+01 4.000000e+00 1.180000e+02
        vertex 6.670000e+01 4.000000e+00 1.141000e+02
    endloop
endfacet
facet normal 0.000000e+00 1.000000e+00 -0.000000e+00
    outer loop
        vertex 7.050000e+01 4.000000e+00 7.260000e+01
        vertex 6.670000e+01 4.000000e+00 1.141000e+02
        vertex 7.050000e+01 4.000000e+00 1.180000e+02
    endloop
endfacet
facet normal 0.000000e+00 1.000000e+00 0.000000e+00
    outer loop
        vertex 5.450000e+01 4.000000e+00 7.260000e+01
        vertex 5.450000e+01 4.000000e+00 1.180000e+02
        vertex 5.830000e+01 4.000000e+00 1.141000e+02
    endloop
endfacet
facet normal 0.000000e+00 1.000000e+00 0.000000e+00
    outer loop
        vertex 5.450000e+01 4.000000e+00 7.260000e+01
        vertex 5.830000e+01 4.000000e+00 1.141000e+02
        vertex 5.830000e+01 4.000000e+00 7.600000e+01
    endloop
endfacet
facet normal 0.000000e+00 1.000000e+00 0.000000e+00
    outer loop
        vertex 5.450000e+01 4.000000e+00 7.260000e+01
        vertex 5.830000e+01 4.000000e+00 7.600000e+01
        vertex 7.050000e+01 4.000000e+00 7.260000e+01
    endloop
endfacet
facet normal 0.000000e+00 1.000000e+00 0.000000e+00
    outer loop
        vertex 7.050000e+01 4.000000e+00 7.260000e+01
        vertex 5.830000e+01 4.000000e+00 7.600000e+01
        vertex 6.670000e+01 4.000000e+00 7.600000e+01
    endloop
endfacet
facet normal 0.000000e+00 1.000000e+00 0.000000e+00
    outer loop
        vertex 7.050000e+01 4.000000e+00 7.260000e+01
        vertex 6.670000e+01 4.000000e+00 7.600000e+01
        vertex 6.670000e+01 4.000000e+00 1.141000e+02
    endloop
endfacet
facet normal 1.000000e+00 0.000000e+00 0.000000e+00
    outer loop
        vertex 5.830000e+01 -4.000000e+00 7.600000e+01
        vertex 5.830000e+01 4.000000e+00 7.600000e+01
        vertex 5.830000e+01 -4.000000e+00 1.141000e+02
    endloop
endfacet
facet normal 1.000000e+00 -0.000000e+00 0.000000e+00
    outer loop
        vertex 5.830000e+01 -4.000000e+00 1.141000e+02
        vertex 5.830000e+01 4.000000e+00 7.600000e+01
        vertex 5.830000e+01 4.000000e+00 1.141000e+02
    endloop
endfacet
facet normal 0.000000e+00 0.000000e+00 -1.000000e+00
    outer loop
        vertex 5.830000e+01 -4.000000e+00 1.141000e+02
        vertex 5.830000e+01 4.000000e+00 1.141000e+02
        vertex 6.670000e+01 -4.000000e+00 1.141000e+02
    endloop
endfacet
facet normal 0.000000e+00 0.000000e+00 -1.000000e+00
    outer loop
        vertex 6.670000e+01 -4.000000e+00 1.141000e+02
        vertex 5.830000e+01 4.000000e+00 1.141000e+02
        vertex 6.670000e+01 4.000000e+00 1.141000e+02
    endloop
endfacet
facet normal -1.000000e+00 0.000000e+00 0.000000e+00
    outer loop
        vertex 6.670000e+01 -4.000000e+00 7.600000e+01
        vertex 6.670000e+01 -4.000000e+00 1.141000e+02
        vertex 6.670000e+01 4.000000e+00 1.141000e+02
    endloop
endfacet
facet normal -1.000000e+00 0.000000e+00 0.000000e+00
    outer loop
        vertex 6.670000e+01 -4.000000e+00 7.600000e+01
        vertex 6.670000e+01 4.000000e+00 1.141000e+02
        vertex 6.670000e+01 4.000000e+00 7.600000e+01
    endloop
endfacet
facet normal 0.000000e+00 0.000000e+00 1.000000e+00
    outer loop
        vertex 5.830000e+01 -4.000000e+00 7.600000e+01
        vertex 6.670000e+01 -4.000000e+00 7.600000e+01
        vertex 6.670000e+01 4.000000e+00 7.600000e+01
    endloop
endfacet
facet normal 0.000000e+00 0.000000e+00 1.000000e+00
    outer loop
        vertex 5.830000e+01 -4.000000e+00 7.600000e+01
        vertex 6.670000e+01 4.000000e+00 7.600000e+01
        vertex 5.830000e+01 4.000000e+00 7.600000e+01
    endloop
endfacet
facet normal -1.000000e+00 0.000000e+00 0.000000e+00
    outer loop
        vertex 5.450000e+01 -4.000000e+00 1.180000e+02
        vertex 5.450000e+01 4.000000e+00 1.180000e+02
        vertex 5.450000e+01 4.000000e+00 8.450000e+01
    endloop
endfacet
facet normal -1.000000e+00 0.000000e+00 0.000000e+00
    outer loop
        vertex 5.450000e+01 -4.000000e+00 8.450000e+01
        vertex 5.450000e+01 -4.000000e+00 1.180000e+02
        vertex 5.450000e+01 4.000000e+00 8.450000e+01
    endloop
endfacet
facet normal -1.000000e+00 0.000000e+00 0.000000e+00
    outer loop
        vertex 5.450000e+01 -4.000000e+00 7.260000e+01
        vertex 5.450000e+01 4.000000e+00 7.550000e+01
        vertex 5.450000e+01 4.000000e+00 7.260000e+01
    endloop
endfacet
facet normal -1.000000e+00 0.000000e+00 0.000000e+00
    outer loop
        vertex 5.450000e+01 -4.000000e+00 7.260000e+01
        vertex 5.450000e+01 -4.000000e+00 7.550000e+01
        vertex 5.450000e+01 4.000000e+00 7.550000e+01
    endloop
endfacet
endsolid pusher.stl
