solid mag-size-test.stl
facet normal -2.399604e-01 -9.707827e-01 0.000000e+00
    outer loop
        vertex -2.871504e+01 -1.435857e+01 0.000000e+00
        vertex -4.265640e+01 -1.091251e+01 7.404666e+01
        vertex -4.265640e+01 -1.091251e+01 0.000000e+00
    endloop
endfacet
facet normal -2.399604e-01 -9.707827e-01 0.000000e+00
    outer loop
        vertex -2.871504e+01 -1.435857e+01 0.000000e+00
        vertex -2.871504e+01 -1.435857e+01 7.404666e+01
        vertex -4.265640e+01 -1.091251e+01 7.404666e+01
    endloop
endfacet
facet normal 0.000000e+00 1.000000e+00 0.000000e+00
    outer loop
        vertex 2.871504e+01 1.435857e+01 0.000000e+00
        vertex -2.871504e+01 1.435857e+01 0.000000e+00
        vertex -2.871504e+01 1.435857e+01 7.404666e+01
    endloop
endfacet
facet normal 0.000000e+00 1.000000e+00 -0.000000e+00
    outer loop
        vertex 2.871504e+01 1.435857e+01 0.000000e+00
        vertex -2.871504e+01 1.435857e+01 7.404666e+01
        vertex 2.871504e+01 1.435857e+01 7.404666e+01
    endloop
endfacet
facet normal -2.399604e-01 9.707827e-01 0.000000e+00
    outer loop
        vertex -4.265640e+01 1.091251e+01 0.000000e+00
        vertex -4.265640e+01 1.091251e+01 7.404666e+01
        vertex -2.871504e+01 1.435857e+01 0.000000e+00
    endloop
endfacet
facet normal -2.399604e-01 9.707827e-01 0.000000e+00
    outer loop
        vertex -4.265640e+01 1.091251e+01 7.404666e+01
        vertex -2.871504e+01 1.435857e+01 7.404666e+01
        vertex -2.871504e+01 1.435857e+01 0.000000e+00
    endloop
endfacet
facet normal 0.000000e+00 0.000000e+00 -1.000000e+00
    outer loop
        vertex -2.871504e+01 -1.435857e+01 0.000000e+00
        vertex -4.100000e+01 -9.500000e+00 0.000000e+00
        vertex -2.760000e+01 -1.250000e+01 0.000000e+00
    endloop
endfacet
facet normal 0.000000e+00 0.000000e+00 -1.000000e+00
    outer loop
        vertex -2.871504e+01 -1.435857e+01 0.000000e+00
        vertex -4.265640e+01 -1.091251e+01 0.000000e+00
        vertex -4.100000e+01 -9.500000e+00 0.000000e+00
    endloop
endfacet
facet normal 0.000000e+00 0.000000e+00 -1.000000e+00
    outer loop
        vertex -4.265640e+01 -1.091251e+01 0.000000e+00
        vertex -4.265640e+01 1.091251e+01 0.000000e+00
        vertex -4.100000e+01 -9.500000e+00 0.000000e+00
    endloop
endfacet
facet normal 0.000000e+00 0.000000e+00 -1.000000e+00
    outer loop
        vertex -4.100000e+01 -9.500000e+00 0.000000e+00
        vertex -4.265640e+01 1.091251e+01 0.000000e+00
        vertex -4.100000e+01 9.500000e+00 0.000000e+00
    endloop
endfacet
facet normal 0.000000e+00 0.000000e+00 -1.000000e+00
    outer loop
        vertex -4.100000e+01 9.500000e+00 0.000000e+00
        vertex -4.265640e+01 1.091251e+01 0.000000e+00
        vertex -2.871504e+01 1.435857e+01 0.000000e+00
    endloop
endfacet
facet normal 0.000000e+00 0.000000e+00 -1.000000e+00
    outer loop
        vertex -4.100000e+01 9.500000e+00 0.000000e+00
        vertex -2.871504e+01 1.435857e+01 0.000000e+00
        vertex -2.760000e+01 1.250000e+01 0.000000e+00
    endloop
endfacet
facet normal 0.000000e+00 0.000000e+00 -1.000000e+00
    outer loop
        vertex 2.871504e+01 -1.435857e+01 0.000000e+00
        vertex -2.871504e+01 -1.435857e+01 0.000000e+00
        vertex -2.760000e+01 -1.250000e+01 0.000000e+00
    endloop
endfacet
facet normal 0.000000e+00 0.000000e+00 -1.000000e+00
    outer loop
        vertex -2.760000e+01 1.250000e+01 0.000000e+00
        vertex -2.871504e+01 1.435857e+01 0.000000e+00
        vertex 2.871504e+01 1.435857e+01 0.000000e+00
    endloop
endfacet
facet normal 0.000000e+00 0.000000e+00 -1.000000e+00
    outer loop
        vertex 2.871504e+01 -1.435857e+01 0.000000e+00
        vertex -2.760000e+01 -1.250000e+01 0.000000e+00
        vertex 2.760000e+01 -1.250000e+01 0.000000e+00
    endloop
endfacet
facet normal 0.000000e+00 0.000000e+00 -1.000000e+00
    outer loop
        vertex 2.871504e+01 -1.435857e+01 0.000000e+00
        vertex 2.760000e+01 -1.250000e+01 0.000000e+00
        vertex 4.100000e+01 -9.500000e+00 0.000000e+00
    endloop
endfacet
facet normal 0.000000e+00 0.000000e+00 -1.000000e+00
    outer loop
        vertex 2.871504e+01 -1.435857e+01 0.000000e+00
        vertex 4.100000e+01 -9.500000e+00 0.000000e+00
        vertex 4.265640e+01 -1.091251e+01 0.000000e+00
    endloop
endfacet
facet normal 0.000000e+00 0.000000e+00 -1.000000e+00
    outer loop
        vertex 4.265640e+01 -1.091251e+01 0.000000e+00
        vertex 4.100000e+01 -9.500000e+00 0.000000e+00
        vertex 4.265640e+01 1.091251e+01 0.000000e+00
    endloop
endfacet
facet normal 0.000000e+00 0.000000e+00 -1.000000e+00
    outer loop
        vertex 4.100000e+01 -9.500000e+00 0.000000e+00
        vertex 4.100000e+01 9.500000e+00 0.000000e+00
        vertex 4.265640e+01 1.091251e+01 0.000000e+00
    endloop
endfacet
facet normal 0.000000e+00 0.000000e+00 -1.000000e+00
    outer loop
        vertex 4.100000e+01 9.500000e+00 0.000000e+00
        vertex 2.871504e+01 1.435857e+01 0.000000e+00
        vertex 4.265640e+01 1.091251e+01 0.000000e+00
    endloop
endfacet
facet normal 0.000000e+00 0.000000e+00 -1.000000e+00
    outer loop
        vertex 4.100000e+01 9.500000e+00 0.000000e+00
        vertex 2.760000e+01 1.250000e+01 0.000000e+00
        vertex 2.871504e+01 1.435857e+01 0.000000e+00
    endloop
endfacet
facet normal 0.000000e+00 0.000000e+00 -1.000000e+00
    outer loop
        vertex 2.760000e+01 1.250000e+01 0.000000e+00
        vertex -2.760000e+01 1.250000e+01 0.000000e+00
        vertex 2.871504e+01 1.435857e+01 0.000000e+00
    endloop
endfacet
facet normal 2.184723e-01 9.758431e-01 -0.000000e+00
    outer loop
        vertex -2.760000e+01 -1.250000e+01 0.000000e+00
        vertex -4.100000e+01 -9.500000e+00 7.200000e+01
        vertex -2.760000e+01 -1.250000e+01 7.200000e+01
    endloop
endfacet
facet normal 2.184723e-01 9.758431e-01 0.000000e+00
    outer loop
        vertex -2.760000e+01 -1.250000e+01 0.000000e+00
        vertex -4.100000e+01 -9.500000e+00 0.000000e+00
        vertex -4.100000e+01 -9.500000e+00 7.200000e+01
    endloop
endfacet
facet normal 0.000000e+00 -1.000000e+00 0.000000e+00
    outer loop
        vertex 2.760000e+01 1.250000e+01 0.000000e+00
        vertex 2.760000e+01 1.250000e+01 7.200000e+01
        vertex -2.760000e+01 1.250000e+01 7.200000e+01
    endloop
endfacet
facet normal 0.000000e+00 -1.000000e+00 0.000000e+00
    outer loop
        vertex -2.760000e+01 1.250000e+01 0.000000e+00
        vertex 2.760000e+01 1.250000e+01 0.000000e+00
        vertex -2.760000e+01 1.250000e+01 7.200000e+01
    endloop
endfacet
facet normal 2.184723e-01 -9.758431e-01 0.000000e+00
    outer loop
        vertex -4.100000e+01 9.500000e+00 7.200000e+01
        vertex -2.760000e+01 1.250000e+01 0.000000e+00
        vertex -2.760000e+01 1.250000e+01 7.200000e+01
    endloop
endfacet
facet normal 2.184723e-01 -9.758431e-01 0.000000e+00
    outer loop
        vertex -4.100000e+01 9.500000e+00 0.000000e+00
        vertex -2.760000e+01 1.250000e+01 0.000000e+00
        vertex -4.100000e+01 9.500000e+00 7.200000e+01
    endloop
endfacet
facet normal 2.399604e-01 -9.707827e-01 0.000000e+00
    outer loop
        vertex 3.650000e+01 -1.243427e+01 4.000000e+00
        vertex 4.265640e+01 -1.091251e+01 0.000000e+00
        vertex 4.265640e+01 -1.091251e+01 4.000000e+00
    endloop
endfacet
facet normal 2.399604e-01 -9.707827e-01 6.370033e-09
    outer loop
        vertex 2.871504e+01 -1.435857e+01 0.000000e+00
        vertex 4.265640e+01 -1.091251e+01 0.000000e+00
        vertex 3.650000e+01 -1.243427e+01 4.000000e+00
    endloop
endfacet
facet normal 2.399604e-01 -9.707827e-01 0.000000e+00
    outer loop
        vertex 2.871504e+01 -1.435857e+01 0.000000e+00
        vertex 3.650000e+01 -1.243427e+01 4.000000e+00
        vertex 3.650000e+01 -1.243427e+01 9.000000e+00
    endloop
endfacet
facet normal 2.399604e-01 -9.707827e-01 0.000000e+00
    outer loop
        vertex 2.871504e+01 -1.435857e+01 7.404666e+01
        vertex 4.265640e+01 -1.091251e+01 9.000000e+00
        vertex 4.265640e+01 -1.091251e+01 7.404666e+01
    endloop
endfacet
facet normal 2.399604e-01 -9.707827e-01 0.000000e+00
    outer loop
        vertex 2.871504e+01 -1.435857e+01 0.000000e+00
        vertex 3.650000e+01 -1.243427e+01 9.000000e+00
        vertex 2.871504e+01 -1.435857e+01 7.404666e+01
    endloop
endfacet
facet normal 2.399604e-01 -9.707827e-01 -8.870641e-10
    outer loop
        vertex 2.871504e+01 -1.435857e+01 7.404666e+01
        vertex 3.650000e+01 -1.243427e+01 9.000000e+00
        vertex 4.265640e+01 -1.091251e+01 9.000000e+00
    endloop
endfacet
facet normal 1.000000e+00 0.000000e+00 0.000000e+00
    outer loop
        vertex 4.265640e+01 -1.091251e+01 0.000000e+00
        vertex 4.265640e+01 1.091251e+01 0.000000e+00
        vertex 4.265640e+01 -1.091251e+01 4.000000e+00
    endloop
endfacet
facet normal 1.000000e+00 -0.000000e+00 0.000000e+00
    outer loop
        vertex 4.265640e+01 -1.091251e+01 4.000000e+00
        vertex 4.265640e+01 1.091251e+01 0.000000e+00
        vertex 4.265640e+01 1.091251e+01 4.000000e+00
    endloop
endfacet
facet normal 2.399604e-01 9.707827e-01 -0.000000e+00
    outer loop
        vertex 4.265640e+01 1.091251e+01 0.000000e+00
        vertex 3.650000e+01 1.243427e+01 4.000000e+00
        vertex 4.265640e+01 1.091251e+01 4.000000e+00
    endloop
endfacet
facet normal 2.399604e-01 9.707827e-01 6.370033e-09
    outer loop
        vertex 4.265640e+01 1.091251e+01 0.000000e+00
        vertex 2.871504e+01 1.435857e+01 0.000000e+00
        vertex 3.650000e+01 1.243427e+01 4.000000e+00
    endloop
endfacet
facet normal 2.399604e-01 9.707827e-01 -0.000000e+00
    outer loop
        vertex 3.650000e+01 1.243427e+01 4.000000e+00
        vertex 2.871504e+01 1.435857e+01 0.000000e+00
        vertex 3.650000e+01 1.243427e+01 9.000000e+00
    endloop
endfacet
facet normal 2.399604e-01 9.707827e-01 -0.000000e+00
    outer loop
        vertex 4.265640e+01 1.091251e+01 9.000000e+00
        vertex 2.871504e+01 1.435857e+01 7.404666e+01
        vertex 4.265640e+01 1.091251e+01 7.404666e+01
    endloop
endfacet
facet normal 2.399604e-01 9.707827e-01 -8.870641e-10
    outer loop
        vertex 4.265640e+01 1.091251e+01 9.000000e+00
        vertex 3.650000e+01 1.243427e+01 9.000000e+00
        vertex 2.871504e+01 1.435857e+01 7.404666e+01
    endloop
endfacet
facet normal 2.399604e-01 9.707827e-01 0.000000e+00
    outer loop
        vertex 3.650000e+01 1.243427e+01 9.000000e+00
        vertex 2.871504e+01 1.435857e+01 0.000000e+00
        vertex 2.871504e+01 1.435857e+01 7.404666e+01
    endloop
endfacet
facet normal -2.184723e-01 9.758431e-01 0.000000e+00
    outer loop
        vertex 3.650000e+01 -1.050746e+01 4.000000e+00
        vertex 4.100000e+01 -9.500000e+00 4.000000e+00
        vertex 4.100000e+01 -9.500000e+00 0.000000e+00
    endloop
endfacet
facet normal -2.184723e-01 9.758431e-01 -5.213969e-08
    outer loop
        vertex 2.760000e+01 -1.250000e+01 0.000000e+00
        vertex 3.650000e+01 -1.050746e+01 4.000000e+00
        vertex 4.100000e+01 -9.500000e+00 0.000000e+00
    endloop
endfacet
facet normal -2.184723e-01 9.758431e-01 0.000000e+00
    outer loop
        vertex 2.760000e+01 -1.250000e+01 7.200000e+01
        vertex 4.100000e+01 -9.500000e+00 7.200000e+01
        vertex 4.100000e+01 -9.500000e+00 9.000000e+00
    endloop
endfacet
facet normal -2.184724e-01 9.758431e-01 0.000000e+00
    outer loop
        vertex 2.760000e+01 -1.250000e+01 0.000000e+00
        vertex 3.650000e+01 -1.050746e+01 9.000000e+00
        vertex 3.650000e+01 -1.050746e+01 4.000000e+00
    endloop
endfacet
facet normal -2.184724e-01 9.758431e-01 0.000000e+00
    outer loop
        vertex 2.760000e+01 -1.250000e+01 0.000000e+00
        vertex 2.760000e+01 -1.250000e+01 7.200000e+01
        vertex 3.650000e+01 -1.050746e+01 9.000000e+00
    endloop
endfacet
facet normal -2.184723e-01 9.758431e-01 9.857804e-09
    outer loop
        vertex 2.760000e+01 -1.250000e+01 7.200000e+01
        vertex 4.100000e+01 -9.500000e+00 9.000000e+00
        vertex 3.650000e+01 -1.050746e+01 9.000000e+00
    endloop
endfacet
facet normal -1.000000e+00 0.000000e+00 0.000000e+00
    outer loop
        vertex 4.100000e+01 -9.500000e+00 0.000000e+00
        vertex 4.100000e+01 -9.500000e+00 4.000000e+00
        vertex 4.100000e+01 9.500000e+00 0.000000e+00
    endloop
endfacet
facet normal -1.000000e+00 0.000000e+00 0.000000e+00
    outer loop
        vertex 4.100000e+01 -9.500000e+00 4.000000e+00
        vertex 4.100000e+01 9.500000e+00 4.000000e+00
        vertex 4.100000e+01 9.500000e+00 0.000000e+00
    endloop
endfacet
facet normal -2.184723e-01 -9.758431e-01 0.000000e+00
    outer loop
        vertex 4.100000e+01 9.500000e+00 0.000000e+00
        vertex 4.100000e+01 9.500000e+00 4.000000e+00
        vertex 3.650000e+01 1.050746e+01 4.000000e+00
    endloop
endfacet
facet normal -2.184723e-01 -9.758431e-01 -5.213969e-08
    outer loop
        vertex 4.100000e+01 9.500000e+00 0.000000e+00
        vertex 3.650000e+01 1.050746e+01 4.000000e+00
        vertex 2.760000e+01 1.250000e+01 0.000000e+00
    endloop
endfacet
facet normal -2.184723e-01 -9.758431e-01 0.000000e+00
    outer loop
        vertex 4.100000e+01 9.500000e+00 9.000000e+00
        vertex 4.100000e+01 9.500000e+00 7.200000e+01
        vertex 2.760000e+01 1.250000e+01 7.200000e+01
    endloop
endfacet
facet normal -2.184724e-01 -9.758431e-01 0.000000e+00
    outer loop
        vertex 3.650000e+01 1.050746e+01 4.000000e+00
        vertex 3.650000e+01 1.050746e+01 9.000000e+00
        vertex 2.760000e+01 1.250000e+01 0.000000e+00
    endloop
endfacet
facet normal -2.184724e-01 -9.758431e-01 0.000000e+00
    outer loop
        vertex 3.650000e+01 1.050746e+01 9.000000e+00
        vertex 2.760000e+01 1.250000e+01 7.200000e+01
        vertex 2.760000e+01 1.250000e+01 0.000000e+00
    endloop
endfacet
facet normal -2.184723e-01 -9.758431e-01 9.857804e-09
    outer loop
        vertex 4.100000e+01 9.500000e+00 9.000000e+00
        vertex 2.760000e+01 1.250000e+01 7.200000e+01
        vertex 3.650000e+01 1.050746e+01 9.000000e+00
    endloop
endfacet
facet normal 1.000000e+00 0.000000e+00 0.000000e+00
    outer loop
        vertex 3.650000e+01 -1.243427e+01 4.000000e+00
        vertex 3.650000e+01 -1.050746e+01 4.000000e+00
        vertex 3.650000e+01 -1.243427e+01 9.000000e+00
    endloop
endfacet
facet normal 1.000000e+00 -0.000000e+00 0.000000e+00
    outer loop
        vertex 3.650000e+01 -1.243427e+01 9.000000e+00
        vertex 3.650000e+01 -1.050746e+01 4.000000e+00
        vertex 3.650000e+01 -1.050746e+01 9.000000e+00
    endloop
endfacet
facet normal 1.000000e+00 -0.000000e+00 0.000000e+00
    outer loop
        vertex 3.650000e+01 1.050746e+01 9.000000e+00
        vertex 3.650000e+01 1.243427e+01 4.000000e+00
        vertex 3.650000e+01 1.243427e+01 9.000000e+00
    endloop
endfacet
facet normal 1.000000e+00 0.000000e+00 0.000000e+00
    outer loop
        vertex 3.650000e+01 1.050746e+01 4.000000e+00
        vertex 3.650000e+01 1.243427e+01 4.000000e+00
        vertex 3.650000e+01 1.050746e+01 9.000000e+00
    endloop
endfacet
facet normal 0.000000e+00 0.000000e+00 -1.000000e+00
    outer loop
        vertex 3.650000e+01 -1.243427e+01 9.000000e+00
        vertex 3.650000e+01 -1.050746e+01 9.000000e+00
        vertex 4.100000e+01 -9.500000e+00 9.000000e+00
    endloop
endfacet
facet normal 0.000000e+00 0.000000e+00 -1.000000e+00
    outer loop
        vertex 4.100000e+01 9.500000e+00 9.000000e+00
        vertex 3.650000e+01 1.050746e+01 9.000000e+00
        vertex 3.650000e+01 1.243427e+01 9.000000e+00
    endloop
endfacet
facet normal 0.000000e+00 0.000000e+00 -1.000000e+00
    outer loop
        vertex 3.650000e+01 -1.243427e+01 9.000000e+00
        vertex 4.100000e+01 -9.500000e+00 9.000000e+00
        vertex 4.265640e+01 -1.091251e+01 9.000000e+00
    endloop
endfacet
facet normal 0.000000e+00 0.000000e+00 -1.000000e+00
    outer loop
        vertex 4.265640e+01 -1.091251e+01 9.000000e+00
        vertex 4.100000e+01 -9.500000e+00 9.000000e+00
        vertex 4.265640e+01 1.091251e+01 9.000000e+00
    endloop
endfacet
facet normal 0.000000e+00 0.000000e+00 -1.000000e+00
    outer loop
        vertex 4.100000e+01 -9.500000e+00 9.000000e+00
        vertex 4.100000e+01 9.500000e+00 9.000000e+00
        vertex 4.265640e+01 1.091251e+01 9.000000e+00
    endloop
endfacet
facet normal 0.000000e+00 0.000000e+00 -1.000000e+00
    outer loop
        vertex 4.100000e+01 9.500000e+00 9.000000e+00
        vertex 3.650000e+01 1.243427e+01 9.000000e+00
        vertex 4.265640e+01 1.091251e+01 9.000000e+00
    endloop
endfacet
facet normal 0.000000e+00 0.000000e+00 1.000000e+00
    outer loop
        vertex 4.100000e+01 9.500000e+00 4.000000e+00
        vertex 3.650000e+01 1.243427e+01 4.000000e+00
        vertex 3.650000e+01 1.050746e+01 4.000000e+00
    endloop
endfacet
facet normal 0.000000e+00 0.000000e+00 1.000000e+00
    outer loop
        vertex 3.650000e+01 -1.243427e+01 4.000000e+00
        vertex 4.100000e+01 -9.500000e+00 4.000000e+00
        vertex 3.650000e+01 -1.050746e+01 4.000000e+00
    endloop
endfacet
facet normal 0.000000e+00 -0.000000e+00 1.000000e+00
    outer loop
        vertex 4.100000e+01 9.500000e+00 4.000000e+00
        vertex 4.265640e+01 1.091251e+01 4.000000e+00
        vertex 3.650000e+01 1.243427e+01 4.000000e+00
    endloop
endfacet
facet normal 0.000000e+00 -0.000000e+00 1.000000e+00
    outer loop
        vertex 4.265640e+01 -1.091251e+01 4.000000e+00
        vertex 4.265640e+01 1.091251e+01 4.000000e+00
        vertex 4.100000e+01 9.500000e+00 4.000000e+00
    endloop
endfacet
facet normal 0.000000e+00 0.000000e+00 1.000000e+00
    outer loop
        vertex 4.265640e+01 -1.091251e+01 4.000000e+00
        vertex 4.100000e+01 9.500000e+00 4.000000e+00
        vertex 4.100000e+01 -9.500000e+00 4.000000e+00
    endloop
endfacet
facet normal 0.000000e+00 0.000000e+00 1.000000e+00
    outer loop
        vertex 3.650000e+01 -1.243427e+01 4.000000e+00
        vertex 4.265640e+01 -1.091251e+01 4.000000e+00
        vertex 4.100000e+01 -9.500000e+00 4.000000e+00
    endloop
endfacet
facet normal -1.000000e+00 0.000000e+00 0.000000e+00
    outer loop
        vertex -4.265640e+01 4.500000e+00 7.029423e+01
        vertex -4.265640e+01 1.091251e+01 7.404666e+01
        vertex -4.265640e+01 6.363961e+00 6.886396e+01
    endloop
endfacet
facet normal -1.000000e+00 0.000000e+00 0.000000e+00
    outer loop
        vertex -4.265640e+01 6.363961e+00 6.886396e+01
        vertex -4.265640e+01 1.091251e+01 7.404666e+01
        vertex -4.265640e+01 7.794229e+00 6.700000e+01
    endloop
endfacet
facet normal -1.000000e+00 0.000000e+00 0.000000e+00
    outer loop
        vertex -4.265640e+01 2.329371e+00 7.119333e+01
        vertex -4.265640e+01 1.091251e+01 7.404666e+01
        vertex -4.265640e+01 4.500000e+00 7.029423e+01
    endloop
endfacet
facet normal -1.000000e+00 0.000000e+00 0.000000e+00
    outer loop
        vertex -4.265640e+01 7.794229e+00 6.700000e+01
        vertex -4.265640e+01 1.091251e+01 7.404666e+01
        vertex -4.265640e+01 8.693333e+00 6.482938e+01
    endloop
endfacet
facet normal -1.000000e+00 0.000000e+00 0.000000e+00
    outer loop
        vertex -4.265640e+01 -1.091251e+01 7.404666e+01
        vertex -4.265640e+01 1.091251e+01 7.404666e+01
        vertex -4.265640e+01 2.329371e+00 7.119333e+01
    endloop
endfacet
facet normal -1.000000e+00 0.000000e+00 0.000000e+00
    outer loop
        vertex -4.265640e+01 8.693333e+00 6.482938e+01
        vertex -4.265640e+01 1.091251e+01 7.404666e+01
        vertex -4.265640e+01 9.000000e+00 6.250000e+01
    endloop
endfacet
facet normal -1.000000e+00 0.000000e+00 0.000000e+00
    outer loop
        vertex -4.265640e+01 9.000000e+00 6.250000e+01
        vertex -4.265640e+01 1.091251e+01 7.404666e+01
        vertex -4.265640e+01 1.091251e+01 0.000000e+00
    endloop
endfacet
facet normal -1.000000e+00 0.000000e+00 0.000000e+00
    outer loop
        vertex -4.265640e+01 -1.091251e+01 7.404666e+01
        vertex -4.265640e+01 2.329371e+00 7.119333e+01
        vertex -4.265640e+01 1.776357e-15 7.150000e+01
    endloop
endfacet
facet normal -1.000000e+00 0.000000e+00 0.000000e+00
    outer loop
        vertex -4.265640e+01 -1.091251e+01 7.404666e+01
        vertex -4.265640e+01 1.776357e-15 7.150000e+01
        vertex -4.265640e+01 -2.329371e+00 7.119333e+01
    endloop
endfacet
facet normal -1.000000e+00 0.000000e+00 0.000000e+00
    outer loop
        vertex -4.265640e+01 -1.091251e+01 7.404666e+01
        vertex -4.265640e+01 -2.329371e+00 7.119333e+01
        vertex -4.265640e+01 -4.500000e+00 7.029423e+01
    endloop
endfacet
facet normal -1.000000e+00 0.000000e+00 0.000000e+00
    outer loop
        vertex -4.265640e+01 -1.091251e+01 7.404666e+01
        vertex -4.265640e+01 -4.500000e+00 7.029423e+01
        vertex -4.265640e+01 -6.363961e+00 6.886396e+01
    endloop
endfacet
facet normal -1.000000e+00 0.000000e+00 0.000000e+00
    outer loop
        vertex -4.265640e+01 -1.091251e+01 7.404666e+01
        vertex -4.265640e+01 -6.363961e+00 6.886396e+01
        vertex -4.265640e+01 -7.794229e+00 6.700000e+01
    endloop
endfacet
facet normal -1.000000e+00 0.000000e+00 0.000000e+00
    outer loop
        vertex -4.265640e+01 -1.091251e+01 7.404666e+01
        vertex -4.265640e+01 -7.794229e+00 6.700000e+01
        vertex -4.265640e+01 -8.693333e+00 6.482938e+01
    endloop
endfacet
facet normal -1.000000e+00 0.000000e+00 0.000000e+00
    outer loop
        vertex -4.265640e+01 -1.091251e+01 7.404666e+01
        vertex -4.265640e+01 -8.693333e+00 6.482938e+01
        vertex -4.265640e+01 -9.000000e+00 6.250000e+01
    endloop
endfacet
facet normal -1.000000e+00 0.000000e+00 0.000000e+00
    outer loop
        vertex -4.265640e+01 -1.091251e+01 0.000000e+00
        vertex -4.265640e+01 -1.091251e+01 7.404666e+01
        vertex -4.265640e+01 -9.000000e+00 6.250000e+01
    endloop
endfacet
facet normal -1.000000e+00 0.000000e+00 0.000000e+00
    outer loop
        vertex -4.265640e+01 -1.091251e+01 0.000000e+00
        vertex -4.265640e+01 -9.000000e+00 6.250000e+01
        vertex -4.265640e+01 -8.693333e+00 6.017063e+01
    endloop
endfacet
facet normal -1.000000e+00 0.000000e+00 0.000000e+00
    outer loop
        vertex -4.265640e+01 -1.091251e+01 0.000000e+00
        vertex -4.265640e+01 -8.693333e+00 6.017063e+01
        vertex -4.265640e+01 1.091251e+01 0.000000e+00
    endloop
endfacet
facet normal -1.000000e+00 0.000000e+00 0.000000e+00
    outer loop
        vertex -4.265640e+01 8.693333e+00 6.017063e+01
        vertex -4.265640e+01 9.000000e+00 6.250000e+01
        vertex -4.265640e+01 1.091251e+01 0.000000e+00
    endloop
endfacet
facet normal -1.000000e+00 0.000000e+00 0.000000e+00
    outer loop
        vertex -4.265640e+01 7.794229e+00 5.800000e+01
        vertex -4.265640e+01 8.693333e+00 6.017063e+01
        vertex -4.265640e+01 1.091251e+01 0.000000e+00
    endloop
endfacet
facet normal -1.000000e+00 0.000000e+00 0.000000e+00
    outer loop
        vertex -4.265640e+01 6.363961e+00 5.613604e+01
        vertex -4.265640e+01 7.794229e+00 5.800000e+01
        vertex -4.265640e+01 1.091251e+01 0.000000e+00
    endloop
endfacet
facet normal -1.000000e+00 0.000000e+00 0.000000e+00
    outer loop
        vertex -4.265640e+01 4.500000e+00 5.470577e+01
        vertex -4.265640e+01 6.363961e+00 5.613604e+01
        vertex -4.265640e+01 1.091251e+01 0.000000e+00
    endloop
endfacet
facet normal -1.000000e+00 0.000000e+00 0.000000e+00
    outer loop
        vertex -4.265640e+01 2.329371e+00 5.380667e+01
        vertex -4.265640e+01 4.500000e+00 5.470577e+01
        vertex -4.265640e+01 1.091251e+01 0.000000e+00
    endloop
endfacet
facet normal -1.000000e+00 0.000000e+00 0.000000e+00
    outer loop
        vertex -4.265640e+01 8.881784e-16 5.350000e+01
        vertex -4.265640e+01 2.329371e+00 5.380667e+01
        vertex -4.265640e+01 1.091251e+01 0.000000e+00
    endloop
endfacet
facet normal -1.000000e+00 0.000000e+00 0.000000e+00
    outer loop
        vertex -4.265640e+01 -2.329371e+00 5.380667e+01
        vertex -4.265640e+01 8.881784e-16 5.350000e+01
        vertex -4.265640e+01 1.091251e+01 0.000000e+00
    endloop
endfacet
facet normal -1.000000e+00 0.000000e+00 0.000000e+00
    outer loop
        vertex -4.265640e+01 -4.500000e+00 5.470577e+01
        vertex -4.265640e+01 -2.329371e+00 5.380667e+01
        vertex -4.265640e+01 1.091251e+01 0.000000e+00
    endloop
endfacet
facet normal -1.000000e+00 0.000000e+00 0.000000e+00
    outer loop
        vertex -4.265640e+01 -6.363961e+00 5.613604e+01
        vertex -4.265640e+01 -4.500000e+00 5.470577e+01
        vertex -4.265640e+01 1.091251e+01 0.000000e+00
    endloop
endfacet
facet normal -1.000000e+00 0.000000e+00 0.000000e+00
    outer loop
        vertex -4.265640e+01 -8.693333e+00 6.017063e+01
        vertex -4.265640e+01 -7.794229e+00 5.800000e+01
        vertex -4.265640e+01 1.091251e+01 0.000000e+00
    endloop
endfacet
facet normal -1.000000e+00 0.000000e+00 0.000000e+00
    outer loop
        vertex -4.265640e+01 -7.794229e+00 5.800000e+01
        vertex -4.265640e+01 -6.363961e+00 5.613604e+01
        vertex -4.265640e+01 1.091251e+01 0.000000e+00
    endloop
endfacet
facet normal 1.000000e+00 -0.000000e+00 0.000000e+00
    outer loop
        vertex -4.100000e+01 6.363961e+00 6.886396e+01
        vertex -4.100000e+01 7.794229e+00 6.700000e+01
        vertex -4.100000e+01 9.500000e+00 7.200000e+01
    endloop
endfacet
facet normal 1.000000e+00 -0.000000e+00 0.000000e+00
    outer loop
        vertex -4.100000e+01 4.500000e+00 7.029423e+01
        vertex -4.100000e+01 6.363961e+00 6.886396e+01
        vertex -4.100000e+01 9.500000e+00 7.200000e+01
    endloop
endfacet
facet normal 1.000000e+00 -0.000000e+00 0.000000e+00
    outer loop
        vertex -4.100000e+01 7.794229e+00 6.700000e+01
        vertex -4.100000e+01 8.693333e+00 6.482938e+01
        vertex -4.100000e+01 9.500000e+00 7.200000e+01
    endloop
endfacet
facet normal 1.000000e+00 -0.000000e+00 0.000000e+00
    outer loop
        vertex -4.100000e+01 2.329371e+00 7.119333e+01
        vertex -4.100000e+01 4.500000e+00 7.029423e+01
        vertex -4.100000e+01 9.500000e+00 7.200000e+01
    endloop
endfacet
facet normal 1.000000e+00 -0.000000e+00 0.000000e+00
    outer loop
        vertex -4.100000e+01 -8.881784e-16 7.150000e+01
        vertex -4.100000e+01 2.329371e+00 7.119333e+01
        vertex -4.100000e+01 9.500000e+00 7.200000e+01
    endloop
endfacet
facet normal 1.000000e+00 -0.000000e+00 0.000000e+00
    outer loop
        vertex -4.100000e+01 8.693333e+00 6.482938e+01
        vertex -4.100000e+01 9.000000e+00 6.250000e+01
        vertex -4.100000e+01 9.500000e+00 7.200000e+01
    endloop
endfacet
facet normal 1.000000e+00 -0.000000e+00 0.000000e+00
    outer loop
        vertex -4.100000e+01 -9.500000e+00 7.200000e+01
        vertex -4.100000e+01 -8.881784e-16 7.150000e+01
        vertex -4.100000e+01 9.500000e+00 7.200000e+01
    endloop
endfacet
facet normal 1.000000e+00 0.000000e+00 0.000000e+00
    outer loop
        vertex -4.100000e+01 -9.500000e+00 7.200000e+01
        vertex -4.100000e+01 -2.329371e+00 7.119333e+01
        vertex -4.100000e+01 -8.881784e-16 7.150000e+01
    endloop
endfacet
facet normal 1.000000e+00 0.000000e+00 0.000000e+00
    outer loop
        vertex -4.100000e+01 -9.500000e+00 7.200000e+01
        vertex -4.100000e+01 -4.500000e+00 7.029423e+01
        vertex -4.100000e+01 -2.329371e+00 7.119333e+01
    endloop
endfacet
facet normal 1.000000e+00 0.000000e+00 0.000000e+00
    outer loop
        vertex -4.100000e+01 -9.500000e+00 7.200000e+01
        vertex -4.100000e+01 -6.363961e+00 6.886396e+01
        vertex -4.100000e+01 -4.500000e+00 7.029423e+01
    endloop
endfacet
facet normal 1.000000e+00 0.000000e+00 0.000000e+00
    outer loop
        vertex -4.100000e+01 -9.500000e+00 7.200000e+01
        vertex -4.100000e+01 -7.794229e+00 6.700000e+01
        vertex -4.100000e+01 -6.363961e+00 6.886396e+01
    endloop
endfacet
facet normal 1.000000e+00 0.000000e+00 0.000000e+00
    outer loop
        vertex -4.100000e+01 -9.500000e+00 7.200000e+01
        vertex -4.100000e+01 -8.693333e+00 6.482938e+01
        vertex -4.100000e+01 -7.794229e+00 6.700000e+01
    endloop
endfacet
facet normal 1.000000e+00 0.000000e+00 0.000000e+00
    outer loop
        vertex -4.100000e+01 -9.500000e+00 7.200000e+01
        vertex -4.100000e+01 -9.000000e+00 6.250000e+01
        vertex -4.100000e+01 -8.693333e+00 6.482938e+01
    endloop
endfacet
facet normal 1.000000e+00 -0.000000e+00 0.000000e+00
    outer loop
        vertex -4.100000e+01 9.000000e+00 6.250000e+01
        vertex -4.100000e+01 9.500000e+00 0.000000e+00
        vertex -4.100000e+01 9.500000e+00 7.200000e+01
    endloop
endfacet
facet normal 1.000000e+00 0.000000e+00 0.000000e+00
    outer loop
        vertex -4.100000e+01 -9.500000e+00 0.000000e+00
        vertex -4.100000e+01 -9.000000e+00 6.250000e+01
        vertex -4.100000e+01 -9.500000e+00 7.200000e+01
    endloop
endfacet
facet normal 1.000000e+00 -0.000000e+00 0.000000e+00
    outer loop
        vertex -4.100000e+01 8.693333e+00 6.017063e+01
        vertex -4.100000e+01 9.500000e+00 0.000000e+00
        vertex -4.100000e+01 9.000000e+00 6.250000e+01
    endloop
endfacet
facet normal 1.000000e+00 0.000000e+00 0.000000e+00
    outer loop
        vertex -4.100000e+01 -9.500000e+00 0.000000e+00
        vertex -4.100000e+01 9.500000e+00 0.000000e+00
        vertex -4.100000e+01 8.693333e+00 6.017063e+01
    endloop
endfacet
facet normal 1.000000e+00 0.000000e+00 0.000000e+00
    outer loop
        vertex -4.100000e+01 -9.500000e+00 0.000000e+00
        vertex -4.100000e+01 -8.693333e+00 6.017063e+01
        vertex -4.100000e+01 -9.000000e+00 6.250000e+01
    endloop
endfacet
facet normal 1.000000e+00 0.000000e+00 0.000000e+00
    outer loop
        vertex -4.100000e+01 -9.500000e+00 0.000000e+00
        vertex -4.100000e+01 -7.794229e+00 5.800000e+01
        vertex -4.100000e+01 -8.693333e+00 6.017063e+01
    endloop
endfacet
facet normal 1.000000e+00 0.000000e+00 0.000000e+00
    outer loop
        vertex -4.100000e+01 -9.500000e+00 0.000000e+00
        vertex -4.100000e+01 -6.363961e+00 5.613604e+01
        vertex -4.100000e+01 -7.794229e+00 5.800000e+01
    endloop
endfacet
facet normal 1.000000e+00 0.000000e+00 0.000000e+00
    outer loop
        vertex -4.100000e+01 -9.500000e+00 0.000000e+00
        vertex -4.100000e+01 -4.500000e+00 5.470577e+01
        vertex -4.100000e+01 -6.363961e+00 5.613604e+01
    endloop
endfacet
facet normal 1.000000e+00 0.000000e+00 0.000000e+00
    outer loop
        vertex -4.100000e+01 -9.500000e+00 0.000000e+00
        vertex -4.100000e+01 -2.329371e+00 5.380667e+01
        vertex -4.100000e+01 -4.500000e+00 5.470577e+01
    endloop
endfacet
facet normal 1.000000e+00 0.000000e+00 0.000000e+00
    outer loop
        vertex -4.100000e+01 -9.500000e+00 0.000000e+00
        vertex -4.100000e+01 -8.881784e-16 5.350000e+01
        vertex -4.100000e+01 -2.329371e+00 5.380667e+01
    endloop
endfacet
facet normal 1.000000e+00 0.000000e+00 0.000000e+00
    outer loop
        vertex -4.100000e+01 -9.500000e+00 0.000000e+00
        vertex -4.100000e+01 2.329371e+00 5.380667e+01
        vertex -4.100000e+01 -8.881784e-16 5.350000e+01
    endloop
endfacet
facet normal 1.000000e+00 0.000000e+00 0.000000e+00
    outer loop
        vertex -4.100000e+01 -9.500000e+00 0.000000e+00
        vertex -4.100000e+01 4.500000e+00 5.470577e+01
        vertex -4.100000e+01 2.329371e+00 5.380667e+01
    endloop
endfacet
facet normal 1.000000e+00 0.000000e+00 0.000000e+00
    outer loop
        vertex -4.100000e+01 -9.500000e+00 0.000000e+00
        vertex -4.100000e+01 6.363961e+00 5.613604e+01
        vertex -4.100000e+01 4.500000e+00 5.470577e+01
    endloop
endfacet
facet normal 1.000000e+00 0.000000e+00 0.000000e+00
    outer loop
        vertex -4.100000e+01 -9.500000e+00 0.000000e+00
        vertex -4.100000e+01 8.693333e+00 6.017063e+01
        vertex -4.100000e+01 7.794229e+00 5.800000e+01
    endloop
endfacet
facet normal 1.000000e+00 0.000000e+00 0.000000e+00
    outer loop
        vertex -4.100000e+01 -9.500000e+00 0.000000e+00
        vertex -4.100000e+01 7.794229e+00 5.800000e+01
        vertex -4.100000e+01 6.363961e+00 5.613604e+01
    endloop
endfacet
facet normal 1.000000e+00 -0.000000e+00 0.000000e+00
    outer loop
        vertex 4.265640e+01 4.500000e+00 7.029423e+01
        vertex 4.265640e+01 6.363961e+00 6.886396e+01
        vertex 4.265640e+01 1.091251e+01 7.404666e+01
    endloop
endfacet
facet normal 1.000000e+00 -0.000000e+00 0.000000e+00
    outer loop
        vertex 4.265640e+01 6.363961e+00 6.886396e+01
        vertex 4.265640e+01 7.794229e+00 6.700000e+01
        vertex 4.265640e+01 1.091251e+01 7.404666e+01
    endloop
endfacet
facet normal 1.000000e+00 -0.000000e+00 0.000000e+00
    outer loop
        vertex 4.265640e+01 2.329371e+00 7.119333e+01
        vertex 4.265640e+01 4.500000e+00 7.029423e+01
        vertex 4.265640e+01 1.091251e+01 7.404666e+01
    endloop
endfacet
facet normal 1.000000e+00 -0.000000e+00 0.000000e+00
    outer loop
        vertex 4.265640e+01 7.794229e+00 6.700000e+01
        vertex 4.265640e+01 8.693333e+00 6.482938e+01
        vertex 4.265640e+01 1.091251e+01 7.404666e+01
    endloop
endfacet
facet normal 1.000000e+00 -0.000000e+00 0.000000e+00
    outer loop
        vertex 4.265640e+01 -1.091251e+01 7.404666e+01
        vertex 4.265640e+01 2.329371e+00 7.119333e+01
        vertex 4.265640e+01 1.091251e+01 7.404666e+01
    endloop
endfacet
facet normal 1.000000e+00 -0.000000e+00 0.000000e+00
    outer loop
        vertex 4.265640e+01 8.693333e+00 6.482938e+01
        vertex 4.265640e+01 9.000000e+00 6.250000e+01
        vertex 4.265640e+01 1.091251e+01 7.404666e+01
    endloop
endfacet
facet normal 1.000000e+00 -0.000000e+00 0.000000e+00
    outer loop
        vertex 4.265640e+01 9.000000e+00 6.250000e+01
        vertex 4.265640e+01 1.091251e+01 9.000000e+00
        vertex 4.265640e+01 1.091251e+01 7.404666e+01
    endloop
endfacet
facet normal 1.000000e+00 0.000000e+00 0.000000e+00
    outer loop
        vertex 4.265640e+01 -1.091251e+01 7.404666e+01
        vertex 4.265640e+01 0.000000e+00 7.150000e+01
        vertex 4.265640e+01 2.329371e+00 7.119333e+01
    endloop
endfacet
facet normal 1.000000e+00 0.000000e+00 0.000000e+00
    outer loop
        vertex 4.265640e+01 -1.091251e+01 7.404666e+01
        vertex 4.265640e+01 -2.329371e+00 7.119333e+01
        vertex 4.265640e+01 0.000000e+00 7.150000e+01
    endloop
endfacet
facet normal 1.000000e+00 0.000000e+00 0.000000e+00
    outer loop
        vertex 4.265640e+01 -1.091251e+01 7.404666e+01
        vertex 4.265640e+01 -4.500000e+00 7.029423e+01
        vertex 4.265640e+01 -2.329371e+00 7.119333e+01
    endloop
endfacet
facet normal 1.000000e+00 0.000000e+00 0.000000e+00
    outer loop
        vertex 4.265640e+01 -1.091251e+01 7.404666e+01
        vertex 4.265640e+01 -6.363961e+00 6.886396e+01
        vertex 4.265640e+01 -4.500000e+00 7.029423e+01
    endloop
endfacet
facet normal 1.000000e+00 0.000000e+00 0.000000e+00
    outer loop
        vertex 4.265640e+01 -1.091251e+01 7.404666e+01
        vertex 4.265640e+01 -7.794229e+00 6.700000e+01
        vertex 4.265640e+01 -6.363961e+00 6.886396e+01
    endloop
endfacet
facet normal 1.000000e+00 0.000000e+00 0.000000e+00
    outer loop
        vertex 4.265640e+01 -1.091251e+01 7.404666e+01
        vertex 4.265640e+01 -8.693333e+00 6.482938e+01
        vertex 4.265640e+01 -7.794229e+00 6.700000e+01
    endloop
endfacet
facet normal 1.000000e+00 0.000000e+00 0.000000e+00
    outer loop
        vertex 4.265640e+01 -1.091251e+01 7.404666e+01
        vertex 4.265640e+01 -9.000000e+00 6.250000e+01
        vertex 4.265640e+01 -8.693333e+00 6.482938e+01
    endloop
endfacet
facet normal 1.000000e+00 0.000000e+00 0.000000e+00
    outer loop
        vertex 4.265640e+01 -1.091251e+01 9.000000e+00
        vertex 4.265640e+01 -9.000000e+00 6.250000e+01
        vertex 4.265640e+01 -1.091251e+01 7.404666e+01
    endloop
endfacet
facet normal 1.000000e+00 -0.000000e+00 0.000000e+00
    outer loop
        vertex 4.265640e+01 8.693333e+00 6.017063e+01
        vertex 4.265640e+01 1.091251e+01 9.000000e+00
        vertex 4.265640e+01 9.000000e+00 6.250000e+01
    endloop
endfacet
facet normal 1.000000e+00 0.000000e+00 0.000000e+00
    outer loop
        vertex 4.265640e+01 -1.091251e+01 9.000000e+00
        vertex 4.265640e+01 1.091251e+01 9.000000e+00
        vertex 4.265640e+01 8.693333e+00 6.017063e+01
    endloop
endfacet
facet normal 1.000000e+00 0.000000e+00 0.000000e+00
    outer loop
        vertex 4.265640e+01 -1.091251e+01 9.000000e+00
        vertex 4.265640e+01 -8.693333e+00 6.017063e+01
        vertex 4.265640e+01 -9.000000e+00 6.250000e+01
    endloop
endfacet
facet normal 1.000000e+00 0.000000e+00 0.000000e+00
    outer loop
        vertex 4.265640e+01 -1.091251e+01 9.000000e+00
        vertex 4.265640e+01 -7.794229e+00 5.800000e+01
        vertex 4.265640e+01 -8.693333e+00 6.017063e+01
    endloop
endfacet
facet normal 1.000000e+00 0.000000e+00 0.000000e+00
    outer loop
        vertex 4.265640e+01 -1.091251e+01 9.000000e+00
        vertex 4.265640e+01 -6.363961e+00 5.613604e+01
        vertex 4.265640e+01 -7.794229e+00 5.800000e+01
    endloop
endfacet
facet normal 1.000000e+00 0.000000e+00 0.000000e+00
    outer loop
        vertex 4.265640e+01 -1.091251e+01 9.000000e+00
        vertex 4.265640e+01 -4.500000e+00 5.470577e+01
        vertex 4.265640e+01 -6.363961e+00 5.613604e+01
    endloop
endfacet
facet normal 1.000000e+00 0.000000e+00 0.000000e+00
    outer loop
        vertex 4.265640e+01 -1.091251e+01 9.000000e+00
        vertex 4.265640e+01 -2.329371e+00 5.380667e+01
        vertex 4.265640e+01 -4.500000e+00 5.470577e+01
    endloop
endfacet
facet normal 1.000000e+00 0.000000e+00 0.000000e+00
    outer loop
        vertex 4.265640e+01 -1.091251e+01 9.000000e+00
        vertex 4.265640e+01 8.881784e-16 5.350000e+01
        vertex 4.265640e+01 -2.329371e+00 5.380667e+01
    endloop
endfacet
facet normal 1.000000e+00 0.000000e+00 0.000000e+00
    outer loop
        vertex 4.265640e+01 -1.091251e+01 9.000000e+00
        vertex 4.265640e+01 2.329371e+00 5.380667e+01
        vertex 4.265640e+01 8.881784e-16 5.350000e+01
    endloop
endfacet
facet normal 1.000000e+00 0.000000e+00 0.000000e+00
    outer loop
        vertex 4.265640e+01 -1.091251e+01 9.000000e+00
        vertex 4.265640e+01 4.500000e+00 5.470577e+01
        vertex 4.265640e+01 2.329371e+00 5.380667e+01
    endloop
endfacet
facet normal 1.000000e+00 0.000000e+00 0.000000e+00
    outer loop
        vertex 4.265640e+01 -1.091251e+01 9.000000e+00
        vertex 4.265640e+01 6.363961e+00 5.613604e+01
        vertex 4.265640e+01 4.500000e+00 5.470577e+01
    endloop
endfacet
facet normal 1.000000e+00 0.000000e+00 0.000000e+00
    outer loop
        vertex 4.265640e+01 -1.091251e+01 9.000000e+00
        vertex 4.265640e+01 8.693333e+00 6.017063e+01
        vertex 4.265640e+01 7.794229e+00 5.800000e+01
    endloop
endfacet
facet normal 1.000000e+00 0.000000e+00 0.000000e+00
    outer loop
        vertex 4.265640e+01 -1.091251e+01 9.000000e+00
        vertex 4.265640e+01 7.794229e+00 5.800000e+01
        vertex 4.265640e+01 6.363961e+00 5.613604e+01
    endloop
endfacet
facet normal -1.000000e+00 0.000000e+00 0.000000e+00
    outer loop
        vertex 4.100000e+01 6.363961e+00 6.886396e+01
        vertex 4.100000e+01 9.500000e+00 7.200000e+01
        vertex 4.100000e+01 7.794229e+00 6.700000e+01
    endloop
endfacet
facet normal -1.000000e+00 0.000000e+00 0.000000e+00
    outer loop
        vertex 4.100000e+01 4.500000e+00 7.029423e+01
        vertex 4.100000e+01 9.500000e+00 7.200000e+01
        vertex 4.100000e+01 6.363961e+00 6.886396e+01
    endloop
endfacet
facet normal -1.000000e+00 0.000000e+00 0.000000e+00
    outer loop
        vertex 4.100000e+01 7.794229e+00 6.700000e+01
        vertex 4.100000e+01 9.500000e+00 7.200000e+01
        vertex 4.100000e+01 8.693333e+00 6.482938e+01
    endloop
endfacet
facet normal -1.000000e+00 0.000000e+00 0.000000e+00
    outer loop
        vertex 4.100000e+01 2.329371e+00 7.119333e+01
        vertex 4.100000e+01 9.500000e+00 7.200000e+01
        vertex 4.100000e+01 4.500000e+00 7.029423e+01
    endloop
endfacet
facet normal -1.000000e+00 0.000000e+00 0.000000e+00
    outer loop
        vertex 4.100000e+01 0.000000e+00 7.150000e+01
        vertex 4.100000e+01 9.500000e+00 7.200000e+01
        vertex 4.100000e+01 2.329371e+00 7.119333e+01
    endloop
endfacet
facet normal -1.000000e+00 0.000000e+00 0.000000e+00
    outer loop
        vertex 4.100000e+01 8.693333e+00 6.482938e+01
        vertex 4.100000e+01 9.500000e+00 7.200000e+01
        vertex 4.100000e+01 9.000000e+00 6.250000e+01
    endloop
endfacet
facet normal -1.000000e+00 0.000000e+00 0.000000e+00
    outer loop
        vertex 4.100000e+01 -9.500000e+00 7.200000e+01
        vertex 4.100000e+01 9.500000e+00 7.200000e+01
        vertex 4.100000e+01 0.000000e+00 7.150000e+01
    endloop
endfacet
facet normal -1.000000e+00 0.000000e+00 0.000000e+00
    outer loop
        vertex 4.100000e+01 -9.500000e+00 7.200000e+01
        vertex 4.100000e+01 0.000000e+00 7.150000e+01
        vertex 4.100000e+01 -2.329371e+00 7.119333e+01
    endloop
endfacet
facet normal -1.000000e+00 0.000000e+00 0.000000e+00
    outer loop
        vertex 4.100000e+01 -9.500000e+00 7.200000e+01
        vertex 4.100000e+01 -2.329371e+00 7.119333e+01
        vertex 4.100000e+01 -4.500000e+00 7.029423e+01
    endloop
endfacet
facet normal -1.000000e+00 0.000000e+00 0.000000e+00
    outer loop
        vertex 4.100000e+01 -9.500000e+00 7.200000e+01
        vertex 4.100000e+01 -4.500000e+00 7.029423e+01
        vertex 4.100000e+01 -6.363961e+00 6.886396e+01
    endloop
endfacet
facet normal -1.000000e+00 0.000000e+00 0.000000e+00
    outer loop
        vertex 4.100000e+01 -9.500000e+00 7.200000e+01
        vertex 4.100000e+01 -6.363961e+00 6.886396e+01
        vertex 4.100000e+01 -7.794229e+00 6.700000e+01
    endloop
endfacet
facet normal -1.000000e+00 0.000000e+00 0.000000e+00
    outer loop
        vertex 4.100000e+01 -9.500000e+00 7.200000e+01
        vertex 4.100000e+01 -7.794229e+00 6.700000e+01
        vertex 4.100000e+01 -8.693333e+00 6.482938e+01
    endloop
endfacet
facet normal -1.000000e+00 0.000000e+00 0.000000e+00
    outer loop
        vertex 4.100000e+01 -9.500000e+00 7.200000e+01
        vertex 4.100000e+01 -8.693333e+00 6.482938e+01
        vertex 4.100000e+01 -9.000000e+00 6.250000e+01
    endloop
endfacet
facet normal -1.000000e+00 0.000000e+00 0.000000e+00
    outer loop
        vertex 4.100000e+01 -9.500000e+00 9.000000e+00
        vertex 4.100000e+01 -9.500000e+00 7.200000e+01
        vertex 4.100000e+01 -9.000000e+00 6.250000e+01
    endloop
endfacet
facet normal -1.000000e+00 0.000000e+00 0.000000e+00
    outer loop
        vertex 4.100000e+01 9.000000e+00 6.250000e+01
        vertex 4.100000e+01 9.500000e+00 7.200000e+01
        vertex 4.100000e+01 9.500000e+00 9.000000e+00
    endloop
endfacet
facet normal -1.000000e+00 0.000000e+00 0.000000e+00
    outer loop
        vertex 4.100000e+01 -9.500000e+00 9.000000e+00
        vertex 4.100000e+01 -9.000000e+00 6.250000e+01
        vertex 4.100000e+01 -8.693333e+00 6.017063e+01
    endloop
endfacet
facet normal -1.000000e+00 0.000000e+00 0.000000e+00
    outer loop
        vertex 4.100000e+01 -9.500000e+00 9.000000e+00
        vertex 4.100000e+01 -8.693333e+00 6.017063e+01
        vertex 4.100000e+01 9.500000e+00 9.000000e+00
    endloop
endfacet
facet normal -1.000000e+00 0.000000e+00 0.000000e+00
    outer loop
        vertex 4.100000e+01 8.693333e+00 6.017063e+01
        vertex 4.100000e+01 9.000000e+00 6.250000e+01
        vertex 4.100000e+01 9.500000e+00 9.000000e+00
    endloop
endfacet
facet normal -1.000000e+00 0.000000e+00 0.000000e+00
    outer loop
        vertex 4.100000e+01 7.794229e+00 5.800000e+01
        vertex 4.100000e+01 8.693333e+00 6.017063e+01
        vertex 4.100000e+01 9.500000e+00 9.000000e+00
    endloop
endfacet
facet normal -1.000000e+00 0.000000e+00 0.000000e+00
    outer loop
        vertex 4.100000e+01 6.363961e+00 5.613604e+01
        vertex 4.100000e+01 7.794229e+00 5.800000e+01
        vertex 4.100000e+01 9.500000e+00 9.000000e+00
    endloop
endfacet
facet normal -1.000000e+00 0.000000e+00 0.000000e+00
    outer loop
        vertex 4.100000e+01 4.500000e+00 5.470577e+01
        vertex 4.100000e+01 6.363961e+00 5.613604e+01
        vertex 4.100000e+01 9.500000e+00 9.000000e+00
    endloop
endfacet
facet normal -1.000000e+00 0.000000e+00 0.000000e+00
    outer loop
        vertex 4.100000e+01 2.329371e+00 5.380667e+01
        vertex 4.100000e+01 4.500000e+00 5.470577e+01
        vertex 4.100000e+01 9.500000e+00 9.000000e+00
    endloop
endfacet
facet normal -1.000000e+00 0.000000e+00 0.000000e+00
    outer loop
        vertex 4.100000e+01 0.000000e+00 5.350000e+01
        vertex 4.100000e+01 2.329371e+00 5.380667e+01
        vertex 4.100000e+01 9.500000e+00 9.000000e+00
    endloop
endfacet
facet normal -1.000000e+00 0.000000e+00 0.000000e+00
    outer loop
        vertex 4.100000e+01 -2.329371e+00 5.380667e+01
        vertex 4.100000e+01 0.000000e+00 5.350000e+01
        vertex 4.100000e+01 9.500000e+00 9.000000e+00
    endloop
endfacet
facet normal -1.000000e+00 0.000000e+00 0.000000e+00
    outer loop
        vertex 4.100000e+01 -4.500000e+00 5.470577e+01
        vertex 4.100000e+01 -2.329371e+00 5.380667e+01
        vertex 4.100000e+01 9.500000e+00 9.000000e+00
    endloop
endfacet
facet normal -1.000000e+00 0.000000e+00 0.000000e+00
    outer loop
        vertex 4.100000e+01 -6.363961e+00 5.613604e+01
        vertex 4.100000e+01 -4.500000e+00 5.470577e+01
        vertex 4.100000e+01 9.500000e+00 9.000000e+00
    endloop
endfacet
facet normal -1.000000e+00 0.000000e+00 0.000000e+00
    outer loop
        vertex 4.100000e+01 -8.693333e+00 6.017063e+01
        vertex 4.100000e+01 -7.794229e+00 5.800000e+01
        vertex 4.100000e+01 9.500000e+00 9.000000e+00
    endloop
endfacet
facet normal -1.000000e+00 0.000000e+00 0.000000e+00
    outer loop
        vertex 4.100000e+01 -7.794229e+00 5.800000e+01
        vertex 4.100000e+01 -6.363961e+00 5.613604e+01
        vertex 4.100000e+01 9.500000e+00 9.000000e+00
    endloop
endfacet
facet normal 0.000000e+00 -9.914449e-01 -1.305258e-01
    outer loop
        vertex -4.265640e+01 8.693333e+00 6.482938e+01
        vertex -4.265640e+01 9.000000e+00 6.250000e+01
        vertex -4.100000e+01 9.000000e+00 6.250000e+01
    endloop
endfacet
facet normal -0.000000e+00 -9.914449e-01 -1.305258e-01
    outer loop
        vertex -4.100000e+01 8.693333e+00 6.482938e+01
        vertex -4.265640e+01 8.693333e+00 6.482938e+01
        vertex -4.100000e+01 9.000000e+00 6.250000e+01
    endloop
endfacet
facet normal 0.000000e+00 -9.914449e-01 -1.305258e-01
    outer loop
        vertex 4.100000e+01 8.693333e+00 6.482938e+01
        vertex 4.265640e+01 9.000000e+00 6.250000e+01
        vertex 4.265640e+01 8.693333e+00 6.482938e+01
    endloop
endfacet
facet normal 0.000000e+00 -9.914449e-01 -1.305258e-01
    outer loop
        vertex 4.100000e+01 8.693333e+00 6.482938e+01
        vertex 4.100000e+01 9.000000e+00 6.250000e+01
        vertex 4.265640e+01 9.000000e+00 6.250000e+01
    endloop
endfacet
facet normal 0.000000e+00 -9.238792e-01 -3.826843e-01
    outer loop
        vertex -4.265640e+01 7.794229e+00 6.700000e+01
        vertex -4.265640e+01 8.693333e+00 6.482938e+01
        vertex -4.100000e+01 8.693333e+00 6.482938e+01
    endloop
endfacet
facet normal -0.000000e+00 -9.238792e-01 -3.826843e-01
    outer loop
        vertex -4.100000e+01 7.794229e+00 6.700000e+01
        vertex -4.265640e+01 7.794229e+00 6.700000e+01
        vertex -4.100000e+01 8.693333e+00 6.482938e+01
    endloop
endfacet
facet normal 0.000000e+00 -9.238792e-01 -3.826843e-01
    outer loop
        vertex 4.100000e+01 7.794229e+00 6.700000e+01
        vertex 4.265640e+01 8.693333e+00 6.482938e+01
        vertex 4.265640e+01 7.794229e+00 6.700000e+01
    endloop
endfacet
facet normal 0.000000e+00 -9.238792e-01 -3.826843e-01
    outer loop
        vertex 4.100000e+01 7.794229e+00 6.700000e+01
        vertex 4.100000e+01 8.693333e+00 6.482938e+01
        vertex 4.265640e+01 8.693333e+00 6.482938e+01
    endloop
endfacet
facet normal 0.000000e+00 -7.933532e-01 -6.087617e-01
    outer loop
        vertex -4.265640e+01 6.363961e+00 6.886396e+01
        vertex -4.265640e+01 7.794229e+00 6.700000e+01
        vertex -4.100000e+01 7.794229e+00 6.700000e+01
    endloop
endfacet
facet normal -0.000000e+00 -7.933532e-01 -6.087617e-01
    outer loop
        vertex -4.100000e+01 6.363961e+00 6.886396e+01
        vertex -4.265640e+01 6.363961e+00 6.886396e+01
        vertex -4.100000e+01 7.794229e+00 6.700000e+01
    endloop
endfacet
facet normal 0.000000e+00 -7.933532e-01 -6.087617e-01
    outer loop
        vertex 4.100000e+01 6.363961e+00 6.886396e+01
        vertex 4.265640e+01 7.794229e+00 6.700000e+01
        vertex 4.265640e+01 6.363961e+00 6.886396e+01
    endloop
endfacet
facet normal 0.000000e+00 -7.933532e-01 -6.087617e-01
    outer loop
        vertex 4.100000e+01 6.363961e+00 6.886396e+01
        vertex 4.100000e+01 7.794229e+00 6.700000e+01
        vertex 4.265640e+01 7.794229e+00 6.700000e+01
    endloop
endfacet
facet normal 0.000000e+00 -6.087614e-01 -7.933534e-01
    outer loop
        vertex -4.265640e+01 4.500000e+00 7.029423e+01
        vertex -4.265640e+01 6.363961e+00 6.886396e+01
        vertex -4.100000e+01 6.363961e+00 6.886396e+01
    endloop
endfacet
facet normal -0.000000e+00 -6.087614e-01 -7.933534e-01
    outer loop
        vertex -4.100000e+01 4.500000e+00 7.029423e+01
        vertex -4.265640e+01 4.500000e+00 7.029423e+01
        vertex -4.100000e+01 6.363961e+00 6.886396e+01
    endloop
endfacet
facet normal 0.000000e+00 -6.087614e-01 -7.933534e-01
    outer loop
        vertex 4.100000e+01 4.500000e+00 7.029423e+01
        vertex 4.265640e+01 6.363961e+00 6.886396e+01
        vertex 4.265640e+01 4.500000e+00 7.029423e+01
    endloop
endfacet
facet normal 0.000000e+00 -6.087614e-01 -7.933534e-01
    outer loop
        vertex 4.100000e+01 4.500000e+00 7.029423e+01
        vertex 4.100000e+01 6.363961e+00 6.886396e+01
        vertex 4.265640e+01 6.363961e+00 6.886396e+01
    endloop
endfacet
facet normal 0.000000e+00 -3.826825e-01 -9.238799e-01
    outer loop
        vertex -4.265640e+01 2.329371e+00 7.119333e+01
        vertex -4.265640e+01 4.500000e+00 7.029423e+01
        vertex -4.100000e+01 4.500000e+00 7.029423e+01
    endloop
endfacet
facet normal -0.000000e+00 -3.826825e-01 -9.238799e-01
    outer loop
        vertex -4.100000e+01 2.329371e+00 7.119333e+01
        vertex -4.265640e+01 2.329371e+00 7.119333e+01
        vertex -4.100000e+01 4.500000e+00 7.029423e+01
    endloop
endfacet
facet normal 0.000000e+00 -3.826825e-01 -9.238799e-01
    outer loop
        vertex 4.100000e+01 2.329371e+00 7.119333e+01
        vertex 4.265640e+01 4.500000e+00 7.029423e+01
        vertex 4.265640e+01 2.329371e+00 7.119333e+01
    endloop
endfacet
facet normal 0.000000e+00 -3.826825e-01 -9.238799e-01
    outer loop
        vertex 4.100000e+01 2.329371e+00 7.119333e+01
        vertex 4.100000e+01 4.500000e+00 7.029423e+01
        vertex 4.265640e+01 4.500000e+00 7.029423e+01
    endloop
endfacet
facet normal 0.000000e+00 -1.305277e-01 -9.914446e-01
    outer loop
        vertex -4.265640e+01 1.776357e-15 7.150000e+01
        vertex -4.265640e+01 2.329371e+00 7.119333e+01
        vertex -4.100000e+01 2.329371e+00 7.119333e+01
    endloop
endfacet
facet normal -2.099709e-16 -1.305277e-01 -9.914446e-01
    outer loop
        vertex -4.100000e+01 -8.881784e-16 7.150000e+01
        vertex -4.265640e+01 1.776357e-15 7.150000e+01
        vertex -4.100000e+01 2.329371e+00 7.119333e+01
    endloop
endfacet
facet normal 0.000000e+00 -1.305277e-01 -9.914446e-01
    outer loop
        vertex 4.100000e+01 0.000000e+00 7.150000e+01
        vertex 4.265640e+01 2.329371e+00 7.119333e+01
        vertex 4.265640e+01 0.000000e+00 7.150000e+01
    endloop
endfacet
facet normal 0.000000e+00 -1.305277e-01 -9.914446e-01
    outer loop
        vertex 4.100000e+01 0.000000e+00 7.150000e+01
        vertex 4.100000e+01 2.329371e+00 7.119333e+01
        vertex 4.265640e+01 2.329371e+00 7.119333e+01
    endloop
endfacet
facet normal 1.996977e-16 1.305277e-01 -9.914446e-01
    outer loop
        vertex -4.265640e+01 -2.329371e+00 7.119333e+01
        vertex -4.265640e+01 1.776357e-15 7.150000e+01
        vertex -4.100000e+01 -8.881784e-16 7.150000e+01
    endloop
endfacet
facet normal 0.000000e+00 1.305277e-01 -9.914446e-01
    outer loop
        vertex -4.100000e+01 -2.329371e+00 7.119333e+01
        vertex -4.265640e+01 -2.329371e+00 7.119333e+01
        vertex -4.100000e+01 -8.881784e-16 7.150000e+01
    endloop
endfacet
facet normal 0.000000e+00 1.305277e-01 -9.914446e-01
    outer loop
        vertex 4.100000e+01 -2.329371e+00 7.119333e+01
        vertex 4.265640e+01 0.000000e+00 7.150000e+01
        vertex 4.265640e+01 -2.329371e+00 7.119333e+01
    endloop
endfacet
facet normal 0.000000e+00 1.305277e-01 -9.914446e-01
    outer loop
        vertex 4.100000e+01 -2.329371e+00 7.119333e+01
        vertex 4.100000e+01 0.000000e+00 7.150000e+01
        vertex 4.265640e+01 0.000000e+00 7.150000e+01
    endloop
endfacet
facet normal 0.000000e+00 3.826825e-01 -9.238799e-01
    outer loop
        vertex -4.265640e+01 -4.500000e+00 7.029423e+01
        vertex -4.265640e+01 -2.329371e+00 7.119333e+01
        vertex -4.100000e+01 -2.329371e+00 7.119333e+01
    endloop
endfacet
facet normal 0.000000e+00 3.826825e-01 -9.238799e-01
    outer loop
        vertex -4.100000e+01 -4.500000e+00 7.029423e+01
        vertex -4.265640e+01 -4.500000e+00 7.029423e+01
        vertex -4.100000e+01 -2.329371e+00 7.119333e+01
    endloop
endfacet
facet normal 0.000000e+00 3.826825e-01 -9.238799e-01
    outer loop
        vertex 4.100000e+01 -4.500000e+00 7.029423e+01
        vertex 4.265640e+01 -2.329371e+00 7.119333e+01
        vertex 4.265640e+01 -4.500000e+00 7.029423e+01
    endloop
endfacet
facet normal 0.000000e+00 3.826825e-01 -9.238799e-01
    outer loop
        vertex 4.100000e+01 -4.500000e+00 7.029423e+01
        vertex 4.100000e+01 -2.329371e+00 7.119333e+01
        vertex 4.265640e+01 -2.329371e+00 7.119333e+01
    endloop
endfacet
facet normal 0.000000e+00 6.087614e-01 -7.933534e-01
    outer loop
        vertex -4.265640e+01 -6.363961e+00 6.886396e+01
        vertex -4.265640e+01 -4.500000e+00 7.029423e+01
        vertex -4.100000e+01 -4.500000e+00 7.029423e+01
    endloop
endfacet
facet normal 0.000000e+00 6.087614e-01 -7.933534e-01
    outer loop
        vertex -4.100000e+01 -6.363961e+00 6.886396e+01
        vertex -4.265640e+01 -6.363961e+00 6.886396e+01
        vertex -4.100000e+01 -4.500000e+00 7.029423e+01
    endloop
endfacet
facet normal 0.000000e+00 6.087614e-01 -7.933534e-01
    outer loop
        vertex 4.100000e+01 -6.363961e+00 6.886396e+01
        vertex 4.265640e+01 -4.500000e+00 7.029423e+01
        vertex 4.265640e+01 -6.363961e+00 6.886396e+01
    endloop
endfacet
facet normal 0.000000e+00 6.087614e-01 -7.933534e-01
    outer loop
        vertex 4.100000e+01 -6.363961e+00 6.886396e+01
        vertex 4.100000e+01 -4.500000e+00 7.029423e+01
        vertex 4.265640e+01 -4.500000e+00 7.029423e+01
    endloop
endfacet
facet normal 0.000000e+00 7.933532e-01 -6.087617e-01
    outer loop
        vertex -4.265640e+01 -7.794229e+00 6.700000e+01
        vertex -4.265640e+01 -6.363961e+00 6.886396e+01
        vertex -4.100000e+01 -6.363961e+00 6.886396e+01
    endloop
endfacet
facet normal 0.000000e+00 7.933532e-01 -6.087617e-01
    outer loop
        vertex -4.100000e+01 -7.794229e+00 6.700000e+01
        vertex -4.265640e+01 -7.794229e+00 6.700000e+01
        vertex -4.100000e+01 -6.363961e+00 6.886396e+01
    endloop
endfacet
facet normal 0.000000e+00 7.933532e-01 -6.087617e-01
    outer loop
        vertex 4.100000e+01 -7.794229e+00 6.700000e+01
        vertex 4.265640e+01 -6.363961e+00 6.886396e+01
        vertex 4.265640e+01 -7.794229e+00 6.700000e+01
    endloop
endfacet
facet normal 0.000000e+00 7.933532e-01 -6.087617e-01
    outer loop
        vertex 4.100000e+01 -7.794229e+00 6.700000e+01
        vertex 4.100000e+01 -6.363961e+00 6.886396e+01
        vertex 4.265640e+01 -6.363961e+00 6.886396e+01
    endloop
endfacet
facet normal 0.000000e+00 9.238792e-01 -3.826843e-01
    outer loop
        vertex -4.265640e+01 -8.693333e+00 6.482938e+01
        vertex -4.265640e+01 -7.794229e+00 6.700000e+01
        vertex -4.100000e+01 -7.794229e+00 6.700000e+01
    endloop
endfacet
facet normal 0.000000e+00 9.238792e-01 -3.826843e-01
    outer loop
        vertex -4.100000e+01 -8.693333e+00 6.482938e+01
        vertex -4.265640e+01 -8.693333e+00 6.482938e+01
        vertex -4.100000e+01 -7.794229e+00 6.700000e+01
    endloop
endfacet
facet normal 0.000000e+00 9.238792e-01 -3.826843e-01
    outer loop
        vertex 4.100000e+01 -8.693333e+00 6.482938e+01
        vertex 4.265640e+01 -7.794229e+00 6.700000e+01
        vertex 4.265640e+01 -8.693333e+00 6.482938e+01
    endloop
endfacet
facet normal 0.000000e+00 9.238792e-01 -3.826843e-01
    outer loop
        vertex 4.100000e+01 -8.693333e+00 6.482938e+01
        vertex 4.100000e+01 -7.794229e+00 6.700000e+01
        vertex 4.265640e+01 -7.794229e+00 6.700000e+01
    endloop
endfacet
facet normal 0.000000e+00 9.914449e-01 -1.305258e-01
    outer loop
        vertex -4.265640e+01 -9.000000e+00 6.250000e+01
        vertex -4.265640e+01 -8.693333e+00 6.482938e+01
        vertex -4.100000e+01 -8.693333e+00 6.482938e+01
    endloop
endfacet
facet normal 0.000000e+00 9.914449e-01 -1.305258e-01
    outer loop
        vertex -4.100000e+01 -9.000000e+00 6.250000e+01
        vertex -4.265640e+01 -9.000000e+00 6.250000e+01
        vertex -4.100000e+01 -8.693333e+00 6.482938e+01
    endloop
endfacet
facet normal 0.000000e+00 9.914449e-01 -1.305258e-01
    outer loop
        vertex 4.100000e+01 -9.000000e+00 6.250000e+01
        vertex 4.265640e+01 -8.693333e+00 6.482938e+01
        vertex 4.265640e+01 -9.000000e+00 6.250000e+01
    endloop
endfacet
facet normal 0.000000e+00 9.914449e-01 -1.305258e-01
    outer loop
        vertex 4.100000e+01 -9.000000e+00 6.250000e+01
        vertex 4.100000e+01 -8.693333e+00 6.482938e+01
        vertex 4.265640e+01 -8.693333e+00 6.482938e+01
    endloop
endfacet
facet normal 0.000000e+00 9.914449e-01 1.305260e-01
    outer loop
        vertex -4.100000e+01 -9.000000e+00 6.250000e+01
        vertex -4.265640e+01 -8.693333e+00 6.017063e+01
        vertex -4.265640e+01 -9.000000e+00 6.250000e+01
    endloop
endfacet
facet normal 0.000000e+00 9.914449e-01 1.305260e-01
    outer loop
        vertex -4.100000e+01 -9.000000e+00 6.250000e+01
        vertex -4.100000e+01 -8.693333e+00 6.017063e+01
        vertex -4.265640e+01 -8.693333e+00 6.017063e+01
    endloop
endfacet
facet normal 0.000000e+00 9.914449e-01 1.305260e-01
    outer loop
        vertex 4.265640e+01 -9.000000e+00 6.250000e+01
        vertex 4.265640e+01 -8.693333e+00 6.017063e+01
        vertex 4.100000e+01 -8.693333e+00 6.017063e+01
    endloop
endfacet
facet normal -0.000000e+00 9.914449e-01 1.305260e-01
    outer loop
        vertex 4.100000e+01 -9.000000e+00 6.250000e+01
        vertex 4.265640e+01 -9.000000e+00 6.250000e+01
        vertex 4.100000e+01 -8.693333e+00 6.017063e+01
    endloop
endfacet
facet normal 0.000000e+00 9.238794e-01 3.826837e-01
    outer loop
        vertex -4.100000e+01 -8.693333e+00 6.017063e+01
        vertex -4.265640e+01 -7.794229e+00 5.800000e+01
        vertex -4.265640e+01 -8.693333e+00 6.017063e+01
    endloop
endfacet
facet normal 0.000000e+00 9.238794e-01 3.826837e-01
    outer loop
        vertex -4.100000e+01 -8.693333e+00 6.017063e+01
        vertex -4.100000e+01 -7.794229e+00 5.800000e+01
        vertex -4.265640e+01 -7.794229e+00 5.800000e+01
    endloop
endfacet
facet normal 0.000000e+00 9.238794e-01 3.826837e-01
    outer loop
        vertex 4.265640e+01 -8.693333e+00 6.017063e+01
        vertex 4.265640e+01 -7.794229e+00 5.800000e+01
        vertex 4.100000e+01 -7.794229e+00 5.800000e+01
    endloop
endfacet
facet normal -0.000000e+00 9.238794e-01 3.826837e-01
    outer loop
        vertex 4.100000e+01 -8.693333e+00 6.017063e+01
        vertex 4.265640e+01 -8.693333e+00 6.017063e+01
        vertex 4.100000e+01 -7.794229e+00 5.800000e+01
    endloop
endfacet
facet normal 0.000000e+00 7.933532e-01 6.087617e-01
    outer loop
        vertex -4.100000e+01 -7.794229e+00 5.800000e+01
        vertex -4.265640e+01 -6.363961e+00 5.613604e+01
        vertex -4.265640e+01 -7.794229e+00 5.800000e+01
    endloop
endfacet
facet normal 0.000000e+00 7.933532e-01 6.087617e-01
    outer loop
        vertex -4.100000e+01 -7.794229e+00 5.800000e+01
        vertex -4.100000e+01 -6.363961e+00 5.613604e+01
        vertex -4.265640e+01 -6.363961e+00 5.613604e+01
    endloop
endfacet
facet normal 0.000000e+00 7.933532e-01 6.087617e-01
    outer loop
        vertex 4.265640e+01 -7.794229e+00 5.800000e+01
        vertex 4.265640e+01 -6.363961e+00 5.613604e+01
        vertex 4.100000e+01 -6.363961e+00 5.613604e+01
    endloop
endfacet
facet normal -0.000000e+00 7.933532e-01 6.087617e-01
    outer loop
        vertex 4.100000e+01 -7.794229e+00 5.800000e+01
        vertex 4.265640e+01 -7.794229e+00 5.800000e+01
        vertex 4.100000e+01 -6.363961e+00 5.613604e+01
    endloop
endfacet
facet normal 0.000000e+00 6.087614e-01 7.933534e-01
    outer loop
        vertex -4.100000e+01 -6.363961e+00 5.613604e+01
        vertex -4.265640e+01 -4.500000e+00 5.470577e+01
        vertex -4.265640e+01 -6.363961e+00 5.613604e+01
    endloop
endfacet
facet normal 0.000000e+00 6.087614e-01 7.933534e-01
    outer loop
        vertex -4.100000e+01 -6.363961e+00 5.613604e+01
        vertex -4.100000e+01 -4.500000e+00 5.470577e+01
        vertex -4.265640e+01 -4.500000e+00 5.470577e+01
    endloop
endfacet
facet normal 0.000000e+00 6.087614e-01 7.933534e-01
    outer loop
        vertex 4.265640e+01 -6.363961e+00 5.613604e+01
        vertex 4.265640e+01 -4.500000e+00 5.470577e+01
        vertex 4.100000e+01 -4.500000e+00 5.470577e+01
    endloop
endfacet
facet normal -0.000000e+00 6.087614e-01 7.933534e-01
    outer loop
        vertex 4.100000e+01 -6.363961e+00 5.613604e+01
        vertex 4.265640e+01 -6.363961e+00 5.613604e+01
        vertex 4.100000e+01 -4.500000e+00 5.470577e+01
    endloop
endfacet
facet normal 0.000000e+00 3.826839e-01 9.238793e-01
    outer loop
        vertex -4.100000e+01 -4.500000e+00 5.470577e+01
        vertex -4.265640e+01 -2.329371e+00 5.380667e+01
        vertex -4.265640e+01 -4.500000e+00 5.470577e+01
    endloop
endfacet
facet normal 0.000000e+00 3.826839e-01 9.238793e-01
    outer loop
        vertex -4.100000e+01 -4.500000e+00 5.470577e+01
        vertex -4.100000e+01 -2.329371e+00 5.380667e+01
        vertex -4.265640e+01 -2.329371e+00 5.380667e+01
    endloop
endfacet
facet normal 0.000000e+00 3.826839e-01 9.238793e-01
    outer loop
        vertex 4.265640e+01 -4.500000e+00 5.470577e+01
        vertex 4.265640e+01 -2.329371e+00 5.380667e+01
        vertex 4.100000e+01 -2.329371e+00 5.380667e+01
    endloop
endfacet
facet normal -0.000000e+00 3.826839e-01 9.238793e-01
    outer loop
        vertex 4.100000e+01 -4.500000e+00 5.470577e+01
        vertex 4.265640e+01 -4.500000e+00 5.470577e+01
        vertex 4.100000e+01 -2.329371e+00 5.380667e+01
    endloop
endfacet
facet normal 0.000000e+00 1.305261e-01 9.914449e-01
    outer loop
        vertex -4.100000e+01 -2.329371e+00 5.380667e+01
        vertex -4.100000e+01 -8.881784e-16 5.350000e+01
        vertex -4.265640e+01 -2.329371e+00 5.380667e+01
    endloop
endfacet
facet normal 1.141130e-16 1.305261e-01 9.914449e-01
    outer loop
        vertex -4.265640e+01 -2.329371e+00 5.380667e+01
        vertex -4.100000e+01 -8.881784e-16 5.350000e+01
        vertex -4.265640e+01 8.881784e-16 5.350000e+01
    endloop
endfacet
facet normal -5.705650e-17 1.305261e-01 9.914449e-01
    outer loop
        vertex 4.265640e+01 -2.329371e+00 5.380667e+01
        vertex 4.265640e+01 8.881784e-16 5.350000e+01
        vertex 4.100000e+01 0.000000e+00 5.350000e+01
    endloop
endfacet
facet normal -0.000000e+00 1.305261e-01 9.914449e-01
    outer loop
        vertex 4.100000e+01 -2.329371e+00 5.380667e+01
        vertex 4.265640e+01 -2.329371e+00 5.380667e+01
        vertex 4.100000e+01 0.000000e+00 5.350000e+01
    endloop
endfacet
facet normal -1.399789e-16 -1.305261e-01 9.914449e-01
    outer loop
        vertex -4.100000e+01 -8.881784e-16 5.350000e+01
        vertex -4.265640e+01 2.329371e+00 5.380667e+01
        vertex -4.265640e+01 8.881784e-16 5.350000e+01
    endloop
endfacet
facet normal 0.000000e+00 -1.305261e-01 9.914449e-01
    outer loop
        vertex -4.100000e+01 -8.881784e-16 5.350000e+01
        vertex -4.100000e+01 2.329371e+00 5.380667e+01
        vertex -4.265640e+01 2.329371e+00 5.380667e+01
    endloop
endfacet
facet normal 0.000000e+00 -1.305261e-01 9.914449e-01
    outer loop
        vertex 4.265640e+01 8.881784e-16 5.350000e+01
        vertex 4.265640e+01 2.329371e+00 5.380667e+01
        vertex 4.100000e+01 2.329371e+00 5.380667e+01
    endloop
endfacet
facet normal 6.998946e-17 -1.305261e-01 9.914449e-01
    outer loop
        vertex 4.100000e+01 0.000000e+00 5.350000e+01
        vertex 4.265640e+01 8.881784e-16 5.350000e+01
        vertex 4.100000e+01 2.329371e+00 5.380667e+01
    endloop
endfacet
facet normal 0.000000e+00 -3.826839e-01 9.238793e-01
    outer loop
        vertex -4.100000e+01 2.329371e+00 5.380667e+01
        vertex -4.265640e+01 4.500000e+00 5.470577e+01
        vertex -4.265640e+01 2.329371e+00 5.380667e+01
    endloop
endfacet
facet normal 0.000000e+00 -3.826839e-01 9.238793e-01
    outer loop
        vertex -4.100000e+01 2.329371e+00 5.380667e+01
        vertex -4.100000e+01 4.500000e+00 5.470577e+01
        vertex -4.265640e+01 4.500000e+00 5.470577e+01
    endloop
endfacet
facet normal 0.000000e+00 -3.826839e-01 9.238793e-01
    outer loop
        vertex 4.265640e+01 2.329371e+00 5.380667e+01
        vertex 4.265640e+01 4.500000e+00 5.470577e+01
        vertex 4.100000e+01 4.500000e+00 5.470577e+01
    endloop
endfacet
facet normal 0.000000e+00 -3.826839e-01 9.238793e-01
    outer loop
        vertex 4.100000e+01 2.329371e+00 5.380667e+01
        vertex 4.265640e+01 2.329371e+00 5.380667e+01
        vertex 4.100000e+01 4.500000e+00 5.470577e+01
    endloop
endfacet
facet normal 0.000000e+00 -6.087614e-01 7.933534e-01
    outer loop
        vertex -4.100000e+01 4.500000e+00 5.470577e+01
        vertex -4.265640e+01 6.363961e+00 5.613604e+01
        vertex -4.265640e+01 4.500000e+00 5.470577e+01
    endloop
endfacet
facet normal 0.000000e+00 -6.087614e-01 7.933534e-01
    outer loop
        vertex -4.100000e+01 4.500000e+00 5.470577e+01
        vertex -4.100000e+01 6.363961e+00 5.613604e+01
        vertex -4.265640e+01 6.363961e+00 5.613604e+01
    endloop
endfacet
facet normal 0.000000e+00 -6.087614e-01 7.933534e-01
    outer loop
        vertex 4.265640e+01 4.500000e+00 5.470577e+01
        vertex 4.265640e+01 6.363961e+00 5.613604e+01
        vertex 4.100000e+01 6.363961e+00 5.613604e+01
    endloop
endfacet
facet normal 0.000000e+00 -6.087614e-01 7.933534e-01
    outer loop
        vertex 4.100000e+01 4.500000e+00 5.470577e+01
        vertex 4.265640e+01 4.500000e+00 5.470577e+01
        vertex 4.100000e+01 6.363961e+00 5.613604e+01
    endloop
endfacet
facet normal 0.000000e+00 -7.933532e-01 6.087617e-01
    outer loop
        vertex -4.100000e+01 6.363961e+00 5.613604e+01
        vertex -4.265640e+01 7.794229e+00 5.800000e+01
        vertex -4.265640e+01 6.363961e+00 5.613604e+01
    endloop
endfacet
facet normal 0.000000e+00 -7.933532e-01 6.087617e-01
    outer loop
        vertex -4.100000e+01 6.363961e+00 5.613604e+01
        vertex -4.100000e+01 7.794229e+00 5.800000e+01
        vertex -4.265640e+01 7.794229e+00 5.800000e+01
    endloop
endfacet
facet normal 0.000000e+00 -7.933532e-01 6.087617e-01
    outer loop
        vertex 4.265640e+01 6.363961e+00 5.613604e+01
        vertex 4.265640e+01 7.794229e+00 5.800000e+01
        vertex 4.100000e+01 7.794229e+00 5.800000e+01
    endloop
endfacet
facet normal 0.000000e+00 -7.933532e-01 6.087617e-01
    outer loop
        vertex 4.100000e+01 6.363961e+00 5.613604e+01
        vertex 4.265640e+01 6.363961e+00 5.613604e+01
        vertex 4.100000e+01 7.794229e+00 5.800000e+01
    endloop
endfacet
facet normal 0.000000e+00 -9.238794e-01 3.826837e-01
    outer loop
        vertex -4.100000e+01 7.794229e+00 5.800000e+01
        vertex -4.265640e+01 8.693333e+00 6.017063e+01
        vertex -4.265640e+01 7.794229e+00 5.800000e+01
    endloop
endfacet
facet normal 0.000000e+00 -9.238794e-01 3.826837e-01
    outer loop
        vertex -4.100000e+01 7.794229e+00 5.800000e+01
        vertex -4.100000e+01 8.693333e+00 6.017063e+01
        vertex -4.265640e+01 8.693333e+00 6.017063e+01
    endloop
endfacet
facet normal 0.000000e+00 -9.238794e-01 3.826837e-01
    outer loop
        vertex 4.265640e+01 7.794229e+00 5.800000e+01
        vertex 4.265640e+01 8.693333e+00 6.017063e+01
        vertex 4.100000e+01 8.693333e+00 6.017063e+01
    endloop
endfacet
facet normal 0.000000e+00 -9.238794e-01 3.826837e-01
    outer loop
        vertex 4.100000e+01 7.794229e+00 5.800000e+01
        vertex 4.265640e+01 7.794229e+00 5.800000e+01
        vertex 4.100000e+01 8.693333e+00 6.017063e+01
    endloop
endfacet
facet normal 0.000000e+00 -9.914449e-01 1.305260e-01
    outer loop
        vertex -4.100000e+01 8.693333e+00 6.017063e+01
        vertex -4.265640e+01 9.000000e+00 6.250000e+01
        vertex -4.265640e+01 8.693333e+00 6.017063e+01
    endloop
endfacet
facet normal 0.000000e+00 -9.914449e-01 1.305260e-01
    outer loop
        vertex -4.100000e+01 8.693333e+00 6.017063e+01
        vertex -4.100000e+01 9.000000e+00 6.250000e+01
        vertex -4.265640e+01 9.000000e+00 6.250000e+01
    endloop
endfacet
facet normal 0.000000e+00 -9.914449e-01 1.305260e-01
    outer loop
        vertex 4.265640e+01 8.693333e+00 6.017063e+01
        vertex 4.265640e+01 9.000000e+00 6.250000e+01
        vertex 4.100000e+01 9.000000e+00 6.250000e+01
    endloop
endfacet
facet normal 0.000000e+00 -9.914449e-01 1.305260e-01
    outer loop
        vertex 4.100000e+01 8.693333e+00 6.017063e+01
        vertex 4.265640e+01 8.693333e+00 6.017063e+01
        vertex 4.100000e+01 9.000000e+00 6.250000e+01
    endloop
endfacet
facet normal 0.000000e+00 -1.000000e+00 0.000000e+00
    outer loop
        vertex -2.871504e+01 -1.435857e+01 0.000000e+00
        vertex 2.871504e+01 -1.435857e+01 0.000000e+00
        vertex 2.871504e+01 -1.435857e+01 7.404666e+01
    endloop
endfacet
facet normal 0.000000e+00 -1.000000e+00 0.000000e+00
    outer loop
        vertex -2.871504e+01 -1.435857e+01 0.000000e+00
        vertex -1.500000e+00 -1.435857e+01 7.404666e+01
        vertex -2.871504e+01 -1.435857e+01 7.404666e+01
    endloop
endfacet
facet normal 0.000000e+00 -1.000000e+00 0.000000e+00
    outer loop
        vertex 1.500000e+00 -1.435857e+01 6.700000e+01
        vertex 2.871504e+01 -1.435857e+01 7.404666e+01
        vertex 1.500000e+00 -1.435857e+01 7.404666e+01
    endloop
endfacet
facet normal 0.000000e+00 -1.000000e+00 0.000000e+00
    outer loop
        vertex -2.871504e+01 -1.435857e+01 0.000000e+00
        vertex 2.871504e+01 -1.435857e+01 7.404666e+01
        vertex 1.500000e+00 -1.435857e+01 6.700000e+01
    endloop
endfacet
facet normal 0.000000e+00 -1.000000e+00 0.000000e+00
    outer loop
        vertex -2.871504e+01 -1.435857e+01 0.000000e+00
        vertex 1.500000e+00 -1.435857e+01 6.700000e+01
        vertex -1.500000e+00 -1.435857e+01 6.700000e+01
    endloop
endfacet
facet normal 0.000000e+00 -1.000000e+00 0.000000e+00
    outer loop
        vertex -2.871504e+01 -1.435857e+01 0.000000e+00
        vertex -1.500000e+00 -1.435857e+01 6.700000e+01
        vertex -1.500000e+00 -1.435857e+01 7.404666e+01
    endloop
endfacet
facet normal 0.000000e+00 0.000000e+00 1.000000e+00
    outer loop
        vertex -2.871504e+01 -1.435857e+01 7.404666e+01
        vertex -4.265640e+01 1.091251e+01 7.404666e+01
        vertex -4.265640e+01 -1.091251e+01 7.404666e+01
    endloop
endfacet
facet normal 0.000000e+00 -0.000000e+00 1.000000e+00
    outer loop
        vertex -2.871504e+01 -1.435857e+01 7.404666e+01
        vertex -2.871504e+01 1.435857e+01 7.404666e+01
        vertex -4.265640e+01 1.091251e+01 7.404666e+01
    endloop
endfacet
facet normal 0.000000e+00 0.000000e+00 1.000000e+00
    outer loop
        vertex -1.500000e+00 -1.435857e+01 7.404666e+01
        vertex -2.871504e+01 1.435857e+01 7.404666e+01
        vertex -2.871504e+01 -1.435857e+01 7.404666e+01
    endloop
endfacet
facet normal 0.000000e+00 0.000000e+00 1.000000e+00
    outer loop
        vertex 2.871504e+01 -1.435857e+01 7.404666e+01
        vertex 4.265640e+01 -1.091251e+01 7.404666e+01
        vertex 4.265640e+01 1.091251e+01 7.404666e+01
    endloop
endfacet
facet normal 0.000000e+00 0.000000e+00 1.000000e+00
    outer loop
        vertex 2.871504e+01 -1.435857e+01 7.404666e+01
        vertex 4.265640e+01 1.091251e+01 7.404666e+01
        vertex 2.871504e+01 1.435857e+01 7.404666e+01
    endloop
endfacet
facet normal 0.000000e+00 0.000000e+00 1.000000e+00
    outer loop
        vertex 1.500000e+00 -1.435857e+01 7.404666e+01
        vertex 2.871504e+01 -1.435857e+01 7.404666e+01
        vertex 2.871504e+01 1.435857e+01 7.404666e+01
    endloop
endfacet
facet normal 0.000000e+00 -0.000000e+00 1.000000e+00
    outer loop
        vertex -1.500000e+00 -1.435857e+01 7.404666e+01
        vertex -1.500000e+00 -8.500000e+00 7.404666e+01
        vertex -2.871504e+01 1.435857e+01 7.404666e+01
    endloop
endfacet
facet normal 0.000000e+00 -0.000000e+00 1.000000e+00
    outer loop
        vertex -1.500000e+00 -8.500000e+00 7.404666e+01
        vertex 2.871504e+01 1.435857e+01 7.404666e+01
        vertex -2.871504e+01 1.435857e+01 7.404666e+01
    endloop
endfacet
facet normal 0.000000e+00 0.000000e+00 1.000000e+00
    outer loop
        vertex -1.500000e+00 -8.500000e+00 7.404666e+01
        vertex 1.500000e+00 -8.500000e+00 7.404666e+01
        vertex 2.871504e+01 1.435857e+01 7.404666e+01
    endloop
endfacet
facet normal 0.000000e+00 0.000000e+00 1.000000e+00
    outer loop
        vertex 1.500000e+00 -1.435857e+01 7.404666e+01
        vertex 2.871504e+01 1.435857e+01 7.404666e+01
        vertex 1.500000e+00 -8.500000e+00 7.404666e+01
    endloop
endfacet
facet normal 0.000000e+00 0.000000e+00 -1.000000e+00
    outer loop
        vertex -4.100000e+01 -9.500000e+00 7.200000e+01
        vertex -4.100000e+01 9.500000e+00 7.200000e+01
        vertex -2.760000e+01 1.250000e+01 7.200000e+01
    endloop
endfacet
facet normal 0.000000e+00 0.000000e+00 -1.000000e+00
    outer loop
        vertex -2.760000e+01 -1.250000e+01 7.200000e+01
        vertex -4.100000e+01 -9.500000e+00 7.200000e+01
        vertex -2.760000e+01 1.250000e+01 7.200000e+01
    endloop
endfacet
facet normal 0.000000e+00 0.000000e+00 -1.000000e+00
    outer loop
        vertex -1.500000e+00 -1.250000e+01 7.200000e+01
        vertex -2.760000e+01 -1.250000e+01 7.200000e+01
        vertex -2.760000e+01 1.250000e+01 7.200000e+01
    endloop
endfacet
facet normal 0.000000e+00 0.000000e+00 -1.000000e+00
    outer loop
        vertex 4.100000e+01 -9.500000e+00 7.200000e+01
        vertex 2.760000e+01 1.250000e+01 7.200000e+01
        vertex 4.100000e+01 9.500000e+00 7.200000e+01
    endloop
endfacet
facet normal 0.000000e+00 0.000000e+00 -1.000000e+00
    outer loop
        vertex 2.760000e+01 -1.250000e+01 7.200000e+01
        vertex 2.760000e+01 1.250000e+01 7.200000e+01
        vertex 4.100000e+01 -9.500000e+00 7.200000e+01
    endloop
endfacet
facet normal 0.000000e+00 0.000000e+00 -1.000000e+00
    outer loop
        vertex 1.500000e+00 -1.250000e+01 7.200000e+01
        vertex 2.760000e+01 1.250000e+01 7.200000e+01
        vertex 2.760000e+01 -1.250000e+01 7.200000e+01
    endloop
endfacet
facet normal 0.000000e+00 0.000000e+00 -1.000000e+00
    outer loop
        vertex 1.500000e+00 -1.250000e+01 7.200000e+01
        vertex 1.500000e+00 -8.500000e+00 7.200000e+01
        vertex 2.760000e+01 1.250000e+01 7.200000e+01
    endloop
endfacet
facet normal 0.000000e+00 0.000000e+00 -1.000000e+00
    outer loop
        vertex 1.500000e+00 -8.500000e+00 7.200000e+01
        vertex -2.760000e+01 1.250000e+01 7.200000e+01
        vertex 2.760000e+01 1.250000e+01 7.200000e+01
    endloop
endfacet
facet normal 0.000000e+00 0.000000e+00 -1.000000e+00
    outer loop
        vertex 1.500000e+00 -8.500000e+00 7.200000e+01
        vertex -1.500000e+00 -8.500000e+00 7.200000e+01
        vertex -2.760000e+01 1.250000e+01 7.200000e+01
    endloop
endfacet
facet normal 0.000000e+00 0.000000e+00 -1.000000e+00
    outer loop
        vertex -1.500000e+00 -1.250000e+01 7.200000e+01
        vertex -2.760000e+01 1.250000e+01 7.200000e+01
        vertex -1.500000e+00 -8.500000e+00 7.200000e+01
    endloop
endfacet
facet normal 0.000000e+00 1.000000e+00 0.000000e+00
    outer loop
        vertex 2.760000e+01 -1.250000e+01 0.000000e+00
        vertex -2.760000e+01 -1.250000e+01 0.000000e+00
        vertex -2.760000e+01 -1.250000e+01 7.200000e+01
    endloop
endfacet
facet normal 0.000000e+00 1.000000e+00 -0.000000e+00
    outer loop
        vertex 2.760000e+01 -1.250000e+01 0.000000e+00
        vertex 1.500000e+00 -1.250000e+01 7.200000e+01
        vertex 2.760000e+01 -1.250000e+01 7.200000e+01
    endloop
endfacet
facet normal 0.000000e+00 1.000000e+00 -0.000000e+00
    outer loop
        vertex -1.500000e+00 -1.250000e+01 6.700000e+01
        vertex -2.760000e+01 -1.250000e+01 7.200000e+01
        vertex -1.500000e+00 -1.250000e+01 7.200000e+01
    endloop
endfacet
facet normal 0.000000e+00 1.000000e+00 0.000000e+00
    outer loop
        vertex 2.760000e+01 -1.250000e+01 0.000000e+00
        vertex -2.760000e+01 -1.250000e+01 7.200000e+01
        vertex -1.500000e+00 -1.250000e+01 6.700000e+01
    endloop
endfacet
facet normal 0.000000e+00 1.000000e+00 0.000000e+00
    outer loop
        vertex 2.760000e+01 -1.250000e+01 0.000000e+00
        vertex -1.500000e+00 -1.250000e+01 6.700000e+01
        vertex 1.500000e+00 -1.250000e+01 6.700000e+01
    endloop
endfacet
facet normal 0.000000e+00 1.000000e+00 0.000000e+00
    outer loop
        vertex 2.760000e+01 -1.250000e+01 0.000000e+00
        vertex 1.500000e+00 -1.250000e+01 6.700000e+01
        vertex 1.500000e+00 -1.250000e+01 7.200000e+01
    endloop
endfacet
facet normal 1.000000e+00 0.000000e+00 0.000000e+00
    outer loop
        vertex -1.500000e+00 -1.250000e+01 7.200000e+01
        vertex -1.500000e+00 -8.500000e+00 7.200000e+01
        vertex -1.500000e+00 -8.500000e+00 7.404666e+01
    endloop
endfacet
facet normal 1.000000e+00 0.000000e+00 0.000000e+00
    outer loop
        vertex -1.500000e+00 -1.435857e+01 6.700000e+01
        vertex -1.500000e+00 -1.250000e+01 6.700000e+01
        vertex -1.500000e+00 -1.250000e+01 7.200000e+01
    endloop
endfacet
facet normal 1.000000e+00 0.000000e+00 0.000000e+00
    outer loop
        vertex -1.500000e+00 -1.435857e+01 6.700000e+01
        vertex -1.500000e+00 -1.250000e+01 7.200000e+01
        vertex -1.500000e+00 -1.435857e+01 7.404666e+01
    endloop
endfacet
facet normal 1.000000e+00 -0.000000e+00 0.000000e+00
    outer loop
        vertex -1.500000e+00 -1.435857e+01 7.404666e+01
        vertex -1.500000e+00 -1.250000e+01 7.200000e+01
        vertex -1.500000e+00 -8.500000e+00 7.404666e+01
    endloop
endfacet
facet normal -1.000000e+00 0.000000e+00 0.000000e+00
    outer loop
        vertex 1.500000e+00 -1.250000e+01 7.200000e+01
        vertex 1.500000e+00 -8.500000e+00 7.404666e+01
        vertex 1.500000e+00 -8.500000e+00 7.200000e+01
    endloop
endfacet
facet normal -1.000000e+00 0.000000e+00 0.000000e+00
    outer loop
        vertex 1.500000e+00 -1.435857e+01 7.404666e+01
        vertex 1.500000e+00 -8.500000e+00 7.404666e+01
        vertex 1.500000e+00 -1.250000e+01 7.200000e+01
    endloop
endfacet
facet normal -1.000000e+00 0.000000e+00 0.000000e+00
    outer loop
        vertex 1.500000e+00 -1.435857e+01 6.700000e+01
        vertex 1.500000e+00 -1.435857e+01 7.404666e+01
        vertex 1.500000e+00 -1.250000e+01 7.200000e+01
    endloop
endfacet
facet normal -1.000000e+00 0.000000e+00 0.000000e+00
    outer loop
        vertex 1.500000e+00 -1.435857e+01 6.700000e+01
        vertex 1.500000e+00 -1.250000e+01 7.200000e+01
        vertex 1.500000e+00 -1.250000e+01 6.700000e+01
    endloop
endfacet
facet normal 0.000000e+00 0.000000e+00 1.000000e+00
    outer loop
        vertex -1.500000e+00 -1.435857e+01 6.700000e+01
        vertex 1.500000e+00 -1.435857e+01 6.700000e+01
        vertex 1.500000e+00 -1.250000e+01 6.700000e+01
    endloop
endfacet
facet normal 0.000000e+00 0.000000e+00 1.000000e+00
    outer loop
        vertex -1.500000e+00 -1.435857e+01 6.700000e+01
        vertex 1.500000e+00 -1.250000e+01 6.700000e+01
        vertex -1.500000e+00 -1.250000e+01 6.700000e+01
    endloop
endfacet
facet normal 0.000000e+00 -1.000000e+00 0.000000e+00
    outer loop
        vertex -1.500000e+00 -8.500000e+00 7.200000e+01
        vertex 1.500000e+00 -8.500000e+00 7.404666e+01
        vertex -1.500000e+00 -8.500000e+00 7.404666e+01
    endloop
endfacet
facet normal 0.000000e+00 -1.000000e+00 0.000000e+00
    outer loop
        vertex -1.500000e+00 -8.500000e+00 7.200000e+01
        vertex 1.500000e+00 -8.500000e+00 7.200000e+01
        vertex 1.500000e+00 -8.500000e+00 7.404666e+01
    endloop
endfacet
facet normal 0.000000e+00 0.000000e+00 -1.000000e+00
    outer loop
        vertex 2.350000e+01 -1.250000e+01 0.000000e+00
        vertex 2.350000e+01 -1.050000e+01 0.000000e+00
        vertex 2.750000e+01 -1.250000e+01 0.000000e+00
    endloop
endfacet
facet normal 0.000000e+00 0.000000e+00 -1.000000e+00
    outer loop
        vertex 2.750000e+01 -1.250000e+01 0.000000e+00
        vertex 2.350000e+01 -1.050000e+01 0.000000e+00
        vertex 2.750000e+01 -1.050000e+01 0.000000e+00
    endloop
endfacet
facet normal 0.000000e+00 -1.000000e+00 0.000000e+00
    outer loop
        vertex 2.350000e+01 -1.250000e+01 0.000000e+00
        vertex 2.750000e+01 -1.250000e+01 0.000000e+00
        vertex 2.350000e+01 -1.250000e+01 7.200000e+01
    endloop
endfacet
facet normal 0.000000e+00 -1.000000e+00 0.000000e+00
    outer loop
        vertex 2.750000e+01 -1.250000e+01 0.000000e+00
        vertex 2.750000e+01 -1.250000e+01 7.200000e+01
        vertex 2.350000e+01 -1.250000e+01 7.200000e+01
    endloop
endfacet
facet normal 1.000000e+00 0.000000e+00 0.000000e+00
    outer loop
        vertex 2.750000e+01 -1.250000e+01 0.000000e+00
        vertex 2.750000e+01 -1.050000e+01 0.000000e+00
        vertex 2.750000e+01 -1.250000e+01 7.200000e+01
    endloop
endfacet
facet normal 1.000000e+00 -0.000000e+00 0.000000e+00
    outer loop
        vertex 2.750000e+01 -1.250000e+01 7.200000e+01
        vertex 2.750000e+01 -1.050000e+01 0.000000e+00
        vertex 2.750000e+01 -1.050000e+01 7.200000e+01
    endloop
endfacet
facet normal 0.000000e+00 1.000000e+00 0.000000e+00
    outer loop
        vertex 2.350000e+01 -1.050000e+01 0.000000e+00
        vertex 2.350000e+01 -1.050000e+01 7.200000e+01
        vertex 2.750000e+01 -1.050000e+01 0.000000e+00
    endloop
endfacet
facet normal 0.000000e+00 1.000000e+00 -0.000000e+00
    outer loop
        vertex 2.750000e+01 -1.050000e+01 0.000000e+00
        vertex 2.350000e+01 -1.050000e+01 7.200000e+01
        vertex 2.750000e+01 -1.050000e+01 7.200000e+01
    endloop
endfacet
facet normal -1.000000e+00 0.000000e+00 0.000000e+00
    outer loop
        vertex 2.350000e+01 -1.250000e+01 0.000000e+00
        vertex 2.350000e+01 -1.250000e+01 7.200000e+01
        vertex 2.350000e+01 -1.050000e+01 0.000000e+00
    endloop
endfacet
facet normal -1.000000e+00 0.000000e+00 0.000000e+00
    outer loop
        vertex 2.350000e+01 -1.250000e+01 7.200000e+01
        vertex 2.350000e+01 -1.050000e+01 7.200000e+01
        vertex 2.350000e+01 -1.050000e+01 0.000000e+00
    endloop
endfacet
facet normal 0.000000e+00 0.000000e+00 1.000000e+00
    outer loop
        vertex 2.350000e+01 -1.250000e+01 7.200000e+01
        vertex 2.750000e+01 -1.250000e+01 7.200000e+01
        vertex 2.350000e+01 -1.050000e+01 7.200000e+01
    endloop
endfacet
facet normal 0.000000e+00 -0.000000e+00 1.000000e+00
    outer loop
        vertex 2.750000e+01 -1.250000e+01 7.200000e+01
        vertex 2.750000e+01 -1.050000e+01 7.200000e+01
        vertex 2.350000e+01 -1.050000e+01 7.200000e+01
    endloop
endfacet
facet normal 0.000000e+00 0.000000e+00 -1.000000e+00
    outer loop
        vertex 2.350000e+01 1.050000e+01 0.000000e+00
        vertex 2.350000e+01 1.250000e+01 0.000000e+00
        vertex 2.750000e+01 1.250000e+01 0.000000e+00
    endloop
endfacet
facet normal 0.000000e+00 0.000000e+00 -1.000000e+00
    outer loop
        vertex 2.350000e+01 1.050000e+01 0.000000e+00
        vertex 2.750000e+01 1.250000e+01 0.000000e+00
        vertex 2.750000e+01 1.050000e+01 0.000000e+00
    endloop
endfacet
facet normal 0.000000e+00 1.000000e+00 0.000000e+00
    outer loop
        vertex 2.350000e+01 1.250000e+01 0.000000e+00
        vertex 2.350000e+01 1.250000e+01 7.200000e+01
        vertex 2.750000e+01 1.250000e+01 0.000000e+00
    endloop
endfacet
facet normal 0.000000e+00 1.000000e+00 -0.000000e+00
    outer loop
        vertex 2.750000e+01 1.250000e+01 0.000000e+00
        vertex 2.350000e+01 1.250000e+01 7.200000e+01
        vertex 2.750000e+01 1.250000e+01 7.200000e+01
    endloop
endfacet
facet normal 1.000000e+00 0.000000e+00 0.000000e+00
    outer loop
        vertex 2.750000e+01 1.050000e+01 0.000000e+00
        vertex 2.750000e+01 1.250000e+01 0.000000e+00
        vertex 2.750000e+01 1.250000e+01 7.200000e+01
    endloop
endfacet
facet normal 1.000000e+00 0.000000e+00 0.000000e+00
    outer loop
        vertex 2.750000e+01 1.050000e+01 0.000000e+00
        vertex 2.750000e+01 1.250000e+01 7.200000e+01
        vertex 2.750000e+01 1.050000e+01 7.200000e+01
    endloop
endfacet
facet normal 0.000000e+00 -1.000000e+00 0.000000e+00
    outer loop
        vertex 2.350000e+01 1.050000e+01 0.000000e+00
        vertex 2.750000e+01 1.050000e+01 0.000000e+00
        vertex 2.350000e+01 1.050000e+01 7.200000e+01
    endloop
endfacet
facet normal 0.000000e+00 -1.000000e+00 0.000000e+00
    outer loop
        vertex 2.750000e+01 1.050000e+01 0.000000e+00
        vertex 2.750000e+01 1.050000e+01 7.200000e+01
        vertex 2.350000e+01 1.050000e+01 7.200000e+01
    endloop
endfacet
facet normal -1.000000e+00 0.000000e+00 0.000000e+00
    outer loop
        vertex 2.350000e+01 1.050000e+01 0.000000e+00
        vertex 2.350000e+01 1.250000e+01 7.200000e+01
        vertex 2.350000e+01 1.250000e+01 0.000000e+00
    endloop
endfacet
facet normal -1.000000e+00 0.000000e+00 0.000000e+00
    outer loop
        vertex 2.350000e+01 1.050000e+01 0.000000e+00
        vertex 2.350000e+01 1.050000e+01 7.200000e+01
        vertex 2.350000e+01 1.250000e+01 7.200000e+01
    endloop
endfacet
facet normal 0.000000e+00 0.000000e+00 1.000000e+00
    outer loop
        vertex 2.350000e+01 1.050000e+01 7.200000e+01
        vertex 2.750000e+01 1.250000e+01 7.200000e+01
        vertex 2.350000e+01 1.250000e+01 7.200000e+01
    endloop
endfacet
facet normal 0.000000e+00 0.000000e+00 1.000000e+00
    outer loop
        vertex 2.350000e+01 1.050000e+01 7.200000e+01
        vertex 2.750000e+01 1.050000e+01 7.200000e+01
        vertex 2.750000e+01 1.250000e+01 7.200000e+01
    endloop
endfacet
facet normal 0.000000e+00 0.000000e+00 -1.000000e+00
    outer loop
        vertex -2.600000e+01 -1.250000e+01 0.000000e+00
        vertex -2.750000e+01 -1.250000e+01 0.000000e+00
        vertex -2.600000e+01 -1.050000e+01 0.000000e+00
    endloop
endfacet
facet normal 0.000000e+00 0.000000e+00 -1.000000e+00
    outer loop
        vertex -2.750000e+01 -1.250000e+01 0.000000e+00
        vertex -2.750000e+01 -1.050000e+01 0.000000e+00
        vertex -2.600000e+01 -1.050000e+01 0.000000e+00
    endloop
endfacet
facet normal 0.000000e+00 -1.000000e+00 0.000000e+00
    outer loop
        vertex -2.600000e+01 -1.250000e+01 0.000000e+00
        vertex -2.600000e+01 -1.250000e+01 7.200000e+01
        vertex -2.750000e+01 -1.250000e+01 0.000000e+00
    endloop
endfacet
facet normal 0.000000e+00 -1.000000e+00 0.000000e+00
    outer loop
        vertex -2.750000e+01 -1.250000e+01 0.000000e+00
        vertex -2.600000e+01 -1.250000e+01 7.200000e+01
        vertex -2.750000e+01 -1.250000e+01 7.200000e+01
    endloop
endfacet
facet normal -1.000000e+00 0.000000e+00 0.000000e+00
    outer loop
        vertex -2.750000e+01 -1.250000e+01 0.000000e+00
        vertex -2.750000e+01 -1.250000e+01 7.200000e+01
        vertex -2.750000e+01 -1.050000e+01 0.000000e+00
    endloop
endfacet
facet normal -1.000000e+00 0.000000e+00 0.000000e+00
    outer loop
        vertex -2.750000e+01 -1.250000e+01 7.200000e+01
        vertex -2.750000e+01 -1.050000e+01 7.200000e+01
        vertex -2.750000e+01 -1.050000e+01 0.000000e+00
    endloop
endfacet
facet normal 0.000000e+00 1.000000e+00 -0.000000e+00
    outer loop
        vertex -2.600000e+01 -1.050000e+01 0.000000e+00
        vertex -2.750000e+01 -1.050000e+01 0.000000e+00
        vertex -2.600000e+01 -1.050000e+01 7.200000e+01
    endloop
endfacet
facet normal 0.000000e+00 1.000000e+00 0.000000e+00
    outer loop
        vertex -2.750000e+01 -1.050000e+01 0.000000e+00
        vertex -2.750000e+01 -1.050000e+01 7.200000e+01
        vertex -2.600000e+01 -1.050000e+01 7.200000e+01
    endloop
endfacet
facet normal 1.000000e+00 0.000000e+00 0.000000e+00
    outer loop
        vertex -2.600000e+01 -1.250000e+01 0.000000e+00
        vertex -2.600000e+01 -1.050000e+01 0.000000e+00
        vertex -2.600000e+01 -1.250000e+01 7.200000e+01
    endloop
endfacet
facet normal 1.000000e+00 -0.000000e+00 0.000000e+00
    outer loop
        vertex -2.600000e+01 -1.250000e+01 7.200000e+01
        vertex -2.600000e+01 -1.050000e+01 0.000000e+00
        vertex -2.600000e+01 -1.050000e+01 7.200000e+01
    endloop
endfacet
facet normal 0.000000e+00 -0.000000e+00 1.000000e+00
    outer loop
        vertex -2.600000e+01 -1.250000e+01 7.200000e+01
        vertex -2.600000e+01 -1.050000e+01 7.200000e+01
        vertex -2.750000e+01 -1.250000e+01 7.200000e+01
    endloop
endfacet
facet normal 0.000000e+00 0.000000e+00 1.000000e+00
    outer loop
        vertex -2.750000e+01 -1.250000e+01 7.200000e+01
        vertex -2.600000e+01 -1.050000e+01 7.200000e+01
        vertex -2.750000e+01 -1.050000e+01 7.200000e+01
    endloop
endfacet
facet normal 0.000000e+00 0.000000e+00 -1.000000e+00
    outer loop
        vertex -2.600000e+01 1.050000e+01 0.000000e+00
        vertex -2.750000e+01 1.250000e+01 0.000000e+00
        vertex -2.600000e+01 1.250000e+01 0.000000e+00
    endloop
endfacet
facet normal 0.000000e+00 0.000000e+00 -1.000000e+00
    outer loop
        vertex -2.600000e+01 1.050000e+01 0.000000e+00
        vertex -2.750000e+01 1.050000e+01 0.000000e+00
        vertex -2.750000e+01 1.250000e+01 0.000000e+00
    endloop
endfacet
facet normal 0.000000e+00 1.000000e+00 -0.000000e+00
    outer loop
        vertex -2.600000e+01 1.250000e+01 0.000000e+00
        vertex -2.750000e+01 1.250000e+01 0.000000e+00
        vertex -2.600000e+01 1.250000e+01 7.200000e+01
    endloop
endfacet
facet normal 0.000000e+00 1.000000e+00 0.000000e+00
    outer loop
        vertex -2.750000e+01 1.250000e+01 0.000000e+00
        vertex -2.750000e+01 1.250000e+01 7.200000e+01
        vertex -2.600000e+01 1.250000e+01 7.200000e+01
    endloop
endfacet
facet normal -1.000000e+00 0.000000e+00 0.000000e+00
    outer loop
        vertex -2.750000e+01 1.050000e+01 0.000000e+00
        vertex -2.750000e+01 1.250000e+01 7.200000e+01
        vertex -2.750000e+01 1.250000e+01 0.000000e+00
    endloop
endfacet
facet normal -1.000000e+00 0.000000e+00 0.000000e+00
    outer loop
        vertex -2.750000e+01 1.050000e+01 0.000000e+00
        vertex -2.750000e+01 1.050000e+01 7.200000e+01
        vertex -2.750000e+01 1.250000e+01 7.200000e+01
    endloop
endfacet
facet normal 0.000000e+00 -1.000000e+00 0.000000e+00
    outer loop
        vertex -2.600000e+01 1.050000e+01 0.000000e+00
        vertex -2.600000e+01 1.050000e+01 7.200000e+01
        vertex -2.750000e+01 1.050000e+01 0.000000e+00
    endloop
endfacet
facet normal 0.000000e+00 -1.000000e+00 0.000000e+00
    outer loop
        vertex -2.750000e+01 1.050000e+01 0.000000e+00
        vertex -2.600000e+01 1.050000e+01 7.200000e+01
        vertex -2.750000e+01 1.050000e+01 7.200000e+01
    endloop
endfacet
facet normal 1.000000e+00 0.000000e+00 0.000000e+00
    outer loop
        vertex -2.600000e+01 1.050000e+01 0.000000e+00
        vertex -2.600000e+01 1.250000e+01 0.000000e+00
        vertex -2.600000e+01 1.250000e+01 7.200000e+01
    endloop
endfacet
facet normal 1.000000e+00 0.000000e+00 0.000000e+00
    outer loop
        vertex -2.600000e+01 1.050000e+01 0.000000e+00
        vertex -2.600000e+01 1.250000e+01 7.200000e+01
        vertex -2.600000e+01 1.050000e+01 7.200000e+01
    endloop
endfacet
facet normal 0.000000e+00 -0.000000e+00 1.000000e+00
    outer loop
        vertex -2.600000e+01 1.050000e+01 7.200000e+01
        vertex -2.600000e+01 1.250000e+01 7.200000e+01
        vertex -2.750000e+01 1.250000e+01 7.200000e+01
    endloop
endfacet
facet normal 0.000000e+00 0.000000e+00 1.000000e+00
    outer loop
        vertex -2.600000e+01 1.050000e+01 7.200000e+01
        vertex -2.750000e+01 1.250000e+01 7.200000e+01
        vertex -2.750000e+01 1.050000e+01 7.200000e+01
    endloop
endfacet
endsolid mag-size-test.stl
