solid mag-catch.stl
facet normal 0.000000e+00 -1.000000e+00 0.000000e+00
    outer loop
        vertex 3.907648e+01 -1.700000e+01 1.468460e+01
        vertex 3.907648e+01 -1.700000e+01 1.571541e+01
        vertex 3.900863e+01 -1.700000e+01 1.520000e+01
    endloop
endfacet
facet normal 0.000000e+00 -1.000000e+00 0.000000e+00
    outer loop
        vertex 3.907648e+01 -1.700000e+01 1.468460e+01
        vertex 3.927542e+01 -1.700000e+01 1.619568e+01
        vertex 3.907648e+01 -1.700000e+01 1.571541e+01
    endloop
endfacet
facet normal 0.000000e+00 -1.000000e+00 0.000000e+00
    outer loop
        vertex 3.907648e+01 -1.700000e+01 1.468460e+01
        vertex 3.959189e+01 -1.700000e+01 1.660811e+01
        vertex 3.927542e+01 -1.700000e+01 1.619568e+01
    endloop
endfacet
facet normal 0.000000e+00 -1.000000e+00 0.000000e+00
    outer loop
        vertex 3.907648e+01 -1.700000e+01 1.468460e+01
        vertex 4.000431e+01 -1.700000e+01 1.692458e+01
        vertex 3.959189e+01 -1.700000e+01 1.660811e+01
    endloop
endfacet
facet normal 0.000000e+00 -1.000000e+00 0.000000e+00
    outer loop
        vertex 3.907648e+01 -1.700000e+01 1.468460e+01
        vertex 4.048459e+01 -1.700000e+01 1.712352e+01
        vertex 4.000431e+01 -1.700000e+01 1.692458e+01
    endloop
endfacet
facet normal 0.000000e+00 -1.000000e+00 0.000000e+00
    outer loop
        vertex 3.907648e+01 -1.700000e+01 1.468460e+01
        vertex 4.100000e+01 -1.700000e+01 1.719137e+01
        vertex 4.048459e+01 -1.700000e+01 1.712352e+01
    endloop
endfacet
facet normal 0.000000e+00 -1.000000e+00 0.000000e+00
    outer loop
        vertex 3.907648e+01 -1.700000e+01 1.468460e+01
        vertex 4.151541e+01 -1.700000e+01 1.712352e+01
        vertex 4.100000e+01 -1.700000e+01 1.719137e+01
    endloop
endfacet
facet normal 0.000000e+00 -1.000000e+00 0.000000e+00
    outer loop
        vertex 3.907648e+01 -1.700000e+01 1.468460e+01
        vertex 4.199569e+01 -1.700000e+01 1.692458e+01
        vertex 4.151541e+01 -1.700000e+01 1.712352e+01
    endloop
endfacet
facet normal 0.000000e+00 -1.000000e+00 0.000000e+00
    outer loop
        vertex 3.907648e+01 -1.700000e+01 1.468460e+01
        vertex 4.240811e+01 -1.700000e+01 1.660811e+01
        vertex 4.199569e+01 -1.700000e+01 1.692458e+01
    endloop
endfacet
facet normal 0.000000e+00 -1.000000e+00 0.000000e+00
    outer loop
        vertex 3.907648e+01 -1.700000e+01 1.468460e+01
        vertex 4.272458e+01 -1.700000e+01 1.619568e+01
        vertex 4.240811e+01 -1.700000e+01 1.660811e+01
    endloop
endfacet
facet normal 0.000000e+00 -1.000000e+00 0.000000e+00
    outer loop
        vertex 3.927542e+01 -1.700000e+01 1.420432e+01
        vertex 4.272458e+01 -1.700000e+01 1.619568e+01
        vertex 3.907648e+01 -1.700000e+01 1.468460e+01
    endloop
endfacet
facet normal 0.000000e+00 -1.000000e+00 0.000000e+00
    outer loop
        vertex 3.959189e+01 -1.700000e+01 1.379189e+01
        vertex 4.272458e+01 -1.700000e+01 1.619568e+01
        vertex 3.927542e+01 -1.700000e+01 1.420432e+01
    endloop
endfacet
facet normal 0.000000e+00 -1.000000e+00 0.000000e+00
    outer loop
        vertex 4.000431e+01 -1.700000e+01 1.347542e+01
        vertex 4.272458e+01 -1.700000e+01 1.619568e+01
        vertex 3.959189e+01 -1.700000e+01 1.379189e+01
    endloop
endfacet
facet normal 0.000000e+00 -1.000000e+00 0.000000e+00
    outer loop
        vertex 4.048459e+01 -1.700000e+01 1.327648e+01
        vertex 4.272458e+01 -1.700000e+01 1.619568e+01
        vertex 4.000431e+01 -1.700000e+01 1.347542e+01
    endloop
endfacet
facet normal 0.000000e+00 -1.000000e+00 0.000000e+00
    outer loop
        vertex 4.100000e+01 -1.700000e+01 1.320863e+01
        vertex 4.272458e+01 -1.700000e+01 1.619568e+01
        vertex 4.048459e+01 -1.700000e+01 1.327648e+01
    endloop
endfacet
facet normal 0.000000e+00 -1.000000e+00 0.000000e+00
    outer loop
        vertex 4.100000e+01 -1.700000e+01 1.320863e+01
        vertex 4.151541e+01 -1.700000e+01 1.327648e+01
        vertex 4.272458e+01 -1.700000e+01 1.619568e+01
    endloop
endfacet
facet normal 0.000000e+00 -1.000000e+00 0.000000e+00
    outer loop
        vertex 4.151541e+01 -1.700000e+01 1.327648e+01
        vertex 4.199569e+01 -1.700000e+01 1.347542e+01
        vertex 4.272458e+01 -1.700000e+01 1.619568e+01
    endloop
endfacet
facet normal 0.000000e+00 -1.000000e+00 0.000000e+00
    outer loop
        vertex 4.199569e+01 -1.700000e+01 1.347542e+01
        vertex 4.240811e+01 -1.700000e+01 1.379189e+01
        vertex 4.272458e+01 -1.700000e+01 1.619568e+01
    endloop
endfacet
facet normal 0.000000e+00 -1.000000e+00 0.000000e+00
    outer loop
        vertex 4.240811e+01 -1.700000e+01 1.379189e+01
        vertex 4.272458e+01 -1.700000e+01 1.420432e+01
        vertex 4.272458e+01 -1.700000e+01 1.619568e+01
    endloop
endfacet
facet normal 0.000000e+00 -1.000000e+00 0.000000e+00
    outer loop
        vertex 4.272458e+01 -1.700000e+01 1.420432e+01
        vertex 4.292352e+01 -1.700000e+01 1.571541e+01
        vertex 4.272458e+01 -1.700000e+01 1.619568e+01
    endloop
endfacet
facet normal 0.000000e+00 -1.000000e+00 0.000000e+00
    outer loop
        vertex 4.272458e+01 -1.700000e+01 1.420432e+01
        vertex 4.292352e+01 -1.700000e+01 1.468460e+01
        vertex 4.292352e+01 -1.700000e+01 1.571541e+01
    endloop
endfacet
facet normal 0.000000e+00 -1.000000e+00 0.000000e+00
    outer loop
        vertex 4.292352e+01 -1.700000e+01 1.468460e+01
        vertex 4.299137e+01 -1.700000e+01 1.520000e+01
        vertex 4.292352e+01 -1.700000e+01 1.571541e+01
    endloop
endfacet
facet normal 1.305258e-01 -0.000000e+00 9.914449e-01
    outer loop
        vertex 4.177646e+01 -1.600000e+01 1.809778e+01
        vertex 4.177646e+01 2.300000e+01 1.809778e+01
        vertex 4.100000e+01 -1.600000e+01 1.820000e+01
    endloop
endfacet
facet normal 1.305258e-01 -0.000000e+00 9.914449e-01
    outer loop
        vertex 4.100000e+01 -1.600000e+01 1.820000e+01
        vertex 4.177646e+01 2.300000e+01 1.809778e+01
        vertex 4.100000e+01 2.300000e+01 1.820000e+01
    endloop
endfacet
facet normal 3.826846e-01 -0.000000e+00 9.238790e-01
    outer loop
        vertex 4.250000e+01 -1.600000e+01 1.779808e+01
        vertex 4.250000e+01 2.300000e+01 1.779808e+01
        vertex 4.177646e+01 -1.600000e+01 1.809778e+01
    endloop
endfacet
facet normal 3.826846e-01 -0.000000e+00 9.238790e-01
    outer loop
        vertex 4.177646e+01 -1.600000e+01 1.809778e+01
        vertex 4.250000e+01 2.300000e+01 1.779808e+01
        vertex 4.177646e+01 2.300000e+01 1.809778e+01
    endloop
endfacet
facet normal 6.087633e-01 -0.000000e+00 7.933519e-01
    outer loop
        vertex 4.312132e+01 -1.600000e+01 1.732132e+01
        vertex 4.312132e+01 2.300000e+01 1.732132e+01
        vertex 4.250000e+01 -1.600000e+01 1.779808e+01
    endloop
endfacet
facet normal 6.087633e-01 -0.000000e+00 7.933519e-01
    outer loop
        vertex 4.250000e+01 -1.600000e+01 1.779808e+01
        vertex 4.312132e+01 2.300000e+01 1.732132e+01
        vertex 4.250000e+01 2.300000e+01 1.779808e+01
    endloop
endfacet
facet normal 7.933519e-01 -0.000000e+00 6.087633e-01
    outer loop
        vertex 4.359808e+01 -1.600000e+01 1.670000e+01
        vertex 4.359808e+01 2.300000e+01 1.670000e+01
        vertex 4.312132e+01 -1.600000e+01 1.732132e+01
    endloop
endfacet
facet normal 7.933519e-01 -0.000000e+00 6.087633e-01
    outer loop
        vertex 4.312132e+01 -1.600000e+01 1.732132e+01
        vertex 4.359808e+01 2.300000e+01 1.670000e+01
        vertex 4.312132e+01 2.300000e+01 1.732132e+01
    endloop
endfacet
facet normal 9.238794e-01 -0.000000e+00 3.826838e-01
    outer loop
        vertex 4.389778e+01 -1.600000e+01 1.597646e+01
        vertex 4.389778e+01 2.300000e+01 1.597646e+01
        vertex 4.359808e+01 -1.600000e+01 1.670000e+01
    endloop
endfacet
facet normal 9.238794e-01 -0.000000e+00 3.826838e-01
    outer loop
        vertex 4.359808e+01 -1.600000e+01 1.670000e+01
        vertex 4.389778e+01 2.300000e+01 1.597646e+01
        vertex 4.359808e+01 2.300000e+01 1.670000e+01
    endloop
endfacet
facet normal 9.914449e-01 -0.000000e+00 1.305260e-01
    outer loop
        vertex 4.400000e+01 -1.600000e+01 1.520000e+01
        vertex 4.400000e+01 2.300000e+01 1.520000e+01
        vertex 4.389778e+01 -1.600000e+01 1.597646e+01
    endloop
endfacet
facet normal 9.914449e-01 -0.000000e+00 1.305260e-01
    outer loop
        vertex 4.389778e+01 -1.600000e+01 1.597646e+01
        vertex 4.400000e+01 2.300000e+01 1.520000e+01
        vertex 4.389778e+01 2.300000e+01 1.597646e+01
    endloop
endfacet
facet normal 9.914449e-01 0.000000e+00 -1.305261e-01
    outer loop
        vertex 4.389778e+01 -1.600000e+01 1.442354e+01
        vertex 4.389778e+01 2.300000e+01 1.442354e+01
        vertex 4.400000e+01 -1.600000e+01 1.520000e+01
    endloop
endfacet
facet normal 9.914449e-01 0.000000e+00 -1.305261e-01
    outer loop
        vertex 4.400000e+01 -1.600000e+01 1.520000e+01
        vertex 4.389778e+01 2.300000e+01 1.442354e+01
        vertex 4.400000e+01 2.300000e+01 1.520000e+01
    endloop
endfacet
facet normal 9.238794e-01 0.000000e+00 -3.826838e-01
    outer loop
        vertex 4.359808e+01 -1.600000e+01 1.370000e+01
        vertex 4.359808e+01 2.300000e+01 1.370000e+01
        vertex 4.389778e+01 -1.600000e+01 1.442354e+01
    endloop
endfacet
facet normal 9.238794e-01 0.000000e+00 -3.826838e-01
    outer loop
        vertex 4.389778e+01 -1.600000e+01 1.442354e+01
        vertex 4.359808e+01 2.300000e+01 1.370000e+01
        vertex 4.389778e+01 2.300000e+01 1.442354e+01
    endloop
endfacet
facet normal 7.933524e-01 0.000000e+00 -6.087627e-01
    outer loop
        vertex 4.312132e+01 -1.600000e+01 1.307868e+01
        vertex 4.312132e+01 2.300000e+01 1.307868e+01
        vertex 4.359808e+01 -1.600000e+01 1.370000e+01
    endloop
endfacet
facet normal 7.933524e-01 0.000000e+00 -6.087627e-01
    outer loop
        vertex 4.359808e+01 -1.600000e+01 1.370000e+01
        vertex 4.312132e+01 2.300000e+01 1.307868e+01
        vertex 4.359808e+01 2.300000e+01 1.370000e+01
    endloop
endfacet
facet normal 6.087626e-01 0.000000e+00 -7.933525e-01
    outer loop
        vertex 4.250000e+01 -1.600000e+01 1.260192e+01
        vertex 4.250000e+01 2.300000e+01 1.260192e+01
        vertex 4.312132e+01 -1.600000e+01 1.307868e+01
    endloop
endfacet
facet normal 6.087626e-01 0.000000e+00 -7.933525e-01
    outer loop
        vertex 4.312132e+01 -1.600000e+01 1.307868e+01
        vertex 4.250000e+01 2.300000e+01 1.260192e+01
        vertex 4.312132e+01 2.300000e+01 1.307868e+01
    endloop
endfacet
facet normal 3.826846e-01 0.000000e+00 -9.238790e-01
    outer loop
        vertex 4.177646e+01 -1.600000e+01 1.230222e+01
        vertex 4.177646e+01 2.300000e+01 1.230222e+01
        vertex 4.250000e+01 -1.600000e+01 1.260192e+01
    endloop
endfacet
facet normal 3.826846e-01 0.000000e+00 -9.238790e-01
    outer loop
        vertex 4.250000e+01 -1.600000e+01 1.260192e+01
        vertex 4.177646e+01 2.300000e+01 1.230222e+01
        vertex 4.250000e+01 2.300000e+01 1.260192e+01
    endloop
endfacet
facet normal 1.305258e-01 0.000000e+00 -9.914449e-01
    outer loop
        vertex 4.100000e+01 -1.600000e+01 1.220000e+01
        vertex 4.100000e+01 2.300000e+01 1.220000e+01
        vertex 4.177646e+01 -1.600000e+01 1.230222e+01
    endloop
endfacet
facet normal 1.305258e-01 0.000000e+00 -9.914449e-01
    outer loop
        vertex 4.177646e+01 -1.600000e+01 1.230222e+01
        vertex 4.100000e+01 2.300000e+01 1.220000e+01
        vertex 4.177646e+01 2.300000e+01 1.230222e+01
    endloop
endfacet
facet normal -1.305258e-01 0.000000e+00 -9.914449e-01
    outer loop
        vertex 4.100000e+01 -1.600000e+01 1.220000e+01
        vertex 4.022354e+01 -1.600000e+01 1.230222e+01
        vertex 4.100000e+01 2.300000e+01 1.220000e+01
    endloop
endfacet
facet normal -1.305258e-01 0.000000e+00 -9.914449e-01
    outer loop
        vertex 4.022354e+01 -1.600000e+01 1.230222e+01
        vertex 4.022354e+01 2.300000e+01 1.230222e+01
        vertex 4.100000e+01 2.300000e+01 1.220000e+01
    endloop
endfacet
facet normal -3.826846e-01 0.000000e+00 -9.238790e-01
    outer loop
        vertex 4.022354e+01 -1.600000e+01 1.230222e+01
        vertex 3.950000e+01 -1.600000e+01 1.260192e+01
        vertex 4.022354e+01 2.300000e+01 1.230222e+01
    endloop
endfacet
facet normal -3.826846e-01 0.000000e+00 -9.238790e-01
    outer loop
        vertex 3.950000e+01 -1.600000e+01 1.260192e+01
        vertex 3.950000e+01 2.300000e+01 1.260192e+01
        vertex 4.022354e+01 2.300000e+01 1.230222e+01
    endloop
endfacet
facet normal -6.087626e-01 0.000000e+00 -7.933525e-01
    outer loop
        vertex 3.950000e+01 -1.600000e+01 1.260192e+01
        vertex 3.887868e+01 -1.600000e+01 1.307868e+01
        vertex 3.950000e+01 2.300000e+01 1.260192e+01
    endloop
endfacet
facet normal -6.087626e-01 0.000000e+00 -7.933525e-01
    outer loop
        vertex 3.887868e+01 -1.600000e+01 1.307868e+01
        vertex 3.887868e+01 2.300000e+01 1.307868e+01
        vertex 3.950000e+01 2.300000e+01 1.260192e+01
    endloop
endfacet
facet normal -6.087633e-01 0.000000e+00 7.933519e-01
    outer loop
        vertex 3.887868e+01 -1.600000e+01 1.732132e+01
        vertex 3.950000e+01 -1.600000e+01 1.779808e+01
        vertex 3.887868e+01 2.300000e+01 1.732132e+01
    endloop
endfacet
facet normal -6.087633e-01 0.000000e+00 7.933519e-01
    outer loop
        vertex 3.950000e+01 -1.600000e+01 1.779808e+01
        vertex 3.950000e+01 2.300000e+01 1.779808e+01
        vertex 3.887868e+01 2.300000e+01 1.732132e+01
    endloop
endfacet
facet normal -3.826846e-01 0.000000e+00 9.238790e-01
    outer loop
        vertex 3.950000e+01 -1.600000e+01 1.779808e+01
        vertex 4.022354e+01 -1.600000e+01 1.809778e+01
        vertex 3.950000e+01 2.300000e+01 1.779808e+01
    endloop
endfacet
facet normal -3.826846e-01 0.000000e+00 9.238790e-01
    outer loop
        vertex 4.022354e+01 -1.600000e+01 1.809778e+01
        vertex 4.022354e+01 2.300000e+01 1.809778e+01
        vertex 3.950000e+01 2.300000e+01 1.779808e+01
    endloop
endfacet
facet normal -1.305258e-01 0.000000e+00 9.914449e-01
    outer loop
        vertex 4.022354e+01 -1.600000e+01 1.809778e+01
        vertex 4.100000e+01 -1.600000e+01 1.820000e+01
        vertex 4.022354e+01 2.300000e+01 1.809778e+01
    endloop
endfacet
facet normal -1.305258e-01 0.000000e+00 9.914449e-01
    outer loop
        vertex 4.100000e+01 -1.600000e+01 1.820000e+01
        vertex 4.100000e+01 2.300000e+01 1.820000e+01
        vertex 4.022354e+01 2.300000e+01 1.809778e+01
    endloop
endfacet
facet normal 0.000000e+00 1.000000e+00 0.000000e+00
    outer loop
        vertex 4.292352e+01 2.400000e+01 1.468460e+01
        vertex 4.292352e+01 2.400000e+01 1.571541e+01
        vertex 4.299137e+01 2.400000e+01 1.520000e+01
    endloop
endfacet
facet normal 0.000000e+00 1.000000e+00 -0.000000e+00
    outer loop
        vertex 4.292352e+01 2.400000e+01 1.468460e+01
        vertex 4.272458e+01 2.400000e+01 1.619568e+01
        vertex 4.292352e+01 2.400000e+01 1.571541e+01
    endloop
endfacet
facet normal 0.000000e+00 1.000000e+00 0.000000e+00
    outer loop
        vertex 4.292352e+01 2.400000e+01 1.468460e+01
        vertex 4.240811e+01 2.400000e+01 1.660811e+01
        vertex 4.272458e+01 2.400000e+01 1.619568e+01
    endloop
endfacet
facet normal 0.000000e+00 1.000000e+00 0.000000e+00
    outer loop
        vertex 4.292352e+01 2.400000e+01 1.468460e+01
        vertex 4.199569e+01 2.400000e+01 1.692458e+01
        vertex 4.240811e+01 2.400000e+01 1.660811e+01
    endloop
endfacet
facet normal 0.000000e+00 1.000000e+00 0.000000e+00
    outer loop
        vertex 4.292352e+01 2.400000e+01 1.468460e+01
        vertex 4.151541e+01 2.400000e+01 1.712352e+01
        vertex 4.199569e+01 2.400000e+01 1.692458e+01
    endloop
endfacet
facet normal 0.000000e+00 1.000000e+00 0.000000e+00
    outer loop
        vertex 4.292352e+01 2.400000e+01 1.468460e+01
        vertex 4.100000e+01 2.400000e+01 1.719137e+01
        vertex 4.151541e+01 2.400000e+01 1.712352e+01
    endloop
endfacet
facet normal 0.000000e+00 1.000000e+00 0.000000e+00
    outer loop
        vertex 4.292352e+01 2.400000e+01 1.468460e+01
        vertex 4.048459e+01 2.400000e+01 1.712352e+01
        vertex 4.100000e+01 2.400000e+01 1.719137e+01
    endloop
endfacet
facet normal 0.000000e+00 1.000000e+00 0.000000e+00
    outer loop
        vertex 4.292352e+01 2.400000e+01 1.468460e+01
        vertex 4.000431e+01 2.400000e+01 1.692458e+01
        vertex 4.048459e+01 2.400000e+01 1.712352e+01
    endloop
endfacet
facet normal 0.000000e+00 1.000000e+00 0.000000e+00
    outer loop
        vertex 4.292352e+01 2.400000e+01 1.468460e+01
        vertex 3.959189e+01 2.400000e+01 1.660811e+01
        vertex 4.000431e+01 2.400000e+01 1.692458e+01
    endloop
endfacet
facet normal 0.000000e+00 1.000000e+00 0.000000e+00
    outer loop
        vertex 4.292352e+01 2.400000e+01 1.468460e+01
        vertex 3.927542e+01 2.400000e+01 1.619568e+01
        vertex 3.959189e+01 2.400000e+01 1.660811e+01
    endloop
endfacet
facet normal 0.000000e+00 1.000000e+00 -0.000000e+00
    outer loop
        vertex 4.272458e+01 2.400000e+01 1.420432e+01
        vertex 3.927542e+01 2.400000e+01 1.619568e+01
        vertex 4.292352e+01 2.400000e+01 1.468460e+01
    endloop
endfacet
facet normal 0.000000e+00 1.000000e+00 -0.000000e+00
    outer loop
        vertex 4.240811e+01 2.400000e+01 1.379189e+01
        vertex 3.927542e+01 2.400000e+01 1.619568e+01
        vertex 4.272458e+01 2.400000e+01 1.420432e+01
    endloop
endfacet
facet normal 0.000000e+00 1.000000e+00 -0.000000e+00
    outer loop
        vertex 4.199569e+01 2.400000e+01 1.347542e+01
        vertex 3.927542e+01 2.400000e+01 1.619568e+01
        vertex 4.240811e+01 2.400000e+01 1.379189e+01
    endloop
endfacet
facet normal 0.000000e+00 1.000000e+00 -0.000000e+00
    outer loop
        vertex 4.151541e+01 2.400000e+01 1.327648e+01
        vertex 3.927542e+01 2.400000e+01 1.619568e+01
        vertex 4.199569e+01 2.400000e+01 1.347542e+01
    endloop
endfacet
facet normal 0.000000e+00 1.000000e+00 -0.000000e+00
    outer loop
        vertex 4.100000e+01 2.400000e+01 1.320863e+01
        vertex 3.927542e+01 2.400000e+01 1.619568e+01
        vertex 4.151541e+01 2.400000e+01 1.327648e+01
    endloop
endfacet
facet normal 0.000000e+00 1.000000e+00 0.000000e+00
    outer loop
        vertex 4.100000e+01 2.400000e+01 1.320863e+01
        vertex 4.048459e+01 2.400000e+01 1.327648e+01
        vertex 3.927542e+01 2.400000e+01 1.619568e+01
    endloop
endfacet
facet normal 0.000000e+00 1.000000e+00 0.000000e+00
    outer loop
        vertex 4.048459e+01 2.400000e+01 1.327648e+01
        vertex 4.000431e+01 2.400000e+01 1.347542e+01
        vertex 3.927542e+01 2.400000e+01 1.619568e+01
    endloop
endfacet
facet normal 0.000000e+00 1.000000e+00 0.000000e+00
    outer loop
        vertex 4.000431e+01 2.400000e+01 1.347542e+01
        vertex 3.959189e+01 2.400000e+01 1.379189e+01
        vertex 3.927542e+01 2.400000e+01 1.619568e+01
    endloop
endfacet
facet normal 0.000000e+00 1.000000e+00 0.000000e+00
    outer loop
        vertex 3.959189e+01 2.400000e+01 1.379189e+01
        vertex 3.927542e+01 2.400000e+01 1.420432e+01
        vertex 3.927542e+01 2.400000e+01 1.619568e+01
    endloop
endfacet
facet normal 0.000000e+00 1.000000e+00 -0.000000e+00
    outer loop
        vertex 3.927542e+01 2.400000e+01 1.420432e+01
        vertex 3.907648e+01 2.400000e+01 1.571541e+01
        vertex 3.927542e+01 2.400000e+01 1.619568e+01
    endloop
endfacet
facet normal 0.000000e+00 1.000000e+00 0.000000e+00
    outer loop
        vertex 3.927542e+01 2.400000e+01 1.420432e+01
        vertex 3.907648e+01 2.400000e+01 1.468460e+01
        vertex 3.907648e+01 2.400000e+01 1.571541e+01
    endloop
endfacet
facet normal 0.000000e+00 1.000000e+00 -0.000000e+00
    outer loop
        vertex 3.907648e+01 2.400000e+01 1.468460e+01
        vertex 3.900863e+01 2.400000e+01 1.520000e+01
        vertex 3.907648e+01 2.400000e+01 1.571541e+01
    endloop
endfacet
facet normal -9.238794e-01 0.000000e+00 -3.826838e-01
    outer loop
        vertex 3.840192e+01 -1.600000e+01 1.370000e+01
        vertex 3.810222e+01 -1.600000e+01 1.442354e+01
        vertex 3.840192e+01 -1.550000e+01 1.370000e+01
    endloop
endfacet
facet normal -9.238794e-01 0.000000e+00 -3.826838e-01
    outer loop
        vertex 3.810222e+01 -1.600000e+01 1.442354e+01
        vertex 3.810222e+01 -1.550000e+01 1.442354e+01
        vertex 3.840192e+01 -1.550000e+01 1.370000e+01
    endloop
endfacet
facet normal -9.914449e-01 0.000000e+00 -1.305261e-01
    outer loop
        vertex 3.810222e+01 -1.600000e+01 1.442354e+01
        vertex 3.800000e+01 -1.600000e+01 1.520000e+01
        vertex 3.810222e+01 -1.550000e+01 1.442354e+01
    endloop
endfacet
facet normal -9.914449e-01 0.000000e+00 -1.305261e-01
    outer loop
        vertex 3.800000e+01 -1.600000e+01 1.520000e+01
        vertex 3.800000e+01 -1.550000e+01 1.520000e+01
        vertex 3.810222e+01 -1.550000e+01 1.442354e+01
    endloop
endfacet
facet normal -9.914449e-01 0.000000e+00 1.305260e-01
    outer loop
        vertex 3.800000e+01 -1.600000e+01 1.520000e+01
        vertex 3.810222e+01 -1.600000e+01 1.597646e+01
        vertex 3.800000e+01 -1.550000e+01 1.520000e+01
    endloop
endfacet
facet normal -9.914449e-01 0.000000e+00 1.305260e-01
    outer loop
        vertex 3.810222e+01 -1.600000e+01 1.597646e+01
        vertex 3.810222e+01 -1.550000e+01 1.597646e+01
        vertex 3.800000e+01 -1.550000e+01 1.520000e+01
    endloop
endfacet
facet normal -9.238794e-01 0.000000e+00 3.826838e-01
    outer loop
        vertex 3.810222e+01 -1.600000e+01 1.597646e+01
        vertex 3.840192e+01 -1.600000e+01 1.670000e+01
        vertex 3.810222e+01 -1.550000e+01 1.597646e+01
    endloop
endfacet
facet normal -9.238794e-01 0.000000e+00 3.826838e-01
    outer loop
        vertex 3.840192e+01 -1.600000e+01 1.670000e+01
        vertex 3.840192e+01 -1.550000e+01 1.670000e+01
        vertex 3.810222e+01 -1.550000e+01 1.597646e+01
    endloop
endfacet
facet normal -1.000000e+00 0.000000e+00 0.000000e+00
    outer loop
        vertex 3.400000e+01 -1.550000e+01 1.340000e+01
        vertex 3.400000e+01 -1.550000e+01 1.700000e+01
        vertex 3.400000e+01 -9.500000e+00 1.340000e+01
    endloop
endfacet
facet normal -1.000000e+00 0.000000e+00 0.000000e+00
    outer loop
        vertex 3.400000e+01 -1.550000e+01 1.700000e+01
        vertex 3.400000e+01 -8.500000e+00 1.700000e+01
        vertex 3.400000e+01 -9.500000e+00 1.340000e+01
    endloop
endfacet
facet normal 0.000000e+00 -1.000000e+00 0.000000e+00
    outer loop
        vertex 3.400000e+01 -1.550000e+01 1.340000e+01
        vertex 3.863212e+01 -1.550000e+01 1.700000e+01
        vertex 3.400000e+01 -1.550000e+01 1.700000e+01
    endloop
endfacet
facet normal 0.000000e+00 -1.000000e+00 0.000000e+00
    outer loop
        vertex 3.400000e+01 -1.550000e+01 1.340000e+01
        vertex 3.863212e+01 -1.550000e+01 1.340000e+01
        vertex 3.840192e+01 -1.550000e+01 1.370000e+01
    endloop
endfacet
facet normal 0.000000e+00 -1.000000e+00 0.000000e+00
    outer loop
        vertex 3.400000e+01 -1.550000e+01 1.340000e+01
        vertex 3.840192e+01 -1.550000e+01 1.370000e+01
        vertex 3.810222e+01 -1.550000e+01 1.442354e+01
    endloop
endfacet
facet normal 0.000000e+00 -1.000000e+00 0.000000e+00
    outer loop
        vertex 3.400000e+01 -1.550000e+01 1.340000e+01
        vertex 3.810222e+01 -1.550000e+01 1.442354e+01
        vertex 3.800000e+01 -1.550000e+01 1.520000e+01
    endloop
endfacet
facet normal 0.000000e+00 -1.000000e+00 0.000000e+00
    outer loop
        vertex 3.400000e+01 -1.550000e+01 1.340000e+01
        vertex 3.800000e+01 -1.550000e+01 1.520000e+01
        vertex 3.810222e+01 -1.550000e+01 1.597646e+01
    endloop
endfacet
facet normal 0.000000e+00 -1.000000e+00 0.000000e+00
    outer loop
        vertex 3.400000e+01 -1.550000e+01 1.340000e+01
        vertex 3.810222e+01 -1.550000e+01 1.597646e+01
        vertex 3.840192e+01 -1.550000e+01 1.670000e+01
    endloop
endfacet
facet normal 0.000000e+00 -1.000000e+00 0.000000e+00
    outer loop
        vertex 3.400000e+01 -1.550000e+01 1.340000e+01
        vertex 3.840192e+01 -1.550000e+01 1.670000e+01
        vertex 3.863212e+01 -1.550000e+01 1.700000e+01
    endloop
endfacet
facet normal 0.000000e+00 -0.000000e+00 1.000000e+00
    outer loop
        vertex 3.863212e+01 -1.550000e+01 1.700000e+01
        vertex 3.863212e+01 -7.173575e+00 1.700000e+01
        vertex 3.400000e+01 -8.500000e+00 1.700000e+01
    endloop
endfacet
facet normal 0.000000e+00 0.000000e+00 1.000000e+00
    outer loop
        vertex 3.400000e+01 -1.550000e+01 1.700000e+01
        vertex 3.863212e+01 -1.550000e+01 1.700000e+01
        vertex 3.400000e+01 -8.500000e+00 1.700000e+01
    endloop
endfacet
facet normal 0.000000e+00 0.000000e+00 -1.000000e+00
    outer loop
        vertex 3.400000e+01 -1.550000e+01 1.340000e+01
        vertex 3.400000e+01 -9.500000e+00 1.340000e+01
        vertex 3.863212e+01 -1.550000e+01 1.340000e+01
    endloop
endfacet
facet normal 0.000000e+00 0.000000e+00 -1.000000e+00
    outer loop
        vertex 3.863212e+01 -1.550000e+01 1.340000e+01
        vertex 3.400000e+01 -9.500000e+00 1.340000e+01
        vertex 3.863212e+01 -8.173575e+00 1.340000e+01
    endloop
endfacet
facet normal -2.659690e-01 9.288135e-01 -2.580037e-01
    outer loop
        vertex 3.400000e+01 -9.500000e+00 1.340000e+01
        vertex 3.400000e+01 -8.500000e+00 1.700000e+01
        vertex 3.863212e+01 -8.173575e+00 1.340000e+01
    endloop
endfacet
facet normal -2.697685e-01 9.420819e-01 -1.992653e-01
    outer loop
        vertex 3.400000e+01 -8.500000e+00 1.700000e+01
        vertex 3.863212e+01 -7.173575e+00 1.700000e+01
        vertex 3.840192e+01 -7.302948e+00 1.670000e+01
    endloop
endfacet
facet normal -2.699309e-01 9.360423e-01 -2.257479e-01
    outer loop
        vertex 3.400000e+01 -8.500000e+00 1.700000e+01
        vertex 3.840192e+01 -7.302948e+00 1.670000e+01
        vertex 3.810222e+01 -7.563873e+00 1.597646e+01
    endloop
endfacet
facet normal -2.736939e-01 9.296454e-01 -2.466800e-01
    outer loop
        vertex 3.400000e+01 -8.500000e+00 1.700000e+01
        vertex 3.810222e+01 -7.563873e+00 1.597646e+01
        vertex 3.800000e+01 -7.800000e+00 1.520000e+01
    endloop
endfacet
facet normal -2.820949e-01 9.209852e-01 -2.687168e-01
    outer loop
        vertex 3.400000e+01 -8.500000e+00 1.700000e+01
        vertex 3.800000e+01 -7.800000e+00 1.520000e+01
        vertex 3.810222e+01 -7.995237e+00 1.442354e+01
    endloop
endfacet
facet normal -3.003252e-01 9.051502e-01 -3.008453e-01
    outer loop
        vertex 3.400000e+01 -8.500000e+00 1.700000e+01
        vertex 3.810222e+01 -7.995237e+00 1.442354e+01
        vertex 3.840192e+01 -8.136282e+00 1.370000e+01
    endloop
endfacet
facet normal -3.540788e-01 8.554069e-01 -3.780307e-01
    outer loop
        vertex 3.400000e+01 -8.500000e+00 1.700000e+01
        vertex 3.840192e+01 -8.136282e+00 1.370000e+01
        vertex 3.863212e+01 -8.173575e+00 1.340000e+01
    endloop
endfacet
facet normal -7.933538e-01 0.000000e+00 -6.087609e-01
    outer loop
        vertex 3.840192e+01 -1.600000e+01 1.370000e+01
        vertex 3.840192e+01 -1.550000e+01 1.370000e+01
        vertex 3.863212e+01 -1.550000e+01 1.340000e+01
    endloop
endfacet
facet normal -7.933524e-01 -1.775627e-06 -6.087627e-01
    outer loop
        vertex 3.887868e+01 -1.600000e+01 1.307868e+01
        vertex 3.840192e+01 -1.600000e+01 1.370000e+01
        vertex 3.863212e+01 -1.550000e+01 1.340000e+01
    endloop
endfacet
facet normal -7.933524e-01 0.000000e+00 -6.087627e-01
    outer loop
        vertex 3.840192e+01 1.600000e+01 1.370000e+01
        vertex 3.840192e+01 2.300000e+01 1.370000e+01
        vertex 3.887868e+01 2.300000e+01 1.307868e+01
    endloop
endfacet
facet normal -7.933510e-01 0.000000e+00 -6.087645e-01
    outer loop
        vertex 3.887868e+01 -1.600000e+01 1.307868e+01
        vertex 3.863212e+01 -1.550000e+01 1.340000e+01
        vertex 3.863212e+01 -8.173575e+00 1.340000e+01
    endloop
endfacet
facet normal -7.933533e-01 1.767904e-07 -6.087615e-01
    outer loop
        vertex 3.855539e+01 1.600000e+01 1.350000e+01
        vertex 3.840192e+01 1.600000e+01 1.370000e+01
        vertex 3.887868e+01 2.300000e+01 1.307868e+01
    endloop
endfacet
facet normal -7.933538e-01 0.000000e+00 -6.087609e-01
    outer loop
        vertex 3.863212e+01 -8.173575e+00 1.340000e+01
        vertex 3.840192e+01 -8.136282e+00 1.370000e+01
        vertex 3.840192e+01 1.400000e+01 1.370000e+01
    endloop
endfacet
facet normal -7.933519e-01 0.000000e+00 -6.087633e-01
    outer loop
        vertex 3.855539e+01 1.400000e+01 1.350000e+01
        vertex 3.855539e+01 1.600000e+01 1.350000e+01
        vertex 3.887868e+01 2.300000e+01 1.307868e+01
    endloop
endfacet
facet normal -7.933510e-01 0.000000e+00 -6.087645e-01
    outer loop
        vertex 3.887868e+01 -1.600000e+01 1.307868e+01
        vertex 3.863212e+01 -8.173575e+00 1.340000e+01
        vertex 3.887868e+01 2.300000e+01 1.307868e+01
    endloop
endfacet
facet normal -7.933533e-01 1.309126e-08 -6.087615e-01
    outer loop
        vertex 3.863212e+01 -8.173575e+00 1.340000e+01
        vertex 3.840192e+01 1.400000e+01 1.370000e+01
        vertex 3.855539e+01 1.400000e+01 1.350000e+01
    endloop
endfacet
facet normal -7.933521e-01 2.402363e-08 -6.087630e-01
    outer loop
        vertex 3.863212e+01 -8.173575e+00 1.340000e+01
        vertex 3.855539e+01 1.400000e+01 1.350000e+01
        vertex 3.887868e+01 2.300000e+01 1.307868e+01
    endloop
endfacet
facet normal -9.238794e-01 0.000000e+00 -3.826838e-01
    outer loop
        vertex 3.810222e+01 1.600000e+01 1.442354e+01
        vertex 3.810222e+01 2.300000e+01 1.442354e+01
        vertex 3.840192e+01 2.300000e+01 1.370000e+01
    endloop
endfacet
facet normal -9.238794e-01 0.000000e+00 -3.826838e-01
    outer loop
        vertex 3.840192e+01 1.600000e+01 1.370000e+01
        vertex 3.810222e+01 1.600000e+01 1.442354e+01
        vertex 3.840192e+01 2.300000e+01 1.370000e+01
    endloop
endfacet
facet normal -9.238794e-01 0.000000e+00 -3.826838e-01
    outer loop
        vertex 3.840192e+01 -8.136282e+00 1.370000e+01
        vertex 3.810222e+01 -7.995237e+00 1.442354e+01
        vertex 3.840192e+01 1.400000e+01 1.370000e+01
    endloop
endfacet
facet normal -9.238794e-01 0.000000e+00 -3.826838e-01
    outer loop
        vertex 3.810222e+01 -7.995237e+00 1.442354e+01
        vertex 3.810222e+01 1.400000e+01 1.442354e+01
        vertex 3.840192e+01 1.400000e+01 1.370000e+01
    endloop
endfacet
facet normal -9.914449e-01 0.000000e+00 -1.305261e-01
    outer loop
        vertex 3.800000e+01 1.600000e+01 1.520000e+01
        vertex 3.800000e+01 2.300000e+01 1.520000e+01
        vertex 3.810222e+01 2.300000e+01 1.442354e+01
    endloop
endfacet
facet normal -9.914449e-01 0.000000e+00 -1.305261e-01
    outer loop
        vertex 3.810222e+01 1.600000e+01 1.442354e+01
        vertex 3.800000e+01 1.600000e+01 1.520000e+01
        vertex 3.810222e+01 2.300000e+01 1.442354e+01
    endloop
endfacet
facet normal -9.914449e-01 0.000000e+00 -1.305261e-01
    outer loop
        vertex 3.810222e+01 -7.995237e+00 1.442354e+01
        vertex 3.800000e+01 -7.800000e+00 1.520000e+01
        vertex 3.810222e+01 1.400000e+01 1.442354e+01
    endloop
endfacet
facet normal -9.914449e-01 0.000000e+00 -1.305261e-01
    outer loop
        vertex 3.800000e+01 -7.800000e+00 1.520000e+01
        vertex 3.800000e+01 1.400000e+01 1.520000e+01
        vertex 3.810222e+01 1.400000e+01 1.442354e+01
    endloop
endfacet
facet normal -9.914449e-01 0.000000e+00 1.305260e-01
    outer loop
        vertex 3.810222e+01 1.600000e+01 1.597646e+01
        vertex 3.810222e+01 2.300000e+01 1.597646e+01
        vertex 3.800000e+01 2.300000e+01 1.520000e+01
    endloop
endfacet
facet normal -9.914449e-01 0.000000e+00 1.305260e-01
    outer loop
        vertex 3.800000e+01 1.600000e+01 1.520000e+01
        vertex 3.810222e+01 1.600000e+01 1.597646e+01
        vertex 3.800000e+01 2.300000e+01 1.520000e+01
    endloop
endfacet
facet normal -9.914449e-01 0.000000e+00 1.305260e-01
    outer loop
        vertex 3.800000e+01 -7.800000e+00 1.520000e+01
        vertex 3.810222e+01 -7.563873e+00 1.597646e+01
        vertex 3.800000e+01 1.400000e+01 1.520000e+01
    endloop
endfacet
facet normal -9.914449e-01 0.000000e+00 1.305260e-01
    outer loop
        vertex 3.810222e+01 -7.563873e+00 1.597646e+01
        vertex 3.810222e+01 1.400000e+01 1.597646e+01
        vertex 3.800000e+01 1.400000e+01 1.520000e+01
    endloop
endfacet
facet normal -9.238794e-01 0.000000e+00 3.826838e-01
    outer loop
        vertex 3.840192e+01 1.600000e+01 1.670000e+01
        vertex 3.840192e+01 2.300000e+01 1.670000e+01
        vertex 3.810222e+01 2.300000e+01 1.597646e+01
    endloop
endfacet
facet normal -9.238794e-01 0.000000e+00 3.826838e-01
    outer loop
        vertex 3.810222e+01 1.600000e+01 1.597646e+01
        vertex 3.840192e+01 1.600000e+01 1.670000e+01
        vertex 3.810222e+01 2.300000e+01 1.597646e+01
    endloop
endfacet
facet normal -9.238794e-01 0.000000e+00 3.826838e-01
    outer loop
        vertex 3.810222e+01 -7.563873e+00 1.597646e+01
        vertex 3.840192e+01 -7.302948e+00 1.670000e+01
        vertex 3.810222e+01 1.400000e+01 1.597646e+01
    endloop
endfacet
facet normal -9.238794e-01 0.000000e+00 3.826838e-01
    outer loop
        vertex 3.840192e+01 -7.302948e+00 1.670000e+01
        vertex 3.840192e+01 1.400000e+01 1.670000e+01
        vertex 3.810222e+01 1.400000e+01 1.597646e+01
    endloop
endfacet
facet normal -7.933528e-01 0.000000e+00 6.087621e-01
    outer loop
        vertex 3.840192e+01 -1.600000e+01 1.670000e+01
        vertex 3.863212e+01 -1.550000e+01 1.700000e+01
        vertex 3.840192e+01 -1.550000e+01 1.670000e+01
    endloop
endfacet
facet normal -7.933519e-01 0.000000e+00 6.087633e-01
    outer loop
        vertex 3.840192e+01 1.600000e+01 1.670000e+01
        vertex 3.887868e+01 2.300000e+01 1.732132e+01
        vertex 3.840192e+01 2.300000e+01 1.670000e+01
    endloop
endfacet
facet normal -7.933519e-01 -1.175143e-06 6.087633e-01
    outer loop
        vertex 3.840192e+01 -1.600000e+01 1.670000e+01
        vertex 3.887868e+01 -1.600000e+01 1.732132e+01
        vertex 3.863212e+01 -1.550000e+01 1.700000e+01
    endloop
endfacet
facet normal -7.933510e-01 0.000000e+00 6.087645e-01
    outer loop
        vertex 3.887868e+01 -1.600000e+01 1.732132e+01
        vertex 3.863212e+01 -7.173575e+00 1.700000e+01
        vertex 3.863212e+01 -1.550000e+01 1.700000e+01
    endloop
endfacet
facet normal -7.933528e-01 1.738432e-07 6.087621e-01
    outer loop
        vertex 3.840192e+01 1.600000e+01 1.670000e+01
        vertex 3.863212e+01 1.600000e+01 1.700000e+01
        vertex 3.887868e+01 2.300000e+01 1.732132e+01
    endloop
endfacet
facet normal -7.933528e-01 0.000000e+00 6.087621e-01
    outer loop
        vertex 3.840192e+01 -7.302948e+00 1.670000e+01
        vertex 3.863212e+01 -7.173575e+00 1.700000e+01
        vertex 3.840192e+01 1.400000e+01 1.670000e+01
    endloop
endfacet
facet normal -7.933510e-01 0.000000e+00 6.087645e-01
    outer loop
        vertex 3.887868e+01 -1.600000e+01 1.732132e+01
        vertex 3.887868e+01 2.300000e+01 1.732132e+01
        vertex 3.863212e+01 -7.173575e+00 1.700000e+01
    endloop
endfacet
facet normal -7.933510e-01 0.000000e+00 6.087645e-01
    outer loop
        vertex 3.863212e+01 1.400000e+01 1.700000e+01
        vertex 3.887868e+01 2.300000e+01 1.732132e+01
        vertex 3.863212e+01 1.600000e+01 1.700000e+01
    endloop
endfacet
facet normal -7.933510e-01 0.000000e+00 6.087645e-01
    outer loop
        vertex 3.863212e+01 -7.173575e+00 1.700000e+01
        vertex 3.887868e+01 2.300000e+01 1.732132e+01
        vertex 3.863212e+01 1.400000e+01 1.700000e+01
    endloop
endfacet
facet normal -7.933528e-01 0.000000e+00 6.087621e-01
    outer loop
        vertex 3.863212e+01 -7.173575e+00 1.700000e+01
        vertex 3.863212e+01 1.400000e+01 1.700000e+01
        vertex 3.840192e+01 1.400000e+01 1.670000e+01
    endloop
endfacet
facet normal -1.000000e+00 0.000000e+00 0.000000e+00
    outer loop
        vertex 3.550000e+01 1.400000e+01 1.350000e+01
        vertex 3.550000e+01 1.400000e+01 1.700000e+01
        vertex 3.550000e+01 1.600000e+01 1.350000e+01
    endloop
endfacet
facet normal -1.000000e+00 0.000000e+00 0.000000e+00
    outer loop
        vertex 3.550000e+01 1.400000e+01 1.700000e+01
        vertex 3.550000e+01 1.600000e+01 1.700000e+01
        vertex 3.550000e+01 1.600000e+01 1.350000e+01
    endloop
endfacet
facet normal 0.000000e+00 0.000000e+00 -1.000000e+00
    outer loop
        vertex 3.550000e+01 1.400000e+01 1.350000e+01
        vertex 3.550000e+01 1.600000e+01 1.350000e+01
        vertex 3.855539e+01 1.400000e+01 1.350000e+01
    endloop
endfacet
facet normal 0.000000e+00 0.000000e+00 -1.000000e+00
    outer loop
        vertex 3.855539e+01 1.400000e+01 1.350000e+01
        vertex 3.550000e+01 1.600000e+01 1.350000e+01
        vertex 3.855539e+01 1.600000e+01 1.350000e+01
    endloop
endfacet
facet normal 0.000000e+00 -1.000000e+00 0.000000e+00
    outer loop
        vertex 3.550000e+01 1.400000e+01 1.350000e+01
        vertex 3.855539e+01 1.400000e+01 1.350000e+01
        vertex 3.550000e+01 1.400000e+01 1.700000e+01
    endloop
endfacet
facet normal 0.000000e+00 -1.000000e+00 0.000000e+00
    outer loop
        vertex 3.840192e+01 1.400000e+01 1.670000e+01
        vertex 3.863212e+01 1.400000e+01 1.700000e+01
        vertex 3.550000e+01 1.400000e+01 1.700000e+01
    endloop
endfacet
facet normal 0.000000e+00 -1.000000e+00 0.000000e+00
    outer loop
        vertex 3.810222e+01 1.400000e+01 1.597646e+01
        vertex 3.840192e+01 1.400000e+01 1.670000e+01
        vertex 3.550000e+01 1.400000e+01 1.700000e+01
    endloop
endfacet
facet normal 0.000000e+00 -1.000000e+00 0.000000e+00
    outer loop
        vertex 3.800000e+01 1.400000e+01 1.520000e+01
        vertex 3.810222e+01 1.400000e+01 1.597646e+01
        vertex 3.550000e+01 1.400000e+01 1.700000e+01
    endloop
endfacet
facet normal 0.000000e+00 -1.000000e+00 0.000000e+00
    outer loop
        vertex 3.810222e+01 1.400000e+01 1.442354e+01
        vertex 3.800000e+01 1.400000e+01 1.520000e+01
        vertex 3.550000e+01 1.400000e+01 1.700000e+01
    endloop
endfacet
facet normal 0.000000e+00 -1.000000e+00 0.000000e+00
    outer loop
        vertex 3.855539e+01 1.400000e+01 1.350000e+01
        vertex 3.840192e+01 1.400000e+01 1.370000e+01
        vertex 3.550000e+01 1.400000e+01 1.700000e+01
    endloop
endfacet
facet normal 0.000000e+00 -1.000000e+00 0.000000e+00
    outer loop
        vertex 3.840192e+01 1.400000e+01 1.370000e+01
        vertex 3.810222e+01 1.400000e+01 1.442354e+01
        vertex 3.550000e+01 1.400000e+01 1.700000e+01
    endloop
endfacet
facet normal 0.000000e+00 1.000000e+00 0.000000e+00
    outer loop
        vertex 3.550000e+01 1.600000e+01 1.350000e+01
        vertex 3.550000e+01 1.600000e+01 1.700000e+01
        vertex 3.855539e+01 1.600000e+01 1.350000e+01
    endloop
endfacet
facet normal 0.000000e+00 1.000000e+00 -0.000000e+00
    outer loop
        vertex 3.840192e+01 1.600000e+01 1.670000e+01
        vertex 3.550000e+01 1.600000e+01 1.700000e+01
        vertex 3.863212e+01 1.600000e+01 1.700000e+01
    endloop
endfacet
facet normal 0.000000e+00 1.000000e+00 -0.000000e+00
    outer loop
        vertex 3.810222e+01 1.600000e+01 1.597646e+01
        vertex 3.550000e+01 1.600000e+01 1.700000e+01
        vertex 3.840192e+01 1.600000e+01 1.670000e+01
    endloop
endfacet
facet normal 0.000000e+00 1.000000e+00 -0.000000e+00
    outer loop
        vertex 3.800000e+01 1.600000e+01 1.520000e+01
        vertex 3.550000e+01 1.600000e+01 1.700000e+01
        vertex 3.810222e+01 1.600000e+01 1.597646e+01
    endloop
endfacet
facet normal 0.000000e+00 1.000000e+00 0.000000e+00
    outer loop
        vertex 3.810222e+01 1.600000e+01 1.442354e+01
        vertex 3.550000e+01 1.600000e+01 1.700000e+01
        vertex 3.800000e+01 1.600000e+01 1.520000e+01
    endloop
endfacet
facet normal 0.000000e+00 1.000000e+00 0.000000e+00
    outer loop
        vertex 3.840192e+01 1.600000e+01 1.370000e+01
        vertex 3.550000e+01 1.600000e+01 1.700000e+01
        vertex 3.810222e+01 1.600000e+01 1.442354e+01
    endloop
endfacet
facet normal 0.000000e+00 1.000000e+00 0.000000e+00
    outer loop
        vertex 3.855539e+01 1.600000e+01 1.350000e+01
        vertex 3.550000e+01 1.600000e+01 1.700000e+01
        vertex 3.840192e+01 1.600000e+01 1.370000e+01
    endloop
endfacet
facet normal 0.000000e+00 0.000000e+00 1.000000e+00
    outer loop
        vertex 3.550000e+01 1.400000e+01 1.700000e+01
        vertex 3.863212e+01 1.600000e+01 1.700000e+01
        vertex 3.550000e+01 1.600000e+01 1.700000e+01
    endloop
endfacet
facet normal 0.000000e+00 0.000000e+00 1.000000e+00
    outer loop
        vertex 3.550000e+01 1.400000e+01 1.700000e+01
        vertex 3.863212e+01 1.400000e+01 1.700000e+01
        vertex 3.863212e+01 1.600000e+01 1.700000e+01
    endloop
endfacet
facet normal -9.229493e-02 -7.071068e-01 7.010575e-01
    outer loop
        vertex 4.048459e+01 -1.700000e+01 1.712352e+01
        vertex 4.100000e+01 -1.700000e+01 1.719137e+01
        vertex 4.100000e+01 -1.600000e+01 1.820000e+01
    endloop
endfacet
facet normal -9.229573e-02 -7.071065e-01 7.010576e-01
    outer loop
        vertex 4.048459e+01 -1.700000e+01 1.712352e+01
        vertex 4.100000e+01 -1.600000e+01 1.820000e+01
        vertex 4.022354e+01 -1.600000e+01 1.809778e+01
    endloop
endfacet
facet normal 9.229573e-02 -7.071065e-01 7.010576e-01
    outer loop
        vertex 4.151541e+01 -1.700000e+01 1.712352e+01
        vertex 4.177646e+01 -1.600000e+01 1.809778e+01
        vertex 4.100000e+01 -1.600000e+01 1.820000e+01
    endloop
endfacet
facet normal 9.229493e-02 -7.071068e-01 7.010575e-01
    outer loop
        vertex 4.151541e+01 -1.700000e+01 1.712352e+01
        vertex 4.100000e+01 -1.600000e+01 1.820000e+01
        vertex 4.100000e+01 -1.700000e+01 1.719137e+01
    endloop
endfacet
facet normal 2.705990e-01 -7.071064e-01 6.532815e-01
    outer loop
        vertex 4.199569e+01 -1.700000e+01 1.692458e+01
        vertex 4.250000e+01 -1.600000e+01 1.779808e+01
        vertex 4.151541e+01 -1.700000e+01 1.712352e+01
    endloop
endfacet
facet normal 2.705990e-01 -7.071064e-01 6.532815e-01
    outer loop
        vertex 4.151541e+01 -1.700000e+01 1.712352e+01
        vertex 4.250000e+01 -1.600000e+01 1.779808e+01
        vertex 4.177646e+01 -1.600000e+01 1.809778e+01
    endloop
endfacet
facet normal 4.304610e-01 -7.071064e-01 5.609848e-01
    outer loop
        vertex 4.240811e+01 -1.700000e+01 1.660811e+01
        vertex 4.312132e+01 -1.600000e+01 1.732132e+01
        vertex 4.199569e+01 -1.700000e+01 1.692458e+01
    endloop
endfacet
facet normal 4.304610e-01 -7.071063e-01 5.609849e-01
    outer loop
        vertex 4.199569e+01 -1.700000e+01 1.692458e+01
        vertex 4.312132e+01 -1.600000e+01 1.732132e+01
        vertex 4.250000e+01 -1.600000e+01 1.779808e+01
    endloop
endfacet
facet normal 5.609854e-01 -7.071068e-01 4.304595e-01
    outer loop
        vertex 4.272458e+01 -1.700000e+01 1.619568e+01
        vertex 4.359808e+01 -1.600000e+01 1.670000e+01
        vertex 4.240811e+01 -1.700000e+01 1.660811e+01
    endloop
endfacet
facet normal 5.609848e-01 -7.071064e-01 4.304610e-01
    outer loop
        vertex 4.240811e+01 -1.700000e+01 1.660811e+01
        vertex 4.359808e+01 -1.600000e+01 1.670000e+01
        vertex 4.312132e+01 -1.600000e+01 1.732132e+01
    endloop
endfacet
facet normal 6.532817e-01 -7.071074e-01 2.705960e-01
    outer loop
        vertex 4.292352e+01 -1.700000e+01 1.571541e+01
        vertex 4.389778e+01 -1.600000e+01 1.597646e+01
        vertex 4.272458e+01 -1.700000e+01 1.619568e+01
    endloop
endfacet
facet normal 6.532815e-01 -7.071066e-01 2.705984e-01
    outer loop
        vertex 4.272458e+01 -1.700000e+01 1.619568e+01
        vertex 4.389778e+01 -1.600000e+01 1.597646e+01
        vertex 4.359808e+01 -1.600000e+01 1.670000e+01
    endloop
endfacet
facet normal 7.010574e-01 -7.071068e-01 9.229581e-02
    outer loop
        vertex 4.299137e+01 -1.700000e+01 1.520000e+01
        vertex 4.400000e+01 -1.600000e+01 1.520000e+01
        vertex 4.389778e+01 -1.600000e+01 1.597646e+01
    endloop
endfacet
facet normal 7.010565e-01 -7.071074e-01 9.229773e-02
    outer loop
        vertex 4.299137e+01 -1.700000e+01 1.520000e+01
        vertex 4.389778e+01 -1.600000e+01 1.597646e+01
        vertex 4.292352e+01 -1.700000e+01 1.571541e+01
    endloop
endfacet
facet normal 7.010574e-01 -7.071068e-01 -9.229593e-02
    outer loop
        vertex 4.299137e+01 -1.700000e+01 1.520000e+01
        vertex 4.389778e+01 -1.600000e+01 1.442354e+01
        vertex 4.400000e+01 -1.600000e+01 1.520000e+01
    endloop
endfacet
facet normal 7.010565e-01 -7.071074e-01 -9.229790e-02
    outer loop
        vertex 4.292352e+01 -1.700000e+01 1.468460e+01
        vertex 4.389778e+01 -1.600000e+01 1.442354e+01
        vertex 4.299137e+01 -1.700000e+01 1.520000e+01
    endloop
endfacet
facet normal 6.532816e-01 -7.071065e-01 -2.705984e-01
    outer loop
        vertex 4.272458e+01 -1.700000e+01 1.420432e+01
        vertex 4.359808e+01 -1.600000e+01 1.370000e+01
        vertex 4.389778e+01 -1.600000e+01 1.442354e+01
    endloop
endfacet
facet normal 6.532819e-01 -7.071074e-01 -2.705955e-01
    outer loop
        vertex 4.272458e+01 -1.700000e+01 1.420432e+01
        vertex 4.389778e+01 -1.600000e+01 1.442354e+01
        vertex 4.292352e+01 -1.700000e+01 1.468460e+01
    endloop
endfacet
facet normal 5.609850e-01 -7.071065e-01 -4.304604e-01
    outer loop
        vertex 4.272458e+01 -1.700000e+01 1.420432e+01
        vertex 4.312132e+01 -1.600000e+01 1.307868e+01
        vertex 4.359808e+01 -1.600000e+01 1.370000e+01
    endloop
endfacet
facet normal 5.609851e-01 -7.071065e-01 -4.304603e-01
    outer loop
        vertex 4.240811e+01 -1.700000e+01 1.379189e+01
        vertex 4.312132e+01 -1.600000e+01 1.307868e+01
        vertex 4.272458e+01 -1.700000e+01 1.420432e+01
    endloop
endfacet
facet normal 4.304602e-01 -7.071066e-01 -5.609850e-01
    outer loop
        vertex 4.199569e+01 -1.700000e+01 1.347542e+01
        vertex 4.250000e+01 -1.600000e+01 1.260192e+01
        vertex 4.312132e+01 -1.600000e+01 1.307868e+01
    endloop
endfacet
facet normal 4.304601e-01 -7.071065e-01 -5.609852e-01
    outer loop
        vertex 4.199569e+01 -1.700000e+01 1.347542e+01
        vertex 4.312132e+01 -1.600000e+01 1.307868e+01
        vertex 4.240811e+01 -1.700000e+01 1.379189e+01
    endloop
endfacet
facet normal 2.705990e-01 -7.071064e-01 -6.532815e-01
    outer loop
        vertex 4.151541e+01 -1.700000e+01 1.327648e+01
        vertex 4.177646e+01 -1.600000e+01 1.230222e+01
        vertex 4.250000e+01 -1.600000e+01 1.260192e+01
    endloop
endfacet
facet normal 2.706000e-01 -7.071068e-01 -6.532807e-01
    outer loop
        vertex 4.151541e+01 -1.700000e+01 1.327648e+01
        vertex 4.250000e+01 -1.600000e+01 1.260192e+01
        vertex 4.199569e+01 -1.700000e+01 1.347542e+01
    endloop
endfacet
facet normal 9.229573e-02 -7.071065e-01 -7.010576e-01
    outer loop
        vertex 4.151541e+01 -1.700000e+01 1.327648e+01
        vertex 4.100000e+01 -1.600000e+01 1.220000e+01
        vertex 4.177646e+01 -1.600000e+01 1.230222e+01
    endloop
endfacet
facet normal 9.229493e-02 -7.071068e-01 -7.010575e-01
    outer loop
        vertex 4.100000e+01 -1.700000e+01 1.320863e+01
        vertex 4.100000e+01 -1.600000e+01 1.220000e+01
        vertex 4.151541e+01 -1.700000e+01 1.327648e+01
    endloop
endfacet
facet normal -9.229493e-02 -7.071068e-01 -7.010575e-01
    outer loop
        vertex 4.100000e+01 -1.700000e+01 1.320863e+01
        vertex 4.048459e+01 -1.700000e+01 1.327648e+01
        vertex 4.100000e+01 -1.600000e+01 1.220000e+01
    endloop
endfacet
facet normal -9.229573e-02 -7.071065e-01 -7.010576e-01
    outer loop
        vertex 4.048459e+01 -1.700000e+01 1.327648e+01
        vertex 4.022354e+01 -1.600000e+01 1.230222e+01
        vertex 4.100000e+01 -1.600000e+01 1.220000e+01
    endloop
endfacet
facet normal -2.705990e-01 -7.071064e-01 -6.532815e-01
    outer loop
        vertex 4.048459e+01 -1.700000e+01 1.327648e+01
        vertex 3.950000e+01 -1.600000e+01 1.260192e+01
        vertex 4.022354e+01 -1.600000e+01 1.230222e+01
    endloop
endfacet
facet normal -2.706000e-01 -7.071068e-01 -6.532807e-01
    outer loop
        vertex 4.048459e+01 -1.700000e+01 1.327648e+01
        vertex 4.000431e+01 -1.700000e+01 1.347542e+01
        vertex 3.950000e+01 -1.600000e+01 1.260192e+01
    endloop
endfacet
facet normal -4.304602e-01 -7.071066e-01 -5.609850e-01
    outer loop
        vertex 4.000431e+01 -1.700000e+01 1.347542e+01
        vertex 3.887868e+01 -1.600000e+01 1.307868e+01
        vertex 3.950000e+01 -1.600000e+01 1.260192e+01
    endloop
endfacet
facet normal -4.304601e-01 -7.071065e-01 -5.609852e-01
    outer loop
        vertex 4.000431e+01 -1.700000e+01 1.347542e+01
        vertex 3.959189e+01 -1.700000e+01 1.379189e+01
        vertex 3.887868e+01 -1.600000e+01 1.307868e+01
    endloop
endfacet
facet normal -5.609851e-01 -7.071065e-01 -4.304603e-01
    outer loop
        vertex 3.959189e+01 -1.700000e+01 1.379189e+01
        vertex 3.927542e+01 -1.700000e+01 1.420432e+01
        vertex 3.887868e+01 -1.600000e+01 1.307868e+01
    endloop
endfacet
facet normal -5.609850e-01 -7.071065e-01 -4.304604e-01
    outer loop
        vertex 3.927542e+01 -1.700000e+01 1.420432e+01
        vertex 3.840192e+01 -1.600000e+01 1.370000e+01
        vertex 3.887868e+01 -1.600000e+01 1.307868e+01
    endloop
endfacet
facet normal -6.532816e-01 -7.071065e-01 -2.705984e-01
    outer loop
        vertex 3.927542e+01 -1.700000e+01 1.420432e+01
        vertex 3.810222e+01 -1.600000e+01 1.442354e+01
        vertex 3.840192e+01 -1.600000e+01 1.370000e+01
    endloop
endfacet
facet normal -6.532819e-01 -7.071074e-01 -2.705955e-01
    outer loop
        vertex 3.927542e+01 -1.700000e+01 1.420432e+01
        vertex 3.907648e+01 -1.700000e+01 1.468460e+01
        vertex 3.810222e+01 -1.600000e+01 1.442354e+01
    endloop
endfacet
facet normal -7.010565e-01 -7.071074e-01 -9.229790e-02
    outer loop
        vertex 3.907648e+01 -1.700000e+01 1.468460e+01
        vertex 3.900863e+01 -1.700000e+01 1.520000e+01
        vertex 3.810222e+01 -1.600000e+01 1.442354e+01
    endloop
endfacet
facet normal -7.010574e-01 -7.071068e-01 -9.229593e-02
    outer loop
        vertex 3.900863e+01 -1.700000e+01 1.520000e+01
        vertex 3.800000e+01 -1.600000e+01 1.520000e+01
        vertex 3.810222e+01 -1.600000e+01 1.442354e+01
    endloop
endfacet
facet normal -7.010565e-01 -7.071074e-01 9.229773e-02
    outer loop
        vertex 3.900863e+01 -1.700000e+01 1.520000e+01
        vertex 3.907648e+01 -1.700000e+01 1.571541e+01
        vertex 3.810222e+01 -1.600000e+01 1.597646e+01
    endloop
endfacet
facet normal -7.010574e-01 -7.071068e-01 9.229581e-02
    outer loop
        vertex 3.900863e+01 -1.700000e+01 1.520000e+01
        vertex 3.810222e+01 -1.600000e+01 1.597646e+01
        vertex 3.800000e+01 -1.600000e+01 1.520000e+01
    endloop
endfacet
facet normal -6.532817e-01 -7.071074e-01 2.705960e-01
    outer loop
        vertex 3.907648e+01 -1.700000e+01 1.571541e+01
        vertex 3.927542e+01 -1.700000e+01 1.619568e+01
        vertex 3.810222e+01 -1.600000e+01 1.597646e+01
    endloop
endfacet
facet normal -6.532815e-01 -7.071066e-01 2.705984e-01
    outer loop
        vertex 3.927542e+01 -1.700000e+01 1.619568e+01
        vertex 3.840192e+01 -1.600000e+01 1.670000e+01
        vertex 3.810222e+01 -1.600000e+01 1.597646e+01
    endloop
endfacet
facet normal -5.609854e-01 -7.071068e-01 4.304595e-01
    outer loop
        vertex 3.927542e+01 -1.700000e+01 1.619568e+01
        vertex 3.959189e+01 -1.700000e+01 1.660811e+01
        vertex 3.840192e+01 -1.600000e+01 1.670000e+01
    endloop
endfacet
facet normal -5.609848e-01 -7.071064e-01 4.304610e-01
    outer loop
        vertex 3.959189e+01 -1.700000e+01 1.660811e+01
        vertex 3.887868e+01 -1.600000e+01 1.732132e+01
        vertex 3.840192e+01 -1.600000e+01 1.670000e+01
    endloop
endfacet
facet normal -4.304610e-01 -7.071064e-01 5.609848e-01
    outer loop
        vertex 3.959189e+01 -1.700000e+01 1.660811e+01
        vertex 4.000431e+01 -1.700000e+01 1.692458e+01
        vertex 3.887868e+01 -1.600000e+01 1.732132e+01
    endloop
endfacet
facet normal -4.304610e-01 -7.071063e-01 5.609849e-01
    outer loop
        vertex 4.000431e+01 -1.700000e+01 1.692458e+01
        vertex 3.950000e+01 -1.600000e+01 1.779808e+01
        vertex 3.887868e+01 -1.600000e+01 1.732132e+01
    endloop
endfacet
facet normal -2.705990e-01 -7.071064e-01 6.532815e-01
    outer loop
        vertex 4.000431e+01 -1.700000e+01 1.692458e+01
        vertex 4.048459e+01 -1.700000e+01 1.712352e+01
        vertex 3.950000e+01 -1.600000e+01 1.779808e+01
    endloop
endfacet
facet normal -2.705990e-01 -7.071064e-01 6.532815e-01
    outer loop
        vertex 4.048459e+01 -1.700000e+01 1.712352e+01
        vertex 4.022354e+01 -1.600000e+01 1.809778e+01
        vertex 3.950000e+01 -1.600000e+01 1.779808e+01
    endloop
endfacet
facet normal 9.229493e-02 7.071068e-01 7.010575e-01
    outer loop
        vertex 4.100000e+01 2.300000e+01 1.820000e+01
        vertex 4.151541e+01 2.400000e+01 1.712352e+01
        vertex 4.100000e+01 2.400000e+01 1.719137e+01
    endloop
endfacet
facet normal 9.229573e-02 7.071065e-01 7.010576e-01
    outer loop
        vertex 4.177646e+01 2.300000e+01 1.809778e+01
        vertex 4.151541e+01 2.400000e+01 1.712352e+01
        vertex 4.100000e+01 2.300000e+01 1.820000e+01
    endloop
endfacet
facet normal -9.229573e-02 7.071065e-01 7.010576e-01
    outer loop
        vertex 4.022354e+01 2.300000e+01 1.809778e+01
        vertex 4.100000e+01 2.300000e+01 1.820000e+01
        vertex 4.048459e+01 2.400000e+01 1.712352e+01
    endloop
endfacet
facet normal -9.229493e-02 7.071068e-01 7.010575e-01
    outer loop
        vertex 4.100000e+01 2.300000e+01 1.820000e+01
        vertex 4.100000e+01 2.400000e+01 1.719137e+01
        vertex 4.048459e+01 2.400000e+01 1.712352e+01
    endloop
endfacet
facet normal -2.705990e-01 7.071064e-01 6.532815e-01
    outer loop
        vertex 3.950000e+01 2.300000e+01 1.779808e+01
        vertex 4.048459e+01 2.400000e+01 1.712352e+01
        vertex 4.000431e+01 2.400000e+01 1.692458e+01
    endloop
endfacet
facet normal -2.705990e-01 7.071064e-01 6.532815e-01
    outer loop
        vertex 3.950000e+01 2.300000e+01 1.779808e+01
        vertex 4.022354e+01 2.300000e+01 1.809778e+01
        vertex 4.048459e+01 2.400000e+01 1.712352e+01
    endloop
endfacet
facet normal -4.304610e-01 7.071064e-01 5.609848e-01
    outer loop
        vertex 3.887868e+01 2.300000e+01 1.732132e+01
        vertex 4.000431e+01 2.400000e+01 1.692458e+01
        vertex 3.959189e+01 2.400000e+01 1.660811e+01
    endloop
endfacet
facet normal -4.304610e-01 7.071063e-01 5.609849e-01
    outer loop
        vertex 3.887868e+01 2.300000e+01 1.732132e+01
        vertex 3.950000e+01 2.300000e+01 1.779808e+01
        vertex 4.000431e+01 2.400000e+01 1.692458e+01
    endloop
endfacet
facet normal -5.609854e-01 7.071068e-01 4.304595e-01
    outer loop
        vertex 3.840192e+01 2.300000e+01 1.670000e+01
        vertex 3.959189e+01 2.400000e+01 1.660811e+01
        vertex 3.927542e+01 2.400000e+01 1.619568e+01
    endloop
endfacet
facet normal -5.609848e-01 7.071064e-01 4.304610e-01
    outer loop
        vertex 3.840192e+01 2.300000e+01 1.670000e+01
        vertex 3.887868e+01 2.300000e+01 1.732132e+01
        vertex 3.959189e+01 2.400000e+01 1.660811e+01
    endloop
endfacet
facet normal -6.532817e-01 7.071074e-01 2.705960e-01
    outer loop
        vertex 3.810222e+01 2.300000e+01 1.597646e+01
        vertex 3.927542e+01 2.400000e+01 1.619568e+01
        vertex 3.907648e+01 2.400000e+01 1.571541e+01
    endloop
endfacet
facet normal -6.532815e-01 7.071066e-01 2.705984e-01
    outer loop
        vertex 3.810222e+01 2.300000e+01 1.597646e+01
        vertex 3.840192e+01 2.300000e+01 1.670000e+01
        vertex 3.927542e+01 2.400000e+01 1.619568e+01
    endloop
endfacet
facet normal -7.010574e-01 7.071068e-01 9.229581e-02
    outer loop
        vertex 3.800000e+01 2.300000e+01 1.520000e+01
        vertex 3.810222e+01 2.300000e+01 1.597646e+01
        vertex 3.900863e+01 2.400000e+01 1.520000e+01
    endloop
endfacet
facet normal -7.010565e-01 7.071074e-01 9.229773e-02
    outer loop
        vertex 3.810222e+01 2.300000e+01 1.597646e+01
        vertex 3.907648e+01 2.400000e+01 1.571541e+01
        vertex 3.900863e+01 2.400000e+01 1.520000e+01
    endloop
endfacet
facet normal -7.010574e-01 7.071068e-01 -9.229593e-02
    outer loop
        vertex 3.810222e+01 2.300000e+01 1.442354e+01
        vertex 3.800000e+01 2.300000e+01 1.520000e+01
        vertex 3.900863e+01 2.400000e+01 1.520000e+01
    endloop
endfacet
facet normal -7.010565e-01 7.071074e-01 -9.229790e-02
    outer loop
        vertex 3.810222e+01 2.300000e+01 1.442354e+01
        vertex 3.900863e+01 2.400000e+01 1.520000e+01
        vertex 3.907648e+01 2.400000e+01 1.468460e+01
    endloop
endfacet
facet normal -6.532816e-01 7.071065e-01 -2.705984e-01
    outer loop
        vertex 3.840192e+01 2.300000e+01 1.370000e+01
        vertex 3.810222e+01 2.300000e+01 1.442354e+01
        vertex 3.927542e+01 2.400000e+01 1.420432e+01
    endloop
endfacet
facet normal -6.532819e-01 7.071074e-01 -2.705955e-01
    outer loop
        vertex 3.810222e+01 2.300000e+01 1.442354e+01
        vertex 3.907648e+01 2.400000e+01 1.468460e+01
        vertex 3.927542e+01 2.400000e+01 1.420432e+01
    endloop
endfacet
facet normal -5.609850e-01 7.071065e-01 -4.304604e-01
    outer loop
        vertex 3.887868e+01 2.300000e+01 1.307868e+01
        vertex 3.840192e+01 2.300000e+01 1.370000e+01
        vertex 3.927542e+01 2.400000e+01 1.420432e+01
    endloop
endfacet
facet normal -5.609851e-01 7.071065e-01 -4.304603e-01
    outer loop
        vertex 3.887868e+01 2.300000e+01 1.307868e+01
        vertex 3.927542e+01 2.400000e+01 1.420432e+01
        vertex 3.959189e+01 2.400000e+01 1.379189e+01
    endloop
endfacet
facet normal -4.304602e-01 7.071066e-01 -5.609850e-01
    outer loop
        vertex 3.950000e+01 2.300000e+01 1.260192e+01
        vertex 3.887868e+01 2.300000e+01 1.307868e+01
        vertex 4.000431e+01 2.400000e+01 1.347542e+01
    endloop
endfacet
facet normal -4.304601e-01 7.071065e-01 -5.609852e-01
    outer loop
        vertex 3.887868e+01 2.300000e+01 1.307868e+01
        vertex 3.959189e+01 2.400000e+01 1.379189e+01
        vertex 4.000431e+01 2.400000e+01 1.347542e+01
    endloop
endfacet
facet normal -2.705990e-01 7.071064e-01 -6.532815e-01
    outer loop
        vertex 4.022354e+01 2.300000e+01 1.230222e+01
        vertex 3.950000e+01 2.300000e+01 1.260192e+01
        vertex 4.048459e+01 2.400000e+01 1.327648e+01
    endloop
endfacet
facet normal -2.706000e-01 7.071068e-01 -6.532807e-01
    outer loop
        vertex 3.950000e+01 2.300000e+01 1.260192e+01
        vertex 4.000431e+01 2.400000e+01 1.347542e+01
        vertex 4.048459e+01 2.400000e+01 1.327648e+01
    endloop
endfacet
facet normal -9.229573e-02 7.071065e-01 -7.010576e-01
    outer loop
        vertex 4.100000e+01 2.300000e+01 1.220000e+01
        vertex 4.022354e+01 2.300000e+01 1.230222e+01
        vertex 4.048459e+01 2.400000e+01 1.327648e+01
    endloop
endfacet
facet normal -9.229493e-02 7.071068e-01 -7.010575e-01
    outer loop
        vertex 4.100000e+01 2.300000e+01 1.220000e+01
        vertex 4.048459e+01 2.400000e+01 1.327648e+01
        vertex 4.100000e+01 2.400000e+01 1.320863e+01
    endloop
endfacet
facet normal 9.229493e-02 7.071068e-01 -7.010575e-01
    outer loop
        vertex 4.100000e+01 2.300000e+01 1.220000e+01
        vertex 4.100000e+01 2.400000e+01 1.320863e+01
        vertex 4.151541e+01 2.400000e+01 1.327648e+01
    endloop
endfacet
facet normal 9.229573e-02 7.071065e-01 -7.010576e-01
    outer loop
        vertex 4.100000e+01 2.300000e+01 1.220000e+01
        vertex 4.151541e+01 2.400000e+01 1.327648e+01
        vertex 4.177646e+01 2.300000e+01 1.230222e+01
    endloop
endfacet
facet normal 2.705990e-01 7.071064e-01 -6.532815e-01
    outer loop
        vertex 4.177646e+01 2.300000e+01 1.230222e+01
        vertex 4.151541e+01 2.400000e+01 1.327648e+01
        vertex 4.250000e+01 2.300000e+01 1.260192e+01
    endloop
endfacet
facet normal 2.706000e-01 7.071068e-01 -6.532807e-01
    outer loop
        vertex 4.250000e+01 2.300000e+01 1.260192e+01
        vertex 4.151541e+01 2.400000e+01 1.327648e+01
        vertex 4.199569e+01 2.400000e+01 1.347542e+01
    endloop
endfacet
facet normal 4.304602e-01 7.071066e-01 -5.609850e-01
    outer loop
        vertex 4.250000e+01 2.300000e+01 1.260192e+01
        vertex 4.199569e+01 2.400000e+01 1.347542e+01
        vertex 4.312132e+01 2.300000e+01 1.307868e+01
    endloop
endfacet
facet normal 4.304601e-01 7.071065e-01 -5.609852e-01
    outer loop
        vertex 4.312132e+01 2.300000e+01 1.307868e+01
        vertex 4.199569e+01 2.400000e+01 1.347542e+01
        vertex 4.240811e+01 2.400000e+01 1.379189e+01
    endloop
endfacet
facet normal 5.609851e-01 7.071065e-01 -4.304603e-01
    outer loop
        vertex 4.312132e+01 2.300000e+01 1.307868e+01
        vertex 4.240811e+01 2.400000e+01 1.379189e+01
        vertex 4.272458e+01 2.400000e+01 1.420432e+01
    endloop
endfacet
facet normal 5.609850e-01 7.071065e-01 -4.304604e-01
    outer loop
        vertex 4.312132e+01 2.300000e+01 1.307868e+01
        vertex 4.272458e+01 2.400000e+01 1.420432e+01
        vertex 4.359808e+01 2.300000e+01 1.370000e+01
    endloop
endfacet
facet normal 6.532816e-01 7.071065e-01 -2.705984e-01
    outer loop
        vertex 4.359808e+01 2.300000e+01 1.370000e+01
        vertex 4.272458e+01 2.400000e+01 1.420432e+01
        vertex 4.389778e+01 2.300000e+01 1.442354e+01
    endloop
endfacet
facet normal 6.532819e-01 7.071074e-01 -2.705955e-01
    outer loop
        vertex 4.389778e+01 2.300000e+01 1.442354e+01
        vertex 4.272458e+01 2.400000e+01 1.420432e+01
        vertex 4.292352e+01 2.400000e+01 1.468460e+01
    endloop
endfacet
facet normal 7.010565e-01 7.071074e-01 -9.229790e-02
    outer loop
        vertex 4.389778e+01 2.300000e+01 1.442354e+01
        vertex 4.292352e+01 2.400000e+01 1.468460e+01
        vertex 4.299137e+01 2.400000e+01 1.520000e+01
    endloop
endfacet
facet normal 7.010574e-01 7.071068e-01 -9.229593e-02
    outer loop
        vertex 4.389778e+01 2.300000e+01 1.442354e+01
        vertex 4.299137e+01 2.400000e+01 1.520000e+01
        vertex 4.400000e+01 2.300000e+01 1.520000e+01
    endloop
endfacet
facet normal 7.010574e-01 7.071068e-01 9.229581e-02
    outer loop
        vertex 4.400000e+01 2.300000e+01 1.520000e+01
        vertex 4.299137e+01 2.400000e+01 1.520000e+01
        vertex 4.389778e+01 2.300000e+01 1.597646e+01
    endloop
endfacet
facet normal 7.010565e-01 7.071074e-01 9.229773e-02
    outer loop
        vertex 4.389778e+01 2.300000e+01 1.597646e+01
        vertex 4.299137e+01 2.400000e+01 1.520000e+01
        vertex 4.292352e+01 2.400000e+01 1.571541e+01
    endloop
endfacet
facet normal 6.532817e-01 7.071074e-01 2.705960e-01
    outer loop
        vertex 4.389778e+01 2.300000e+01 1.597646e+01
        vertex 4.292352e+01 2.400000e+01 1.571541e+01
        vertex 4.272458e+01 2.400000e+01 1.619568e+01
    endloop
endfacet
facet normal 6.532815e-01 7.071066e-01 2.705984e-01
    outer loop
        vertex 4.389778e+01 2.300000e+01 1.597646e+01
        vertex 4.272458e+01 2.400000e+01 1.619568e+01
        vertex 4.359808e+01 2.300000e+01 1.670000e+01
    endloop
endfacet
facet normal 5.609854e-01 7.071068e-01 4.304595e-01
    outer loop
        vertex 4.359808e+01 2.300000e+01 1.670000e+01
        vertex 4.272458e+01 2.400000e+01 1.619568e+01
        vertex 4.240811e+01 2.400000e+01 1.660811e+01
    endloop
endfacet
facet normal 5.609848e-01 7.071064e-01 4.304610e-01
    outer loop
        vertex 4.359808e+01 2.300000e+01 1.670000e+01
        vertex 4.240811e+01 2.400000e+01 1.660811e+01
        vertex 4.312132e+01 2.300000e+01 1.732132e+01
    endloop
endfacet
facet normal 4.304610e-01 7.071064e-01 5.609848e-01
    outer loop
        vertex 4.312132e+01 2.300000e+01 1.732132e+01
        vertex 4.240811e+01 2.400000e+01 1.660811e+01
        vertex 4.199569e+01 2.400000e+01 1.692458e+01
    endloop
endfacet
facet normal 4.304610e-01 7.071063e-01 5.609849e-01
    outer loop
        vertex 4.312132e+01 2.300000e+01 1.732132e+01
        vertex 4.199569e+01 2.400000e+01 1.692458e+01
        vertex 4.250000e+01 2.300000e+01 1.779808e+01
    endloop
endfacet
facet normal 2.705990e-01 7.071064e-01 6.532815e-01
    outer loop
        vertex 4.250000e+01 2.300000e+01 1.779808e+01
        vertex 4.199569e+01 2.400000e+01 1.692458e+01
        vertex 4.151541e+01 2.400000e+01 1.712352e+01
    endloop
endfacet
facet normal 2.705990e-01 7.071064e-01 6.532815e-01
    outer loop
        vertex 4.250000e+01 2.300000e+01 1.779808e+01
        vertex 4.151541e+01 2.400000e+01 1.712352e+01
        vertex 4.177646e+01 2.300000e+01 1.809778e+01
    endloop
endfacet
endsolid mag-catch.stl
