solid pusher.stl
facet normal 0.000000e+00 -1.000000e+00 0.000000e+00
    outer loop
        vertex 4.000000e+01 -3.000000e+00 7.680000e+01
        vertex 3.945000e+01 -3.000000e+00 7.860000e+01
        vertex 3.800000e+01 -3.000000e+00 7.860000e+01
    endloop
endfacet
facet normal 0.000000e+00 -1.000000e+00 0.000000e+00
    outer loop
        vertex 3.800000e+01 -3.000000e+00 7.120000e+01
        vertex 4.000000e+01 -3.000000e+00 7.680000e+01
        vertex 3.800000e+01 -3.000000e+00 7.860000e+01
    endloop
endfacet
facet normal 0.000000e+00 -1.000000e+00 0.000000e+00
    outer loop
        vertex 3.800000e+01 -3.000000e+00 7.120000e+01
        vertex 8.400000e+01 -3.000000e+00 7.120000e+01
        vertex 4.000000e+01 -3.000000e+00 7.680000e+01
    endloop
endfacet
facet normal 0.000000e+00 -1.000000e+00 0.000000e+00
    outer loop
        vertex 8.400000e+01 -3.000000e+00 7.120000e+01
        vertex 8.400000e+01 -3.000000e+00 7.680000e+01
        vertex 4.000000e+01 -3.000000e+00 7.680000e+01
    endloop
endfacet
facet normal 0.000000e+00 1.000000e+00 0.000000e+00
    outer loop
        vertex 4.000000e+01 3.000000e+00 7.680000e+01
        vertex 3.800000e+01 3.000000e+00 7.860000e+01
        vertex 3.945000e+01 3.000000e+00 7.860000e+01
    endloop
endfacet
facet normal 0.000000e+00 1.000000e+00 0.000000e+00
    outer loop
        vertex 3.800000e+01 3.000000e+00 7.120000e+01
        vertex 3.800000e+01 3.000000e+00 7.860000e+01
        vertex 4.000000e+01 3.000000e+00 7.680000e+01
    endloop
endfacet
facet normal 0.000000e+00 1.000000e+00 0.000000e+00
    outer loop
        vertex 3.800000e+01 3.000000e+00 7.120000e+01
        vertex 4.000000e+01 3.000000e+00 7.680000e+01
        vertex 8.400000e+01 3.000000e+00 7.120000e+01
    endloop
endfacet
facet normal 0.000000e+00 1.000000e+00 -0.000000e+00
    outer loop
        vertex 8.400000e+01 3.000000e+00 7.120000e+01
        vertex 4.000000e+01 3.000000e+00 7.680000e+01
        vertex 8.400000e+01 3.000000e+00 7.680000e+01
    endloop
endfacet
facet normal 0.000000e+00 0.000000e+00 -1.000000e+00
    outer loop
        vertex 8.400000e+01 -2.800000e+01 7.100000e+01
        vertex 9.350000e+01 -2.410000e+01 7.100000e+01
        vertex 9.600000e+01 -2.800000e+01 7.100000e+01
    endloop
endfacet
facet normal 0.000000e+00 0.000000e+00 -1.000000e+00
    outer loop
        vertex 8.400000e+01 -2.800000e+01 7.100000e+01
        vertex 8.650000e+01 -2.410000e+01 7.100000e+01
        vertex 9.350000e+01 -2.410000e+01 7.100000e+01
    endloop
endfacet
facet normal 0.000000e+00 0.000000e+00 -1.000000e+00
    outer loop
        vertex 9.600000e+01 -2.800000e+01 7.100000e+01
        vertex 9.350000e+01 -2.410000e+01 7.100000e+01
        vertex 9.600000e+01 2.800000e+01 7.100000e+01
    endloop
endfacet
facet normal 0.000000e+00 0.000000e+00 -1.000000e+00
    outer loop
        vertex 8.400000e+01 -2.800000e+01 7.100000e+01
        vertex 8.400000e+01 2.800000e+01 7.100000e+01
        vertex 8.650000e+01 -2.410000e+01 7.100000e+01
    endloop
endfacet
facet normal 0.000000e+00 0.000000e+00 -1.000000e+00
    outer loop
        vertex 9.350000e+01 -2.410000e+01 7.100000e+01
        vertex 9.350000e+01 2.410000e+01 7.100000e+01
        vertex 9.600000e+01 2.800000e+01 7.100000e+01
    endloop
endfacet
facet normal 0.000000e+00 0.000000e+00 -1.000000e+00
    outer loop
        vertex 9.350000e+01 2.410000e+01 7.100000e+01
        vertex 8.400000e+01 2.800000e+01 7.100000e+01
        vertex 9.600000e+01 2.800000e+01 7.100000e+01
    endloop
endfacet
facet normal 0.000000e+00 0.000000e+00 -1.000000e+00
    outer loop
        vertex 8.650000e+01 2.410000e+01 7.100000e+01
        vertex 8.400000e+01 2.800000e+01 7.100000e+01
        vertex 9.350000e+01 2.410000e+01 7.100000e+01
    endloop
endfacet
facet normal 0.000000e+00 0.000000e+00 -1.000000e+00
    outer loop
        vertex 8.650000e+01 -2.410000e+01 7.100000e+01
        vertex 8.400000e+01 2.800000e+01 7.100000e+01
        vertex 8.650000e+01 2.410000e+01 7.100000e+01
    endloop
endfacet
facet normal 0.000000e+00 0.000000e+00 1.000000e+00
    outer loop
        vertex 8.400000e+01 -2.800000e+01 7.700000e+01
        vertex 9.600000e+01 -2.800000e+01 7.700000e+01
        vertex 9.350000e+01 -2.410000e+01 7.700000e+01
    endloop
endfacet
facet normal 0.000000e+00 0.000000e+00 1.000000e+00
    outer loop
        vertex 8.400000e+01 -2.800000e+01 7.700000e+01
        vertex 9.350000e+01 -2.410000e+01 7.700000e+01
        vertex 8.650000e+01 -2.410000e+01 7.700000e+01
    endloop
endfacet
facet normal 0.000000e+00 0.000000e+00 1.000000e+00
    outer loop
        vertex 8.400000e+01 -2.800000e+01 7.700000e+01
        vertex 8.650000e+01 -2.410000e+01 7.700000e+01
        vertex 8.400000e+01 2.800000e+01 7.700000e+01
    endloop
endfacet
facet normal 0.000000e+00 -0.000000e+00 1.000000e+00
    outer loop
        vertex 9.600000e+01 -2.800000e+01 7.700000e+01
        vertex 9.600000e+01 2.800000e+01 7.700000e+01
        vertex 9.350000e+01 -2.410000e+01 7.700000e+01
    endloop
endfacet
facet normal 0.000000e+00 -0.000000e+00 1.000000e+00
    outer loop
        vertex 8.650000e+01 -2.410000e+01 7.700000e+01
        vertex 8.650000e+01 2.410000e+01 7.700000e+01
        vertex 8.400000e+01 2.800000e+01 7.700000e+01
    endloop
endfacet
facet normal 0.000000e+00 -0.000000e+00 1.000000e+00
    outer loop
        vertex 8.650000e+01 2.410000e+01 7.700000e+01
        vertex 9.600000e+01 2.800000e+01 7.700000e+01
        vertex 8.400000e+01 2.800000e+01 7.700000e+01
    endloop
endfacet
facet normal 0.000000e+00 0.000000e+00 1.000000e+00
    outer loop
        vertex 8.650000e+01 2.410000e+01 7.700000e+01
        vertex 9.350000e+01 2.410000e+01 7.700000e+01
        vertex 9.600000e+01 2.800000e+01 7.700000e+01
    endloop
endfacet
facet normal 0.000000e+00 0.000000e+00 1.000000e+00
    outer loop
        vertex 9.350000e+01 -2.410000e+01 7.700000e+01
        vertex 9.600000e+01 2.800000e+01 7.700000e+01
        vertex 9.350000e+01 2.410000e+01 7.700000e+01
    endloop
endfacet
facet normal -1.000000e+00 0.000000e+00 0.000000e+00
    outer loop
        vertex 8.400000e+01 3.000000e+00 7.120000e+01
        vertex 8.400000e+01 2.800000e+01 7.700000e+01
        vertex 8.400000e+01 2.800000e+01 7.100000e+01
    endloop
endfacet
facet normal -1.000000e+00 0.000000e+00 0.000000e+00
    outer loop
        vertex 8.400000e+01 3.000000e+00 7.120000e+01
        vertex 8.400000e+01 3.000000e+00 7.680000e+01
        vertex 8.400000e+01 2.800000e+01 7.700000e+01
    endloop
endfacet
facet normal -1.000000e+00 0.000000e+00 0.000000e+00
    outer loop
        vertex 8.400000e+01 -2.800000e+01 7.700000e+01
        vertex 8.400000e+01 2.800000e+01 7.700000e+01
        vertex 8.400000e+01 3.000000e+00 7.680000e+01
    endloop
endfacet
facet normal -1.000000e+00 0.000000e+00 0.000000e+00
    outer loop
        vertex 8.400000e+01 -2.800000e+01 7.100000e+01
        vertex 8.400000e+01 3.000000e+00 7.120000e+01
        vertex 8.400000e+01 2.800000e+01 7.100000e+01
    endloop
endfacet
facet normal -1.000000e+00 0.000000e+00 0.000000e+00
    outer loop
        vertex 8.400000e+01 -2.800000e+01 7.700000e+01
        vertex 8.400000e+01 3.000000e+00 7.680000e+01
        vertex 8.400000e+01 -3.000000e+00 7.680000e+01
    endloop
endfacet
facet normal -1.000000e+00 0.000000e+00 0.000000e+00
    outer loop
        vertex 8.400000e+01 -2.800000e+01 7.700000e+01
        vertex 8.400000e+01 -3.000000e+00 7.680000e+01
        vertex 8.400000e+01 -3.000000e+00 7.120000e+01
    endloop
endfacet
facet normal -1.000000e+00 0.000000e+00 0.000000e+00
    outer loop
        vertex 8.400000e+01 -2.800000e+01 7.100000e+01
        vertex 8.400000e+01 -3.000000e+00 7.120000e+01
        vertex 8.400000e+01 3.000000e+00 7.120000e+01
    endloop
endfacet
facet normal -1.000000e+00 0.000000e+00 0.000000e+00
    outer loop
        vertex 8.400000e+01 -2.800000e+01 7.100000e+01
        vertex 8.400000e+01 -2.800000e+01 7.700000e+01
        vertex 8.400000e+01 -3.000000e+00 7.120000e+01
    endloop
endfacet
facet normal 0.000000e+00 0.000000e+00 1.000000e+00
    outer loop
        vertex 3.800000e+01 -3.000000e+00 7.860000e+01
        vertex 3.945000e+01 3.000000e+00 7.860000e+01
        vertex 3.800000e+01 3.000000e+00 7.860000e+01
    endloop
endfacet
facet normal 0.000000e+00 0.000000e+00 1.000000e+00
    outer loop
        vertex 3.800000e+01 -3.000000e+00 7.860000e+01
        vertex 3.945000e+01 -3.000000e+00 7.860000e+01
        vertex 3.945000e+01 3.000000e+00 7.860000e+01
    endloop
endfacet
facet normal 9.563515e-01 -0.000000e+00 2.922188e-01
    outer loop
        vertex 4.000000e+01 -3.000000e+00 7.680000e+01
        vertex 4.000000e+01 3.000000e+00 7.680000e+01
        vertex 3.945000e+01 -3.000000e+00 7.860000e+01
    endloop
endfacet
facet normal 9.563515e-01 -0.000000e+00 2.922188e-01
    outer loop
        vertex 3.945000e+01 -3.000000e+00 7.860000e+01
        vertex 4.000000e+01 3.000000e+00 7.680000e+01
        vertex 3.945000e+01 3.000000e+00 7.860000e+01
    endloop
endfacet
facet normal 0.000000e+00 0.000000e+00 1.000000e+00
    outer loop
        vertex 4.000000e+01 -3.000000e+00 7.680000e+01
        vertex 8.400000e+01 -3.000000e+00 7.680000e+01
        vertex 8.400000e+01 3.000000e+00 7.680000e+01
    endloop
endfacet
facet normal 0.000000e+00 0.000000e+00 1.000000e+00
    outer loop
        vertex 4.000000e+01 -3.000000e+00 7.680000e+01
        vertex 8.400000e+01 3.000000e+00 7.680000e+01
        vertex 4.000000e+01 3.000000e+00 7.680000e+01
    endloop
endfacet
facet normal -1.000000e+00 0.000000e+00 0.000000e+00
    outer loop
        vertex 3.700000e+01 -2.000000e+00 7.220000e+01
        vertex 3.700000e+01 -2.000000e+00 7.760000e+01
        vertex 3.700000e+01 2.000000e+00 7.220000e+01
    endloop
endfacet
facet normal -1.000000e+00 0.000000e+00 0.000000e+00
    outer loop
        vertex 3.700000e+01 -2.000000e+00 7.760000e+01
        vertex 3.700000e+01 2.000000e+00 7.760000e+01
        vertex 3.700000e+01 2.000000e+00 7.220000e+01
    endloop
endfacet
facet normal 1.000000e+00 0.000000e+00 0.000000e+00
    outer loop
        vertex 8.650000e+01 -2.410000e+01 7.100000e+01
        vertex 8.650000e+01 2.410000e+01 7.100000e+01
        vertex 8.650000e+01 2.410000e+01 7.700000e+01
    endloop
endfacet
facet normal 1.000000e+00 0.000000e+00 0.000000e+00
    outer loop
        vertex 8.650000e+01 -2.410000e+01 7.100000e+01
        vertex 8.650000e+01 2.410000e+01 7.700000e+01
        vertex 8.650000e+01 -2.410000e+01 7.700000e+01
    endloop
endfacet
facet normal 0.000000e+00 -1.000000e+00 0.000000e+00
    outer loop
        vertex 8.650000e+01 2.410000e+01 7.100000e+01
        vertex 9.350000e+01 2.410000e+01 7.100000e+01
        vertex 9.350000e+01 2.410000e+01 7.700000e+01
    endloop
endfacet
facet normal 0.000000e+00 -1.000000e+00 0.000000e+00
    outer loop
        vertex 8.650000e+01 2.410000e+01 7.100000e+01
        vertex 9.350000e+01 2.410000e+01 7.700000e+01
        vertex 8.650000e+01 2.410000e+01 7.700000e+01
    endloop
endfacet
facet normal -1.000000e+00 0.000000e+00 0.000000e+00
    outer loop
        vertex 9.350000e+01 -2.410000e+01 7.100000e+01
        vertex 9.350000e+01 -2.410000e+01 7.700000e+01
        vertex 9.350000e+01 2.410000e+01 7.100000e+01
    endloop
endfacet
facet normal -1.000000e+00 0.000000e+00 0.000000e+00
    outer loop
        vertex 9.350000e+01 -2.410000e+01 7.700000e+01
        vertex 9.350000e+01 2.410000e+01 7.700000e+01
        vertex 9.350000e+01 2.410000e+01 7.100000e+01
    endloop
endfacet
facet normal 0.000000e+00 1.000000e+00 0.000000e+00
    outer loop
        vertex 8.650000e+01 -2.410000e+01 7.100000e+01
        vertex 8.650000e+01 -2.410000e+01 7.700000e+01
        vertex 9.350000e+01 -2.410000e+01 7.100000e+01
    endloop
endfacet
facet normal 0.000000e+00 1.000000e+00 -0.000000e+00
    outer loop
        vertex 9.350000e+01 -2.410000e+01 7.100000e+01
        vertex 8.650000e+01 -2.410000e+01 7.700000e+01
        vertex 9.350000e+01 -2.410000e+01 7.700000e+01
    endloop
endfacet
facet normal 0.000000e+00 1.000000e+00 0.000000e+00
    outer loop
        vertex 8.400000e+01 2.800000e+01 7.100000e+01
        vertex 8.400000e+01 2.800000e+01 7.700000e+01
        vertex 9.600000e+01 2.800000e+01 7.100000e+01
    endloop
endfacet
facet normal 0.000000e+00 1.000000e+00 -0.000000e+00
    outer loop
        vertex 9.600000e+01 2.800000e+01 7.100000e+01
        vertex 8.400000e+01 2.800000e+01 7.700000e+01
        vertex 9.600000e+01 2.800000e+01 7.700000e+01
    endloop
endfacet
facet normal 1.000000e+00 0.000000e+00 0.000000e+00
    outer loop
        vertex 9.600000e+01 -2.800000e+01 7.100000e+01
        vertex 9.600000e+01 2.800000e+01 7.100000e+01
        vertex 9.600000e+01 -2.800000e+01 7.700000e+01
    endloop
endfacet
facet normal 1.000000e+00 -0.000000e+00 0.000000e+00
    outer loop
        vertex 9.600000e+01 -2.800000e+01 7.700000e+01
        vertex 9.600000e+01 2.800000e+01 7.100000e+01
        vertex 9.600000e+01 2.800000e+01 7.700000e+01
    endloop
endfacet
facet normal 0.000000e+00 -1.000000e+00 0.000000e+00
    outer loop
        vertex 8.400000e+01 -2.800000e+01 7.100000e+01
        vertex 9.600000e+01 -2.800000e+01 7.100000e+01
        vertex 8.400000e+01 -2.800000e+01 7.700000e+01
    endloop
endfacet
facet normal 0.000000e+00 -1.000000e+00 0.000000e+00
    outer loop
        vertex 9.600000e+01 -2.800000e+01 7.100000e+01
        vertex 9.600000e+01 -2.800000e+01 7.700000e+01
        vertex 8.400000e+01 -2.800000e+01 7.700000e+01
    endloop
endfacet
facet normal 0.000000e+00 0.000000e+00 -1.000000e+00
    outer loop
        vertex 3.800000e+01 -3.000000e+00 7.120000e+01
        vertex 8.400000e+01 3.000000e+00 7.120000e+01
        vertex 8.400000e+01 -3.000000e+00 7.120000e+01
    endloop
endfacet
facet normal 0.000000e+00 0.000000e+00 -1.000000e+00
    outer loop
        vertex 3.800000e+01 -3.000000e+00 7.120000e+01
        vertex 3.800000e+01 3.000000e+00 7.120000e+01
        vertex 8.400000e+01 3.000000e+00 7.120000e+01
    endloop
endfacet
facet normal -7.071068e-01 -7.071068e-01 0.000000e+00
    outer loop
        vertex 3.800000e+01 -3.000000e+00 7.120000e+01
        vertex 3.800000e+01 -3.000000e+00 7.860000e+01
        vertex 3.700000e+01 -2.000000e+00 7.220000e+01
    endloop
endfacet
facet normal -7.071068e-01 -7.071068e-01 0.000000e+00
    outer loop
        vertex 3.800000e+01 -3.000000e+00 7.860000e+01
        vertex 3.700000e+01 -2.000000e+00 7.760000e+01
        vertex 3.700000e+01 -2.000000e+00 7.220000e+01
    endloop
endfacet
facet normal -7.071068e-01 0.000000e+00 -7.071068e-01
    outer loop
        vertex 3.800000e+01 -3.000000e+00 7.120000e+01
        vertex 3.700000e+01 -2.000000e+00 7.220000e+01
        vertex 3.800000e+01 3.000000e+00 7.120000e+01
    endloop
endfacet
facet normal -7.071068e-01 0.000000e+00 -7.071068e-01
    outer loop
        vertex 3.700000e+01 -2.000000e+00 7.220000e+01
        vertex 3.700000e+01 2.000000e+00 7.220000e+01
        vertex 3.800000e+01 3.000000e+00 7.120000e+01
    endloop
endfacet
facet normal -7.071068e-01 7.071068e-01 0.000000e+00
    outer loop
        vertex 3.700000e+01 2.000000e+00 7.220000e+01
        vertex 3.800000e+01 3.000000e+00 7.860000e+01
        vertex 3.800000e+01 3.000000e+00 7.120000e+01
    endloop
endfacet
facet normal -7.071068e-01 7.071068e-01 0.000000e+00
    outer loop
        vertex 3.700000e+01 2.000000e+00 7.220000e+01
        vertex 3.700000e+01 2.000000e+00 7.760000e+01
        vertex 3.800000e+01 3.000000e+00 7.860000e+01
    endloop
endfacet
facet normal -7.071068e-01 0.000000e+00 7.071068e-01
    outer loop
        vertex 3.800000e+01 -3.000000e+00 7.860000e+01
        vertex 3.700000e+01 2.000000e+00 7.760000e+01
        vertex 3.700000e+01 -2.000000e+00 7.760000e+01
    endloop
endfacet
facet normal -7.071068e-01 0.000000e+00 7.071068e-01
    outer loop
        vertex 3.800000e+01 -3.000000e+00 7.860000e+01
        vertex 3.800000e+01 3.000000e+00 7.860000e+01
        vertex 3.700000e+01 2.000000e+00 7.760000e+01
    endloop
endfacet
endsolid pusher.stl
