solid upper-pusher-base.stl
facet normal -1.000000e+00 0.000000e+00 0.000000e+00
    outer loop
        vertex 3.950000e+01 -2.925000e+01 6.510000e+01
        vertex 3.950000e+01 -2.925000e+01 6.760000e+01
        vertex 3.950000e+01 2.925000e+01 6.510000e+01
    endloop
endfacet
facet normal -1.000000e+00 0.000000e+00 0.000000e+00
    outer loop
        vertex 3.950000e+01 -2.925000e+01 6.760000e+01
        vertex 3.950000e+01 2.925000e+01 6.760000e+01
        vertex 3.950000e+01 2.925000e+01 6.510000e+01
    endloop
endfacet
facet normal -5.255883e-02 9.986178e-01 0.000000e+00
    outer loop
        vertex 3.950000e+01 2.925000e+01 6.510000e+01
        vertex 3.950000e+01 2.925000e+01 6.760000e+01
        vertex 9.650000e+01 3.225000e+01 6.510000e+01
    endloop
endfacet
facet normal -5.255883e-02 9.986178e-01 0.000000e+00
    outer loop
        vertex 3.950000e+01 2.925000e+01 6.760000e+01
        vertex 9.650000e+01 3.225000e+01 6.760000e+01
        vertex 9.650000e+01 3.225000e+01 6.510000e+01
    endloop
endfacet
facet normal -5.255883e-02 -9.986178e-01 0.000000e+00
    outer loop
        vertex 9.650000e+01 -3.225000e+01 6.510000e+01
        vertex 3.950000e+01 -2.925000e+01 6.760000e+01
        vertex 3.950000e+01 -2.925000e+01 6.510000e+01
    endloop
endfacet
facet normal -5.255883e-02 -9.986178e-01 0.000000e+00
    outer loop
        vertex 9.650000e+01 -3.225000e+01 6.510000e+01
        vertex 9.650000e+01 -3.225000e+01 6.760000e+01
        vertex 3.950000e+01 -2.925000e+01 6.760000e+01
    endloop
endfacet
facet normal 1.000000e+00 0.000000e+00 0.000000e+00
    outer loop
        vertex 9.650000e+01 -3.225000e+01 6.510000e+01
        vertex 9.650000e+01 3.225000e+01 6.510000e+01
        vertex 9.650000e+01 -3.225000e+01 6.760000e+01
    endloop
endfacet
facet normal 1.000000e+00 -0.000000e+00 0.000000e+00
    outer loop
        vertex 9.650000e+01 -3.225000e+01 6.760000e+01
        vertex 9.650000e+01 3.225000e+01 6.510000e+01
        vertex 9.650000e+01 3.225000e+01 6.760000e+01
    endloop
endfacet
facet normal 0.000000e+00 0.000000e+00 1.000000e+00
    outer loop
        vertex 3.950000e+01 2.800000e+01 6.760000e+01
        vertex 9.650000e+01 2.800000e+01 6.760000e+01
        vertex 3.950000e+01 2.925000e+01 6.760000e+01
    endloop
endfacet
facet normal 0.000000e+00 -0.000000e+00 1.000000e+00
    outer loop
        vertex 9.650000e+01 2.800000e+01 6.760000e+01
        vertex 9.650000e+01 3.225000e+01 6.760000e+01
        vertex 3.950000e+01 2.925000e+01 6.760000e+01
    endloop
endfacet
facet normal 0.000000e+00 -0.000000e+00 1.000000e+00
    outer loop
        vertex 9.650000e+01 -3.225000e+01 6.760000e+01
        vertex 9.650000e+01 3.225000e+01 6.760000e+01
        vertex 3.950000e+01 -2.925000e+01 6.760000e+01
    endloop
endfacet
facet normal 0.000000e+00 0.000000e+00 1.000000e+00
    outer loop
        vertex 3.950000e+01 -2.925000e+01 6.760000e+01
        vertex 9.650000e+01 3.225000e+01 6.760000e+01
        vertex 3.950000e+01 2.925000e+01 6.760000e+01
    endloop
endfacet
facet normal 0.000000e+00 0.000000e+00 0.000000e+00
    outer loop
        vertex 9.650000e+01 -2.800000e+01 6.760000e+01
        vertex 9.650000e+01 3.225000e+01 6.760000e+01
        vertex 9.650000e+01 2.800000e+01 6.760000e+01
    endloop
endfacet
facet normal 0.000000e+00 0.000000e+00 0.000000e+00
    outer loop
        vertex 3.950000e+01 -2.800000e+01 6.760000e+01
        vertex 3.950000e+01 2.800000e+01 6.760000e+01
        vertex 3.950000e+01 2.925000e+01 6.760000e+01
    endloop
endfacet
facet normal 0.000000e+00 0.000000e+00 -1.000000e+00
    outer loop
        vertex 9.650000e+01 -2.800000e+01 6.760000e+01
        vertex 3.950000e+01 2.925000e+01 6.760000e+01
        vertex 9.650000e+01 3.225000e+01 6.760000e+01
    endloop
endfacet
facet normal 0.000000e+00 0.000000e+00 -1.000000e+00
    outer loop
        vertex 3.950000e+01 -2.800000e+01 6.760000e+01
        vertex 3.950000e+01 2.925000e+01 6.760000e+01
        vertex 9.650000e+01 -2.800000e+01 6.760000e+01
    endloop
endfacet
facet normal -1.000000e+00 0.000000e+00 0.000000e+00
    outer loop
        vertex 3.950000e+01 -2.800000e+01 6.950000e+01
        vertex 3.950000e+01 2.800000e+01 6.950000e+01
        vertex 3.950000e+01 2.800000e+01 6.760000e+01
    endloop
endfacet
facet normal -1.000000e+00 0.000000e+00 0.000000e+00
    outer loop
        vertex 3.950000e+01 -2.800000e+01 6.760000e+01
        vertex 3.950000e+01 -2.800000e+01 6.950000e+01
        vertex 3.950000e+01 2.800000e+01 6.760000e+01
    endloop
endfacet
facet normal 0.000000e+00 1.000000e+00 -0.000000e+00
    outer loop
        vertex 9.650000e+01 2.800000e+01 6.760000e+01
        vertex 3.950000e+01 2.800000e+01 6.950000e+01
        vertex 9.650000e+01 2.800000e+01 6.950000e+01
    endloop
endfacet
facet normal 0.000000e+00 1.000000e+00 0.000000e+00
    outer loop
        vertex 3.950000e+01 2.800000e+01 6.760000e+01
        vertex 3.950000e+01 2.800000e+01 6.950000e+01
        vertex 9.650000e+01 2.800000e+01 6.760000e+01
    endloop
endfacet
facet normal 0.000000e+00 -1.000000e+00 0.000000e+00
    outer loop
        vertex 9.650000e+01 -2.800000e+01 6.760000e+01
        vertex 9.650000e+01 -2.800000e+01 6.950000e+01
        vertex 3.950000e+01 -2.800000e+01 6.950000e+01
    endloop
endfacet
facet normal 0.000000e+00 -1.000000e+00 0.000000e+00
    outer loop
        vertex 3.950000e+01 -2.800000e+01 6.760000e+01
        vertex 9.650000e+01 -2.800000e+01 6.760000e+01
        vertex 3.950000e+01 -2.800000e+01 6.950000e+01
    endloop
endfacet
facet normal 1.000000e+00 -0.000000e+00 0.000000e+00
    outer loop
        vertex 9.650000e+01 -2.800000e+01 6.950000e+01
        vertex 9.650000e+01 2.800000e+01 6.760000e+01
        vertex 9.650000e+01 2.800000e+01 6.950000e+01
    endloop
endfacet
facet normal 1.000000e+00 0.000000e+00 0.000000e+00
    outer loop
        vertex 9.650000e+01 -2.800000e+01 6.760000e+01
        vertex 9.650000e+01 2.800000e+01 6.760000e+01
        vertex 9.650000e+01 -2.800000e+01 6.950000e+01
    endloop
endfacet
facet normal 0.000000e+00 0.000000e+00 1.000000e+00
    outer loop
        vertex 3.950000e+01 -2.400000e+01 7.100000e+01
        vertex 9.650000e+01 -2.400000e+01 7.100000e+01
        vertex 3.950000e+01 -2.250000e+01 7.100000e+01
    endloop
endfacet
facet normal 0.000000e+00 -0.000000e+00 1.000000e+00
    outer loop
        vertex 9.650000e+01 -2.400000e+01 7.100000e+01
        vertex 9.650000e+01 -2.250000e+01 7.100000e+01
        vertex 3.950000e+01 -2.250000e+01 7.100000e+01
    endloop
endfacet
facet normal 0.000000e+00 0.000000e+00 1.000000e+00
    outer loop
        vertex 3.950000e+01 2.250000e+01 7.100000e+01
        vertex 9.650000e+01 2.400000e+01 7.100000e+01
        vertex 3.950000e+01 2.400000e+01 7.100000e+01
    endloop
endfacet
facet normal 0.000000e+00 0.000000e+00 1.000000e+00
    outer loop
        vertex 3.950000e+01 2.250000e+01 7.100000e+01
        vertex 9.650000e+01 2.250000e+01 7.100000e+01
        vertex 9.650000e+01 2.400000e+01 7.100000e+01
    endloop
endfacet
facet normal -1.000000e+00 0.000000e+00 0.000000e+00
    outer loop
        vertex 3.950000e+01 -2.400000e+01 7.100000e+01
        vertex 3.950000e+01 -2.250000e+01 7.100000e+01
        vertex 3.950000e+01 -2.250000e+01 6.950000e+01
    endloop
endfacet
facet normal -1.000000e+00 0.000000e+00 0.000000e+00
    outer loop
        vertex 3.950000e+01 -2.400000e+01 6.950000e+01
        vertex 3.950000e+01 -2.400000e+01 7.100000e+01
        vertex 3.950000e+01 -2.250000e+01 6.950000e+01
    endloop
endfacet
facet normal 0.000000e+00 1.000000e+00 -0.000000e+00
    outer loop
        vertex 9.650000e+01 -2.250000e+01 6.950000e+01
        vertex 3.950000e+01 -2.250000e+01 7.100000e+01
        vertex 9.650000e+01 -2.250000e+01 7.100000e+01
    endloop
endfacet
facet normal 0.000000e+00 1.000000e+00 0.000000e+00
    outer loop
        vertex 3.950000e+01 -2.250000e+01 6.950000e+01
        vertex 3.950000e+01 -2.250000e+01 7.100000e+01
        vertex 9.650000e+01 -2.250000e+01 6.950000e+01
    endloop
endfacet
facet normal 0.000000e+00 -1.000000e+00 0.000000e+00
    outer loop
        vertex 9.650000e+01 -2.400000e+01 6.950000e+01
        vertex 9.650000e+01 -2.400000e+01 7.100000e+01
        vertex 3.950000e+01 -2.400000e+01 7.100000e+01
    endloop
endfacet
facet normal 0.000000e+00 -1.000000e+00 0.000000e+00
    outer loop
        vertex 3.950000e+01 -2.400000e+01 6.950000e+01
        vertex 9.650000e+01 -2.400000e+01 6.950000e+01
        vertex 3.950000e+01 -2.400000e+01 7.100000e+01
    endloop
endfacet
facet normal 1.000000e+00 -0.000000e+00 0.000000e+00
    outer loop
        vertex 9.650000e+01 -2.400000e+01 7.100000e+01
        vertex 9.650000e+01 -2.250000e+01 6.950000e+01
        vertex 9.650000e+01 -2.250000e+01 7.100000e+01
    endloop
endfacet
facet normal 1.000000e+00 0.000000e+00 0.000000e+00
    outer loop
        vertex 9.650000e+01 -2.400000e+01 6.950000e+01
        vertex 9.650000e+01 -2.250000e+01 6.950000e+01
        vertex 9.650000e+01 -2.400000e+01 7.100000e+01
    endloop
endfacet
facet normal -1.000000e+00 0.000000e+00 0.000000e+00
    outer loop
        vertex 3.950000e+01 2.250000e+01 6.950000e+01
        vertex 3.950000e+01 2.250000e+01 7.100000e+01
        vertex 3.950000e+01 2.400000e+01 7.100000e+01
    endloop
endfacet
facet normal -1.000000e+00 0.000000e+00 0.000000e+00
    outer loop
        vertex 3.950000e+01 2.250000e+01 6.950000e+01
        vertex 3.950000e+01 2.400000e+01 7.100000e+01
        vertex 3.950000e+01 2.400000e+01 6.950000e+01
    endloop
endfacet
facet normal 0.000000e+00 -1.000000e+00 0.000000e+00
    outer loop
        vertex 9.650000e+01 2.250000e+01 6.950000e+01
        vertex 9.650000e+01 2.250000e+01 7.100000e+01
        vertex 3.950000e+01 2.250000e+01 7.100000e+01
    endloop
endfacet
facet normal 0.000000e+00 -1.000000e+00 0.000000e+00
    outer loop
        vertex 3.950000e+01 2.250000e+01 6.950000e+01
        vertex 9.650000e+01 2.250000e+01 6.950000e+01
        vertex 3.950000e+01 2.250000e+01 7.100000e+01
    endloop
endfacet
facet normal 0.000000e+00 1.000000e+00 -0.000000e+00
    outer loop
        vertex 9.650000e+01 2.400000e+01 6.950000e+01
        vertex 3.950000e+01 2.400000e+01 7.100000e+01
        vertex 9.650000e+01 2.400000e+01 7.100000e+01
    endloop
endfacet
facet normal 0.000000e+00 1.000000e+00 0.000000e+00
    outer loop
        vertex 3.950000e+01 2.400000e+01 6.950000e+01
        vertex 3.950000e+01 2.400000e+01 7.100000e+01
        vertex 9.650000e+01 2.400000e+01 6.950000e+01
    endloop
endfacet
facet normal 1.000000e+00 0.000000e+00 0.000000e+00
    outer loop
        vertex 9.650000e+01 2.250000e+01 6.950000e+01
        vertex 9.650000e+01 2.400000e+01 7.100000e+01
        vertex 9.650000e+01 2.250000e+01 7.100000e+01
    endloop
endfacet
facet normal 1.000000e+00 0.000000e+00 0.000000e+00
    outer loop
        vertex 9.650000e+01 2.250000e+01 6.950000e+01
        vertex 9.650000e+01 2.400000e+01 6.950000e+01
        vertex 9.650000e+01 2.400000e+01 7.100000e+01
    endloop
endfacet
facet normal 0.000000e+00 0.000000e+00 1.000000e+00
    outer loop
        vertex 3.950000e+01 1.000000e+00 6.950000e+01
        vertex 9.650000e+01 2.250000e+01 6.950000e+01
        vertex 3.950000e+01 2.250000e+01 6.950000e+01
    endloop
endfacet
facet normal 0.000000e+00 0.000000e+00 1.000000e+00
    outer loop
        vertex 3.950000e+01 1.000000e+00 6.950000e+01
        vertex 9.650000e+01 1.000000e+00 6.950000e+01
        vertex 9.650000e+01 2.250000e+01 6.950000e+01
    endloop
endfacet
facet normal 0.000000e+00 0.000000e+00 1.000000e+00
    outer loop
        vertex 3.950000e+01 2.400000e+01 6.950000e+01
        vertex 9.650000e+01 2.400000e+01 6.950000e+01
        vertex 9.650000e+01 2.800000e+01 6.950000e+01
    endloop
endfacet
facet normal 0.000000e+00 0.000000e+00 1.000000e+00
    outer loop
        vertex 3.950000e+01 2.400000e+01 6.950000e+01
        vertex 9.650000e+01 2.800000e+01 6.950000e+01
        vertex 3.950000e+01 2.800000e+01 6.950000e+01
    endloop
endfacet
facet normal 0.000000e+00 0.000000e+00 1.000000e+00
    outer loop
        vertex 3.950000e+01 -2.800000e+01 6.950000e+01
        vertex 9.650000e+01 -2.400000e+01 6.950000e+01
        vertex 3.950000e+01 -2.400000e+01 6.950000e+01
    endloop
endfacet
facet normal 0.000000e+00 0.000000e+00 1.000000e+00
    outer loop
        vertex 3.950000e+01 -2.800000e+01 6.950000e+01
        vertex 9.650000e+01 -2.800000e+01 6.950000e+01
        vertex 9.650000e+01 -2.400000e+01 6.950000e+01
    endloop
endfacet
facet normal 0.000000e+00 0.000000e+00 0.000000e+00
    outer loop
        vertex 9.650000e+01 -2.800000e+01 6.950000e+01
        vertex 9.650000e+01 2.800000e+01 6.950000e+01
        vertex 9.650000e+01 -2.400000e+01 6.950000e+01
    endloop
endfacet
facet normal 0.000000e+00 0.000000e+00 0.000000e+00
    outer loop
        vertex 9.650000e+01 -2.400000e+01 6.950000e+01
        vertex 9.650000e+01 2.800000e+01 6.950000e+01
        vertex 9.650000e+01 2.400000e+01 6.950000e+01
    endloop
endfacet
facet normal 0.000000e+00 0.000000e+00 0.000000e+00
    outer loop
        vertex 9.650000e+01 -2.400000e+01 6.950000e+01
        vertex 9.650000e+01 2.400000e+01 6.950000e+01
        vertex 9.650000e+01 2.250000e+01 6.950000e+01
    endloop
endfacet
facet normal 0.000000e+00 0.000000e+00 0.000000e+00
    outer loop
        vertex 9.650000e+01 -2.400000e+01 6.950000e+01
        vertex 9.650000e+01 2.250000e+01 6.950000e+01
        vertex 9.650000e+01 1.000000e+00 6.950000e+01
    endloop
endfacet
facet normal 0.000000e+00 0.000000e+00 0.000000e+00
    outer loop
        vertex 9.650000e+01 -2.400000e+01 6.950000e+01
        vertex 9.650000e+01 1.000000e+00 6.950000e+01
        vertex 9.650000e+01 -1.000000e+00 6.950000e+01
    endloop
endfacet
facet normal 0.000000e+00 -0.000000e+00 1.000000e+00
    outer loop
        vertex 9.650000e+01 -2.400000e+01 6.950000e+01
        vertex 9.650000e+01 -1.000000e+00 6.950000e+01
        vertex 3.950000e+01 -1.000000e+00 6.950000e+01
    endloop
endfacet
facet normal 0.000000e+00 0.000000e+00 0.000000e+00
    outer loop
        vertex 3.950000e+01 -1.000000e+00 6.950000e+01
        vertex 3.950000e+01 1.000000e+00 6.950000e+01
        vertex 3.950000e+01 2.250000e+01 6.950000e+01
    endloop
endfacet
facet normal 0.000000e+00 0.000000e+00 0.000000e+00
    outer loop
        vertex 3.950000e+01 -1.000000e+00 6.950000e+01
        vertex 3.950000e+01 2.250000e+01 6.950000e+01
        vertex 3.950000e+01 2.400000e+01 6.950000e+01
    endloop
endfacet
facet normal 0.000000e+00 0.000000e+00 0.000000e+00
    outer loop
        vertex 3.950000e+01 -1.000000e+00 6.950000e+01
        vertex 3.950000e+01 2.400000e+01 6.950000e+01
        vertex 3.950000e+01 2.800000e+01 6.950000e+01
    endloop
endfacet
facet normal 0.000000e+00 0.000000e+00 0.000000e+00
    outer loop
        vertex 3.950000e+01 -2.800000e+01 6.950000e+01
        vertex 3.950000e+01 -1.000000e+00 6.950000e+01
        vertex 3.950000e+01 2.800000e+01 6.950000e+01
    endloop
endfacet
facet normal 0.000000e+00 0.000000e+00 1.000000e+00
    outer loop
        vertex 3.950000e+01 -2.800000e+01 6.950000e+01
        vertex 9.650000e+01 -2.400000e+01 6.950000e+01
        vertex 3.950000e+01 -1.000000e+00 6.950000e+01
    endloop
endfacet
facet normal 0.000000e+00 0.000000e+00 0.000000e+00
    outer loop
        vertex 3.950000e+01 -2.800000e+01 6.950000e+01
        vertex 3.950000e+01 -2.400000e+01 6.950000e+01
        vertex 3.950000e+01 -2.250000e+01 6.950000e+01
    endloop
endfacet
facet normal 0.000000e+00 0.000000e+00 -1.000000e+00
    outer loop
        vertex 3.950000e+01 -2.800000e+01 6.950000e+01
        vertex 3.950000e+01 -2.250000e+01 6.950000e+01
        vertex 9.650000e+01 -2.400000e+01 6.950000e+01
    endloop
endfacet
facet normal 0.000000e+00 0.000000e+00 -1.000000e+00
    outer loop
        vertex 9.650000e+01 -2.400000e+01 6.950000e+01
        vertex 3.950000e+01 -2.250000e+01 6.950000e+01
        vertex 9.650000e+01 -2.250000e+01 6.950000e+01
    endloop
endfacet
facet normal 0.000000e+00 0.000000e+00 1.000000e+00
    outer loop
        vertex 3.950000e+01 -1.000000e+00 7.100000e+01
        vertex 9.650000e+01 -1.000000e+00 7.100000e+01
        vertex 3.950000e+01 1.000000e+00 7.100000e+01
    endloop
endfacet
facet normal 0.000000e+00 -0.000000e+00 1.000000e+00
    outer loop
        vertex 9.650000e+01 -1.000000e+00 7.100000e+01
        vertex 9.650000e+01 1.000000e+00 7.100000e+01
        vertex 3.950000e+01 1.000000e+00 7.100000e+01
    endloop
endfacet
facet normal -1.000000e+00 0.000000e+00 0.000000e+00
    outer loop
        vertex 3.950000e+01 -1.000000e+00 7.100000e+01
        vertex 3.950000e+01 1.000000e+00 7.100000e+01
        vertex 3.950000e+01 1.000000e+00 6.950000e+01
    endloop
endfacet
facet normal -1.000000e+00 0.000000e+00 0.000000e+00
    outer loop
        vertex 3.950000e+01 -1.000000e+00 6.950000e+01
        vertex 3.950000e+01 -1.000000e+00 7.100000e+01
        vertex 3.950000e+01 1.000000e+00 6.950000e+01
    endloop
endfacet
facet normal 0.000000e+00 1.000000e+00 -0.000000e+00
    outer loop
        vertex 9.650000e+01 1.000000e+00 6.950000e+01
        vertex 3.950000e+01 1.000000e+00 7.100000e+01
        vertex 9.650000e+01 1.000000e+00 7.100000e+01
    endloop
endfacet
facet normal 0.000000e+00 1.000000e+00 0.000000e+00
    outer loop
        vertex 3.950000e+01 1.000000e+00 6.950000e+01
        vertex 3.950000e+01 1.000000e+00 7.100000e+01
        vertex 9.650000e+01 1.000000e+00 6.950000e+01
    endloop
endfacet
facet normal 0.000000e+00 -1.000000e+00 0.000000e+00
    outer loop
        vertex 9.650000e+01 -1.000000e+00 6.950000e+01
        vertex 9.650000e+01 -1.000000e+00 7.100000e+01
        vertex 3.950000e+01 -1.000000e+00 7.100000e+01
    endloop
endfacet
facet normal 0.000000e+00 -1.000000e+00 0.000000e+00
    outer loop
        vertex 3.950000e+01 -1.000000e+00 6.950000e+01
        vertex 9.650000e+01 -1.000000e+00 6.950000e+01
        vertex 3.950000e+01 -1.000000e+00 7.100000e+01
    endloop
endfacet
facet normal 1.000000e+00 -0.000000e+00 0.000000e+00
    outer loop
        vertex 9.650000e+01 -1.000000e+00 7.100000e+01
        vertex 9.650000e+01 1.000000e+00 6.950000e+01
        vertex 9.650000e+01 1.000000e+00 7.100000e+01
    endloop
endfacet
facet normal 1.000000e+00 0.000000e+00 0.000000e+00
    outer loop
        vertex 9.650000e+01 -1.000000e+00 6.950000e+01
        vertex 9.650000e+01 1.000000e+00 6.950000e+01
        vertex 9.650000e+01 -1.000000e+00 7.100000e+01
    endloop
endfacet
facet normal 0.000000e+00 0.000000e+00 -1.000000e+00
    outer loop
        vertex 4.500000e+01 1.050000e+01 6.510000e+01
        vertex 3.950000e+01 2.925000e+01 6.510000e+01
        vertex 9.650000e+01 3.225000e+01 6.510000e+01
    endloop
endfacet
facet normal 0.000000e+00 0.000000e+00 -1.000000e+00
    outer loop
        vertex 4.500000e+01 1.050000e+01 6.510000e+01
        vertex 9.650000e+01 3.225000e+01 6.510000e+01
        vertex 9.650000e+01 1.050000e+01 6.510000e+01
    endloop
endfacet
facet normal 0.000000e+00 0.000000e+00 -1.000000e+00
    outer loop
        vertex 3.950000e+01 -2.925000e+01 6.510000e+01
        vertex 3.950000e+01 2.925000e+01 6.510000e+01
        vertex 4.500000e+01 1.050000e+01 6.510000e+01
    endloop
endfacet
facet normal 0.000000e+00 0.000000e+00 -1.000000e+00
    outer loop
        vertex 3.950000e+01 -2.925000e+01 6.510000e+01
        vertex 4.500000e+01 1.050000e+01 6.510000e+01
        vertex 4.500000e+01 -1.060000e+01 6.510000e+01
    endloop
endfacet
facet normal 0.000000e+00 0.000000e+00 -1.000000e+00
    outer loop
        vertex 9.650000e+01 -3.225000e+01 6.510000e+01
        vertex 3.950000e+01 -2.925000e+01 6.510000e+01
        vertex 4.500000e+01 -1.060000e+01 6.510000e+01
    endloop
endfacet
facet normal 0.000000e+00 0.000000e+00 -1.000000e+00
    outer loop
        vertex 9.650000e+01 -3.225000e+01 6.510000e+01
        vertex 4.500000e+01 -1.060000e+01 6.510000e+01
        vertex 9.650000e+01 3.225000e+01 6.510000e+01
    endloop
endfacet
facet normal 0.000000e+00 0.000000e+00 0.000000e+00
    outer loop
        vertex 9.650000e+01 -1.060000e+01 6.510000e+01
        vertex 9.650000e+01 1.050000e+01 6.510000e+01
        vertex 9.650000e+01 3.225000e+01 6.510000e+01
    endloop
endfacet
facet normal 0.000000e+00 0.000000e+00 1.000000e+00
    outer loop
        vertex 4.500000e+01 -1.060000e+01 6.510000e+01
        vertex 9.650000e+01 -1.060000e+01 6.510000e+01
        vertex 9.650000e+01 3.225000e+01 6.510000e+01
    endloop
endfacet
facet normal 0.000000e+00 0.000000e+00 -1.000000e+00
    outer loop
        vertex 4.500000e+01 -1.060000e+01 6.360000e+01
        vertex 4.500000e+01 1.050000e+01 6.360000e+01
        vertex 9.650000e+01 -1.060000e+01 6.360000e+01
    endloop
endfacet
facet normal 0.000000e+00 0.000000e+00 -1.000000e+00
    outer loop
        vertex 9.650000e+01 -1.060000e+01 6.360000e+01
        vertex 4.500000e+01 1.050000e+01 6.360000e+01
        vertex 9.650000e+01 1.050000e+01 6.360000e+01
    endloop
endfacet
facet normal 0.000000e+00 -1.000000e+00 0.000000e+00
    outer loop
        vertex 4.500000e+01 -1.060000e+01 6.360000e+01
        vertex 9.650000e+01 -1.060000e+01 6.360000e+01
        vertex 4.500000e+01 -1.060000e+01 6.510000e+01
    endloop
endfacet
facet normal 0.000000e+00 -1.000000e+00 0.000000e+00
    outer loop
        vertex 9.650000e+01 -1.060000e+01 6.360000e+01
        vertex 9.650000e+01 -1.060000e+01 6.510000e+01
        vertex 4.500000e+01 -1.060000e+01 6.510000e+01
    endloop
endfacet
facet normal 1.000000e+00 0.000000e+00 0.000000e+00
    outer loop
        vertex 9.650000e+01 -1.060000e+01 6.360000e+01
        vertex 9.650000e+01 1.050000e+01 6.360000e+01
        vertex 9.650000e+01 -1.060000e+01 6.510000e+01
    endloop
endfacet
facet normal 1.000000e+00 -0.000000e+00 0.000000e+00
    outer loop
        vertex 9.650000e+01 -1.060000e+01 6.510000e+01
        vertex 9.650000e+01 1.050000e+01 6.360000e+01
        vertex 9.650000e+01 1.050000e+01 6.510000e+01
    endloop
endfacet
facet normal 0.000000e+00 1.000000e+00 0.000000e+00
    outer loop
        vertex 4.500000e+01 1.050000e+01 6.360000e+01
        vertex 9.650000e+01 1.050000e+01 6.510000e+01
        vertex 9.650000e+01 1.050000e+01 6.360000e+01
    endloop
endfacet
facet normal 0.000000e+00 1.000000e+00 0.000000e+00
    outer loop
        vertex 4.500000e+01 1.050000e+01 6.360000e+01
        vertex 4.500000e+01 1.050000e+01 6.510000e+01
        vertex 9.650000e+01 1.050000e+01 6.510000e+01
    endloop
endfacet
facet normal -1.000000e+00 0.000000e+00 0.000000e+00
    outer loop
        vertex 4.500000e+01 -1.060000e+01 6.360000e+01
        vertex 4.500000e+01 1.050000e+01 6.510000e+01
        vertex 4.500000e+01 1.050000e+01 6.360000e+01
    endloop
endfacet
facet normal -1.000000e+00 0.000000e+00 0.000000e+00
    outer loop
        vertex 4.500000e+01 -1.060000e+01 6.360000e+01
        vertex 4.500000e+01 -1.060000e+01 6.510000e+01
        vertex 4.500000e+01 1.050000e+01 6.510000e+01
    endloop
endfacet
endsolid upper-pusher-base.stl
