solid testing-pusher-motor-cage-small.stl
facet normal 0.000000e+00 0.000000e+00 -1.000000e+00
    outer loop
        vertex 4.820000e+01 -9.500000e+00 6.310000e+01
        vertex 4.620000e+01 -8.500000e+00 6.310000e+01
        vertex 4.820000e+01 9.500000e+00 6.310000e+01
    endloop
endfacet
facet normal 0.000000e+00 0.000000e+00 -1.000000e+00
    outer loop
        vertex 4.620000e+01 -8.500000e+00 6.310000e+01
        vertex 4.620000e+01 8.500000e+00 6.310000e+01
        vertex 4.820000e+01 9.500000e+00 6.310000e+01
    endloop
endfacet
facet normal 0.000000e+00 0.000000e+00 -1.000000e+00
    outer loop
        vertex 4.620000e+01 8.500000e+00 6.310000e+01
        vertex 2.920000e+01 9.500000e+00 6.310000e+01
        vertex 4.820000e+01 9.500000e+00 6.310000e+01
    endloop
endfacet
facet normal 0.000000e+00 0.000000e+00 -1.000000e+00
    outer loop
        vertex 2.920000e+01 -9.500000e+00 6.310000e+01
        vertex 4.620000e+01 -8.500000e+00 6.310000e+01
        vertex 4.820000e+01 -9.500000e+00 6.310000e+01
    endloop
endfacet
facet normal 0.000000e+00 0.000000e+00 -1.000000e+00
    outer loop
        vertex 3.120000e+01 8.500000e+00 6.310000e+01
        vertex 2.920000e+01 9.500000e+00 6.310000e+01
        vertex 4.620000e+01 8.500000e+00 6.310000e+01
    endloop
endfacet
facet normal 0.000000e+00 0.000000e+00 -1.000000e+00
    outer loop
        vertex 2.920000e+01 -9.500000e+00 6.310000e+01
        vertex 2.920000e+01 9.500000e+00 6.310000e+01
        vertex 3.120000e+01 8.500000e+00 6.310000e+01
    endloop
endfacet
facet normal 0.000000e+00 0.000000e+00 -1.000000e+00
    outer loop
        vertex 2.920000e+01 -9.500000e+00 6.310000e+01
        vertex 3.120000e+01 8.500000e+00 6.310000e+01
        vertex 3.120000e+01 -8.500000e+00 6.310000e+01
    endloop
endfacet
facet normal 0.000000e+00 0.000000e+00 -1.000000e+00
    outer loop
        vertex 2.920000e+01 -9.500000e+00 6.310000e+01
        vertex 3.120000e+01 -8.500000e+00 6.310000e+01
        vertex 4.620000e+01 -8.500000e+00 6.310000e+01
    endloop
endfacet
facet normal -1.000000e+00 0.000000e+00 0.000000e+00
    outer loop
        vertex 2.920000e+01 5.000000e+00 8.460000e+01
        vertex 2.920000e+01 7.500000e+00 8.910000e+01
        vertex 2.920000e+01 7.500000e+00 8.460000e+01
    endloop
endfacet
facet normal -1.000000e+00 0.000000e+00 0.000000e+00
    outer loop
        vertex 2.920000e+01 -7.500000e+00 8.910000e+01
        vertex 2.920000e+01 7.500000e+00 8.910000e+01
        vertex 2.920000e+01 5.000000e+00 8.460000e+01
    endloop
endfacet
facet normal -1.000000e+00 0.000000e+00 0.000000e+00
    outer loop
        vertex 2.920000e+01 -7.500000e+00 8.910000e+01
        vertex 2.920000e+01 5.000000e+00 8.460000e+01
        vertex 2.920000e+01 5.000000e+00 6.760000e+01
    endloop
endfacet
facet normal -1.000000e+00 0.000000e+00 0.000000e+00
    outer loop
        vertex 2.920000e+01 5.000000e+00 6.760000e+01
        vertex 2.920000e+01 9.500000e+00 6.760000e+01
        vertex 2.920000e+01 9.500000e+00 6.310000e+01
    endloop
endfacet
facet normal -1.000000e+00 0.000000e+00 0.000000e+00
    outer loop
        vertex 2.920000e+01 -9.500000e+00 6.310000e+01
        vertex 2.920000e+01 5.000000e+00 6.760000e+01
        vertex 2.920000e+01 9.500000e+00 6.310000e+01
    endloop
endfacet
facet normal -1.000000e+00 0.000000e+00 0.000000e+00
    outer loop
        vertex 2.920000e+01 -9.500000e+00 6.310000e+01
        vertex 2.920000e+01 -9.500000e+00 6.760000e+01
        vertex 2.920000e+01 -5.000000e+00 6.760000e+01
    endloop
endfacet
facet normal -1.000000e+00 0.000000e+00 0.000000e+00
    outer loop
        vertex 2.920000e+01 -9.500000e+00 6.310000e+01
        vertex 2.920000e+01 -5.000000e+00 6.760000e+01
        vertex 2.920000e+01 5.000000e+00 6.760000e+01
    endloop
endfacet
facet normal -1.000000e+00 0.000000e+00 0.000000e+00
    outer loop
        vertex 2.920000e+01 -7.500000e+00 8.460000e+01
        vertex 2.920000e+01 -7.500000e+00 8.910000e+01
        vertex 2.920000e+01 -5.000000e+00 8.460000e+01
    endloop
endfacet
facet normal -1.000000e+00 0.000000e+00 0.000000e+00
    outer loop
        vertex 2.920000e+01 -5.000000e+00 6.760000e+01
        vertex 2.920000e+01 -5.000000e+00 8.460000e+01
        vertex 2.920000e+01 5.000000e+00 6.760000e+01
    endloop
endfacet
facet normal -1.000000e+00 0.000000e+00 0.000000e+00
    outer loop
        vertex 2.920000e+01 -7.500000e+00 8.910000e+01
        vertex 2.920000e+01 5.000000e+00 6.760000e+01
        vertex 2.920000e+01 -5.000000e+00 8.460000e+01
    endloop
endfacet
facet normal 1.000000e+00 0.000000e+00 0.000000e+00
    outer loop
        vertex 4.820000e+01 -7.500000e+00 8.460000e+01
        vertex 4.820000e+01 -5.000000e+00 8.460000e+01
        vertex 4.820000e+01 -7.500000e+00 8.910000e+01
    endloop
endfacet
facet normal 1.000000e+00 -0.000000e+00 0.000000e+00
    outer loop
        vertex 4.820000e+01 -7.500000e+00 8.910000e+01
        vertex 4.820000e+01 -5.000000e+00 8.460000e+01
        vertex 4.820000e+01 7.500000e+00 8.910000e+01
    endloop
endfacet
facet normal 1.000000e+00 0.000000e+00 0.000000e+00
    outer loop
        vertex 4.820000e+01 -5.000000e+00 6.760000e+01
        vertex 4.820000e+01 7.500000e+00 8.910000e+01
        vertex 4.820000e+01 -5.000000e+00 8.460000e+01
    endloop
endfacet
facet normal 1.000000e+00 0.000000e+00 0.000000e+00
    outer loop
        vertex 4.820000e+01 -9.500000e+00 6.310000e+01
        vertex 4.820000e+01 -5.000000e+00 6.760000e+01
        vertex 4.820000e+01 -9.500000e+00 6.760000e+01
    endloop
endfacet
facet normal 1.000000e+00 0.000000e+00 0.000000e+00
    outer loop
        vertex 4.820000e+01 -9.500000e+00 6.310000e+01
        vertex 4.820000e+01 9.500000e+00 6.310000e+01
        vertex 4.820000e+01 -5.000000e+00 6.760000e+01
    endloop
endfacet
facet normal 1.000000e+00 -0.000000e+00 0.000000e+00
    outer loop
        vertex 4.820000e+01 5.000000e+00 6.760000e+01
        vertex 4.820000e+01 9.500000e+00 6.310000e+01
        vertex 4.820000e+01 9.500000e+00 6.760000e+01
    endloop
endfacet
facet normal 1.000000e+00 -0.000000e+00 0.000000e+00
    outer loop
        vertex 4.820000e+01 -5.000000e+00 6.760000e+01
        vertex 4.820000e+01 9.500000e+00 6.310000e+01
        vertex 4.820000e+01 5.000000e+00 6.760000e+01
    endloop
endfacet
facet normal 1.000000e+00 0.000000e+00 0.000000e+00
    outer loop
        vertex 4.820000e+01 5.000000e+00 8.460000e+01
        vertex 4.820000e+01 7.500000e+00 8.460000e+01
        vertex 4.820000e+01 7.500000e+00 8.910000e+01
    endloop
endfacet
facet normal 1.000000e+00 0.000000e+00 0.000000e+00
    outer loop
        vertex 4.820000e+01 -5.000000e+00 6.760000e+01
        vertex 4.820000e+01 5.000000e+00 8.460000e+01
        vertex 4.820000e+01 7.500000e+00 8.910000e+01
    endloop
endfacet
facet normal 1.000000e+00 0.000000e+00 0.000000e+00
    outer loop
        vertex 4.820000e+01 -5.000000e+00 6.760000e+01
        vertex 4.820000e+01 5.000000e+00 6.760000e+01
        vertex 4.820000e+01 5.000000e+00 8.460000e+01
    endloop
endfacet
facet normal 1.000000e+00 -0.000000e+00 0.000000e+00
    outer loop
        vertex 3.120000e+01 -5.000000e+00 7.360000e+01
        vertex 3.120000e+01 5.000000e+00 6.760000e+01
        vertex 3.120000e+01 5.000000e+00 7.360000e+01
    endloop
endfacet
facet normal 1.000000e+00 -0.000000e+00 0.000000e+00
    outer loop
        vertex 3.120000e+01 5.000000e+00 6.760000e+01
        vertex 3.120000e+01 8.500000e+00 6.310000e+01
        vertex 3.120000e+01 8.500000e+00 6.760000e+01
    endloop
endfacet
facet normal 1.000000e+00 0.000000e+00 0.000000e+00
    outer loop
        vertex 3.120000e+01 -8.500000e+00 6.310000e+01
        vertex 3.120000e+01 8.500000e+00 6.310000e+01
        vertex 3.120000e+01 5.000000e+00 6.760000e+01
    endloop
endfacet
facet normal 1.000000e+00 0.000000e+00 0.000000e+00
    outer loop
        vertex 3.120000e+01 -5.000000e+00 6.760000e+01
        vertex 3.120000e+01 5.000000e+00 6.760000e+01
        vertex 3.120000e+01 -5.000000e+00 7.360000e+01
    endloop
endfacet
facet normal 1.000000e+00 0.000000e+00 0.000000e+00
    outer loop
        vertex 3.120000e+01 -8.500000e+00 6.310000e+01
        vertex 3.120000e+01 5.000000e+00 6.760000e+01
        vertex 3.120000e+01 -5.000000e+00 6.760000e+01
    endloop
endfacet
facet normal 1.000000e+00 0.000000e+00 0.000000e+00
    outer loop
        vertex 3.120000e+01 -8.500000e+00 6.310000e+01
        vertex 3.120000e+01 -5.000000e+00 6.760000e+01
        vertex 3.120000e+01 -8.500000e+00 6.760000e+01
    endloop
endfacet
facet normal -1.000000e+00 0.000000e+00 0.000000e+00
    outer loop
        vertex 4.620000e+01 -5.000000e+00 6.760000e+01
        vertex 4.620000e+01 -5.000000e+00 7.360000e+01
        vertex 4.620000e+01 5.000000e+00 7.360000e+01
    endloop
endfacet
facet normal -1.000000e+00 0.000000e+00 0.000000e+00
    outer loop
        vertex 4.620000e+01 -8.500000e+00 6.310000e+01
        vertex 4.620000e+01 -8.500000e+00 6.760000e+01
        vertex 4.620000e+01 -5.000000e+00 6.760000e+01
    endloop
endfacet
facet normal -1.000000e+00 0.000000e+00 0.000000e+00
    outer loop
        vertex 4.620000e+01 -8.500000e+00 6.310000e+01
        vertex 4.620000e+01 -5.000000e+00 6.760000e+01
        vertex 4.620000e+01 8.500000e+00 6.310000e+01
    endloop
endfacet
facet normal -1.000000e+00 0.000000e+00 0.000000e+00
    outer loop
        vertex 4.620000e+01 -5.000000e+00 6.760000e+01
        vertex 4.620000e+01 5.000000e+00 7.360000e+01
        vertex 4.620000e+01 5.000000e+00 6.760000e+01
    endloop
endfacet
facet normal -1.000000e+00 0.000000e+00 0.000000e+00
    outer loop
        vertex 4.620000e+01 -5.000000e+00 6.760000e+01
        vertex 4.620000e+01 5.000000e+00 6.760000e+01
        vertex 4.620000e+01 8.500000e+00 6.310000e+01
    endloop
endfacet
facet normal -1.000000e+00 0.000000e+00 0.000000e+00
    outer loop
        vertex 4.620000e+01 5.000000e+00 6.760000e+01
        vertex 4.620000e+01 8.500000e+00 6.760000e+01
        vertex 4.620000e+01 8.500000e+00 6.310000e+01
    endloop
endfacet
facet normal -1.000000e+00 0.000000e+00 0.000000e+00
    outer loop
        vertex 4.420000e+01 -5.000000e+00 7.360000e+01
        vertex 4.420000e+01 -5.000000e+00 8.460000e+01
        vertex 4.420000e+01 5.000000e+00 7.360000e+01
    endloop
endfacet
facet normal -1.000000e+00 0.000000e+00 0.000000e+00
    outer loop
        vertex 4.420000e+01 -6.500000e+00 8.460000e+01
        vertex 4.420000e+01 -6.500000e+00 8.810000e+01
        vertex 4.420000e+01 -5.000000e+00 8.460000e+01
    endloop
endfacet
facet normal -1.000000e+00 0.000000e+00 0.000000e+00
    outer loop
        vertex 4.420000e+01 -6.500000e+00 8.810000e+01
        vertex 4.420000e+01 6.500000e+00 8.810000e+01
        vertex 4.420000e+01 -5.000000e+00 8.460000e+01
    endloop
endfacet
facet normal -1.000000e+00 0.000000e+00 0.000000e+00
    outer loop
        vertex 4.420000e+01 5.000000e+00 8.460000e+01
        vertex 4.420000e+01 6.500000e+00 8.810000e+01
        vertex 4.420000e+01 6.500000e+00 8.460000e+01
    endloop
endfacet
facet normal -1.000000e+00 0.000000e+00 0.000000e+00
    outer loop
        vertex 4.420000e+01 -5.000000e+00 8.460000e+01
        vertex 4.420000e+01 6.500000e+00 8.810000e+01
        vertex 4.420000e+01 5.000000e+00 8.460000e+01
    endloop
endfacet
facet normal -1.000000e+00 0.000000e+00 0.000000e+00
    outer loop
        vertex 4.420000e+01 -5.000000e+00 8.460000e+01
        vertex 4.420000e+01 5.000000e+00 8.460000e+01
        vertex 4.420000e+01 5.000000e+00 7.360000e+01
    endloop
endfacet
facet normal 1.000000e+00 0.000000e+00 0.000000e+00
    outer loop
        vertex 3.320000e+01 -5.000000e+00 7.360000e+01
        vertex 3.320000e+01 5.000000e+00 7.360000e+01
        vertex 3.320000e+01 5.000000e+00 8.460000e+01
    endloop
endfacet
facet normal 1.000000e+00 0.000000e+00 0.000000e+00
    outer loop
        vertex 3.320000e+01 5.000000e+00 8.460000e+01
        vertex 3.320000e+01 6.500000e+00 8.460000e+01
        vertex 3.320000e+01 6.500000e+00 8.810000e+01
    endloop
endfacet
facet normal 1.000000e+00 -0.000000e+00 0.000000e+00
    outer loop
        vertex 3.320000e+01 -6.500000e+00 8.810000e+01
        vertex 3.320000e+01 5.000000e+00 8.460000e+01
        vertex 3.320000e+01 6.500000e+00 8.810000e+01
    endloop
endfacet
facet normal 1.000000e+00 0.000000e+00 0.000000e+00
    outer loop
        vertex 3.320000e+01 -6.500000e+00 8.460000e+01
        vertex 3.320000e+01 -5.000000e+00 8.460000e+01
        vertex 3.320000e+01 -6.500000e+00 8.810000e+01
    endloop
endfacet
facet normal 1.000000e+00 0.000000e+00 0.000000e+00
    outer loop
        vertex 3.320000e+01 -6.500000e+00 8.810000e+01
        vertex 3.320000e+01 -5.000000e+00 8.460000e+01
        vertex 3.320000e+01 5.000000e+00 8.460000e+01
    endloop
endfacet
facet normal 1.000000e+00 0.000000e+00 0.000000e+00
    outer loop
        vertex 3.320000e+01 -5.000000e+00 7.360000e+01
        vertex 3.320000e+01 5.000000e+00 8.460000e+01
        vertex 3.320000e+01 -5.000000e+00 8.460000e+01
    endloop
endfacet
facet normal 0.000000e+00 0.000000e+00 1.000000e+00
    outer loop
        vertex 4.620000e+01 -8.500000e+00 6.760000e+01
        vertex 4.820000e+01 -5.000000e+00 6.760000e+01
        vertex 4.620000e+01 -5.000000e+00 6.760000e+01
    endloop
endfacet
facet normal 0.000000e+00 -0.000000e+00 1.000000e+00
    outer loop
        vertex 3.120000e+01 -8.500000e+00 6.760000e+01
        vertex 3.120000e+01 -5.000000e+00 6.760000e+01
        vertex 2.920000e+01 -5.000000e+00 6.760000e+01
    endloop
endfacet
facet normal 0.000000e+00 -0.000000e+00 1.000000e+00
    outer loop
        vertex 4.820000e+01 -9.500000e+00 6.760000e+01
        vertex 4.820000e+01 -5.000000e+00 6.760000e+01
        vertex 4.620000e+01 -8.500000e+00 6.760000e+01
    endloop
endfacet
facet normal 0.000000e+00 0.000000e+00 1.000000e+00
    outer loop
        vertex 2.920000e+01 -9.500000e+00 6.760000e+01
        vertex 4.820000e+01 -9.500000e+00 6.760000e+01
        vertex 4.620000e+01 -8.500000e+00 6.760000e+01
    endloop
endfacet
facet normal 0.000000e+00 0.000000e+00 1.000000e+00
    outer loop
        vertex 2.920000e+01 -9.500000e+00 6.760000e+01
        vertex 4.620000e+01 -8.500000e+00 6.760000e+01
        vertex 3.120000e+01 -8.500000e+00 6.760000e+01
    endloop
endfacet
facet normal 0.000000e+00 0.000000e+00 1.000000e+00
    outer loop
        vertex 2.920000e+01 -9.500000e+00 6.760000e+01
        vertex 3.120000e+01 -8.500000e+00 6.760000e+01
        vertex 2.920000e+01 -5.000000e+00 6.760000e+01
    endloop
endfacet
facet normal 0.000000e+00 -1.000000e+00 0.000000e+00
    outer loop
        vertex 3.320000e+01 -5.000000e+00 7.360000e+01
        vertex 3.320000e+01 -5.000000e+00 8.460000e+01
        vertex 2.920000e+01 -5.000000e+00 8.460000e+01
    endloop
endfacet
facet normal 0.000000e+00 -1.000000e+00 0.000000e+00
    outer loop
        vertex 2.920000e+01 -5.000000e+00 6.760000e+01
        vertex 3.120000e+01 -5.000000e+00 6.760000e+01
        vertex 3.120000e+01 -5.000000e+00 7.360000e+01
    endloop
endfacet
facet normal 0.000000e+00 -1.000000e+00 0.000000e+00
    outer loop
        vertex 2.920000e+01 -5.000000e+00 6.760000e+01
        vertex 3.120000e+01 -5.000000e+00 7.360000e+01
        vertex 2.920000e+01 -5.000000e+00 8.460000e+01
    endloop
endfacet
facet normal 0.000000e+00 -1.000000e+00 0.000000e+00
    outer loop
        vertex 3.120000e+01 -5.000000e+00 7.360000e+01
        vertex 3.320000e+01 -5.000000e+00 7.360000e+01
        vertex 2.920000e+01 -5.000000e+00 8.460000e+01
    endloop
endfacet
facet normal 0.000000e+00 -1.000000e+00 0.000000e+00
    outer loop
        vertex 4.420000e+01 -5.000000e+00 7.360000e+01
        vertex 4.820000e+01 -5.000000e+00 8.460000e+01
        vertex 4.420000e+01 -5.000000e+00 8.460000e+01
    endloop
endfacet
facet normal 0.000000e+00 -1.000000e+00 0.000000e+00
    outer loop
        vertex 4.620000e+01 -5.000000e+00 6.760000e+01
        vertex 4.820000e+01 -5.000000e+00 6.760000e+01
        vertex 4.620000e+01 -5.000000e+00 7.360000e+01
    endloop
endfacet
facet normal 0.000000e+00 -1.000000e+00 0.000000e+00
    outer loop
        vertex 4.420000e+01 -5.000000e+00 7.360000e+01
        vertex 4.620000e+01 -5.000000e+00 7.360000e+01
        vertex 4.820000e+01 -5.000000e+00 8.460000e+01
    endloop
endfacet
facet normal 0.000000e+00 -1.000000e+00 0.000000e+00
    outer loop
        vertex 4.820000e+01 -5.000000e+00 6.760000e+01
        vertex 4.820000e+01 -5.000000e+00 8.460000e+01
        vertex 4.620000e+01 -5.000000e+00 7.360000e+01
    endloop
endfacet
facet normal 0.000000e+00 0.000000e+00 -1.000000e+00
    outer loop
        vertex 4.420000e+01 -6.500000e+00 8.460000e+01
        vertex 4.420000e+01 -5.000000e+00 8.460000e+01
        vertex 4.820000e+01 -5.000000e+00 8.460000e+01
    endloop
endfacet
facet normal 0.000000e+00 0.000000e+00 -1.000000e+00
    outer loop
        vertex 3.320000e+01 -6.500000e+00 8.460000e+01
        vertex 2.920000e+01 -5.000000e+00 8.460000e+01
        vertex 3.320000e+01 -5.000000e+00 8.460000e+01
    endloop
endfacet
facet normal 0.000000e+00 0.000000e+00 -1.000000e+00
    outer loop
        vertex 2.920000e+01 -7.500000e+00 8.460000e+01
        vertex 2.920000e+01 -5.000000e+00 8.460000e+01
        vertex 3.320000e+01 -6.500000e+00 8.460000e+01
    endloop
endfacet
facet normal 0.000000e+00 0.000000e+00 -1.000000e+00
    outer loop
        vertex 2.920000e+01 -7.500000e+00 8.460000e+01
        vertex 3.320000e+01 -6.500000e+00 8.460000e+01
        vertex 4.820000e+01 -7.500000e+00 8.460000e+01
    endloop
endfacet
facet normal 0.000000e+00 0.000000e+00 -1.000000e+00
    outer loop
        vertex 4.820000e+01 -7.500000e+00 8.460000e+01
        vertex 3.320000e+01 -6.500000e+00 8.460000e+01
        vertex 4.420000e+01 -6.500000e+00 8.460000e+01
    endloop
endfacet
facet normal 0.000000e+00 0.000000e+00 -1.000000e+00
    outer loop
        vertex 4.820000e+01 -7.500000e+00 8.460000e+01
        vertex 4.420000e+01 -6.500000e+00 8.460000e+01
        vertex 4.820000e+01 -5.000000e+00 8.460000e+01
    endloop
endfacet
facet normal 0.000000e+00 0.000000e+00 1.000000e+00
    outer loop
        vertex 2.920000e+01 5.000000e+00 6.760000e+01
        vertex 3.120000e+01 5.000000e+00 6.760000e+01
        vertex 3.120000e+01 8.500000e+00 6.760000e+01
    endloop
endfacet
facet normal 0.000000e+00 0.000000e+00 1.000000e+00
    outer loop
        vertex 4.620000e+01 5.000000e+00 6.760000e+01
        vertex 4.820000e+01 5.000000e+00 6.760000e+01
        vertex 4.620000e+01 8.500000e+00 6.760000e+01
    endloop
endfacet
facet normal 0.000000e+00 0.000000e+00 1.000000e+00
    outer loop
        vertex 2.920000e+01 5.000000e+00 6.760000e+01
        vertex 3.120000e+01 8.500000e+00 6.760000e+01
        vertex 2.920000e+01 9.500000e+00 6.760000e+01
    endloop
endfacet
facet normal 0.000000e+00 -0.000000e+00 1.000000e+00
    outer loop
        vertex 3.120000e+01 8.500000e+00 6.760000e+01
        vertex 4.820000e+01 9.500000e+00 6.760000e+01
        vertex 2.920000e+01 9.500000e+00 6.760000e+01
    endloop
endfacet
facet normal 0.000000e+00 0.000000e+00 1.000000e+00
    outer loop
        vertex 3.120000e+01 8.500000e+00 6.760000e+01
        vertex 4.620000e+01 8.500000e+00 6.760000e+01
        vertex 4.820000e+01 9.500000e+00 6.760000e+01
    endloop
endfacet
facet normal 0.000000e+00 -0.000000e+00 1.000000e+00
    outer loop
        vertex 4.820000e+01 5.000000e+00 6.760000e+01
        vertex 4.820000e+01 9.500000e+00 6.760000e+01
        vertex 4.620000e+01 8.500000e+00 6.760000e+01
    endloop
endfacet
facet normal 0.000000e+00 1.000000e+00 -0.000000e+00
    outer loop
        vertex 3.320000e+01 5.000000e+00 7.360000e+01
        vertex 2.920000e+01 5.000000e+00 8.460000e+01
        vertex 3.320000e+01 5.000000e+00 8.460000e+01
    endloop
endfacet
facet normal 0.000000e+00 1.000000e+00 0.000000e+00
    outer loop
        vertex 2.920000e+01 5.000000e+00 6.760000e+01
        vertex 3.120000e+01 5.000000e+00 7.360000e+01
        vertex 3.120000e+01 5.000000e+00 6.760000e+01
    endloop
endfacet
facet normal 0.000000e+00 1.000000e+00 -0.000000e+00
    outer loop
        vertex 3.120000e+01 5.000000e+00 7.360000e+01
        vertex 2.920000e+01 5.000000e+00 8.460000e+01
        vertex 3.320000e+01 5.000000e+00 7.360000e+01
    endloop
endfacet
facet normal 0.000000e+00 1.000000e+00 0.000000e+00
    outer loop
        vertex 2.920000e+01 5.000000e+00 6.760000e+01
        vertex 2.920000e+01 5.000000e+00 8.460000e+01
        vertex 3.120000e+01 5.000000e+00 7.360000e+01
    endloop
endfacet
facet normal 0.000000e+00 1.000000e+00 0.000000e+00
    outer loop
        vertex 4.420000e+01 5.000000e+00 7.360000e+01
        vertex 4.420000e+01 5.000000e+00 8.460000e+01
        vertex 4.820000e+01 5.000000e+00 8.460000e+01
    endloop
endfacet
facet normal 0.000000e+00 1.000000e+00 0.000000e+00
    outer loop
        vertex 4.620000e+01 5.000000e+00 6.760000e+01
        vertex 4.620000e+01 5.000000e+00 7.360000e+01
        vertex 4.820000e+01 5.000000e+00 6.760000e+01
    endloop
endfacet
facet normal 0.000000e+00 1.000000e+00 -0.000000e+00
    outer loop
        vertex 4.820000e+01 5.000000e+00 6.760000e+01
        vertex 4.620000e+01 5.000000e+00 7.360000e+01
        vertex 4.820000e+01 5.000000e+00 8.460000e+01
    endloop
endfacet
facet normal 0.000000e+00 1.000000e+00 0.000000e+00
    outer loop
        vertex 4.420000e+01 5.000000e+00 7.360000e+01
        vertex 4.820000e+01 5.000000e+00 8.460000e+01
        vertex 4.620000e+01 5.000000e+00 7.360000e+01
    endloop
endfacet
facet normal 0.000000e+00 0.000000e+00 -1.000000e+00
    outer loop
        vertex 4.420000e+01 5.000000e+00 8.460000e+01
        vertex 4.420000e+01 6.500000e+00 8.460000e+01
        vertex 4.820000e+01 5.000000e+00 8.460000e+01
    endloop
endfacet
facet normal 0.000000e+00 0.000000e+00 -1.000000e+00
    outer loop
        vertex 2.920000e+01 5.000000e+00 8.460000e+01
        vertex 3.320000e+01 6.500000e+00 8.460000e+01
        vertex 3.320000e+01 5.000000e+00 8.460000e+01
    endloop
endfacet
facet normal 0.000000e+00 0.000000e+00 -1.000000e+00
    outer loop
        vertex 2.920000e+01 5.000000e+00 8.460000e+01
        vertex 2.920000e+01 7.500000e+00 8.460000e+01
        vertex 3.320000e+01 6.500000e+00 8.460000e+01
    endloop
endfacet
facet normal 0.000000e+00 0.000000e+00 -1.000000e+00
    outer loop
        vertex 3.320000e+01 6.500000e+00 8.460000e+01
        vertex 2.920000e+01 7.500000e+00 8.460000e+01
        vertex 4.820000e+01 7.500000e+00 8.460000e+01
    endloop
endfacet
facet normal 0.000000e+00 0.000000e+00 -1.000000e+00
    outer loop
        vertex 4.820000e+01 5.000000e+00 8.460000e+01
        vertex 4.420000e+01 6.500000e+00 8.460000e+01
        vertex 4.820000e+01 7.500000e+00 8.460000e+01
    endloop
endfacet
facet normal 0.000000e+00 0.000000e+00 -1.000000e+00
    outer loop
        vertex 3.320000e+01 6.500000e+00 8.460000e+01
        vertex 4.820000e+01 7.500000e+00 8.460000e+01
        vertex 4.420000e+01 6.500000e+00 8.460000e+01
    endloop
endfacet
facet normal 0.000000e+00 1.000000e+00 0.000000e+00
    outer loop
        vertex 3.120000e+01 -8.500000e+00 6.310000e+01
        vertex 3.120000e+01 -8.500000e+00 6.760000e+01
        vertex 3.620000e+01 -8.500000e+00 6.710000e+01
    endloop
endfacet
facet normal 0.000000e+00 1.000000e+00 0.000000e+00
    outer loop
        vertex 3.120000e+01 -8.500000e+00 6.310000e+01
        vertex 3.620000e+01 -8.500000e+00 6.710000e+01
        vertex 3.620000e+01 -8.500000e+00 6.365000e+01
    endloop
endfacet
facet normal 0.000000e+00 1.000000e+00 0.000000e+00
    outer loop
        vertex 3.120000e+01 -8.500000e+00 6.310000e+01
        vertex 3.620000e+01 -8.500000e+00 6.365000e+01
        vertex 4.620000e+01 -8.500000e+00 6.310000e+01
    endloop
endfacet
facet normal 0.000000e+00 1.000000e+00 -0.000000e+00
    outer loop
        vertex 3.620000e+01 -8.500000e+00 6.710000e+01
        vertex 3.120000e+01 -8.500000e+00 6.760000e+01
        vertex 4.620000e+01 -8.500000e+00 6.760000e+01
    endloop
endfacet
facet normal 0.000000e+00 1.000000e+00 0.000000e+00
    outer loop
        vertex 4.620000e+01 -8.500000e+00 6.310000e+01
        vertex 3.620000e+01 -8.500000e+00 6.365000e+01
        vertex 4.120000e+01 -8.500000e+00 6.365000e+01
    endloop
endfacet
facet normal 0.000000e+00 1.000000e+00 -0.000000e+00
    outer loop
        vertex 4.620000e+01 -8.500000e+00 6.310000e+01
        vertex 4.120000e+01 -8.500000e+00 6.365000e+01
        vertex 4.620000e+01 -8.500000e+00 6.760000e+01
    endloop
endfacet
facet normal 0.000000e+00 1.000000e+00 0.000000e+00
    outer loop
        vertex 4.120000e+01 -8.500000e+00 6.365000e+01
        vertex 4.120000e+01 -8.500000e+00 6.710000e+01
        vertex 4.620000e+01 -8.500000e+00 6.760000e+01
    endloop
endfacet
facet normal 0.000000e+00 1.000000e+00 0.000000e+00
    outer loop
        vertex 3.620000e+01 -8.500000e+00 6.710000e+01
        vertex 4.620000e+01 -8.500000e+00 6.760000e+01
        vertex 4.120000e+01 -8.500000e+00 6.710000e+01
    endloop
endfacet
facet normal 0.000000e+00 -1.000000e+00 0.000000e+00
    outer loop
        vertex 3.120000e+01 8.500000e+00 6.310000e+01
        vertex 3.620000e+01 8.500000e+00 6.710000e+01
        vertex 3.120000e+01 8.500000e+00 6.760000e+01
    endloop
endfacet
facet normal 0.000000e+00 -1.000000e+00 0.000000e+00
    outer loop
        vertex 3.120000e+01 8.500000e+00 6.310000e+01
        vertex 3.620000e+01 8.500000e+00 6.365000e+01
        vertex 3.620000e+01 8.500000e+00 6.710000e+01
    endloop
endfacet
facet normal 0.000000e+00 -1.000000e+00 0.000000e+00
    outer loop
        vertex 3.120000e+01 8.500000e+00 6.310000e+01
        vertex 4.620000e+01 8.500000e+00 6.310000e+01
        vertex 3.620000e+01 8.500000e+00 6.365000e+01
    endloop
endfacet
facet normal 0.000000e+00 -1.000000e+00 0.000000e+00
    outer loop
        vertex 3.620000e+01 8.500000e+00 6.710000e+01
        vertex 4.620000e+01 8.500000e+00 6.760000e+01
        vertex 3.120000e+01 8.500000e+00 6.760000e+01
    endloop
endfacet
facet normal 0.000000e+00 -1.000000e+00 0.000000e+00
    outer loop
        vertex 4.620000e+01 8.500000e+00 6.310000e+01
        vertex 4.120000e+01 8.500000e+00 6.365000e+01
        vertex 3.620000e+01 8.500000e+00 6.365000e+01
    endloop
endfacet
facet normal 0.000000e+00 -1.000000e+00 0.000000e+00
    outer loop
        vertex 4.620000e+01 8.500000e+00 6.310000e+01
        vertex 4.620000e+01 8.500000e+00 6.760000e+01
        vertex 4.120000e+01 8.500000e+00 6.365000e+01
    endloop
endfacet
facet normal 0.000000e+00 -1.000000e+00 0.000000e+00
    outer loop
        vertex 3.620000e+01 8.500000e+00 6.710000e+01
        vertex 4.120000e+01 8.500000e+00 6.710000e+01
        vertex 4.620000e+01 8.500000e+00 6.760000e+01
    endloop
endfacet
facet normal 0.000000e+00 -1.000000e+00 0.000000e+00
    outer loop
        vertex 4.120000e+01 8.500000e+00 6.365000e+01
        vertex 4.620000e+01 8.500000e+00 6.760000e+01
        vertex 4.120000e+01 8.500000e+00 6.710000e+01
    endloop
endfacet
facet normal 0.000000e+00 -0.000000e+00 1.000000e+00
    outer loop
        vertex 4.820000e+01 -7.500000e+00 8.910000e+01
        vertex 4.820000e+01 7.500000e+00 8.910000e+01
        vertex 4.270000e+01 -2.750000e+00 8.910000e+01
    endloop
endfacet
facet normal 0.000000e+00 0.000000e+00 1.000000e+00
    outer loop
        vertex 2.920000e+01 -7.500000e+00 8.910000e+01
        vertex 4.820000e+01 -7.500000e+00 8.910000e+01
        vertex 4.270000e+01 -2.750000e+00 8.910000e+01
    endloop
endfacet
facet normal 0.000000e+00 0.000000e+00 1.000000e+00
    outer loop
        vertex 4.270000e+01 -2.750000e+00 8.910000e+01
        vertex 4.820000e+01 7.500000e+00 8.910000e+01
        vertex 4.270000e+01 2.750000e+00 8.910000e+01
    endloop
endfacet
facet normal 0.000000e+00 -0.000000e+00 1.000000e+00
    outer loop
        vertex 4.270000e+01 2.750000e+00 8.910000e+01
        vertex 4.820000e+01 7.500000e+00 8.910000e+01
        vertex 2.920000e+01 7.500000e+00 8.910000e+01
    endloop
endfacet
facet normal 0.000000e+00 0.000000e+00 1.000000e+00
    outer loop
        vertex 2.920000e+01 -7.500000e+00 8.910000e+01
        vertex 4.270000e+01 -2.750000e+00 8.910000e+01
        vertex 3.470000e+01 -2.750000e+00 8.910000e+01
    endloop
endfacet
facet normal 0.000000e+00 0.000000e+00 1.000000e+00
    outer loop
        vertex 2.920000e+01 -7.500000e+00 8.910000e+01
        vertex 3.470000e+01 -2.750000e+00 8.910000e+01
        vertex 2.920000e+01 7.500000e+00 8.910000e+01
    endloop
endfacet
facet normal 0.000000e+00 -0.000000e+00 1.000000e+00
    outer loop
        vertex 3.470000e+01 -2.750000e+00 8.910000e+01
        vertex 3.470000e+01 2.750000e+00 8.910000e+01
        vertex 2.920000e+01 7.500000e+00 8.910000e+01
    endloop
endfacet
facet normal 0.000000e+00 -0.000000e+00 1.000000e+00
    outer loop
        vertex 3.470000e+01 2.750000e+00 8.910000e+01
        vertex 4.270000e+01 2.750000e+00 8.910000e+01
        vertex 2.920000e+01 7.500000e+00 8.910000e+01
    endloop
endfacet
facet normal 0.000000e+00 0.000000e+00 -1.000000e+00
    outer loop
        vertex 3.320000e+01 -6.500000e+00 8.810000e+01
        vertex 4.270000e+01 -2.750000e+00 8.810000e+01
        vertex 4.420000e+01 -6.500000e+00 8.810000e+01
    endloop
endfacet
facet normal 0.000000e+00 0.000000e+00 -1.000000e+00
    outer loop
        vertex 3.320000e+01 -6.500000e+00 8.810000e+01
        vertex 3.470000e+01 -2.750000e+00 8.810000e+01
        vertex 4.270000e+01 -2.750000e+00 8.810000e+01
    endloop
endfacet
facet normal 0.000000e+00 0.000000e+00 -1.000000e+00
    outer loop
        vertex 4.420000e+01 -6.500000e+00 8.810000e+01
        vertex 4.270000e+01 -2.750000e+00 8.810000e+01
        vertex 4.420000e+01 6.500000e+00 8.810000e+01
    endloop
endfacet
facet normal 0.000000e+00 0.000000e+00 -1.000000e+00
    outer loop
        vertex 3.320000e+01 -6.500000e+00 8.810000e+01
        vertex 3.320000e+01 6.500000e+00 8.810000e+01
        vertex 3.470000e+01 -2.750000e+00 8.810000e+01
    endloop
endfacet
facet normal 0.000000e+00 0.000000e+00 -1.000000e+00
    outer loop
        vertex 4.270000e+01 -2.750000e+00 8.810000e+01
        vertex 4.270000e+01 2.750000e+00 8.810000e+01
        vertex 4.420000e+01 6.500000e+00 8.810000e+01
    endloop
endfacet
facet normal 0.000000e+00 0.000000e+00 -1.000000e+00
    outer loop
        vertex 4.270000e+01 2.750000e+00 8.810000e+01
        vertex 3.320000e+01 6.500000e+00 8.810000e+01
        vertex 4.420000e+01 6.500000e+00 8.810000e+01
    endloop
endfacet
facet normal 0.000000e+00 0.000000e+00 -1.000000e+00
    outer loop
        vertex 3.470000e+01 2.750000e+00 8.810000e+01
        vertex 3.320000e+01 6.500000e+00 8.810000e+01
        vertex 4.270000e+01 2.750000e+00 8.810000e+01
    endloop
endfacet
facet normal 0.000000e+00 0.000000e+00 -1.000000e+00
    outer loop
        vertex 3.470000e+01 -2.750000e+00 8.810000e+01
        vertex 3.320000e+01 6.500000e+00 8.810000e+01
        vertex 3.470000e+01 2.750000e+00 8.810000e+01
    endloop
endfacet
facet normal 0.000000e+00 -1.000000e+00 0.000000e+00
    outer loop
        vertex 3.470000e+01 2.750000e+00 8.810000e+01
        vertex 4.270000e+01 2.750000e+00 8.910000e+01
        vertex 3.470000e+01 2.750000e+00 8.910000e+01
    endloop
endfacet
facet normal 0.000000e+00 -1.000000e+00 0.000000e+00
    outer loop
        vertex 3.470000e+01 2.750000e+00 8.810000e+01
        vertex 4.270000e+01 2.750000e+00 8.810000e+01
        vertex 4.270000e+01 2.750000e+00 8.910000e+01
    endloop
endfacet
facet normal -1.000000e+00 0.000000e+00 0.000000e+00
    outer loop
        vertex 4.270000e+01 -2.750000e+00 8.910000e+01
        vertex 4.270000e+01 2.750000e+00 8.910000e+01
        vertex 4.270000e+01 2.750000e+00 8.810000e+01
    endloop
endfacet
facet normal -1.000000e+00 0.000000e+00 0.000000e+00
    outer loop
        vertex 4.270000e+01 -2.750000e+00 8.810000e+01
        vertex 4.270000e+01 -2.750000e+00 8.910000e+01
        vertex 4.270000e+01 2.750000e+00 8.810000e+01
    endloop
endfacet
facet normal 1.000000e+00 0.000000e+00 0.000000e+00
    outer loop
        vertex 3.470000e+01 -2.750000e+00 8.810000e+01
        vertex 3.470000e+01 2.750000e+00 8.910000e+01
        vertex 3.470000e+01 -2.750000e+00 8.910000e+01
    endloop
endfacet
facet normal 1.000000e+00 0.000000e+00 0.000000e+00
    outer loop
        vertex 3.470000e+01 -2.750000e+00 8.810000e+01
        vertex 3.470000e+01 2.750000e+00 8.810000e+01
        vertex 3.470000e+01 2.750000e+00 8.910000e+01
    endloop
endfacet
facet normal 0.000000e+00 1.000000e+00 -0.000000e+00
    outer loop
        vertex 4.270000e+01 -2.750000e+00 8.810000e+01
        vertex 3.470000e+01 -2.750000e+00 8.910000e+01
        vertex 4.270000e+01 -2.750000e+00 8.910000e+01
    endloop
endfacet
facet normal 0.000000e+00 1.000000e+00 0.000000e+00
    outer loop
        vertex 3.470000e+01 -2.750000e+00 8.810000e+01
        vertex 3.470000e+01 -2.750000e+00 8.910000e+01
        vertex 4.270000e+01 -2.750000e+00 8.810000e+01
    endloop
endfacet
facet normal 1.000000e+00 -0.000000e+00 0.000000e+00
    outer loop
        vertex 4.120000e+01 7.000000e+00 6.710000e+01
        vertex 4.120000e+01 8.000000e+00 6.365000e+01
        vertex 4.120000e+01 8.500000e+00 6.710000e+01
    endloop
endfacet
facet normal 1.000000e+00 0.000000e+00 0.000000e+00
    outer loop
        vertex 4.120000e+01 8.000000e+00 6.365000e+01
        vertex 4.120000e+01 8.500000e+00 6.365000e+01
        vertex 4.120000e+01 8.500000e+00 6.710000e+01
    endloop
endfacet
facet normal 0.000000e+00 0.000000e+00 1.000000e+00
    outer loop
        vertex 3.620000e+01 7.000000e+00 6.710000e+01
        vertex 4.120000e+01 7.000000e+00 6.710000e+01
        vertex 4.120000e+01 8.500000e+00 6.710000e+01
    endloop
endfacet
facet normal 0.000000e+00 0.000000e+00 1.000000e+00
    outer loop
        vertex 3.620000e+01 7.000000e+00 6.710000e+01
        vertex 4.120000e+01 8.500000e+00 6.710000e+01
        vertex 3.620000e+01 8.500000e+00 6.710000e+01
    endloop
endfacet
facet normal 0.000000e+00 0.000000e+00 -1.000000e+00
    outer loop
        vertex 3.620000e+01 8.000000e+00 6.365000e+01
        vertex 4.120000e+01 8.500000e+00 6.365000e+01
        vertex 4.120000e+01 8.000000e+00 6.365000e+01
    endloop
endfacet
facet normal 0.000000e+00 0.000000e+00 -1.000000e+00
    outer loop
        vertex 3.620000e+01 8.000000e+00 6.365000e+01
        vertex 3.620000e+01 8.500000e+00 6.365000e+01
        vertex 4.120000e+01 8.500000e+00 6.365000e+01
    endloop
endfacet
facet normal -1.000000e+00 0.000000e+00 0.000000e+00
    outer loop
        vertex 3.620000e+01 7.000000e+00 6.710000e+01
        vertex 3.620000e+01 8.500000e+00 6.710000e+01
        vertex 3.620000e+01 8.000000e+00 6.365000e+01
    endloop
endfacet
facet normal -1.000000e+00 0.000000e+00 0.000000e+00
    outer loop
        vertex 3.620000e+01 8.000000e+00 6.365000e+01
        vertex 3.620000e+01 8.500000e+00 6.710000e+01
        vertex 3.620000e+01 8.500000e+00 6.365000e+01
    endloop
endfacet
facet normal 1.000000e+00 -0.000000e+00 0.000000e+00
    outer loop
        vertex 4.120000e+01 -8.500000e+00 6.710000e+01
        vertex 4.120000e+01 -8.000000e+00 6.365000e+01
        vertex 4.120000e+01 -7.000000e+00 6.710000e+01
    endloop
endfacet
facet normal 1.000000e+00 0.000000e+00 0.000000e+00
    outer loop
        vertex 4.120000e+01 -8.500000e+00 6.365000e+01
        vertex 4.120000e+01 -8.000000e+00 6.365000e+01
        vertex 4.120000e+01 -8.500000e+00 6.710000e+01
    endloop
endfacet
facet normal 0.000000e+00 -0.000000e+00 1.000000e+00
    outer loop
        vertex 4.120000e+01 -8.500000e+00 6.710000e+01
        vertex 4.120000e+01 -7.000000e+00 6.710000e+01
        vertex 3.620000e+01 -7.000000e+00 6.710000e+01
    endloop
endfacet
facet normal 0.000000e+00 0.000000e+00 1.000000e+00
    outer loop
        vertex 3.620000e+01 -8.500000e+00 6.710000e+01
        vertex 4.120000e+01 -8.500000e+00 6.710000e+01
        vertex 3.620000e+01 -7.000000e+00 6.710000e+01
    endloop
endfacet
facet normal 0.000000e+00 0.000000e+00 -1.000000e+00
    outer loop
        vertex 4.120000e+01 -8.500000e+00 6.365000e+01
        vertex 3.620000e+01 -8.000000e+00 6.365000e+01
        vertex 4.120000e+01 -8.000000e+00 6.365000e+01
    endloop
endfacet
facet normal 0.000000e+00 0.000000e+00 -1.000000e+00
    outer loop
        vertex 3.620000e+01 -8.500000e+00 6.365000e+01
        vertex 3.620000e+01 -8.000000e+00 6.365000e+01
        vertex 4.120000e+01 -8.500000e+00 6.365000e+01
    endloop
endfacet
facet normal -1.000000e+00 0.000000e+00 0.000000e+00
    outer loop
        vertex 3.620000e+01 -8.500000e+00 6.710000e+01
        vertex 3.620000e+01 -7.000000e+00 6.710000e+01
        vertex 3.620000e+01 -8.000000e+00 6.365000e+01
    endloop
endfacet
facet normal -1.000000e+00 0.000000e+00 0.000000e+00
    outer loop
        vertex 3.620000e+01 -8.500000e+00 6.365000e+01
        vertex 3.620000e+01 -8.500000e+00 6.710000e+01
        vertex 3.620000e+01 -8.000000e+00 6.365000e+01
    endloop
endfacet
facet normal 0.000000e+00 -9.604663e-01 -2.783963e-01
    outer loop
        vertex 3.620000e+01 7.000000e+00 6.710000e+01
        vertex 3.620000e+01 8.000000e+00 6.365000e+01
        vertex 4.120000e+01 8.000000e+00 6.365000e+01
    endloop
endfacet
facet normal 0.000000e+00 -9.604663e-01 -2.783963e-01
    outer loop
        vertex 3.620000e+01 7.000000e+00 6.710000e+01
        vertex 4.120000e+01 8.000000e+00 6.365000e+01
        vertex 4.120000e+01 7.000000e+00 6.710000e+01
    endloop
endfacet
facet normal 0.000000e+00 9.604663e-01 -2.783963e-01
    outer loop
        vertex 3.620000e+01 -8.000000e+00 6.365000e+01
        vertex 3.620000e+01 -7.000000e+00 6.710000e+01
        vertex 4.120000e+01 -8.000000e+00 6.365000e+01
    endloop
endfacet
facet normal 0.000000e+00 9.604663e-01 -2.783963e-01
    outer loop
        vertex 4.120000e+01 -8.000000e+00 6.365000e+01
        vertex 3.620000e+01 -7.000000e+00 6.710000e+01
        vertex 4.120000e+01 -7.000000e+00 6.710000e+01
    endloop
endfacet
facet normal 0.000000e+00 -1.000000e+00 0.000000e+00
    outer loop
        vertex 4.420000e+01 6.500000e+00 8.460000e+01
        vertex 4.420000e+01 6.500000e+00 8.810000e+01
        vertex 3.320000e+01 6.500000e+00 8.810000e+01
    endloop
endfacet
facet normal 0.000000e+00 -1.000000e+00 0.000000e+00
    outer loop
        vertex 3.320000e+01 6.500000e+00 8.460000e+01
        vertex 4.420000e+01 6.500000e+00 8.460000e+01
        vertex 3.320000e+01 6.500000e+00 8.810000e+01
    endloop
endfacet
facet normal 0.000000e+00 1.000000e+00 0.000000e+00
    outer loop
        vertex 3.320000e+01 -6.500000e+00 8.460000e+01
        vertex 3.320000e+01 -6.500000e+00 8.810000e+01
        vertex 4.420000e+01 -6.500000e+00 8.810000e+01
    endloop
endfacet
facet normal 0.000000e+00 1.000000e+00 0.000000e+00
    outer loop
        vertex 3.320000e+01 -6.500000e+00 8.460000e+01
        vertex 4.420000e+01 -6.500000e+00 8.810000e+01
        vertex 4.420000e+01 -6.500000e+00 8.460000e+01
    endloop
endfacet
facet normal 0.000000e+00 0.000000e+00 -1.000000e+00
    outer loop
        vertex 3.120000e+01 -5.000000e+00 7.360000e+01
        vertex 3.320000e+01 5.000000e+00 7.360000e+01
        vertex 3.320000e+01 -5.000000e+00 7.360000e+01
    endloop
endfacet
facet normal 0.000000e+00 0.000000e+00 -1.000000e+00
    outer loop
        vertex 3.120000e+01 -5.000000e+00 7.360000e+01
        vertex 3.120000e+01 5.000000e+00 7.360000e+01
        vertex 3.320000e+01 5.000000e+00 7.360000e+01
    endloop
endfacet
facet normal 0.000000e+00 0.000000e+00 -1.000000e+00
    outer loop
        vertex 4.420000e+01 -5.000000e+00 7.360000e+01
        vertex 4.620000e+01 5.000000e+00 7.360000e+01
        vertex 4.620000e+01 -5.000000e+00 7.360000e+01
    endloop
endfacet
facet normal 0.000000e+00 0.000000e+00 -1.000000e+00
    outer loop
        vertex 4.420000e+01 -5.000000e+00 7.360000e+01
        vertex 4.420000e+01 5.000000e+00 7.360000e+01
        vertex 4.620000e+01 5.000000e+00 7.360000e+01
    endloop
endfacet
facet normal 0.000000e+00 1.000000e+00 0.000000e+00
    outer loop
        vertex 2.920000e+01 9.500000e+00 6.310000e+01
        vertex 4.820000e+01 9.500000e+00 6.760000e+01
        vertex 4.820000e+01 9.500000e+00 6.310000e+01
    endloop
endfacet
facet normal 0.000000e+00 1.000000e+00 0.000000e+00
    outer loop
        vertex 2.920000e+01 9.500000e+00 6.310000e+01
        vertex 2.920000e+01 9.500000e+00 6.760000e+01
        vertex 4.820000e+01 9.500000e+00 6.760000e+01
    endloop
endfacet
facet normal 0.000000e+00 1.000000e+00 -0.000000e+00
    outer loop
        vertex 4.820000e+01 7.500000e+00 8.460000e+01
        vertex 2.920000e+01 7.500000e+00 8.910000e+01
        vertex 4.820000e+01 7.500000e+00 8.910000e+01
    endloop
endfacet
facet normal 0.000000e+00 1.000000e+00 0.000000e+00
    outer loop
        vertex 2.920000e+01 7.500000e+00 8.460000e+01
        vertex 2.920000e+01 7.500000e+00 8.910000e+01
        vertex 4.820000e+01 7.500000e+00 8.460000e+01
    endloop
endfacet
facet normal 0.000000e+00 -1.000000e+00 0.000000e+00
    outer loop
        vertex 2.920000e+01 -9.500000e+00 6.310000e+01
        vertex 4.820000e+01 -9.500000e+00 6.310000e+01
        vertex 2.920000e+01 -9.500000e+00 6.760000e+01
    endloop
endfacet
facet normal 0.000000e+00 -1.000000e+00 0.000000e+00
    outer loop
        vertex 4.820000e+01 -9.500000e+00 6.310000e+01
        vertex 4.820000e+01 -9.500000e+00 6.760000e+01
        vertex 2.920000e+01 -9.500000e+00 6.760000e+01
    endloop
endfacet
facet normal 0.000000e+00 -1.000000e+00 0.000000e+00
    outer loop
        vertex 4.820000e+01 -7.500000e+00 8.460000e+01
        vertex 4.820000e+01 -7.500000e+00 8.910000e+01
        vertex 2.920000e+01 -7.500000e+00 8.910000e+01
    endloop
endfacet
facet normal 0.000000e+00 -1.000000e+00 0.000000e+00
    outer loop
        vertex 2.920000e+01 -7.500000e+00 8.460000e+01
        vertex 4.820000e+01 -7.500000e+00 8.460000e+01
        vertex 2.920000e+01 -7.500000e+00 8.910000e+01
    endloop
endfacet
endsolid testing-pusher-motor-cage-small.stl
