solid pusher.stl
facet normal -1.000000e+00 0.000000e+00 0.000000e+00
    outer loop
        vertex -1.501951e+00 1.775736e-16 4.440000e+01
        vertex -1.501951e+00 4.945496e+00 4.330689e+01
        vertex -1.501951e+00 3.056484e+00 3.749311e+01
    endloop
endfacet
facet normal -1.000000e+00 0.000000e+00 0.000000e+00
    outer loop
        vertex -1.501951e+00 -3.056484e+00 3.749311e+01
        vertex -1.501951e+00 1.775736e-16 4.440000e+01
        vertex -1.501951e+00 3.056484e+00 3.749311e+01
    endloop
endfacet
facet normal -1.000000e+00 0.000000e+00 0.000000e+00
    outer loop
        vertex -1.501951e+00 -4.945496e+00 4.330689e+01
        vertex -1.501951e+00 1.775736e-16 4.440000e+01
        vertex -1.501951e+00 -3.056484e+00 3.749311e+01
    endloop
endfacet
facet normal 0.000000e+00 -2.158221e-01 9.764327e-01
    outer loop
        vertex 4.692000e+01 -4.945496e+00 4.330689e+01
        vertex 4.692000e+01 1.775736e-16 4.440000e+01
        vertex -1.501951e+00 1.775736e-16 4.440000e+01
    endloop
endfacet
facet normal 0.000000e+00 -2.158221e-01 9.764327e-01
    outer loop
        vertex -1.501951e+00 -4.945496e+00 4.330689e+01
        vertex 4.692000e+01 -4.945496e+00 4.330689e+01
        vertex -1.501951e+00 1.775736e-16 4.440000e+01
    endloop
endfacet
facet normal 0.000000e+00 -9.510565e-01 -3.090171e-01
    outer loop
        vertex 4.692000e+01 -4.945496e+00 4.330689e+01
        vertex -1.501951e+00 -3.056484e+00 3.749311e+01
        vertex 4.692000e+01 -3.056484e+00 3.749311e+01
    endloop
endfacet
facet normal 0.000000e+00 -9.510565e-01 -3.090171e-01
    outer loop
        vertex -1.501951e+00 -4.945496e+00 4.330689e+01
        vertex -1.501951e+00 -3.056484e+00 3.749311e+01
        vertex 4.692000e+01 -4.945496e+00 4.330689e+01
    endloop
endfacet
facet normal 0.000000e+00 6.240335e-07 -1.000000e+00
    outer loop
        vertex 4.692000e+01 -3.056484e+00 3.749311e+01
        vertex -1.501951e+00 3.056484e+00 3.749311e+01
        vertex 4.692000e+01 3.056484e+00 3.749311e+01
    endloop
endfacet
facet normal 0.000000e+00 6.240335e-07 -1.000000e+00
    outer loop
        vertex -1.501951e+00 -3.056484e+00 3.749311e+01
        vertex -1.501951e+00 3.056484e+00 3.749311e+01
        vertex 4.692000e+01 -3.056484e+00 3.749311e+01
    endloop
endfacet
facet normal 0.000000e+00 9.510564e-01 -3.090172e-01
    outer loop
        vertex 4.692000e+01 3.056484e+00 3.749311e+01
        vertex -1.501951e+00 4.945496e+00 4.330689e+01
        vertex 4.692000e+01 4.945496e+00 4.330689e+01
    endloop
endfacet
facet normal 0.000000e+00 9.510564e-01 -3.090172e-01
    outer loop
        vertex -1.501951e+00 3.056484e+00 3.749311e+01
        vertex -1.501951e+00 4.945496e+00 4.330689e+01
        vertex 4.692000e+01 3.056484e+00 3.749311e+01
    endloop
endfacet
facet normal 0.000000e+00 2.158221e-01 9.764327e-01
    outer loop
        vertex 4.692000e+01 1.775736e-16 4.440000e+01
        vertex 4.692000e+01 4.945496e+00 4.330689e+01
        vertex -1.501951e+00 4.945496e+00 4.330689e+01
    endloop
endfacet
facet normal -0.000000e+00 2.158221e-01 9.764327e-01
    outer loop
        vertex -1.501951e+00 1.775736e-16 4.440000e+01
        vertex 4.692000e+01 1.775736e-16 4.440000e+01
        vertex -1.501951e+00 4.945496e+00 4.330689e+01
    endloop
endfacet
facet normal 1.000000e+00 0.000000e+00 0.000000e+00
    outer loop
        vertex 4.692000e+01 1.775736e-16 4.440000e+01
        vertex 4.692000e+01 3.056484e+00 3.749311e+01
        vertex 4.692000e+01 4.945496e+00 4.330689e+01
    endloop
endfacet
facet normal 1.000000e+00 -0.000000e+00 0.000000e+00
    outer loop
        vertex 4.692000e+01 -4.945496e+00 4.330689e+01
        vertex 4.692000e+01 -3.056484e+00 3.749311e+01
        vertex 4.692000e+01 1.775736e-16 4.440000e+01
    endloop
endfacet
facet normal 1.000000e+00 0.000000e+00 0.000000e+00
    outer loop
        vertex 4.692000e+01 -3.056484e+00 3.749311e+01
        vertex 4.692000e+01 3.056484e+00 3.749311e+01
        vertex 4.692000e+01 1.775736e-16 4.440000e+01
    endloop
endfacet
facet normal -1.000000e+00 0.000000e+00 0.000000e+00
    outer loop
        vertex -1.350000e+01 -2.230000e+01 3.750000e+01
        vertex -1.350000e+01 2.230000e+01 4.440000e+01
        vertex -1.350000e+01 2.230000e+01 3.750000e+01
    endloop
endfacet
facet normal -1.000000e+00 0.000000e+00 0.000000e+00
    outer loop
        vertex -1.350000e+01 -2.230000e+01 3.750000e+01
        vertex -1.350000e+01 -2.230000e+01 4.440000e+01
        vertex -1.350000e+01 2.230000e+01 4.440000e+01
    endloop
endfacet
facet normal 1.000000e+00 -0.000000e+00 0.000000e+00
    outer loop
        vertex -1.500000e+00 -2.230000e+01 4.440000e+01
        vertex -1.500000e+00 2.230000e+01 3.750000e+01
        vertex -1.500000e+00 2.230000e+01 4.440000e+01
    endloop
endfacet
facet normal 1.000000e+00 0.000000e+00 0.000000e+00
    outer loop
        vertex -1.500000e+00 -2.230000e+01 3.750000e+01
        vertex -1.500000e+00 2.230000e+01 3.750000e+01
        vertex -1.500000e+00 -2.230000e+01 4.440000e+01
    endloop
endfacet
facet normal -1.000000e+00 0.000000e+00 0.000000e+00
    outer loop
        vertex -4.000000e+00 -2.220000e+01 3.750000e+01
        vertex -4.000000e+00 2.200000e+01 4.440000e+01
        vertex -4.000000e+00 2.200000e+01 3.750000e+01
    endloop
endfacet
facet normal -1.000000e+00 0.000000e+00 0.000000e+00
    outer loop
        vertex -4.000000e+00 -2.220000e+01 3.750000e+01
        vertex -4.000000e+00 -2.220000e+01 4.440000e+01
        vertex -4.000000e+00 2.200000e+01 4.440000e+01
    endloop
endfacet
facet normal 1.000000e+00 -0.000000e+00 0.000000e+00
    outer loop
        vertex -1.100000e+01 -2.220000e+01 4.440000e+01
        vertex -1.100000e+01 2.200000e+01 3.750000e+01
        vertex -1.100000e+01 2.200000e+01 4.440000e+01
    endloop
endfacet
facet normal 1.000000e+00 0.000000e+00 0.000000e+00
    outer loop
        vertex -1.100000e+01 -2.220000e+01 3.750000e+01
        vertex -1.100000e+01 2.200000e+01 3.750000e+01
        vertex -1.100000e+01 -2.220000e+01 4.440000e+01
    endloop
endfacet
facet normal 0.000000e+00 0.000000e+00 1.000000e+00
    outer loop
        vertex -1.500000e+00 1.775736e-16 4.440000e+01
        vertex -4.000000e+00 2.200000e+01 4.440000e+01
        vertex -4.000000e+00 1.775736e-16 4.440000e+01
    endloop
endfacet
facet normal 0.000000e+00 -0.000000e+00 1.000000e+00
    outer loop
        vertex -1.500000e+00 1.775736e-16 4.440000e+01
        vertex -1.500000e+00 2.230000e+01 4.440000e+01
        vertex -4.000000e+00 2.200000e+01 4.440000e+01
    endloop
endfacet
facet normal 0.000000e+00 0.000000e+00 1.000000e+00
    outer loop
        vertex -4.000000e+00 2.200000e+01 4.440000e+01
        vertex -1.500000e+00 2.230000e+01 4.440000e+01
        vertex -1.704445e+00 2.385291e+01 4.440000e+01
    endloop
endfacet
facet normal 0.000000e+00 0.000000e+00 1.000000e+00
    outer loop
        vertex -4.000000e+00 2.200000e+01 4.440000e+01
        vertex -1.704445e+00 2.385291e+01 4.440000e+01
        vertex -2.303848e+00 2.530000e+01 4.440000e+01
    endloop
endfacet
facet normal 0.000000e+00 0.000000e+00 1.000000e+00
    outer loop
        vertex -4.000000e+00 2.200000e+01 4.440000e+01
        vertex -2.303848e+00 2.530000e+01 4.440000e+01
        vertex -3.257362e+00 2.654264e+01 4.440000e+01
    endloop
endfacet
facet normal 0.000000e+00 -0.000000e+00 1.000000e+00
    outer loop
        vertex -4.000000e+00 2.200000e+01 4.440000e+01
        vertex -3.257362e+00 2.654264e+01 4.440000e+01
        vertex -4.500000e+00 2.749615e+01 4.440000e+01
    endloop
endfacet
facet normal 0.000000e+00 0.000000e+00 1.000000e+00
    outer loop
        vertex -4.000000e+00 -2.220000e+01 4.440000e+01
        vertex -1.500000e+00 1.775736e-16 4.440000e+01
        vertex -4.000000e+00 1.775736e-16 4.440000e+01
    endloop
endfacet
facet normal 0.000000e+00 -0.000000e+00 1.000000e+00
    outer loop
        vertex -1.500000e+00 -2.230000e+01 4.440000e+01
        vertex -1.500000e+00 1.775736e-16 4.440000e+01
        vertex -4.000000e+00 -2.220000e+01 4.440000e+01
    endloop
endfacet
facet normal 0.000000e+00 -0.000000e+00 1.000000e+00
    outer loop
        vertex -1.704445e+00 -2.385291e+01 4.440000e+01
        vertex -1.500000e+00 -2.230000e+01 4.440000e+01
        vertex -4.000000e+00 -2.220000e+01 4.440000e+01
    endloop
endfacet
facet normal 0.000000e+00 -0.000000e+00 1.000000e+00
    outer loop
        vertex -2.303848e+00 -2.530000e+01 4.440000e+01
        vertex -1.704445e+00 -2.385291e+01 4.440000e+01
        vertex -4.000000e+00 -2.220000e+01 4.440000e+01
    endloop
endfacet
facet normal 0.000000e+00 -0.000000e+00 1.000000e+00
    outer loop
        vertex -3.257362e+00 -2.654264e+01 4.440000e+01
        vertex -2.303848e+00 -2.530000e+01 4.440000e+01
        vertex -4.000000e+00 -2.220000e+01 4.440000e+01
    endloop
endfacet
facet normal 0.000000e+00 0.000000e+00 1.000000e+00
    outer loop
        vertex -4.500000e+00 -2.749615e+01 4.440000e+01
        vertex -3.257362e+00 -2.654264e+01 4.440000e+01
        vertex -4.000000e+00 -2.220000e+01 4.440000e+01
    endloop
endfacet
facet normal 0.000000e+00 -0.000000e+00 1.000000e+00
    outer loop
        vertex -7.500000e+00 -2.830000e+01 4.440000e+01
        vertex -5.947083e+00 -2.809555e+01 4.440000e+01
        vertex -9.052917e+00 -2.809555e+01 4.440000e+01
    endloop
endfacet
facet normal 0.000000e+00 0.000000e+00 1.000000e+00
    outer loop
        vertex -5.947083e+00 -2.809555e+01 4.440000e+01
        vertex -1.050000e+01 -2.749615e+01 4.440000e+01
        vertex -9.052917e+00 -2.809555e+01 4.440000e+01
    endloop
endfacet
facet normal 0.000000e+00 0.000000e+00 1.000000e+00
    outer loop
        vertex -5.947083e+00 -2.809555e+01 4.440000e+01
        vertex -1.174265e+01 -2.654264e+01 4.440000e+01
        vertex -1.050000e+01 -2.749615e+01 4.440000e+01
    endloop
endfacet
facet normal 0.000000e+00 0.000000e+00 1.000000e+00
    outer loop
        vertex -5.947083e+00 -2.809555e+01 4.440000e+01
        vertex -1.269615e+01 -2.530000e+01 4.440000e+01
        vertex -1.174265e+01 -2.654264e+01 4.440000e+01
    endloop
endfacet
facet normal 0.000000e+00 0.000000e+00 1.000000e+00
    outer loop
        vertex -5.947083e+00 -2.809555e+01 4.440000e+01
        vertex -1.329556e+01 -2.385291e+01 4.440000e+01
        vertex -1.269615e+01 -2.530000e+01 4.440000e+01
    endloop
endfacet
facet normal 0.000000e+00 0.000000e+00 1.000000e+00
    outer loop
        vertex -5.947083e+00 -2.809555e+01 4.440000e+01
        vertex -1.350000e+01 -2.230000e+01 4.440000e+01
        vertex -1.329556e+01 -2.385291e+01 4.440000e+01
    endloop
endfacet
facet normal 0.000000e+00 0.000000e+00 1.000000e+00
    outer loop
        vertex -1.269615e+01 2.530000e+01 4.440000e+01
        vertex -1.050000e+01 2.749615e+01 4.440000e+01
        vertex -1.174265e+01 2.654264e+01 4.440000e+01
    endloop
endfacet
facet normal 0.000000e+00 0.000000e+00 1.000000e+00
    outer loop
        vertex -1.329556e+01 2.385291e+01 4.440000e+01
        vertex -1.050000e+01 2.749615e+01 4.440000e+01
        vertex -1.269615e+01 2.530000e+01 4.440000e+01
    endloop
endfacet
facet normal 0.000000e+00 0.000000e+00 1.000000e+00
    outer loop
        vertex -1.350000e+01 2.230000e+01 4.440000e+01
        vertex -1.050000e+01 2.749615e+01 4.440000e+01
        vertex -1.329556e+01 2.385291e+01 4.440000e+01
    endloop
endfacet
facet normal 0.000000e+00 0.000000e+00 1.000000e+00
    outer loop
        vertex -1.350000e+01 2.230000e+01 4.440000e+01
        vertex -9.052917e+00 2.809556e+01 4.440000e+01
        vertex -1.050000e+01 2.749615e+01 4.440000e+01
    endloop
endfacet
facet normal 0.000000e+00 0.000000e+00 1.000000e+00
    outer loop
        vertex -1.350000e+01 2.230000e+01 4.440000e+01
        vertex -7.500000e+00 2.830000e+01 4.440000e+01
        vertex -9.052917e+00 2.809556e+01 4.440000e+01
    endloop
endfacet
facet normal 0.000000e+00 0.000000e+00 1.000000e+00
    outer loop
        vertex -1.350000e+01 2.230000e+01 4.440000e+01
        vertex -5.947083e+00 2.809556e+01 4.440000e+01
        vertex -7.500000e+00 2.830000e+01 4.440000e+01
    endloop
endfacet
facet normal 0.000000e+00 0.000000e+00 1.000000e+00
    outer loop
        vertex -4.000000e+00 2.200000e+01 4.440000e+01
        vertex -4.500000e+00 2.749615e+01 4.440000e+01
        vertex -4.119263e+00 2.290587e+01 4.440000e+01
    endloop
endfacet
facet normal 0.000000e+00 0.000000e+00 1.000000e+00
    outer loop
        vertex -4.119263e+00 2.290587e+01 4.440000e+01
        vertex -4.500000e+00 2.749615e+01 4.440000e+01
        vertex -5.947083e+00 2.809556e+01 4.440000e+01
    endloop
endfacet
facet normal 0.000000e+00 0.000000e+00 1.000000e+00
    outer loop
        vertex -4.119263e+00 2.290587e+01 4.440000e+01
        vertex -5.947083e+00 2.809556e+01 4.440000e+01
        vertex -4.468910e+00 2.375000e+01 4.440000e+01
    endloop
endfacet
facet normal 0.000000e+00 0.000000e+00 1.000000e+00
    outer loop
        vertex -4.468910e+00 2.375000e+01 4.440000e+01
        vertex -5.947083e+00 2.809556e+01 4.440000e+01
        vertex -5.025124e+00 2.447487e+01 4.440000e+01
    endloop
endfacet
facet normal 0.000000e+00 0.000000e+00 1.000000e+00
    outer loop
        vertex -5.025124e+00 2.447487e+01 4.440000e+01
        vertex -5.947083e+00 2.809556e+01 4.440000e+01
        vertex -5.750000e+00 2.503109e+01 4.440000e+01
    endloop
endfacet
facet normal 0.000000e+00 0.000000e+00 1.000000e+00
    outer loop
        vertex -5.750000e+00 2.503109e+01 4.440000e+01
        vertex -5.947083e+00 2.809556e+01 4.440000e+01
        vertex -6.594131e+00 2.538074e+01 4.440000e+01
    endloop
endfacet
facet normal 0.000000e+00 -0.000000e+00 1.000000e+00
    outer loop
        vertex -6.594131e+00 2.538074e+01 4.440000e+01
        vertex -5.947083e+00 2.809556e+01 4.440000e+01
        vertex -7.500000e+00 2.550000e+01 4.440000e+01
    endloop
endfacet
facet normal 0.000000e+00 0.000000e+00 1.000000e+00
    outer loop
        vertex -8.405869e+00 2.538074e+01 4.440000e+01
        vertex -7.500000e+00 2.550000e+01 4.440000e+01
        vertex -5.947083e+00 2.809556e+01 4.440000e+01
    endloop
endfacet
facet normal 0.000000e+00 0.000000e+00 1.000000e+00
    outer loop
        vertex -9.250000e+00 2.503109e+01 4.440000e+01
        vertex -8.405869e+00 2.538074e+01 4.440000e+01
        vertex -5.947083e+00 2.809556e+01 4.440000e+01
    endloop
endfacet
facet normal 0.000000e+00 0.000000e+00 1.000000e+00
    outer loop
        vertex -1.350000e+01 2.230000e+01 4.440000e+01
        vertex -9.250000e+00 2.503109e+01 4.440000e+01
        vertex -5.947083e+00 2.809556e+01 4.440000e+01
    endloop
endfacet
facet normal 0.000000e+00 0.000000e+00 1.000000e+00
    outer loop
        vertex -1.350000e+01 2.230000e+01 4.440000e+01
        vertex -9.974876e+00 2.447487e+01 4.440000e+01
        vertex -9.250000e+00 2.503109e+01 4.440000e+01
    endloop
endfacet
facet normal 0.000000e+00 0.000000e+00 1.000000e+00
    outer loop
        vertex -1.350000e+01 2.230000e+01 4.440000e+01
        vertex -1.053109e+01 2.375000e+01 4.440000e+01
        vertex -9.974876e+00 2.447487e+01 4.440000e+01
    endloop
endfacet
facet normal 0.000000e+00 0.000000e+00 1.000000e+00
    outer loop
        vertex -1.350000e+01 2.230000e+01 4.440000e+01
        vertex -1.088074e+01 2.290587e+01 4.440000e+01
        vertex -1.053109e+01 2.375000e+01 4.440000e+01
    endloop
endfacet
facet normal 0.000000e+00 -0.000000e+00 1.000000e+00
    outer loop
        vertex -1.100000e+01 2.200000e+01 4.440000e+01
        vertex -1.088074e+01 2.290587e+01 4.440000e+01
        vertex -1.350000e+01 2.230000e+01 4.440000e+01
    endloop
endfacet
facet normal 0.000000e+00 0.000000e+00 1.000000e+00
    outer loop
        vertex -1.350000e+01 -2.230000e+01 4.440000e+01
        vertex -1.100000e+01 2.200000e+01 4.440000e+01
        vertex -1.350000e+01 2.230000e+01 4.440000e+01
    endloop
endfacet
facet normal 0.000000e+00 0.000000e+00 1.000000e+00
    outer loop
        vertex -1.350000e+01 -2.230000e+01 4.440000e+01
        vertex -1.100000e+01 -2.220000e+01 4.440000e+01
        vertex -1.100000e+01 2.200000e+01 4.440000e+01
    endloop
endfacet
facet normal 0.000000e+00 0.000000e+00 1.000000e+00
    outer loop
        vertex -1.088074e+01 -2.310587e+01 4.440000e+01
        vertex -1.100000e+01 -2.220000e+01 4.440000e+01
        vertex -1.350000e+01 -2.230000e+01 4.440000e+01
    endloop
endfacet
facet normal 0.000000e+00 0.000000e+00 1.000000e+00
    outer loop
        vertex -1.053109e+01 -2.395000e+01 4.440000e+01
        vertex -1.088074e+01 -2.310587e+01 4.440000e+01
        vertex -1.350000e+01 -2.230000e+01 4.440000e+01
    endloop
endfacet
facet normal 0.000000e+00 0.000000e+00 1.000000e+00
    outer loop
        vertex -9.974876e+00 -2.467487e+01 4.440000e+01
        vertex -1.053109e+01 -2.395000e+01 4.440000e+01
        vertex -1.350000e+01 -2.230000e+01 4.440000e+01
    endloop
endfacet
facet normal 0.000000e+00 0.000000e+00 1.000000e+00
    outer loop
        vertex -5.947083e+00 -2.809555e+01 4.440000e+01
        vertex -9.974876e+00 -2.467487e+01 4.440000e+01
        vertex -1.350000e+01 -2.230000e+01 4.440000e+01
    endloop
endfacet
facet normal 0.000000e+00 0.000000e+00 1.000000e+00
    outer loop
        vertex -5.947083e+00 -2.809555e+01 4.440000e+01
        vertex -9.250000e+00 -2.523109e+01 4.440000e+01
        vertex -9.974876e+00 -2.467487e+01 4.440000e+01
    endloop
endfacet
facet normal 0.000000e+00 -0.000000e+00 1.000000e+00
    outer loop
        vertex -5.947083e+00 -2.809555e+01 4.440000e+01
        vertex -4.500000e+00 -2.749615e+01 4.440000e+01
        vertex -9.250000e+00 -2.523109e+01 4.440000e+01
    endloop
endfacet
facet normal 0.000000e+00 0.000000e+00 1.000000e+00
    outer loop
        vertex -4.500000e+00 -2.749615e+01 4.440000e+01
        vertex -8.405869e+00 -2.558074e+01 4.440000e+01
        vertex -9.250000e+00 -2.523109e+01 4.440000e+01
    endloop
endfacet
facet normal 0.000000e+00 0.000000e+00 1.000000e+00
    outer loop
        vertex -4.500000e+00 -2.749615e+01 4.440000e+01
        vertex -7.500000e+00 -2.570000e+01 4.440000e+01
        vertex -8.405869e+00 -2.558074e+01 4.440000e+01
    endloop
endfacet
facet normal 0.000000e+00 0.000000e+00 1.000000e+00
    outer loop
        vertex -4.500000e+00 -2.749615e+01 4.440000e+01
        vertex -6.594131e+00 -2.558074e+01 4.440000e+01
        vertex -7.500000e+00 -2.570000e+01 4.440000e+01
    endloop
endfacet
facet normal 0.000000e+00 0.000000e+00 1.000000e+00
    outer loop
        vertex -4.500000e+00 -2.749615e+01 4.440000e+01
        vertex -5.750000e+00 -2.523109e+01 4.440000e+01
        vertex -6.594131e+00 -2.558074e+01 4.440000e+01
    endloop
endfacet
facet normal 0.000000e+00 0.000000e+00 1.000000e+00
    outer loop
        vertex -4.500000e+00 -2.749615e+01 4.440000e+01
        vertex -5.025124e+00 -2.467487e+01 4.440000e+01
        vertex -5.750000e+00 -2.523109e+01 4.440000e+01
    endloop
endfacet
facet normal 0.000000e+00 -0.000000e+00 1.000000e+00
    outer loop
        vertex -4.500000e+00 -2.749615e+01 4.440000e+01
        vertex -4.468910e+00 -2.395000e+01 4.440000e+01
        vertex -5.025124e+00 -2.467487e+01 4.440000e+01
    endloop
endfacet
facet normal 0.000000e+00 0.000000e+00 1.000000e+00
    outer loop
        vertex -4.500000e+00 -2.749615e+01 4.440000e+01
        vertex -4.000000e+00 -2.220000e+01 4.440000e+01
        vertex -4.119263e+00 -2.310587e+01 4.440000e+01
    endloop
endfacet
facet normal 0.000000e+00 0.000000e+00 1.000000e+00
    outer loop
        vertex -4.500000e+00 -2.749615e+01 4.440000e+01
        vertex -4.119263e+00 -2.310587e+01 4.440000e+01
        vertex -4.468910e+00 -2.395000e+01 4.440000e+01
    endloop
endfacet
facet normal 0.000000e+00 0.000000e+00 -1.000000e+00
    outer loop
        vertex -1.500000e+00 -2.449296e-16 3.750000e+01
        vertex -4.000000e+00 -2.449296e-16 3.750000e+01
        vertex -4.000000e+00 2.200000e+01 3.750000e+01
    endloop
endfacet
facet normal 0.000000e+00 0.000000e+00 -1.000000e+00
    outer loop
        vertex -1.500000e+00 -2.449296e-16 3.750000e+01
        vertex -4.000000e+00 2.200000e+01 3.750000e+01
        vertex -1.500000e+00 2.230000e+01 3.750000e+01
    endloop
endfacet
facet normal 0.000000e+00 0.000000e+00 -1.000000e+00
    outer loop
        vertex -4.000000e+00 2.200000e+01 3.750000e+01
        vertex -1.704445e+00 2.385291e+01 3.750000e+01
        vertex -1.500000e+00 2.230000e+01 3.750000e+01
    endloop
endfacet
facet normal 0.000000e+00 0.000000e+00 -1.000000e+00
    outer loop
        vertex -4.000000e+00 2.200000e+01 3.750000e+01
        vertex -2.303848e+00 2.530000e+01 3.750000e+01
        vertex -1.704445e+00 2.385291e+01 3.750000e+01
    endloop
endfacet
facet normal 0.000000e+00 0.000000e+00 -1.000000e+00
    outer loop
        vertex -4.000000e+00 2.200000e+01 3.750000e+01
        vertex -3.257362e+00 2.654264e+01 3.750000e+01
        vertex -2.303848e+00 2.530000e+01 3.750000e+01
    endloop
endfacet
facet normal 0.000000e+00 0.000000e+00 -1.000000e+00
    outer loop
        vertex -4.000000e+00 2.200000e+01 3.750000e+01
        vertex -4.500000e+00 2.749615e+01 3.750000e+01
        vertex -3.257362e+00 2.654264e+01 3.750000e+01
    endloop
endfacet
facet normal 0.000000e+00 0.000000e+00 -1.000000e+00
    outer loop
        vertex -4.000000e+00 -2.220000e+01 3.750000e+01
        vertex -4.000000e+00 -2.449296e-16 3.750000e+01
        vertex -1.500000e+00 -2.449296e-16 3.750000e+01
    endloop
endfacet
facet normal 0.000000e+00 0.000000e+00 -1.000000e+00
    outer loop
        vertex -1.500000e+00 -2.230000e+01 3.750000e+01
        vertex -4.000000e+00 -2.220000e+01 3.750000e+01
        vertex -1.500000e+00 -2.449296e-16 3.750000e+01
    endloop
endfacet
facet normal 0.000000e+00 0.000000e+00 -1.000000e+00
    outer loop
        vertex -1.704445e+00 -2.385291e+01 3.750000e+01
        vertex -4.000000e+00 -2.220000e+01 3.750000e+01
        vertex -1.500000e+00 -2.230000e+01 3.750000e+01
    endloop
endfacet
facet normal 0.000000e+00 0.000000e+00 -1.000000e+00
    outer loop
        vertex -2.303848e+00 -2.530000e+01 3.750000e+01
        vertex -4.000000e+00 -2.220000e+01 3.750000e+01
        vertex -1.704445e+00 -2.385291e+01 3.750000e+01
    endloop
endfacet
facet normal 0.000000e+00 0.000000e+00 -1.000000e+00
    outer loop
        vertex -3.257362e+00 -2.654264e+01 3.750000e+01
        vertex -4.000000e+00 -2.220000e+01 3.750000e+01
        vertex -2.303848e+00 -2.530000e+01 3.750000e+01
    endloop
endfacet
facet normal 0.000000e+00 0.000000e+00 -1.000000e+00
    outer loop
        vertex -4.500000e+00 -2.749615e+01 3.750000e+01
        vertex -4.000000e+00 -2.220000e+01 3.750000e+01
        vertex -3.257362e+00 -2.654264e+01 3.750000e+01
    endloop
endfacet
facet normal 0.000000e+00 0.000000e+00 -1.000000e+00
    outer loop
        vertex -7.500000e+00 -2.830000e+01 3.750000e+01
        vertex -9.052917e+00 -2.809555e+01 3.750000e+01
        vertex -5.947083e+00 -2.809555e+01 3.750000e+01
    endloop
endfacet
facet normal 0.000000e+00 0.000000e+00 -1.000000e+00
    outer loop
        vertex -5.947083e+00 -2.809555e+01 3.750000e+01
        vertex -9.052917e+00 -2.809555e+01 3.750000e+01
        vertex -4.500000e+00 -2.749615e+01 3.750000e+01
    endloop
endfacet
facet normal 0.000000e+00 0.000000e+00 -1.000000e+00
    outer loop
        vertex -9.052917e+00 -2.809555e+01 3.750000e+01
        vertex -1.050000e+01 -2.749615e+01 3.750000e+01
        vertex -4.500000e+00 -2.749615e+01 3.750000e+01
    endloop
endfacet
facet normal 0.000000e+00 0.000000e+00 -1.000000e+00
    outer loop
        vertex -4.500000e+00 -2.749615e+01 3.750000e+01
        vertex -1.050000e+01 -2.749615e+01 3.750000e+01
        vertex -1.174265e+01 -2.654264e+01 3.750000e+01
    endloop
endfacet
facet normal 0.000000e+00 0.000000e+00 -1.000000e+00
    outer loop
        vertex -4.500000e+00 -2.749615e+01 3.750000e+01
        vertex -1.174265e+01 -2.654264e+01 3.750000e+01
        vertex -1.269615e+01 -2.530000e+01 3.750000e+01
    endloop
endfacet
facet normal 0.000000e+00 0.000000e+00 -1.000000e+00
    outer loop
        vertex -4.500000e+00 -2.749615e+01 3.750000e+01
        vertex -1.269615e+01 -2.530000e+01 3.750000e+01
        vertex -1.329556e+01 -2.385291e+01 3.750000e+01
    endloop
endfacet
facet normal 0.000000e+00 0.000000e+00 -1.000000e+00
    outer loop
        vertex -1.269615e+01 2.530000e+01 3.750000e+01
        vertex -1.174265e+01 2.654264e+01 3.750000e+01
        vertex -1.050000e+01 2.749615e+01 3.750000e+01
    endloop
endfacet
facet normal 0.000000e+00 0.000000e+00 -1.000000e+00
    outer loop
        vertex -1.329556e+01 2.385291e+01 3.750000e+01
        vertex -1.269615e+01 2.530000e+01 3.750000e+01
        vertex -1.050000e+01 2.749615e+01 3.750000e+01
    endloop
endfacet
facet normal 0.000000e+00 0.000000e+00 -1.000000e+00
    outer loop
        vertex -1.350000e+01 2.230000e+01 3.750000e+01
        vertex -1.329556e+01 2.385291e+01 3.750000e+01
        vertex -1.050000e+01 2.749615e+01 3.750000e+01
    endloop
endfacet
facet normal 0.000000e+00 0.000000e+00 -1.000000e+00
    outer loop
        vertex -1.350000e+01 2.230000e+01 3.750000e+01
        vertex -1.050000e+01 2.749615e+01 3.750000e+01
        vertex -9.052917e+00 2.809556e+01 3.750000e+01
    endloop
endfacet
facet normal 0.000000e+00 0.000000e+00 -1.000000e+00
    outer loop
        vertex -1.350000e+01 2.230000e+01 3.750000e+01
        vertex -9.052917e+00 2.809556e+01 3.750000e+01
        vertex -7.500000e+00 2.830000e+01 3.750000e+01
    endloop
endfacet
facet normal 0.000000e+00 0.000000e+00 -1.000000e+00
    outer loop
        vertex -1.350000e+01 2.230000e+01 3.750000e+01
        vertex -7.500000e+00 2.830000e+01 3.750000e+01
        vertex -5.947083e+00 2.809556e+01 3.750000e+01
    endloop
endfacet
facet normal 0.000000e+00 0.000000e+00 -1.000000e+00
    outer loop
        vertex -4.000000e+00 2.200000e+01 3.750000e+01
        vertex -4.119263e+00 2.290587e+01 3.750000e+01
        vertex -4.500000e+00 2.749615e+01 3.750000e+01
    endloop
endfacet
facet normal 0.000000e+00 0.000000e+00 -1.000000e+00
    outer loop
        vertex -4.119263e+00 2.290587e+01 3.750000e+01
        vertex -5.947083e+00 2.809556e+01 3.750000e+01
        vertex -4.500000e+00 2.749615e+01 3.750000e+01
    endloop
endfacet
facet normal 0.000000e+00 0.000000e+00 -1.000000e+00
    outer loop
        vertex -4.119263e+00 2.290587e+01 3.750000e+01
        vertex -4.468910e+00 2.375000e+01 3.750000e+01
        vertex -5.947083e+00 2.809556e+01 3.750000e+01
    endloop
endfacet
facet normal 0.000000e+00 0.000000e+00 -1.000000e+00
    outer loop
        vertex -4.468910e+00 2.375000e+01 3.750000e+01
        vertex -5.025124e+00 2.447487e+01 3.750000e+01
        vertex -5.947083e+00 2.809556e+01 3.750000e+01
    endloop
endfacet
facet normal 0.000000e+00 0.000000e+00 -1.000000e+00
    outer loop
        vertex -5.025124e+00 2.447487e+01 3.750000e+01
        vertex -5.750000e+00 2.503109e+01 3.750000e+01
        vertex -5.947083e+00 2.809556e+01 3.750000e+01
    endloop
endfacet
facet normal 0.000000e+00 0.000000e+00 -1.000000e+00
    outer loop
        vertex -5.750000e+00 2.503109e+01 3.750000e+01
        vertex -6.594131e+00 2.538074e+01 3.750000e+01
        vertex -5.947083e+00 2.809556e+01 3.750000e+01
    endloop
endfacet
facet normal 0.000000e+00 0.000000e+00 -1.000000e+00
    outer loop
        vertex -6.594131e+00 2.538074e+01 3.750000e+01
        vertex -7.500000e+00 2.550000e+01 3.750000e+01
        vertex -5.947083e+00 2.809556e+01 3.750000e+01
    endloop
endfacet
facet normal 0.000000e+00 0.000000e+00 -1.000000e+00
    outer loop
        vertex -8.405869e+00 2.538074e+01 3.750000e+01
        vertex -5.947083e+00 2.809556e+01 3.750000e+01
        vertex -7.500000e+00 2.550000e+01 3.750000e+01
    endloop
endfacet
facet normal 0.000000e+00 0.000000e+00 -1.000000e+00
    outer loop
        vertex -9.250000e+00 2.503109e+01 3.750000e+01
        vertex -5.947083e+00 2.809556e+01 3.750000e+01
        vertex -8.405869e+00 2.538074e+01 3.750000e+01
    endloop
endfacet
facet normal 0.000000e+00 0.000000e+00 -1.000000e+00
    outer loop
        vertex -1.350000e+01 2.230000e+01 3.750000e+01
        vertex -5.947083e+00 2.809556e+01 3.750000e+01
        vertex -9.250000e+00 2.503109e+01 3.750000e+01
    endloop
endfacet
facet normal 0.000000e+00 0.000000e+00 -1.000000e+00
    outer loop
        vertex -1.350000e+01 2.230000e+01 3.750000e+01
        vertex -9.250000e+00 2.503109e+01 3.750000e+01
        vertex -9.974876e+00 2.447487e+01 3.750000e+01
    endloop
endfacet
facet normal 0.000000e+00 0.000000e+00 -1.000000e+00
    outer loop
        vertex -1.350000e+01 2.230000e+01 3.750000e+01
        vertex -9.974876e+00 2.447487e+01 3.750000e+01
        vertex -1.053109e+01 2.375000e+01 3.750000e+01
    endloop
endfacet
facet normal 0.000000e+00 0.000000e+00 -1.000000e+00
    outer loop
        vertex -1.350000e+01 2.230000e+01 3.750000e+01
        vertex -1.053109e+01 2.375000e+01 3.750000e+01
        vertex -1.088074e+01 2.290587e+01 3.750000e+01
    endloop
endfacet
facet normal 0.000000e+00 0.000000e+00 -1.000000e+00
    outer loop
        vertex -1.100000e+01 2.200000e+01 3.750000e+01
        vertex -1.350000e+01 2.230000e+01 3.750000e+01
        vertex -1.088074e+01 2.290587e+01 3.750000e+01
    endloop
endfacet
facet normal 0.000000e+00 0.000000e+00 -1.000000e+00
    outer loop
        vertex -1.350000e+01 -2.230000e+01 3.750000e+01
        vertex -1.350000e+01 2.230000e+01 3.750000e+01
        vertex -1.100000e+01 2.200000e+01 3.750000e+01
    endloop
endfacet
facet normal 0.000000e+00 0.000000e+00 -1.000000e+00
    outer loop
        vertex -1.350000e+01 -2.230000e+01 3.750000e+01
        vertex -1.100000e+01 2.200000e+01 3.750000e+01
        vertex -1.100000e+01 -2.220000e+01 3.750000e+01
    endloop
endfacet
facet normal 0.000000e+00 0.000000e+00 -1.000000e+00
    outer loop
        vertex -1.329556e+01 -2.385291e+01 3.750000e+01
        vertex -1.350000e+01 -2.230000e+01 3.750000e+01
        vertex -1.100000e+01 -2.220000e+01 3.750000e+01
    endloop
endfacet
facet normal 0.000000e+00 0.000000e+00 -1.000000e+00
    outer loop
        vertex -1.329556e+01 -2.385291e+01 3.750000e+01
        vertex -1.100000e+01 -2.220000e+01 3.750000e+01
        vertex -1.088074e+01 -2.310587e+01 3.750000e+01
    endloop
endfacet
facet normal 0.000000e+00 0.000000e+00 -1.000000e+00
    outer loop
        vertex -1.053109e+01 -2.395000e+01 3.750000e+01
        vertex -1.329556e+01 -2.385291e+01 3.750000e+01
        vertex -1.088074e+01 -2.310587e+01 3.750000e+01
    endloop
endfacet
facet normal 0.000000e+00 0.000000e+00 -1.000000e+00
    outer loop
        vertex -9.974876e+00 -2.467487e+01 3.750000e+01
        vertex -1.329556e+01 -2.385291e+01 3.750000e+01
        vertex -1.053109e+01 -2.395000e+01 3.750000e+01
    endloop
endfacet
facet normal 0.000000e+00 0.000000e+00 -1.000000e+00
    outer loop
        vertex -9.250000e+00 -2.523109e+01 3.750000e+01
        vertex -1.329556e+01 -2.385291e+01 3.750000e+01
        vertex -9.974876e+00 -2.467487e+01 3.750000e+01
    endloop
endfacet
facet normal 0.000000e+00 0.000000e+00 -1.000000e+00
    outer loop
        vertex -4.500000e+00 -2.749615e+01 3.750000e+01
        vertex -1.329556e+01 -2.385291e+01 3.750000e+01
        vertex -9.250000e+00 -2.523109e+01 3.750000e+01
    endloop
endfacet
facet normal 0.000000e+00 0.000000e+00 -1.000000e+00
    outer loop
        vertex -4.500000e+00 -2.749615e+01 3.750000e+01
        vertex -9.250000e+00 -2.523109e+01 3.750000e+01
        vertex -8.405869e+00 -2.558074e+01 3.750000e+01
    endloop
endfacet
facet normal 0.000000e+00 0.000000e+00 -1.000000e+00
    outer loop
        vertex -4.500000e+00 -2.749615e+01 3.750000e+01
        vertex -8.405869e+00 -2.558074e+01 3.750000e+01
        vertex -7.500000e+00 -2.570000e+01 3.750000e+01
    endloop
endfacet
facet normal 0.000000e+00 0.000000e+00 -1.000000e+00
    outer loop
        vertex -4.500000e+00 -2.749615e+01 3.750000e+01
        vertex -7.500000e+00 -2.570000e+01 3.750000e+01
        vertex -6.594131e+00 -2.558074e+01 3.750000e+01
    endloop
endfacet
facet normal 0.000000e+00 0.000000e+00 -1.000000e+00
    outer loop
        vertex -4.500000e+00 -2.749615e+01 3.750000e+01
        vertex -6.594131e+00 -2.558074e+01 3.750000e+01
        vertex -5.750000e+00 -2.523109e+01 3.750000e+01
    endloop
endfacet
facet normal 0.000000e+00 0.000000e+00 -1.000000e+00
    outer loop
        vertex -4.500000e+00 -2.749615e+01 3.750000e+01
        vertex -5.750000e+00 -2.523109e+01 3.750000e+01
        vertex -5.025124e+00 -2.467487e+01 3.750000e+01
    endloop
endfacet
facet normal 0.000000e+00 0.000000e+00 -1.000000e+00
    outer loop
        vertex -4.500000e+00 -2.749615e+01 3.750000e+01
        vertex -5.025124e+00 -2.467487e+01 3.750000e+01
        vertex -4.468910e+00 -2.395000e+01 3.750000e+01
    endloop
endfacet
facet normal 0.000000e+00 0.000000e+00 -1.000000e+00
    outer loop
        vertex -4.500000e+00 -2.749615e+01 3.750000e+01
        vertex -4.468910e+00 -2.395000e+01 3.750000e+01
        vertex -4.119263e+00 -2.310587e+01 3.750000e+01
    endloop
endfacet
facet normal 0.000000e+00 0.000000e+00 -1.000000e+00
    outer loop
        vertex -4.500000e+00 -2.749615e+01 3.750000e+01
        vertex -4.119263e+00 -2.310587e+01 3.750000e+01
        vertex -4.000000e+00 -2.220000e+01 3.750000e+01
    endloop
endfacet
facet normal -9.914449e-01 1.305261e-01 0.000000e+00
    outer loop
        vertex -1.350000e+01 2.230000e+01 3.750000e+01
        vertex -1.350000e+01 2.230000e+01 4.440000e+01
        vertex -1.329556e+01 2.385291e+01 3.750000e+01
    endloop
endfacet
facet normal -9.914449e-01 1.305261e-01 0.000000e+00
    outer loop
        vertex -1.350000e+01 2.230000e+01 4.440000e+01
        vertex -1.329556e+01 2.385291e+01 4.440000e+01
        vertex -1.329556e+01 2.385291e+01 3.750000e+01
    endloop
endfacet
facet normal -9.238794e-01 3.826838e-01 0.000000e+00
    outer loop
        vertex -1.329556e+01 2.385291e+01 3.750000e+01
        vertex -1.329556e+01 2.385291e+01 4.440000e+01
        vertex -1.269615e+01 2.530000e+01 3.750000e+01
    endloop
endfacet
facet normal -9.238794e-01 3.826838e-01 0.000000e+00
    outer loop
        vertex -1.329556e+01 2.385291e+01 4.440000e+01
        vertex -1.269615e+01 2.530000e+01 4.440000e+01
        vertex -1.269615e+01 2.530000e+01 3.750000e+01
    endloop
endfacet
facet normal -7.933552e-01 6.087591e-01 0.000000e+00
    outer loop
        vertex -1.269615e+01 2.530000e+01 3.750000e+01
        vertex -1.269615e+01 2.530000e+01 4.440000e+01
        vertex -1.174265e+01 2.654264e+01 3.750000e+01
    endloop
endfacet
facet normal -7.933552e-01 6.087591e-01 0.000000e+00
    outer loop
        vertex -1.269615e+01 2.530000e+01 4.440000e+01
        vertex -1.174265e+01 2.654264e+01 4.440000e+01
        vertex -1.174265e+01 2.654264e+01 3.750000e+01
    endloop
endfacet
facet normal -6.087595e-01 7.933549e-01 0.000000e+00
    outer loop
        vertex -1.174265e+01 2.654264e+01 3.750000e+01
        vertex -1.174265e+01 2.654264e+01 4.440000e+01
        vertex -1.050000e+01 2.749615e+01 3.750000e+01
    endloop
endfacet
facet normal -6.087595e-01 7.933549e-01 0.000000e+00
    outer loop
        vertex -1.174265e+01 2.654264e+01 4.440000e+01
        vertex -1.050000e+01 2.749615e+01 4.440000e+01
        vertex -1.050000e+01 2.749615e+01 3.750000e+01
    endloop
endfacet
facet normal -3.826846e-01 9.238790e-01 0.000000e+00
    outer loop
        vertex -1.050000e+01 2.749615e+01 3.750000e+01
        vertex -1.050000e+01 2.749615e+01 4.440000e+01
        vertex -9.052917e+00 2.809556e+01 3.750000e+01
    endloop
endfacet
facet normal -3.826846e-01 9.238790e-01 0.000000e+00
    outer loop
        vertex -1.050000e+01 2.749615e+01 4.440000e+01
        vertex -9.052917e+00 2.809556e+01 4.440000e+01
        vertex -9.052917e+00 2.809556e+01 3.750000e+01
    endloop
endfacet
facet normal -1.305258e-01 9.914449e-01 0.000000e+00
    outer loop
        vertex -9.052917e+00 2.809556e+01 3.750000e+01
        vertex -9.052917e+00 2.809556e+01 4.440000e+01
        vertex -7.500000e+00 2.830000e+01 3.750000e+01
    endloop
endfacet
facet normal -1.305258e-01 9.914449e-01 0.000000e+00
    outer loop
        vertex -9.052917e+00 2.809556e+01 4.440000e+01
        vertex -7.500000e+00 2.830000e+01 4.440000e+01
        vertex -7.500000e+00 2.830000e+01 3.750000e+01
    endloop
endfacet
facet normal 1.305258e-01 9.914449e-01 -0.000000e+00
    outer loop
        vertex -5.947083e+00 2.809556e+01 3.750000e+01
        vertex -7.500000e+00 2.830000e+01 3.750000e+01
        vertex -5.947083e+00 2.809556e+01 4.440000e+01
    endloop
endfacet
facet normal 1.305258e-01 9.914449e-01 0.000000e+00
    outer loop
        vertex -5.947083e+00 2.809556e+01 4.440000e+01
        vertex -7.500000e+00 2.830000e+01 3.750000e+01
        vertex -7.500000e+00 2.830000e+01 4.440000e+01
    endloop
endfacet
facet normal 3.826846e-01 9.238790e-01 -0.000000e+00
    outer loop
        vertex -4.500000e+00 2.749615e+01 3.750000e+01
        vertex -5.947083e+00 2.809556e+01 3.750000e+01
        vertex -4.500000e+00 2.749615e+01 4.440000e+01
    endloop
endfacet
facet normal 3.826846e-01 9.238790e-01 0.000000e+00
    outer loop
        vertex -4.500000e+00 2.749615e+01 4.440000e+01
        vertex -5.947083e+00 2.809556e+01 3.750000e+01
        vertex -5.947083e+00 2.809556e+01 4.440000e+01
    endloop
endfacet
facet normal 6.087618e-01 7.933531e-01 -0.000000e+00
    outer loop
        vertex -3.257362e+00 2.654264e+01 3.750000e+01
        vertex -4.500000e+00 2.749615e+01 3.750000e+01
        vertex -3.257362e+00 2.654264e+01 4.440000e+01
    endloop
endfacet
facet normal 6.087618e-01 7.933531e-01 0.000000e+00
    outer loop
        vertex -3.257362e+00 2.654264e+01 4.440000e+01
        vertex -4.500000e+00 2.749615e+01 3.750000e+01
        vertex -4.500000e+00 2.749615e+01 4.440000e+01
    endloop
endfacet
facet normal 7.933528e-01 6.087621e-01 -0.000000e+00
    outer loop
        vertex -2.303848e+00 2.530000e+01 3.750000e+01
        vertex -3.257362e+00 2.654264e+01 3.750000e+01
        vertex -2.303848e+00 2.530000e+01 4.440000e+01
    endloop
endfacet
facet normal 7.933528e-01 6.087621e-01 0.000000e+00
    outer loop
        vertex -2.303848e+00 2.530000e+01 4.440000e+01
        vertex -3.257362e+00 2.654264e+01 3.750000e+01
        vertex -3.257362e+00 2.654264e+01 4.440000e+01
    endloop
endfacet
facet normal 9.238794e-01 3.826838e-01 -0.000000e+00
    outer loop
        vertex -1.704445e+00 2.385291e+01 3.750000e+01
        vertex -2.303848e+00 2.530000e+01 3.750000e+01
        vertex -1.704445e+00 2.385291e+01 4.440000e+01
    endloop
endfacet
facet normal 9.238794e-01 3.826838e-01 0.000000e+00
    outer loop
        vertex -1.704445e+00 2.385291e+01 4.440000e+01
        vertex -2.303848e+00 2.530000e+01 3.750000e+01
        vertex -2.303848e+00 2.530000e+01 4.440000e+01
    endloop
endfacet
facet normal 9.914449e-01 1.305261e-01 -0.000000e+00
    outer loop
        vertex -1.500000e+00 2.230000e+01 3.750000e+01
        vertex -1.704445e+00 2.385291e+01 3.750000e+01
        vertex -1.500000e+00 2.230000e+01 4.440000e+01
    endloop
endfacet
facet normal 9.914449e-01 1.305261e-01 0.000000e+00
    outer loop
        vertex -1.500000e+00 2.230000e+01 4.440000e+01
        vertex -1.704445e+00 2.385291e+01 3.750000e+01
        vertex -1.704445e+00 2.385291e+01 4.440000e+01
    endloop
endfacet
facet normal -9.914444e-01 -1.305295e-01 0.000000e+00
    outer loop
        vertex -4.000000e+00 2.200000e+01 3.750000e+01
        vertex -4.000000e+00 2.200000e+01 4.440000e+01
        vertex -4.119263e+00 2.290587e+01 3.750000e+01
    endloop
endfacet
facet normal -9.914444e-01 -1.305295e-01 0.000000e+00
    outer loop
        vertex -4.000000e+00 2.200000e+01 4.440000e+01
        vertex -4.119263e+00 2.290587e+01 4.440000e+01
        vertex -4.119263e+00 2.290587e+01 3.750000e+01
    endloop
endfacet
facet normal -9.238811e-01 -3.826797e-01 0.000000e+00
    outer loop
        vertex -4.119263e+00 2.290587e+01 3.750000e+01
        vertex -4.119263e+00 2.290587e+01 4.440000e+01
        vertex -4.468910e+00 2.375000e+01 3.750000e+01
    endloop
endfacet
facet normal -9.238811e-01 -3.826797e-01 0.000000e+00
    outer loop
        vertex -4.119263e+00 2.290587e+01 4.440000e+01
        vertex -4.468910e+00 2.375000e+01 4.440000e+01
        vertex -4.468910e+00 2.375000e+01 3.750000e+01
    endloop
endfacet
facet normal -7.933546e-01 -6.087598e-01 0.000000e+00
    outer loop
        vertex -4.468910e+00 2.375000e+01 3.750000e+01
        vertex -4.468910e+00 2.375000e+01 4.440000e+01
        vertex -5.025124e+00 2.447487e+01 3.750000e+01
    endloop
endfacet
facet normal -7.933546e-01 -6.087598e-01 0.000000e+00
    outer loop
        vertex -4.468910e+00 2.375000e+01 4.440000e+01
        vertex -5.025124e+00 2.447487e+01 4.440000e+01
        vertex -5.025124e+00 2.447487e+01 3.750000e+01
    endloop
endfacet
facet normal -6.087601e-01 -7.933544e-01 0.000000e+00
    outer loop
        vertex -5.025124e+00 2.447487e+01 3.750000e+01
        vertex -5.025124e+00 2.447487e+01 4.440000e+01
        vertex -5.750000e+00 2.503109e+01 3.750000e+01
    endloop
endfacet
facet normal -6.087601e-01 -7.933544e-01 0.000000e+00
    outer loop
        vertex -5.025124e+00 2.447487e+01 4.440000e+01
        vertex -5.750000e+00 2.503109e+01 4.440000e+01
        vertex -5.750000e+00 2.503109e+01 3.750000e+01
    endloop
endfacet
facet normal -3.826840e-01 -9.238793e-01 0.000000e+00
    outer loop
        vertex -5.750000e+00 2.503109e+01 3.750000e+01
        vertex -5.750000e+00 2.503109e+01 4.440000e+01
        vertex -6.594131e+00 2.538074e+01 3.750000e+01
    endloop
endfacet
facet normal -3.826840e-01 -9.238793e-01 0.000000e+00
    outer loop
        vertex -5.750000e+00 2.503109e+01 4.440000e+01
        vertex -6.594131e+00 2.538074e+01 4.440000e+01
        vertex -6.594131e+00 2.538074e+01 3.750000e+01
    endloop
endfacet
facet normal -1.305251e-01 -9.914450e-01 0.000000e+00
    outer loop
        vertex -6.594131e+00 2.538074e+01 3.750000e+01
        vertex -6.594131e+00 2.538074e+01 4.440000e+01
        vertex -7.500000e+00 2.550000e+01 3.750000e+01
    endloop
endfacet
facet normal -1.305251e-01 -9.914450e-01 0.000000e+00
    outer loop
        vertex -6.594131e+00 2.538074e+01 4.440000e+01
        vertex -7.500000e+00 2.550000e+01 4.440000e+01
        vertex -7.500000e+00 2.550000e+01 3.750000e+01
    endloop
endfacet
facet normal 1.305251e-01 -9.914450e-01 0.000000e+00
    outer loop
        vertex -8.405869e+00 2.538074e+01 3.750000e+01
        vertex -7.500000e+00 2.550000e+01 3.750000e+01
        vertex -8.405869e+00 2.538074e+01 4.440000e+01
    endloop
endfacet
facet normal 1.305251e-01 -9.914450e-01 0.000000e+00
    outer loop
        vertex -8.405869e+00 2.538074e+01 4.440000e+01
        vertex -7.500000e+00 2.550000e+01 3.750000e+01
        vertex -7.500000e+00 2.550000e+01 4.440000e+01
    endloop
endfacet
facet normal 3.826840e-01 -9.238793e-01 0.000000e+00
    outer loop
        vertex -9.250000e+00 2.503109e+01 3.750000e+01
        vertex -8.405869e+00 2.538074e+01 3.750000e+01
        vertex -9.250000e+00 2.503109e+01 4.440000e+01
    endloop
endfacet
facet normal 3.826840e-01 -9.238793e-01 0.000000e+00
    outer loop
        vertex -9.250000e+00 2.503109e+01 4.440000e+01
        vertex -8.405869e+00 2.538074e+01 3.750000e+01
        vertex -8.405869e+00 2.538074e+01 4.440000e+01
    endloop
endfacet
facet normal 6.087601e-01 -7.933544e-01 0.000000e+00
    outer loop
        vertex -9.974876e+00 2.447487e+01 3.750000e+01
        vertex -9.250000e+00 2.503109e+01 3.750000e+01
        vertex -9.974876e+00 2.447487e+01 4.440000e+01
    endloop
endfacet
facet normal 6.087601e-01 -7.933544e-01 0.000000e+00
    outer loop
        vertex -9.974876e+00 2.447487e+01 4.440000e+01
        vertex -9.250000e+00 2.503109e+01 3.750000e+01
        vertex -9.250000e+00 2.503109e+01 4.440000e+01
    endloop
endfacet
facet normal 7.933546e-01 -6.087598e-01 0.000000e+00
    outer loop
        vertex -1.053109e+01 2.375000e+01 3.750000e+01
        vertex -9.974876e+00 2.447487e+01 3.750000e+01
        vertex -1.053109e+01 2.375000e+01 4.440000e+01
    endloop
endfacet
facet normal 7.933546e-01 -6.087598e-01 0.000000e+00
    outer loop
        vertex -1.053109e+01 2.375000e+01 4.440000e+01
        vertex -9.974876e+00 2.447487e+01 3.750000e+01
        vertex -9.974876e+00 2.447487e+01 4.440000e+01
    endloop
endfacet
facet normal 9.238811e-01 -3.826797e-01 0.000000e+00
    outer loop
        vertex -1.088074e+01 2.290587e+01 3.750000e+01
        vertex -1.053109e+01 2.375000e+01 3.750000e+01
        vertex -1.088074e+01 2.290587e+01 4.440000e+01
    endloop
endfacet
facet normal 9.238811e-01 -3.826797e-01 0.000000e+00
    outer loop
        vertex -1.088074e+01 2.290587e+01 4.440000e+01
        vertex -1.053109e+01 2.375000e+01 3.750000e+01
        vertex -1.053109e+01 2.375000e+01 4.440000e+01
    endloop
endfacet
facet normal 9.914444e-01 -1.305295e-01 0.000000e+00
    outer loop
        vertex -1.100000e+01 2.200000e+01 3.750000e+01
        vertex -1.088074e+01 2.290587e+01 3.750000e+01
        vertex -1.100000e+01 2.200000e+01 4.440000e+01
    endloop
endfacet
facet normal 9.914444e-01 -1.305295e-01 0.000000e+00
    outer loop
        vertex -1.100000e+01 2.200000e+01 4.440000e+01
        vertex -1.088074e+01 2.290587e+01 3.750000e+01
        vertex -1.088074e+01 2.290587e+01 4.440000e+01
    endloop
endfacet
facet normal -9.914449e-01 -1.305261e-01 0.000000e+00
    outer loop
        vertex -1.329556e+01 -2.385291e+01 3.750000e+01
        vertex -1.350000e+01 -2.230000e+01 4.440000e+01
        vertex -1.350000e+01 -2.230000e+01 3.750000e+01
    endloop
endfacet
facet normal -9.914449e-01 -1.305261e-01 0.000000e+00
    outer loop
        vertex -1.329556e+01 -2.385291e+01 3.750000e+01
        vertex -1.329556e+01 -2.385291e+01 4.440000e+01
        vertex -1.350000e+01 -2.230000e+01 4.440000e+01
    endloop
endfacet
facet normal -9.238797e-01 -3.826829e-01 0.000000e+00
    outer loop
        vertex -1.269615e+01 -2.530000e+01 3.750000e+01
        vertex -1.329556e+01 -2.385291e+01 4.440000e+01
        vertex -1.329556e+01 -2.385291e+01 3.750000e+01
    endloop
endfacet
facet normal -9.238797e-01 -3.826829e-01 0.000000e+00
    outer loop
        vertex -1.269615e+01 -2.530000e+01 3.750000e+01
        vertex -1.269615e+01 -2.530000e+01 4.440000e+01
        vertex -1.329556e+01 -2.385291e+01 4.440000e+01
    endloop
endfacet
facet normal -7.933542e-01 -6.087602e-01 0.000000e+00
    outer loop
        vertex -1.174265e+01 -2.654264e+01 3.750000e+01
        vertex -1.269615e+01 -2.530000e+01 4.440000e+01
        vertex -1.269615e+01 -2.530000e+01 3.750000e+01
    endloop
endfacet
facet normal -7.933542e-01 -6.087602e-01 0.000000e+00
    outer loop
        vertex -1.174265e+01 -2.654264e+01 3.750000e+01
        vertex -1.174265e+01 -2.654264e+01 4.440000e+01
        vertex -1.269615e+01 -2.530000e+01 4.440000e+01
    endloop
endfacet
facet normal -6.087610e-01 -7.933537e-01 0.000000e+00
    outer loop
        vertex -1.050000e+01 -2.749615e+01 3.750000e+01
        vertex -1.174265e+01 -2.654264e+01 4.440000e+01
        vertex -1.174265e+01 -2.654264e+01 3.750000e+01
    endloop
endfacet
facet normal -6.087610e-01 -7.933537e-01 0.000000e+00
    outer loop
        vertex -1.050000e+01 -2.749615e+01 3.750000e+01
        vertex -1.050000e+01 -2.749615e+01 4.440000e+01
        vertex -1.174265e+01 -2.654264e+01 4.440000e+01
    endloop
endfacet
facet normal -3.826804e-01 -9.238808e-01 0.000000e+00
    outer loop
        vertex -9.052917e+00 -2.809555e+01 3.750000e+01
        vertex -1.050000e+01 -2.749615e+01 4.440000e+01
        vertex -1.050000e+01 -2.749615e+01 3.750000e+01
    endloop
endfacet
facet normal -3.826804e-01 -9.238808e-01 0.000000e+00
    outer loop
        vertex -9.052917e+00 -2.809555e+01 3.750000e+01
        vertex -9.052917e+00 -2.809555e+01 4.440000e+01
        vertex -1.050000e+01 -2.749615e+01 4.440000e+01
    endloop
endfacet
facet normal -1.305306e-01 -9.914443e-01 0.000000e+00
    outer loop
        vertex -7.500000e+00 -2.830000e+01 3.750000e+01
        vertex -9.052917e+00 -2.809555e+01 4.440000e+01
        vertex -9.052917e+00 -2.809555e+01 3.750000e+01
    endloop
endfacet
facet normal -1.305306e-01 -9.914443e-01 0.000000e+00
    outer loop
        vertex -7.500000e+00 -2.830000e+01 3.750000e+01
        vertex -7.500000e+00 -2.830000e+01 4.440000e+01
        vertex -9.052917e+00 -2.809555e+01 4.440000e+01
    endloop
endfacet
facet normal 1.305306e-01 -9.914443e-01 0.000000e+00
    outer loop
        vertex -7.500000e+00 -2.830000e+01 3.750000e+01
        vertex -5.947083e+00 -2.809555e+01 3.750000e+01
        vertex -5.947083e+00 -2.809555e+01 4.440000e+01
    endloop
endfacet
facet normal 1.305306e-01 -9.914443e-01 0.000000e+00
    outer loop
        vertex -7.500000e+00 -2.830000e+01 3.750000e+01
        vertex -5.947083e+00 -2.809555e+01 4.440000e+01
        vertex -7.500000e+00 -2.830000e+01 4.440000e+01
    endloop
endfacet
facet normal 3.826804e-01 -9.238808e-01 0.000000e+00
    outer loop
        vertex -5.947083e+00 -2.809555e+01 3.750000e+01
        vertex -4.500000e+00 -2.749615e+01 3.750000e+01
        vertex -4.500000e+00 -2.749615e+01 4.440000e+01
    endloop
endfacet
facet normal 3.826804e-01 -9.238808e-01 0.000000e+00
    outer loop
        vertex -5.947083e+00 -2.809555e+01 3.750000e+01
        vertex -4.500000e+00 -2.749615e+01 4.440000e+01
        vertex -5.947083e+00 -2.809555e+01 4.440000e+01
    endloop
endfacet
facet normal 6.087633e-01 -7.933519e-01 0.000000e+00
    outer loop
        vertex -4.500000e+00 -2.749615e+01 3.750000e+01
        vertex -3.257362e+00 -2.654264e+01 3.750000e+01
        vertex -3.257362e+00 -2.654264e+01 4.440000e+01
    endloop
endfacet
facet normal 6.087633e-01 -7.933519e-01 0.000000e+00
    outer loop
        vertex -4.500000e+00 -2.749615e+01 3.750000e+01
        vertex -3.257362e+00 -2.654264e+01 4.440000e+01
        vertex -4.500000e+00 -2.749615e+01 4.440000e+01
    endloop
endfacet
facet normal 7.933519e-01 -6.087633e-01 0.000000e+00
    outer loop
        vertex -3.257362e+00 -2.654264e+01 3.750000e+01
        vertex -2.303848e+00 -2.530000e+01 3.750000e+01
        vertex -2.303848e+00 -2.530000e+01 4.440000e+01
    endloop
endfacet
facet normal 7.933519e-01 -6.087633e-01 0.000000e+00
    outer loop
        vertex -3.257362e+00 -2.654264e+01 3.750000e+01
        vertex -2.303848e+00 -2.530000e+01 4.440000e+01
        vertex -3.257362e+00 -2.654264e+01 4.440000e+01
    endloop
endfacet
facet normal 9.238797e-01 -3.826829e-01 0.000000e+00
    outer loop
        vertex -2.303848e+00 -2.530000e+01 3.750000e+01
        vertex -1.704445e+00 -2.385291e+01 3.750000e+01
        vertex -1.704445e+00 -2.385291e+01 4.440000e+01
    endloop
endfacet
facet normal 9.238797e-01 -3.826829e-01 0.000000e+00
    outer loop
        vertex -2.303848e+00 -2.530000e+01 3.750000e+01
        vertex -1.704445e+00 -2.385291e+01 4.440000e+01
        vertex -2.303848e+00 -2.530000e+01 4.440000e+01
    endloop
endfacet
facet normal 9.914449e-01 -1.305261e-01 0.000000e+00
    outer loop
        vertex -1.704445e+00 -2.385291e+01 3.750000e+01
        vertex -1.500000e+00 -2.230000e+01 3.750000e+01
        vertex -1.500000e+00 -2.230000e+01 4.440000e+01
    endloop
endfacet
facet normal 9.914449e-01 -1.305261e-01 0.000000e+00
    outer loop
        vertex -1.704445e+00 -2.385291e+01 3.750000e+01
        vertex -1.500000e+00 -2.230000e+01 4.440000e+01
        vertex -1.704445e+00 -2.385291e+01 4.440000e+01
    endloop
endfacet
facet normal -9.914444e-01 1.305298e-01 0.000000e+00
    outer loop
        vertex -4.119263e+00 -2.310587e+01 3.750000e+01
        vertex -4.000000e+00 -2.220000e+01 4.440000e+01
        vertex -4.000000e+00 -2.220000e+01 3.750000e+01
    endloop
endfacet
facet normal -9.914444e-01 1.305298e-01 0.000000e+00
    outer loop
        vertex -4.119263e+00 -2.310587e+01 3.750000e+01
        vertex -4.119263e+00 -2.310587e+01 4.440000e+01
        vertex -4.000000e+00 -2.220000e+01 4.440000e+01
    endloop
endfacet
facet normal -9.238808e-01 3.826804e-01 0.000000e+00
    outer loop
        vertex -4.468910e+00 -2.395000e+01 3.750000e+01
        vertex -4.119263e+00 -2.310587e+01 4.440000e+01
        vertex -4.119263e+00 -2.310587e+01 3.750000e+01
    endloop
endfacet
facet normal -9.238808e-01 3.826804e-01 0.000000e+00
    outer loop
        vertex -4.468910e+00 -2.395000e+01 3.750000e+01
        vertex -4.468910e+00 -2.395000e+01 4.440000e+01
        vertex -4.119263e+00 -2.310587e+01 4.440000e+01
    endloop
endfacet
facet normal -7.933553e-01 6.087588e-01 0.000000e+00
    outer loop
        vertex -5.025124e+00 -2.467487e+01 3.750000e+01
        vertex -4.468910e+00 -2.395000e+01 4.440000e+01
        vertex -4.468910e+00 -2.395000e+01 3.750000e+01
    endloop
endfacet
facet normal -7.933553e-01 6.087588e-01 0.000000e+00
    outer loop
        vertex -5.025124e+00 -2.467487e+01 3.750000e+01
        vertex -5.025124e+00 -2.467487e+01 4.440000e+01
        vertex -4.468910e+00 -2.395000e+01 4.440000e+01
    endloop
endfacet
facet normal -6.087641e-01 7.933514e-01 0.000000e+00
    outer loop
        vertex -5.750000e+00 -2.523109e+01 3.750000e+01
        vertex -5.025124e+00 -2.467487e+01 4.440000e+01
        vertex -5.025124e+00 -2.467487e+01 3.750000e+01
    endloop
endfacet
facet normal -6.087641e-01 7.933514e-01 0.000000e+00
    outer loop
        vertex -5.750000e+00 -2.523109e+01 3.750000e+01
        vertex -5.750000e+00 -2.523109e+01 4.440000e+01
        vertex -5.025124e+00 -2.467487e+01 4.440000e+01
    endloop
endfacet
facet normal -3.826804e-01 9.238808e-01 0.000000e+00
    outer loop
        vertex -6.594131e+00 -2.558074e+01 3.750000e+01
        vertex -5.750000e+00 -2.523109e+01 4.440000e+01
        vertex -5.750000e+00 -2.523109e+01 3.750000e+01
    endloop
endfacet
facet normal -3.826804e-01 9.238808e-01 0.000000e+00
    outer loop
        vertex -6.594131e+00 -2.558074e+01 3.750000e+01
        vertex -6.594131e+00 -2.558074e+01 4.440000e+01
        vertex -5.750000e+00 -2.523109e+01 4.440000e+01
    endloop
endfacet
facet normal -1.305210e-01 9.914455e-01 0.000000e+00
    outer loop
        vertex -7.500000e+00 -2.570000e+01 3.750000e+01
        vertex -6.594131e+00 -2.558074e+01 4.440000e+01
        vertex -6.594131e+00 -2.558074e+01 3.750000e+01
    endloop
endfacet
facet normal -1.305210e-01 9.914455e-01 0.000000e+00
    outer loop
        vertex -7.500000e+00 -2.570000e+01 3.750000e+01
        vertex -7.500000e+00 -2.570000e+01 4.440000e+01
        vertex -6.594131e+00 -2.558074e+01 4.440000e+01
    endloop
endfacet
facet normal 1.305210e-01 9.914455e-01 0.000000e+00
    outer loop
        vertex -7.500000e+00 -2.570000e+01 3.750000e+01
        vertex -8.405869e+00 -2.558074e+01 3.750000e+01
        vertex -8.405869e+00 -2.558074e+01 4.440000e+01
    endloop
endfacet
facet normal 1.305210e-01 9.914455e-01 -0.000000e+00
    outer loop
        vertex -7.500000e+00 -2.570000e+01 3.750000e+01
        vertex -8.405869e+00 -2.558074e+01 4.440000e+01
        vertex -7.500000e+00 -2.570000e+01 4.440000e+01
    endloop
endfacet
facet normal 3.826804e-01 9.238808e-01 0.000000e+00
    outer loop
        vertex -8.405869e+00 -2.558074e+01 3.750000e+01
        vertex -9.250000e+00 -2.523109e+01 3.750000e+01
        vertex -9.250000e+00 -2.523109e+01 4.440000e+01
    endloop
endfacet
facet normal 3.826804e-01 9.238808e-01 -0.000000e+00
    outer loop
        vertex -8.405869e+00 -2.558074e+01 3.750000e+01
        vertex -9.250000e+00 -2.523109e+01 4.440000e+01
        vertex -8.405869e+00 -2.558074e+01 4.440000e+01
    endloop
endfacet
facet normal 6.087641e-01 7.933514e-01 0.000000e+00
    outer loop
        vertex -9.250000e+00 -2.523109e+01 3.750000e+01
        vertex -9.974876e+00 -2.467487e+01 3.750000e+01
        vertex -9.974876e+00 -2.467487e+01 4.440000e+01
    endloop
endfacet
facet normal 6.087641e-01 7.933514e-01 -0.000000e+00
    outer loop
        vertex -9.250000e+00 -2.523109e+01 3.750000e+01
        vertex -9.974876e+00 -2.467487e+01 4.440000e+01
        vertex -9.250000e+00 -2.523109e+01 4.440000e+01
    endloop
endfacet
facet normal 7.933553e-01 6.087588e-01 0.000000e+00
    outer loop
        vertex -9.974876e+00 -2.467487e+01 3.750000e+01
        vertex -1.053109e+01 -2.395000e+01 3.750000e+01
        vertex -1.053109e+01 -2.395000e+01 4.440000e+01
    endloop
endfacet
facet normal 7.933553e-01 6.087588e-01 -0.000000e+00
    outer loop
        vertex -9.974876e+00 -2.467487e+01 3.750000e+01
        vertex -1.053109e+01 -2.395000e+01 4.440000e+01
        vertex -9.974876e+00 -2.467487e+01 4.440000e+01
    endloop
endfacet
facet normal 9.238808e-01 3.826804e-01 0.000000e+00
    outer loop
        vertex -1.053109e+01 -2.395000e+01 3.750000e+01
        vertex -1.088074e+01 -2.310587e+01 3.750000e+01
        vertex -1.088074e+01 -2.310587e+01 4.440000e+01
    endloop
endfacet
facet normal 9.238808e-01 3.826804e-01 -0.000000e+00
    outer loop
        vertex -1.053109e+01 -2.395000e+01 3.750000e+01
        vertex -1.088074e+01 -2.310587e+01 4.440000e+01
        vertex -1.053109e+01 -2.395000e+01 4.440000e+01
    endloop
endfacet
facet normal 9.914444e-01 1.305298e-01 0.000000e+00
    outer loop
        vertex -1.088074e+01 -2.310587e+01 3.750000e+01
        vertex -1.100000e+01 -2.220000e+01 3.750000e+01
        vertex -1.100000e+01 -2.220000e+01 4.440000e+01
    endloop
endfacet
facet normal 9.914444e-01 1.305298e-01 -0.000000e+00
    outer loop
        vertex -1.088074e+01 -2.310587e+01 3.750000e+01
        vertex -1.100000e+01 -2.220000e+01 4.440000e+01
        vertex -1.088074e+01 -2.310587e+01 4.440000e+01
    endloop
endfacet
facet normal -1.000000e+00 0.000000e+00 0.000000e+00
    outer loop
        vertex -6.342195e+01 1.775736e-16 4.440000e+01
        vertex -6.342195e+01 4.945496e+00 4.330689e+01
        vertex -6.342195e+01 3.056484e+00 3.749311e+01
    endloop
endfacet
facet normal -1.000000e+00 0.000000e+00 0.000000e+00
    outer loop
        vertex -6.342195e+01 -3.056484e+00 3.749311e+01
        vertex -6.342195e+01 1.775736e-16 4.440000e+01
        vertex -6.342195e+01 3.056484e+00 3.749311e+01
    endloop
endfacet
facet normal -1.000000e+00 0.000000e+00 0.000000e+00
    outer loop
        vertex -6.342195e+01 -4.945496e+00 4.330689e+01
        vertex -6.342195e+01 1.775736e-16 4.440000e+01
        vertex -6.342195e+01 -3.056484e+00 3.749311e+01
    endloop
endfacet
facet normal 0.000000e+00 -2.158221e-01 9.764327e-01
    outer loop
        vertex -1.350000e+01 -4.945496e+00 4.330689e+01
        vertex -1.350000e+01 1.775736e-16 4.440000e+01
        vertex -6.342195e+01 1.775736e-16 4.440000e+01
    endloop
endfacet
facet normal 0.000000e+00 -2.158221e-01 9.764327e-01
    outer loop
        vertex -1.350000e+01 -4.945496e+00 4.330689e+01
        vertex -6.342195e+01 1.775736e-16 4.440000e+01
        vertex -6.342195e+01 -4.945496e+00 4.330689e+01
    endloop
endfacet
facet normal 0.000000e+00 -9.510565e-01 -3.090171e-01
    outer loop
        vertex -1.350000e+01 -4.945496e+00 4.330689e+01
        vertex -6.342195e+01 -3.056484e+00 3.749311e+01
        vertex -1.350000e+01 -3.056484e+00 3.749311e+01
    endloop
endfacet
facet normal -0.000000e+00 -9.510565e-01 -3.090171e-01
    outer loop
        vertex -1.350000e+01 -4.945496e+00 4.330689e+01
        vertex -6.342195e+01 -4.945496e+00 4.330689e+01
        vertex -6.342195e+01 -3.056484e+00 3.749311e+01
    endloop
endfacet
facet normal 0.000000e+00 6.240335e-07 -1.000000e+00
    outer loop
        vertex -1.350000e+01 -3.056484e+00 3.749311e+01
        vertex -6.342195e+01 3.056484e+00 3.749311e+01
        vertex -1.350000e+01 3.056484e+00 3.749311e+01
    endloop
endfacet
facet normal 0.000000e+00 6.240335e-07 -1.000000e+00
    outer loop
        vertex -1.350000e+01 -3.056484e+00 3.749311e+01
        vertex -6.342195e+01 -3.056484e+00 3.749311e+01
        vertex -6.342195e+01 3.056484e+00 3.749311e+01
    endloop
endfacet
facet normal 0.000000e+00 9.510564e-01 -3.090172e-01
    outer loop
        vertex -1.350000e+01 3.056484e+00 3.749311e+01
        vertex -6.342195e+01 4.945496e+00 4.330689e+01
        vertex -1.350000e+01 4.945496e+00 4.330689e+01
    endloop
endfacet
facet normal 0.000000e+00 9.510564e-01 -3.090172e-01
    outer loop
        vertex -1.350000e+01 3.056484e+00 3.749311e+01
        vertex -6.342195e+01 3.056484e+00 3.749311e+01
        vertex -6.342195e+01 4.945496e+00 4.330689e+01
    endloop
endfacet
facet normal 0.000000e+00 2.158221e-01 9.764327e-01
    outer loop
        vertex -1.350000e+01 1.775736e-16 4.440000e+01
        vertex -1.350000e+01 4.945496e+00 4.330689e+01
        vertex -6.342195e+01 4.945496e+00 4.330689e+01
    endloop
endfacet
facet normal 0.000000e+00 2.158221e-01 9.764327e-01
    outer loop
        vertex -1.350000e+01 1.775736e-16 4.440000e+01
        vertex -6.342195e+01 4.945496e+00 4.330689e+01
        vertex -6.342195e+01 1.775736e-16 4.440000e+01
    endloop
endfacet
facet normal 1.000000e+00 0.000000e+00 0.000000e+00
    outer loop
        vertex -1.350000e+01 1.775736e-16 4.440000e+01
        vertex -1.350000e+01 3.056484e+00 3.749311e+01
        vertex -1.350000e+01 4.945496e+00 4.330689e+01
    endloop
endfacet
facet normal 1.000000e+00 -0.000000e+00 0.000000e+00
    outer loop
        vertex -1.350000e+01 -4.945496e+00 4.330689e+01
        vertex -1.350000e+01 -3.056484e+00 3.749311e+01
        vertex -1.350000e+01 1.775736e-16 4.440000e+01
    endloop
endfacet
facet normal 1.000000e+00 0.000000e+00 0.000000e+00
    outer loop
        vertex -1.350000e+01 -3.056484e+00 3.749311e+01
        vertex -1.350000e+01 3.056484e+00 3.749311e+01
        vertex -1.350000e+01 1.775736e-16 4.440000e+01
    endloop
endfacet
endsolid pusher.stl
