solid pusher-motor-case.stl
facet normal 0.000000e+00 0.000000e+00 -1.000000e+00
    outer loop
        vertex 7.730000e+01 -9.500000e+00 9.450000e+01
        vertex 7.530000e+01 -8.500000e+00 9.450000e+01
        vertex 7.730000e+01 9.500000e+00 9.450000e+01
    endloop
endfacet
facet normal 0.000000e+00 0.000000e+00 -1.000000e+00
    outer loop
        vertex 7.530000e+01 -8.500000e+00 9.450000e+01
        vertex 7.530000e+01 8.500000e+00 9.450000e+01
        vertex 7.730000e+01 9.500000e+00 9.450000e+01
    endloop
endfacet
facet normal 0.000000e+00 0.000000e+00 -1.000000e+00
    outer loop
        vertex 7.530000e+01 8.500000e+00 9.450000e+01
        vertex 5.830000e+01 9.500000e+00 9.450000e+01
        vertex 7.730000e+01 9.500000e+00 9.450000e+01
    endloop
endfacet
facet normal 0.000000e+00 0.000000e+00 -1.000000e+00
    outer loop
        vertex 5.830000e+01 -9.500000e+00 9.450000e+01
        vertex 7.530000e+01 -8.500000e+00 9.450000e+01
        vertex 7.730000e+01 -9.500000e+00 9.450000e+01
    endloop
endfacet
facet normal 0.000000e+00 0.000000e+00 -1.000000e+00
    outer loop
        vertex 6.030000e+01 8.500000e+00 9.450000e+01
        vertex 5.830000e+01 9.500000e+00 9.450000e+01
        vertex 7.530000e+01 8.500000e+00 9.450000e+01
    endloop
endfacet
facet normal 0.000000e+00 0.000000e+00 -1.000000e+00
    outer loop
        vertex 5.830000e+01 -9.500000e+00 9.450000e+01
        vertex 5.830000e+01 9.500000e+00 9.450000e+01
        vertex 6.030000e+01 8.500000e+00 9.450000e+01
    endloop
endfacet
facet normal 0.000000e+00 0.000000e+00 -1.000000e+00
    outer loop
        vertex 5.830000e+01 -9.500000e+00 9.450000e+01
        vertex 6.030000e+01 8.500000e+00 9.450000e+01
        vertex 6.030000e+01 -8.500000e+00 9.450000e+01
    endloop
endfacet
facet normal 0.000000e+00 0.000000e+00 -1.000000e+00
    outer loop
        vertex 5.830000e+01 -9.500000e+00 9.450000e+01
        vertex 6.030000e+01 -8.500000e+00 9.450000e+01
        vertex 7.530000e+01 -8.500000e+00 9.450000e+01
    endloop
endfacet
facet normal -1.000000e+00 0.000000e+00 0.000000e+00
    outer loop
        vertex 5.830000e+01 5.000000e+00 1.150000e+02
        vertex 5.830000e+01 7.500000e+00 1.195000e+02
        vertex 5.830000e+01 7.500000e+00 1.150000e+02
    endloop
endfacet
facet normal -1.000000e+00 0.000000e+00 0.000000e+00
    outer loop
        vertex 5.830000e+01 -7.500000e+00 1.195000e+02
        vertex 5.830000e+01 7.500000e+00 1.195000e+02
        vertex 5.830000e+01 5.000000e+00 1.150000e+02
    endloop
endfacet
facet normal -1.000000e+00 0.000000e+00 0.000000e+00
    outer loop
        vertex 5.830000e+01 -7.500000e+00 1.195000e+02
        vertex 5.830000e+01 5.000000e+00 1.150000e+02
        vertex 5.830000e+01 5.000000e+00 9.900000e+01
    endloop
endfacet
facet normal -1.000000e+00 0.000000e+00 0.000000e+00
    outer loop
        vertex 5.830000e+01 5.000000e+00 9.900000e+01
        vertex 5.830000e+01 9.500000e+00 9.900000e+01
        vertex 5.830000e+01 9.500000e+00 9.450000e+01
    endloop
endfacet
facet normal -1.000000e+00 0.000000e+00 0.000000e+00
    outer loop
        vertex 5.830000e+01 -9.500000e+00 9.450000e+01
        vertex 5.830000e+01 5.000000e+00 9.900000e+01
        vertex 5.830000e+01 9.500000e+00 9.450000e+01
    endloop
endfacet
facet normal -1.000000e+00 0.000000e+00 0.000000e+00
    outer loop
        vertex 5.830000e+01 -9.500000e+00 9.450000e+01
        vertex 5.830000e+01 -9.500000e+00 9.900000e+01
        vertex 5.830000e+01 -5.000000e+00 9.900000e+01
    endloop
endfacet
facet normal -1.000000e+00 0.000000e+00 0.000000e+00
    outer loop
        vertex 5.830000e+01 -9.500000e+00 9.450000e+01
        vertex 5.830000e+01 -5.000000e+00 9.900000e+01
        vertex 5.830000e+01 5.000000e+00 9.900000e+01
    endloop
endfacet
facet normal -1.000000e+00 0.000000e+00 0.000000e+00
    outer loop
        vertex 5.830000e+01 -7.500000e+00 1.150000e+02
        vertex 5.830000e+01 -7.500000e+00 1.195000e+02
        vertex 5.830000e+01 -5.000000e+00 1.150000e+02
    endloop
endfacet
facet normal -1.000000e+00 0.000000e+00 0.000000e+00
    outer loop
        vertex 5.830000e+01 -5.000000e+00 9.900000e+01
        vertex 5.830000e+01 -5.000000e+00 1.150000e+02
        vertex 5.830000e+01 5.000000e+00 9.900000e+01
    endloop
endfacet
facet normal -1.000000e+00 0.000000e+00 0.000000e+00
    outer loop
        vertex 5.830000e+01 -7.500000e+00 1.195000e+02
        vertex 5.830000e+01 5.000000e+00 9.900000e+01
        vertex 5.830000e+01 -5.000000e+00 1.150000e+02
    endloop
endfacet
facet normal 1.000000e+00 0.000000e+00 0.000000e+00
    outer loop
        vertex 7.730000e+01 -7.500000e+00 1.150000e+02
        vertex 7.730000e+01 -5.000000e+00 1.150000e+02
        vertex 7.730000e+01 -7.500000e+00 1.195000e+02
    endloop
endfacet
facet normal 1.000000e+00 -0.000000e+00 0.000000e+00
    outer loop
        vertex 7.730000e+01 -7.500000e+00 1.195000e+02
        vertex 7.730000e+01 -5.000000e+00 1.150000e+02
        vertex 7.730000e+01 7.500000e+00 1.195000e+02
    endloop
endfacet
facet normal 1.000000e+00 0.000000e+00 0.000000e+00
    outer loop
        vertex 7.730000e+01 -5.000000e+00 9.900000e+01
        vertex 7.730000e+01 7.500000e+00 1.195000e+02
        vertex 7.730000e+01 -5.000000e+00 1.150000e+02
    endloop
endfacet
facet normal 1.000000e+00 0.000000e+00 0.000000e+00
    outer loop
        vertex 7.730000e+01 -9.500000e+00 9.450000e+01
        vertex 7.730000e+01 -5.000000e+00 9.900000e+01
        vertex 7.730000e+01 -9.500000e+00 9.900000e+01
    endloop
endfacet
facet normal 1.000000e+00 0.000000e+00 0.000000e+00
    outer loop
        vertex 7.730000e+01 -9.500000e+00 9.450000e+01
        vertex 7.730000e+01 9.500000e+00 9.450000e+01
        vertex 7.730000e+01 -5.000000e+00 9.900000e+01
    endloop
endfacet
facet normal 1.000000e+00 -0.000000e+00 0.000000e+00
    outer loop
        vertex 7.730000e+01 5.000000e+00 9.900000e+01
        vertex 7.730000e+01 9.500000e+00 9.450000e+01
        vertex 7.730000e+01 9.500000e+00 9.900000e+01
    endloop
endfacet
facet normal 1.000000e+00 -0.000000e+00 0.000000e+00
    outer loop
        vertex 7.730000e+01 -5.000000e+00 9.900000e+01
        vertex 7.730000e+01 9.500000e+00 9.450000e+01
        vertex 7.730000e+01 5.000000e+00 9.900000e+01
    endloop
endfacet
facet normal 1.000000e+00 0.000000e+00 0.000000e+00
    outer loop
        vertex 7.730000e+01 5.000000e+00 1.150000e+02
        vertex 7.730000e+01 7.500000e+00 1.150000e+02
        vertex 7.730000e+01 7.500000e+00 1.195000e+02
    endloop
endfacet
facet normal 1.000000e+00 0.000000e+00 0.000000e+00
    outer loop
        vertex 7.730000e+01 -5.000000e+00 9.900000e+01
        vertex 7.730000e+01 5.000000e+00 1.150000e+02
        vertex 7.730000e+01 7.500000e+00 1.195000e+02
    endloop
endfacet
facet normal 1.000000e+00 0.000000e+00 0.000000e+00
    outer loop
        vertex 7.730000e+01 -5.000000e+00 9.900000e+01
        vertex 7.730000e+01 5.000000e+00 9.900000e+01
        vertex 7.730000e+01 5.000000e+00 1.150000e+02
    endloop
endfacet
facet normal 1.000000e+00 -0.000000e+00 0.000000e+00
    outer loop
        vertex 6.030000e+01 -5.000000e+00 1.050000e+02
        vertex 6.030000e+01 5.000000e+00 9.900000e+01
        vertex 6.030000e+01 5.000000e+00 1.050000e+02
    endloop
endfacet
facet normal 1.000000e+00 -0.000000e+00 0.000000e+00
    outer loop
        vertex 6.030000e+01 5.000000e+00 9.900000e+01
        vertex 6.030000e+01 8.500000e+00 9.450000e+01
        vertex 6.030000e+01 8.500000e+00 9.900000e+01
    endloop
endfacet
facet normal 1.000000e+00 0.000000e+00 0.000000e+00
    outer loop
        vertex 6.030000e+01 -8.500000e+00 9.450000e+01
        vertex 6.030000e+01 8.500000e+00 9.450000e+01
        vertex 6.030000e+01 5.000000e+00 9.900000e+01
    endloop
endfacet
facet normal 1.000000e+00 0.000000e+00 0.000000e+00
    outer loop
        vertex 6.030000e+01 -5.000000e+00 9.900000e+01
        vertex 6.030000e+01 5.000000e+00 9.900000e+01
        vertex 6.030000e+01 -5.000000e+00 1.050000e+02
    endloop
endfacet
facet normal 1.000000e+00 0.000000e+00 0.000000e+00
    outer loop
        vertex 6.030000e+01 -8.500000e+00 9.450000e+01
        vertex 6.030000e+01 5.000000e+00 9.900000e+01
        vertex 6.030000e+01 -5.000000e+00 9.900000e+01
    endloop
endfacet
facet normal 1.000000e+00 0.000000e+00 0.000000e+00
    outer loop
        vertex 6.030000e+01 -8.500000e+00 9.450000e+01
        vertex 6.030000e+01 -5.000000e+00 9.900000e+01
        vertex 6.030000e+01 -8.500000e+00 9.900000e+01
    endloop
endfacet
facet normal -1.000000e+00 0.000000e+00 0.000000e+00
    outer loop
        vertex 7.530000e+01 -5.000000e+00 9.900000e+01
        vertex 7.530000e+01 -5.000000e+00 1.050000e+02
        vertex 7.530000e+01 5.000000e+00 1.050000e+02
    endloop
endfacet
facet normal -1.000000e+00 0.000000e+00 0.000000e+00
    outer loop
        vertex 7.530000e+01 -8.500000e+00 9.450000e+01
        vertex 7.530000e+01 -8.500000e+00 9.900000e+01
        vertex 7.530000e+01 -5.000000e+00 9.900000e+01
    endloop
endfacet
facet normal -1.000000e+00 0.000000e+00 0.000000e+00
    outer loop
        vertex 7.530000e+01 -8.500000e+00 9.450000e+01
        vertex 7.530000e+01 -5.000000e+00 9.900000e+01
        vertex 7.530000e+01 8.500000e+00 9.450000e+01
    endloop
endfacet
facet normal -1.000000e+00 0.000000e+00 0.000000e+00
    outer loop
        vertex 7.530000e+01 -5.000000e+00 9.900000e+01
        vertex 7.530000e+01 5.000000e+00 1.050000e+02
        vertex 7.530000e+01 5.000000e+00 9.900000e+01
    endloop
endfacet
facet normal -1.000000e+00 0.000000e+00 0.000000e+00
    outer loop
        vertex 7.530000e+01 -5.000000e+00 9.900000e+01
        vertex 7.530000e+01 5.000000e+00 9.900000e+01
        vertex 7.530000e+01 8.500000e+00 9.450000e+01
    endloop
endfacet
facet normal -1.000000e+00 0.000000e+00 0.000000e+00
    outer loop
        vertex 7.530000e+01 5.000000e+00 9.900000e+01
        vertex 7.530000e+01 8.500000e+00 9.900000e+01
        vertex 7.530000e+01 8.500000e+00 9.450000e+01
    endloop
endfacet
facet normal -1.000000e+00 0.000000e+00 0.000000e+00
    outer loop
        vertex 7.330000e+01 -5.000000e+00 1.050000e+02
        vertex 7.330000e+01 -5.000000e+00 1.150000e+02
        vertex 7.330000e+01 5.000000e+00 1.050000e+02
    endloop
endfacet
facet normal -1.000000e+00 0.000000e+00 0.000000e+00
    outer loop
        vertex 7.330000e+01 -6.500000e+00 1.150000e+02
        vertex 7.330000e+01 -6.500000e+00 1.185000e+02
        vertex 7.330000e+01 -5.000000e+00 1.150000e+02
    endloop
endfacet
facet normal -1.000000e+00 0.000000e+00 0.000000e+00
    outer loop
        vertex 7.330000e+01 -6.500000e+00 1.185000e+02
        vertex 7.330000e+01 6.500000e+00 1.185000e+02
        vertex 7.330000e+01 -5.000000e+00 1.150000e+02
    endloop
endfacet
facet normal -1.000000e+00 0.000000e+00 0.000000e+00
    outer loop
        vertex 7.330000e+01 5.000000e+00 1.150000e+02
        vertex 7.330000e+01 6.500000e+00 1.185000e+02
        vertex 7.330000e+01 6.500000e+00 1.150000e+02
    endloop
endfacet
facet normal -1.000000e+00 0.000000e+00 0.000000e+00
    outer loop
        vertex 7.330000e+01 -5.000000e+00 1.150000e+02
        vertex 7.330000e+01 6.500000e+00 1.185000e+02
        vertex 7.330000e+01 5.000000e+00 1.150000e+02
    endloop
endfacet
facet normal -1.000000e+00 0.000000e+00 0.000000e+00
    outer loop
        vertex 7.330000e+01 -5.000000e+00 1.150000e+02
        vertex 7.330000e+01 5.000000e+00 1.150000e+02
        vertex 7.330000e+01 5.000000e+00 1.050000e+02
    endloop
endfacet
facet normal 1.000000e+00 0.000000e+00 0.000000e+00
    outer loop
        vertex 6.230000e+01 -5.000000e+00 1.050000e+02
        vertex 6.230000e+01 5.000000e+00 1.050000e+02
        vertex 6.230000e+01 5.000000e+00 1.150000e+02
    endloop
endfacet
facet normal 1.000000e+00 0.000000e+00 0.000000e+00
    outer loop
        vertex 6.230000e+01 5.000000e+00 1.150000e+02
        vertex 6.230000e+01 6.500000e+00 1.150000e+02
        vertex 6.230000e+01 6.500000e+00 1.185000e+02
    endloop
endfacet
facet normal 1.000000e+00 -0.000000e+00 0.000000e+00
    outer loop
        vertex 6.230000e+01 -6.500000e+00 1.185000e+02
        vertex 6.230000e+01 5.000000e+00 1.150000e+02
        vertex 6.230000e+01 6.500000e+00 1.185000e+02
    endloop
endfacet
facet normal 1.000000e+00 0.000000e+00 0.000000e+00
    outer loop
        vertex 6.230000e+01 -6.500000e+00 1.150000e+02
        vertex 6.230000e+01 -5.000000e+00 1.150000e+02
        vertex 6.230000e+01 -6.500000e+00 1.185000e+02
    endloop
endfacet
facet normal 1.000000e+00 0.000000e+00 0.000000e+00
    outer loop
        vertex 6.230000e+01 -6.500000e+00 1.185000e+02
        vertex 6.230000e+01 -5.000000e+00 1.150000e+02
        vertex 6.230000e+01 5.000000e+00 1.150000e+02
    endloop
endfacet
facet normal 1.000000e+00 0.000000e+00 0.000000e+00
    outer loop
        vertex 6.230000e+01 -5.000000e+00 1.050000e+02
        vertex 6.230000e+01 5.000000e+00 1.150000e+02
        vertex 6.230000e+01 -5.000000e+00 1.150000e+02
    endloop
endfacet
facet normal 0.000000e+00 0.000000e+00 1.000000e+00
    outer loop
        vertex 7.530000e+01 -8.500000e+00 9.900000e+01
        vertex 7.730000e+01 -5.000000e+00 9.900000e+01
        vertex 7.530000e+01 -5.000000e+00 9.900000e+01
    endloop
endfacet
facet normal 0.000000e+00 -0.000000e+00 1.000000e+00
    outer loop
        vertex 6.030000e+01 -8.500000e+00 9.900000e+01
        vertex 6.030000e+01 -5.000000e+00 9.900000e+01
        vertex 5.830000e+01 -5.000000e+00 9.900000e+01
    endloop
endfacet
facet normal 0.000000e+00 -0.000000e+00 1.000000e+00
    outer loop
        vertex 7.730000e+01 -9.500000e+00 9.900000e+01
        vertex 7.730000e+01 -5.000000e+00 9.900000e+01
        vertex 7.530000e+01 -8.500000e+00 9.900000e+01
    endloop
endfacet
facet normal 0.000000e+00 0.000000e+00 1.000000e+00
    outer loop
        vertex 5.830000e+01 -9.500000e+00 9.900000e+01
        vertex 7.730000e+01 -9.500000e+00 9.900000e+01
        vertex 7.530000e+01 -8.500000e+00 9.900000e+01
    endloop
endfacet
facet normal 0.000000e+00 0.000000e+00 1.000000e+00
    outer loop
        vertex 5.830000e+01 -9.500000e+00 9.900000e+01
        vertex 7.530000e+01 -8.500000e+00 9.900000e+01
        vertex 6.030000e+01 -8.500000e+00 9.900000e+01
    endloop
endfacet
facet normal 0.000000e+00 0.000000e+00 1.000000e+00
    outer loop
        vertex 5.830000e+01 -9.500000e+00 9.900000e+01
        vertex 6.030000e+01 -8.500000e+00 9.900000e+01
        vertex 5.830000e+01 -5.000000e+00 9.900000e+01
    endloop
endfacet
facet normal 0.000000e+00 -1.000000e+00 0.000000e+00
    outer loop
        vertex 6.230000e+01 -5.000000e+00 1.050000e+02
        vertex 6.230000e+01 -5.000000e+00 1.150000e+02
        vertex 5.830000e+01 -5.000000e+00 1.150000e+02
    endloop
endfacet
facet normal 0.000000e+00 -1.000000e+00 0.000000e+00
    outer loop
        vertex 5.830000e+01 -5.000000e+00 9.900000e+01
        vertex 6.030000e+01 -5.000000e+00 9.900000e+01
        vertex 6.030000e+01 -5.000000e+00 1.050000e+02
    endloop
endfacet
facet normal 0.000000e+00 -1.000000e+00 0.000000e+00
    outer loop
        vertex 5.830000e+01 -5.000000e+00 9.900000e+01
        vertex 6.030000e+01 -5.000000e+00 1.050000e+02
        vertex 5.830000e+01 -5.000000e+00 1.150000e+02
    endloop
endfacet
facet normal 0.000000e+00 -1.000000e+00 0.000000e+00
    outer loop
        vertex 6.030000e+01 -5.000000e+00 1.050000e+02
        vertex 6.230000e+01 -5.000000e+00 1.050000e+02
        vertex 5.830000e+01 -5.000000e+00 1.150000e+02
    endloop
endfacet
facet normal 0.000000e+00 -1.000000e+00 0.000000e+00
    outer loop
        vertex 7.330000e+01 -5.000000e+00 1.050000e+02
        vertex 7.730000e+01 -5.000000e+00 1.150000e+02
        vertex 7.330000e+01 -5.000000e+00 1.150000e+02
    endloop
endfacet
facet normal 0.000000e+00 -1.000000e+00 0.000000e+00
    outer loop
        vertex 7.530000e+01 -5.000000e+00 9.900000e+01
        vertex 7.730000e+01 -5.000000e+00 9.900000e+01
        vertex 7.530000e+01 -5.000000e+00 1.050000e+02
    endloop
endfacet
facet normal 0.000000e+00 -1.000000e+00 0.000000e+00
    outer loop
        vertex 7.330000e+01 -5.000000e+00 1.050000e+02
        vertex 7.530000e+01 -5.000000e+00 1.050000e+02
        vertex 7.730000e+01 -5.000000e+00 1.150000e+02
    endloop
endfacet
facet normal 0.000000e+00 -1.000000e+00 0.000000e+00
    outer loop
        vertex 7.730000e+01 -5.000000e+00 9.900000e+01
        vertex 7.730000e+01 -5.000000e+00 1.150000e+02
        vertex 7.530000e+01 -5.000000e+00 1.050000e+02
    endloop
endfacet
facet normal 0.000000e+00 0.000000e+00 -1.000000e+00
    outer loop
        vertex 6.230000e+01 -6.500000e+00 1.150000e+02
        vertex 5.830000e+01 -5.000000e+00 1.150000e+02
        vertex 6.230000e+01 -5.000000e+00 1.150000e+02
    endloop
endfacet
facet normal 0.000000e+00 0.000000e+00 -1.000000e+00
    outer loop
        vertex 7.330000e+01 -6.500000e+00 1.150000e+02
        vertex 7.330000e+01 -5.000000e+00 1.150000e+02
        vertex 7.730000e+01 -5.000000e+00 1.150000e+02
    endloop
endfacet
facet normal 0.000000e+00 0.000000e+00 -1.000000e+00
    outer loop
        vertex 5.830000e+01 -7.500000e+00 1.150000e+02
        vertex 5.830000e+01 -5.000000e+00 1.150000e+02
        vertex 6.230000e+01 -6.500000e+00 1.150000e+02
    endloop
endfacet
facet normal 0.000000e+00 0.000000e+00 -1.000000e+00
    outer loop
        vertex 5.830000e+01 -7.500000e+00 1.150000e+02
        vertex 6.230000e+01 -6.500000e+00 1.150000e+02
        vertex 7.730000e+01 -7.500000e+00 1.150000e+02
    endloop
endfacet
facet normal 0.000000e+00 0.000000e+00 -1.000000e+00
    outer loop
        vertex 7.730000e+01 -7.500000e+00 1.150000e+02
        vertex 6.230000e+01 -6.500000e+00 1.150000e+02
        vertex 7.330000e+01 -6.500000e+00 1.150000e+02
    endloop
endfacet
facet normal 0.000000e+00 0.000000e+00 -1.000000e+00
    outer loop
        vertex 7.730000e+01 -7.500000e+00 1.150000e+02
        vertex 7.330000e+01 -6.500000e+00 1.150000e+02
        vertex 7.730000e+01 -5.000000e+00 1.150000e+02
    endloop
endfacet
facet normal 0.000000e+00 0.000000e+00 1.000000e+00
    outer loop
        vertex 5.830000e+01 5.000000e+00 9.900000e+01
        vertex 6.030000e+01 5.000000e+00 9.900000e+01
        vertex 6.030000e+01 8.500000e+00 9.900000e+01
    endloop
endfacet
facet normal 0.000000e+00 0.000000e+00 1.000000e+00
    outer loop
        vertex 7.530000e+01 5.000000e+00 9.900000e+01
        vertex 7.730000e+01 5.000000e+00 9.900000e+01
        vertex 7.530000e+01 8.500000e+00 9.900000e+01
    endloop
endfacet
facet normal 0.000000e+00 0.000000e+00 1.000000e+00
    outer loop
        vertex 5.830000e+01 5.000000e+00 9.900000e+01
        vertex 6.030000e+01 8.500000e+00 9.900000e+01
        vertex 5.830000e+01 9.500000e+00 9.900000e+01
    endloop
endfacet
facet normal 0.000000e+00 -0.000000e+00 1.000000e+00
    outer loop
        vertex 6.030000e+01 8.500000e+00 9.900000e+01
        vertex 7.730000e+01 9.500000e+00 9.900000e+01
        vertex 5.830000e+01 9.500000e+00 9.900000e+01
    endloop
endfacet
facet normal 0.000000e+00 0.000000e+00 1.000000e+00
    outer loop
        vertex 6.030000e+01 8.500000e+00 9.900000e+01
        vertex 7.530000e+01 8.500000e+00 9.900000e+01
        vertex 7.730000e+01 9.500000e+00 9.900000e+01
    endloop
endfacet
facet normal 0.000000e+00 -0.000000e+00 1.000000e+00
    outer loop
        vertex 7.730000e+01 5.000000e+00 9.900000e+01
        vertex 7.730000e+01 9.500000e+00 9.900000e+01
        vertex 7.530000e+01 8.500000e+00 9.900000e+01
    endloop
endfacet
facet normal 0.000000e+00 1.000000e+00 -0.000000e+00
    outer loop
        vertex 6.230000e+01 5.000000e+00 1.050000e+02
        vertex 5.830000e+01 5.000000e+00 1.150000e+02
        vertex 6.230000e+01 5.000000e+00 1.150000e+02
    endloop
endfacet
facet normal 0.000000e+00 1.000000e+00 0.000000e+00
    outer loop
        vertex 5.830000e+01 5.000000e+00 9.900000e+01
        vertex 6.030000e+01 5.000000e+00 1.050000e+02
        vertex 6.030000e+01 5.000000e+00 9.900000e+01
    endloop
endfacet
facet normal 0.000000e+00 1.000000e+00 -0.000000e+00
    outer loop
        vertex 6.030000e+01 5.000000e+00 1.050000e+02
        vertex 5.830000e+01 5.000000e+00 1.150000e+02
        vertex 6.230000e+01 5.000000e+00 1.050000e+02
    endloop
endfacet
facet normal 0.000000e+00 1.000000e+00 0.000000e+00
    outer loop
        vertex 5.830000e+01 5.000000e+00 9.900000e+01
        vertex 5.830000e+01 5.000000e+00 1.150000e+02
        vertex 6.030000e+01 5.000000e+00 1.050000e+02
    endloop
endfacet
facet normal 0.000000e+00 1.000000e+00 0.000000e+00
    outer loop
        vertex 7.330000e+01 5.000000e+00 1.050000e+02
        vertex 7.330000e+01 5.000000e+00 1.150000e+02
        vertex 7.730000e+01 5.000000e+00 1.150000e+02
    endloop
endfacet
facet normal 0.000000e+00 1.000000e+00 0.000000e+00
    outer loop
        vertex 7.530000e+01 5.000000e+00 9.900000e+01
        vertex 7.530000e+01 5.000000e+00 1.050000e+02
        vertex 7.730000e+01 5.000000e+00 9.900000e+01
    endloop
endfacet
facet normal 0.000000e+00 1.000000e+00 -0.000000e+00
    outer loop
        vertex 7.730000e+01 5.000000e+00 9.900000e+01
        vertex 7.530000e+01 5.000000e+00 1.050000e+02
        vertex 7.730000e+01 5.000000e+00 1.150000e+02
    endloop
endfacet
facet normal 0.000000e+00 1.000000e+00 0.000000e+00
    outer loop
        vertex 7.330000e+01 5.000000e+00 1.050000e+02
        vertex 7.730000e+01 5.000000e+00 1.150000e+02
        vertex 7.530000e+01 5.000000e+00 1.050000e+02
    endloop
endfacet
facet normal 0.000000e+00 0.000000e+00 -1.000000e+00
    outer loop
        vertex 7.330000e+01 5.000000e+00 1.150000e+02
        vertex 7.330000e+01 6.500000e+00 1.150000e+02
        vertex 7.730000e+01 5.000000e+00 1.150000e+02
    endloop
endfacet
facet normal 0.000000e+00 0.000000e+00 -1.000000e+00
    outer loop
        vertex 5.830000e+01 5.000000e+00 1.150000e+02
        vertex 6.230000e+01 6.500000e+00 1.150000e+02
        vertex 6.230000e+01 5.000000e+00 1.150000e+02
    endloop
endfacet
facet normal 0.000000e+00 0.000000e+00 -1.000000e+00
    outer loop
        vertex 7.730000e+01 5.000000e+00 1.150000e+02
        vertex 7.330000e+01 6.500000e+00 1.150000e+02
        vertex 7.730000e+01 7.500000e+00 1.150000e+02
    endloop
endfacet
facet normal 0.000000e+00 0.000000e+00 -1.000000e+00
    outer loop
        vertex 7.330000e+01 6.500000e+00 1.150000e+02
        vertex 5.830000e+01 7.500000e+00 1.150000e+02
        vertex 7.730000e+01 7.500000e+00 1.150000e+02
    endloop
endfacet
facet normal 0.000000e+00 0.000000e+00 -1.000000e+00
    outer loop
        vertex 6.230000e+01 6.500000e+00 1.150000e+02
        vertex 5.830000e+01 7.500000e+00 1.150000e+02
        vertex 7.330000e+01 6.500000e+00 1.150000e+02
    endloop
endfacet
facet normal 0.000000e+00 0.000000e+00 -1.000000e+00
    outer loop
        vertex 5.830000e+01 5.000000e+00 1.150000e+02
        vertex 5.830000e+01 7.500000e+00 1.150000e+02
        vertex 6.230000e+01 6.500000e+00 1.150000e+02
    endloop
endfacet
facet normal 0.000000e+00 1.000000e+00 0.000000e+00
    outer loop
        vertex 6.030000e+01 -8.500000e+00 9.450000e+01
        vertex 6.030000e+01 -8.500000e+00 9.900000e+01
        vertex 6.530000e+01 -8.500000e+00 9.850000e+01
    endloop
endfacet
facet normal 0.000000e+00 1.000000e+00 0.000000e+00
    outer loop
        vertex 6.030000e+01 -8.500000e+00 9.450000e+01
        vertex 6.530000e+01 -8.500000e+00 9.850000e+01
        vertex 6.530000e+01 -8.500000e+00 9.505000e+01
    endloop
endfacet
facet normal 0.000000e+00 1.000000e+00 0.000000e+00
    outer loop
        vertex 6.030000e+01 -8.500000e+00 9.450000e+01
        vertex 6.530000e+01 -8.500000e+00 9.505000e+01
        vertex 7.530000e+01 -8.500000e+00 9.450000e+01
    endloop
endfacet
facet normal 0.000000e+00 1.000000e+00 -0.000000e+00
    outer loop
        vertex 6.530000e+01 -8.500000e+00 9.850000e+01
        vertex 6.030000e+01 -8.500000e+00 9.900000e+01
        vertex 7.530000e+01 -8.500000e+00 9.900000e+01
    endloop
endfacet
facet normal 0.000000e+00 1.000000e+00 0.000000e+00
    outer loop
        vertex 7.530000e+01 -8.500000e+00 9.450000e+01
        vertex 6.530000e+01 -8.500000e+00 9.505000e+01
        vertex 7.030000e+01 -8.500000e+00 9.505000e+01
    endloop
endfacet
facet normal 0.000000e+00 1.000000e+00 -0.000000e+00
    outer loop
        vertex 7.530000e+01 -8.500000e+00 9.450000e+01
        vertex 7.030000e+01 -8.500000e+00 9.505000e+01
        vertex 7.530000e+01 -8.500000e+00 9.900000e+01
    endloop
endfacet
facet normal 0.000000e+00 1.000000e+00 0.000000e+00
    outer loop
        vertex 7.030000e+01 -8.500000e+00 9.505000e+01
        vertex 7.030000e+01 -8.500000e+00 9.850000e+01
        vertex 7.530000e+01 -8.500000e+00 9.900000e+01
    endloop
endfacet
facet normal 0.000000e+00 1.000000e+00 0.000000e+00
    outer loop
        vertex 6.530000e+01 -8.500000e+00 9.850000e+01
        vertex 7.530000e+01 -8.500000e+00 9.900000e+01
        vertex 7.030000e+01 -8.500000e+00 9.850000e+01
    endloop
endfacet
facet normal 0.000000e+00 -1.000000e+00 0.000000e+00
    outer loop
        vertex 6.030000e+01 8.500000e+00 9.450000e+01
        vertex 6.530000e+01 8.500000e+00 9.850000e+01
        vertex 6.030000e+01 8.500000e+00 9.900000e+01
    endloop
endfacet
facet normal 0.000000e+00 -1.000000e+00 0.000000e+00
    outer loop
        vertex 6.030000e+01 8.500000e+00 9.450000e+01
        vertex 6.530000e+01 8.500000e+00 9.505000e+01
        vertex 6.530000e+01 8.500000e+00 9.850000e+01
    endloop
endfacet
facet normal 0.000000e+00 -1.000000e+00 0.000000e+00
    outer loop
        vertex 6.030000e+01 8.500000e+00 9.450000e+01
        vertex 7.530000e+01 8.500000e+00 9.450000e+01
        vertex 6.530000e+01 8.500000e+00 9.505000e+01
    endloop
endfacet
facet normal 0.000000e+00 -1.000000e+00 0.000000e+00
    outer loop
        vertex 6.530000e+01 8.500000e+00 9.850000e+01
        vertex 7.530000e+01 8.500000e+00 9.900000e+01
        vertex 6.030000e+01 8.500000e+00 9.900000e+01
    endloop
endfacet
facet normal 0.000000e+00 -1.000000e+00 0.000000e+00
    outer loop
        vertex 7.530000e+01 8.500000e+00 9.450000e+01
        vertex 7.030000e+01 8.500000e+00 9.505000e+01
        vertex 6.530000e+01 8.500000e+00 9.505000e+01
    endloop
endfacet
facet normal 0.000000e+00 -1.000000e+00 0.000000e+00
    outer loop
        vertex 7.530000e+01 8.500000e+00 9.450000e+01
        vertex 7.530000e+01 8.500000e+00 9.900000e+01
        vertex 7.030000e+01 8.500000e+00 9.505000e+01
    endloop
endfacet
facet normal 0.000000e+00 -1.000000e+00 0.000000e+00
    outer loop
        vertex 6.530000e+01 8.500000e+00 9.850000e+01
        vertex 7.030000e+01 8.500000e+00 9.850000e+01
        vertex 7.530000e+01 8.500000e+00 9.900000e+01
    endloop
endfacet
facet normal 0.000000e+00 -1.000000e+00 0.000000e+00
    outer loop
        vertex 7.030000e+01 8.500000e+00 9.505000e+01
        vertex 7.530000e+01 8.500000e+00 9.900000e+01
        vertex 7.030000e+01 8.500000e+00 9.850000e+01
    endloop
endfacet
facet normal 0.000000e+00 -0.000000e+00 1.000000e+00
    outer loop
        vertex 7.730000e+01 -7.500000e+00 1.195000e+02
        vertex 7.730000e+01 7.500000e+00 1.195000e+02
        vertex 7.180000e+01 -2.750000e+00 1.195000e+02
    endloop
endfacet
facet normal 0.000000e+00 0.000000e+00 1.000000e+00
    outer loop
        vertex 5.830000e+01 -7.500000e+00 1.195000e+02
        vertex 7.730000e+01 -7.500000e+00 1.195000e+02
        vertex 7.180000e+01 -2.750000e+00 1.195000e+02
    endloop
endfacet
facet normal 0.000000e+00 0.000000e+00 1.000000e+00
    outer loop
        vertex 7.180000e+01 -2.750000e+00 1.195000e+02
        vertex 7.730000e+01 7.500000e+00 1.195000e+02
        vertex 7.180000e+01 2.750000e+00 1.195000e+02
    endloop
endfacet
facet normal 0.000000e+00 -0.000000e+00 1.000000e+00
    outer loop
        vertex 7.180000e+01 2.750000e+00 1.195000e+02
        vertex 7.730000e+01 7.500000e+00 1.195000e+02
        vertex 5.830000e+01 7.500000e+00 1.195000e+02
    endloop
endfacet
facet normal 0.000000e+00 0.000000e+00 1.000000e+00
    outer loop
        vertex 5.830000e+01 -7.500000e+00 1.195000e+02
        vertex 7.180000e+01 -2.750000e+00 1.195000e+02
        vertex 6.380000e+01 -2.750000e+00 1.195000e+02
    endloop
endfacet
facet normal 0.000000e+00 0.000000e+00 1.000000e+00
    outer loop
        vertex 5.830000e+01 -7.500000e+00 1.195000e+02
        vertex 6.380000e+01 -2.750000e+00 1.195000e+02
        vertex 5.830000e+01 7.500000e+00 1.195000e+02
    endloop
endfacet
facet normal 0.000000e+00 -0.000000e+00 1.000000e+00
    outer loop
        vertex 6.380000e+01 -2.750000e+00 1.195000e+02
        vertex 6.380000e+01 2.750000e+00 1.195000e+02
        vertex 5.830000e+01 7.500000e+00 1.195000e+02
    endloop
endfacet
facet normal 0.000000e+00 -0.000000e+00 1.000000e+00
    outer loop
        vertex 6.380000e+01 2.750000e+00 1.195000e+02
        vertex 7.180000e+01 2.750000e+00 1.195000e+02
        vertex 5.830000e+01 7.500000e+00 1.195000e+02
    endloop
endfacet
facet normal 0.000000e+00 0.000000e+00 -1.000000e+00
    outer loop
        vertex 6.230000e+01 -6.500000e+00 1.185000e+02
        vertex 7.180000e+01 -2.750000e+00 1.185000e+02
        vertex 7.330000e+01 -6.500000e+00 1.185000e+02
    endloop
endfacet
facet normal 0.000000e+00 0.000000e+00 -1.000000e+00
    outer loop
        vertex 6.230000e+01 -6.500000e+00 1.185000e+02
        vertex 6.380000e+01 -2.750000e+00 1.185000e+02
        vertex 7.180000e+01 -2.750000e+00 1.185000e+02
    endloop
endfacet
facet normal 0.000000e+00 0.000000e+00 -1.000000e+00
    outer loop
        vertex 7.330000e+01 -6.500000e+00 1.185000e+02
        vertex 7.180000e+01 -2.750000e+00 1.185000e+02
        vertex 7.330000e+01 6.500000e+00 1.185000e+02
    endloop
endfacet
facet normal 0.000000e+00 0.000000e+00 -1.000000e+00
    outer loop
        vertex 6.230000e+01 -6.500000e+00 1.185000e+02
        vertex 6.230000e+01 6.500000e+00 1.185000e+02
        vertex 6.380000e+01 -2.750000e+00 1.185000e+02
    endloop
endfacet
facet normal 0.000000e+00 0.000000e+00 -1.000000e+00
    outer loop
        vertex 7.180000e+01 -2.750000e+00 1.185000e+02
        vertex 7.180000e+01 2.750000e+00 1.185000e+02
        vertex 7.330000e+01 6.500000e+00 1.185000e+02
    endloop
endfacet
facet normal 0.000000e+00 0.000000e+00 -1.000000e+00
    outer loop
        vertex 7.180000e+01 2.750000e+00 1.185000e+02
        vertex 6.230000e+01 6.500000e+00 1.185000e+02
        vertex 7.330000e+01 6.500000e+00 1.185000e+02
    endloop
endfacet
facet normal 0.000000e+00 0.000000e+00 -1.000000e+00
    outer loop
        vertex 6.380000e+01 2.750000e+00 1.185000e+02
        vertex 6.230000e+01 6.500000e+00 1.185000e+02
        vertex 7.180000e+01 2.750000e+00 1.185000e+02
    endloop
endfacet
facet normal 0.000000e+00 0.000000e+00 -1.000000e+00
    outer loop
        vertex 6.380000e+01 -2.750000e+00 1.185000e+02
        vertex 6.230000e+01 6.500000e+00 1.185000e+02
        vertex 6.380000e+01 2.750000e+00 1.185000e+02
    endloop
endfacet
facet normal 0.000000e+00 -1.000000e+00 0.000000e+00
    outer loop
        vertex 6.380000e+01 2.750000e+00 1.185000e+02
        vertex 7.180000e+01 2.750000e+00 1.195000e+02
        vertex 6.380000e+01 2.750000e+00 1.195000e+02
    endloop
endfacet
facet normal 0.000000e+00 -1.000000e+00 0.000000e+00
    outer loop
        vertex 6.380000e+01 2.750000e+00 1.185000e+02
        vertex 7.180000e+01 2.750000e+00 1.185000e+02
        vertex 7.180000e+01 2.750000e+00 1.195000e+02
    endloop
endfacet
facet normal -1.000000e+00 0.000000e+00 0.000000e+00
    outer loop
        vertex 7.180000e+01 -2.750000e+00 1.195000e+02
        vertex 7.180000e+01 2.750000e+00 1.195000e+02
        vertex 7.180000e+01 2.750000e+00 1.185000e+02
    endloop
endfacet
facet normal -1.000000e+00 0.000000e+00 0.000000e+00
    outer loop
        vertex 7.180000e+01 -2.750000e+00 1.185000e+02
        vertex 7.180000e+01 -2.750000e+00 1.195000e+02
        vertex 7.180000e+01 2.750000e+00 1.185000e+02
    endloop
endfacet
facet normal 1.000000e+00 0.000000e+00 0.000000e+00
    outer loop
        vertex 6.380000e+01 -2.750000e+00 1.185000e+02
        vertex 6.380000e+01 2.750000e+00 1.195000e+02
        vertex 6.380000e+01 -2.750000e+00 1.195000e+02
    endloop
endfacet
facet normal 1.000000e+00 0.000000e+00 0.000000e+00
    outer loop
        vertex 6.380000e+01 -2.750000e+00 1.185000e+02
        vertex 6.380000e+01 2.750000e+00 1.185000e+02
        vertex 6.380000e+01 2.750000e+00 1.195000e+02
    endloop
endfacet
facet normal 0.000000e+00 1.000000e+00 -0.000000e+00
    outer loop
        vertex 7.180000e+01 -2.750000e+00 1.185000e+02
        vertex 6.380000e+01 -2.750000e+00 1.195000e+02
        vertex 7.180000e+01 -2.750000e+00 1.195000e+02
    endloop
endfacet
facet normal 0.000000e+00 1.000000e+00 0.000000e+00
    outer loop
        vertex 6.380000e+01 -2.750000e+00 1.185000e+02
        vertex 6.380000e+01 -2.750000e+00 1.195000e+02
        vertex 7.180000e+01 -2.750000e+00 1.185000e+02
    endloop
endfacet
facet normal 1.000000e+00 -0.000000e+00 0.000000e+00
    outer loop
        vertex 7.030000e+01 7.000000e+00 9.850000e+01
        vertex 7.030000e+01 8.000000e+00 9.505000e+01
        vertex 7.030000e+01 8.500000e+00 9.850000e+01
    endloop
endfacet
facet normal 1.000000e+00 0.000000e+00 0.000000e+00
    outer loop
        vertex 7.030000e+01 8.000000e+00 9.505000e+01
        vertex 7.030000e+01 8.500000e+00 9.505000e+01
        vertex 7.030000e+01 8.500000e+00 9.850000e+01
    endloop
endfacet
facet normal 0.000000e+00 0.000000e+00 1.000000e+00
    outer loop
        vertex 6.530000e+01 7.000000e+00 9.850000e+01
        vertex 7.030000e+01 7.000000e+00 9.850000e+01
        vertex 7.030000e+01 8.500000e+00 9.850000e+01
    endloop
endfacet
facet normal 0.000000e+00 0.000000e+00 1.000000e+00
    outer loop
        vertex 6.530000e+01 7.000000e+00 9.850000e+01
        vertex 7.030000e+01 8.500000e+00 9.850000e+01
        vertex 6.530000e+01 8.500000e+00 9.850000e+01
    endloop
endfacet
facet normal 0.000000e+00 0.000000e+00 -1.000000e+00
    outer loop
        vertex 6.530000e+01 8.000000e+00 9.505000e+01
        vertex 7.030000e+01 8.500000e+00 9.505000e+01
        vertex 7.030000e+01 8.000000e+00 9.505000e+01
    endloop
endfacet
facet normal 0.000000e+00 0.000000e+00 -1.000000e+00
    outer loop
        vertex 6.530000e+01 8.000000e+00 9.505000e+01
        vertex 6.530000e+01 8.500000e+00 9.505000e+01
        vertex 7.030000e+01 8.500000e+00 9.505000e+01
    endloop
endfacet
facet normal -1.000000e+00 0.000000e+00 0.000000e+00
    outer loop
        vertex 6.530000e+01 7.000000e+00 9.850000e+01
        vertex 6.530000e+01 8.500000e+00 9.850000e+01
        vertex 6.530000e+01 8.000000e+00 9.505000e+01
    endloop
endfacet
facet normal -1.000000e+00 0.000000e+00 0.000000e+00
    outer loop
        vertex 6.530000e+01 8.000000e+00 9.505000e+01
        vertex 6.530000e+01 8.500000e+00 9.850000e+01
        vertex 6.530000e+01 8.500000e+00 9.505000e+01
    endloop
endfacet
facet normal 1.000000e+00 -0.000000e+00 0.000000e+00
    outer loop
        vertex 7.030000e+01 -8.500000e+00 9.850000e+01
        vertex 7.030000e+01 -8.000000e+00 9.505000e+01
        vertex 7.030000e+01 -7.000000e+00 9.850000e+01
    endloop
endfacet
facet normal 1.000000e+00 0.000000e+00 0.000000e+00
    outer loop
        vertex 7.030000e+01 -8.500000e+00 9.505000e+01
        vertex 7.030000e+01 -8.000000e+00 9.505000e+01
        vertex 7.030000e+01 -8.500000e+00 9.850000e+01
    endloop
endfacet
facet normal 0.000000e+00 -0.000000e+00 1.000000e+00
    outer loop
        vertex 7.030000e+01 -8.500000e+00 9.850000e+01
        vertex 7.030000e+01 -7.000000e+00 9.850000e+01
        vertex 6.530000e+01 -7.000000e+00 9.850000e+01
    endloop
endfacet
facet normal 0.000000e+00 0.000000e+00 1.000000e+00
    outer loop
        vertex 6.530000e+01 -8.500000e+00 9.850000e+01
        vertex 7.030000e+01 -8.500000e+00 9.850000e+01
        vertex 6.530000e+01 -7.000000e+00 9.850000e+01
    endloop
endfacet
facet normal 0.000000e+00 0.000000e+00 -1.000000e+00
    outer loop
        vertex 7.030000e+01 -8.500000e+00 9.505000e+01
        vertex 6.530000e+01 -8.000000e+00 9.505000e+01
        vertex 7.030000e+01 -8.000000e+00 9.505000e+01
    endloop
endfacet
facet normal 0.000000e+00 0.000000e+00 -1.000000e+00
    outer loop
        vertex 6.530000e+01 -8.500000e+00 9.505000e+01
        vertex 6.530000e+01 -8.000000e+00 9.505000e+01
        vertex 7.030000e+01 -8.500000e+00 9.505000e+01
    endloop
endfacet
facet normal -1.000000e+00 0.000000e+00 0.000000e+00
    outer loop
        vertex 6.530000e+01 -8.500000e+00 9.850000e+01
        vertex 6.530000e+01 -7.000000e+00 9.850000e+01
        vertex 6.530000e+01 -8.000000e+00 9.505000e+01
    endloop
endfacet
facet normal -1.000000e+00 0.000000e+00 0.000000e+00
    outer loop
        vertex 6.530000e+01 -8.500000e+00 9.505000e+01
        vertex 6.530000e+01 -8.500000e+00 9.850000e+01
        vertex 6.530000e+01 -8.000000e+00 9.505000e+01
    endloop
endfacet
facet normal 0.000000e+00 -9.604663e-01 -2.783963e-01
    outer loop
        vertex 6.530000e+01 7.000000e+00 9.850000e+01
        vertex 6.530000e+01 8.000000e+00 9.505000e+01
        vertex 7.030000e+01 8.000000e+00 9.505000e+01
    endloop
endfacet
facet normal 0.000000e+00 -9.604663e-01 -2.783963e-01
    outer loop
        vertex 6.530000e+01 7.000000e+00 9.850000e+01
        vertex 7.030000e+01 8.000000e+00 9.505000e+01
        vertex 7.030000e+01 7.000000e+00 9.850000e+01
    endloop
endfacet
facet normal 0.000000e+00 9.604663e-01 -2.783963e-01
    outer loop
        vertex 6.530000e+01 -8.000000e+00 9.505000e+01
        vertex 6.530000e+01 -7.000000e+00 9.850000e+01
        vertex 7.030000e+01 -8.000000e+00 9.505000e+01
    endloop
endfacet
facet normal 0.000000e+00 9.604663e-01 -2.783963e-01
    outer loop
        vertex 7.030000e+01 -8.000000e+00 9.505000e+01
        vertex 6.530000e+01 -7.000000e+00 9.850000e+01
        vertex 7.030000e+01 -7.000000e+00 9.850000e+01
    endloop
endfacet
facet normal 0.000000e+00 -1.000000e+00 0.000000e+00
    outer loop
        vertex 7.330000e+01 6.500000e+00 1.150000e+02
        vertex 7.330000e+01 6.500000e+00 1.185000e+02
        vertex 6.230000e+01 6.500000e+00 1.185000e+02
    endloop
endfacet
facet normal 0.000000e+00 -1.000000e+00 0.000000e+00
    outer loop
        vertex 6.230000e+01 6.500000e+00 1.150000e+02
        vertex 7.330000e+01 6.500000e+00 1.150000e+02
        vertex 6.230000e+01 6.500000e+00 1.185000e+02
    endloop
endfacet
facet normal 0.000000e+00 1.000000e+00 0.000000e+00
    outer loop
        vertex 6.230000e+01 -6.500000e+00 1.150000e+02
        vertex 6.230000e+01 -6.500000e+00 1.185000e+02
        vertex 7.330000e+01 -6.500000e+00 1.185000e+02
    endloop
endfacet
facet normal 0.000000e+00 1.000000e+00 0.000000e+00
    outer loop
        vertex 6.230000e+01 -6.500000e+00 1.150000e+02
        vertex 7.330000e+01 -6.500000e+00 1.185000e+02
        vertex 7.330000e+01 -6.500000e+00 1.150000e+02
    endloop
endfacet
facet normal 0.000000e+00 0.000000e+00 -1.000000e+00
    outer loop
        vertex 6.030000e+01 -5.000000e+00 1.050000e+02
        vertex 6.230000e+01 5.000000e+00 1.050000e+02
        vertex 6.230000e+01 -5.000000e+00 1.050000e+02
    endloop
endfacet
facet normal 0.000000e+00 0.000000e+00 -1.000000e+00
    outer loop
        vertex 6.030000e+01 -5.000000e+00 1.050000e+02
        vertex 6.030000e+01 5.000000e+00 1.050000e+02
        vertex 6.230000e+01 5.000000e+00 1.050000e+02
    endloop
endfacet
facet normal 0.000000e+00 0.000000e+00 -1.000000e+00
    outer loop
        vertex 7.330000e+01 -5.000000e+00 1.050000e+02
        vertex 7.530000e+01 5.000000e+00 1.050000e+02
        vertex 7.530000e+01 -5.000000e+00 1.050000e+02
    endloop
endfacet
facet normal 0.000000e+00 0.000000e+00 -1.000000e+00
    outer loop
        vertex 7.330000e+01 -5.000000e+00 1.050000e+02
        vertex 7.330000e+01 5.000000e+00 1.050000e+02
        vertex 7.530000e+01 5.000000e+00 1.050000e+02
    endloop
endfacet
facet normal 0.000000e+00 1.000000e+00 0.000000e+00
    outer loop
        vertex 5.830000e+01 9.500000e+00 9.450000e+01
        vertex 7.730000e+01 9.500000e+00 9.900000e+01
        vertex 7.730000e+01 9.500000e+00 9.450000e+01
    endloop
endfacet
facet normal 0.000000e+00 1.000000e+00 0.000000e+00
    outer loop
        vertex 5.830000e+01 9.500000e+00 9.450000e+01
        vertex 5.830000e+01 9.500000e+00 9.900000e+01
        vertex 7.730000e+01 9.500000e+00 9.900000e+01
    endloop
endfacet
facet normal 0.000000e+00 1.000000e+00 -0.000000e+00
    outer loop
        vertex 7.730000e+01 7.500000e+00 1.150000e+02
        vertex 5.830000e+01 7.500000e+00 1.195000e+02
        vertex 7.730000e+01 7.500000e+00 1.195000e+02
    endloop
endfacet
facet normal 0.000000e+00 1.000000e+00 0.000000e+00
    outer loop
        vertex 5.830000e+01 7.500000e+00 1.150000e+02
        vertex 5.830000e+01 7.500000e+00 1.195000e+02
        vertex 7.730000e+01 7.500000e+00 1.150000e+02
    endloop
endfacet
facet normal 0.000000e+00 -1.000000e+00 0.000000e+00
    outer loop
        vertex 5.830000e+01 -9.500000e+00 9.450000e+01
        vertex 7.730000e+01 -9.500000e+00 9.450000e+01
        vertex 5.830000e+01 -9.500000e+00 9.900000e+01
    endloop
endfacet
facet normal 0.000000e+00 -1.000000e+00 0.000000e+00
    outer loop
        vertex 7.730000e+01 -9.500000e+00 9.450000e+01
        vertex 7.730000e+01 -9.500000e+00 9.900000e+01
        vertex 5.830000e+01 -9.500000e+00 9.900000e+01
    endloop
endfacet
facet normal 0.000000e+00 -1.000000e+00 0.000000e+00
    outer loop
        vertex 7.730000e+01 -7.500000e+00 1.150000e+02
        vertex 7.730000e+01 -7.500000e+00 1.195000e+02
        vertex 5.830000e+01 -7.500000e+00 1.195000e+02
    endloop
endfacet
facet normal 0.000000e+00 -1.000000e+00 0.000000e+00
    outer loop
        vertex 5.830000e+01 -7.500000e+00 1.150000e+02
        vertex 7.730000e+01 -7.500000e+00 1.150000e+02
        vertex 5.830000e+01 -7.500000e+00 1.195000e+02
    endloop
endfacet
endsolid pusher-motor-case.stl
