solid picatinny-rail-riser.stl
facet normal -1.000000e+00 0.000000e+00 0.000000e+00
    outer loop
        vertex -9.450000e+01 -5.500000e+00 1.240000e+02
        vertex -9.450000e+01 -3.000000e+00 1.270000e+02
        vertex -9.450000e+01 3.000000e+00 1.270000e+02
    endloop
endfacet
facet normal -1.000000e+00 0.000000e+00 0.000000e+00
    outer loop
        vertex -9.450000e+01 3.000000e+00 1.270000e+02
        vertex -9.450000e+01 6.000000e+00 1.240000e+02
        vertex -9.450000e+01 6.000000e+00 1.220000e+02
    endloop
endfacet
facet normal -1.000000e+00 0.000000e+00 0.000000e+00
    outer loop
        vertex -9.450000e+01 -5.500000e+00 1.220000e+02
        vertex -9.450000e+01 3.000000e+00 1.270000e+02
        vertex -9.450000e+01 6.000000e+00 1.220000e+02
    endloop
endfacet
facet normal -1.000000e+00 0.000000e+00 0.000000e+00
    outer loop
        vertex -9.450000e+01 -5.500000e+00 1.220000e+02
        vertex -9.450000e+01 -5.500000e+00 1.240000e+02
        vertex -9.450000e+01 3.000000e+00 1.270000e+02
    endloop
endfacet
facet normal 1.000000e+00 0.000000e+00 0.000000e+00
    outer loop
        vertex 2.550000e+01 7.000000e+00 1.270000e+02
        vertex 2.550000e+01 1.000000e+01 1.220000e+02
        vertex 2.550000e+01 1.000000e+01 1.240000e+02
    endloop
endfacet
facet normal 1.000000e+00 0.000000e+00 0.000000e+00
    outer loop
        vertex 2.550000e+01 -9.500000e+00 1.220000e+02
        vertex 2.550000e+01 1.000000e+01 1.220000e+02
        vertex 2.550000e+01 7.000000e+00 1.270000e+02
    endloop
endfacet
facet normal 1.000000e+00 0.000000e+00 0.000000e+00
    outer loop
        vertex 2.550000e+01 -9.500000e+00 1.220000e+02
        vertex 2.550000e+01 -7.000000e+00 1.270000e+02
        vertex 2.550000e+01 -9.500000e+00 1.240000e+02
    endloop
endfacet
facet normal 1.000000e+00 0.000000e+00 0.000000e+00
    outer loop
        vertex 2.550000e+01 -9.500000e+00 1.220000e+02
        vertex 2.550000e+01 7.000000e+00 1.270000e+02
        vertex 2.550000e+01 -7.000000e+00 1.270000e+02
    endloop
endfacet
facet normal 0.000000e+00 -1.000000e+00 0.000000e+00
    outer loop
        vertex -6.000000e+01 -3.000000e+00 1.220000e+02
        vertex -1.000000e+01 -3.000000e+00 1.270000e+02
        vertex -6.000000e+01 -3.000000e+00 1.270000e+02
    endloop
endfacet
facet normal 0.000000e+00 -1.000000e+00 0.000000e+00
    outer loop
        vertex -1.000000e+01 -3.000000e+00 1.220000e+02
        vertex -1.000000e+01 -3.000000e+00 1.270000e+02
        vertex -6.000000e+01 -3.000000e+00 1.220000e+02
    endloop
endfacet
facet normal 0.000000e+00 1.000000e+00 -0.000000e+00
    outer loop
        vertex -1.000000e+01 3.500000e+00 1.220000e+02
        vertex -6.000000e+01 3.500000e+00 1.270000e+02
        vertex -1.000000e+01 3.500000e+00 1.270000e+02
    endloop
endfacet
facet normal 0.000000e+00 1.000000e+00 0.000000e+00
    outer loop
        vertex -1.000000e+01 3.500000e+00 1.220000e+02
        vertex -6.000000e+01 3.500000e+00 1.220000e+02
        vertex -6.000000e+01 3.500000e+00 1.270000e+02
    endloop
endfacet
facet normal 0.000000e+00 -7.682213e-01 6.401844e-01
    outer loop
        vertex -5.000000e+00 -9.500000e+00 1.240000e+02
        vertex 2.550000e+01 -9.500000e+00 1.240000e+02
        vertex 2.550000e+01 -7.000000e+00 1.270000e+02
    endloop
endfacet
facet normal 0.000000e+00 -7.682213e-01 6.401844e-01
    outer loop
        vertex -5.000000e+00 -9.500000e+00 1.240000e+02
        vertex 2.550000e+01 -7.000000e+00 1.270000e+02
        vertex -5.000000e+00 -7.000000e+00 1.270000e+02
    endloop
endfacet
facet normal -0.000000e+00 7.071068e-01 7.071068e-01
    outer loop
        vertex -5.000000e+00 7.000000e+00 1.270000e+02
        vertex 2.550000e+01 7.000000e+00 1.270000e+02
        vertex 2.550000e+01 1.000000e+01 1.240000e+02
    endloop
endfacet
facet normal 0.000000e+00 7.071068e-01 7.071068e-01
    outer loop
        vertex -5.000000e+00 7.000000e+00 1.270000e+02
        vertex 2.550000e+01 1.000000e+01 1.240000e+02
        vertex -5.000000e+00 1.000000e+01 1.240000e+02
    endloop
endfacet
facet normal 7.066423e-01 -5.435711e-01 4.529759e-01
    outer loop
        vertex -6.500000e+01 -9.500000e+00 1.240000e+02
        vertex -6.000000e+01 -3.000000e+00 1.240000e+02
        vertex -6.500000e+01 -7.000000e+00 1.270000e+02
    endloop
endfacet
facet normal 6.246951e-01 -7.808688e-01 0.000000e+00
    outer loop
        vertex -6.500000e+01 -7.000000e+00 1.270000e+02
        vertex -6.000000e+01 -3.000000e+00 1.240000e+02
        vertex -6.000000e+01 -3.000000e+00 1.270000e+02
    endloop
endfacet
facet normal 6.767530e-01 5.205792e-01 5.205792e-01
    outer loop
        vertex -6.000000e+01 3.500000e+00 1.240000e+02
        vertex -6.500000e+01 1.000000e+01 1.240000e+02
        vertex -6.500000e+01 7.000000e+00 1.270000e+02
    endloop
endfacet
facet normal 5.734624e-01 8.192319e-01 -0.000000e+00
    outer loop
        vertex -6.000000e+01 3.500000e+00 1.240000e+02
        vertex -6.500000e+01 7.000000e+00 1.270000e+02
        vertex -6.000000e+01 3.500000e+00 1.270000e+02
    endloop
endfacet
facet normal -7.066423e-01 -5.435711e-01 4.529759e-01
    outer loop
        vertex -5.000000e+00 -9.500000e+00 1.240000e+02
        vertex -5.000000e+00 -7.000000e+00 1.270000e+02
        vertex -1.000000e+01 -3.000000e+00 1.240000e+02
    endloop
endfacet
facet normal -6.246951e-01 -7.808688e-01 0.000000e+00
    outer loop
        vertex -5.000000e+00 -7.000000e+00 1.270000e+02
        vertex -1.000000e+01 -3.000000e+00 1.270000e+02
        vertex -1.000000e+01 -3.000000e+00 1.240000e+02
    endloop
endfacet
facet normal -4.436070e-01 6.337243e-01 6.337243e-01
    outer loop
        vertex -1.000000e+01 3.500000e+00 1.270000e+02
        vertex -5.000000e+00 7.000000e+00 1.270000e+02
        vertex -5.000000e+00 1.000000e+01 1.240000e+02
    endloop
endfacet
facet normal -7.926240e-01 6.097108e-01 0.000000e+00
    outer loop
        vertex -1.000000e+01 3.500000e+00 1.240000e+02
        vertex -1.000000e+01 3.500000e+00 1.270000e+02
        vertex -5.000000e+00 1.000000e+01 1.240000e+02
    endloop
endfacet
facet normal 0.000000e+00 -7.682213e-01 6.401844e-01
    outer loop
        vertex -6.500000e+01 -9.500000e+00 1.240000e+02
        vertex -6.500000e+01 -7.000000e+00 1.270000e+02
        vertex -9.000000e+01 -9.500000e+00 1.240000e+02
    endloop
endfacet
facet normal 0.000000e+00 -7.682213e-01 6.401844e-01
    outer loop
        vertex -9.000000e+01 -9.500000e+00 1.240000e+02
        vertex -6.500000e+01 -7.000000e+00 1.270000e+02
        vertex -9.000000e+01 -7.000000e+00 1.270000e+02
    endloop
endfacet
facet normal -5.639259e-01 -6.344166e-01 5.286805e-01
    outer loop
        vertex -9.000000e+01 -7.000000e+00 1.270000e+02
        vertex -9.450000e+01 -3.000000e+00 1.270000e+02
        vertex -9.450000e+01 -5.500000e+00 1.240000e+02
    endloop
endfacet
facet normal -5.639259e-01 -6.344166e-01 5.286805e-01
    outer loop
        vertex -9.000000e+01 -9.500000e+00 1.240000e+02
        vertex -9.000000e+01 -7.000000e+00 1.270000e+02
        vertex -9.450000e+01 -5.500000e+00 1.240000e+02
    endloop
endfacet
facet normal 0.000000e+00 7.071068e-01 7.071068e-01
    outer loop
        vertex -6.500000e+01 7.000000e+00 1.270000e+02
        vertex -6.500000e+01 1.000000e+01 1.240000e+02
        vertex -9.000000e+01 7.000000e+00 1.270000e+02
    endloop
endfacet
facet normal 0.000000e+00 7.071068e-01 7.071068e-01
    outer loop
        vertex -9.000000e+01 7.000000e+00 1.270000e+02
        vertex -6.500000e+01 1.000000e+01 1.240000e+02
        vertex -9.000000e+01 1.000000e+01 1.240000e+02
    endloop
endfacet
facet normal -5.321521e-01 5.986711e-01 5.986711e-01
    outer loop
        vertex -9.450000e+01 3.000000e+00 1.270000e+02
        vertex -9.000000e+01 7.000000e+00 1.270000e+02
        vertex -9.450000e+01 6.000000e+00 1.240000e+02
    endloop
endfacet
facet normal -5.321521e-01 5.986711e-01 5.986711e-01
    outer loop
        vertex -9.450000e+01 6.000000e+00 1.240000e+02
        vertex -9.000000e+01 7.000000e+00 1.270000e+02
        vertex -9.000000e+01 1.000000e+01 1.240000e+02
    endloop
endfacet
facet normal -6.643639e-01 -7.474093e-01 0.000000e+00
    outer loop
        vertex -9.000000e+01 -9.500000e+00 1.220000e+02
        vertex -9.000000e+01 -9.500000e+00 1.240000e+02
        vertex -9.450000e+01 -5.500000e+00 1.220000e+02
    endloop
endfacet
facet normal -6.643639e-01 -7.474093e-01 0.000000e+00
    outer loop
        vertex -9.000000e+01 -9.500000e+00 1.240000e+02
        vertex -9.450000e+01 -5.500000e+00 1.240000e+02
        vertex -9.450000e+01 -5.500000e+00 1.220000e+02
    endloop
endfacet
facet normal 0.000000e+00 -1.000000e+00 0.000000e+00
    outer loop
        vertex -6.500000e+01 -9.500000e+00 1.220000e+02
        vertex -6.500000e+01 -9.500000e+00 1.240000e+02
        vertex -9.000000e+01 -9.500000e+00 1.220000e+02
    endloop
endfacet
facet normal 0.000000e+00 -1.000000e+00 0.000000e+00
    outer loop
        vertex -9.000000e+01 -9.500000e+00 1.220000e+02
        vertex -6.500000e+01 -9.500000e+00 1.240000e+02
        vertex -9.000000e+01 -9.500000e+00 1.240000e+02
    endloop
endfacet
facet normal 7.926240e-01 -6.097108e-01 0.000000e+00
    outer loop
        vertex -6.500000e+01 -9.500000e+00 1.220000e+02
        vertex -6.000000e+01 -3.000000e+00 1.220000e+02
        vertex -6.500000e+01 -9.500000e+00 1.240000e+02
    endloop
endfacet
facet normal 7.926240e-01 -6.097108e-01 0.000000e+00
    outer loop
        vertex -6.500000e+01 -9.500000e+00 1.240000e+02
        vertex -6.000000e+01 -3.000000e+00 1.220000e+02
        vertex -6.000000e+01 -3.000000e+00 1.240000e+02
    endloop
endfacet
facet normal -7.926240e-01 -6.097108e-01 0.000000e+00
    outer loop
        vertex -5.000000e+00 -9.500000e+00 1.220000e+02
        vertex -5.000000e+00 -9.500000e+00 1.240000e+02
        vertex -1.000000e+01 -3.000000e+00 1.220000e+02
    endloop
endfacet
facet normal -7.926240e-01 -6.097108e-01 0.000000e+00
    outer loop
        vertex -5.000000e+00 -9.500000e+00 1.240000e+02
        vertex -1.000000e+01 -3.000000e+00 1.240000e+02
        vertex -1.000000e+01 -3.000000e+00 1.220000e+02
    endloop
endfacet
facet normal 0.000000e+00 -1.000000e+00 0.000000e+00
    outer loop
        vertex -5.000000e+00 -9.500000e+00 1.220000e+02
        vertex 2.550000e+01 -9.500000e+00 1.220000e+02
        vertex -5.000000e+00 -9.500000e+00 1.240000e+02
    endloop
endfacet
facet normal 0.000000e+00 -1.000000e+00 0.000000e+00
    outer loop
        vertex 2.550000e+01 -9.500000e+00 1.220000e+02
        vertex 2.550000e+01 -9.500000e+00 1.240000e+02
        vertex -5.000000e+00 -9.500000e+00 1.240000e+02
    endloop
endfacet
facet normal 0.000000e+00 1.000000e+00 0.000000e+00
    outer loop
        vertex -5.000000e+00 1.000000e+01 1.220000e+02
        vertex -5.000000e+00 1.000000e+01 1.240000e+02
        vertex 2.550000e+01 1.000000e+01 1.220000e+02
    endloop
endfacet
facet normal 0.000000e+00 1.000000e+00 -0.000000e+00
    outer loop
        vertex 2.550000e+01 1.000000e+01 1.220000e+02
        vertex -5.000000e+00 1.000000e+01 1.240000e+02
        vertex 2.550000e+01 1.000000e+01 1.240000e+02
    endloop
endfacet
facet normal -7.926240e-01 6.097108e-01 0.000000e+00
    outer loop
        vertex -1.000000e+01 3.500000e+00 1.220000e+02
        vertex -1.000000e+01 3.500000e+00 1.240000e+02
        vertex -5.000000e+00 1.000000e+01 1.220000e+02
    endloop
endfacet
facet normal -7.926240e-01 6.097108e-01 0.000000e+00
    outer loop
        vertex -1.000000e+01 3.500000e+00 1.240000e+02
        vertex -5.000000e+00 1.000000e+01 1.240000e+02
        vertex -5.000000e+00 1.000000e+01 1.220000e+02
    endloop
endfacet
facet normal 7.926240e-01 6.097108e-01 -0.000000e+00
    outer loop
        vertex -6.000000e+01 3.500000e+00 1.220000e+02
        vertex -6.500000e+01 1.000000e+01 1.220000e+02
        vertex -6.000000e+01 3.500000e+00 1.240000e+02
    endloop
endfacet
facet normal 7.926240e-01 6.097108e-01 0.000000e+00
    outer loop
        vertex -6.000000e+01 3.500000e+00 1.240000e+02
        vertex -6.500000e+01 1.000000e+01 1.220000e+02
        vertex -6.500000e+01 1.000000e+01 1.240000e+02
    endloop
endfacet
facet normal 0.000000e+00 1.000000e+00 -0.000000e+00
    outer loop
        vertex -6.500000e+01 1.000000e+01 1.220000e+02
        vertex -9.000000e+01 1.000000e+01 1.220000e+02
        vertex -6.500000e+01 1.000000e+01 1.240000e+02
    endloop
endfacet
facet normal 0.000000e+00 1.000000e+00 0.000000e+00
    outer loop
        vertex -9.000000e+01 1.000000e+01 1.220000e+02
        vertex -9.000000e+01 1.000000e+01 1.240000e+02
        vertex -6.500000e+01 1.000000e+01 1.240000e+02
    endloop
endfacet
facet normal -6.643639e-01 7.474093e-01 0.000000e+00
    outer loop
        vertex -9.450000e+01 6.000000e+00 1.220000e+02
        vertex -9.450000e+01 6.000000e+00 1.240000e+02
        vertex -9.000000e+01 1.000000e+01 1.220000e+02
    endloop
endfacet
facet normal -6.643639e-01 7.474093e-01 0.000000e+00
    outer loop
        vertex -9.450000e+01 6.000000e+00 1.240000e+02
        vertex -9.000000e+01 1.000000e+01 1.240000e+02
        vertex -9.000000e+01 1.000000e+01 1.220000e+02
    endloop
endfacet
facet normal 0.000000e+00 0.000000e+00 -1.000000e+00
    outer loop
        vertex -6.500000e+01 -9.500000e+00 1.220000e+02
        vertex -7.473223e+01 -1.767767e+00 1.220000e+02
        vertex -6.000000e+01 -3.000000e+00 1.220000e+02
    endloop
endfacet
facet normal 0.000000e+00 0.000000e+00 -1.000000e+00
    outer loop
        vertex -5.000000e+00 -9.500000e+00 1.220000e+02
        vertex -1.000000e+01 -3.000000e+00 1.220000e+02
        vertex 5.834937e+00 -1.250000e+00 1.220000e+02
    endloop
endfacet
facet normal 0.000000e+00 0.000000e+00 -1.000000e+00
    outer loop
        vertex -9.000000e+01 -9.500000e+00 1.220000e+02
        vertex -9.450000e+01 -5.500000e+00 1.220000e+02
        vertex -9.450000e+01 6.000000e+00 1.220000e+02
    endloop
endfacet
facet normal 0.000000e+00 0.000000e+00 -1.000000e+00
    outer loop
        vertex -6.500000e+01 -9.500000e+00 1.220000e+02
        vertex -9.000000e+01 -9.500000e+00 1.220000e+02
        vertex -9.450000e+01 6.000000e+00 1.220000e+02
    endloop
endfacet
facet normal 0.000000e+00 0.000000e+00 -1.000000e+00
    outer loop
        vertex -6.000000e+01 3.500000e+00 1.220000e+02
        vertex -9.000000e+01 1.000000e+01 1.220000e+02
        vertex -6.500000e+01 1.000000e+01 1.220000e+02
    endloop
endfacet
facet normal 0.000000e+00 0.000000e+00 -1.000000e+00
    outer loop
        vertex -1.000000e+01 3.500000e+00 1.220000e+02
        vertex -5.000000e+00 1.000000e+01 1.220000e+02
        vertex 2.550000e+01 1.000000e+01 1.220000e+02
    endloop
endfacet
facet normal 0.000000e+00 0.000000e+00 -1.000000e+00
    outer loop
        vertex -6.000000e+01 3.500000e+00 1.220000e+02
        vertex -9.450000e+01 6.000000e+00 1.220000e+02
        vertex -9.000000e+01 1.000000e+01 1.220000e+02
    endloop
endfacet
facet normal 0.000000e+00 0.000000e+00 -1.000000e+00
    outer loop
        vertex -6.500000e+01 -9.500000e+00 1.220000e+02
        vertex -7.525000e+01 -2.165063e+00 1.220000e+02
        vertex -7.473223e+01 -1.767767e+00 1.220000e+02
    endloop
endfacet
facet normal 0.000000e+00 0.000000e+00 -1.000000e+00
    outer loop
        vertex -5.000000e+00 -9.500000e+00 1.220000e+02
        vertex 5.834937e+00 -1.250000e+00 1.220000e+02
        vertex 6.232233e+00 -1.767767e+00 1.220000e+02
    endloop
endfacet
facet normal 0.000000e+00 0.000000e+00 -1.000000e+00
    outer loop
        vertex -5.000000e+00 -9.500000e+00 1.220000e+02
        vertex 6.232233e+00 -1.767767e+00 1.220000e+02
        vertex 6.750000e+00 -2.165063e+00 1.220000e+02
    endloop
endfacet
facet normal 0.000000e+00 0.000000e+00 -1.000000e+00
    outer loop
        vertex -6.500000e+01 -9.500000e+00 1.220000e+02
        vertex -7.585295e+01 -2.414814e+00 1.220000e+02
        vertex -7.525000e+01 -2.165063e+00 1.220000e+02
    endloop
endfacet
facet normal 0.000000e+00 0.000000e+00 -1.000000e+00
    outer loop
        vertex -1.000000e+01 -3.000000e+00 1.220000e+02
        vertex 5.585186e+00 -6.470476e-01 1.220000e+02
        vertex 5.834937e+00 -1.250000e+00 1.220000e+02
    endloop
endfacet
facet normal 0.000000e+00 0.000000e+00 -1.000000e+00
    outer loop
        vertex -1.000000e+01 -3.000000e+00 1.220000e+02
        vertex 5.500000e+00 0.000000e+00 1.220000e+02
        vertex 5.585186e+00 -6.470476e-01 1.220000e+02
    endloop
endfacet
facet normal 0.000000e+00 0.000000e+00 -1.000000e+00
    outer loop
        vertex -1.000000e+01 -3.000000e+00 1.220000e+02
        vertex -6.000000e+01 -3.000000e+00 1.220000e+02
        vertex 5.500000e+00 0.000000e+00 1.220000e+02
    endloop
endfacet
facet normal 0.000000e+00 0.000000e+00 -1.000000e+00
    outer loop
        vertex -6.000000e+01 -3.000000e+00 1.220000e+02
        vertex -7.473223e+01 -1.767767e+00 1.220000e+02
        vertex -7.433494e+01 -1.250000e+00 1.220000e+02
    endloop
endfacet
facet normal 0.000000e+00 0.000000e+00 -1.000000e+00
    outer loop
        vertex -6.000000e+01 -3.000000e+00 1.220000e+02
        vertex -7.433494e+01 -1.250000e+00 1.220000e+02
        vertex -7.408518e+01 -6.470476e-01 1.220000e+02
    endloop
endfacet
facet normal 0.000000e+00 0.000000e+00 -1.000000e+00
    outer loop
        vertex -6.000000e+01 -3.000000e+00 1.220000e+02
        vertex -7.408518e+01 -6.470476e-01 1.220000e+02
        vertex -7.400000e+01 -3.552714e-15 1.220000e+02
    endloop
endfacet
facet normal 0.000000e+00 0.000000e+00 -1.000000e+00
    outer loop
        vertex -6.000000e+01 -3.000000e+00 1.220000e+02
        vertex -7.400000e+01 -3.552714e-15 1.220000e+02
        vertex 5.500000e+00 0.000000e+00 1.220000e+02
    endloop
endfacet
facet normal 0.000000e+00 0.000000e+00 -1.000000e+00
    outer loop
        vertex -5.000000e+00 -9.500000e+00 1.220000e+02
        vertex 6.750000e+00 -2.165063e+00 1.220000e+02
        vertex 7.352952e+00 -2.414814e+00 1.220000e+02
    endloop
endfacet
facet normal 0.000000e+00 0.000000e+00 -1.000000e+00
    outer loop
        vertex -5.000000e+00 -9.500000e+00 1.220000e+02
        vertex 7.352952e+00 -2.414814e+00 1.220000e+02
        vertex 2.550000e+01 -9.500000e+00 1.220000e+02
    endloop
endfacet
facet normal 0.000000e+00 0.000000e+00 -1.000000e+00
    outer loop
        vertex -6.500000e+01 -9.500000e+00 1.220000e+02
        vertex -7.650000e+01 -2.500000e+00 1.220000e+02
        vertex -7.585295e+01 -2.414814e+00 1.220000e+02
    endloop
endfacet
facet normal 0.000000e+00 0.000000e+00 -1.000000e+00
    outer loop
        vertex -6.500000e+01 -9.500000e+00 1.220000e+02
        vertex -7.714705e+01 -2.414814e+00 1.220000e+02
        vertex -7.650000e+01 -2.500000e+00 1.220000e+02
    endloop
endfacet
facet normal 0.000000e+00 0.000000e+00 -1.000000e+00
    outer loop
        vertex 2.550000e+01 -9.500000e+00 1.220000e+02
        vertex 7.352952e+00 -2.414814e+00 1.220000e+02
        vertex 8.000000e+00 -2.500000e+00 1.220000e+02
    endloop
endfacet
facet normal 0.000000e+00 0.000000e+00 -1.000000e+00
    outer loop
        vertex 2.550000e+01 -9.500000e+00 1.220000e+02
        vertex 8.000000e+00 -2.500000e+00 1.220000e+02
        vertex 8.647048e+00 -2.414814e+00 1.220000e+02
    endloop
endfacet
facet normal 0.000000e+00 0.000000e+00 -1.000000e+00
    outer loop
        vertex 2.550000e+01 -9.500000e+00 1.220000e+02
        vertex 8.647048e+00 -2.414814e+00 1.220000e+02
        vertex 9.250000e+00 -2.165063e+00 1.220000e+02
    endloop
endfacet
facet normal 0.000000e+00 0.000000e+00 -1.000000e+00
    outer loop
        vertex 2.550000e+01 -9.500000e+00 1.220000e+02
        vertex 9.250000e+00 -2.165063e+00 1.220000e+02
        vertex 2.550000e+01 1.000000e+01 1.220000e+02
    endloop
endfacet
facet normal 0.000000e+00 0.000000e+00 -1.000000e+00
    outer loop
        vertex -7.400000e+01 -3.552714e-15 1.220000e+02
        vertex -7.408518e+01 6.470476e-01 1.220000e+02
        vertex 5.500000e+00 0.000000e+00 1.220000e+02
    endloop
endfacet
facet normal 0.000000e+00 0.000000e+00 -1.000000e+00
    outer loop
        vertex 5.500000e+00 0.000000e+00 1.220000e+02
        vertex -7.408518e+01 6.470476e-01 1.220000e+02
        vertex 5.585186e+00 6.470476e-01 1.220000e+02
    endloop
endfacet
facet normal 0.000000e+00 0.000000e+00 -1.000000e+00
    outer loop
        vertex 5.585186e+00 6.470476e-01 1.220000e+02
        vertex -7.408518e+01 6.470476e-01 1.220000e+02
        vertex 5.834937e+00 1.250000e+00 1.220000e+02
    endloop
endfacet
facet normal 0.000000e+00 0.000000e+00 -1.000000e+00
    outer loop
        vertex -7.408518e+01 6.470476e-01 1.220000e+02
        vertex -7.433494e+01 1.250000e+00 1.220000e+02
        vertex 5.834937e+00 1.250000e+00 1.220000e+02
    endloop
endfacet
facet normal 0.000000e+00 0.000000e+00 -1.000000e+00
    outer loop
        vertex 5.834937e+00 1.250000e+00 1.220000e+02
        vertex -7.433494e+01 1.250000e+00 1.220000e+02
        vertex -7.473223e+01 1.767767e+00 1.220000e+02
    endloop
endfacet
facet normal 0.000000e+00 0.000000e+00 -1.000000e+00
    outer loop
        vertex 5.834937e+00 1.250000e+00 1.220000e+02
        vertex -7.473223e+01 1.767767e+00 1.220000e+02
        vertex 6.232233e+00 1.767767e+00 1.220000e+02
    endloop
endfacet
facet normal 0.000000e+00 0.000000e+00 -1.000000e+00
    outer loop
        vertex -6.500000e+01 -9.500000e+00 1.220000e+02
        vertex -7.775000e+01 -2.165063e+00 1.220000e+02
        vertex -7.714705e+01 -2.414814e+00 1.220000e+02
    endloop
endfacet
facet normal 0.000000e+00 0.000000e+00 -1.000000e+00
    outer loop
        vertex -6.500000e+01 -9.500000e+00 1.220000e+02
        vertex -9.450000e+01 6.000000e+00 1.220000e+02
        vertex -7.775000e+01 -2.165063e+00 1.220000e+02
    endloop
endfacet
facet normal 0.000000e+00 0.000000e+00 -1.000000e+00
    outer loop
        vertex -7.775000e+01 -2.165063e+00 1.220000e+02
        vertex -9.450000e+01 6.000000e+00 1.220000e+02
        vertex -7.826777e+01 -1.767767e+00 1.220000e+02
    endloop
endfacet
facet normal 0.000000e+00 0.000000e+00 -1.000000e+00
    outer loop
        vertex -7.826777e+01 -1.767767e+00 1.220000e+02
        vertex -9.450000e+01 6.000000e+00 1.220000e+02
        vertex -7.866506e+01 -1.250000e+00 1.220000e+02
    endloop
endfacet
facet normal 0.000000e+00 0.000000e+00 -1.000000e+00
    outer loop
        vertex -7.866506e+01 -1.250000e+00 1.220000e+02
        vertex -9.450000e+01 6.000000e+00 1.220000e+02
        vertex -7.891482e+01 -6.470476e-01 1.220000e+02
    endloop
endfacet
facet normal 0.000000e+00 0.000000e+00 -1.000000e+00
    outer loop
        vertex -7.891482e+01 -6.470476e-01 1.220000e+02
        vertex -9.450000e+01 6.000000e+00 1.220000e+02
        vertex -7.900000e+01 -1.776357e-15 1.220000e+02
    endloop
endfacet
facet normal 0.000000e+00 0.000000e+00 -1.000000e+00
    outer loop
        vertex -7.900000e+01 -1.776357e-15 1.220000e+02
        vertex -9.450000e+01 6.000000e+00 1.220000e+02
        vertex -7.891482e+01 6.470476e-01 1.220000e+02
    endloop
endfacet
facet normal 0.000000e+00 0.000000e+00 -1.000000e+00
    outer loop
        vertex -7.891482e+01 6.470476e-01 1.220000e+02
        vertex -9.450000e+01 6.000000e+00 1.220000e+02
        vertex -7.866506e+01 1.250000e+00 1.220000e+02
    endloop
endfacet
facet normal 0.000000e+00 0.000000e+00 -1.000000e+00
    outer loop
        vertex -7.866506e+01 1.250000e+00 1.220000e+02
        vertex -9.450000e+01 6.000000e+00 1.220000e+02
        vertex -7.826777e+01 1.767767e+00 1.220000e+02
    endloop
endfacet
facet normal 0.000000e+00 0.000000e+00 -1.000000e+00
    outer loop
        vertex -7.826777e+01 1.767767e+00 1.220000e+02
        vertex -9.450000e+01 6.000000e+00 1.220000e+02
        vertex -7.775000e+01 2.165063e+00 1.220000e+02
    endloop
endfacet
facet normal 0.000000e+00 0.000000e+00 -1.000000e+00
    outer loop
        vertex -7.775000e+01 2.165063e+00 1.220000e+02
        vertex -9.450000e+01 6.000000e+00 1.220000e+02
        vertex -7.714705e+01 2.414814e+00 1.220000e+02
    endloop
endfacet
facet normal 0.000000e+00 0.000000e+00 -1.000000e+00
    outer loop
        vertex -7.714705e+01 2.414814e+00 1.220000e+02
        vertex -9.450000e+01 6.000000e+00 1.220000e+02
        vertex -7.650000e+01 2.500000e+00 1.220000e+02
    endloop
endfacet
facet normal 0.000000e+00 0.000000e+00 -1.000000e+00
    outer loop
        vertex -7.650000e+01 2.500000e+00 1.220000e+02
        vertex -9.450000e+01 6.000000e+00 1.220000e+02
        vertex -6.000000e+01 3.500000e+00 1.220000e+02
    endloop
endfacet
facet normal 0.000000e+00 0.000000e+00 -1.000000e+00
    outer loop
        vertex -7.650000e+01 2.500000e+00 1.220000e+02
        vertex -6.000000e+01 3.500000e+00 1.220000e+02
        vertex -1.000000e+01 3.500000e+00 1.220000e+02
    endloop
endfacet
facet normal 0.000000e+00 0.000000e+00 -1.000000e+00
    outer loop
        vertex 6.232233e+00 1.767767e+00 1.220000e+02
        vertex -7.473223e+01 1.767767e+00 1.220000e+02
        vertex 6.750000e+00 2.165063e+00 1.220000e+02
    endloop
endfacet
facet normal 0.000000e+00 0.000000e+00 -1.000000e+00
    outer loop
        vertex -7.473223e+01 1.767767e+00 1.220000e+02
        vertex -7.525000e+01 2.165063e+00 1.220000e+02
        vertex 6.750000e+00 2.165063e+00 1.220000e+02
    endloop
endfacet
facet normal 0.000000e+00 0.000000e+00 -1.000000e+00
    outer loop
        vertex 6.750000e+00 2.165063e+00 1.220000e+02
        vertex -7.525000e+01 2.165063e+00 1.220000e+02
        vertex -7.585295e+01 2.414814e+00 1.220000e+02
    endloop
endfacet
facet normal 0.000000e+00 0.000000e+00 -1.000000e+00
    outer loop
        vertex 6.750000e+00 2.165063e+00 1.220000e+02
        vertex -7.585295e+01 2.414814e+00 1.220000e+02
        vertex 7.352952e+00 2.414814e+00 1.220000e+02
    endloop
endfacet
facet normal 0.000000e+00 0.000000e+00 -1.000000e+00
    outer loop
        vertex -7.585295e+01 2.414814e+00 1.220000e+02
        vertex -7.650000e+01 2.500000e+00 1.220000e+02
        vertex -1.000000e+01 3.500000e+00 1.220000e+02
    endloop
endfacet
facet normal 0.000000e+00 0.000000e+00 -1.000000e+00
    outer loop
        vertex 7.352952e+00 2.414814e+00 1.220000e+02
        vertex -7.585295e+01 2.414814e+00 1.220000e+02
        vertex -1.000000e+01 3.500000e+00 1.220000e+02
    endloop
endfacet
facet normal 0.000000e+00 0.000000e+00 -1.000000e+00
    outer loop
        vertex 7.352952e+00 2.414814e+00 1.220000e+02
        vertex -1.000000e+01 3.500000e+00 1.220000e+02
        vertex 2.550000e+01 1.000000e+01 1.220000e+02
    endloop
endfacet
facet normal 0.000000e+00 0.000000e+00 -1.000000e+00
    outer loop
        vertex 7.352952e+00 2.414814e+00 1.220000e+02
        vertex 2.550000e+01 1.000000e+01 1.220000e+02
        vertex 8.000000e+00 2.500000e+00 1.220000e+02
    endloop
endfacet
facet normal 0.000000e+00 0.000000e+00 -1.000000e+00
    outer loop
        vertex 8.647048e+00 2.414814e+00 1.220000e+02
        vertex 8.000000e+00 2.500000e+00 1.220000e+02
        vertex 2.550000e+01 1.000000e+01 1.220000e+02
    endloop
endfacet
facet normal 0.000000e+00 0.000000e+00 -1.000000e+00
    outer loop
        vertex 9.250000e+00 2.165063e+00 1.220000e+02
        vertex 8.647048e+00 2.414814e+00 1.220000e+02
        vertex 2.550000e+01 1.000000e+01 1.220000e+02
    endloop
endfacet
facet normal 0.000000e+00 0.000000e+00 -1.000000e+00
    outer loop
        vertex 9.767767e+00 1.767767e+00 1.220000e+02
        vertex 9.250000e+00 2.165063e+00 1.220000e+02
        vertex 2.550000e+01 1.000000e+01 1.220000e+02
    endloop
endfacet
facet normal 0.000000e+00 0.000000e+00 -1.000000e+00
    outer loop
        vertex 1.016506e+01 1.250000e+00 1.220000e+02
        vertex 9.767767e+00 1.767767e+00 1.220000e+02
        vertex 2.550000e+01 1.000000e+01 1.220000e+02
    endloop
endfacet
facet normal 0.000000e+00 0.000000e+00 -1.000000e+00
    outer loop
        vertex 1.041481e+01 6.470476e-01 1.220000e+02
        vertex 1.016506e+01 1.250000e+00 1.220000e+02
        vertex 2.550000e+01 1.000000e+01 1.220000e+02
    endloop
endfacet
facet normal 0.000000e+00 0.000000e+00 -1.000000e+00
    outer loop
        vertex 1.050000e+01 0.000000e+00 1.220000e+02
        vertex 1.041481e+01 6.470476e-01 1.220000e+02
        vertex 2.550000e+01 1.000000e+01 1.220000e+02
    endloop
endfacet
facet normal 0.000000e+00 0.000000e+00 -1.000000e+00
    outer loop
        vertex 1.041481e+01 -6.470476e-01 1.220000e+02
        vertex 1.050000e+01 0.000000e+00 1.220000e+02
        vertex 2.550000e+01 1.000000e+01 1.220000e+02
    endloop
endfacet
facet normal 0.000000e+00 0.000000e+00 -1.000000e+00
    outer loop
        vertex 1.016506e+01 -1.250000e+00 1.220000e+02
        vertex 1.041481e+01 -6.470476e-01 1.220000e+02
        vertex 2.550000e+01 1.000000e+01 1.220000e+02
    endloop
endfacet
facet normal 0.000000e+00 0.000000e+00 -1.000000e+00
    outer loop
        vertex 9.250000e+00 -2.165063e+00 1.220000e+02
        vertex 9.767767e+00 -1.767767e+00 1.220000e+02
        vertex 2.550000e+01 1.000000e+01 1.220000e+02
    endloop
endfacet
facet normal 0.000000e+00 0.000000e+00 -1.000000e+00
    outer loop
        vertex 9.767767e+00 -1.767767e+00 1.220000e+02
        vertex 1.016506e+01 -1.250000e+00 1.220000e+02
        vertex 2.550000e+01 1.000000e+01 1.220000e+02
    endloop
endfacet
facet normal 0.000000e+00 0.000000e+00 1.000000e+00
    outer loop
        vertex -7.433494e+01 1.250000e+00 1.270000e+02
        vertex -6.000000e+01 3.500000e+00 1.270000e+02
        vertex -6.500000e+01 7.000000e+00 1.270000e+02
    endloop
endfacet
facet normal 0.000000e+00 0.000000e+00 1.000000e+00
    outer loop
        vertex 5.834937e+00 1.250000e+00 1.270000e+02
        vertex -5.000000e+00 7.000000e+00 1.270000e+02
        vertex -1.000000e+01 3.500000e+00 1.270000e+02
    endloop
endfacet
facet normal 0.000000e+00 0.000000e+00 1.000000e+00
    outer loop
        vertex -9.450000e+01 -3.000000e+00 1.270000e+02
        vertex -9.000000e+01 7.000000e+00 1.270000e+02
        vertex -9.450000e+01 3.000000e+00 1.270000e+02
    endloop
endfacet
facet normal 0.000000e+00 -0.000000e+00 1.000000e+00
    outer loop
        vertex -9.000000e+01 -7.000000e+00 1.270000e+02
        vertex -9.000000e+01 7.000000e+00 1.270000e+02
        vertex -9.450000e+01 -3.000000e+00 1.270000e+02
    endloop
endfacet
facet normal 0.000000e+00 -0.000000e+00 1.000000e+00
    outer loop
        vertex -6.500000e+01 -7.000000e+00 1.270000e+02
        vertex -6.000000e+01 -3.000000e+00 1.270000e+02
        vertex -9.000000e+01 -7.000000e+00 1.270000e+02
    endloop
endfacet
facet normal 0.000000e+00 -0.000000e+00 1.000000e+00
    outer loop
        vertex -5.000000e+00 -7.000000e+00 1.270000e+02
        vertex 2.550000e+01 -7.000000e+00 1.270000e+02
        vertex -1.000000e+01 -3.000000e+00 1.270000e+02
    endloop
endfacet
facet normal 0.000000e+00 -0.000000e+00 1.000000e+00
    outer loop
        vertex -7.433494e+01 1.250000e+00 1.270000e+02
        vertex -6.500000e+01 7.000000e+00 1.270000e+02
        vertex -7.473223e+01 1.767767e+00 1.270000e+02
    endloop
endfacet
facet normal 0.000000e+00 -0.000000e+00 1.000000e+00
    outer loop
        vertex -7.473223e+01 1.767767e+00 1.270000e+02
        vertex -6.500000e+01 7.000000e+00 1.270000e+02
        vertex -7.525000e+01 2.165063e+00 1.270000e+02
    endloop
endfacet
facet normal 0.000000e+00 -0.000000e+00 1.000000e+00
    outer loop
        vertex 5.834937e+00 1.250000e+00 1.270000e+02
        vertex 6.232233e+00 1.767767e+00 1.270000e+02
        vertex -5.000000e+00 7.000000e+00 1.270000e+02
    endloop
endfacet
facet normal 0.000000e+00 -0.000000e+00 1.000000e+00
    outer loop
        vertex 6.232233e+00 1.767767e+00 1.270000e+02
        vertex 6.750000e+00 2.165063e+00 1.270000e+02
        vertex -5.000000e+00 7.000000e+00 1.270000e+02
    endloop
endfacet
facet normal 0.000000e+00 -0.000000e+00 1.000000e+00
    outer loop
        vertex -7.408518e+01 6.470476e-01 1.270000e+02
        vertex -6.000000e+01 3.500000e+00 1.270000e+02
        vertex -7.433494e+01 1.250000e+00 1.270000e+02
    endloop
endfacet
facet normal 0.000000e+00 -0.000000e+00 1.000000e+00
    outer loop
        vertex -7.400000e+01 0.000000e+00 1.270000e+02
        vertex -6.000000e+01 3.500000e+00 1.270000e+02
        vertex -7.408518e+01 6.470476e-01 1.270000e+02
    endloop
endfacet
facet normal 0.000000e+00 0.000000e+00 1.000000e+00
    outer loop
        vertex -7.400000e+01 0.000000e+00 1.270000e+02
        vertex -1.000000e+01 3.500000e+00 1.270000e+02
        vertex -6.000000e+01 3.500000e+00 1.270000e+02
    endloop
endfacet
facet normal 0.000000e+00 -0.000000e+00 1.000000e+00
    outer loop
        vertex -7.525000e+01 2.165063e+00 1.270000e+02
        vertex -6.500000e+01 7.000000e+00 1.270000e+02
        vertex -7.585295e+01 2.414814e+00 1.270000e+02
    endloop
endfacet
facet normal 0.000000e+00 -0.000000e+00 1.000000e+00
    outer loop
        vertex -7.585295e+01 2.414814e+00 1.270000e+02
        vertex -6.500000e+01 7.000000e+00 1.270000e+02
        vertex -9.000000e+01 7.000000e+00 1.270000e+02
    endloop
endfacet
facet normal 0.000000e+00 -0.000000e+00 1.000000e+00
    outer loop
        vertex 5.585186e+00 6.470476e-01 1.270000e+02
        vertex 5.834937e+00 1.250000e+00 1.270000e+02
        vertex -1.000000e+01 3.500000e+00 1.270000e+02
    endloop
endfacet
facet normal 0.000000e+00 0.000000e+00 1.000000e+00
    outer loop
        vertex -7.400000e+01 0.000000e+00 1.270000e+02
        vertex 5.585186e+00 6.470476e-01 1.270000e+02
        vertex -1.000000e+01 3.500000e+00 1.270000e+02
    endloop
endfacet
facet normal 0.000000e+00 -0.000000e+00 1.000000e+00
    outer loop
        vertex 6.750000e+00 2.165063e+00 1.270000e+02
        vertex 7.352952e+00 2.414814e+00 1.270000e+02
        vertex -5.000000e+00 7.000000e+00 1.270000e+02
    endloop
endfacet
facet normal 0.000000e+00 -0.000000e+00 1.000000e+00
    outer loop
        vertex 7.352952e+00 2.414814e+00 1.270000e+02
        vertex 2.550000e+01 7.000000e+00 1.270000e+02
        vertex -5.000000e+00 7.000000e+00 1.270000e+02
    endloop
endfacet
facet normal 0.000000e+00 0.000000e+00 1.000000e+00
    outer loop
        vertex -7.585295e+01 2.414814e+00 1.270000e+02
        vertex -9.000000e+01 7.000000e+00 1.270000e+02
        vertex -7.650000e+01 2.500000e+00 1.270000e+02
    endloop
endfacet
facet normal 0.000000e+00 -0.000000e+00 1.000000e+00
    outer loop
        vertex -7.714705e+01 2.414814e+00 1.270000e+02
        vertex -7.650000e+01 2.500000e+00 1.270000e+02
        vertex -9.000000e+01 7.000000e+00 1.270000e+02
    endloop
endfacet
facet normal 0.000000e+00 -0.000000e+00 1.000000e+00
    outer loop
        vertex -7.775000e+01 2.165063e+00 1.270000e+02
        vertex -7.714705e+01 2.414814e+00 1.270000e+02
        vertex -9.000000e+01 7.000000e+00 1.270000e+02
    endloop
endfacet
facet normal 0.000000e+00 0.000000e+00 1.000000e+00
    outer loop
        vertex -9.000000e+01 -7.000000e+00 1.270000e+02
        vertex -7.775000e+01 2.165063e+00 1.270000e+02
        vertex -9.000000e+01 7.000000e+00 1.270000e+02
    endloop
endfacet
facet normal 0.000000e+00 0.000000e+00 1.000000e+00
    outer loop
        vertex -7.400000e+01 0.000000e+00 1.270000e+02
        vertex 5.500000e+00 4.440892e-16 1.270000e+02
        vertex 5.585186e+00 6.470476e-01 1.270000e+02
    endloop
endfacet
facet normal 0.000000e+00 0.000000e+00 1.000000e+00
    outer loop
        vertex -7.408518e+01 -6.470476e-01 1.270000e+02
        vertex 5.500000e+00 4.440892e-16 1.270000e+02
        vertex -7.400000e+01 0.000000e+00 1.270000e+02
    endloop
endfacet
facet normal 0.000000e+00 0.000000e+00 1.000000e+00
    outer loop
        vertex 5.585186e+00 -6.470476e-01 1.270000e+02
        vertex 5.500000e+00 4.440892e-16 1.270000e+02
        vertex -7.408518e+01 -6.470476e-01 1.270000e+02
    endloop
endfacet
facet normal 0.000000e+00 0.000000e+00 1.000000e+00
    outer loop
        vertex 5.834937e+00 -1.250000e+00 1.270000e+02
        vertex 5.585186e+00 -6.470476e-01 1.270000e+02
        vertex -7.408518e+01 -6.470476e-01 1.270000e+02
    endloop
endfacet
facet normal 0.000000e+00 0.000000e+00 1.000000e+00
    outer loop
        vertex 5.834937e+00 -1.250000e+00 1.270000e+02
        vertex -7.408518e+01 -6.470476e-01 1.270000e+02
        vertex -7.433494e+01 -1.250000e+00 1.270000e+02
    endloop
endfacet
facet normal 0.000000e+00 0.000000e+00 1.000000e+00
    outer loop
        vertex -7.473223e+01 -1.767767e+00 1.270000e+02
        vertex 5.834937e+00 -1.250000e+00 1.270000e+02
        vertex -7.433494e+01 -1.250000e+00 1.270000e+02
    endloop
endfacet
facet normal 0.000000e+00 0.000000e+00 1.000000e+00
    outer loop
        vertex 6.232233e+00 -1.767767e+00 1.270000e+02
        vertex 5.834937e+00 -1.250000e+00 1.270000e+02
        vertex -7.473223e+01 -1.767767e+00 1.270000e+02
    endloop
endfacet
facet normal 0.000000e+00 0.000000e+00 1.000000e+00
    outer loop
        vertex 6.750000e+00 -2.165063e+00 1.270000e+02
        vertex 6.232233e+00 -1.767767e+00 1.270000e+02
        vertex -7.473223e+01 -1.767767e+00 1.270000e+02
    endloop
endfacet
facet normal 0.000000e+00 0.000000e+00 1.000000e+00
    outer loop
        vertex 6.750000e+00 -2.165063e+00 1.270000e+02
        vertex -7.473223e+01 -1.767767e+00 1.270000e+02
        vertex -7.525000e+01 -2.165063e+00 1.270000e+02
    endloop
endfacet
facet normal 0.000000e+00 0.000000e+00 1.000000e+00
    outer loop
        vertex 7.352952e+00 2.414814e+00 1.270000e+02
        vertex 8.000000e+00 2.500000e+00 1.270000e+02
        vertex 2.550000e+01 7.000000e+00 1.270000e+02
    endloop
endfacet
facet normal 0.000000e+00 -0.000000e+00 1.000000e+00
    outer loop
        vertex 8.647048e+00 2.414814e+00 1.270000e+02
        vertex 2.550000e+01 7.000000e+00 1.270000e+02
        vertex 8.000000e+00 2.500000e+00 1.270000e+02
    endloop
endfacet
facet normal 0.000000e+00 -0.000000e+00 1.000000e+00
    outer loop
        vertex 9.250000e+00 2.165063e+00 1.270000e+02
        vertex 2.550000e+01 7.000000e+00 1.270000e+02
        vertex 8.647048e+00 2.414814e+00 1.270000e+02
    endloop
endfacet
facet normal 0.000000e+00 -0.000000e+00 1.000000e+00
    outer loop
        vertex 2.550000e+01 -7.000000e+00 1.270000e+02
        vertex 2.550000e+01 7.000000e+00 1.270000e+02
        vertex 9.250000e+00 2.165063e+00 1.270000e+02
    endloop
endfacet
facet normal 0.000000e+00 0.000000e+00 1.000000e+00
    outer loop
        vertex 2.550000e+01 -7.000000e+00 1.270000e+02
        vertex 9.250000e+00 2.165063e+00 1.270000e+02
        vertex 9.767767e+00 1.767767e+00 1.270000e+02
    endloop
endfacet
facet normal 0.000000e+00 0.000000e+00 1.000000e+00
    outer loop
        vertex 2.550000e+01 -7.000000e+00 1.270000e+02
        vertex 9.767767e+00 1.767767e+00 1.270000e+02
        vertex 1.016506e+01 1.250000e+00 1.270000e+02
    endloop
endfacet
facet normal 0.000000e+00 0.000000e+00 1.000000e+00
    outer loop
        vertex 2.550000e+01 -7.000000e+00 1.270000e+02
        vertex 1.016506e+01 1.250000e+00 1.270000e+02
        vertex 1.041481e+01 6.470476e-01 1.270000e+02
    endloop
endfacet
facet normal 0.000000e+00 0.000000e+00 1.000000e+00
    outer loop
        vertex 2.550000e+01 -7.000000e+00 1.270000e+02
        vertex 1.041481e+01 6.470476e-01 1.270000e+02
        vertex 1.050000e+01 4.440892e-16 1.270000e+02
    endloop
endfacet
facet normal 0.000000e+00 0.000000e+00 1.000000e+00
    outer loop
        vertex 2.550000e+01 -7.000000e+00 1.270000e+02
        vertex 1.050000e+01 4.440892e-16 1.270000e+02
        vertex 1.041481e+01 -6.470476e-01 1.270000e+02
    endloop
endfacet
facet normal 0.000000e+00 0.000000e+00 1.000000e+00
    outer loop
        vertex 2.550000e+01 -7.000000e+00 1.270000e+02
        vertex 1.041481e+01 -6.470476e-01 1.270000e+02
        vertex 1.016506e+01 -1.250000e+00 1.270000e+02
    endloop
endfacet
facet normal 0.000000e+00 0.000000e+00 1.000000e+00
    outer loop
        vertex 2.550000e+01 -7.000000e+00 1.270000e+02
        vertex 1.016506e+01 -1.250000e+00 1.270000e+02
        vertex 9.767767e+00 -1.767767e+00 1.270000e+02
    endloop
endfacet
facet normal 0.000000e+00 0.000000e+00 1.000000e+00
    outer loop
        vertex 2.550000e+01 -7.000000e+00 1.270000e+02
        vertex 9.767767e+00 -1.767767e+00 1.270000e+02
        vertex 9.250000e+00 -2.165063e+00 1.270000e+02
    endloop
endfacet
facet normal 0.000000e+00 0.000000e+00 1.000000e+00
    outer loop
        vertex 2.550000e+01 -7.000000e+00 1.270000e+02
        vertex 9.250000e+00 -2.165063e+00 1.270000e+02
        vertex 8.647048e+00 -2.414814e+00 1.270000e+02
    endloop
endfacet
facet normal 0.000000e+00 0.000000e+00 1.000000e+00
    outer loop
        vertex 2.550000e+01 -7.000000e+00 1.270000e+02
        vertex 8.647048e+00 -2.414814e+00 1.270000e+02
        vertex 8.000000e+00 -2.500000e+00 1.270000e+02
    endloop
endfacet
facet normal 0.000000e+00 0.000000e+00 1.000000e+00
    outer loop
        vertex 2.550000e+01 -7.000000e+00 1.270000e+02
        vertex 8.000000e+00 -2.500000e+00 1.270000e+02
        vertex -1.000000e+01 -3.000000e+00 1.270000e+02
    endloop
endfacet
facet normal 0.000000e+00 -0.000000e+00 1.000000e+00
    outer loop
        vertex -1.000000e+01 -3.000000e+00 1.270000e+02
        vertex 8.000000e+00 -2.500000e+00 1.270000e+02
        vertex -6.000000e+01 -3.000000e+00 1.270000e+02
    endloop
endfacet
facet normal 0.000000e+00 0.000000e+00 1.000000e+00
    outer loop
        vertex -7.585295e+01 -2.414814e+00 1.270000e+02
        vertex 6.750000e+00 -2.165063e+00 1.270000e+02
        vertex -7.525000e+01 -2.165063e+00 1.270000e+02
    endloop
endfacet
facet normal 0.000000e+00 0.000000e+00 1.000000e+00
    outer loop
        vertex 7.352952e+00 -2.414814e+00 1.270000e+02
        vertex 6.750000e+00 -2.165063e+00 1.270000e+02
        vertex -7.585295e+01 -2.414814e+00 1.270000e+02
    endloop
endfacet
facet normal 0.000000e+00 0.000000e+00 1.000000e+00
    outer loop
        vertex -6.000000e+01 -3.000000e+00 1.270000e+02
        vertex 8.000000e+00 -2.500000e+00 1.270000e+02
        vertex 7.352952e+00 -2.414814e+00 1.270000e+02
    endloop
endfacet
facet normal 0.000000e+00 -0.000000e+00 1.000000e+00
    outer loop
        vertex -6.000000e+01 -3.000000e+00 1.270000e+02
        vertex 7.352952e+00 -2.414814e+00 1.270000e+02
        vertex -7.585295e+01 -2.414814e+00 1.270000e+02
    endloop
endfacet
facet normal 0.000000e+00 0.000000e+00 1.000000e+00
    outer loop
        vertex -9.000000e+01 -7.000000e+00 1.270000e+02
        vertex -6.000000e+01 -3.000000e+00 1.270000e+02
        vertex -7.585295e+01 -2.414814e+00 1.270000e+02
    endloop
endfacet
facet normal 0.000000e+00 0.000000e+00 1.000000e+00
    outer loop
        vertex -9.000000e+01 -7.000000e+00 1.270000e+02
        vertex -7.585295e+01 -2.414814e+00 1.270000e+02
        vertex -7.650000e+01 -2.500000e+00 1.270000e+02
    endloop
endfacet
facet normal 0.000000e+00 0.000000e+00 1.000000e+00
    outer loop
        vertex -9.000000e+01 -7.000000e+00 1.270000e+02
        vertex -7.650000e+01 -2.500000e+00 1.270000e+02
        vertex -7.714705e+01 -2.414814e+00 1.270000e+02
    endloop
endfacet
facet normal 0.000000e+00 0.000000e+00 1.000000e+00
    outer loop
        vertex -9.000000e+01 -7.000000e+00 1.270000e+02
        vertex -7.714705e+01 -2.414814e+00 1.270000e+02
        vertex -7.775000e+01 -2.165063e+00 1.270000e+02
    endloop
endfacet
facet normal 0.000000e+00 0.000000e+00 1.000000e+00
    outer loop
        vertex -9.000000e+01 -7.000000e+00 1.270000e+02
        vertex -7.775000e+01 -2.165063e+00 1.270000e+02
        vertex -7.826777e+01 -1.767767e+00 1.270000e+02
    endloop
endfacet
facet normal 0.000000e+00 0.000000e+00 1.000000e+00
    outer loop
        vertex -9.000000e+01 -7.000000e+00 1.270000e+02
        vertex -7.826777e+01 -1.767767e+00 1.270000e+02
        vertex -7.866506e+01 -1.250000e+00 1.270000e+02
    endloop
endfacet
facet normal 0.000000e+00 0.000000e+00 1.000000e+00
    outer loop
        vertex -9.000000e+01 -7.000000e+00 1.270000e+02
        vertex -7.866506e+01 -1.250000e+00 1.270000e+02
        vertex -7.891482e+01 -6.470476e-01 1.270000e+02
    endloop
endfacet
facet normal 0.000000e+00 0.000000e+00 1.000000e+00
    outer loop
        vertex -9.000000e+01 -7.000000e+00 1.270000e+02
        vertex -7.891482e+01 -6.470476e-01 1.270000e+02
        vertex -7.900000e+01 8.881784e-16 1.270000e+02
    endloop
endfacet
facet normal 0.000000e+00 0.000000e+00 1.000000e+00
    outer loop
        vertex -9.000000e+01 -7.000000e+00 1.270000e+02
        vertex -7.900000e+01 8.881784e-16 1.270000e+02
        vertex -7.891482e+01 6.470476e-01 1.270000e+02
    endloop
endfacet
facet normal 0.000000e+00 0.000000e+00 1.000000e+00
    outer loop
        vertex -9.000000e+01 -7.000000e+00 1.270000e+02
        vertex -7.891482e+01 6.470476e-01 1.270000e+02
        vertex -7.866506e+01 1.250000e+00 1.270000e+02
    endloop
endfacet
facet normal 0.000000e+00 0.000000e+00 1.000000e+00
    outer loop
        vertex -9.000000e+01 -7.000000e+00 1.270000e+02
        vertex -7.866506e+01 1.250000e+00 1.270000e+02
        vertex -7.826777e+01 1.767767e+00 1.270000e+02
    endloop
endfacet
facet normal 0.000000e+00 0.000000e+00 1.000000e+00
    outer loop
        vertex -9.000000e+01 -7.000000e+00 1.270000e+02
        vertex -7.826777e+01 1.767767e+00 1.270000e+02
        vertex -7.775000e+01 2.165063e+00 1.270000e+02
    endloop
endfacet
facet normal -9.914455e-01 -1.305213e-01 9.274096e-17
    outer loop
        vertex -7.400000e+01 -3.552714e-15 1.220000e+02
        vertex -7.400000e+01 0.000000e+00 1.270000e+02
        vertex -7.408518e+01 6.470476e-01 1.220000e+02
    endloop
endfacet
facet normal -9.914455e-01 -1.305213e-01 0.000000e+00
    outer loop
        vertex -7.400000e+01 0.000000e+00 1.270000e+02
        vertex -7.408518e+01 6.470476e-01 1.270000e+02
        vertex -7.408518e+01 6.470476e-01 1.220000e+02
    endloop
endfacet
facet normal -9.238769e-01 -3.826897e-01 0.000000e+00
    outer loop
        vertex -7.408518e+01 6.470476e-01 1.220000e+02
        vertex -7.408518e+01 6.470476e-01 1.270000e+02
        vertex -7.433494e+01 1.250000e+00 1.220000e+02
    endloop
endfacet
facet normal -9.238769e-01 -3.826897e-01 0.000000e+00
    outer loop
        vertex -7.408518e+01 6.470476e-01 1.270000e+02
        vertex -7.433494e+01 1.250000e+00 1.270000e+02
        vertex -7.433494e+01 1.250000e+00 1.220000e+02
    endloop
endfacet
facet normal -7.933559e-01 -6.087581e-01 0.000000e+00
    outer loop
        vertex -7.433494e+01 1.250000e+00 1.220000e+02
        vertex -7.433494e+01 1.250000e+00 1.270000e+02
        vertex -7.473223e+01 1.767767e+00 1.220000e+02
    endloop
endfacet
facet normal -7.933559e-01 -6.087581e-01 0.000000e+00
    outer loop
        vertex -7.433494e+01 1.250000e+00 1.270000e+02
        vertex -7.473223e+01 1.767767e+00 1.270000e+02
        vertex -7.473223e+01 1.767767e+00 1.220000e+02
    endloop
endfacet
facet normal -6.087599e-01 -7.933545e-01 0.000000e+00
    outer loop
        vertex -7.473223e+01 1.767767e+00 1.220000e+02
        vertex -7.473223e+01 1.767767e+00 1.270000e+02
        vertex -7.525000e+01 2.165063e+00 1.220000e+02
    endloop
endfacet
facet normal -6.087599e-01 -7.933545e-01 0.000000e+00
    outer loop
        vertex -7.473223e+01 1.767767e+00 1.270000e+02
        vertex -7.525000e+01 2.165063e+00 1.270000e+02
        vertex -7.525000e+01 2.165063e+00 1.220000e+02
    endloop
endfacet
facet normal -3.826842e-01 -9.238792e-01 0.000000e+00
    outer loop
        vertex -7.525000e+01 2.165063e+00 1.220000e+02
        vertex -7.525000e+01 2.165063e+00 1.270000e+02
        vertex -7.585295e+01 2.414814e+00 1.220000e+02
    endloop
endfacet
facet normal -3.826842e-01 -9.238792e-01 0.000000e+00
    outer loop
        vertex -7.525000e+01 2.165063e+00 1.270000e+02
        vertex -7.585295e+01 2.414814e+00 1.270000e+02
        vertex -7.585295e+01 2.414814e+00 1.220000e+02
    endloop
endfacet
facet normal -1.305261e-01 -9.914449e-01 0.000000e+00
    outer loop
        vertex -7.585295e+01 2.414814e+00 1.220000e+02
        vertex -7.585295e+01 2.414814e+00 1.270000e+02
        vertex -7.650000e+01 2.500000e+00 1.220000e+02
    endloop
endfacet
facet normal -1.305261e-01 -9.914449e-01 0.000000e+00
    outer loop
        vertex -7.585295e+01 2.414814e+00 1.270000e+02
        vertex -7.650000e+01 2.500000e+00 1.270000e+02
        vertex -7.650000e+01 2.500000e+00 1.220000e+02
    endloop
endfacet
facet normal 1.305261e-01 -9.914449e-01 0.000000e+00
    outer loop
        vertex -7.714705e+01 2.414814e+00 1.220000e+02
        vertex -7.650000e+01 2.500000e+00 1.220000e+02
        vertex -7.650000e+01 2.500000e+00 1.270000e+02
    endloop
endfacet
facet normal 1.305261e-01 -9.914449e-01 0.000000e+00
    outer loop
        vertex -7.714705e+01 2.414814e+00 1.220000e+02
        vertex -7.650000e+01 2.500000e+00 1.270000e+02
        vertex -7.714705e+01 2.414814e+00 1.270000e+02
    endloop
endfacet
facet normal 3.826842e-01 -9.238792e-01 0.000000e+00
    outer loop
        vertex -7.775000e+01 2.165063e+00 1.220000e+02
        vertex -7.714705e+01 2.414814e+00 1.220000e+02
        vertex -7.714705e+01 2.414814e+00 1.270000e+02
    endloop
endfacet
facet normal 3.826842e-01 -9.238792e-01 0.000000e+00
    outer loop
        vertex -7.775000e+01 2.165063e+00 1.220000e+02
        vertex -7.714705e+01 2.414814e+00 1.270000e+02
        vertex -7.775000e+01 2.165063e+00 1.270000e+02
    endloop
endfacet
facet normal 6.087599e-01 -7.933545e-01 0.000000e+00
    outer loop
        vertex -7.826777e+01 1.767767e+00 1.220000e+02
        vertex -7.775000e+01 2.165063e+00 1.220000e+02
        vertex -7.775000e+01 2.165063e+00 1.270000e+02
    endloop
endfacet
facet normal 6.087599e-01 -7.933545e-01 0.000000e+00
    outer loop
        vertex -7.826777e+01 1.767767e+00 1.220000e+02
        vertex -7.775000e+01 2.165063e+00 1.270000e+02
        vertex -7.826777e+01 1.767767e+00 1.270000e+02
    endloop
endfacet
facet normal 7.933559e-01 -6.087581e-01 0.000000e+00
    outer loop
        vertex -7.866506e+01 1.250000e+00 1.220000e+02
        vertex -7.826777e+01 1.767767e+00 1.220000e+02
        vertex -7.826777e+01 1.767767e+00 1.270000e+02
    endloop
endfacet
facet normal 7.933559e-01 -6.087581e-01 0.000000e+00
    outer loop
        vertex -7.866506e+01 1.250000e+00 1.220000e+02
        vertex -7.826777e+01 1.767767e+00 1.270000e+02
        vertex -7.866506e+01 1.250000e+00 1.270000e+02
    endloop
endfacet
facet normal 9.238769e-01 -3.826897e-01 0.000000e+00
    outer loop
        vertex -7.891482e+01 6.470476e-01 1.220000e+02
        vertex -7.866506e+01 1.250000e+00 1.220000e+02
        vertex -7.866506e+01 1.250000e+00 1.270000e+02
    endloop
endfacet
facet normal 9.238769e-01 -3.826897e-01 0.000000e+00
    outer loop
        vertex -7.891482e+01 6.470476e-01 1.220000e+02
        vertex -7.866506e+01 1.250000e+00 1.270000e+02
        vertex -7.891482e+01 6.470476e-01 1.270000e+02
    endloop
endfacet
facet normal 9.914455e-01 -1.305213e-01 0.000000e+00
    outer loop
        vertex -7.900000e+01 -1.776357e-15 1.220000e+02
        vertex -7.891482e+01 6.470476e-01 1.220000e+02
        vertex -7.891482e+01 6.470476e-01 1.270000e+02
    endloop
endfacet
facet normal 9.914455e-01 -1.305213e-01 6.955572e-17
    outer loop
        vertex -7.900000e+01 -1.776357e-15 1.220000e+02
        vertex -7.891482e+01 6.470476e-01 1.270000e+02
        vertex -7.900000e+01 8.881784e-16 1.270000e+02
    endloop
endfacet
facet normal 9.914455e-01 1.305213e-01 -7.017247e-17
    outer loop
        vertex -7.891482e+01 -6.470476e-01 1.220000e+02
        vertex -7.900000e+01 -1.776357e-15 1.220000e+02
        vertex -7.900000e+01 8.881784e-16 1.270000e+02
    endloop
endfacet
facet normal 9.914455e-01 1.305213e-01 -0.000000e+00
    outer loop
        vertex -7.891482e+01 -6.470476e-01 1.220000e+02
        vertex -7.900000e+01 8.881784e-16 1.270000e+02
        vertex -7.891482e+01 -6.470476e-01 1.270000e+02
    endloop
endfacet
facet normal 9.238769e-01 3.826897e-01 0.000000e+00
    outer loop
        vertex -7.866506e+01 -1.250000e+00 1.220000e+02
        vertex -7.891482e+01 -6.470476e-01 1.220000e+02
        vertex -7.891482e+01 -6.470476e-01 1.270000e+02
    endloop
endfacet
facet normal 9.238769e-01 3.826897e-01 -0.000000e+00
    outer loop
        vertex -7.866506e+01 -1.250000e+00 1.220000e+02
        vertex -7.891482e+01 -6.470476e-01 1.270000e+02
        vertex -7.866506e+01 -1.250000e+00 1.270000e+02
    endloop
endfacet
facet normal 7.933559e-01 6.087581e-01 0.000000e+00
    outer loop
        vertex -7.826777e+01 -1.767767e+00 1.220000e+02
        vertex -7.866506e+01 -1.250000e+00 1.220000e+02
        vertex -7.866506e+01 -1.250000e+00 1.270000e+02
    endloop
endfacet
facet normal 7.933559e-01 6.087581e-01 -0.000000e+00
    outer loop
        vertex -7.826777e+01 -1.767767e+00 1.220000e+02
        vertex -7.866506e+01 -1.250000e+00 1.270000e+02
        vertex -7.826777e+01 -1.767767e+00 1.270000e+02
    endloop
endfacet
facet normal 6.087599e-01 7.933545e-01 0.000000e+00
    outer loop
        vertex -7.775000e+01 -2.165063e+00 1.220000e+02
        vertex -7.826777e+01 -1.767767e+00 1.220000e+02
        vertex -7.826777e+01 -1.767767e+00 1.270000e+02
    endloop
endfacet
facet normal 6.087599e-01 7.933545e-01 -0.000000e+00
    outer loop
        vertex -7.775000e+01 -2.165063e+00 1.220000e+02
        vertex -7.826777e+01 -1.767767e+00 1.270000e+02
        vertex -7.775000e+01 -2.165063e+00 1.270000e+02
    endloop
endfacet
facet normal 3.826842e-01 9.238792e-01 0.000000e+00
    outer loop
        vertex -7.714705e+01 -2.414814e+00 1.220000e+02
        vertex -7.775000e+01 -2.165063e+00 1.220000e+02
        vertex -7.775000e+01 -2.165063e+00 1.270000e+02
    endloop
endfacet
facet normal 3.826842e-01 9.238792e-01 -0.000000e+00
    outer loop
        vertex -7.714705e+01 -2.414814e+00 1.220000e+02
        vertex -7.775000e+01 -2.165063e+00 1.270000e+02
        vertex -7.714705e+01 -2.414814e+00 1.270000e+02
    endloop
endfacet
facet normal 1.305261e-01 9.914449e-01 0.000000e+00
    outer loop
        vertex -7.650000e+01 -2.500000e+00 1.220000e+02
        vertex -7.714705e+01 -2.414814e+00 1.220000e+02
        vertex -7.714705e+01 -2.414814e+00 1.270000e+02
    endloop
endfacet
facet normal 1.305261e-01 9.914449e-01 -0.000000e+00
    outer loop
        vertex -7.650000e+01 -2.500000e+00 1.220000e+02
        vertex -7.714705e+01 -2.414814e+00 1.270000e+02
        vertex -7.650000e+01 -2.500000e+00 1.270000e+02
    endloop
endfacet
facet normal -1.305261e-01 9.914449e-01 0.000000e+00
    outer loop
        vertex -7.650000e+01 -2.500000e+00 1.220000e+02
        vertex -7.650000e+01 -2.500000e+00 1.270000e+02
        vertex -7.585295e+01 -2.414814e+00 1.220000e+02
    endloop
endfacet
facet normal -1.305261e-01 9.914449e-01 0.000000e+00
    outer loop
        vertex -7.650000e+01 -2.500000e+00 1.270000e+02
        vertex -7.585295e+01 -2.414814e+00 1.270000e+02
        vertex -7.585295e+01 -2.414814e+00 1.220000e+02
    endloop
endfacet
facet normal -3.826842e-01 9.238792e-01 0.000000e+00
    outer loop
        vertex -7.585295e+01 -2.414814e+00 1.220000e+02
        vertex -7.585295e+01 -2.414814e+00 1.270000e+02
        vertex -7.525000e+01 -2.165063e+00 1.220000e+02
    endloop
endfacet
facet normal -3.826842e-01 9.238792e-01 0.000000e+00
    outer loop
        vertex -7.585295e+01 -2.414814e+00 1.270000e+02
        vertex -7.525000e+01 -2.165063e+00 1.270000e+02
        vertex -7.525000e+01 -2.165063e+00 1.220000e+02
    endloop
endfacet
facet normal -6.087599e-01 7.933545e-01 0.000000e+00
    outer loop
        vertex -7.525000e+01 -2.165063e+00 1.220000e+02
        vertex -7.525000e+01 -2.165063e+00 1.270000e+02
        vertex -7.473223e+01 -1.767767e+00 1.220000e+02
    endloop
endfacet
facet normal -6.087599e-01 7.933545e-01 0.000000e+00
    outer loop
        vertex -7.525000e+01 -2.165063e+00 1.270000e+02
        vertex -7.473223e+01 -1.767767e+00 1.270000e+02
        vertex -7.473223e+01 -1.767767e+00 1.220000e+02
    endloop
endfacet
facet normal -7.933559e-01 6.087581e-01 0.000000e+00
    outer loop
        vertex -7.473223e+01 -1.767767e+00 1.220000e+02
        vertex -7.473223e+01 -1.767767e+00 1.270000e+02
        vertex -7.433494e+01 -1.250000e+00 1.220000e+02
    endloop
endfacet
facet normal -7.933559e-01 6.087581e-01 0.000000e+00
    outer loop
        vertex -7.473223e+01 -1.767767e+00 1.270000e+02
        vertex -7.433494e+01 -1.250000e+00 1.270000e+02
        vertex -7.433494e+01 -1.250000e+00 1.220000e+02
    endloop
endfacet
facet normal -9.238769e-01 3.826897e-01 0.000000e+00
    outer loop
        vertex -7.433494e+01 -1.250000e+00 1.220000e+02
        vertex -7.433494e+01 -1.250000e+00 1.270000e+02
        vertex -7.408518e+01 -6.470476e-01 1.220000e+02
    endloop
endfacet
facet normal -9.238769e-01 3.826897e-01 0.000000e+00
    outer loop
        vertex -7.433494e+01 -1.250000e+00 1.270000e+02
        vertex -7.408518e+01 -6.470476e-01 1.270000e+02
        vertex -7.408518e+01 -6.470476e-01 1.220000e+02
    endloop
endfacet
facet normal -9.914455e-01 1.305213e-01 0.000000e+00
    outer loop
        vertex -7.408518e+01 -6.470476e-01 1.220000e+02
        vertex -7.408518e+01 -6.470476e-01 1.270000e+02
        vertex -7.400000e+01 -3.552714e-15 1.220000e+02
    endloop
endfacet
facet normal -9.914455e-01 1.305213e-01 -9.356329e-17
    outer loop
        vertex -7.408518e+01 -6.470476e-01 1.270000e+02
        vertex -7.400000e+01 0.000000e+00 1.270000e+02
        vertex -7.400000e+01 -3.552714e-15 1.220000e+02
    endloop
endfacet
facet normal -9.914449e-01 -1.305256e-01 1.159300e-17
    outer loop
        vertex 1.050000e+01 0.000000e+00 1.220000e+02
        vertex 1.050000e+01 4.440892e-16 1.270000e+02
        vertex 1.041481e+01 6.470476e-01 1.220000e+02
    endloop
endfacet
facet normal -9.914449e-01 -1.305256e-01 0.000000e+00
    outer loop
        vertex 1.050000e+01 4.440892e-16 1.270000e+02
        vertex 1.041481e+01 6.470476e-01 1.270000e+02
        vertex 1.041481e+01 6.470476e-01 1.220000e+02
    endloop
endfacet
facet normal -9.238795e-01 -3.826835e-01 0.000000e+00
    outer loop
        vertex 1.041481e+01 6.470476e-01 1.220000e+02
        vertex 1.041481e+01 6.470476e-01 1.270000e+02
        vertex 1.016506e+01 1.250000e+00 1.220000e+02
    endloop
endfacet
facet normal -9.238795e-01 -3.826835e-01 0.000000e+00
    outer loop
        vertex 1.041481e+01 6.470476e-01 1.270000e+02
        vertex 1.016506e+01 1.250000e+00 1.270000e+02
        vertex 1.016506e+01 1.250000e+00 1.220000e+02
    endloop
endfacet
facet normal -7.933531e-01 -6.087618e-01 0.000000e+00
    outer loop
        vertex 1.016506e+01 1.250000e+00 1.220000e+02
        vertex 1.016506e+01 1.250000e+00 1.270000e+02
        vertex 9.767767e+00 1.767767e+00 1.220000e+02
    endloop
endfacet
facet normal -7.933531e-01 -6.087618e-01 0.000000e+00
    outer loop
        vertex 1.016506e+01 1.250000e+00 1.270000e+02
        vertex 9.767767e+00 1.767767e+00 1.270000e+02
        vertex 9.767767e+00 1.767767e+00 1.220000e+02
    endloop
endfacet
facet normal -6.087613e-01 -7.933534e-01 0.000000e+00
    outer loop
        vertex 9.767767e+00 1.767767e+00 1.220000e+02
        vertex 9.767767e+00 1.767767e+00 1.270000e+02
        vertex 9.250000e+00 2.165063e+00 1.220000e+02
    endloop
endfacet
facet normal -6.087613e-01 -7.933534e-01 0.000000e+00
    outer loop
        vertex 9.767767e+00 1.767767e+00 1.270000e+02
        vertex 9.250000e+00 2.165063e+00 1.270000e+02
        vertex 9.250000e+00 2.165063e+00 1.220000e+02
    endloop
endfacet
facet normal -3.826837e-01 -9.238794e-01 0.000000e+00
    outer loop
        vertex 9.250000e+00 2.165063e+00 1.220000e+02
        vertex 9.250000e+00 2.165063e+00 1.270000e+02
        vertex 8.647048e+00 2.414814e+00 1.220000e+02
    endloop
endfacet
facet normal -3.826837e-01 -9.238794e-01 0.000000e+00
    outer loop
        vertex 9.250000e+00 2.165063e+00 1.270000e+02
        vertex 8.647048e+00 2.414814e+00 1.270000e+02
        vertex 8.647048e+00 2.414814e+00 1.220000e+02
    endloop
endfacet
facet normal -1.305263e-01 -9.914448e-01 0.000000e+00
    outer loop
        vertex 8.647048e+00 2.414814e+00 1.220000e+02
        vertex 8.647048e+00 2.414814e+00 1.270000e+02
        vertex 8.000000e+00 2.500000e+00 1.220000e+02
    endloop
endfacet
facet normal -1.305263e-01 -9.914448e-01 0.000000e+00
    outer loop
        vertex 8.647048e+00 2.414814e+00 1.270000e+02
        vertex 8.000000e+00 2.500000e+00 1.270000e+02
        vertex 8.000000e+00 2.500000e+00 1.220000e+02
    endloop
endfacet
facet normal 1.305263e-01 -9.914448e-01 0.000000e+00
    outer loop
        vertex 7.352952e+00 2.414814e+00 1.220000e+02
        vertex 8.000000e+00 2.500000e+00 1.220000e+02
        vertex 8.000000e+00 2.500000e+00 1.270000e+02
    endloop
endfacet
facet normal 1.305263e-01 -9.914448e-01 0.000000e+00
    outer loop
        vertex 7.352952e+00 2.414814e+00 1.220000e+02
        vertex 8.000000e+00 2.500000e+00 1.270000e+02
        vertex 7.352952e+00 2.414814e+00 1.270000e+02
    endloop
endfacet
facet normal 3.826834e-01 -9.238796e-01 0.000000e+00
    outer loop
        vertex 6.750000e+00 2.165063e+00 1.220000e+02
        vertex 7.352952e+00 2.414814e+00 1.220000e+02
        vertex 7.352952e+00 2.414814e+00 1.270000e+02
    endloop
endfacet
facet normal 3.826834e-01 -9.238796e-01 0.000000e+00
    outer loop
        vertex 6.750000e+00 2.165063e+00 1.220000e+02
        vertex 7.352952e+00 2.414814e+00 1.270000e+02
        vertex 6.750000e+00 2.165063e+00 1.270000e+02
    endloop
endfacet
facet normal 6.087613e-01 -7.933534e-01 0.000000e+00
    outer loop
        vertex 6.232233e+00 1.767767e+00 1.220000e+02
        vertex 6.750000e+00 2.165063e+00 1.220000e+02
        vertex 6.750000e+00 2.165063e+00 1.270000e+02
    endloop
endfacet
facet normal 6.087613e-01 -7.933534e-01 0.000000e+00
    outer loop
        vertex 6.232233e+00 1.767767e+00 1.220000e+02
        vertex 6.750000e+00 2.165063e+00 1.270000e+02
        vertex 6.232233e+00 1.767767e+00 1.270000e+02
    endloop
endfacet
facet normal 7.933534e-01 -6.087613e-01 0.000000e+00
    outer loop
        vertex 5.834937e+00 1.250000e+00 1.220000e+02
        vertex 6.232233e+00 1.767767e+00 1.220000e+02
        vertex 6.232233e+00 1.767767e+00 1.270000e+02
    endloop
endfacet
facet normal 7.933534e-01 -6.087613e-01 0.000000e+00
    outer loop
        vertex 5.834937e+00 1.250000e+00 1.220000e+02
        vertex 6.232233e+00 1.767767e+00 1.270000e+02
        vertex 5.834937e+00 1.250000e+00 1.270000e+02
    endloop
endfacet
facet normal 9.238795e-01 -3.826835e-01 0.000000e+00
    outer loop
        vertex 5.585186e+00 6.470476e-01 1.220000e+02
        vertex 5.834937e+00 1.250000e+00 1.220000e+02
        vertex 5.834937e+00 1.250000e+00 1.270000e+02
    endloop
endfacet
facet normal 9.238795e-01 -3.826835e-01 0.000000e+00
    outer loop
        vertex 5.585186e+00 6.470476e-01 1.220000e+02
        vertex 5.834937e+00 1.250000e+00 1.270000e+02
        vertex 5.585186e+00 6.470476e-01 1.270000e+02
    endloop
endfacet
facet normal 9.914448e-01 -1.305263e-01 0.000000e+00
    outer loop
        vertex 5.500000e+00 0.000000e+00 1.220000e+02
        vertex 5.585186e+00 6.470476e-01 1.220000e+02
        vertex 5.585186e+00 6.470476e-01 1.270000e+02
    endloop
endfacet
facet normal 9.914448e-01 -1.305263e-01 1.159307e-17
    outer loop
        vertex 5.500000e+00 0.000000e+00 1.220000e+02
        vertex 5.585186e+00 6.470476e-01 1.270000e+02
        vertex 5.500000e+00 4.440892e-16 1.270000e+02
    endloop
endfacet
facet normal 9.914448e-01 1.305263e-01 -1.063219e-17
    outer loop
        vertex 5.585186e+00 -6.470476e-01 1.220000e+02
        vertex 5.500000e+00 0.000000e+00 1.220000e+02
        vertex 5.500000e+00 4.440892e-16 1.270000e+02
    endloop
endfacet
facet normal 9.914448e-01 1.305263e-01 -0.000000e+00
    outer loop
        vertex 5.585186e+00 -6.470476e-01 1.220000e+02
        vertex 5.500000e+00 4.440892e-16 1.270000e+02
        vertex 5.585186e+00 -6.470476e-01 1.270000e+02
    endloop
endfacet
facet normal 9.238795e-01 3.826835e-01 0.000000e+00
    outer loop
        vertex 5.834937e+00 -1.250000e+00 1.220000e+02
        vertex 5.585186e+00 -6.470476e-01 1.220000e+02
        vertex 5.585186e+00 -6.470476e-01 1.270000e+02
    endloop
endfacet
facet normal 9.238795e-01 3.826835e-01 -0.000000e+00
    outer loop
        vertex 5.834937e+00 -1.250000e+00 1.220000e+02
        vertex 5.585186e+00 -6.470476e-01 1.270000e+02
        vertex 5.834937e+00 -1.250000e+00 1.270000e+02
    endloop
endfacet
facet normal 7.933534e-01 6.087613e-01 0.000000e+00
    outer loop
        vertex 6.232233e+00 -1.767767e+00 1.220000e+02
        vertex 5.834937e+00 -1.250000e+00 1.220000e+02
        vertex 5.834937e+00 -1.250000e+00 1.270000e+02
    endloop
endfacet
facet normal 7.933534e-01 6.087613e-01 -0.000000e+00
    outer loop
        vertex 6.232233e+00 -1.767767e+00 1.220000e+02
        vertex 5.834937e+00 -1.250000e+00 1.270000e+02
        vertex 6.232233e+00 -1.767767e+00 1.270000e+02
    endloop
endfacet
facet normal 6.087613e-01 7.933534e-01 0.000000e+00
    outer loop
        vertex 6.750000e+00 -2.165063e+00 1.220000e+02
        vertex 6.232233e+00 -1.767767e+00 1.220000e+02
        vertex 6.232233e+00 -1.767767e+00 1.270000e+02
    endloop
endfacet
facet normal 6.087613e-01 7.933534e-01 -0.000000e+00
    outer loop
        vertex 6.750000e+00 -2.165063e+00 1.220000e+02
        vertex 6.232233e+00 -1.767767e+00 1.270000e+02
        vertex 6.750000e+00 -2.165063e+00 1.270000e+02
    endloop
endfacet
facet normal 3.826834e-01 9.238796e-01 0.000000e+00
    outer loop
        vertex 7.352952e+00 -2.414814e+00 1.220000e+02
        vertex 6.750000e+00 -2.165063e+00 1.220000e+02
        vertex 6.750000e+00 -2.165063e+00 1.270000e+02
    endloop
endfacet
facet normal 3.826834e-01 9.238796e-01 -0.000000e+00
    outer loop
        vertex 7.352952e+00 -2.414814e+00 1.220000e+02
        vertex 6.750000e+00 -2.165063e+00 1.270000e+02
        vertex 7.352952e+00 -2.414814e+00 1.270000e+02
    endloop
endfacet
facet normal 1.305263e-01 9.914448e-01 0.000000e+00
    outer loop
        vertex 8.000000e+00 -2.500000e+00 1.220000e+02
        vertex 7.352952e+00 -2.414814e+00 1.220000e+02
        vertex 7.352952e+00 -2.414814e+00 1.270000e+02
    endloop
endfacet
facet normal 1.305263e-01 9.914448e-01 -0.000000e+00
    outer loop
        vertex 8.000000e+00 -2.500000e+00 1.220000e+02
        vertex 7.352952e+00 -2.414814e+00 1.270000e+02
        vertex 8.000000e+00 -2.500000e+00 1.270000e+02
    endloop
endfacet
facet normal -1.305263e-01 9.914448e-01 0.000000e+00
    outer loop
        vertex 8.000000e+00 -2.500000e+00 1.220000e+02
        vertex 8.000000e+00 -2.500000e+00 1.270000e+02
        vertex 8.647048e+00 -2.414814e+00 1.220000e+02
    endloop
endfacet
facet normal -1.305263e-01 9.914448e-01 0.000000e+00
    outer loop
        vertex 8.000000e+00 -2.500000e+00 1.270000e+02
        vertex 8.647048e+00 -2.414814e+00 1.270000e+02
        vertex 8.647048e+00 -2.414814e+00 1.220000e+02
    endloop
endfacet
facet normal -3.826837e-01 9.238794e-01 0.000000e+00
    outer loop
        vertex 8.647048e+00 -2.414814e+00 1.220000e+02
        vertex 8.647048e+00 -2.414814e+00 1.270000e+02
        vertex 9.250000e+00 -2.165063e+00 1.220000e+02
    endloop
endfacet
facet normal -3.826837e-01 9.238794e-01 0.000000e+00
    outer loop
        vertex 8.647048e+00 -2.414814e+00 1.270000e+02
        vertex 9.250000e+00 -2.165063e+00 1.270000e+02
        vertex 9.250000e+00 -2.165063e+00 1.220000e+02
    endloop
endfacet
facet normal -6.087613e-01 7.933534e-01 0.000000e+00
    outer loop
        vertex 9.250000e+00 -2.165063e+00 1.220000e+02
        vertex 9.250000e+00 -2.165063e+00 1.270000e+02
        vertex 9.767767e+00 -1.767767e+00 1.220000e+02
    endloop
endfacet
facet normal -6.087613e-01 7.933534e-01 0.000000e+00
    outer loop
        vertex 9.250000e+00 -2.165063e+00 1.270000e+02
        vertex 9.767767e+00 -1.767767e+00 1.270000e+02
        vertex 9.767767e+00 -1.767767e+00 1.220000e+02
    endloop
endfacet
facet normal -7.933531e-01 6.087618e-01 0.000000e+00
    outer loop
        vertex 9.767767e+00 -1.767767e+00 1.220000e+02
        vertex 9.767767e+00 -1.767767e+00 1.270000e+02
        vertex 1.016506e+01 -1.250000e+00 1.220000e+02
    endloop
endfacet
facet normal -7.933531e-01 6.087618e-01 0.000000e+00
    outer loop
        vertex 9.767767e+00 -1.767767e+00 1.270000e+02
        vertex 1.016506e+01 -1.250000e+00 1.270000e+02
        vertex 1.016506e+01 -1.250000e+00 1.220000e+02
    endloop
endfacet
facet normal -9.238795e-01 3.826835e-01 0.000000e+00
    outer loop
        vertex 1.016506e+01 -1.250000e+00 1.220000e+02
        vertex 1.016506e+01 -1.250000e+00 1.270000e+02
        vertex 1.041481e+01 -6.470476e-01 1.220000e+02
    endloop
endfacet
facet normal -9.238795e-01 3.826835e-01 0.000000e+00
    outer loop
        vertex 1.016506e+01 -1.250000e+00 1.270000e+02
        vertex 1.041481e+01 -6.470476e-01 1.270000e+02
        vertex 1.041481e+01 -6.470476e-01 1.220000e+02
    endloop
endfacet
facet normal -9.914449e-01 1.305256e-01 0.000000e+00
    outer loop
        vertex 1.041481e+01 -6.470476e-01 1.220000e+02
        vertex 1.041481e+01 -6.470476e-01 1.270000e+02
        vertex 1.050000e+01 0.000000e+00 1.220000e+02
    endloop
endfacet
facet normal -9.914449e-01 1.305256e-01 -1.063219e-17
    outer loop
        vertex 1.041481e+01 -6.470476e-01 1.270000e+02
        vertex 1.050000e+01 4.440892e-16 1.270000e+02
        vertex 1.050000e+01 0.000000e+00 1.220000e+02
    endloop
endfacet
endsolid picatinny-rail-riser.stl
