solid pusher.stl
facet normal 0.000000e+00 -9.524240e-01 3.047760e-01
    outer loop
        vertex 3.450000e+01 -5.500000e+00 7.050000e+01
        vertex 3.900000e+01 -5.500000e+00 7.050000e+01
        vertex 3.900000e+01 -3.100000e+00 7.799999e+01
    endloop
endfacet
facet normal 0.000000e+00 -9.617224e-01 2.740256e-01
    outer loop
        vertex 3.450000e+01 -3.527396e+00 7.650000e+01
        vertex 3.900000e+01 -3.100000e+00 7.799999e+01
        vertex 3.450000e+01 -3.100000e+00 7.799999e+01
    endloop
endfacet
facet normal -1.387939e-02 -9.498850e-01 3.122912e-01
    outer loop
        vertex 3.450000e+01 -5.500000e+00 7.050000e+01
        vertex 3.900000e+01 -3.100000e+00 7.799999e+01
        vertex 3.450000e+01 -3.527396e+00 7.650000e+01
    endloop
endfacet
facet normal -0.000000e+00 9.524240e-01 3.047760e-01
    outer loop
        vertex 3.450000e+01 5.500000e+00 7.050000e+01
        vertex 3.900000e+01 3.100000e+00 7.799999e+01
        vertex 3.900000e+01 5.500000e+00 7.050000e+01
    endloop
endfacet
facet normal 0.000000e+00 9.617224e-01 2.740256e-01
    outer loop
        vertex 3.450000e+01 3.527396e+00 7.650000e+01
        vertex 3.450000e+01 3.100000e+00 7.799999e+01
        vertex 3.900000e+01 3.100000e+00 7.799999e+01
    endloop
endfacet
facet normal -1.387939e-02 9.498850e-01 3.122912e-01
    outer loop
        vertex 3.450000e+01 5.500000e+00 7.050000e+01
        vertex 3.450000e+01 3.527396e+00 7.650000e+01
        vertex 3.900000e+01 3.100000e+00 7.799999e+01
    endloop
endfacet
facet normal 0.000000e+00 0.000000e+00 -1.000000e+00
    outer loop
        vertex 9.600000e+01 -2.800000e+01 7.050000e+01
        vertex 8.650000e+01 -2.410000e+01 7.050000e+01
        vertex 9.350000e+01 -2.410000e+01 7.050000e+01
    endloop
endfacet
facet normal 0.000000e+00 0.000000e+00 -1.000000e+00
    outer loop
        vertex 9.500000e+01 -2.900000e+01 7.050000e+01
        vertex 8.650000e+01 -2.410000e+01 7.050000e+01
        vertex 9.600000e+01 -2.800000e+01 7.050000e+01
    endloop
endfacet
facet normal 0.000000e+00 0.000000e+00 -1.000000e+00
    outer loop
        vertex 8.500000e+01 -2.900000e+01 7.050000e+01
        vertex 8.650000e+01 -2.410000e+01 7.050000e+01
        vertex 9.500000e+01 -2.900000e+01 7.050000e+01
    endloop
endfacet
facet normal 0.000000e+00 0.000000e+00 -1.000000e+00
    outer loop
        vertex 8.500000e+01 -2.900000e+01 7.050000e+01
        vertex 8.400000e+01 -2.800000e+01 7.050000e+01
        vertex 8.650000e+01 -2.410000e+01 7.050000e+01
    endloop
endfacet
facet normal 0.000000e+00 0.000000e+00 -1.000000e+00
    outer loop
        vertex 8.400000e+01 2.800000e+01 7.050000e+01
        vertex 8.500000e+01 2.900000e+01 7.050000e+01
        vertex 9.500000e+01 2.900000e+01 7.050000e+01
    endloop
endfacet
facet normal 0.000000e+00 0.000000e+00 -1.000000e+00
    outer loop
        vertex 8.400000e+01 2.800000e+01 7.050000e+01
        vertex 9.500000e+01 2.900000e+01 7.050000e+01
        vertex 9.600000e+01 2.800000e+01 7.050000e+01
    endloop
endfacet
facet normal 0.000000e+00 0.000000e+00 -1.000000e+00
    outer loop
        vertex 8.400000e+01 -2.800000e+01 7.050000e+01
        vertex 8.400000e+01 2.800000e+01 7.050000e+01
        vertex 8.650000e+01 -2.410000e+01 7.050000e+01
    endloop
endfacet
facet normal 0.000000e+00 0.000000e+00 -1.000000e+00
    outer loop
        vertex 9.600000e+01 -2.800000e+01 7.050000e+01
        vertex 9.350000e+01 -2.410000e+01 7.050000e+01
        vertex 9.600000e+01 2.800000e+01 7.050000e+01
    endloop
endfacet
facet normal 0.000000e+00 0.000000e+00 -1.000000e+00
    outer loop
        vertex 9.350000e+01 -2.410000e+01 7.050000e+01
        vertex 9.350000e+01 2.410000e+01 7.050000e+01
        vertex 9.600000e+01 2.800000e+01 7.050000e+01
    endloop
endfacet
facet normal 0.000000e+00 0.000000e+00 -1.000000e+00
    outer loop
        vertex 9.350000e+01 2.410000e+01 7.050000e+01
        vertex 8.400000e+01 2.800000e+01 7.050000e+01
        vertex 9.600000e+01 2.800000e+01 7.050000e+01
    endloop
endfacet
facet normal 0.000000e+00 0.000000e+00 -1.000000e+00
    outer loop
        vertex 8.650000e+01 2.410000e+01 7.050000e+01
        vertex 8.400000e+01 2.800000e+01 7.050000e+01
        vertex 9.350000e+01 2.410000e+01 7.050000e+01
    endloop
endfacet
facet normal 0.000000e+00 0.000000e+00 -1.000000e+00
    outer loop
        vertex 8.650000e+01 -2.410000e+01 7.050000e+01
        vertex 8.400000e+01 2.800000e+01 7.050000e+01
        vertex 8.650000e+01 2.410000e+01 7.050000e+01
    endloop
endfacet
facet normal 0.000000e+00 0.000000e+00 1.000000e+00
    outer loop
        vertex 9.600000e+01 -2.800000e+01 7.750000e+01
        vertex 9.350000e+01 -2.410000e+01 7.750000e+01
        vertex 8.650000e+01 -2.410000e+01 7.750000e+01
    endloop
endfacet
facet normal 0.000000e+00 -0.000000e+00 1.000000e+00
    outer loop
        vertex 9.500000e+01 -2.900000e+01 7.750000e+01
        vertex 9.600000e+01 -2.800000e+01 7.750000e+01
        vertex 8.650000e+01 -2.410000e+01 7.750000e+01
    endloop
endfacet
facet normal 0.000000e+00 0.000000e+00 1.000000e+00
    outer loop
        vertex 8.500000e+01 -2.900000e+01 7.750000e+01
        vertex 9.500000e+01 -2.900000e+01 7.750000e+01
        vertex 8.650000e+01 -2.410000e+01 7.750000e+01
    endloop
endfacet
facet normal 0.000000e+00 -0.000000e+00 1.000000e+00
    outer loop
        vertex 8.500000e+01 -2.900000e+01 7.750000e+01
        vertex 8.650000e+01 -2.410000e+01 7.750000e+01
        vertex 8.400000e+01 -2.800000e+01 7.750000e+01
    endloop
endfacet
facet normal 0.000000e+00 0.000000e+00 1.000000e+00
    outer loop
        vertex 9.600000e+01 2.800000e+01 7.750000e+01
        vertex 9.500000e+01 2.900000e+01 7.750000e+01
        vertex 8.500000e+01 2.900000e+01 7.750000e+01
    endloop
endfacet
facet normal 0.000000e+00 0.000000e+00 1.000000e+00
    outer loop
        vertex 8.400000e+01 2.800000e+01 7.750000e+01
        vertex 9.600000e+01 2.800000e+01 7.750000e+01
        vertex 8.500000e+01 2.900000e+01 7.750000e+01
    endloop
endfacet
facet normal 0.000000e+00 0.000000e+00 1.000000e+00
    outer loop
        vertex 8.400000e+01 -2.800000e+01 7.750000e+01
        vertex 8.650000e+01 -2.410000e+01 7.750000e+01
        vertex 8.400000e+01 2.800000e+01 7.750000e+01
    endloop
endfacet
facet normal 0.000000e+00 -0.000000e+00 1.000000e+00
    outer loop
        vertex 9.600000e+01 -2.800000e+01 7.750000e+01
        vertex 9.600000e+01 2.800000e+01 7.750000e+01
        vertex 9.350000e+01 -2.410000e+01 7.750000e+01
    endloop
endfacet
facet normal 0.000000e+00 -0.000000e+00 1.000000e+00
    outer loop
        vertex 8.650000e+01 -2.410000e+01 7.750000e+01
        vertex 8.650000e+01 2.410000e+01 7.750000e+01
        vertex 8.400000e+01 2.800000e+01 7.750000e+01
    endloop
endfacet
facet normal 0.000000e+00 -0.000000e+00 1.000000e+00
    outer loop
        vertex 8.650000e+01 2.410000e+01 7.750000e+01
        vertex 9.600000e+01 2.800000e+01 7.750000e+01
        vertex 8.400000e+01 2.800000e+01 7.750000e+01
    endloop
endfacet
facet normal 0.000000e+00 0.000000e+00 1.000000e+00
    outer loop
        vertex 8.650000e+01 2.410000e+01 7.750000e+01
        vertex 9.350000e+01 2.410000e+01 7.750000e+01
        vertex 9.600000e+01 2.800000e+01 7.750000e+01
    endloop
endfacet
facet normal 0.000000e+00 0.000000e+00 1.000000e+00
    outer loop
        vertex 9.350000e+01 -2.410000e+01 7.750000e+01
        vertex 9.600000e+01 2.800000e+01 7.750000e+01
        vertex 9.350000e+01 2.410000e+01 7.750000e+01
    endloop
endfacet
facet normal 0.000000e+00 0.000000e+00 1.000000e+00
    outer loop
        vertex 3.650000e+01 -3.000000e+00 7.750000e+01
        vertex 8.400000e+01 -3.000000e+00 7.750000e+01
        vertex 3.650000e+01 3.000000e+00 7.750000e+01
    endloop
endfacet
facet normal 0.000000e+00 -0.000000e+00 1.000000e+00
    outer loop
        vertex 8.400000e+01 -3.000000e+00 7.750000e+01
        vertex 8.400000e+01 3.000000e+00 7.750000e+01
        vertex 3.650000e+01 3.000000e+00 7.750000e+01
    endloop
endfacet
facet normal 0.000000e+00 -9.615240e-01 2.747211e-01
    outer loop
        vertex 8.400000e+01 -5.000000e+00 7.050000e+01
        vertex 8.400000e+01 -3.000000e+00 7.750000e+01
        vertex 3.650000e+01 -3.000000e+00 7.750000e+01
    endloop
endfacet
facet normal 0.000000e+00 -9.615240e-01 2.747211e-01
    outer loop
        vertex 3.650000e+01 -5.000000e+00 7.050000e+01
        vertex 8.400000e+01 -5.000000e+00 7.050000e+01
        vertex 3.650000e+01 -3.000000e+00 7.750000e+01
    endloop
endfacet
facet normal 0.000000e+00 9.615240e-01 2.747211e-01
    outer loop
        vertex 8.400000e+01 3.000000e+00 7.750000e+01
        vertex 8.400000e+01 5.000000e+00 7.050000e+01
        vertex 3.650000e+01 5.000000e+00 7.050000e+01
    endloop
endfacet
facet normal -0.000000e+00 9.615240e-01 2.747211e-01
    outer loop
        vertex 3.650000e+01 3.000000e+00 7.750000e+01
        vertex 8.400000e+01 3.000000e+00 7.750000e+01
        vertex 3.650000e+01 5.000000e+00 7.050000e+01
    endloop
endfacet
facet normal -1.000000e+00 0.000000e+00 0.000000e+00
    outer loop
        vertex 8.400000e+01 5.000000e+00 7.050000e+01
        vertex 8.400000e+01 2.800000e+01 7.750000e+01
        vertex 8.400000e+01 2.800000e+01 7.050000e+01
    endloop
endfacet
facet normal -1.000000e+00 0.000000e+00 0.000000e+00
    outer loop
        vertex 8.400000e+01 3.000000e+00 7.750000e+01
        vertex 8.400000e+01 2.800000e+01 7.750000e+01
        vertex 8.400000e+01 5.000000e+00 7.050000e+01
    endloop
endfacet
facet normal -1.000000e+00 0.000000e+00 0.000000e+00
    outer loop
        vertex 8.400000e+01 -2.800000e+01 7.050000e+01
        vertex 8.400000e+01 -2.800000e+01 7.750000e+01
        vertex 8.400000e+01 2.800000e+01 7.050000e+01
    endloop
endfacet
facet normal -1.000000e+00 0.000000e+00 0.000000e+00
    outer loop
        vertex 8.400000e+01 -2.800000e+01 7.750000e+01
        vertex 8.400000e+01 2.800000e+01 7.750000e+01
        vertex 8.400000e+01 2.800000e+01 7.050000e+01
    endloop
endfacet
facet normal 0.000000e+00 0.000000e+00 0.000000e+00
    outer loop
        vertex 8.400000e+01 -3.000000e+00 7.750000e+01
        vertex 8.400000e+01 2.800000e+01 7.750000e+01
        vertex 8.400000e+01 3.000000e+00 7.750000e+01
    endloop
endfacet
facet normal 1.000000e+00 -0.000000e+00 0.000000e+00
    outer loop
        vertex 8.400000e+01 -3.000000e+00 7.750000e+01
        vertex 8.400000e+01 2.800000e+01 7.050000e+01
        vertex 8.400000e+01 2.800000e+01 7.750000e+01
    endloop
endfacet
facet normal 1.000000e+00 0.000000e+00 0.000000e+00
    outer loop
        vertex 8.400000e+01 -5.000000e+00 7.050000e+01
        vertex 8.400000e+01 2.800000e+01 7.050000e+01
        vertex 8.400000e+01 -3.000000e+00 7.750000e+01
    endloop
endfacet
facet normal -1.000000e+00 0.000000e+00 0.000000e+00
    outer loop
        vertex 3.450000e+01 -3.000000e+00 7.220000e+01
        vertex 3.450000e+01 -2.000000e+00 7.610000e+01
        vertex 3.450000e+01 3.000000e+00 7.220000e+01
    endloop
endfacet
facet normal -1.000000e+00 0.000000e+00 0.000000e+00
    outer loop
        vertex 3.450000e+01 -2.000000e+00 7.610000e+01
        vertex 3.450000e+01 2.000000e+00 7.610000e+01
        vertex 3.450000e+01 3.000000e+00 7.220000e+01
    endloop
endfacet
facet normal 1.000000e+00 0.000000e+00 0.000000e+00
    outer loop
        vertex 8.650000e+01 -2.410000e+01 7.050000e+01
        vertex 8.650000e+01 2.410000e+01 7.050000e+01
        vertex 8.650000e+01 2.410000e+01 7.750000e+01
    endloop
endfacet
facet normal 1.000000e+00 0.000000e+00 0.000000e+00
    outer loop
        vertex 8.650000e+01 -2.410000e+01 7.050000e+01
        vertex 8.650000e+01 2.410000e+01 7.750000e+01
        vertex 8.650000e+01 -2.410000e+01 7.750000e+01
    endloop
endfacet
facet normal 0.000000e+00 -1.000000e+00 0.000000e+00
    outer loop
        vertex 8.650000e+01 2.410000e+01 7.050000e+01
        vertex 9.350000e+01 2.410000e+01 7.050000e+01
        vertex 9.350000e+01 2.410000e+01 7.750000e+01
    endloop
endfacet
facet normal 0.000000e+00 -1.000000e+00 0.000000e+00
    outer loop
        vertex 8.650000e+01 2.410000e+01 7.050000e+01
        vertex 9.350000e+01 2.410000e+01 7.750000e+01
        vertex 8.650000e+01 2.410000e+01 7.750000e+01
    endloop
endfacet
facet normal -1.000000e+00 0.000000e+00 0.000000e+00
    outer loop
        vertex 9.350000e+01 -2.410000e+01 7.050000e+01
        vertex 9.350000e+01 -2.410000e+01 7.750000e+01
        vertex 9.350000e+01 2.410000e+01 7.050000e+01
    endloop
endfacet
facet normal -1.000000e+00 0.000000e+00 0.000000e+00
    outer loop
        vertex 9.350000e+01 -2.410000e+01 7.750000e+01
        vertex 9.350000e+01 2.410000e+01 7.750000e+01
        vertex 9.350000e+01 2.410000e+01 7.050000e+01
    endloop
endfacet
facet normal 0.000000e+00 1.000000e+00 0.000000e+00
    outer loop
        vertex 8.650000e+01 -2.410000e+01 7.050000e+01
        vertex 8.650000e+01 -2.410000e+01 7.750000e+01
        vertex 9.350000e+01 -2.410000e+01 7.050000e+01
    endloop
endfacet
facet normal 0.000000e+00 1.000000e+00 -0.000000e+00
    outer loop
        vertex 9.350000e+01 -2.410000e+01 7.050000e+01
        vertex 8.650000e+01 -2.410000e+01 7.750000e+01
        vertex 9.350000e+01 -2.410000e+01 7.750000e+01
    endloop
endfacet
facet normal 0.000000e+00 1.000000e+00 0.000000e+00
    outer loop
        vertex 8.500000e+01 2.900000e+01 7.050000e+01
        vertex 8.500000e+01 2.900000e+01 7.750000e+01
        vertex 9.500000e+01 2.900000e+01 7.050000e+01
    endloop
endfacet
facet normal 0.000000e+00 1.000000e+00 -0.000000e+00
    outer loop
        vertex 9.500000e+01 2.900000e+01 7.050000e+01
        vertex 8.500000e+01 2.900000e+01 7.750000e+01
        vertex 9.500000e+01 2.900000e+01 7.750000e+01
    endloop
endfacet
facet normal 1.000000e+00 0.000000e+00 0.000000e+00
    outer loop
        vertex 9.600000e+01 -2.800000e+01 7.050000e+01
        vertex 9.600000e+01 2.800000e+01 7.050000e+01
        vertex 9.600000e+01 -2.800000e+01 7.750000e+01
    endloop
endfacet
facet normal 1.000000e+00 -0.000000e+00 0.000000e+00
    outer loop
        vertex 9.600000e+01 -2.800000e+01 7.750000e+01
        vertex 9.600000e+01 2.800000e+01 7.050000e+01
        vertex 9.600000e+01 2.800000e+01 7.750000e+01
    endloop
endfacet
facet normal 0.000000e+00 -1.000000e+00 0.000000e+00
    outer loop
        vertex 8.500000e+01 -2.900000e+01 7.050000e+01
        vertex 9.500000e+01 -2.900000e+01 7.050000e+01
        vertex 8.500000e+01 -2.900000e+01 7.750000e+01
    endloop
endfacet
facet normal 0.000000e+00 -1.000000e+00 0.000000e+00
    outer loop
        vertex 9.500000e+01 -2.900000e+01 7.050000e+01
        vertex 9.500000e+01 -2.900000e+01 7.750000e+01
        vertex 8.500000e+01 -2.900000e+01 7.750000e+01
    endloop
endfacet
facet normal 0.000000e+00 0.000000e+00 -1.000000e+00
    outer loop
        vertex 3.650000e+01 -5.000000e+00 7.050000e+01
        vertex 8.400000e+01 5.000000e+00 7.050000e+01
        vertex 8.400000e+01 -5.000000e+00 7.050000e+01
    endloop
endfacet
facet normal 0.000000e+00 0.000000e+00 -1.000000e+00
    outer loop
        vertex 3.650000e+01 -5.000000e+00 7.050000e+01
        vertex 3.650000e+01 5.000000e+00 7.050000e+01
        vertex 8.400000e+01 5.000000e+00 7.050000e+01
    endloop
endfacet
facet normal -6.476477e-01 0.000000e+00 -7.619399e-01
    outer loop
        vertex 3.650000e+01 -5.000000e+00 7.050000e+01
        vertex 3.450000e+01 -3.000000e+00 7.220000e+01
        vertex 3.650000e+01 5.000000e+00 7.050000e+01
    endloop
endfacet
facet normal -6.476477e-01 0.000000e+00 -7.619399e-01
    outer loop
        vertex 3.450000e+01 -3.000000e+00 7.220000e+01
        vertex 3.450000e+01 3.000000e+00 7.220000e+01
        vertex 3.650000e+01 5.000000e+00 7.050000e+01
    endloop
endfacet
facet normal -5.734628e-01 0.000000e+00 8.192316e-01
    outer loop
        vertex 3.650000e+01 -3.000000e+00 7.750000e+01
        vertex 3.450000e+01 2.000000e+00 7.610000e+01
        vertex 3.450000e+01 -2.000000e+00 7.610000e+01
    endloop
endfacet
facet normal -5.734628e-01 0.000000e+00 8.192316e-01
    outer loop
        vertex 3.650000e+01 -3.000000e+00 7.750000e+01
        vertex 3.650000e+01 3.000000e+00 7.750000e+01
        vertex 3.450000e+01 2.000000e+00 7.610000e+01
    endloop
endfacet
facet normal -7.071068e-01 7.071068e-01 0.000000e+00
    outer loop
        vertex 8.400000e+01 2.800000e+01 7.050000e+01
        vertex 8.400000e+01 2.800000e+01 7.750000e+01
        vertex 8.500000e+01 2.900000e+01 7.050000e+01
    endloop
endfacet
facet normal -7.071068e-01 7.071068e-01 0.000000e+00
    outer loop
        vertex 8.400000e+01 2.800000e+01 7.750000e+01
        vertex 8.500000e+01 2.900000e+01 7.750000e+01
        vertex 8.500000e+01 2.900000e+01 7.050000e+01
    endloop
endfacet
facet normal 7.071068e-01 7.071068e-01 -0.000000e+00
    outer loop
        vertex 9.600000e+01 2.800000e+01 7.050000e+01
        vertex 9.500000e+01 2.900000e+01 7.050000e+01
        vertex 9.600000e+01 2.800000e+01 7.750000e+01
    endloop
endfacet
facet normal 7.071068e-01 7.071068e-01 0.000000e+00
    outer loop
        vertex 9.600000e+01 2.800000e+01 7.750000e+01
        vertex 9.500000e+01 2.900000e+01 7.050000e+01
        vertex 9.500000e+01 2.900000e+01 7.750000e+01
    endloop
endfacet
facet normal -7.071068e-01 -7.071068e-01 0.000000e+00
    outer loop
        vertex 8.500000e+01 -2.900000e+01 7.050000e+01
        vertex 8.400000e+01 -2.800000e+01 7.750000e+01
        vertex 8.400000e+01 -2.800000e+01 7.050000e+01
    endloop
endfacet
facet normal -7.071068e-01 -7.071068e-01 0.000000e+00
    outer loop
        vertex 8.500000e+01 -2.900000e+01 7.050000e+01
        vertex 8.500000e+01 -2.900000e+01 7.750000e+01
        vertex 8.400000e+01 -2.800000e+01 7.750000e+01
    endloop
endfacet
facet normal 7.071068e-01 -7.071068e-01 0.000000e+00
    outer loop
        vertex 9.500000e+01 -2.900000e+01 7.050000e+01
        vertex 9.600000e+01 -2.800000e+01 7.050000e+01
        vertex 9.600000e+01 -2.800000e+01 7.750000e+01
    endloop
endfacet
facet normal 7.071068e-01 -7.071068e-01 0.000000e+00
    outer loop
        vertex 9.500000e+01 -2.900000e+01 7.050000e+01
        vertex 9.600000e+01 -2.800000e+01 7.750000e+01
        vertex 9.500000e+01 -2.900000e+01 7.750000e+01
    endloop
endfacet
facet normal -6.038423e-01 -7.721257e-01 1.979809e-01
    outer loop
        vertex 3.650000e+01 -5.000000e+00 7.050000e+01
        vertex 3.450000e+01 -2.000000e+00 7.610000e+01
        vertex 3.450000e+01 -3.000000e+00 7.220000e+01
    endloop
endfacet
facet normal -5.583707e-01 -7.976722e-01 2.279063e-01
    outer loop
        vertex 3.650000e+01 -5.000000e+00 7.050000e+01
        vertex 3.650000e+01 -3.000000e+00 7.750000e+01
        vertex 3.450000e+01 -2.000000e+00 7.610000e+01
    endloop
endfacet
facet normal -5.583707e-01 7.976722e-01 2.279063e-01
    outer loop
        vertex 3.450000e+01 2.000000e+00 7.610000e+01
        vertex 3.650000e+01 3.000000e+00 7.750000e+01
        vertex 3.650000e+01 5.000000e+00 7.050000e+01
    endloop
endfacet
facet normal -6.038423e-01 7.721257e-01 1.979809e-01
    outer loop
        vertex 3.450000e+01 2.000000e+00 7.610000e+01
        vertex 3.650000e+01 5.000000e+00 7.050000e+01
        vertex 3.450000e+01 3.000000e+00 7.220000e+01
    endloop
endfacet
endsolid pusher.stl
