solid pusher.stl
facet normal -1.000000e+00 0.000000e+00 0.000000e+00
    outer loop
        vertex 8.400000e+01 -2.300000e+01 7.055000e+01
        vertex 8.400000e+01 2.300000e+01 7.745000e+01
        vertex 8.400000e+01 2.300000e+01 7.055000e+01
    endloop
endfacet
facet normal -1.000000e+00 0.000000e+00 0.000000e+00
    outer loop
        vertex 8.400000e+01 -2.300000e+01 7.055000e+01
        vertex 8.400000e+01 -2.300000e+01 7.745000e+01
        vertex 8.400000e+01 2.300000e+01 7.745000e+01
    endloop
endfacet
facet normal 1.000000e+00 -0.000000e+00 0.000000e+00
    outer loop
        vertex 9.600000e+01 -2.300000e+01 7.745000e+01
        vertex 9.600000e+01 2.300000e+01 7.055000e+01
        vertex 9.600000e+01 2.300000e+01 7.745000e+01
    endloop
endfacet
facet normal 1.000000e+00 0.000000e+00 0.000000e+00
    outer loop
        vertex 9.600000e+01 -2.300000e+01 7.055000e+01
        vertex 9.600000e+01 2.300000e+01 7.055000e+01
        vertex 9.600000e+01 -2.300000e+01 7.745000e+01
    endloop
endfacet
facet normal -1.000000e+00 0.000000e+00 0.000000e+00
    outer loop
        vertex 9.350000e+01 -2.220000e+01 7.055000e+01
        vertex 9.350000e+01 2.200000e+01 7.745000e+01
        vertex 9.350000e+01 2.200000e+01 7.055000e+01
    endloop
endfacet
facet normal -1.000000e+00 0.000000e+00 0.000000e+00
    outer loop
        vertex 9.350000e+01 -2.220000e+01 7.055000e+01
        vertex 9.350000e+01 -2.220000e+01 7.745000e+01
        vertex 9.350000e+01 2.200000e+01 7.745000e+01
    endloop
endfacet
facet normal 1.000000e+00 -0.000000e+00 0.000000e+00
    outer loop
        vertex 8.650000e+01 -2.220000e+01 7.745000e+01
        vertex 8.650000e+01 2.200000e+01 7.055000e+01
        vertex 8.650000e+01 2.200000e+01 7.745000e+01
    endloop
endfacet
facet normal 1.000000e+00 0.000000e+00 0.000000e+00
    outer loop
        vertex 8.650000e+01 -2.220000e+01 7.055000e+01
        vertex 8.650000e+01 2.200000e+01 7.055000e+01
        vertex 8.650000e+01 -2.220000e+01 7.745000e+01
    endloop
endfacet
facet normal 0.000000e+00 0.000000e+00 1.000000e+00
    outer loop
        vertex 9.350000e+01 0.000000e+00 7.745000e+01
        vertex 9.600000e+01 0.000000e+00 7.745000e+01
        vertex 9.350000e+01 2.200000e+01 7.745000e+01
    endloop
endfacet
facet normal 0.000000e+00 -0.000000e+00 1.000000e+00
    outer loop
        vertex 9.600000e+01 0.000000e+00 7.745000e+01
        vertex 9.600000e+01 2.300000e+01 7.745000e+01
        vertex 9.350000e+01 2.200000e+01 7.745000e+01
    endloop
endfacet
facet normal 0.000000e+00 0.000000e+00 1.000000e+00
    outer loop
        vertex 9.350000e+01 2.200000e+01 7.745000e+01
        vertex 9.600000e+01 2.300000e+01 7.745000e+01
        vertex 9.579556e+01 2.455291e+01 7.745000e+01
    endloop
endfacet
facet normal 0.000000e+00 0.000000e+00 1.000000e+00
    outer loop
        vertex 9.350000e+01 2.200000e+01 7.745000e+01
        vertex 9.579556e+01 2.455291e+01 7.745000e+01
        vertex 9.519615e+01 2.600000e+01 7.745000e+01
    endloop
endfacet
facet normal 0.000000e+00 0.000000e+00 1.000000e+00
    outer loop
        vertex 9.350000e+01 2.200000e+01 7.745000e+01
        vertex 9.519615e+01 2.600000e+01 7.745000e+01
        vertex 9.424264e+01 2.724264e+01 7.745000e+01
    endloop
endfacet
facet normal 0.000000e+00 -0.000000e+00 1.000000e+00
    outer loop
        vertex 9.350000e+01 2.200000e+01 7.745000e+01
        vertex 9.424264e+01 2.724264e+01 7.745000e+01
        vertex 9.300000e+01 2.819615e+01 7.745000e+01
    endloop
endfacet
facet normal 0.000000e+00 0.000000e+00 1.000000e+00
    outer loop
        vertex 9.350000e+01 -2.220000e+01 7.745000e+01
        vertex 9.600000e+01 0.000000e+00 7.745000e+01
        vertex 9.350000e+01 0.000000e+00 7.745000e+01
    endloop
endfacet
facet normal 0.000000e+00 -0.000000e+00 1.000000e+00
    outer loop
        vertex 9.600000e+01 -2.300000e+01 7.745000e+01
        vertex 9.600000e+01 0.000000e+00 7.745000e+01
        vertex 9.350000e+01 -2.220000e+01 7.745000e+01
    endloop
endfacet
facet normal 0.000000e+00 -0.000000e+00 1.000000e+00
    outer loop
        vertex 9.579556e+01 -2.455291e+01 7.745000e+01
        vertex 9.600000e+01 -2.300000e+01 7.745000e+01
        vertex 9.350000e+01 -2.220000e+01 7.745000e+01
    endloop
endfacet
facet normal 0.000000e+00 -0.000000e+00 1.000000e+00
    outer loop
        vertex 9.519615e+01 -2.600000e+01 7.745000e+01
        vertex 9.579556e+01 -2.455291e+01 7.745000e+01
        vertex 9.350000e+01 -2.220000e+01 7.745000e+01
    endloop
endfacet
facet normal 0.000000e+00 -0.000000e+00 1.000000e+00
    outer loop
        vertex 9.424264e+01 -2.724264e+01 7.745000e+01
        vertex 9.519615e+01 -2.600000e+01 7.745000e+01
        vertex 9.350000e+01 -2.220000e+01 7.745000e+01
    endloop
endfacet
facet normal 0.000000e+00 0.000000e+00 1.000000e+00
    outer loop
        vertex 9.300000e+01 -2.819615e+01 7.745000e+01
        vertex 9.424264e+01 -2.724264e+01 7.745000e+01
        vertex 9.350000e+01 -2.220000e+01 7.745000e+01
    endloop
endfacet
facet normal 0.000000e+00 0.000000e+00 1.000000e+00
    outer loop
        vertex 8.700000e+01 -2.819615e+01 7.745000e+01
        vertex 8.480385e+01 -2.600000e+01 7.745000e+01
        vertex 8.575735e+01 -2.724264e+01 7.745000e+01
    endloop
endfacet
facet normal 0.000000e+00 0.000000e+00 1.000000e+00
    outer loop
        vertex 8.700000e+01 -2.819615e+01 7.745000e+01
        vertex 8.420444e+01 -2.455291e+01 7.745000e+01
        vertex 8.480385e+01 -2.600000e+01 7.745000e+01
    endloop
endfacet
facet normal 0.000000e+00 0.000000e+00 1.000000e+00
    outer loop
        vertex 8.700000e+01 -2.819615e+01 7.745000e+01
        vertex 8.400000e+01 -2.300000e+01 7.745000e+01
        vertex 8.420444e+01 -2.455291e+01 7.745000e+01
    endloop
endfacet
facet normal 0.000000e+00 0.000000e+00 1.000000e+00
    outer loop
        vertex 8.844708e+01 -2.879556e+01 7.745000e+01
        vertex 8.400000e+01 -2.300000e+01 7.745000e+01
        vertex 8.700000e+01 -2.819615e+01 7.745000e+01
    endloop
endfacet
facet normal 0.000000e+00 0.000000e+00 1.000000e+00
    outer loop
        vertex 9.000000e+01 -2.900000e+01 7.745000e+01
        vertex 8.400000e+01 -2.300000e+01 7.745000e+01
        vertex 8.844708e+01 -2.879556e+01 7.745000e+01
    endloop
endfacet
facet normal 0.000000e+00 -0.000000e+00 1.000000e+00
    outer loop
        vertex 9.000000e+01 -2.900000e+01 7.745000e+01
        vertex 9.155292e+01 -2.879556e+01 7.745000e+01
        vertex 8.400000e+01 -2.300000e+01 7.745000e+01
    endloop
endfacet
facet normal 0.000000e+00 -0.000000e+00 1.000000e+00
    outer loop
        vertex 9.155292e+01 -2.879556e+01 7.745000e+01
        vertex 9.300000e+01 -2.819615e+01 7.745000e+01
        vertex 8.400000e+01 -2.300000e+01 7.745000e+01
    endloop
endfacet
facet normal 0.000000e+00 0.000000e+00 1.000000e+00
    outer loop
        vertex 8.480385e+01 2.600000e+01 7.745000e+01
        vertex 8.700000e+01 2.819615e+01 7.745000e+01
        vertex 8.575735e+01 2.724264e+01 7.745000e+01
    endloop
endfacet
facet normal 0.000000e+00 0.000000e+00 1.000000e+00
    outer loop
        vertex 8.420444e+01 2.455291e+01 7.745000e+01
        vertex 8.700000e+01 2.819615e+01 7.745000e+01
        vertex 8.480385e+01 2.600000e+01 7.745000e+01
    endloop
endfacet
facet normal 0.000000e+00 0.000000e+00 1.000000e+00
    outer loop
        vertex 8.400000e+01 2.300000e+01 7.745000e+01
        vertex 8.700000e+01 2.819615e+01 7.745000e+01
        vertex 8.420444e+01 2.455291e+01 7.745000e+01
    endloop
endfacet
facet normal 0.000000e+00 0.000000e+00 1.000000e+00
    outer loop
        vertex 8.400000e+01 2.300000e+01 7.745000e+01
        vertex 8.844708e+01 2.879556e+01 7.745000e+01
        vertex 8.700000e+01 2.819615e+01 7.745000e+01
    endloop
endfacet
facet normal 0.000000e+00 0.000000e+00 1.000000e+00
    outer loop
        vertex 8.400000e+01 2.300000e+01 7.745000e+01
        vertex 9.000000e+01 2.900000e+01 7.745000e+01
        vertex 8.844708e+01 2.879556e+01 7.745000e+01
    endloop
endfacet
facet normal 0.000000e+00 0.000000e+00 1.000000e+00
    outer loop
        vertex 8.400000e+01 2.300000e+01 7.745000e+01
        vertex 9.155292e+01 2.879556e+01 7.745000e+01
        vertex 9.000000e+01 2.900000e+01 7.745000e+01
    endloop
endfacet
facet normal 0.000000e+00 0.000000e+00 1.000000e+00
    outer loop
        vertex 8.400000e+01 2.300000e+01 7.745000e+01
        vertex 9.300000e+01 2.819615e+01 7.745000e+01
        vertex 9.155292e+01 2.879556e+01 7.745000e+01
    endloop
endfacet
facet normal 0.000000e+00 0.000000e+00 1.000000e+00
    outer loop
        vertex 9.350000e+01 2.200000e+01 7.745000e+01
        vertex 9.300000e+01 2.819615e+01 7.745000e+01
        vertex 9.338074e+01 2.290587e+01 7.745000e+01
    endloop
endfacet
facet normal 0.000000e+00 0.000000e+00 1.000000e+00
    outer loop
        vertex 9.338074e+01 2.290587e+01 7.745000e+01
        vertex 9.300000e+01 2.819615e+01 7.745000e+01
        vertex 9.303109e+01 2.375000e+01 7.745000e+01
    endloop
endfacet
facet normal 0.000000e+00 0.000000e+00 1.000000e+00
    outer loop
        vertex 9.303109e+01 2.375000e+01 7.745000e+01
        vertex 9.300000e+01 2.819615e+01 7.745000e+01
        vertex 9.247488e+01 2.447487e+01 7.745000e+01
    endloop
endfacet
facet normal 0.000000e+00 -0.000000e+00 1.000000e+00
    outer loop
        vertex 9.247488e+01 2.447487e+01 7.745000e+01
        vertex 9.300000e+01 2.819615e+01 7.745000e+01
        vertex 9.175000e+01 2.503109e+01 7.745000e+01
    endloop
endfacet
facet normal 0.000000e+00 -0.000000e+00 1.000000e+00
    outer loop
        vertex 9.175000e+01 2.503109e+01 7.745000e+01
        vertex 9.300000e+01 2.819615e+01 7.745000e+01
        vertex 9.090587e+01 2.538074e+01 7.745000e+01
    endloop
endfacet
facet normal 0.000000e+00 -0.000000e+00 1.000000e+00
    outer loop
        vertex 9.090587e+01 2.538074e+01 7.745000e+01
        vertex 9.300000e+01 2.819615e+01 7.745000e+01
        vertex 9.000000e+01 2.550000e+01 7.745000e+01
    endloop
endfacet
facet normal 0.000000e+00 0.000000e+00 1.000000e+00
    outer loop
        vertex 8.909413e+01 2.538074e+01 7.745000e+01
        vertex 9.000000e+01 2.550000e+01 7.745000e+01
        vertex 9.300000e+01 2.819615e+01 7.745000e+01
    endloop
endfacet
facet normal 0.000000e+00 0.000000e+00 1.000000e+00
    outer loop
        vertex 8.825000e+01 2.503109e+01 7.745000e+01
        vertex 8.909413e+01 2.538074e+01 7.745000e+01
        vertex 9.300000e+01 2.819615e+01 7.745000e+01
    endloop
endfacet
facet normal 0.000000e+00 0.000000e+00 1.000000e+00
    outer loop
        vertex 8.400000e+01 2.300000e+01 7.745000e+01
        vertex 8.825000e+01 2.503109e+01 7.745000e+01
        vertex 9.300000e+01 2.819615e+01 7.745000e+01
    endloop
endfacet
facet normal 0.000000e+00 0.000000e+00 1.000000e+00
    outer loop
        vertex 8.400000e+01 2.300000e+01 7.745000e+01
        vertex 8.752512e+01 2.447487e+01 7.745000e+01
        vertex 8.825000e+01 2.503109e+01 7.745000e+01
    endloop
endfacet
facet normal 0.000000e+00 0.000000e+00 1.000000e+00
    outer loop
        vertex 8.400000e+01 2.300000e+01 7.745000e+01
        vertex 8.696891e+01 2.375000e+01 7.745000e+01
        vertex 8.752512e+01 2.447487e+01 7.745000e+01
    endloop
endfacet
facet normal 0.000000e+00 -0.000000e+00 1.000000e+00
    outer loop
        vertex 8.661926e+01 2.290587e+01 7.745000e+01
        vertex 8.696891e+01 2.375000e+01 7.745000e+01
        vertex 8.400000e+01 2.300000e+01 7.745000e+01
    endloop
endfacet
facet normal 0.000000e+00 -0.000000e+00 1.000000e+00
    outer loop
        vertex 8.650000e+01 2.200000e+01 7.745000e+01
        vertex 8.661926e+01 2.290587e+01 7.745000e+01
        vertex 8.400000e+01 2.300000e+01 7.745000e+01
    endloop
endfacet
facet normal 0.000000e+00 0.000000e+00 1.000000e+00
    outer loop
        vertex 8.400000e+01 -2.300000e+01 7.745000e+01
        vertex 8.650000e+01 2.200000e+01 7.745000e+01
        vertex 8.400000e+01 2.300000e+01 7.745000e+01
    endloop
endfacet
facet normal 0.000000e+00 0.000000e+00 1.000000e+00
    outer loop
        vertex 8.400000e+01 -2.300000e+01 7.745000e+01
        vertex 8.650000e+01 -2.220000e+01 7.745000e+01
        vertex 8.650000e+01 2.200000e+01 7.745000e+01
    endloop
endfacet
facet normal 0.000000e+00 0.000000e+00 1.000000e+00
    outer loop
        vertex 8.661926e+01 -2.310587e+01 7.745000e+01
        vertex 8.650000e+01 -2.220000e+01 7.745000e+01
        vertex 8.400000e+01 -2.300000e+01 7.745000e+01
    endloop
endfacet
facet normal 0.000000e+00 0.000000e+00 1.000000e+00
    outer loop
        vertex 8.696891e+01 -2.395000e+01 7.745000e+01
        vertex 8.661926e+01 -2.310587e+01 7.745000e+01
        vertex 8.400000e+01 -2.300000e+01 7.745000e+01
    endloop
endfacet
facet normal 0.000000e+00 0.000000e+00 1.000000e+00
    outer loop
        vertex 8.752512e+01 -2.467488e+01 7.745000e+01
        vertex 8.696891e+01 -2.395000e+01 7.745000e+01
        vertex 8.400000e+01 -2.300000e+01 7.745000e+01
    endloop
endfacet
facet normal 0.000000e+00 0.000000e+00 1.000000e+00
    outer loop
        vertex 8.825000e+01 -2.523109e+01 7.745000e+01
        vertex 8.752512e+01 -2.467488e+01 7.745000e+01
        vertex 8.400000e+01 -2.300000e+01 7.745000e+01
    endloop
endfacet
facet normal 0.000000e+00 0.000000e+00 1.000000e+00
    outer loop
        vertex 9.300000e+01 -2.819615e+01 7.745000e+01
        vertex 8.825000e+01 -2.523109e+01 7.745000e+01
        vertex 8.400000e+01 -2.300000e+01 7.745000e+01
    endloop
endfacet
facet normal 0.000000e+00 0.000000e+00 1.000000e+00
    outer loop
        vertex 9.300000e+01 -2.819615e+01 7.745000e+01
        vertex 8.909413e+01 -2.558074e+01 7.745000e+01
        vertex 8.825000e+01 -2.523109e+01 7.745000e+01
    endloop
endfacet
facet normal 0.000000e+00 0.000000e+00 1.000000e+00
    outer loop
        vertex 9.300000e+01 -2.819615e+01 7.745000e+01
        vertex 9.000000e+01 -2.570000e+01 7.745000e+01
        vertex 8.909413e+01 -2.558074e+01 7.745000e+01
    endloop
endfacet
facet normal 0.000000e+00 0.000000e+00 1.000000e+00
    outer loop
        vertex 9.300000e+01 -2.819615e+01 7.745000e+01
        vertex 9.090587e+01 -2.558074e+01 7.745000e+01
        vertex 9.000000e+01 -2.570000e+01 7.745000e+01
    endloop
endfacet
facet normal 0.000000e+00 0.000000e+00 1.000000e+00
    outer loop
        vertex 9.300000e+01 -2.819615e+01 7.745000e+01
        vertex 9.175000e+01 -2.523109e+01 7.745000e+01
        vertex 9.090587e+01 -2.558074e+01 7.745000e+01
    endloop
endfacet
facet normal 0.000000e+00 0.000000e+00 1.000000e+00
    outer loop
        vertex 9.300000e+01 -2.819615e+01 7.745000e+01
        vertex 9.247488e+01 -2.467488e+01 7.745000e+01
        vertex 9.175000e+01 -2.523109e+01 7.745000e+01
    endloop
endfacet
facet normal 0.000000e+00 -0.000000e+00 1.000000e+00
    outer loop
        vertex 9.300000e+01 -2.819615e+01 7.745000e+01
        vertex 9.303109e+01 -2.395000e+01 7.745000e+01
        vertex 9.247488e+01 -2.467488e+01 7.745000e+01
    endloop
endfacet
facet normal 0.000000e+00 0.000000e+00 1.000000e+00
    outer loop
        vertex 9.300000e+01 -2.819615e+01 7.745000e+01
        vertex 9.350000e+01 -2.220000e+01 7.745000e+01
        vertex 9.338074e+01 -2.310587e+01 7.745000e+01
    endloop
endfacet
facet normal 0.000000e+00 0.000000e+00 1.000000e+00
    outer loop
        vertex 9.300000e+01 -2.819615e+01 7.745000e+01
        vertex 9.338074e+01 -2.310587e+01 7.745000e+01
        vertex 9.303109e+01 -2.395000e+01 7.745000e+01
    endloop
endfacet
facet normal 0.000000e+00 0.000000e+00 -1.000000e+00
    outer loop
        vertex 9.350000e+01 0.000000e+00 7.055000e+01
        vertex 9.350000e+01 2.200000e+01 7.055000e+01
        vertex 9.600000e+01 0.000000e+00 7.055000e+01
    endloop
endfacet
facet normal 0.000000e+00 0.000000e+00 -1.000000e+00
    outer loop
        vertex 9.600000e+01 0.000000e+00 7.055000e+01
        vertex 9.350000e+01 2.200000e+01 7.055000e+01
        vertex 9.600000e+01 2.300000e+01 7.055000e+01
    endloop
endfacet
facet normal 0.000000e+00 0.000000e+00 -1.000000e+00
    outer loop
        vertex 9.350000e+01 2.200000e+01 7.055000e+01
        vertex 9.579556e+01 2.455291e+01 7.055000e+01
        vertex 9.600000e+01 2.300000e+01 7.055000e+01
    endloop
endfacet
facet normal 0.000000e+00 0.000000e+00 -1.000000e+00
    outer loop
        vertex 9.350000e+01 2.200000e+01 7.055000e+01
        vertex 9.519615e+01 2.600000e+01 7.055000e+01
        vertex 9.579556e+01 2.455291e+01 7.055000e+01
    endloop
endfacet
facet normal 0.000000e+00 0.000000e+00 -1.000000e+00
    outer loop
        vertex 9.350000e+01 2.200000e+01 7.055000e+01
        vertex 9.424264e+01 2.724264e+01 7.055000e+01
        vertex 9.519615e+01 2.600000e+01 7.055000e+01
    endloop
endfacet
facet normal 0.000000e+00 0.000000e+00 -1.000000e+00
    outer loop
        vertex 9.350000e+01 2.200000e+01 7.055000e+01
        vertex 9.300000e+01 2.819615e+01 7.055000e+01
        vertex 9.424264e+01 2.724264e+01 7.055000e+01
    endloop
endfacet
facet normal 0.000000e+00 0.000000e+00 -1.000000e+00
    outer loop
        vertex 9.350000e+01 -2.220000e+01 7.055000e+01
        vertex 9.350000e+01 0.000000e+00 7.055000e+01
        vertex 9.600000e+01 0.000000e+00 7.055000e+01
    endloop
endfacet
facet normal 0.000000e+00 0.000000e+00 -1.000000e+00
    outer loop
        vertex 9.600000e+01 -2.300000e+01 7.055000e+01
        vertex 9.350000e+01 -2.220000e+01 7.055000e+01
        vertex 9.600000e+01 0.000000e+00 7.055000e+01
    endloop
endfacet
facet normal 0.000000e+00 0.000000e+00 -1.000000e+00
    outer loop
        vertex 9.579556e+01 -2.455291e+01 7.055000e+01
        vertex 9.350000e+01 -2.220000e+01 7.055000e+01
        vertex 9.600000e+01 -2.300000e+01 7.055000e+01
    endloop
endfacet
facet normal 0.000000e+00 0.000000e+00 -1.000000e+00
    outer loop
        vertex 9.519615e+01 -2.600000e+01 7.055000e+01
        vertex 9.350000e+01 -2.220000e+01 7.055000e+01
        vertex 9.579556e+01 -2.455291e+01 7.055000e+01
    endloop
endfacet
facet normal 0.000000e+00 0.000000e+00 -1.000000e+00
    outer loop
        vertex 9.424264e+01 -2.724264e+01 7.055000e+01
        vertex 9.350000e+01 -2.220000e+01 7.055000e+01
        vertex 9.519615e+01 -2.600000e+01 7.055000e+01
    endloop
endfacet
facet normal 0.000000e+00 0.000000e+00 -1.000000e+00
    outer loop
        vertex 9.300000e+01 -2.819615e+01 7.055000e+01
        vertex 9.350000e+01 -2.220000e+01 7.055000e+01
        vertex 9.424264e+01 -2.724264e+01 7.055000e+01
    endloop
endfacet
facet normal 0.000000e+00 0.000000e+00 -1.000000e+00
    outer loop
        vertex 8.700000e+01 -2.819615e+01 7.055000e+01
        vertex 8.575735e+01 -2.724264e+01 7.055000e+01
        vertex 8.480385e+01 -2.600000e+01 7.055000e+01
    endloop
endfacet
facet normal 0.000000e+00 0.000000e+00 -1.000000e+00
    outer loop
        vertex 8.700000e+01 -2.819615e+01 7.055000e+01
        vertex 8.480385e+01 -2.600000e+01 7.055000e+01
        vertex 8.420444e+01 -2.455291e+01 7.055000e+01
    endloop
endfacet
facet normal 0.000000e+00 0.000000e+00 -1.000000e+00
    outer loop
        vertex 8.700000e+01 -2.819615e+01 7.055000e+01
        vertex 8.420444e+01 -2.455291e+01 7.055000e+01
        vertex 8.400000e+01 -2.300000e+01 7.055000e+01
    endloop
endfacet
facet normal 0.000000e+00 0.000000e+00 -1.000000e+00
    outer loop
        vertex 8.844708e+01 -2.879556e+01 7.055000e+01
        vertex 8.700000e+01 -2.819615e+01 7.055000e+01
        vertex 8.400000e+01 -2.300000e+01 7.055000e+01
    endloop
endfacet
facet normal 0.000000e+00 0.000000e+00 -1.000000e+00
    outer loop
        vertex 9.000000e+01 -2.900000e+01 7.055000e+01
        vertex 8.844708e+01 -2.879556e+01 7.055000e+01
        vertex 8.400000e+01 -2.300000e+01 7.055000e+01
    endloop
endfacet
facet normal 0.000000e+00 0.000000e+00 -1.000000e+00
    outer loop
        vertex 9.000000e+01 -2.900000e+01 7.055000e+01
        vertex 8.400000e+01 -2.300000e+01 7.055000e+01
        vertex 9.155292e+01 -2.879556e+01 7.055000e+01
    endloop
endfacet
facet normal 0.000000e+00 0.000000e+00 -1.000000e+00
    outer loop
        vertex 9.155292e+01 -2.879556e+01 7.055000e+01
        vertex 8.400000e+01 -2.300000e+01 7.055000e+01
        vertex 9.300000e+01 -2.819615e+01 7.055000e+01
    endloop
endfacet
facet normal 0.000000e+00 0.000000e+00 -1.000000e+00
    outer loop
        vertex 8.480385e+01 2.600000e+01 7.055000e+01
        vertex 8.575735e+01 2.724264e+01 7.055000e+01
        vertex 8.700000e+01 2.819615e+01 7.055000e+01
    endloop
endfacet
facet normal 0.000000e+00 0.000000e+00 -1.000000e+00
    outer loop
        vertex 8.420444e+01 2.455291e+01 7.055000e+01
        vertex 8.480385e+01 2.600000e+01 7.055000e+01
        vertex 8.700000e+01 2.819615e+01 7.055000e+01
    endloop
endfacet
facet normal 0.000000e+00 0.000000e+00 -1.000000e+00
    outer loop
        vertex 8.400000e+01 2.300000e+01 7.055000e+01
        vertex 8.420444e+01 2.455291e+01 7.055000e+01
        vertex 8.700000e+01 2.819615e+01 7.055000e+01
    endloop
endfacet
facet normal 0.000000e+00 0.000000e+00 -1.000000e+00
    outer loop
        vertex 8.400000e+01 2.300000e+01 7.055000e+01
        vertex 8.700000e+01 2.819615e+01 7.055000e+01
        vertex 8.844708e+01 2.879556e+01 7.055000e+01
    endloop
endfacet
facet normal 0.000000e+00 0.000000e+00 -1.000000e+00
    outer loop
        vertex 8.400000e+01 2.300000e+01 7.055000e+01
        vertex 8.844708e+01 2.879556e+01 7.055000e+01
        vertex 9.000000e+01 2.900000e+01 7.055000e+01
    endloop
endfacet
facet normal 0.000000e+00 0.000000e+00 -1.000000e+00
    outer loop
        vertex 8.400000e+01 2.300000e+01 7.055000e+01
        vertex 9.000000e+01 2.900000e+01 7.055000e+01
        vertex 9.155292e+01 2.879556e+01 7.055000e+01
    endloop
endfacet
facet normal 0.000000e+00 0.000000e+00 -1.000000e+00
    outer loop
        vertex 8.400000e+01 2.300000e+01 7.055000e+01
        vertex 9.155292e+01 2.879556e+01 7.055000e+01
        vertex 9.300000e+01 2.819615e+01 7.055000e+01
    endloop
endfacet
facet normal 0.000000e+00 0.000000e+00 -1.000000e+00
    outer loop
        vertex 9.350000e+01 2.200000e+01 7.055000e+01
        vertex 9.338074e+01 2.290587e+01 7.055000e+01
        vertex 9.300000e+01 2.819615e+01 7.055000e+01
    endloop
endfacet
facet normal 0.000000e+00 0.000000e+00 -1.000000e+00
    outer loop
        vertex 9.338074e+01 2.290587e+01 7.055000e+01
        vertex 9.303109e+01 2.375000e+01 7.055000e+01
        vertex 9.300000e+01 2.819615e+01 7.055000e+01
    endloop
endfacet
facet normal 0.000000e+00 0.000000e+00 -1.000000e+00
    outer loop
        vertex 9.303109e+01 2.375000e+01 7.055000e+01
        vertex 9.247488e+01 2.447487e+01 7.055000e+01
        vertex 9.300000e+01 2.819615e+01 7.055000e+01
    endloop
endfacet
facet normal 0.000000e+00 0.000000e+00 -1.000000e+00
    outer loop
        vertex 9.247488e+01 2.447487e+01 7.055000e+01
        vertex 9.175000e+01 2.503109e+01 7.055000e+01
        vertex 9.300000e+01 2.819615e+01 7.055000e+01
    endloop
endfacet
facet normal 0.000000e+00 0.000000e+00 -1.000000e+00
    outer loop
        vertex 9.175000e+01 2.503109e+01 7.055000e+01
        vertex 9.090587e+01 2.538074e+01 7.055000e+01
        vertex 9.300000e+01 2.819615e+01 7.055000e+01
    endloop
endfacet
facet normal 0.000000e+00 0.000000e+00 -1.000000e+00
    outer loop
        vertex 9.090587e+01 2.538074e+01 7.055000e+01
        vertex 9.000000e+01 2.550000e+01 7.055000e+01
        vertex 9.300000e+01 2.819615e+01 7.055000e+01
    endloop
endfacet
facet normal 0.000000e+00 0.000000e+00 -1.000000e+00
    outer loop
        vertex 8.909413e+01 2.538074e+01 7.055000e+01
        vertex 9.300000e+01 2.819615e+01 7.055000e+01
        vertex 9.000000e+01 2.550000e+01 7.055000e+01
    endloop
endfacet
facet normal 0.000000e+00 0.000000e+00 -1.000000e+00
    outer loop
        vertex 8.825000e+01 2.503109e+01 7.055000e+01
        vertex 9.300000e+01 2.819615e+01 7.055000e+01
        vertex 8.909413e+01 2.538074e+01 7.055000e+01
    endloop
endfacet
facet normal 0.000000e+00 0.000000e+00 -1.000000e+00
    outer loop
        vertex 8.400000e+01 2.300000e+01 7.055000e+01
        vertex 9.300000e+01 2.819615e+01 7.055000e+01
        vertex 8.825000e+01 2.503109e+01 7.055000e+01
    endloop
endfacet
facet normal 0.000000e+00 0.000000e+00 -1.000000e+00
    outer loop
        vertex 8.400000e+01 2.300000e+01 7.055000e+01
        vertex 8.825000e+01 2.503109e+01 7.055000e+01
        vertex 8.752512e+01 2.447487e+01 7.055000e+01
    endloop
endfacet
facet normal 0.000000e+00 0.000000e+00 -1.000000e+00
    outer loop
        vertex 8.400000e+01 2.300000e+01 7.055000e+01
        vertex 8.752512e+01 2.447487e+01 7.055000e+01
        vertex 8.696891e+01 2.375000e+01 7.055000e+01
    endloop
endfacet
facet normal 0.000000e+00 0.000000e+00 -1.000000e+00
    outer loop
        vertex 8.661926e+01 2.290587e+01 7.055000e+01
        vertex 8.400000e+01 2.300000e+01 7.055000e+01
        vertex 8.696891e+01 2.375000e+01 7.055000e+01
    endloop
endfacet
facet normal 0.000000e+00 0.000000e+00 -1.000000e+00
    outer loop
        vertex 8.650000e+01 2.200000e+01 7.055000e+01
        vertex 8.400000e+01 2.300000e+01 7.055000e+01
        vertex 8.661926e+01 2.290587e+01 7.055000e+01
    endloop
endfacet
facet normal 0.000000e+00 0.000000e+00 -1.000000e+00
    outer loop
        vertex 8.400000e+01 -2.300000e+01 7.055000e+01
        vertex 8.400000e+01 2.300000e+01 7.055000e+01
        vertex 8.650000e+01 2.200000e+01 7.055000e+01
    endloop
endfacet
facet normal 0.000000e+00 0.000000e+00 -1.000000e+00
    outer loop
        vertex 8.400000e+01 -2.300000e+01 7.055000e+01
        vertex 8.650000e+01 2.200000e+01 7.055000e+01
        vertex 8.650000e+01 -2.220000e+01 7.055000e+01
    endloop
endfacet
facet normal 0.000000e+00 0.000000e+00 -1.000000e+00
    outer loop
        vertex 8.661926e+01 -2.310587e+01 7.055000e+01
        vertex 8.400000e+01 -2.300000e+01 7.055000e+01
        vertex 8.650000e+01 -2.220000e+01 7.055000e+01
    endloop
endfacet
facet normal 0.000000e+00 0.000000e+00 -1.000000e+00
    outer loop
        vertex 8.696891e+01 -2.395000e+01 7.055000e+01
        vertex 8.400000e+01 -2.300000e+01 7.055000e+01
        vertex 8.661926e+01 -2.310587e+01 7.055000e+01
    endloop
endfacet
facet normal 0.000000e+00 0.000000e+00 -1.000000e+00
    outer loop
        vertex 8.752512e+01 -2.467488e+01 7.055000e+01
        vertex 8.400000e+01 -2.300000e+01 7.055000e+01
        vertex 8.696891e+01 -2.395000e+01 7.055000e+01
    endloop
endfacet
facet normal 0.000000e+00 0.000000e+00 -1.000000e+00
    outer loop
        vertex 8.825000e+01 -2.523109e+01 7.055000e+01
        vertex 8.400000e+01 -2.300000e+01 7.055000e+01
        vertex 8.752512e+01 -2.467488e+01 7.055000e+01
    endloop
endfacet
facet normal 0.000000e+00 0.000000e+00 -1.000000e+00
    outer loop
        vertex 9.300000e+01 -2.819615e+01 7.055000e+01
        vertex 8.400000e+01 -2.300000e+01 7.055000e+01
        vertex 8.825000e+01 -2.523109e+01 7.055000e+01
    endloop
endfacet
facet normal 0.000000e+00 0.000000e+00 -1.000000e+00
    outer loop
        vertex 9.300000e+01 -2.819615e+01 7.055000e+01
        vertex 8.825000e+01 -2.523109e+01 7.055000e+01
        vertex 8.909413e+01 -2.558074e+01 7.055000e+01
    endloop
endfacet
facet normal 0.000000e+00 0.000000e+00 -1.000000e+00
    outer loop
        vertex 9.300000e+01 -2.819615e+01 7.055000e+01
        vertex 8.909413e+01 -2.558074e+01 7.055000e+01
        vertex 9.000000e+01 -2.570000e+01 7.055000e+01
    endloop
endfacet
facet normal 0.000000e+00 0.000000e+00 -1.000000e+00
    outer loop
        vertex 9.300000e+01 -2.819615e+01 7.055000e+01
        vertex 9.000000e+01 -2.570000e+01 7.055000e+01
        vertex 9.090587e+01 -2.558074e+01 7.055000e+01
    endloop
endfacet
facet normal 0.000000e+00 0.000000e+00 -1.000000e+00
    outer loop
        vertex 9.300000e+01 -2.819615e+01 7.055000e+01
        vertex 9.090587e+01 -2.558074e+01 7.055000e+01
        vertex 9.175000e+01 -2.523109e+01 7.055000e+01
    endloop
endfacet
facet normal 0.000000e+00 0.000000e+00 -1.000000e+00
    outer loop
        vertex 9.300000e+01 -2.819615e+01 7.055000e+01
        vertex 9.175000e+01 -2.523109e+01 7.055000e+01
        vertex 9.247488e+01 -2.467488e+01 7.055000e+01
    endloop
endfacet
facet normal 0.000000e+00 0.000000e+00 -1.000000e+00
    outer loop
        vertex 9.300000e+01 -2.819615e+01 7.055000e+01
        vertex 9.247488e+01 -2.467488e+01 7.055000e+01
        vertex 9.303109e+01 -2.395000e+01 7.055000e+01
    endloop
endfacet
facet normal 0.000000e+00 0.000000e+00 -1.000000e+00
    outer loop
        vertex 9.300000e+01 -2.819615e+01 7.055000e+01
        vertex 9.303109e+01 -2.395000e+01 7.055000e+01
        vertex 9.338074e+01 -2.310587e+01 7.055000e+01
    endloop
endfacet
facet normal 0.000000e+00 0.000000e+00 -1.000000e+00
    outer loop
        vertex 9.300000e+01 -2.819615e+01 7.055000e+01
        vertex 9.338074e+01 -2.310587e+01 7.055000e+01
        vertex 9.350000e+01 -2.220000e+01 7.055000e+01
    endloop
endfacet
facet normal -9.914449e-01 1.305261e-01 0.000000e+00
    outer loop
        vertex 8.400000e+01 2.300000e+01 7.055000e+01
        vertex 8.400000e+01 2.300000e+01 7.745000e+01
        vertex 8.420444e+01 2.455291e+01 7.055000e+01
    endloop
endfacet
facet normal -9.914449e-01 1.305261e-01 0.000000e+00
    outer loop
        vertex 8.400000e+01 2.300000e+01 7.745000e+01
        vertex 8.420444e+01 2.455291e+01 7.745000e+01
        vertex 8.420444e+01 2.455291e+01 7.055000e+01
    endloop
endfacet
facet normal -9.238794e-01 3.826838e-01 0.000000e+00
    outer loop
        vertex 8.420444e+01 2.455291e+01 7.055000e+01
        vertex 8.420444e+01 2.455291e+01 7.745000e+01
        vertex 8.480385e+01 2.600000e+01 7.055000e+01
    endloop
endfacet
facet normal -9.238794e-01 3.826838e-01 0.000000e+00
    outer loop
        vertex 8.420444e+01 2.455291e+01 7.745000e+01
        vertex 8.480385e+01 2.600000e+01 7.745000e+01
        vertex 8.480385e+01 2.600000e+01 7.055000e+01
    endloop
endfacet
facet normal -7.933552e-01 6.087591e-01 0.000000e+00
    outer loop
        vertex 8.480385e+01 2.600000e+01 7.055000e+01
        vertex 8.480385e+01 2.600000e+01 7.745000e+01
        vertex 8.575735e+01 2.724264e+01 7.055000e+01
    endloop
endfacet
facet normal -7.933552e-01 6.087591e-01 0.000000e+00
    outer loop
        vertex 8.480385e+01 2.600000e+01 7.745000e+01
        vertex 8.575735e+01 2.724264e+01 7.745000e+01
        vertex 8.575735e+01 2.724264e+01 7.055000e+01
    endloop
endfacet
facet normal -6.087595e-01 7.933549e-01 0.000000e+00
    outer loop
        vertex 8.575735e+01 2.724264e+01 7.055000e+01
        vertex 8.575735e+01 2.724264e+01 7.745000e+01
        vertex 8.700000e+01 2.819615e+01 7.055000e+01
    endloop
endfacet
facet normal -6.087595e-01 7.933549e-01 0.000000e+00
    outer loop
        vertex 8.575735e+01 2.724264e+01 7.745000e+01
        vertex 8.700000e+01 2.819615e+01 7.745000e+01
        vertex 8.700000e+01 2.819615e+01 7.055000e+01
    endloop
endfacet
facet normal -3.826846e-01 9.238790e-01 0.000000e+00
    outer loop
        vertex 8.700000e+01 2.819615e+01 7.055000e+01
        vertex 8.700000e+01 2.819615e+01 7.745000e+01
        vertex 8.844708e+01 2.879556e+01 7.055000e+01
    endloop
endfacet
facet normal -3.826846e-01 9.238790e-01 0.000000e+00
    outer loop
        vertex 8.700000e+01 2.819615e+01 7.745000e+01
        vertex 8.844708e+01 2.879556e+01 7.745000e+01
        vertex 8.844708e+01 2.879556e+01 7.055000e+01
    endloop
endfacet
facet normal -1.305258e-01 9.914449e-01 0.000000e+00
    outer loop
        vertex 8.844708e+01 2.879556e+01 7.055000e+01
        vertex 8.844708e+01 2.879556e+01 7.745000e+01
        vertex 9.000000e+01 2.900000e+01 7.055000e+01
    endloop
endfacet
facet normal -1.305258e-01 9.914449e-01 0.000000e+00
    outer loop
        vertex 8.844708e+01 2.879556e+01 7.745000e+01
        vertex 9.000000e+01 2.900000e+01 7.745000e+01
        vertex 9.000000e+01 2.900000e+01 7.055000e+01
    endloop
endfacet
facet normal 1.305258e-01 9.914449e-01 -0.000000e+00
    outer loop
        vertex 9.155292e+01 2.879556e+01 7.055000e+01
        vertex 9.000000e+01 2.900000e+01 7.055000e+01
        vertex 9.155292e+01 2.879556e+01 7.745000e+01
    endloop
endfacet
facet normal 1.305258e-01 9.914449e-01 0.000000e+00
    outer loop
        vertex 9.155292e+01 2.879556e+01 7.745000e+01
        vertex 9.000000e+01 2.900000e+01 7.055000e+01
        vertex 9.000000e+01 2.900000e+01 7.745000e+01
    endloop
endfacet
facet normal 3.826846e-01 9.238790e-01 -0.000000e+00
    outer loop
        vertex 9.300000e+01 2.819615e+01 7.055000e+01
        vertex 9.155292e+01 2.879556e+01 7.055000e+01
        vertex 9.300000e+01 2.819615e+01 7.745000e+01
    endloop
endfacet
facet normal 3.826846e-01 9.238790e-01 0.000000e+00
    outer loop
        vertex 9.300000e+01 2.819615e+01 7.745000e+01
        vertex 9.155292e+01 2.879556e+01 7.055000e+01
        vertex 9.155292e+01 2.879556e+01 7.745000e+01
    endloop
endfacet
facet normal 6.087618e-01 7.933531e-01 -0.000000e+00
    outer loop
        vertex 9.424264e+01 2.724264e+01 7.055000e+01
        vertex 9.300000e+01 2.819615e+01 7.055000e+01
        vertex 9.424264e+01 2.724264e+01 7.745000e+01
    endloop
endfacet
facet normal 6.087618e-01 7.933531e-01 0.000000e+00
    outer loop
        vertex 9.424264e+01 2.724264e+01 7.745000e+01
        vertex 9.300000e+01 2.819615e+01 7.055000e+01
        vertex 9.300000e+01 2.819615e+01 7.745000e+01
    endloop
endfacet
facet normal 7.933528e-01 6.087621e-01 -0.000000e+00
    outer loop
        vertex 9.519615e+01 2.600000e+01 7.055000e+01
        vertex 9.424264e+01 2.724264e+01 7.055000e+01
        vertex 9.519615e+01 2.600000e+01 7.745000e+01
    endloop
endfacet
facet normal 7.933528e-01 6.087621e-01 0.000000e+00
    outer loop
        vertex 9.519615e+01 2.600000e+01 7.745000e+01
        vertex 9.424264e+01 2.724264e+01 7.055000e+01
        vertex 9.424264e+01 2.724264e+01 7.745000e+01
    endloop
endfacet
facet normal 9.238794e-01 3.826838e-01 -0.000000e+00
    outer loop
        vertex 9.579556e+01 2.455291e+01 7.055000e+01
        vertex 9.519615e+01 2.600000e+01 7.055000e+01
        vertex 9.579556e+01 2.455291e+01 7.745000e+01
    endloop
endfacet
facet normal 9.238794e-01 3.826838e-01 0.000000e+00
    outer loop
        vertex 9.579556e+01 2.455291e+01 7.745000e+01
        vertex 9.519615e+01 2.600000e+01 7.055000e+01
        vertex 9.519615e+01 2.600000e+01 7.745000e+01
    endloop
endfacet
facet normal 9.914449e-01 1.305261e-01 -0.000000e+00
    outer loop
        vertex 9.600000e+01 2.300000e+01 7.055000e+01
        vertex 9.579556e+01 2.455291e+01 7.055000e+01
        vertex 9.600000e+01 2.300000e+01 7.745000e+01
    endloop
endfacet
facet normal 9.914449e-01 1.305261e-01 0.000000e+00
    outer loop
        vertex 9.600000e+01 2.300000e+01 7.745000e+01
        vertex 9.579556e+01 2.455291e+01 7.055000e+01
        vertex 9.579556e+01 2.455291e+01 7.745000e+01
    endloop
endfacet
facet normal -9.914444e-01 -1.305295e-01 0.000000e+00
    outer loop
        vertex 9.350000e+01 2.200000e+01 7.055000e+01
        vertex 9.350000e+01 2.200000e+01 7.745000e+01
        vertex 9.338074e+01 2.290587e+01 7.055000e+01
    endloop
endfacet
facet normal -9.914444e-01 -1.305295e-01 0.000000e+00
    outer loop
        vertex 9.350000e+01 2.200000e+01 7.745000e+01
        vertex 9.338074e+01 2.290587e+01 7.745000e+01
        vertex 9.338074e+01 2.290587e+01 7.055000e+01
    endloop
endfacet
facet normal -9.238811e-01 -3.826797e-01 0.000000e+00
    outer loop
        vertex 9.338074e+01 2.290587e+01 7.055000e+01
        vertex 9.338074e+01 2.290587e+01 7.745000e+01
        vertex 9.303109e+01 2.375000e+01 7.055000e+01
    endloop
endfacet
facet normal -9.238811e-01 -3.826797e-01 0.000000e+00
    outer loop
        vertex 9.338074e+01 2.290587e+01 7.745000e+01
        vertex 9.303109e+01 2.375000e+01 7.745000e+01
        vertex 9.303109e+01 2.375000e+01 7.055000e+01
    endloop
endfacet
facet normal -7.933546e-01 -6.087598e-01 0.000000e+00
    outer loop
        vertex 9.303109e+01 2.375000e+01 7.055000e+01
        vertex 9.303109e+01 2.375000e+01 7.745000e+01
        vertex 9.247488e+01 2.447487e+01 7.055000e+01
    endloop
endfacet
facet normal -7.933546e-01 -6.087598e-01 0.000000e+00
    outer loop
        vertex 9.303109e+01 2.375000e+01 7.745000e+01
        vertex 9.247488e+01 2.447487e+01 7.745000e+01
        vertex 9.247488e+01 2.447487e+01 7.055000e+01
    endloop
endfacet
facet normal -6.087601e-01 -7.933544e-01 0.000000e+00
    outer loop
        vertex 9.247488e+01 2.447487e+01 7.055000e+01
        vertex 9.247488e+01 2.447487e+01 7.745000e+01
        vertex 9.175000e+01 2.503109e+01 7.055000e+01
    endloop
endfacet
facet normal -6.087601e-01 -7.933544e-01 0.000000e+00
    outer loop
        vertex 9.247488e+01 2.447487e+01 7.745000e+01
        vertex 9.175000e+01 2.503109e+01 7.745000e+01
        vertex 9.175000e+01 2.503109e+01 7.055000e+01
    endloop
endfacet
facet normal -3.826840e-01 -9.238793e-01 0.000000e+00
    outer loop
        vertex 9.175000e+01 2.503109e+01 7.055000e+01
        vertex 9.175000e+01 2.503109e+01 7.745000e+01
        vertex 9.090587e+01 2.538074e+01 7.055000e+01
    endloop
endfacet
facet normal -3.826840e-01 -9.238793e-01 0.000000e+00
    outer loop
        vertex 9.175000e+01 2.503109e+01 7.745000e+01
        vertex 9.090587e+01 2.538074e+01 7.745000e+01
        vertex 9.090587e+01 2.538074e+01 7.055000e+01
    endloop
endfacet
facet normal -1.305251e-01 -9.914450e-01 0.000000e+00
    outer loop
        vertex 9.090587e+01 2.538074e+01 7.055000e+01
        vertex 9.090587e+01 2.538074e+01 7.745000e+01
        vertex 9.000000e+01 2.550000e+01 7.055000e+01
    endloop
endfacet
facet normal -1.305251e-01 -9.914450e-01 0.000000e+00
    outer loop
        vertex 9.090587e+01 2.538074e+01 7.745000e+01
        vertex 9.000000e+01 2.550000e+01 7.745000e+01
        vertex 9.000000e+01 2.550000e+01 7.055000e+01
    endloop
endfacet
facet normal 1.305251e-01 -9.914450e-01 0.000000e+00
    outer loop
        vertex 8.909413e+01 2.538074e+01 7.055000e+01
        vertex 9.000000e+01 2.550000e+01 7.055000e+01
        vertex 8.909413e+01 2.538074e+01 7.745000e+01
    endloop
endfacet
facet normal 1.305251e-01 -9.914450e-01 0.000000e+00
    outer loop
        vertex 8.909413e+01 2.538074e+01 7.745000e+01
        vertex 9.000000e+01 2.550000e+01 7.055000e+01
        vertex 9.000000e+01 2.550000e+01 7.745000e+01
    endloop
endfacet
facet normal 3.826840e-01 -9.238793e-01 0.000000e+00
    outer loop
        vertex 8.825000e+01 2.503109e+01 7.055000e+01
        vertex 8.909413e+01 2.538074e+01 7.055000e+01
        vertex 8.825000e+01 2.503109e+01 7.745000e+01
    endloop
endfacet
facet normal 3.826840e-01 -9.238793e-01 0.000000e+00
    outer loop
        vertex 8.825000e+01 2.503109e+01 7.745000e+01
        vertex 8.909413e+01 2.538074e+01 7.055000e+01
        vertex 8.909413e+01 2.538074e+01 7.745000e+01
    endloop
endfacet
facet normal 6.087601e-01 -7.933544e-01 0.000000e+00
    outer loop
        vertex 8.752512e+01 2.447487e+01 7.055000e+01
        vertex 8.825000e+01 2.503109e+01 7.055000e+01
        vertex 8.752512e+01 2.447487e+01 7.745000e+01
    endloop
endfacet
facet normal 6.087601e-01 -7.933544e-01 0.000000e+00
    outer loop
        vertex 8.752512e+01 2.447487e+01 7.745000e+01
        vertex 8.825000e+01 2.503109e+01 7.055000e+01
        vertex 8.825000e+01 2.503109e+01 7.745000e+01
    endloop
endfacet
facet normal 7.933546e-01 -6.087598e-01 0.000000e+00
    outer loop
        vertex 8.696891e+01 2.375000e+01 7.055000e+01
        vertex 8.752512e+01 2.447487e+01 7.055000e+01
        vertex 8.696891e+01 2.375000e+01 7.745000e+01
    endloop
endfacet
facet normal 7.933546e-01 -6.087598e-01 0.000000e+00
    outer loop
        vertex 8.696891e+01 2.375000e+01 7.745000e+01
        vertex 8.752512e+01 2.447487e+01 7.055000e+01
        vertex 8.752512e+01 2.447487e+01 7.745000e+01
    endloop
endfacet
facet normal 9.238811e-01 -3.826797e-01 0.000000e+00
    outer loop
        vertex 8.661926e+01 2.290587e+01 7.055000e+01
        vertex 8.696891e+01 2.375000e+01 7.055000e+01
        vertex 8.661926e+01 2.290587e+01 7.745000e+01
    endloop
endfacet
facet normal 9.238811e-01 -3.826797e-01 0.000000e+00
    outer loop
        vertex 8.661926e+01 2.290587e+01 7.745000e+01
        vertex 8.696891e+01 2.375000e+01 7.055000e+01
        vertex 8.696891e+01 2.375000e+01 7.745000e+01
    endloop
endfacet
facet normal 9.914444e-01 -1.305295e-01 0.000000e+00
    outer loop
        vertex 8.650000e+01 2.200000e+01 7.055000e+01
        vertex 8.661926e+01 2.290587e+01 7.055000e+01
        vertex 8.650000e+01 2.200000e+01 7.745000e+01
    endloop
endfacet
facet normal 9.914444e-01 -1.305295e-01 0.000000e+00
    outer loop
        vertex 8.650000e+01 2.200000e+01 7.745000e+01
        vertex 8.661926e+01 2.290587e+01 7.055000e+01
        vertex 8.661926e+01 2.290587e+01 7.745000e+01
    endloop
endfacet
facet normal -9.914449e-01 -1.305261e-01 0.000000e+00
    outer loop
        vertex 8.420444e+01 -2.455291e+01 7.055000e+01
        vertex 8.400000e+01 -2.300000e+01 7.745000e+01
        vertex 8.400000e+01 -2.300000e+01 7.055000e+01
    endloop
endfacet
facet normal -9.914449e-01 -1.305261e-01 0.000000e+00
    outer loop
        vertex 8.420444e+01 -2.455291e+01 7.055000e+01
        vertex 8.420444e+01 -2.455291e+01 7.745000e+01
        vertex 8.400000e+01 -2.300000e+01 7.745000e+01
    endloop
endfacet
facet normal -9.238794e-01 -3.826838e-01 0.000000e+00
    outer loop
        vertex 8.480385e+01 -2.600000e+01 7.055000e+01
        vertex 8.420444e+01 -2.455291e+01 7.745000e+01
        vertex 8.420444e+01 -2.455291e+01 7.055000e+01
    endloop
endfacet
facet normal -9.238794e-01 -3.826838e-01 0.000000e+00
    outer loop
        vertex 8.480385e+01 -2.600000e+01 7.055000e+01
        vertex 8.480385e+01 -2.600000e+01 7.745000e+01
        vertex 8.420444e+01 -2.455291e+01 7.745000e+01
    endloop
endfacet
facet normal -7.933552e-01 -6.087591e-01 0.000000e+00
    outer loop
        vertex 8.575735e+01 -2.724264e+01 7.055000e+01
        vertex 8.480385e+01 -2.600000e+01 7.745000e+01
        vertex 8.480385e+01 -2.600000e+01 7.055000e+01
    endloop
endfacet
facet normal -7.933552e-01 -6.087591e-01 0.000000e+00
    outer loop
        vertex 8.575735e+01 -2.724264e+01 7.055000e+01
        vertex 8.575735e+01 -2.724264e+01 7.745000e+01
        vertex 8.480385e+01 -2.600000e+01 7.745000e+01
    endloop
endfacet
facet normal -6.087595e-01 -7.933549e-01 0.000000e+00
    outer loop
        vertex 8.700000e+01 -2.819615e+01 7.055000e+01
        vertex 8.575735e+01 -2.724264e+01 7.745000e+01
        vertex 8.575735e+01 -2.724264e+01 7.055000e+01
    endloop
endfacet
facet normal -6.087595e-01 -7.933549e-01 0.000000e+00
    outer loop
        vertex 8.700000e+01 -2.819615e+01 7.055000e+01
        vertex 8.700000e+01 -2.819615e+01 7.745000e+01
        vertex 8.575735e+01 -2.724264e+01 7.745000e+01
    endloop
endfacet
facet normal -3.826846e-01 -9.238790e-01 0.000000e+00
    outer loop
        vertex 8.844708e+01 -2.879556e+01 7.055000e+01
        vertex 8.700000e+01 -2.819615e+01 7.745000e+01
        vertex 8.700000e+01 -2.819615e+01 7.055000e+01
    endloop
endfacet
facet normal -3.826846e-01 -9.238790e-01 0.000000e+00
    outer loop
        vertex 8.844708e+01 -2.879556e+01 7.055000e+01
        vertex 8.844708e+01 -2.879556e+01 7.745000e+01
        vertex 8.700000e+01 -2.819615e+01 7.745000e+01
    endloop
endfacet
facet normal -1.305258e-01 -9.914449e-01 0.000000e+00
    outer loop
        vertex 9.000000e+01 -2.900000e+01 7.055000e+01
        vertex 8.844708e+01 -2.879556e+01 7.745000e+01
        vertex 8.844708e+01 -2.879556e+01 7.055000e+01
    endloop
endfacet
facet normal -1.305258e-01 -9.914449e-01 0.000000e+00
    outer loop
        vertex 9.000000e+01 -2.900000e+01 7.055000e+01
        vertex 9.000000e+01 -2.900000e+01 7.745000e+01
        vertex 8.844708e+01 -2.879556e+01 7.745000e+01
    endloop
endfacet
facet normal 1.305258e-01 -9.914449e-01 0.000000e+00
    outer loop
        vertex 9.000000e+01 -2.900000e+01 7.055000e+01
        vertex 9.155292e+01 -2.879556e+01 7.055000e+01
        vertex 9.155292e+01 -2.879556e+01 7.745000e+01
    endloop
endfacet
facet normal 1.305258e-01 -9.914449e-01 0.000000e+00
    outer loop
        vertex 9.000000e+01 -2.900000e+01 7.055000e+01
        vertex 9.155292e+01 -2.879556e+01 7.745000e+01
        vertex 9.000000e+01 -2.900000e+01 7.745000e+01
    endloop
endfacet
facet normal 3.826846e-01 -9.238790e-01 0.000000e+00
    outer loop
        vertex 9.155292e+01 -2.879556e+01 7.055000e+01
        vertex 9.300000e+01 -2.819615e+01 7.055000e+01
        vertex 9.300000e+01 -2.819615e+01 7.745000e+01
    endloop
endfacet
facet normal 3.826846e-01 -9.238790e-01 0.000000e+00
    outer loop
        vertex 9.155292e+01 -2.879556e+01 7.055000e+01
        vertex 9.300000e+01 -2.819615e+01 7.745000e+01
        vertex 9.155292e+01 -2.879556e+01 7.745000e+01
    endloop
endfacet
facet normal 6.087618e-01 -7.933531e-01 0.000000e+00
    outer loop
        vertex 9.300000e+01 -2.819615e+01 7.055000e+01
        vertex 9.424264e+01 -2.724264e+01 7.055000e+01
        vertex 9.424264e+01 -2.724264e+01 7.745000e+01
    endloop
endfacet
facet normal 6.087618e-01 -7.933531e-01 0.000000e+00
    outer loop
        vertex 9.300000e+01 -2.819615e+01 7.055000e+01
        vertex 9.424264e+01 -2.724264e+01 7.745000e+01
        vertex 9.300000e+01 -2.819615e+01 7.745000e+01
    endloop
endfacet
facet normal 7.933528e-01 -6.087621e-01 0.000000e+00
    outer loop
        vertex 9.424264e+01 -2.724264e+01 7.055000e+01
        vertex 9.519615e+01 -2.600000e+01 7.055000e+01
        vertex 9.519615e+01 -2.600000e+01 7.745000e+01
    endloop
endfacet
facet normal 7.933528e-01 -6.087621e-01 0.000000e+00
    outer loop
        vertex 9.424264e+01 -2.724264e+01 7.055000e+01
        vertex 9.519615e+01 -2.600000e+01 7.745000e+01
        vertex 9.424264e+01 -2.724264e+01 7.745000e+01
    endloop
endfacet
facet normal 9.238794e-01 -3.826838e-01 0.000000e+00
    outer loop
        vertex 9.519615e+01 -2.600000e+01 7.055000e+01
        vertex 9.579556e+01 -2.455291e+01 7.055000e+01
        vertex 9.579556e+01 -2.455291e+01 7.745000e+01
    endloop
endfacet
facet normal 9.238794e-01 -3.826838e-01 0.000000e+00
    outer loop
        vertex 9.519615e+01 -2.600000e+01 7.055000e+01
        vertex 9.579556e+01 -2.455291e+01 7.745000e+01
        vertex 9.519615e+01 -2.600000e+01 7.745000e+01
    endloop
endfacet
facet normal 9.914449e-01 -1.305261e-01 0.000000e+00
    outer loop
        vertex 9.579556e+01 -2.455291e+01 7.055000e+01
        vertex 9.600000e+01 -2.300000e+01 7.055000e+01
        vertex 9.600000e+01 -2.300000e+01 7.745000e+01
    endloop
endfacet
facet normal 9.914449e-01 -1.305261e-01 0.000000e+00
    outer loop
        vertex 9.579556e+01 -2.455291e+01 7.055000e+01
        vertex 9.600000e+01 -2.300000e+01 7.745000e+01
        vertex 9.579556e+01 -2.455291e+01 7.745000e+01
    endloop
endfacet
facet normal -9.914444e-01 1.305295e-01 0.000000e+00
    outer loop
        vertex 9.338074e+01 -2.310587e+01 7.055000e+01
        vertex 9.350000e+01 -2.220000e+01 7.745000e+01
        vertex 9.350000e+01 -2.220000e+01 7.055000e+01
    endloop
endfacet
facet normal -9.914444e-01 1.305295e-01 0.000000e+00
    outer loop
        vertex 9.338074e+01 -2.310587e+01 7.055000e+01
        vertex 9.338074e+01 -2.310587e+01 7.745000e+01
        vertex 9.350000e+01 -2.220000e+01 7.745000e+01
    endloop
endfacet
facet normal -9.238811e-01 3.826797e-01 0.000000e+00
    outer loop
        vertex 9.303109e+01 -2.395000e+01 7.055000e+01
        vertex 9.338074e+01 -2.310587e+01 7.745000e+01
        vertex 9.338074e+01 -2.310587e+01 7.055000e+01
    endloop
endfacet
facet normal -9.238811e-01 3.826797e-01 0.000000e+00
    outer loop
        vertex 9.303109e+01 -2.395000e+01 7.055000e+01
        vertex 9.303109e+01 -2.395000e+01 7.745000e+01
        vertex 9.338074e+01 -2.310587e+01 7.745000e+01
    endloop
endfacet
facet normal -7.933546e-01 6.087598e-01 0.000000e+00
    outer loop
        vertex 9.247488e+01 -2.467488e+01 7.055000e+01
        vertex 9.303109e+01 -2.395000e+01 7.745000e+01
        vertex 9.303109e+01 -2.395000e+01 7.055000e+01
    endloop
endfacet
facet normal -7.933546e-01 6.087598e-01 0.000000e+00
    outer loop
        vertex 9.247488e+01 -2.467488e+01 7.055000e+01
        vertex 9.247488e+01 -2.467488e+01 7.745000e+01
        vertex 9.303109e+01 -2.395000e+01 7.745000e+01
    endloop
endfacet
facet normal -6.087601e-01 7.933544e-01 0.000000e+00
    outer loop
        vertex 9.175000e+01 -2.523109e+01 7.055000e+01
        vertex 9.247488e+01 -2.467488e+01 7.745000e+01
        vertex 9.247488e+01 -2.467488e+01 7.055000e+01
    endloop
endfacet
facet normal -6.087601e-01 7.933544e-01 0.000000e+00
    outer loop
        vertex 9.175000e+01 -2.523109e+01 7.055000e+01
        vertex 9.175000e+01 -2.523109e+01 7.745000e+01
        vertex 9.247488e+01 -2.467488e+01 7.745000e+01
    endloop
endfacet
facet normal -3.826840e-01 9.238793e-01 0.000000e+00
    outer loop
        vertex 9.090587e+01 -2.558074e+01 7.055000e+01
        vertex 9.175000e+01 -2.523109e+01 7.745000e+01
        vertex 9.175000e+01 -2.523109e+01 7.055000e+01
    endloop
endfacet
facet normal -3.826840e-01 9.238793e-01 0.000000e+00
    outer loop
        vertex 9.090587e+01 -2.558074e+01 7.055000e+01
        vertex 9.090587e+01 -2.558074e+01 7.745000e+01
        vertex 9.175000e+01 -2.523109e+01 7.745000e+01
    endloop
endfacet
facet normal -1.305251e-01 9.914450e-01 0.000000e+00
    outer loop
        vertex 9.000000e+01 -2.570000e+01 7.055000e+01
        vertex 9.090587e+01 -2.558074e+01 7.745000e+01
        vertex 9.090587e+01 -2.558074e+01 7.055000e+01
    endloop
endfacet
facet normal -1.305251e-01 9.914450e-01 0.000000e+00
    outer loop
        vertex 9.000000e+01 -2.570000e+01 7.055000e+01
        vertex 9.000000e+01 -2.570000e+01 7.745000e+01
        vertex 9.090587e+01 -2.558074e+01 7.745000e+01
    endloop
endfacet
facet normal 1.305251e-01 9.914450e-01 0.000000e+00
    outer loop
        vertex 9.000000e+01 -2.570000e+01 7.055000e+01
        vertex 8.909413e+01 -2.558074e+01 7.055000e+01
        vertex 8.909413e+01 -2.558074e+01 7.745000e+01
    endloop
endfacet
facet normal 1.305251e-01 9.914450e-01 -0.000000e+00
    outer loop
        vertex 9.000000e+01 -2.570000e+01 7.055000e+01
        vertex 8.909413e+01 -2.558074e+01 7.745000e+01
        vertex 9.000000e+01 -2.570000e+01 7.745000e+01
    endloop
endfacet
facet normal 3.826840e-01 9.238793e-01 0.000000e+00
    outer loop
        vertex 8.909413e+01 -2.558074e+01 7.055000e+01
        vertex 8.825000e+01 -2.523109e+01 7.055000e+01
        vertex 8.825000e+01 -2.523109e+01 7.745000e+01
    endloop
endfacet
facet normal 3.826840e-01 9.238793e-01 -0.000000e+00
    outer loop
        vertex 8.909413e+01 -2.558074e+01 7.055000e+01
        vertex 8.825000e+01 -2.523109e+01 7.745000e+01
        vertex 8.909413e+01 -2.558074e+01 7.745000e+01
    endloop
endfacet
facet normal 6.087601e-01 7.933544e-01 0.000000e+00
    outer loop
        vertex 8.825000e+01 -2.523109e+01 7.055000e+01
        vertex 8.752512e+01 -2.467488e+01 7.055000e+01
        vertex 8.752512e+01 -2.467488e+01 7.745000e+01
    endloop
endfacet
facet normal 6.087601e-01 7.933544e-01 -0.000000e+00
    outer loop
        vertex 8.825000e+01 -2.523109e+01 7.055000e+01
        vertex 8.752512e+01 -2.467488e+01 7.745000e+01
        vertex 8.825000e+01 -2.523109e+01 7.745000e+01
    endloop
endfacet
facet normal 7.933546e-01 6.087598e-01 0.000000e+00
    outer loop
        vertex 8.752512e+01 -2.467488e+01 7.055000e+01
        vertex 8.696891e+01 -2.395000e+01 7.055000e+01
        vertex 8.696891e+01 -2.395000e+01 7.745000e+01
    endloop
endfacet
facet normal 7.933546e-01 6.087598e-01 -0.000000e+00
    outer loop
        vertex 8.752512e+01 -2.467488e+01 7.055000e+01
        vertex 8.696891e+01 -2.395000e+01 7.745000e+01
        vertex 8.752512e+01 -2.467488e+01 7.745000e+01
    endloop
endfacet
facet normal 9.238811e-01 3.826797e-01 0.000000e+00
    outer loop
        vertex 8.696891e+01 -2.395000e+01 7.055000e+01
        vertex 8.661926e+01 -2.310587e+01 7.055000e+01
        vertex 8.661926e+01 -2.310587e+01 7.745000e+01
    endloop
endfacet
facet normal 9.238811e-01 3.826797e-01 -0.000000e+00
    outer loop
        vertex 8.696891e+01 -2.395000e+01 7.055000e+01
        vertex 8.661926e+01 -2.310587e+01 7.745000e+01
        vertex 8.696891e+01 -2.395000e+01 7.745000e+01
    endloop
endfacet
facet normal 9.914444e-01 1.305295e-01 0.000000e+00
    outer loop
        vertex 8.661926e+01 -2.310587e+01 7.055000e+01
        vertex 8.650000e+01 -2.220000e+01 7.055000e+01
        vertex 8.650000e+01 -2.220000e+01 7.745000e+01
    endloop
endfacet
facet normal 9.914444e-01 1.305295e-01 -0.000000e+00
    outer loop
        vertex 8.661926e+01 -2.310587e+01 7.055000e+01
        vertex 8.650000e+01 -2.220000e+01 7.745000e+01
        vertex 8.661926e+01 -2.310587e+01 7.745000e+01
    endloop
endfacet
facet normal 0.000000e+00 0.000000e+00 1.000000e+00
    outer loop
        vertex 3.650000e+01 -3.000000e+00 7.750000e+01
        vertex 8.500000e+01 -3.000000e+00 7.750000e+01
        vertex 3.650000e+01 3.000000e+00 7.750000e+01
    endloop
endfacet
facet normal 0.000000e+00 -0.000000e+00 1.000000e+00
    outer loop
        vertex 8.500000e+01 -3.000000e+00 7.750000e+01
        vertex 8.500000e+01 3.000000e+00 7.750000e+01
        vertex 3.650000e+01 3.000000e+00 7.750000e+01
    endloop
endfacet
facet normal 0.000000e+00 -9.615240e-01 2.747211e-01
    outer loop
        vertex 8.500000e+01 -5.000000e+00 7.050000e+01
        vertex 8.500000e+01 -3.000000e+00 7.750000e+01
        vertex 3.650000e+01 -3.000000e+00 7.750000e+01
    endloop
endfacet
facet normal 0.000000e+00 -9.615240e-01 2.747211e-01
    outer loop
        vertex 3.650000e+01 -5.000000e+00 7.050000e+01
        vertex 8.500000e+01 -5.000000e+00 7.050000e+01
        vertex 3.650000e+01 -3.000000e+00 7.750000e+01
    endloop
endfacet
facet normal 0.000000e+00 9.615240e-01 2.747211e-01
    outer loop
        vertex 8.500000e+01 3.000000e+00 7.750000e+01
        vertex 8.500000e+01 5.000000e+00 7.050000e+01
        vertex 3.650000e+01 5.000000e+00 7.050000e+01
    endloop
endfacet
facet normal -0.000000e+00 9.615240e-01 2.747211e-01
    outer loop
        vertex 3.650000e+01 3.000000e+00 7.750000e+01
        vertex 8.500000e+01 3.000000e+00 7.750000e+01
        vertex 3.650000e+01 5.000000e+00 7.050000e+01
    endloop
endfacet
facet normal -1.000000e+00 0.000000e+00 0.000000e+00
    outer loop
        vertex 3.450000e+01 -3.000000e+00 7.220000e+01
        vertex 3.450000e+01 -2.000000e+00 7.610000e+01
        vertex 3.450000e+01 3.000000e+00 7.220000e+01
    endloop
endfacet
facet normal -1.000000e+00 0.000000e+00 0.000000e+00
    outer loop
        vertex 3.450000e+01 -2.000000e+00 7.610000e+01
        vertex 3.450000e+01 2.000000e+00 7.610000e+01
        vertex 3.450000e+01 3.000000e+00 7.220000e+01
    endloop
endfacet
facet normal 0.000000e+00 0.000000e+00 -1.000000e+00
    outer loop
        vertex 3.650000e+01 -5.000000e+00 7.050000e+01
        vertex 8.500000e+01 5.000000e+00 7.050000e+01
        vertex 8.500000e+01 -5.000000e+00 7.050000e+01
    endloop
endfacet
facet normal 0.000000e+00 0.000000e+00 -1.000000e+00
    outer loop
        vertex 3.650000e+01 -5.000000e+00 7.050000e+01
        vertex 3.650000e+01 5.000000e+00 7.050000e+01
        vertex 8.500000e+01 5.000000e+00 7.050000e+01
    endloop
endfacet
facet normal -6.476477e-01 0.000000e+00 -7.619399e-01
    outer loop
        vertex 3.650000e+01 -5.000000e+00 7.050000e+01
        vertex 3.450000e+01 -3.000000e+00 7.220000e+01
        vertex 3.650000e+01 5.000000e+00 7.050000e+01
    endloop
endfacet
facet normal -6.476477e-01 0.000000e+00 -7.619399e-01
    outer loop
        vertex 3.450000e+01 -3.000000e+00 7.220000e+01
        vertex 3.450000e+01 3.000000e+00 7.220000e+01
        vertex 3.650000e+01 5.000000e+00 7.050000e+01
    endloop
endfacet
facet normal -5.734628e-01 0.000000e+00 8.192316e-01
    outer loop
        vertex 3.650000e+01 -3.000000e+00 7.750000e+01
        vertex 3.450000e+01 2.000000e+00 7.610000e+01
        vertex 3.450000e+01 -2.000000e+00 7.610000e+01
    endloop
endfacet
facet normal -5.734628e-01 0.000000e+00 8.192316e-01
    outer loop
        vertex 3.650000e+01 -3.000000e+00 7.750000e+01
        vertex 3.650000e+01 3.000000e+00 7.750000e+01
        vertex 3.450000e+01 2.000000e+00 7.610000e+01
    endloop
endfacet
facet normal -6.038423e-01 -7.721257e-01 1.979809e-01
    outer loop
        vertex 3.650000e+01 -5.000000e+00 7.050000e+01
        vertex 3.450000e+01 -2.000000e+00 7.610000e+01
        vertex 3.450000e+01 -3.000000e+00 7.220000e+01
    endloop
endfacet
facet normal -5.583707e-01 -7.976722e-01 2.279063e-01
    outer loop
        vertex 3.650000e+01 -5.000000e+00 7.050000e+01
        vertex 3.650000e+01 -3.000000e+00 7.750000e+01
        vertex 3.450000e+01 -2.000000e+00 7.610000e+01
    endloop
endfacet
facet normal -5.583707e-01 7.976722e-01 2.279063e-01
    outer loop
        vertex 3.450000e+01 2.000000e+00 7.610000e+01
        vertex 3.650000e+01 3.000000e+00 7.750000e+01
        vertex 3.650000e+01 5.000000e+00 7.050000e+01
    endloop
endfacet
facet normal -6.038423e-01 7.721257e-01 1.979809e-01
    outer loop
        vertex 3.450000e+01 2.000000e+00 7.610000e+01
        vertex 3.650000e+01 5.000000e+00 7.050000e+01
        vertex 3.450000e+01 3.000000e+00 7.220000e+01
    endloop
endfacet
facet normal 1.000000e+00 0.000000e+00 0.000000e+00
    outer loop
        vertex 8.500000e+01 -5.000000e+00 7.050000e+01
        vertex 8.500000e+01 5.000000e+00 7.050000e+01
        vertex 8.500000e+01 -3.000000e+00 7.750000e+01
    endloop
endfacet
facet normal 1.000000e+00 -0.000000e+00 0.000000e+00
    outer loop
        vertex 8.500000e+01 -3.000000e+00 7.750000e+01
        vertex 8.500000e+01 5.000000e+00 7.050000e+01
        vertex 8.500000e+01 3.000000e+00 7.750000e+01
    endloop
endfacet
endsolid pusher.stl
