solid trigger-cage-pins.stl
facet normal 1.000000e+00 0.000000e+00 0.000000e+00
    outer loop
        vertex -8.200000e+00 7.539137e+01 -3.600000e+01
        vertex -8.200000e+00 7.645451e+01 -3.558589e+01
        vertex -8.200000e+00 7.548026e+01 -3.532484e+01
    endloop
endfacet
facet normal 1.000000e+00 -0.000000e+00 0.000000e+00
    outer loop
        vertex -8.200000e+00 7.548026e+01 -3.532484e+01
        vertex -8.200000e+00 7.645451e+01 -3.558589e+01
        vertex -8.200000e+00 7.574086e+01 -3.469568e+01
    endloop
endfacet
facet normal 1.000000e+00 -0.000000e+00 0.000000e+00
    outer loop
        vertex -8.200000e+00 7.539137e+01 -3.600000e+01
        vertex -8.200000e+00 7.548026e+01 -3.667516e+01
        vertex -8.200000e+00 7.645451e+01 -3.558589e+01
    endloop
endfacet
facet normal 1.000000e+00 -0.000000e+00 0.000000e+00
    outer loop
        vertex -8.200000e+00 7.574086e+01 -3.469568e+01
        vertex -8.200000e+00 7.645451e+01 -3.558589e+01
        vertex -8.200000e+00 7.615542e+01 -3.415542e+01
    endloop
endfacet
facet normal 1.000000e+00 -0.000000e+00 0.000000e+00
    outer loop
        vertex -8.200000e+00 7.548026e+01 -3.667516e+01
        vertex -8.200000e+00 7.574086e+01 -3.730432e+01
        vertex -8.200000e+00 7.645451e+01 -3.558589e+01
    endloop
endfacet
facet normal 1.000000e+00 -0.000000e+00 0.000000e+00
    outer loop
        vertex -8.200000e+00 7.615542e+01 -3.415542e+01
        vertex -8.200000e+00 7.645451e+01 -3.558589e+01
        vertex -8.200000e+00 7.669569e+01 -3.374086e+01
    endloop
endfacet
facet normal 1.000000e+00 -0.000000e+00 0.000000e+00
    outer loop
        vertex -8.200000e+00 7.574086e+01 -3.730432e+01
        vertex -8.200000e+00 7.615542e+01 -3.784458e+01
        vertex -8.200000e+00 7.645451e+01 -3.558589e+01
    endloop
endfacet
facet normal 1.000000e+00 0.000000e+00 0.000000e+00
    outer loop
        vertex -8.200000e+00 7.645451e+01 -3.558589e+01
        vertex -8.200000e+00 7.732483e+01 -3.348026e+01
        vertex -8.200000e+00 7.669569e+01 -3.374086e+01
    endloop
endfacet
facet normal 1.000000e+00 0.000000e+00 0.000000e+00
    outer loop
        vertex -8.200000e+00 8.025914e+01 -3.730432e+01
        vertex -8.200000e+00 8.051974e+01 -3.667516e+01
        vertex -8.200000e+00 8.060863e+01 -3.600000e+01
    endloop
endfacet
facet normal 1.000000e+00 0.000000e+00 0.000000e+00
    outer loop
        vertex -8.200000e+00 7.984458e+01 -3.784458e+01
        vertex -8.200000e+00 8.025914e+01 -3.730432e+01
        vertex -8.200000e+00 8.060863e+01 -3.600000e+01
    endloop
endfacet
facet normal 1.000000e+00 0.000000e+00 0.000000e+00
    outer loop
        vertex -8.200000e+00 7.930431e+01 -3.825914e+01
        vertex -8.200000e+00 7.984458e+01 -3.784458e+01
        vertex -8.200000e+00 8.060863e+01 -3.600000e+01
    endloop
endfacet
facet normal 1.000000e+00 0.000000e+00 0.000000e+00
    outer loop
        vertex -8.200000e+00 7.930431e+01 -3.825914e+01
        vertex -8.200000e+00 8.060863e+01 -3.600000e+01
        vertex -8.200000e+00 8.051974e+01 -3.532484e+01
    endloop
endfacet
facet normal 1.000000e+00 0.000000e+00 0.000000e+00
    outer loop
        vertex -8.200000e+00 7.930431e+01 -3.825914e+01
        vertex -8.200000e+00 8.051974e+01 -3.532484e+01
        vertex -8.200000e+00 8.025914e+01 -3.469568e+01
    endloop
endfacet
facet normal 1.000000e+00 0.000000e+00 0.000000e+00
    outer loop
        vertex -8.200000e+00 7.930431e+01 -3.825914e+01
        vertex -8.200000e+00 8.025914e+01 -3.469568e+01
        vertex -8.200000e+00 7.984458e+01 -3.415542e+01
    endloop
endfacet
facet normal 1.000000e+00 0.000000e+00 0.000000e+00
    outer loop
        vertex -8.200000e+00 7.669569e+01 -3.825914e+01
        vertex -8.200000e+00 7.732483e+01 -3.851974e+01
        vertex -8.200000e+00 7.800000e+01 -3.860863e+01
    endloop
endfacet
facet normal 1.000000e+00 0.000000e+00 0.000000e+00
    outer loop
        vertex -8.200000e+00 7.615542e+01 -3.784458e+01
        vertex -8.200000e+00 7.669569e+01 -3.825914e+01
        vertex -8.200000e+00 7.800000e+01 -3.860863e+01
    endloop
endfacet
facet normal 1.000000e+00 0.000000e+00 0.000000e+00
    outer loop
        vertex -8.200000e+00 7.615542e+01 -3.784458e+01
        vertex -8.200000e+00 7.800000e+01 -3.860863e+01
        vertex -8.200000e+00 7.867517e+01 -3.851974e+01
    endloop
endfacet
facet normal 1.000000e+00 0.000000e+00 0.000000e+00
    outer loop
        vertex -8.200000e+00 7.615542e+01 -3.784458e+01
        vertex -8.200000e+00 7.867517e+01 -3.851974e+01
        vertex -8.200000e+00 7.930431e+01 -3.825914e+01
    endloop
endfacet
facet normal 1.000000e+00 0.000000e+00 0.000000e+00
    outer loop
        vertex -8.200000e+00 7.800000e+01 -3.339137e+01
        vertex -8.200000e+00 7.930431e+01 -3.374086e+01
        vertex -8.200000e+00 7.867517e+01 -3.348026e+01
    endloop
endfacet
facet normal 1.000000e+00 0.000000e+00 0.000000e+00
    outer loop
        vertex -8.200000e+00 7.800000e+01 -3.339137e+01
        vertex -8.200000e+00 7.984458e+01 -3.415542e+01
        vertex -8.200000e+00 7.930431e+01 -3.374086e+01
    endloop
endfacet
facet normal 1.000000e+00 -0.000000e+00 0.000000e+00
    outer loop
        vertex -8.200000e+00 7.732483e+01 -3.348026e+01
        vertex -8.200000e+00 7.984458e+01 -3.415542e+01
        vertex -8.200000e+00 7.800000e+01 -3.339137e+01
    endloop
endfacet
facet normal 1.000000e+00 0.000000e+00 0.000000e+00
    outer loop
        vertex -8.200000e+00 7.645451e+01 -3.558589e+01
        vertex -8.200000e+00 7.661436e+01 -3.520000e+01
        vertex -8.200000e+00 7.732483e+01 -3.348026e+01
    endloop
endfacet
facet normal 1.000000e+00 0.000000e+00 0.000000e+00
    outer loop
        vertex -8.200000e+00 7.661436e+01 -3.520000e+01
        vertex -8.200000e+00 7.686863e+01 -3.486863e+01
        vertex -8.200000e+00 7.732483e+01 -3.348026e+01
    endloop
endfacet
facet normal 1.000000e+00 0.000000e+00 0.000000e+00
    outer loop
        vertex -8.200000e+00 7.686863e+01 -3.486863e+01
        vertex -8.200000e+00 7.720000e+01 -3.461436e+01
        vertex -8.200000e+00 7.732483e+01 -3.348026e+01
    endloop
endfacet
facet normal 1.000000e+00 0.000000e+00 0.000000e+00
    outer loop
        vertex -8.200000e+00 7.720000e+01 -3.461436e+01
        vertex -8.200000e+00 7.758589e+01 -3.445452e+01
        vertex -8.200000e+00 7.732483e+01 -3.348026e+01
    endloop
endfacet
facet normal 1.000000e+00 0.000000e+00 0.000000e+00
    outer loop
        vertex -8.200000e+00 7.732483e+01 -3.348026e+01
        vertex -8.200000e+00 7.758589e+01 -3.445452e+01
        vertex -8.200000e+00 7.984458e+01 -3.415542e+01
    endloop
endfacet
facet normal 1.000000e+00 0.000000e+00 0.000000e+00
    outer loop
        vertex -8.200000e+00 7.615542e+01 -3.784458e+01
        vertex -8.200000e+00 7.640000e+01 -3.600000e+01
        vertex -8.200000e+00 7.645451e+01 -3.558589e+01
    endloop
endfacet
facet normal 1.000000e+00 0.000000e+00 0.000000e+00
    outer loop
        vertex -8.200000e+00 7.615542e+01 -3.784458e+01
        vertex -8.200000e+00 7.645451e+01 -3.641411e+01
        vertex -8.200000e+00 7.640000e+01 -3.600000e+01
    endloop
endfacet
facet normal 1.000000e+00 0.000000e+00 0.000000e+00
    outer loop
        vertex -8.200000e+00 7.615542e+01 -3.784458e+01
        vertex -8.200000e+00 7.661436e+01 -3.680000e+01
        vertex -8.200000e+00 7.645451e+01 -3.641411e+01
    endloop
endfacet
facet normal 1.000000e+00 0.000000e+00 0.000000e+00
    outer loop
        vertex -8.200000e+00 7.615542e+01 -3.784458e+01
        vertex -8.200000e+00 7.686863e+01 -3.713137e+01
        vertex -8.200000e+00 7.661436e+01 -3.680000e+01
    endloop
endfacet
facet normal 1.000000e+00 0.000000e+00 0.000000e+00
    outer loop
        vertex -8.200000e+00 7.615542e+01 -3.784458e+01
        vertex -8.200000e+00 7.720000e+01 -3.738564e+01
        vertex -8.200000e+00 7.686863e+01 -3.713137e+01
    endloop
endfacet
facet normal 1.000000e+00 -0.000000e+00 0.000000e+00
    outer loop
        vertex -8.200000e+00 7.615542e+01 -3.784458e+01
        vertex -8.200000e+00 7.930431e+01 -3.825914e+01
        vertex -8.200000e+00 7.720000e+01 -3.738564e+01
    endloop
endfacet
facet normal 1.000000e+00 0.000000e+00 0.000000e+00
    outer loop
        vertex -8.200000e+00 7.720000e+01 -3.738564e+01
        vertex -8.200000e+00 7.930431e+01 -3.825914e+01
        vertex -8.200000e+00 7.758589e+01 -3.754548e+01
    endloop
endfacet
facet normal 1.000000e+00 0.000000e+00 0.000000e+00
    outer loop
        vertex -8.200000e+00 7.758589e+01 -3.754548e+01
        vertex -8.200000e+00 7.930431e+01 -3.825914e+01
        vertex -8.200000e+00 7.800000e+01 -3.760000e+01
    endloop
endfacet
facet normal 1.000000e+00 -0.000000e+00 0.000000e+00
    outer loop
        vertex -8.200000e+00 7.800000e+01 -3.760000e+01
        vertex -8.200000e+00 7.930431e+01 -3.825914e+01
        vertex -8.200000e+00 7.841411e+01 -3.754548e+01
    endloop
endfacet
facet normal 1.000000e+00 -0.000000e+00 0.000000e+00
    outer loop
        vertex -8.200000e+00 7.841411e+01 -3.754548e+01
        vertex -8.200000e+00 7.930431e+01 -3.825914e+01
        vertex -8.200000e+00 7.880000e+01 -3.738564e+01
    endloop
endfacet
facet normal 1.000000e+00 -0.000000e+00 0.000000e+00
    outer loop
        vertex -8.200000e+00 7.880000e+01 -3.738564e+01
        vertex -8.200000e+00 7.930431e+01 -3.825914e+01
        vertex -8.200000e+00 7.913137e+01 -3.713137e+01
    endloop
endfacet
facet normal 1.000000e+00 -0.000000e+00 0.000000e+00
    outer loop
        vertex -8.200000e+00 7.913137e+01 -3.713137e+01
        vertex -8.200000e+00 7.930431e+01 -3.825914e+01
        vertex -8.200000e+00 7.938564e+01 -3.680000e+01
    endloop
endfacet
facet normal 1.000000e+00 0.000000e+00 0.000000e+00
    outer loop
        vertex -8.200000e+00 7.930431e+01 -3.825914e+01
        vertex -8.200000e+00 7.954549e+01 -3.641411e+01
        vertex -8.200000e+00 7.938564e+01 -3.680000e+01
    endloop
endfacet
facet normal 1.000000e+00 0.000000e+00 0.000000e+00
    outer loop
        vertex -8.200000e+00 7.930431e+01 -3.825914e+01
        vertex -8.200000e+00 7.984458e+01 -3.415542e+01
        vertex -8.200000e+00 7.954549e+01 -3.641411e+01
    endloop
endfacet
facet normal 1.000000e+00 0.000000e+00 0.000000e+00
    outer loop
        vertex -8.200000e+00 7.954549e+01 -3.641411e+01
        vertex -8.200000e+00 7.984458e+01 -3.415542e+01
        vertex -8.200000e+00 7.960000e+01 -3.600000e+01
    endloop
endfacet
facet normal 1.000000e+00 -0.000000e+00 0.000000e+00
    outer loop
        vertex -8.200000e+00 7.954549e+01 -3.558589e+01
        vertex -8.200000e+00 7.960000e+01 -3.600000e+01
        vertex -8.200000e+00 7.984458e+01 -3.415542e+01
    endloop
endfacet
facet normal 1.000000e+00 -0.000000e+00 0.000000e+00
    outer loop
        vertex -8.200000e+00 7.938564e+01 -3.520000e+01
        vertex -8.200000e+00 7.954549e+01 -3.558589e+01
        vertex -8.200000e+00 7.984458e+01 -3.415542e+01
    endloop
endfacet
facet normal 1.000000e+00 -0.000000e+00 0.000000e+00
    outer loop
        vertex -8.200000e+00 7.913137e+01 -3.486863e+01
        vertex -8.200000e+00 7.938564e+01 -3.520000e+01
        vertex -8.200000e+00 7.984458e+01 -3.415542e+01
    endloop
endfacet
facet normal 1.000000e+00 -0.000000e+00 0.000000e+00
    outer loop
        vertex -8.200000e+00 7.880000e+01 -3.461436e+01
        vertex -8.200000e+00 7.913137e+01 -3.486863e+01
        vertex -8.200000e+00 7.984458e+01 -3.415542e+01
    endloop
endfacet
facet normal 1.000000e+00 -0.000000e+00 0.000000e+00
    outer loop
        vertex -8.200000e+00 7.841411e+01 -3.445452e+01
        vertex -8.200000e+00 7.880000e+01 -3.461436e+01
        vertex -8.200000e+00 7.984458e+01 -3.415542e+01
    endloop
endfacet
facet normal 1.000000e+00 0.000000e+00 0.000000e+00
    outer loop
        vertex -8.200000e+00 7.758589e+01 -3.445452e+01
        vertex -8.200000e+00 7.800000e+01 -3.440000e+01
        vertex -8.200000e+00 7.984458e+01 -3.415542e+01
    endloop
endfacet
facet normal 1.000000e+00 -0.000000e+00 0.000000e+00
    outer loop
        vertex -8.200000e+00 7.800000e+01 -3.440000e+01
        vertex -8.200000e+00 7.841411e+01 -3.445452e+01
        vertex -8.200000e+00 7.984458e+01 -3.415542e+01
    endloop
endfacet
facet normal -1.000000e+00 0.000000e+00 0.000000e+00
    outer loop
        vertex -9.200000e+00 8.025914e+01 -3.730432e+01
        vertex -9.200000e+00 8.060863e+01 -3.600000e+01
        vertex -9.200000e+00 8.051974e+01 -3.667516e+01
    endloop
endfacet
facet normal -1.000000e+00 0.000000e+00 0.000000e+00
    outer loop
        vertex -9.200000e+00 7.984458e+01 -3.784458e+01
        vertex -9.200000e+00 8.060863e+01 -3.600000e+01
        vertex -9.200000e+00 8.025914e+01 -3.730432e+01
    endloop
endfacet
facet normal -1.000000e+00 0.000000e+00 0.000000e+00
    outer loop
        vertex -9.200000e+00 7.930431e+01 -3.825914e+01
        vertex -9.200000e+00 8.060863e+01 -3.600000e+01
        vertex -9.200000e+00 7.984458e+01 -3.784458e+01
    endloop
endfacet
facet normal -1.000000e+00 0.000000e+00 0.000000e+00
    outer loop
        vertex -9.200000e+00 7.930431e+01 -3.825914e+01
        vertex -9.200000e+00 8.051974e+01 -3.532484e+01
        vertex -9.200000e+00 8.060863e+01 -3.600000e+01
    endloop
endfacet
facet normal -1.000000e+00 0.000000e+00 0.000000e+00
    outer loop
        vertex -9.200000e+00 7.930431e+01 -3.825914e+01
        vertex -9.200000e+00 8.025914e+01 -3.469568e+01
        vertex -9.200000e+00 8.051974e+01 -3.532484e+01
    endloop
endfacet
facet normal -1.000000e+00 0.000000e+00 0.000000e+00
    outer loop
        vertex -9.200000e+00 7.930431e+01 -3.825914e+01
        vertex -9.200000e+00 7.984458e+01 -3.415542e+01
        vertex -9.200000e+00 8.025914e+01 -3.469568e+01
    endloop
endfacet
facet normal -1.000000e+00 0.000000e+00 0.000000e+00
    outer loop
        vertex -9.200000e+00 7.930431e+01 -3.825914e+01
        vertex -9.200000e+00 7.930431e+01 -3.374086e+01
        vertex -9.200000e+00 7.984458e+01 -3.415542e+01
    endloop
endfacet
facet normal -1.000000e+00 0.000000e+00 0.000000e+00
    outer loop
        vertex -9.200000e+00 7.867517e+01 -3.851974e+01
        vertex -9.200000e+00 7.930431e+01 -3.374086e+01
        vertex -9.200000e+00 7.930431e+01 -3.825914e+01
    endloop
endfacet
facet normal -1.000000e+00 0.000000e+00 0.000000e+00
    outer loop
        vertex -9.200000e+00 7.800000e+01 -3.860863e+01
        vertex -9.200000e+00 7.930431e+01 -3.374086e+01
        vertex -9.200000e+00 7.867517e+01 -3.851974e+01
    endloop
endfacet
facet normal -1.000000e+00 0.000000e+00 0.000000e+00
    outer loop
        vertex -9.200000e+00 7.732483e+01 -3.851974e+01
        vertex -9.200000e+00 7.930431e+01 -3.374086e+01
        vertex -9.200000e+00 7.800000e+01 -3.860863e+01
    endloop
endfacet
facet normal -1.000000e+00 0.000000e+00 0.000000e+00
    outer loop
        vertex -9.200000e+00 7.669569e+01 -3.825914e+01
        vertex -9.200000e+00 7.930431e+01 -3.374086e+01
        vertex -9.200000e+00 7.732483e+01 -3.851974e+01
    endloop
endfacet
facet normal -1.000000e+00 0.000000e+00 0.000000e+00
    outer loop
        vertex -9.200000e+00 7.615542e+01 -3.784458e+01
        vertex -9.200000e+00 7.930431e+01 -3.374086e+01
        vertex -9.200000e+00 7.669569e+01 -3.825914e+01
    endloop
endfacet
facet normal -1.000000e+00 0.000000e+00 0.000000e+00
    outer loop
        vertex -9.200000e+00 7.574086e+01 -3.730432e+01
        vertex -9.200000e+00 7.930431e+01 -3.374086e+01
        vertex -9.200000e+00 7.615542e+01 -3.784458e+01
    endloop
endfacet
facet normal -1.000000e+00 0.000000e+00 0.000000e+00
    outer loop
        vertex -9.200000e+00 7.548026e+01 -3.667516e+01
        vertex -9.200000e+00 7.930431e+01 -3.374086e+01
        vertex -9.200000e+00 7.574086e+01 -3.730432e+01
    endloop
endfacet
facet normal -1.000000e+00 0.000000e+00 0.000000e+00
    outer loop
        vertex -9.200000e+00 7.539137e+01 -3.600000e+01
        vertex -9.200000e+00 7.930431e+01 -3.374086e+01
        vertex -9.200000e+00 7.548026e+01 -3.667516e+01
    endloop
endfacet
facet normal -1.000000e+00 0.000000e+00 0.000000e+00
    outer loop
        vertex -9.200000e+00 7.539137e+01 -3.600000e+01
        vertex -9.200000e+00 7.548026e+01 -3.532484e+01
        vertex -9.200000e+00 7.930431e+01 -3.374086e+01
    endloop
endfacet
facet normal -1.000000e+00 0.000000e+00 0.000000e+00
    outer loop
        vertex -9.200000e+00 7.548026e+01 -3.532484e+01
        vertex -9.200000e+00 7.574086e+01 -3.469568e+01
        vertex -9.200000e+00 7.930431e+01 -3.374086e+01
    endloop
endfacet
facet normal -1.000000e+00 0.000000e+00 0.000000e+00
    outer loop
        vertex -9.200000e+00 7.574086e+01 -3.469568e+01
        vertex -9.200000e+00 7.615542e+01 -3.415542e+01
        vertex -9.200000e+00 7.930431e+01 -3.374086e+01
    endloop
endfacet
facet normal -1.000000e+00 0.000000e+00 0.000000e+00
    outer loop
        vertex -9.200000e+00 7.615542e+01 -3.415542e+01
        vertex -9.200000e+00 7.669569e+01 -3.374086e+01
        vertex -9.200000e+00 7.930431e+01 -3.374086e+01
    endloop
endfacet
facet normal -1.000000e+00 0.000000e+00 0.000000e+00
    outer loop
        vertex -9.200000e+00 7.669569e+01 -3.374086e+01
        vertex -9.200000e+00 7.732483e+01 -3.348026e+01
        vertex -9.200000e+00 7.930431e+01 -3.374086e+01
    endloop
endfacet
facet normal -1.000000e+00 0.000000e+00 0.000000e+00
    outer loop
        vertex -9.200000e+00 7.732483e+01 -3.348026e+01
        vertex -9.200000e+00 7.800000e+01 -3.339137e+01
        vertex -9.200000e+00 7.930431e+01 -3.374086e+01
    endloop
endfacet
facet normal -1.000000e+00 0.000000e+00 0.000000e+00
    outer loop
        vertex -9.200000e+00 7.800000e+01 -3.339137e+01
        vertex -9.200000e+00 7.867517e+01 -3.348026e+01
        vertex -9.200000e+00 7.930431e+01 -3.374086e+01
    endloop
endfacet
facet normal 0.000000e+00 9.914469e-01 1.305112e-01
    outer loop
        vertex 8.000000e+00 7.954549e+01 -3.558589e+01
        vertex 8.000000e+00 7.960000e+01 -3.600000e+01
        vertex -8.200000e+00 7.960000e+01 -3.600000e+01
    endloop
endfacet
facet normal 0.000000e+00 9.914469e-01 1.305112e-01
    outer loop
        vertex 8.000000e+00 7.954549e+01 -3.558589e+01
        vertex -8.200000e+00 7.960000e+01 -3.600000e+01
        vertex -8.200000e+00 7.954549e+01 -3.558589e+01
    endloop
endfacet
facet normal 0.000000e+00 9.238712e-01 3.827035e-01
    outer loop
        vertex 8.000000e+00 7.938564e+01 -3.520000e+01
        vertex 8.000000e+00 7.954549e+01 -3.558589e+01
        vertex -8.200000e+00 7.954549e+01 -3.558589e+01
    endloop
endfacet
facet normal 0.000000e+00 9.238712e-01 3.827035e-01
    outer loop
        vertex 8.000000e+00 7.938564e+01 -3.520000e+01
        vertex -8.200000e+00 7.954549e+01 -3.558589e+01
        vertex -8.200000e+00 7.938564e+01 -3.520000e+01
    endloop
endfacet
facet normal 0.000000e+00 7.933595e-01 6.087534e-01
    outer loop
        vertex 8.000000e+00 7.913137e+01 -3.486863e+01
        vertex 8.000000e+00 7.938564e+01 -3.520000e+01
        vertex -8.200000e+00 7.938564e+01 -3.520000e+01
    endloop
endfacet
facet normal 0.000000e+00 7.933595e-01 6.087534e-01
    outer loop
        vertex 8.000000e+00 7.913137e+01 -3.486863e+01
        vertex -8.200000e+00 7.938564e+01 -3.520000e+01
        vertex -8.200000e+00 7.913137e+01 -3.486863e+01
    endloop
endfacet
facet normal 0.000000e+00 6.087693e-01 7.933473e-01
    outer loop
        vertex 8.000000e+00 7.880000e+01 -3.461436e+01
        vertex 8.000000e+00 7.913137e+01 -3.486863e+01
        vertex -8.200000e+00 7.913137e+01 -3.486863e+01
    endloop
endfacet
facet normal 0.000000e+00 6.087693e-01 7.933473e-01
    outer loop
        vertex 8.000000e+00 7.880000e+01 -3.461436e+01
        vertex -8.200000e+00 7.913137e+01 -3.486863e+01
        vertex -8.200000e+00 7.880000e+01 -3.461436e+01
    endloop
endfacet
facet normal 0.000000e+00 3.826768e-01 9.238822e-01
    outer loop
        vertex 8.000000e+00 7.841411e+01 -3.445452e+01
        vertex 8.000000e+00 7.880000e+01 -3.461436e+01
        vertex -8.200000e+00 7.880000e+01 -3.461436e+01
    endloop
endfacet
facet normal 0.000000e+00 3.826768e-01 9.238822e-01
    outer loop
        vertex 8.000000e+00 7.841411e+01 -3.445452e+01
        vertex -8.200000e+00 7.880000e+01 -3.461436e+01
        vertex -8.200000e+00 7.841411e+01 -3.445452e+01
    endloop
endfacet
facet normal 0.000000e+00 1.305202e-01 9.914457e-01
    outer loop
        vertex 8.000000e+00 7.800000e+01 -3.440000e+01
        vertex 8.000000e+00 7.841411e+01 -3.445452e+01
        vertex -8.200000e+00 7.841411e+01 -3.445452e+01
    endloop
endfacet
facet normal 0.000000e+00 1.305202e-01 9.914457e-01
    outer loop
        vertex 8.000000e+00 7.800000e+01 -3.440000e+01
        vertex -8.200000e+00 7.841411e+01 -3.445452e+01
        vertex -8.200000e+00 7.800000e+01 -3.440000e+01
    endloop
endfacet
facet normal 0.000000e+00 -1.305202e-01 9.914457e-01
    outer loop
        vertex 8.000000e+00 7.758589e+01 -3.445452e+01
        vertex 8.000000e+00 7.800000e+01 -3.440000e+01
        vertex -8.200000e+00 7.758589e+01 -3.445452e+01
    endloop
endfacet
facet normal 0.000000e+00 -1.305202e-01 9.914457e-01
    outer loop
        vertex -8.200000e+00 7.758589e+01 -3.445452e+01
        vertex 8.000000e+00 7.800000e+01 -3.440000e+01
        vertex -8.200000e+00 7.800000e+01 -3.440000e+01
    endloop
endfacet
facet normal 0.000000e+00 -3.826768e-01 9.238822e-01
    outer loop
        vertex 8.000000e+00 7.720000e+01 -3.461436e+01
        vertex 8.000000e+00 7.758589e+01 -3.445452e+01
        vertex -8.200000e+00 7.720000e+01 -3.461436e+01
    endloop
endfacet
facet normal 0.000000e+00 -3.826768e-01 9.238822e-01
    outer loop
        vertex -8.200000e+00 7.720000e+01 -3.461436e+01
        vertex 8.000000e+00 7.758589e+01 -3.445452e+01
        vertex -8.200000e+00 7.758589e+01 -3.445452e+01
    endloop
endfacet
facet normal 0.000000e+00 -6.087693e-01 7.933473e-01
    outer loop
        vertex 8.000000e+00 7.686863e+01 -3.486863e+01
        vertex 8.000000e+00 7.720000e+01 -3.461436e+01
        vertex -8.200000e+00 7.686863e+01 -3.486863e+01
    endloop
endfacet
facet normal 0.000000e+00 -6.087693e-01 7.933473e-01
    outer loop
        vertex -8.200000e+00 7.686863e+01 -3.486863e+01
        vertex 8.000000e+00 7.720000e+01 -3.461436e+01
        vertex -8.200000e+00 7.720000e+01 -3.461436e+01
    endloop
endfacet
facet normal 0.000000e+00 -7.933595e-01 6.087534e-01
    outer loop
        vertex 8.000000e+00 7.661436e+01 -3.520000e+01
        vertex 8.000000e+00 7.686863e+01 -3.486863e+01
        vertex -8.200000e+00 7.661436e+01 -3.520000e+01
    endloop
endfacet
facet normal 0.000000e+00 -7.933595e-01 6.087534e-01
    outer loop
        vertex -8.200000e+00 7.661436e+01 -3.520000e+01
        vertex 8.000000e+00 7.686863e+01 -3.486863e+01
        vertex -8.200000e+00 7.686863e+01 -3.486863e+01
    endloop
endfacet
facet normal 0.000000e+00 -9.238712e-01 3.827035e-01
    outer loop
        vertex 8.000000e+00 7.645451e+01 -3.558589e+01
        vertex 8.000000e+00 7.661436e+01 -3.520000e+01
        vertex -8.200000e+00 7.645451e+01 -3.558589e+01
    endloop
endfacet
facet normal 0.000000e+00 -9.238712e-01 3.827035e-01
    outer loop
        vertex -8.200000e+00 7.645451e+01 -3.558589e+01
        vertex 8.000000e+00 7.661436e+01 -3.520000e+01
        vertex -8.200000e+00 7.661436e+01 -3.520000e+01
    endloop
endfacet
facet normal 0.000000e+00 -9.914469e-01 1.305112e-01
    outer loop
        vertex 8.000000e+00 7.640000e+01 -3.600000e+01
        vertex 8.000000e+00 7.645451e+01 -3.558589e+01
        vertex -8.200000e+00 7.640000e+01 -3.600000e+01
    endloop
endfacet
facet normal 0.000000e+00 -9.914469e-01 1.305112e-01
    outer loop
        vertex -8.200000e+00 7.640000e+01 -3.600000e+01
        vertex 8.000000e+00 7.645451e+01 -3.558589e+01
        vertex -8.200000e+00 7.645451e+01 -3.558589e+01
    endloop
endfacet
facet normal 0.000000e+00 -9.914469e-01 -1.305112e-01
    outer loop
        vertex 8.000000e+00 7.640000e+01 -3.600000e+01
        vertex -8.200000e+00 7.645451e+01 -3.641411e+01
        vertex 8.000000e+00 7.645451e+01 -3.641411e+01
    endloop
endfacet
facet normal -0.000000e+00 -9.914469e-01 -1.305112e-01
    outer loop
        vertex 8.000000e+00 7.640000e+01 -3.600000e+01
        vertex -8.200000e+00 7.640000e+01 -3.600000e+01
        vertex -8.200000e+00 7.645451e+01 -3.641411e+01
    endloop
endfacet
facet normal 0.000000e+00 -9.238712e-01 -3.827035e-01
    outer loop
        vertex 8.000000e+00 7.645451e+01 -3.641411e+01
        vertex -8.200000e+00 7.661436e+01 -3.680000e+01
        vertex 8.000000e+00 7.661436e+01 -3.680000e+01
    endloop
endfacet
facet normal -0.000000e+00 -9.238712e-01 -3.827035e-01
    outer loop
        vertex 8.000000e+00 7.645451e+01 -3.641411e+01
        vertex -8.200000e+00 7.645451e+01 -3.641411e+01
        vertex -8.200000e+00 7.661436e+01 -3.680000e+01
    endloop
endfacet
facet normal 0.000000e+00 -7.933595e-01 -6.087534e-01
    outer loop
        vertex 8.000000e+00 7.661436e+01 -3.680000e+01
        vertex -8.200000e+00 7.686863e+01 -3.713137e+01
        vertex 8.000000e+00 7.686863e+01 -3.713137e+01
    endloop
endfacet
facet normal -0.000000e+00 -7.933595e-01 -6.087534e-01
    outer loop
        vertex 8.000000e+00 7.661436e+01 -3.680000e+01
        vertex -8.200000e+00 7.661436e+01 -3.680000e+01
        vertex -8.200000e+00 7.686863e+01 -3.713137e+01
    endloop
endfacet
facet normal 0.000000e+00 -6.087693e-01 -7.933473e-01
    outer loop
        vertex 8.000000e+00 7.686863e+01 -3.713137e+01
        vertex -8.200000e+00 7.720000e+01 -3.738564e+01
        vertex 8.000000e+00 7.720000e+01 -3.738564e+01
    endloop
endfacet
facet normal -0.000000e+00 -6.087693e-01 -7.933473e-01
    outer loop
        vertex 8.000000e+00 7.686863e+01 -3.713137e+01
        vertex -8.200000e+00 7.686863e+01 -3.713137e+01
        vertex -8.200000e+00 7.720000e+01 -3.738564e+01
    endloop
endfacet
facet normal 0.000000e+00 -3.826768e-01 -9.238822e-01
    outer loop
        vertex 8.000000e+00 7.720000e+01 -3.738564e+01
        vertex -8.200000e+00 7.758589e+01 -3.754548e+01
        vertex 8.000000e+00 7.758589e+01 -3.754548e+01
    endloop
endfacet
facet normal -0.000000e+00 -3.826768e-01 -9.238822e-01
    outer loop
        vertex 8.000000e+00 7.720000e+01 -3.738564e+01
        vertex -8.200000e+00 7.720000e+01 -3.738564e+01
        vertex -8.200000e+00 7.758589e+01 -3.754548e+01
    endloop
endfacet
facet normal 0.000000e+00 -1.305202e-01 -9.914457e-01
    outer loop
        vertex 8.000000e+00 7.758589e+01 -3.754548e+01
        vertex -8.200000e+00 7.800000e+01 -3.760000e+01
        vertex 8.000000e+00 7.800000e+01 -3.760000e+01
    endloop
endfacet
facet normal -0.000000e+00 -1.305202e-01 -9.914457e-01
    outer loop
        vertex 8.000000e+00 7.758589e+01 -3.754548e+01
        vertex -8.200000e+00 7.758589e+01 -3.754548e+01
        vertex -8.200000e+00 7.800000e+01 -3.760000e+01
    endloop
endfacet
facet normal 0.000000e+00 1.305202e-01 -9.914457e-01
    outer loop
        vertex 8.000000e+00 7.800000e+01 -3.760000e+01
        vertex -8.200000e+00 7.800000e+01 -3.760000e+01
        vertex 8.000000e+00 7.841411e+01 -3.754548e+01
    endloop
endfacet
facet normal 0.000000e+00 1.305202e-01 -9.914457e-01
    outer loop
        vertex -8.200000e+00 7.800000e+01 -3.760000e+01
        vertex -8.200000e+00 7.841411e+01 -3.754548e+01
        vertex 8.000000e+00 7.841411e+01 -3.754548e+01
    endloop
endfacet
facet normal 0.000000e+00 3.826768e-01 -9.238822e-01
    outer loop
        vertex 8.000000e+00 7.841411e+01 -3.754548e+01
        vertex -8.200000e+00 7.841411e+01 -3.754548e+01
        vertex 8.000000e+00 7.880000e+01 -3.738564e+01
    endloop
endfacet
facet normal 0.000000e+00 3.826768e-01 -9.238822e-01
    outer loop
        vertex -8.200000e+00 7.841411e+01 -3.754548e+01
        vertex -8.200000e+00 7.880000e+01 -3.738564e+01
        vertex 8.000000e+00 7.880000e+01 -3.738564e+01
    endloop
endfacet
facet normal 0.000000e+00 6.087693e-01 -7.933473e-01
    outer loop
        vertex 8.000000e+00 7.880000e+01 -3.738564e+01
        vertex -8.200000e+00 7.880000e+01 -3.738564e+01
        vertex 8.000000e+00 7.913137e+01 -3.713137e+01
    endloop
endfacet
facet normal 0.000000e+00 6.087693e-01 -7.933473e-01
    outer loop
        vertex -8.200000e+00 7.880000e+01 -3.738564e+01
        vertex -8.200000e+00 7.913137e+01 -3.713137e+01
        vertex 8.000000e+00 7.913137e+01 -3.713137e+01
    endloop
endfacet
facet normal 0.000000e+00 7.933595e-01 -6.087534e-01
    outer loop
        vertex 8.000000e+00 7.913137e+01 -3.713137e+01
        vertex -8.200000e+00 7.913137e+01 -3.713137e+01
        vertex 8.000000e+00 7.938564e+01 -3.680000e+01
    endloop
endfacet
facet normal 0.000000e+00 7.933595e-01 -6.087534e-01
    outer loop
        vertex -8.200000e+00 7.913137e+01 -3.713137e+01
        vertex -8.200000e+00 7.938564e+01 -3.680000e+01
        vertex 8.000000e+00 7.938564e+01 -3.680000e+01
    endloop
endfacet
facet normal 0.000000e+00 9.238712e-01 -3.827035e-01
    outer loop
        vertex 8.000000e+00 7.938564e+01 -3.680000e+01
        vertex -8.200000e+00 7.938564e+01 -3.680000e+01
        vertex 8.000000e+00 7.954549e+01 -3.641411e+01
    endloop
endfacet
facet normal 0.000000e+00 9.238712e-01 -3.827035e-01
    outer loop
        vertex -8.200000e+00 7.938564e+01 -3.680000e+01
        vertex -8.200000e+00 7.954549e+01 -3.641411e+01
        vertex 8.000000e+00 7.954549e+01 -3.641411e+01
    endloop
endfacet
facet normal 0.000000e+00 9.914469e-01 -1.305112e-01
    outer loop
        vertex 8.000000e+00 7.954549e+01 -3.641411e+01
        vertex -8.200000e+00 7.954549e+01 -3.641411e+01
        vertex 8.000000e+00 7.960000e+01 -3.600000e+01
    endloop
endfacet
facet normal 0.000000e+00 9.914469e-01 -1.305112e-01
    outer loop
        vertex -8.200000e+00 7.954549e+01 -3.641411e+01
        vertex -8.200000e+00 7.960000e+01 -3.600000e+01
        vertex 8.000000e+00 7.960000e+01 -3.600000e+01
    endloop
endfacet
facet normal 1.000000e+00 0.000000e+00 0.000000e+00
    outer loop
        vertex 8.000000e+00 7.938564e+01 -3.520000e+01
        vertex 8.000000e+00 7.960000e+01 -3.600000e+01
        vertex 8.000000e+00 7.954549e+01 -3.558589e+01
    endloop
endfacet
facet normal 1.000000e+00 0.000000e+00 0.000000e+00
    outer loop
        vertex 8.000000e+00 7.938564e+01 -3.520000e+01
        vertex 8.000000e+00 7.954549e+01 -3.641411e+01
        vertex 8.000000e+00 7.960000e+01 -3.600000e+01
    endloop
endfacet
facet normal 1.000000e+00 0.000000e+00 0.000000e+00
    outer loop
        vertex 8.000000e+00 7.938564e+01 -3.680000e+01
        vertex 8.000000e+00 7.954549e+01 -3.641411e+01
        vertex 8.000000e+00 7.938564e+01 -3.520000e+01
    endloop
endfacet
facet normal 1.000000e+00 0.000000e+00 0.000000e+00
    outer loop
        vertex 8.000000e+00 7.913137e+01 -3.486863e+01
        vertex 8.000000e+00 7.938564e+01 -3.680000e+01
        vertex 8.000000e+00 7.938564e+01 -3.520000e+01
    endloop
endfacet
facet normal 1.000000e+00 0.000000e+00 0.000000e+00
    outer loop
        vertex 8.000000e+00 7.880000e+01 -3.461436e+01
        vertex 8.000000e+00 7.938564e+01 -3.680000e+01
        vertex 8.000000e+00 7.913137e+01 -3.486863e+01
    endloop
endfacet
facet normal 1.000000e+00 0.000000e+00 0.000000e+00
    outer loop
        vertex 8.000000e+00 7.841411e+01 -3.445452e+01
        vertex 8.000000e+00 7.938564e+01 -3.680000e+01
        vertex 8.000000e+00 7.880000e+01 -3.461436e+01
    endloop
endfacet
facet normal 1.000000e+00 0.000000e+00 0.000000e+00
    outer loop
        vertex 8.000000e+00 7.800000e+01 -3.440000e+01
        vertex 8.000000e+00 7.938564e+01 -3.680000e+01
        vertex 8.000000e+00 7.841411e+01 -3.445452e+01
    endloop
endfacet
facet normal 1.000000e+00 -0.000000e+00 0.000000e+00
    outer loop
        vertex 8.000000e+00 7.758589e+01 -3.445452e+01
        vertex 8.000000e+00 7.938564e+01 -3.680000e+01
        vertex 8.000000e+00 7.800000e+01 -3.440000e+01
    endloop
endfacet
facet normal 1.000000e+00 -0.000000e+00 0.000000e+00
    outer loop
        vertex 8.000000e+00 7.720000e+01 -3.461436e+01
        vertex 8.000000e+00 7.938564e+01 -3.680000e+01
        vertex 8.000000e+00 7.758589e+01 -3.445452e+01
    endloop
endfacet
facet normal 1.000000e+00 -0.000000e+00 0.000000e+00
    outer loop
        vertex 8.000000e+00 7.686863e+01 -3.486863e+01
        vertex 8.000000e+00 7.938564e+01 -3.680000e+01
        vertex 8.000000e+00 7.720000e+01 -3.461436e+01
    endloop
endfacet
facet normal 1.000000e+00 -0.000000e+00 0.000000e+00
    outer loop
        vertex 8.000000e+00 7.661436e+01 -3.520000e+01
        vertex 8.000000e+00 7.938564e+01 -3.680000e+01
        vertex 8.000000e+00 7.686863e+01 -3.486863e+01
    endloop
endfacet
facet normal 1.000000e+00 -0.000000e+00 0.000000e+00
    outer loop
        vertex 8.000000e+00 7.645451e+01 -3.558589e+01
        vertex 8.000000e+00 7.938564e+01 -3.680000e+01
        vertex 8.000000e+00 7.661436e+01 -3.520000e+01
    endloop
endfacet
facet normal 1.000000e+00 0.000000e+00 0.000000e+00
    outer loop
        vertex 8.000000e+00 7.645451e+01 -3.558589e+01
        vertex 8.000000e+00 7.913137e+01 -3.713137e+01
        vertex 8.000000e+00 7.938564e+01 -3.680000e+01
    endloop
endfacet
facet normal 1.000000e+00 0.000000e+00 0.000000e+00
    outer loop
        vertex 8.000000e+00 7.645451e+01 -3.558589e+01
        vertex 8.000000e+00 7.880000e+01 -3.738564e+01
        vertex 8.000000e+00 7.913137e+01 -3.713137e+01
    endloop
endfacet
facet normal 1.000000e+00 0.000000e+00 0.000000e+00
    outer loop
        vertex 8.000000e+00 7.645451e+01 -3.558589e+01
        vertex 8.000000e+00 7.841411e+01 -3.754548e+01
        vertex 8.000000e+00 7.880000e+01 -3.738564e+01
    endloop
endfacet
facet normal 1.000000e+00 0.000000e+00 0.000000e+00
    outer loop
        vertex 8.000000e+00 7.645451e+01 -3.558589e+01
        vertex 8.000000e+00 7.800000e+01 -3.760000e+01
        vertex 8.000000e+00 7.841411e+01 -3.754548e+01
    endloop
endfacet
facet normal 1.000000e+00 0.000000e+00 0.000000e+00
    outer loop
        vertex 8.000000e+00 7.645451e+01 -3.558589e+01
        vertex 8.000000e+00 7.758589e+01 -3.754548e+01
        vertex 8.000000e+00 7.800000e+01 -3.760000e+01
    endloop
endfacet
facet normal 1.000000e+00 0.000000e+00 0.000000e+00
    outer loop
        vertex 8.000000e+00 7.645451e+01 -3.558589e+01
        vertex 8.000000e+00 7.720000e+01 -3.738564e+01
        vertex 8.000000e+00 7.758589e+01 -3.754548e+01
    endloop
endfacet
facet normal 1.000000e+00 0.000000e+00 0.000000e+00
    outer loop
        vertex 8.000000e+00 7.645451e+01 -3.558589e+01
        vertex 8.000000e+00 7.686863e+01 -3.713137e+01
        vertex 8.000000e+00 7.720000e+01 -3.738564e+01
    endloop
endfacet
facet normal 1.000000e+00 0.000000e+00 0.000000e+00
    outer loop
        vertex 8.000000e+00 7.645451e+01 -3.558589e+01
        vertex 8.000000e+00 7.661436e+01 -3.680000e+01
        vertex 8.000000e+00 7.686863e+01 -3.713137e+01
    endloop
endfacet
facet normal 1.000000e+00 -0.000000e+00 0.000000e+00
    outer loop
        vertex 8.000000e+00 7.640000e+01 -3.600000e+01
        vertex 8.000000e+00 7.661436e+01 -3.680000e+01
        vertex 8.000000e+00 7.645451e+01 -3.558589e+01
    endloop
endfacet
facet normal 1.000000e+00 0.000000e+00 0.000000e+00
    outer loop
        vertex 8.000000e+00 7.640000e+01 -3.600000e+01
        vertex 8.000000e+00 7.645451e+01 -3.641411e+01
        vertex 8.000000e+00 7.661436e+01 -3.680000e+01
    endloop
endfacet
facet normal 0.000000e+00 9.914457e-01 -1.305197e-01
    outer loop
        vertex -8.200000e+00 8.051974e+01 -3.667516e+01
        vertex -9.200000e+00 8.051974e+01 -3.667516e+01
        vertex -8.200000e+00 8.060863e+01 -3.600000e+01
    endloop
endfacet
facet normal 0.000000e+00 9.914457e-01 -1.305197e-01
    outer loop
        vertex -9.200000e+00 8.051974e+01 -3.667516e+01
        vertex -9.200000e+00 8.060863e+01 -3.600000e+01
        vertex -8.200000e+00 8.060863e+01 -3.600000e+01
    endloop
endfacet
facet normal 0.000000e+00 9.914457e-01 1.305197e-01
    outer loop
        vertex -8.200000e+00 8.051974e+01 -3.532484e+01
        vertex -8.200000e+00 8.060863e+01 -3.600000e+01
        vertex -9.200000e+00 8.060863e+01 -3.600000e+01
    endloop
endfacet
facet normal 0.000000e+00 9.914457e-01 1.305197e-01
    outer loop
        vertex -8.200000e+00 8.051974e+01 -3.532484e+01
        vertex -9.200000e+00 8.060863e+01 -3.600000e+01
        vertex -9.200000e+00 8.051974e+01 -3.532484e+01
    endloop
endfacet
facet normal 0.000000e+00 9.238792e-01 3.826843e-01
    outer loop
        vertex -8.200000e+00 8.025914e+01 -3.469568e+01
        vertex -8.200000e+00 8.051974e+01 -3.532484e+01
        vertex -9.200000e+00 8.051974e+01 -3.532484e+01
    endloop
endfacet
facet normal 0.000000e+00 9.238792e-01 3.826843e-01
    outer loop
        vertex -8.200000e+00 8.025914e+01 -3.469568e+01
        vertex -9.200000e+00 8.051974e+01 -3.532484e+01
        vertex -9.200000e+00 8.025914e+01 -3.469568e+01
    endloop
endfacet
facet normal 0.000000e+00 7.933518e-01 6.087633e-01
    outer loop
        vertex -8.200000e+00 7.984458e+01 -3.415542e+01
        vertex -8.200000e+00 8.025914e+01 -3.469568e+01
        vertex -9.200000e+00 8.025914e+01 -3.469568e+01
    endloop
endfacet
facet normal 0.000000e+00 7.933518e-01 6.087633e-01
    outer loop
        vertex -8.200000e+00 7.984458e+01 -3.415542e+01
        vertex -9.200000e+00 8.025914e+01 -3.469568e+01
        vertex -9.200000e+00 7.984458e+01 -3.415542e+01
    endloop
endfacet
facet normal 0.000000e+00 6.087615e-01 7.933533e-01
    outer loop
        vertex -8.200000e+00 7.930431e+01 -3.374086e+01
        vertex -8.200000e+00 7.984458e+01 -3.415542e+01
        vertex -9.200000e+00 7.984458e+01 -3.415542e+01
    endloop
endfacet
facet normal 0.000000e+00 6.087615e-01 7.933533e-01
    outer loop
        vertex -8.200000e+00 7.930431e+01 -3.374086e+01
        vertex -9.200000e+00 7.984458e+01 -3.415542e+01
        vertex -9.200000e+00 7.930431e+01 -3.374086e+01
    endloop
endfacet
facet normal 0.000000e+00 3.826854e-01 9.238787e-01
    outer loop
        vertex -8.200000e+00 7.867517e+01 -3.348026e+01
        vertex -8.200000e+00 7.930431e+01 -3.374086e+01
        vertex -9.200000e+00 7.930431e+01 -3.374086e+01
    endloop
endfacet
facet normal 0.000000e+00 3.826854e-01 9.238787e-01
    outer loop
        vertex -8.200000e+00 7.867517e+01 -3.348026e+01
        vertex -9.200000e+00 7.930431e+01 -3.374086e+01
        vertex -9.200000e+00 7.867517e+01 -3.348026e+01
    endloop
endfacet
facet normal 0.000000e+00 1.305238e-01 9.914452e-01
    outer loop
        vertex -8.200000e+00 7.800000e+01 -3.339137e+01
        vertex -8.200000e+00 7.867517e+01 -3.348026e+01
        vertex -9.200000e+00 7.867517e+01 -3.348026e+01
    endloop
endfacet
facet normal 0.000000e+00 1.305238e-01 9.914452e-01
    outer loop
        vertex -8.200000e+00 7.800000e+01 -3.339137e+01
        vertex -9.200000e+00 7.867517e+01 -3.348026e+01
        vertex -9.200000e+00 7.800000e+01 -3.339137e+01
    endloop
endfacet
facet normal 0.000000e+00 -1.305238e-01 9.914452e-01
    outer loop
        vertex -8.200000e+00 7.732483e+01 -3.348026e+01
        vertex -8.200000e+00 7.800000e+01 -3.339137e+01
        vertex -9.200000e+00 7.732483e+01 -3.348026e+01
    endloop
endfacet
facet normal 0.000000e+00 -1.305238e-01 9.914452e-01
    outer loop
        vertex -9.200000e+00 7.732483e+01 -3.348026e+01
        vertex -8.200000e+00 7.800000e+01 -3.339137e+01
        vertex -9.200000e+00 7.800000e+01 -3.339137e+01
    endloop
endfacet
facet normal 0.000000e+00 -3.826854e-01 9.238787e-01
    outer loop
        vertex -8.200000e+00 7.669569e+01 -3.374086e+01
        vertex -8.200000e+00 7.732483e+01 -3.348026e+01
        vertex -9.200000e+00 7.669569e+01 -3.374086e+01
    endloop
endfacet
facet normal 0.000000e+00 -3.826854e-01 9.238787e-01
    outer loop
        vertex -9.200000e+00 7.669569e+01 -3.374086e+01
        vertex -8.200000e+00 7.732483e+01 -3.348026e+01
        vertex -9.200000e+00 7.732483e+01 -3.348026e+01
    endloop
endfacet
facet normal 0.000000e+00 -6.087615e-01 7.933533e-01
    outer loop
        vertex -8.200000e+00 7.615542e+01 -3.415542e+01
        vertex -8.200000e+00 7.669569e+01 -3.374086e+01
        vertex -9.200000e+00 7.615542e+01 -3.415542e+01
    endloop
endfacet
facet normal 0.000000e+00 -6.087615e-01 7.933533e-01
    outer loop
        vertex -9.200000e+00 7.615542e+01 -3.415542e+01
        vertex -8.200000e+00 7.669569e+01 -3.374086e+01
        vertex -9.200000e+00 7.669569e+01 -3.374086e+01
    endloop
endfacet
facet normal 0.000000e+00 -7.933518e-01 6.087633e-01
    outer loop
        vertex -8.200000e+00 7.574086e+01 -3.469568e+01
        vertex -8.200000e+00 7.615542e+01 -3.415542e+01
        vertex -9.200000e+00 7.574086e+01 -3.469568e+01
    endloop
endfacet
facet normal 0.000000e+00 -7.933518e-01 6.087633e-01
    outer loop
        vertex -9.200000e+00 7.574086e+01 -3.469568e+01
        vertex -8.200000e+00 7.615542e+01 -3.415542e+01
        vertex -9.200000e+00 7.615542e+01 -3.415542e+01
    endloop
endfacet
facet normal 0.000000e+00 -9.238792e-01 3.826843e-01
    outer loop
        vertex -8.200000e+00 7.548026e+01 -3.532484e+01
        vertex -8.200000e+00 7.574086e+01 -3.469568e+01
        vertex -9.200000e+00 7.548026e+01 -3.532484e+01
    endloop
endfacet
facet normal 0.000000e+00 -9.238792e-01 3.826843e-01
    outer loop
        vertex -9.200000e+00 7.548026e+01 -3.532484e+01
        vertex -8.200000e+00 7.574086e+01 -3.469568e+01
        vertex -9.200000e+00 7.574086e+01 -3.469568e+01
    endloop
endfacet
facet normal 0.000000e+00 -9.914457e-01 1.305197e-01
    outer loop
        vertex -8.200000e+00 7.539137e+01 -3.600000e+01
        vertex -8.200000e+00 7.548026e+01 -3.532484e+01
        vertex -9.200000e+00 7.539137e+01 -3.600000e+01
    endloop
endfacet
facet normal 0.000000e+00 -9.914457e-01 1.305197e-01
    outer loop
        vertex -9.200000e+00 7.539137e+01 -3.600000e+01
        vertex -8.200000e+00 7.548026e+01 -3.532484e+01
        vertex -9.200000e+00 7.548026e+01 -3.532484e+01
    endloop
endfacet
facet normal 0.000000e+00 -9.914457e-01 -1.305197e-01
    outer loop
        vertex -8.200000e+00 7.539137e+01 -3.600000e+01
        vertex -9.200000e+00 7.548026e+01 -3.667516e+01
        vertex -8.200000e+00 7.548026e+01 -3.667516e+01
    endloop
endfacet
facet normal -0.000000e+00 -9.914457e-01 -1.305197e-01
    outer loop
        vertex -8.200000e+00 7.539137e+01 -3.600000e+01
        vertex -9.200000e+00 7.539137e+01 -3.600000e+01
        vertex -9.200000e+00 7.548026e+01 -3.667516e+01
    endloop
endfacet
facet normal 0.000000e+00 -9.238792e-01 -3.826843e-01
    outer loop
        vertex -8.200000e+00 7.548026e+01 -3.667516e+01
        vertex -9.200000e+00 7.574086e+01 -3.730432e+01
        vertex -8.200000e+00 7.574086e+01 -3.730432e+01
    endloop
endfacet
facet normal -0.000000e+00 -9.238792e-01 -3.826843e-01
    outer loop
        vertex -8.200000e+00 7.548026e+01 -3.667516e+01
        vertex -9.200000e+00 7.548026e+01 -3.667516e+01
        vertex -9.200000e+00 7.574086e+01 -3.730432e+01
    endloop
endfacet
facet normal 0.000000e+00 -7.933518e-01 -6.087633e-01
    outer loop
        vertex -8.200000e+00 7.574086e+01 -3.730432e+01
        vertex -9.200000e+00 7.615542e+01 -3.784458e+01
        vertex -8.200000e+00 7.615542e+01 -3.784458e+01
    endloop
endfacet
facet normal -0.000000e+00 -7.933518e-01 -6.087633e-01
    outer loop
        vertex -8.200000e+00 7.574086e+01 -3.730432e+01
        vertex -9.200000e+00 7.574086e+01 -3.730432e+01
        vertex -9.200000e+00 7.615542e+01 -3.784458e+01
    endloop
endfacet
facet normal 0.000000e+00 -6.087615e-01 -7.933533e-01
    outer loop
        vertex -8.200000e+00 7.615542e+01 -3.784458e+01
        vertex -9.200000e+00 7.669569e+01 -3.825914e+01
        vertex -8.200000e+00 7.669569e+01 -3.825914e+01
    endloop
endfacet
facet normal -0.000000e+00 -6.087615e-01 -7.933533e-01
    outer loop
        vertex -8.200000e+00 7.615542e+01 -3.784458e+01
        vertex -9.200000e+00 7.615542e+01 -3.784458e+01
        vertex -9.200000e+00 7.669569e+01 -3.825914e+01
    endloop
endfacet
facet normal 0.000000e+00 -3.826854e-01 -9.238787e-01
    outer loop
        vertex -8.200000e+00 7.669569e+01 -3.825914e+01
        vertex -9.200000e+00 7.732483e+01 -3.851974e+01
        vertex -8.200000e+00 7.732483e+01 -3.851974e+01
    endloop
endfacet
facet normal -0.000000e+00 -3.826854e-01 -9.238787e-01
    outer loop
        vertex -8.200000e+00 7.669569e+01 -3.825914e+01
        vertex -9.200000e+00 7.669569e+01 -3.825914e+01
        vertex -9.200000e+00 7.732483e+01 -3.851974e+01
    endloop
endfacet
facet normal 0.000000e+00 -1.305238e-01 -9.914452e-01
    outer loop
        vertex -8.200000e+00 7.732483e+01 -3.851974e+01
        vertex -9.200000e+00 7.800000e+01 -3.860863e+01
        vertex -8.200000e+00 7.800000e+01 -3.860863e+01
    endloop
endfacet
facet normal -0.000000e+00 -1.305238e-01 -9.914452e-01
    outer loop
        vertex -8.200000e+00 7.732483e+01 -3.851974e+01
        vertex -9.200000e+00 7.732483e+01 -3.851974e+01
        vertex -9.200000e+00 7.800000e+01 -3.860863e+01
    endloop
endfacet
facet normal 0.000000e+00 1.305238e-01 -9.914452e-01
    outer loop
        vertex -8.200000e+00 7.800000e+01 -3.860863e+01
        vertex -9.200000e+00 7.800000e+01 -3.860863e+01
        vertex -8.200000e+00 7.867517e+01 -3.851974e+01
    endloop
endfacet
facet normal 0.000000e+00 1.305238e-01 -9.914452e-01
    outer loop
        vertex -9.200000e+00 7.800000e+01 -3.860863e+01
        vertex -9.200000e+00 7.867517e+01 -3.851974e+01
        vertex -8.200000e+00 7.867517e+01 -3.851974e+01
    endloop
endfacet
facet normal 0.000000e+00 3.826854e-01 -9.238787e-01
    outer loop
        vertex -8.200000e+00 7.867517e+01 -3.851974e+01
        vertex -9.200000e+00 7.867517e+01 -3.851974e+01
        vertex -8.200000e+00 7.930431e+01 -3.825914e+01
    endloop
endfacet
facet normal 0.000000e+00 3.826854e-01 -9.238787e-01
    outer loop
        vertex -9.200000e+00 7.867517e+01 -3.851974e+01
        vertex -9.200000e+00 7.930431e+01 -3.825914e+01
        vertex -8.200000e+00 7.930431e+01 -3.825914e+01
    endloop
endfacet
facet normal 0.000000e+00 6.087615e-01 -7.933533e-01
    outer loop
        vertex -8.200000e+00 7.930431e+01 -3.825914e+01
        vertex -9.200000e+00 7.930431e+01 -3.825914e+01
        vertex -8.200000e+00 7.984458e+01 -3.784458e+01
    endloop
endfacet
facet normal 0.000000e+00 6.087615e-01 -7.933533e-01
    outer loop
        vertex -9.200000e+00 7.930431e+01 -3.825914e+01
        vertex -9.200000e+00 7.984458e+01 -3.784458e+01
        vertex -8.200000e+00 7.984458e+01 -3.784458e+01
    endloop
endfacet
facet normal 0.000000e+00 7.933518e-01 -6.087633e-01
    outer loop
        vertex -8.200000e+00 7.984458e+01 -3.784458e+01
        vertex -9.200000e+00 7.984458e+01 -3.784458e+01
        vertex -8.200000e+00 8.025914e+01 -3.730432e+01
    endloop
endfacet
facet normal 0.000000e+00 7.933518e-01 -6.087633e-01
    outer loop
        vertex -9.200000e+00 7.984458e+01 -3.784458e+01
        vertex -9.200000e+00 8.025914e+01 -3.730432e+01
        vertex -8.200000e+00 8.025914e+01 -3.730432e+01
    endloop
endfacet
facet normal 0.000000e+00 9.238792e-01 -3.826843e-01
    outer loop
        vertex -8.200000e+00 8.025914e+01 -3.730432e+01
        vertex -9.200000e+00 8.025914e+01 -3.730432e+01
        vertex -8.200000e+00 8.051974e+01 -3.667516e+01
    endloop
endfacet
facet normal 0.000000e+00 9.238792e-01 -3.826843e-01
    outer loop
        vertex -9.200000e+00 8.025914e+01 -3.730432e+01
        vertex -9.200000e+00 8.051974e+01 -3.667516e+01
        vertex -8.200000e+00 8.051974e+01 -3.667516e+01
    endloop
endfacet
facet normal 1.000000e+00 0.000000e+00 0.000000e+00
    outer loop
        vertex -8.200000e+00 6.489137e+01 -2.900000e+00
        vertex -8.200000e+00 6.617134e+01 -2.548006e+00
        vertex -8.200000e+00 6.498026e+01 -2.224838e+00
    endloop
endfacet
facet normal 1.000000e+00 -0.000000e+00 0.000000e+00
    outer loop
        vertex -8.200000e+00 6.498026e+01 -2.224838e+00
        vertex -8.200000e+00 6.617134e+01 -2.548006e+00
        vertex -8.200000e+00 6.524086e+01 -1.595683e+00
    endloop
endfacet
facet normal 1.000000e+00 -0.000000e+00 0.000000e+00
    outer loop
        vertex -8.200000e+00 6.489137e+01 -2.900000e+00
        vertex -8.200000e+00 6.498026e+01 -3.575162e+00
        vertex -8.200000e+00 6.617134e+01 -2.548006e+00
    endloop
endfacet
facet normal 1.000000e+00 -0.000000e+00 0.000000e+00
    outer loop
        vertex -8.200000e+00 6.524086e+01 -1.595683e+00
        vertex -8.200000e+00 6.617134e+01 -2.548006e+00
        vertex -8.200000e+00 6.565542e+01 -1.055422e+00
    endloop
endfacet
facet normal 1.000000e+00 -0.000000e+00 0.000000e+00
    outer loop
        vertex -8.200000e+00 6.498026e+01 -3.575162e+00
        vertex -8.200000e+00 6.524086e+01 -4.204317e+00
        vertex -8.200000e+00 6.617134e+01 -2.548006e+00
    endloop
endfacet
facet normal 1.000000e+00 -0.000000e+00 0.000000e+00
    outer loop
        vertex -8.200000e+00 6.565542e+01 -1.055422e+00
        vertex -8.200000e+00 6.617134e+01 -2.548006e+00
        vertex -8.200000e+00 6.619569e+01 -6.408615e-01
    endloop
endfacet
facet normal 1.000000e+00 -0.000000e+00 0.000000e+00
    outer loop
        vertex -8.200000e+00 6.524086e+01 -4.204317e+00
        vertex -8.200000e+00 6.565542e+01 -4.744578e+00
        vertex -8.200000e+00 6.617134e+01 -2.548006e+00
    endloop
endfacet
facet normal 1.000000e+00 0.000000e+00 0.000000e+00
    outer loop
        vertex -8.200000e+00 6.617134e+01 -2.548006e+00
        vertex -8.200000e+00 6.682483e+01 -3.802575e-01
        vertex -8.200000e+00 6.619569e+01 -6.408615e-01
    endloop
endfacet
facet normal 1.000000e+00 0.000000e+00 0.000000e+00
    outer loop
        vertex -8.200000e+00 6.750000e+01 -2.913708e-01
        vertex -8.200000e+00 6.880431e+01 -6.408615e-01
        vertex -8.200000e+00 6.817517e+01 -3.802575e-01
    endloop
endfacet
facet normal 1.000000e+00 -0.000000e+00 0.000000e+00
    outer loop
        vertex -8.200000e+00 6.682483e+01 -3.802575e-01
        vertex -8.200000e+00 6.880431e+01 -6.408615e-01
        vertex -8.200000e+00 6.750000e+01 -2.913708e-01
    endloop
endfacet
facet normal 1.000000e+00 0.000000e+00 0.000000e+00
    outer loop
        vertex -8.200000e+00 6.682483e+01 -3.802575e-01
        vertex -8.200000e+00 6.934458e+01 -1.055422e+00
        vertex -8.200000e+00 6.880431e+01 -6.408615e-01
    endloop
endfacet
facet normal 1.000000e+00 0.000000e+00 0.000000e+00
    outer loop
        vertex -8.200000e+00 6.682483e+01 -3.802575e-01
        vertex -8.200000e+00 6.975914e+01 -1.595683e+00
        vertex -8.200000e+00 6.934458e+01 -1.055422e+00
    endloop
endfacet
facet normal 1.000000e+00 0.000000e+00 0.000000e+00
    outer loop
        vertex -8.200000e+00 6.682483e+01 -3.802575e-01
        vertex -8.200000e+00 7.001974e+01 -2.224838e+00
        vertex -8.200000e+00 6.975914e+01 -1.595683e+00
    endloop
endfacet
facet normal 1.000000e+00 0.000000e+00 0.000000e+00
    outer loop
        vertex -8.200000e+00 6.682483e+01 -3.802575e-01
        vertex -8.200000e+00 7.010863e+01 -2.900000e+00
        vertex -8.200000e+00 7.001974e+01 -2.224838e+00
    endloop
endfacet
facet normal 1.000000e+00 0.000000e+00 0.000000e+00
    outer loop
        vertex -8.200000e+00 6.975914e+01 -4.204317e+00
        vertex -8.200000e+00 7.001974e+01 -3.575162e+00
        vertex -8.200000e+00 7.010863e+01 -2.900000e+00
    endloop
endfacet
facet normal 1.000000e+00 0.000000e+00 0.000000e+00
    outer loop
        vertex -8.200000e+00 6.934458e+01 -4.744578e+00
        vertex -8.200000e+00 6.975914e+01 -4.204317e+00
        vertex -8.200000e+00 7.010863e+01 -2.900000e+00
    endloop
endfacet
facet normal 1.000000e+00 0.000000e+00 0.000000e+00
    outer loop
        vertex -8.200000e+00 6.880431e+01 -5.159139e+00
        vertex -8.200000e+00 6.934458e+01 -4.744578e+00
        vertex -8.200000e+00 7.010863e+01 -2.900000e+00
    endloop
endfacet
facet normal 1.000000e+00 0.000000e+00 0.000000e+00
    outer loop
        vertex -8.200000e+00 6.817517e+01 -5.419742e+00
        vertex -8.200000e+00 6.880431e+01 -5.159139e+00
        vertex -8.200000e+00 7.010863e+01 -2.900000e+00
    endloop
endfacet
facet normal 1.000000e+00 0.000000e+00 0.000000e+00
    outer loop
        vertex -8.200000e+00 6.750000e+01 -5.508629e+00
        vertex -8.200000e+00 6.817517e+01 -5.419742e+00
        vertex -8.200000e+00 7.010863e+01 -2.900000e+00
    endloop
endfacet
facet normal 1.000000e+00 -0.000000e+00 0.000000e+00
    outer loop
        vertex -8.200000e+00 6.682483e+01 -5.419742e+00
        vertex -8.200000e+00 6.750000e+01 -5.508629e+00
        vertex -8.200000e+00 7.010863e+01 -2.900000e+00
    endloop
endfacet
facet normal 1.000000e+00 0.000000e+00 0.000000e+00
    outer loop
        vertex -8.200000e+00 6.565542e+01 -4.744578e+00
        vertex -8.200000e+00 6.619569e+01 -5.159139e+00
        vertex -8.200000e+00 6.682483e+01 -5.419742e+00
    endloop
endfacet
facet normal 1.000000e+00 0.000000e+00 0.000000e+00
    outer loop
        vertex -8.200000e+00 6.565542e+01 -4.744578e+00
        vertex -8.200000e+00 6.612500e+01 -2.900000e+00
        vertex -8.200000e+00 6.617134e+01 -2.548006e+00
    endloop
endfacet
facet normal 1.000000e+00 0.000000e+00 0.000000e+00
    outer loop
        vertex -8.200000e+00 6.565542e+01 -4.744578e+00
        vertex -8.200000e+00 6.617134e+01 -3.251994e+00
        vertex -8.200000e+00 6.612500e+01 -2.900000e+00
    endloop
endfacet
facet normal 1.000000e+00 -0.000000e+00 0.000000e+00
    outer loop
        vertex -8.200000e+00 6.565542e+01 -4.744578e+00
        vertex -8.200000e+00 6.682483e+01 -5.419742e+00
        vertex -8.200000e+00 6.617134e+01 -3.251994e+00
    endloop
endfacet
facet normal 1.000000e+00 0.000000e+00 0.000000e+00
    outer loop
        vertex -8.200000e+00 6.617134e+01 -2.548006e+00
        vertex -8.200000e+00 6.630721e+01 -2.220000e+00
        vertex -8.200000e+00 6.682483e+01 -3.802575e-01
    endloop
endfacet
facet normal 1.000000e+00 0.000000e+00 0.000000e+00
    outer loop
        vertex -8.200000e+00 6.630721e+01 -2.220000e+00
        vertex -8.200000e+00 6.652334e+01 -1.938335e+00
        vertex -8.200000e+00 6.682483e+01 -3.802575e-01
    endloop
endfacet
facet normal 1.000000e+00 0.000000e+00 0.000000e+00
    outer loop
        vertex -8.200000e+00 6.652334e+01 -1.938335e+00
        vertex -8.200000e+00 6.680500e+01 -1.722205e+00
        vertex -8.200000e+00 6.682483e+01 -3.802575e-01
    endloop
endfacet
facet normal 1.000000e+00 0.000000e+00 0.000000e+00
    outer loop
        vertex -8.200000e+00 6.680500e+01 -1.722205e+00
        vertex -8.200000e+00 6.713301e+01 -1.586341e+00
        vertex -8.200000e+00 6.682483e+01 -3.802575e-01
    endloop
endfacet
facet normal 1.000000e+00 0.000000e+00 0.000000e+00
    outer loop
        vertex -8.200000e+00 6.682483e+01 -3.802575e-01
        vertex -8.200000e+00 6.713301e+01 -1.586341e+00
        vertex -8.200000e+00 6.748500e+01 -1.540000e+00
    endloop
endfacet
facet normal 1.000000e+00 0.000000e+00 0.000000e+00
    outer loop
        vertex -8.200000e+00 6.682483e+01 -3.802575e-01
        vertex -8.200000e+00 6.748500e+01 -1.540000e+00
        vertex -8.200000e+00 6.783699e+01 -1.586341e+00
    endloop
endfacet
facet normal 1.000000e+00 0.000000e+00 0.000000e+00
    outer loop
        vertex -8.200000e+00 6.682483e+01 -3.802575e-01
        vertex -8.200000e+00 6.783699e+01 -1.586341e+00
        vertex -8.200000e+00 6.816500e+01 -1.722205e+00
    endloop
endfacet
facet normal 1.000000e+00 0.000000e+00 0.000000e+00
    outer loop
        vertex -8.200000e+00 6.682483e+01 -3.802575e-01
        vertex -8.200000e+00 6.816500e+01 -1.722205e+00
        vertex -8.200000e+00 7.010863e+01 -2.900000e+00
    endloop
endfacet
facet normal 1.000000e+00 0.000000e+00 0.000000e+00
    outer loop
        vertex -8.200000e+00 6.816500e+01 -1.722205e+00
        vertex -8.200000e+00 6.844666e+01 -1.938335e+00
        vertex -8.200000e+00 7.010863e+01 -2.900000e+00
    endloop
endfacet
facet normal 1.000000e+00 0.000000e+00 0.000000e+00
    outer loop
        vertex -8.200000e+00 6.844666e+01 -1.938335e+00
        vertex -8.200000e+00 6.866279e+01 -2.220000e+00
        vertex -8.200000e+00 7.010863e+01 -2.900000e+00
    endloop
endfacet
facet normal 1.000000e+00 0.000000e+00 0.000000e+00
    outer loop
        vertex -8.200000e+00 6.866279e+01 -2.220000e+00
        vertex -8.200000e+00 6.879867e+01 -2.548006e+00
        vertex -8.200000e+00 7.010863e+01 -2.900000e+00
    endloop
endfacet
facet normal 1.000000e+00 0.000000e+00 0.000000e+00
    outer loop
        vertex -8.200000e+00 6.879867e+01 -2.548006e+00
        vertex -8.200000e+00 6.884500e+01 -2.900000e+00
        vertex -8.200000e+00 7.010863e+01 -2.900000e+00
    endloop
endfacet
facet normal 1.000000e+00 0.000000e+00 0.000000e+00
    outer loop
        vertex -8.200000e+00 6.879867e+01 -3.251994e+00
        vertex -8.200000e+00 7.010863e+01 -2.900000e+00
        vertex -8.200000e+00 6.884500e+01 -2.900000e+00
    endloop
endfacet
facet normal 1.000000e+00 0.000000e+00 0.000000e+00
    outer loop
        vertex -8.200000e+00 6.866279e+01 -3.580000e+00
        vertex -8.200000e+00 7.010863e+01 -2.900000e+00
        vertex -8.200000e+00 6.879867e+01 -3.251994e+00
    endloop
endfacet
facet normal 1.000000e+00 0.000000e+00 0.000000e+00
    outer loop
        vertex -8.200000e+00 6.844666e+01 -3.861665e+00
        vertex -8.200000e+00 7.010863e+01 -2.900000e+00
        vertex -8.200000e+00 6.866279e+01 -3.580000e+00
    endloop
endfacet
facet normal 1.000000e+00 0.000000e+00 0.000000e+00
    outer loop
        vertex -8.200000e+00 6.682483e+01 -5.419742e+00
        vertex -8.200000e+00 7.010863e+01 -2.900000e+00
        vertex -8.200000e+00 6.844666e+01 -3.861665e+00
    endloop
endfacet
facet normal 1.000000e+00 0.000000e+00 0.000000e+00
    outer loop
        vertex -8.200000e+00 6.682483e+01 -5.419742e+00
        vertex -8.200000e+00 6.844666e+01 -3.861665e+00
        vertex -8.200000e+00 6.816500e+01 -4.077795e+00
    endloop
endfacet
facet normal 1.000000e+00 0.000000e+00 0.000000e+00
    outer loop
        vertex -8.200000e+00 6.682483e+01 -5.419742e+00
        vertex -8.200000e+00 6.816500e+01 -4.077795e+00
        vertex -8.200000e+00 6.783699e+01 -4.213660e+00
    endloop
endfacet
facet normal 1.000000e+00 0.000000e+00 0.000000e+00
    outer loop
        vertex -8.200000e+00 6.682483e+01 -5.419742e+00
        vertex -8.200000e+00 6.783699e+01 -4.213660e+00
        vertex -8.200000e+00 6.748500e+01 -4.260001e+00
    endloop
endfacet
facet normal 1.000000e+00 0.000000e+00 0.000000e+00
    outer loop
        vertex -8.200000e+00 6.682483e+01 -5.419742e+00
        vertex -8.200000e+00 6.748500e+01 -4.260001e+00
        vertex -8.200000e+00 6.713301e+01 -4.213660e+00
    endloop
endfacet
facet normal 1.000000e+00 0.000000e+00 0.000000e+00
    outer loop
        vertex -8.200000e+00 6.680500e+01 -4.077795e+00
        vertex -8.200000e+00 6.682483e+01 -5.419742e+00
        vertex -8.200000e+00 6.713301e+01 -4.213660e+00
    endloop
endfacet
facet normal 1.000000e+00 0.000000e+00 0.000000e+00
    outer loop
        vertex -8.200000e+00 6.652334e+01 -3.861665e+00
        vertex -8.200000e+00 6.682483e+01 -5.419742e+00
        vertex -8.200000e+00 6.680500e+01 -4.077795e+00
    endloop
endfacet
facet normal 1.000000e+00 0.000000e+00 0.000000e+00
    outer loop
        vertex -8.200000e+00 6.630721e+01 -3.580000e+00
        vertex -8.200000e+00 6.682483e+01 -5.419742e+00
        vertex -8.200000e+00 6.652334e+01 -3.861665e+00
    endloop
endfacet
facet normal 1.000000e+00 0.000000e+00 0.000000e+00
    outer loop
        vertex -8.200000e+00 6.617134e+01 -3.251994e+00
        vertex -8.200000e+00 6.682483e+01 -5.419742e+00
        vertex -8.200000e+00 6.630721e+01 -3.580000e+00
    endloop
endfacet
facet normal -1.000000e+00 0.000000e+00 0.000000e+00
    outer loop
        vertex -9.200000e+00 6.619569e+01 -6.408615e-01
        vertex -9.200000e+00 6.682483e+01 -3.802575e-01
        vertex -9.200000e+00 6.750000e+01 -2.913708e-01
    endloop
endfacet
facet normal -1.000000e+00 0.000000e+00 0.000000e+00
    outer loop
        vertex -9.200000e+00 6.619569e+01 -6.408615e-01
        vertex -9.200000e+00 6.750000e+01 -2.913708e-01
        vertex -9.200000e+00 6.817517e+01 -3.802575e-01
    endloop
endfacet
facet normal -1.000000e+00 0.000000e+00 0.000000e+00
    outer loop
        vertex -9.200000e+00 6.619569e+01 -6.408615e-01
        vertex -9.200000e+00 6.817517e+01 -3.802575e-01
        vertex -9.200000e+00 6.880431e+01 -6.408615e-01
    endloop
endfacet
facet normal -1.000000e+00 0.000000e+00 0.000000e+00
    outer loop
        vertex -9.200000e+00 6.565542e+01 -1.055422e+00
        vertex -9.200000e+00 6.619569e+01 -6.408615e-01
        vertex -9.200000e+00 6.880431e+01 -6.408615e-01
    endloop
endfacet
facet normal -1.000000e+00 0.000000e+00 0.000000e+00
    outer loop
        vertex -9.200000e+00 6.565542e+01 -1.055422e+00
        vertex -9.200000e+00 6.880431e+01 -6.408615e-01
        vertex -9.200000e+00 6.934458e+01 -1.055422e+00
    endloop
endfacet
facet normal -1.000000e+00 0.000000e+00 0.000000e+00
    outer loop
        vertex -9.200000e+00 6.524086e+01 -1.595683e+00
        vertex -9.200000e+00 6.565542e+01 -1.055422e+00
        vertex -9.200000e+00 6.934458e+01 -1.055422e+00
    endloop
endfacet
facet normal -1.000000e+00 0.000000e+00 0.000000e+00
    outer loop
        vertex -9.200000e+00 6.498026e+01 -2.224838e+00
        vertex -9.200000e+00 6.524086e+01 -1.595683e+00
        vertex -9.200000e+00 6.934458e+01 -1.055422e+00
    endloop
endfacet
facet normal -1.000000e+00 0.000000e+00 0.000000e+00
    outer loop
        vertex -9.200000e+00 6.489137e+01 -2.900000e+00
        vertex -9.200000e+00 6.498026e+01 -2.224838e+00
        vertex -9.200000e+00 6.934458e+01 -1.055422e+00
    endloop
endfacet
facet normal -1.000000e+00 0.000000e+00 0.000000e+00
    outer loop
        vertex -9.200000e+00 6.489137e+01 -2.900000e+00
        vertex -9.200000e+00 6.934458e+01 -1.055422e+00
        vertex -9.200000e+00 6.498026e+01 -3.575162e+00
    endloop
endfacet
facet normal -1.000000e+00 0.000000e+00 0.000000e+00
    outer loop
        vertex -9.200000e+00 6.498026e+01 -3.575162e+00
        vertex -9.200000e+00 6.934458e+01 -1.055422e+00
        vertex -9.200000e+00 6.524086e+01 -4.204317e+00
    endloop
endfacet
facet normal -1.000000e+00 0.000000e+00 0.000000e+00
    outer loop
        vertex -9.200000e+00 6.524086e+01 -4.204317e+00
        vertex -9.200000e+00 6.934458e+01 -1.055422e+00
        vertex -9.200000e+00 6.565542e+01 -4.744578e+00
    endloop
endfacet
facet normal -1.000000e+00 0.000000e+00 0.000000e+00
    outer loop
        vertex -9.200000e+00 6.565542e+01 -4.744578e+00
        vertex -9.200000e+00 6.934458e+01 -1.055422e+00
        vertex -9.200000e+00 6.619569e+01 -5.159139e+00
    endloop
endfacet
facet normal -1.000000e+00 0.000000e+00 0.000000e+00
    outer loop
        vertex -9.200000e+00 6.619569e+01 -5.159139e+00
        vertex -9.200000e+00 6.934458e+01 -1.055422e+00
        vertex -9.200000e+00 6.975914e+01 -1.595683e+00
    endloop
endfacet
facet normal -1.000000e+00 0.000000e+00 0.000000e+00
    outer loop
        vertex -9.200000e+00 6.619569e+01 -5.159139e+00
        vertex -9.200000e+00 6.975914e+01 -1.595683e+00
        vertex -9.200000e+00 7.001974e+01 -2.224838e+00
    endloop
endfacet
facet normal -1.000000e+00 0.000000e+00 0.000000e+00
    outer loop
        vertex -9.200000e+00 6.619569e+01 -5.159139e+00
        vertex -9.200000e+00 7.001974e+01 -2.224838e+00
        vertex -9.200000e+00 7.010863e+01 -2.900000e+00
    endloop
endfacet
facet normal -1.000000e+00 0.000000e+00 0.000000e+00
    outer loop
        vertex -9.200000e+00 6.619569e+01 -5.159139e+00
        vertex -9.200000e+00 7.010863e+01 -2.900000e+00
        vertex -9.200000e+00 7.001974e+01 -3.575162e+00
    endloop
endfacet
facet normal -1.000000e+00 0.000000e+00 0.000000e+00
    outer loop
        vertex -9.200000e+00 6.619569e+01 -5.159139e+00
        vertex -9.200000e+00 7.001974e+01 -3.575162e+00
        vertex -9.200000e+00 6.975914e+01 -4.204317e+00
    endloop
endfacet
facet normal -1.000000e+00 0.000000e+00 0.000000e+00
    outer loop
        vertex -9.200000e+00 6.619569e+01 -5.159139e+00
        vertex -9.200000e+00 6.975914e+01 -4.204317e+00
        vertex -9.200000e+00 6.934458e+01 -4.744578e+00
    endloop
endfacet
facet normal -1.000000e+00 0.000000e+00 0.000000e+00
    outer loop
        vertex -9.200000e+00 6.619569e+01 -5.159139e+00
        vertex -9.200000e+00 6.934458e+01 -4.744578e+00
        vertex -9.200000e+00 6.880431e+01 -5.159139e+00
    endloop
endfacet
facet normal -1.000000e+00 0.000000e+00 0.000000e+00
    outer loop
        vertex -9.200000e+00 6.619569e+01 -5.159139e+00
        vertex -9.200000e+00 6.880431e+01 -5.159139e+00
        vertex -9.200000e+00 6.817517e+01 -5.419742e+00
    endloop
endfacet
facet normal -1.000000e+00 0.000000e+00 0.000000e+00
    outer loop
        vertex -9.200000e+00 6.619569e+01 -5.159139e+00
        vertex -9.200000e+00 6.817517e+01 -5.419742e+00
        vertex -9.200000e+00 6.750000e+01 -5.508629e+00
    endloop
endfacet
facet normal -1.000000e+00 0.000000e+00 0.000000e+00
    outer loop
        vertex -9.200000e+00 6.619569e+01 -5.159139e+00
        vertex -9.200000e+00 6.750000e+01 -5.508629e+00
        vertex -9.200000e+00 6.682483e+01 -5.419742e+00
    endloop
endfacet
facet normal 0.000000e+00 9.914476e-01 1.305054e-01
    outer loop
        vertex 8.000000e+00 6.879867e+01 -2.548006e+00
        vertex 8.000000e+00 6.884500e+01 -2.900000e+00
        vertex -8.200000e+00 6.884500e+01 -2.900000e+00
    endloop
endfacet
facet normal 0.000000e+00 9.914476e-01 1.305054e-01
    outer loop
        vertex 8.000000e+00 6.879867e+01 -2.548006e+00
        vertex -8.200000e+00 6.884500e+01 -2.900000e+00
        vertex -8.200000e+00 6.879867e+01 -2.548006e+00
    endloop
endfacet
facet normal 0.000000e+00 9.238648e-01 3.827190e-01
    outer loop
        vertex 8.000000e+00 6.866279e+01 -2.220000e+00
        vertex 8.000000e+00 6.879867e+01 -2.548006e+00
        vertex -8.200000e+00 6.879867e+01 -2.548006e+00
    endloop
endfacet
facet normal 0.000000e+00 9.238648e-01 3.827190e-01
    outer loop
        vertex 8.000000e+00 6.866279e+01 -2.220000e+00
        vertex -8.200000e+00 6.879867e+01 -2.548006e+00
        vertex -8.200000e+00 6.866279e+01 -2.220000e+00
    endloop
endfacet
facet normal 0.000000e+00 7.933580e-01 6.087553e-01
    outer loop
        vertex 8.000000e+00 6.844666e+01 -1.938335e+00
        vertex 8.000000e+00 6.866279e+01 -2.220000e+00
        vertex -8.200000e+00 6.866279e+01 -2.220000e+00
    endloop
endfacet
facet normal 0.000000e+00 7.933580e-01 6.087553e-01
    outer loop
        vertex 8.000000e+00 6.844666e+01 -1.938335e+00
        vertex -8.200000e+00 6.866279e+01 -2.220000e+00
        vertex -8.200000e+00 6.844666e+01 -1.938335e+00
    endloop
endfacet
facet normal 0.000000e+00 6.087669e-01 7.933492e-01
    outer loop
        vertex 8.000000e+00 6.816500e+01 -1.722205e+00
        vertex 8.000000e+00 6.844666e+01 -1.938335e+00
        vertex -8.200000e+00 6.844666e+01 -1.938335e+00
    endloop
endfacet
facet normal 0.000000e+00 6.087669e-01 7.933492e-01
    outer loop
        vertex 8.000000e+00 6.816500e+01 -1.722205e+00
        vertex -8.200000e+00 6.844666e+01 -1.938335e+00
        vertex -8.200000e+00 6.816500e+01 -1.722205e+00
    endloop
endfacet
facet normal 0.000000e+00 3.826788e-01 9.238815e-01
    outer loop
        vertex 8.000000e+00 6.783699e+01 -1.586341e+00
        vertex 8.000000e+00 6.816500e+01 -1.722205e+00
        vertex -8.200000e+00 6.816500e+01 -1.722205e+00
    endloop
endfacet
facet normal 0.000000e+00 3.826788e-01 9.238815e-01
    outer loop
        vertex 8.000000e+00 6.783699e+01 -1.586341e+00
        vertex -8.200000e+00 6.816500e+01 -1.722205e+00
        vertex -8.200000e+00 6.783699e+01 -1.586341e+00
    endloop
endfacet
facet normal 0.000000e+00 1.305279e-01 9.914446e-01
    outer loop
        vertex 8.000000e+00 6.748500e+01 -1.540000e+00
        vertex 8.000000e+00 6.783699e+01 -1.586341e+00
        vertex -8.200000e+00 6.783699e+01 -1.586341e+00
    endloop
endfacet
facet normal 0.000000e+00 1.305279e-01 9.914446e-01
    outer loop
        vertex 8.000000e+00 6.748500e+01 -1.540000e+00
        vertex -8.200000e+00 6.783699e+01 -1.586341e+00
        vertex -8.200000e+00 6.748500e+01 -1.540000e+00
    endloop
endfacet
facet normal 0.000000e+00 -1.305279e-01 9.914446e-01
    outer loop
        vertex 8.000000e+00 6.713301e+01 -1.586341e+00
        vertex 8.000000e+00 6.748500e+01 -1.540000e+00
        vertex -8.200000e+00 6.713301e+01 -1.586341e+00
    endloop
endfacet
facet normal 0.000000e+00 -1.305279e-01 9.914446e-01
    outer loop
        vertex -8.200000e+00 6.713301e+01 -1.586341e+00
        vertex 8.000000e+00 6.748500e+01 -1.540000e+00
        vertex -8.200000e+00 6.748500e+01 -1.540000e+00
    endloop
endfacet
facet normal 0.000000e+00 -3.826788e-01 9.238815e-01
    outer loop
        vertex 8.000000e+00 6.680500e+01 -1.722205e+00
        vertex 8.000000e+00 6.713301e+01 -1.586341e+00
        vertex -8.200000e+00 6.680500e+01 -1.722205e+00
    endloop
endfacet
facet normal 0.000000e+00 -3.826788e-01 9.238815e-01
    outer loop
        vertex -8.200000e+00 6.680500e+01 -1.722205e+00
        vertex 8.000000e+00 6.713301e+01 -1.586341e+00
        vertex -8.200000e+00 6.713301e+01 -1.586341e+00
    endloop
endfacet
facet normal 0.000000e+00 -6.087669e-01 7.933492e-01
    outer loop
        vertex 8.000000e+00 6.652334e+01 -1.938335e+00
        vertex 8.000000e+00 6.680500e+01 -1.722205e+00
        vertex -8.200000e+00 6.652334e+01 -1.938335e+00
    endloop
endfacet
facet normal 0.000000e+00 -6.087669e-01 7.933492e-01
    outer loop
        vertex -8.200000e+00 6.652334e+01 -1.938335e+00
        vertex 8.000000e+00 6.680500e+01 -1.722205e+00
        vertex -8.200000e+00 6.680500e+01 -1.722205e+00
    endloop
endfacet
facet normal 0.000000e+00 -7.933580e-01 6.087553e-01
    outer loop
        vertex 8.000000e+00 6.630721e+01 -2.220000e+00
        vertex 8.000000e+00 6.652334e+01 -1.938335e+00
        vertex -8.200000e+00 6.630721e+01 -2.220000e+00
    endloop
endfacet
facet normal 0.000000e+00 -7.933580e-01 6.087553e-01
    outer loop
        vertex -8.200000e+00 6.630721e+01 -2.220000e+00
        vertex 8.000000e+00 6.652334e+01 -1.938335e+00
        vertex -8.200000e+00 6.652334e+01 -1.938335e+00
    endloop
endfacet
facet normal 0.000000e+00 -9.238724e-01 3.827006e-01
    outer loop
        vertex 8.000000e+00 6.617134e+01 -2.548006e+00
        vertex 8.000000e+00 6.630721e+01 -2.220000e+00
        vertex -8.200000e+00 6.617134e+01 -2.548006e+00
    endloop
endfacet
facet normal 0.000000e+00 -9.238724e-01 3.827006e-01
    outer loop
        vertex -8.200000e+00 6.617134e+01 -2.548006e+00
        vertex 8.000000e+00 6.630721e+01 -2.220000e+00
        vertex -8.200000e+00 6.630721e+01 -2.220000e+00
    endloop
endfacet
facet normal 0.000000e+00 -9.914448e-01 1.305265e-01
    outer loop
        vertex 8.000000e+00 6.612500e+01 -2.900000e+00
        vertex 8.000000e+00 6.617134e+01 -2.548006e+00
        vertex -8.200000e+00 6.612500e+01 -2.900000e+00
    endloop
endfacet
facet normal 0.000000e+00 -9.914448e-01 1.305265e-01
    outer loop
        vertex -8.200000e+00 6.612500e+01 -2.900000e+00
        vertex 8.000000e+00 6.617134e+01 -2.548006e+00
        vertex -8.200000e+00 6.617134e+01 -2.548006e+00
    endloop
endfacet
facet normal 0.000000e+00 -9.914448e-01 -1.305264e-01
    outer loop
        vertex 8.000000e+00 6.612500e+01 -2.900000e+00
        vertex -8.200000e+00 6.617134e+01 -3.251994e+00
        vertex 8.000000e+00 6.617134e+01 -3.251994e+00
    endloop
endfacet
facet normal -0.000000e+00 -9.914448e-01 -1.305264e-01
    outer loop
        vertex 8.000000e+00 6.612500e+01 -2.900000e+00
        vertex -8.200000e+00 6.612500e+01 -2.900000e+00
        vertex -8.200000e+00 6.617134e+01 -3.251994e+00
    endloop
endfacet
facet normal 0.000000e+00 -9.238724e-01 -3.827006e-01
    outer loop
        vertex 8.000000e+00 6.617134e+01 -3.251994e+00
        vertex -8.200000e+00 6.630721e+01 -3.580000e+00
        vertex 8.000000e+00 6.630721e+01 -3.580000e+00
    endloop
endfacet
facet normal -0.000000e+00 -9.238724e-01 -3.827006e-01
    outer loop
        vertex 8.000000e+00 6.617134e+01 -3.251994e+00
        vertex -8.200000e+00 6.617134e+01 -3.251994e+00
        vertex -8.200000e+00 6.630721e+01 -3.580000e+00
    endloop
endfacet
facet normal 0.000000e+00 -7.933584e-01 -6.087548e-01
    outer loop
        vertex 8.000000e+00 6.630721e+01 -3.580000e+00
        vertex -8.200000e+00 6.652334e+01 -3.861665e+00
        vertex 8.000000e+00 6.652334e+01 -3.861665e+00
    endloop
endfacet
facet normal -0.000000e+00 -7.933584e-01 -6.087548e-01
    outer loop
        vertex 8.000000e+00 6.630721e+01 -3.580000e+00
        vertex -8.200000e+00 6.630721e+01 -3.580000e+00
        vertex -8.200000e+00 6.652334e+01 -3.861665e+00
    endloop
endfacet
facet normal 0.000000e+00 -6.087666e-01 -7.933493e-01
    outer loop
        vertex 8.000000e+00 6.652334e+01 -3.861665e+00
        vertex -8.200000e+00 6.680500e+01 -4.077795e+00
        vertex 8.000000e+00 6.680500e+01 -4.077795e+00
    endloop
endfacet
facet normal -0.000000e+00 -6.087666e-01 -7.933493e-01
    outer loop
        vertex 8.000000e+00 6.652334e+01 -3.861665e+00
        vertex -8.200000e+00 6.652334e+01 -3.861665e+00
        vertex -8.200000e+00 6.680500e+01 -4.077795e+00
    endloop
endfacet
facet normal 0.000000e+00 -3.826794e-01 -9.238812e-01
    outer loop
        vertex 8.000000e+00 6.680500e+01 -4.077795e+00
        vertex -8.200000e+00 6.713301e+01 -4.213660e+00
        vertex 8.000000e+00 6.713301e+01 -4.213660e+00
    endloop
endfacet
facet normal -0.000000e+00 -3.826794e-01 -9.238812e-01
    outer loop
        vertex 8.000000e+00 6.680500e+01 -4.077795e+00
        vertex -8.200000e+00 6.680500e+01 -4.077795e+00
        vertex -8.200000e+00 6.713301e+01 -4.213660e+00
    endloop
endfacet
facet normal 0.000000e+00 -1.305279e-01 -9.914446e-01
    outer loop
        vertex 8.000000e+00 6.713301e+01 -4.213660e+00
        vertex -8.200000e+00 6.748500e+01 -4.260001e+00
        vertex 8.000000e+00 6.748500e+01 -4.260001e+00
    endloop
endfacet
facet normal -0.000000e+00 -1.305279e-01 -9.914446e-01
    outer loop
        vertex 8.000000e+00 6.713301e+01 -4.213660e+00
        vertex -8.200000e+00 6.713301e+01 -4.213660e+00
        vertex -8.200000e+00 6.748500e+01 -4.260001e+00
    endloop
endfacet
facet normal 0.000000e+00 1.305279e-01 -9.914446e-01
    outer loop
        vertex 8.000000e+00 6.748500e+01 -4.260001e+00
        vertex -8.200000e+00 6.748500e+01 -4.260001e+00
        vertex 8.000000e+00 6.783699e+01 -4.213660e+00
    endloop
endfacet
facet normal 0.000000e+00 1.305279e-01 -9.914446e-01
    outer loop
        vertex -8.200000e+00 6.748500e+01 -4.260001e+00
        vertex -8.200000e+00 6.783699e+01 -4.213660e+00
        vertex 8.000000e+00 6.783699e+01 -4.213660e+00
    endloop
endfacet
facet normal 0.000000e+00 3.826794e-01 -9.238812e-01
    outer loop
        vertex 8.000000e+00 6.783699e+01 -4.213660e+00
        vertex -8.200000e+00 6.783699e+01 -4.213660e+00
        vertex 8.000000e+00 6.816500e+01 -4.077795e+00
    endloop
endfacet
facet normal 0.000000e+00 3.826794e-01 -9.238812e-01
    outer loop
        vertex -8.200000e+00 6.783699e+01 -4.213660e+00
        vertex -8.200000e+00 6.816500e+01 -4.077795e+00
        vertex 8.000000e+00 6.816500e+01 -4.077795e+00
    endloop
endfacet
facet normal 0.000000e+00 6.087666e-01 -7.933493e-01
    outer loop
        vertex 8.000000e+00 6.816500e+01 -4.077795e+00
        vertex -8.200000e+00 6.816500e+01 -4.077795e+00
        vertex 8.000000e+00 6.844666e+01 -3.861665e+00
    endloop
endfacet
facet normal 0.000000e+00 6.087666e-01 -7.933493e-01
    outer loop
        vertex -8.200000e+00 6.816500e+01 -4.077795e+00
        vertex -8.200000e+00 6.844666e+01 -3.861665e+00
        vertex 8.000000e+00 6.844666e+01 -3.861665e+00
    endloop
endfacet
facet normal 0.000000e+00 7.933584e-01 -6.087548e-01
    outer loop
        vertex 8.000000e+00 6.844666e+01 -3.861665e+00
        vertex -8.200000e+00 6.844666e+01 -3.861665e+00
        vertex 8.000000e+00 6.866279e+01 -3.580000e+00
    endloop
endfacet
facet normal 0.000000e+00 7.933584e-01 -6.087548e-01
    outer loop
        vertex -8.200000e+00 6.844666e+01 -3.861665e+00
        vertex -8.200000e+00 6.866279e+01 -3.580000e+00
        vertex 8.000000e+00 6.866279e+01 -3.580000e+00
    endloop
endfacet
facet normal 0.000000e+00 9.238648e-01 -3.827190e-01
    outer loop
        vertex 8.000000e+00 6.866279e+01 -3.580000e+00
        vertex -8.200000e+00 6.866279e+01 -3.580000e+00
        vertex 8.000000e+00 6.879867e+01 -3.251994e+00
    endloop
endfacet
facet normal 0.000000e+00 9.238648e-01 -3.827190e-01
    outer loop
        vertex -8.200000e+00 6.866279e+01 -3.580000e+00
        vertex -8.200000e+00 6.879867e+01 -3.251994e+00
        vertex 8.000000e+00 6.879867e+01 -3.251994e+00
    endloop
endfacet
facet normal 0.000000e+00 9.914476e-01 -1.305053e-01
    outer loop
        vertex 8.000000e+00 6.879867e+01 -3.251994e+00
        vertex -8.200000e+00 6.879867e+01 -3.251994e+00
        vertex 8.000000e+00 6.884500e+01 -2.900000e+00
    endloop
endfacet
facet normal 0.000000e+00 9.914476e-01 -1.305053e-01
    outer loop
        vertex -8.200000e+00 6.879867e+01 -3.251994e+00
        vertex -8.200000e+00 6.884500e+01 -2.900000e+00
        vertex 8.000000e+00 6.884500e+01 -2.900000e+00
    endloop
endfacet
facet normal 1.000000e+00 0.000000e+00 0.000000e+00
    outer loop
        vertex 8.000000e+00 6.866279e+01 -3.580000e+00
        vertex 8.000000e+00 6.879867e+01 -3.251994e+00
        vertex 8.000000e+00 6.884500e+01 -2.900000e+00
    endloop
endfacet
facet normal 1.000000e+00 0.000000e+00 0.000000e+00
    outer loop
        vertex 8.000000e+00 6.866279e+01 -3.580000e+00
        vertex 8.000000e+00 6.884500e+01 -2.900000e+00
        vertex 8.000000e+00 6.879867e+01 -2.548006e+00
    endloop
endfacet
facet normal 1.000000e+00 0.000000e+00 0.000000e+00
    outer loop
        vertex 8.000000e+00 6.866279e+01 -3.580000e+00
        vertex 8.000000e+00 6.879867e+01 -2.548006e+00
        vertex 8.000000e+00 6.866279e+01 -2.220000e+00
    endloop
endfacet
facet normal 1.000000e+00 0.000000e+00 0.000000e+00
    outer loop
        vertex 8.000000e+00 6.844666e+01 -1.938335e+00
        vertex 8.000000e+00 6.866279e+01 -3.580000e+00
        vertex 8.000000e+00 6.866279e+01 -2.220000e+00
    endloop
endfacet
facet normal 1.000000e+00 0.000000e+00 0.000000e+00
    outer loop
        vertex 8.000000e+00 6.816500e+01 -1.722205e+00
        vertex 8.000000e+00 6.866279e+01 -3.580000e+00
        vertex 8.000000e+00 6.844666e+01 -1.938335e+00
    endloop
endfacet
facet normal 1.000000e+00 0.000000e+00 0.000000e+00
    outer loop
        vertex 8.000000e+00 6.783699e+01 -1.586341e+00
        vertex 8.000000e+00 6.866279e+01 -3.580000e+00
        vertex 8.000000e+00 6.816500e+01 -1.722205e+00
    endloop
endfacet
facet normal 1.000000e+00 0.000000e+00 0.000000e+00
    outer loop
        vertex 8.000000e+00 6.748500e+01 -1.540000e+00
        vertex 8.000000e+00 6.866279e+01 -3.580000e+00
        vertex 8.000000e+00 6.783699e+01 -1.586341e+00
    endloop
endfacet
facet normal 1.000000e+00 -0.000000e+00 0.000000e+00
    outer loop
        vertex 8.000000e+00 6.713301e+01 -1.586341e+00
        vertex 8.000000e+00 6.866279e+01 -3.580000e+00
        vertex 8.000000e+00 6.748500e+01 -1.540000e+00
    endloop
endfacet
facet normal 1.000000e+00 -0.000000e+00 0.000000e+00
    outer loop
        vertex 8.000000e+00 6.680500e+01 -1.722205e+00
        vertex 8.000000e+00 6.866279e+01 -3.580000e+00
        vertex 8.000000e+00 6.713301e+01 -1.586341e+00
    endloop
endfacet
facet normal 1.000000e+00 -0.000000e+00 0.000000e+00
    outer loop
        vertex 8.000000e+00 6.652334e+01 -1.938335e+00
        vertex 8.000000e+00 6.866279e+01 -3.580000e+00
        vertex 8.000000e+00 6.680500e+01 -1.722205e+00
    endloop
endfacet
facet normal 1.000000e+00 -0.000000e+00 0.000000e+00
    outer loop
        vertex 8.000000e+00 6.630721e+01 -2.220000e+00
        vertex 8.000000e+00 6.866279e+01 -3.580000e+00
        vertex 8.000000e+00 6.652334e+01 -1.938335e+00
    endloop
endfacet
facet normal 1.000000e+00 -0.000000e+00 0.000000e+00
    outer loop
        vertex 8.000000e+00 6.617134e+01 -2.548006e+00
        vertex 8.000000e+00 6.866279e+01 -3.580000e+00
        vertex 8.000000e+00 6.630721e+01 -2.220000e+00
    endloop
endfacet
facet normal 1.000000e+00 -0.000000e+00 0.000000e+00
    outer loop
        vertex 8.000000e+00 6.612500e+01 -2.900000e+00
        vertex 8.000000e+00 6.866279e+01 -3.580000e+00
        vertex 8.000000e+00 6.617134e+01 -2.548006e+00
    endloop
endfacet
facet normal 1.000000e+00 0.000000e+00 0.000000e+00
    outer loop
        vertex 8.000000e+00 6.612500e+01 -2.900000e+00
        vertex 8.000000e+00 6.617134e+01 -3.251994e+00
        vertex 8.000000e+00 6.866279e+01 -3.580000e+00
    endloop
endfacet
facet normal 1.000000e+00 0.000000e+00 0.000000e+00
    outer loop
        vertex 8.000000e+00 6.617134e+01 -3.251994e+00
        vertex 8.000000e+00 6.630721e+01 -3.580000e+00
        vertex 8.000000e+00 6.866279e+01 -3.580000e+00
    endloop
endfacet
facet normal 1.000000e+00 -0.000000e+00 0.000000e+00
    outer loop
        vertex 8.000000e+00 6.630721e+01 -3.580000e+00
        vertex 8.000000e+00 6.652334e+01 -3.861665e+00
        vertex 8.000000e+00 6.866279e+01 -3.580000e+00
    endloop
endfacet
facet normal 1.000000e+00 0.000000e+00 0.000000e+00
    outer loop
        vertex 8.000000e+00 6.652334e+01 -3.861665e+00
        vertex 8.000000e+00 6.844666e+01 -3.861665e+00
        vertex 8.000000e+00 6.866279e+01 -3.580000e+00
    endloop
endfacet
facet normal 1.000000e+00 -0.000000e+00 0.000000e+00
    outer loop
        vertex 8.000000e+00 6.652334e+01 -3.861665e+00
        vertex 8.000000e+00 6.680500e+01 -4.077795e+00
        vertex 8.000000e+00 6.844666e+01 -3.861665e+00
    endloop
endfacet
facet normal 1.000000e+00 -0.000000e+00 0.000000e+00
    outer loop
        vertex 8.000000e+00 6.680500e+01 -4.077795e+00
        vertex 8.000000e+00 6.713301e+01 -4.213660e+00
        vertex 8.000000e+00 6.844666e+01 -3.861665e+00
    endloop
endfacet
facet normal 1.000000e+00 -0.000000e+00 0.000000e+00
    outer loop
        vertex 8.000000e+00 6.713301e+01 -4.213660e+00
        vertex 8.000000e+00 6.748500e+01 -4.260001e+00
        vertex 8.000000e+00 6.844666e+01 -3.861665e+00
    endloop
endfacet
facet normal 1.000000e+00 0.000000e+00 0.000000e+00
    outer loop
        vertex 8.000000e+00 6.748500e+01 -4.260001e+00
        vertex 8.000000e+00 6.783699e+01 -4.213660e+00
        vertex 8.000000e+00 6.844666e+01 -3.861665e+00
    endloop
endfacet
facet normal 1.000000e+00 0.000000e+00 0.000000e+00
    outer loop
        vertex 8.000000e+00 6.783699e+01 -4.213660e+00
        vertex 8.000000e+00 6.816500e+01 -4.077795e+00
        vertex 8.000000e+00 6.844666e+01 -3.861665e+00
    endloop
endfacet
facet normal 0.000000e+00 9.914457e-01 -1.305199e-01
    outer loop
        vertex -8.200000e+00 7.001974e+01 -3.575162e+00
        vertex -9.200000e+00 7.001974e+01 -3.575162e+00
        vertex -8.200000e+00 7.010863e+01 -2.900000e+00
    endloop
endfacet
facet normal 0.000000e+00 9.914457e-01 -1.305199e-01
    outer loop
        vertex -9.200000e+00 7.001974e+01 -3.575162e+00
        vertex -9.200000e+00 7.010863e+01 -2.900000e+00
        vertex -8.200000e+00 7.010863e+01 -2.900000e+00
    endloop
endfacet
facet normal 0.000000e+00 9.914457e-01 1.305199e-01
    outer loop
        vertex -8.200000e+00 7.001974e+01 -2.224838e+00
        vertex -8.200000e+00 7.010863e+01 -2.900000e+00
        vertex -9.200000e+00 7.010863e+01 -2.900000e+00
    endloop
endfacet
facet normal 0.000000e+00 9.914457e-01 1.305199e-01
    outer loop
        vertex -8.200000e+00 7.001974e+01 -2.224838e+00
        vertex -9.200000e+00 7.010863e+01 -2.900000e+00
        vertex -9.200000e+00 7.001974e+01 -2.224838e+00
    endloop
endfacet
facet normal 0.000000e+00 9.238791e-01 3.826843e-01
    outer loop
        vertex -8.200000e+00 6.975914e+01 -1.595683e+00
        vertex -8.200000e+00 7.001974e+01 -2.224838e+00
        vertex -9.200000e+00 7.001974e+01 -2.224838e+00
    endloop
endfacet
facet normal 0.000000e+00 9.238791e-01 3.826843e-01
    outer loop
        vertex -8.200000e+00 6.975914e+01 -1.595683e+00
        vertex -9.200000e+00 7.001974e+01 -2.224838e+00
        vertex -9.200000e+00 6.975914e+01 -1.595683e+00
    endloop
endfacet
facet normal 0.000000e+00 7.933524e-01 6.087627e-01
    outer loop
        vertex -8.200000e+00 6.934458e+01 -1.055422e+00
        vertex -8.200000e+00 6.975914e+01 -1.595683e+00
        vertex -9.200000e+00 6.975914e+01 -1.595683e+00
    endloop
endfacet
facet normal 0.000000e+00 7.933524e-01 6.087627e-01
    outer loop
        vertex -8.200000e+00 6.934458e+01 -1.055422e+00
        vertex -9.200000e+00 6.975914e+01 -1.595683e+00
        vertex -9.200000e+00 6.934458e+01 -1.055422e+00
    endloop
endfacet
facet normal 0.000000e+00 6.087601e-01 7.933543e-01
    outer loop
        vertex -8.200000e+00 6.880431e+01 -6.408615e-01
        vertex -8.200000e+00 6.934458e+01 -1.055422e+00
        vertex -9.200000e+00 6.934458e+01 -1.055422e+00
    endloop
endfacet
facet normal 0.000000e+00 6.087601e-01 7.933543e-01
    outer loop
        vertex -8.200000e+00 6.880431e+01 -6.408615e-01
        vertex -9.200000e+00 6.934458e+01 -1.055422e+00
        vertex -9.200000e+00 6.880431e+01 -6.408615e-01
    endloop
endfacet
facet normal 0.000000e+00 3.826890e-01 9.238772e-01
    outer loop
        vertex -8.200000e+00 6.817517e+01 -3.802575e-01
        vertex -8.200000e+00 6.880431e+01 -6.408615e-01
        vertex -9.200000e+00 6.880431e+01 -6.408615e-01
    endloop
endfacet
facet normal 0.000000e+00 3.826890e-01 9.238772e-01
    outer loop
        vertex -8.200000e+00 6.817517e+01 -3.802575e-01
        vertex -9.200000e+00 6.880431e+01 -6.408615e-01
        vertex -9.200000e+00 6.817517e+01 -3.802575e-01
    endloop
endfacet
facet normal 0.000000e+00 1.305245e-01 9.914451e-01
    outer loop
        vertex -8.200000e+00 6.750000e+01 -2.913708e-01
        vertex -8.200000e+00 6.817517e+01 -3.802575e-01
        vertex -9.200000e+00 6.817517e+01 -3.802575e-01
    endloop
endfacet
facet normal 0.000000e+00 1.305245e-01 9.914451e-01
    outer loop
        vertex -8.200000e+00 6.750000e+01 -2.913708e-01
        vertex -9.200000e+00 6.817517e+01 -3.802575e-01
        vertex -9.200000e+00 6.750000e+01 -2.913708e-01
    endloop
endfacet
facet normal 0.000000e+00 -1.305245e-01 9.914451e-01
    outer loop
        vertex -8.200000e+00 6.682483e+01 -3.802575e-01
        vertex -8.200000e+00 6.750000e+01 -2.913708e-01
        vertex -9.200000e+00 6.682483e+01 -3.802575e-01
    endloop
endfacet
facet normal 0.000000e+00 -1.305245e-01 9.914451e-01
    outer loop
        vertex -9.200000e+00 6.682483e+01 -3.802575e-01
        vertex -8.200000e+00 6.750000e+01 -2.913708e-01
        vertex -9.200000e+00 6.750000e+01 -2.913708e-01
    endloop
endfacet
facet normal 0.000000e+00 -3.826890e-01 9.238772e-01
    outer loop
        vertex -8.200000e+00 6.619569e+01 -6.408615e-01
        vertex -8.200000e+00 6.682483e+01 -3.802575e-01
        vertex -9.200000e+00 6.619569e+01 -6.408615e-01
    endloop
endfacet
facet normal 0.000000e+00 -3.826890e-01 9.238772e-01
    outer loop
        vertex -9.200000e+00 6.619569e+01 -6.408615e-01
        vertex -8.200000e+00 6.682483e+01 -3.802575e-01
        vertex -9.200000e+00 6.682483e+01 -3.802575e-01
    endloop
endfacet
facet normal 0.000000e+00 -6.087601e-01 7.933543e-01
    outer loop
        vertex -8.200000e+00 6.565542e+01 -1.055422e+00
        vertex -8.200000e+00 6.619569e+01 -6.408615e-01
        vertex -9.200000e+00 6.565542e+01 -1.055422e+00
    endloop
endfacet
facet normal 0.000000e+00 -6.087601e-01 7.933543e-01
    outer loop
        vertex -9.200000e+00 6.565542e+01 -1.055422e+00
        vertex -8.200000e+00 6.619569e+01 -6.408615e-01
        vertex -9.200000e+00 6.619569e+01 -6.408615e-01
    endloop
endfacet
facet normal 0.000000e+00 -7.933524e-01 6.087627e-01
    outer loop
        vertex -8.200000e+00 6.524086e+01 -1.595683e+00
        vertex -8.200000e+00 6.565542e+01 -1.055422e+00
        vertex -9.200000e+00 6.524086e+01 -1.595683e+00
    endloop
endfacet
facet normal 0.000000e+00 -7.933524e-01 6.087627e-01
    outer loop
        vertex -9.200000e+00 6.524086e+01 -1.595683e+00
        vertex -8.200000e+00 6.565542e+01 -1.055422e+00
        vertex -9.200000e+00 6.565542e+01 -1.055422e+00
    endloop
endfacet
facet normal 0.000000e+00 -9.238791e-01 3.826843e-01
    outer loop
        vertex -8.200000e+00 6.498026e+01 -2.224838e+00
        vertex -8.200000e+00 6.524086e+01 -1.595683e+00
        vertex -9.200000e+00 6.498026e+01 -2.224838e+00
    endloop
endfacet
facet normal 0.000000e+00 -9.238791e-01 3.826843e-01
    outer loop
        vertex -9.200000e+00 6.498026e+01 -2.224838e+00
        vertex -8.200000e+00 6.524086e+01 -1.595683e+00
        vertex -9.200000e+00 6.524086e+01 -1.595683e+00
    endloop
endfacet
facet normal 0.000000e+00 -9.914457e-01 1.305199e-01
    outer loop
        vertex -8.200000e+00 6.489137e+01 -2.900000e+00
        vertex -8.200000e+00 6.498026e+01 -2.224838e+00
        vertex -9.200000e+00 6.489137e+01 -2.900000e+00
    endloop
endfacet
facet normal 0.000000e+00 -9.914457e-01 1.305199e-01
    outer loop
        vertex -9.200000e+00 6.489137e+01 -2.900000e+00
        vertex -8.200000e+00 6.498026e+01 -2.224838e+00
        vertex -9.200000e+00 6.498026e+01 -2.224838e+00
    endloop
endfacet
facet normal 0.000000e+00 -9.914457e-01 -1.305199e-01
    outer loop
        vertex -8.200000e+00 6.489137e+01 -2.900000e+00
        vertex -9.200000e+00 6.498026e+01 -3.575162e+00
        vertex -8.200000e+00 6.498026e+01 -3.575162e+00
    endloop
endfacet
facet normal -0.000000e+00 -9.914457e-01 -1.305199e-01
    outer loop
        vertex -8.200000e+00 6.489137e+01 -2.900000e+00
        vertex -9.200000e+00 6.489137e+01 -2.900000e+00
        vertex -9.200000e+00 6.498026e+01 -3.575162e+00
    endloop
endfacet
facet normal 0.000000e+00 -9.238793e-01 -3.826841e-01
    outer loop
        vertex -8.200000e+00 6.498026e+01 -3.575162e+00
        vertex -9.200000e+00 6.524086e+01 -4.204317e+00
        vertex -8.200000e+00 6.524086e+01 -4.204317e+00
    endloop
endfacet
facet normal -0.000000e+00 -9.238793e-01 -3.826841e-01
    outer loop
        vertex -8.200000e+00 6.498026e+01 -3.575162e+00
        vertex -9.200000e+00 6.498026e+01 -3.575162e+00
        vertex -9.200000e+00 6.524086e+01 -4.204317e+00
    endloop
endfacet
facet normal 0.000000e+00 -7.933524e-01 -6.087627e-01
    outer loop
        vertex -8.200000e+00 6.524086e+01 -4.204317e+00
        vertex -9.200000e+00 6.565542e+01 -4.744578e+00
        vertex -8.200000e+00 6.565542e+01 -4.744578e+00
    endloop
endfacet
facet normal -0.000000e+00 -7.933524e-01 -6.087627e-01
    outer loop
        vertex -8.200000e+00 6.524086e+01 -4.204317e+00
        vertex -9.200000e+00 6.524086e+01 -4.204317e+00
        vertex -9.200000e+00 6.565542e+01 -4.744578e+00
    endloop
endfacet
facet normal 0.000000e+00 -6.087606e-01 -7.933540e-01
    outer loop
        vertex -8.200000e+00 6.565542e+01 -4.744578e+00
        vertex -9.200000e+00 6.619569e+01 -5.159139e+00
        vertex -8.200000e+00 6.619569e+01 -5.159139e+00
    endloop
endfacet
facet normal -0.000000e+00 -6.087606e-01 -7.933540e-01
    outer loop
        vertex -8.200000e+00 6.565542e+01 -4.744578e+00
        vertex -9.200000e+00 6.565542e+01 -4.744578e+00
        vertex -9.200000e+00 6.619569e+01 -5.159139e+00
    endloop
endfacet
facet normal 0.000000e+00 -3.826878e-01 -9.238777e-01
    outer loop
        vertex -8.200000e+00 6.619569e+01 -5.159139e+00
        vertex -9.200000e+00 6.682483e+01 -5.419742e+00
        vertex -8.200000e+00 6.682483e+01 -5.419742e+00
    endloop
endfacet
facet normal -0.000000e+00 -3.826878e-01 -9.238777e-01
    outer loop
        vertex -8.200000e+00 6.619569e+01 -5.159139e+00
        vertex -9.200000e+00 6.619569e+01 -5.159139e+00
        vertex -9.200000e+00 6.682483e+01 -5.419742e+00
    endloop
endfacet
facet normal 0.000000e+00 -1.305252e-01 -9.914450e-01
    outer loop
        vertex -8.200000e+00 6.682483e+01 -5.419742e+00
        vertex -9.200000e+00 6.750000e+01 -5.508629e+00
        vertex -8.200000e+00 6.750000e+01 -5.508629e+00
    endloop
endfacet
facet normal -0.000000e+00 -1.305252e-01 -9.914450e-01
    outer loop
        vertex -8.200000e+00 6.682483e+01 -5.419742e+00
        vertex -9.200000e+00 6.682483e+01 -5.419742e+00
        vertex -9.200000e+00 6.750000e+01 -5.508629e+00
    endloop
endfacet
facet normal 0.000000e+00 1.305252e-01 -9.914450e-01
    outer loop
        vertex -8.200000e+00 6.750000e+01 -5.508629e+00
        vertex -9.200000e+00 6.750000e+01 -5.508629e+00
        vertex -8.200000e+00 6.817517e+01 -5.419742e+00
    endloop
endfacet
facet normal 0.000000e+00 1.305252e-01 -9.914450e-01
    outer loop
        vertex -9.200000e+00 6.750000e+01 -5.508629e+00
        vertex -9.200000e+00 6.817517e+01 -5.419742e+00
        vertex -8.200000e+00 6.817517e+01 -5.419742e+00
    endloop
endfacet
facet normal 0.000000e+00 3.826878e-01 -9.238777e-01
    outer loop
        vertex -8.200000e+00 6.817517e+01 -5.419742e+00
        vertex -9.200000e+00 6.817517e+01 -5.419742e+00
        vertex -8.200000e+00 6.880431e+01 -5.159139e+00
    endloop
endfacet
facet normal 0.000000e+00 3.826878e-01 -9.238777e-01
    outer loop
        vertex -9.200000e+00 6.817517e+01 -5.419742e+00
        vertex -9.200000e+00 6.880431e+01 -5.159139e+00
        vertex -8.200000e+00 6.880431e+01 -5.159139e+00
    endloop
endfacet
facet normal 0.000000e+00 6.087606e-01 -7.933540e-01
    outer loop
        vertex -8.200000e+00 6.880431e+01 -5.159139e+00
        vertex -9.200000e+00 6.880431e+01 -5.159139e+00
        vertex -8.200000e+00 6.934458e+01 -4.744578e+00
    endloop
endfacet
facet normal 0.000000e+00 6.087606e-01 -7.933540e-01
    outer loop
        vertex -9.200000e+00 6.880431e+01 -5.159139e+00
        vertex -9.200000e+00 6.934458e+01 -4.744578e+00
        vertex -8.200000e+00 6.934458e+01 -4.744578e+00
    endloop
endfacet
facet normal 0.000000e+00 7.933524e-01 -6.087627e-01
    outer loop
        vertex -8.200000e+00 6.934458e+01 -4.744578e+00
        vertex -9.200000e+00 6.934458e+01 -4.744578e+00
        vertex -8.200000e+00 6.975914e+01 -4.204317e+00
    endloop
endfacet
facet normal 0.000000e+00 7.933524e-01 -6.087627e-01
    outer loop
        vertex -9.200000e+00 6.934458e+01 -4.744578e+00
        vertex -9.200000e+00 6.975914e+01 -4.204317e+00
        vertex -8.200000e+00 6.975914e+01 -4.204317e+00
    endloop
endfacet
facet normal 0.000000e+00 9.238793e-01 -3.826841e-01
    outer loop
        vertex -8.200000e+00 6.975914e+01 -4.204317e+00
        vertex -9.200000e+00 6.975914e+01 -4.204317e+00
        vertex -8.200000e+00 7.001974e+01 -3.575162e+00
    endloop
endfacet
facet normal 0.000000e+00 9.238793e-01 -3.826841e-01
    outer loop
        vertex -9.200000e+00 6.975914e+01 -4.204317e+00
        vertex -9.200000e+00 7.001974e+01 -3.575162e+00
        vertex -8.200000e+00 7.001974e+01 -3.575162e+00
    endloop
endfacet
endsolid trigger-cage-pins.stl
