solid switch-pin.stl
facet normal 0.000000e+00 -1.000000e+00 0.000000e+00
    outer loop
        vertex -6.700000e+00 -9.600000e+00 4.400000e+01
        vertex -7.700000e+00 -9.600000e+00 4.500000e+01
        vertex -7.700000e+00 -9.600000e+00 4.400000e+01
    endloop
endfacet
facet normal 0.000000e+00 -1.000000e+00 0.000000e+00
    outer loop
        vertex -6.700000e+00 -9.600000e+00 4.400000e+01
        vertex -6.700000e+00 -9.600000e+00 4.500000e+01
        vertex -7.700000e+00 -9.600000e+00 4.500000e+01
    endloop
endfacet
facet normal -1.000000e+00 0.000000e+00 0.000000e+00
    outer loop
        vertex -7.700000e+00 -9.600000e+00 4.400000e+01
        vertex -7.700000e+00 -9.600000e+00 4.500000e+01
        vertex -7.700000e+00 9.600000e+00 4.400000e+01
    endloop
endfacet
facet normal -1.000000e+00 0.000000e+00 0.000000e+00
    outer loop
        vertex -7.700000e+00 -9.600000e+00 4.500000e+01
        vertex -7.700000e+00 9.600000e+00 4.500000e+01
        vertex -7.700000e+00 9.600000e+00 4.400000e+01
    endloop
endfacet
facet normal 0.000000e+00 0.000000e+00 1.000000e+00
    outer loop
        vertex -6.700000e+00 -9.600000e+00 4.500000e+01
        vertex -7.700000e+00 9.600000e+00 4.500000e+01
        vertex -7.700000e+00 -9.600000e+00 4.500000e+01
    endloop
endfacet
facet normal 0.000000e+00 -0.000000e+00 1.000000e+00
    outer loop
        vertex -6.700000e+00 -9.600000e+00 4.500000e+01
        vertex -6.700000e+00 9.600000e+00 4.500000e+01
        vertex -7.700000e+00 9.600000e+00 4.500000e+01
    endloop
endfacet
facet normal 1.000000e+00 0.000000e+00 0.000000e+00
    outer loop
        vertex -6.700000e+00 -9.600000e+00 4.400000e+01
        vertex -6.700000e+00 9.600000e+00 4.400000e+01
        vertex -6.700000e+00 -9.600000e+00 4.500000e+01
    endloop
endfacet
facet normal 1.000000e+00 -0.000000e+00 0.000000e+00
    outer loop
        vertex -6.700000e+00 -9.600000e+00 4.500000e+01
        vertex -6.700000e+00 9.600000e+00 4.400000e+01
        vertex -6.700000e+00 9.600000e+00 4.500000e+01
    endloop
endfacet
facet normal 0.000000e+00 0.000000e+00 -1.000000e+00
    outer loop
        vertex -6.700000e+00 -9.600000e+00 4.400000e+01
        vertex -7.700000e+00 -9.600000e+00 4.400000e+01
        vertex -7.700000e+00 9.600000e+00 4.400000e+01
    endloop
endfacet
facet normal 0.000000e+00 0.000000e+00 -1.000000e+00
    outer loop
        vertex -6.700000e+00 -9.600000e+00 4.400000e+01
        vertex -7.700000e+00 9.600000e+00 4.400000e+01
        vertex -6.700000e+00 9.600000e+00 4.400000e+01
    endloop
endfacet
facet normal 0.000000e+00 1.000000e+00 0.000000e+00
    outer loop
        vertex -6.700000e+00 9.600000e+00 4.400000e+01
        vertex -7.700000e+00 9.600000e+00 4.400000e+01
        vertex -7.700000e+00 9.600000e+00 4.500000e+01
    endloop
endfacet
facet normal 0.000000e+00 1.000000e+00 -0.000000e+00
    outer loop
        vertex -6.700000e+00 9.600000e+00 4.400000e+01
        vertex -7.700000e+00 9.600000e+00 4.500000e+01
        vertex -6.700000e+00 9.600000e+00 4.500000e+01
    endloop
endfacet
endsolid switch-pin.stl
