solid switch-pin.stl
facet normal 0.000000e+00 -1.000000e+00 0.000000e+00
    outer loop
        vertex -6.465499e+00 -9.500001e+00 4.376551e+01
        vertex -7.934500e+00 -9.500001e+00 4.529101e+01
        vertex -7.934500e+00 -9.500001e+00 4.376551e+01
    endloop
endfacet
facet normal 0.000000e+00 -1.000000e+00 0.000000e+00
    outer loop
        vertex -6.465499e+00 -9.500001e+00 4.376551e+01
        vertex -6.465499e+00 -9.500001e+00 4.529101e+01
        vertex -7.934500e+00 -9.500001e+00 4.529101e+01
    endloop
endfacet
facet normal -1.000000e+00 0.000000e+00 0.000000e+00
    outer loop
        vertex -7.934500e+00 -9.500001e+00 4.376551e+01
        vertex -7.934500e+00 -9.500001e+00 4.529101e+01
        vertex -7.934500e+00 9.700000e+00 4.376551e+01
    endloop
endfacet
facet normal -1.000000e+00 0.000000e+00 0.000000e+00
    outer loop
        vertex -7.934500e+00 -9.500001e+00 4.529101e+01
        vertex -7.934500e+00 9.700000e+00 4.529101e+01
        vertex -7.934500e+00 9.700000e+00 4.376551e+01
    endloop
endfacet
facet normal 0.000000e+00 0.000000e+00 1.000000e+00
    outer loop
        vertex -6.465499e+00 -9.500001e+00 4.529101e+01
        vertex -7.934500e+00 9.700000e+00 4.529101e+01
        vertex -7.934500e+00 -9.500001e+00 4.529101e+01
    endloop
endfacet
facet normal 0.000000e+00 -0.000000e+00 1.000000e+00
    outer loop
        vertex -6.465499e+00 -9.500001e+00 4.529101e+01
        vertex -6.465499e+00 9.700000e+00 4.529101e+01
        vertex -7.934500e+00 9.700000e+00 4.529101e+01
    endloop
endfacet
facet normal 1.000000e+00 0.000000e+00 0.000000e+00
    outer loop
        vertex -6.465499e+00 -9.500001e+00 4.376551e+01
        vertex -6.465499e+00 9.700000e+00 4.376551e+01
        vertex -6.465499e+00 -9.500001e+00 4.529101e+01
    endloop
endfacet
facet normal 1.000000e+00 -0.000000e+00 0.000000e+00
    outer loop
        vertex -6.465499e+00 -9.500001e+00 4.529101e+01
        vertex -6.465499e+00 9.700000e+00 4.376551e+01
        vertex -6.465499e+00 9.700000e+00 4.529101e+01
    endloop
endfacet
facet normal 0.000000e+00 0.000000e+00 -1.000000e+00
    outer loop
        vertex -6.465499e+00 -9.500001e+00 4.376551e+01
        vertex -7.934500e+00 -9.500001e+00 4.376551e+01
        vertex -7.934500e+00 9.700000e+00 4.376551e+01
    endloop
endfacet
facet normal 0.000000e+00 0.000000e+00 -1.000000e+00
    outer loop
        vertex -6.465499e+00 -9.500001e+00 4.376551e+01
        vertex -7.934500e+00 9.700000e+00 4.376551e+01
        vertex -6.465499e+00 9.700000e+00 4.376551e+01
    endloop
endfacet
facet normal 0.000000e+00 1.000000e+00 0.000000e+00
    outer loop
        vertex -6.465499e+00 9.700000e+00 4.376551e+01
        vertex -7.934500e+00 9.700000e+00 4.376551e+01
        vertex -7.934500e+00 9.700000e+00 4.529101e+01
    endloop
endfacet
facet normal 0.000000e+00 1.000000e+00 -0.000000e+00
    outer loop
        vertex -6.465499e+00 9.700000e+00 4.376551e+01
        vertex -7.934500e+00 9.700000e+00 4.529101e+01
        vertex -6.465499e+00 9.700000e+00 4.529101e+01
    endloop
endfacet
endsolid switch-pin.stl
