solid trigger.stl
facet normal 0.000000e+00 0.000000e+00 -1.000000e+00
    outer loop
        vertex -1.200000e+01 -3.500000e+00 -2.650000e+01
        vertex -1.650000e+01 -3.500000e+00 -2.650000e+01
        vertex -1.650000e+01 3.500000e+00 -2.650000e+01
    endloop
endfacet
facet normal 0.000000e+00 0.000000e+00 -1.000000e+00
    outer loop
        vertex -1.200000e+01 -3.500000e+00 -2.650000e+01
        vertex -1.650000e+01 3.500000e+00 -2.650000e+01
        vertex -1.200000e+01 3.500000e+00 -2.650000e+01
    endloop
endfacet
facet normal 0.000000e+00 -1.000000e+00 0.000000e+00
    outer loop
        vertex 3.000000e+00 -3.500000e+00 6.600000e+00
        vertex 3.000000e+00 -3.500000e+00 1.100000e+01
        vertex -1.230000e+01 -3.500000e+00 1.100000e+01
    endloop
endfacet
facet normal 0.000000e+00 -1.000000e+00 0.000000e+00
    outer loop
        vertex -1.200000e+01 -3.500000e+00 3.600000e+00
        vertex 3.000000e+00 -3.500000e+00 6.600000e+00
        vertex -1.230000e+01 -3.500000e+00 1.100000e+01
    endloop
endfacet
facet normal 0.000000e+00 -1.000000e+00 0.000000e+00
    outer loop
        vertex -1.200000e+01 -3.500000e+00 -2.650000e+01
        vertex -1.650000e+01 -3.500000e+00 3.500000e+00
        vertex -1.650000e+01 -3.500000e+00 -2.650000e+01
    endloop
endfacet
facet normal 0.000000e+00 -1.000000e+00 0.000000e+00
    outer loop
        vertex -1.200000e+01 -3.500000e+00 -2.650000e+01
        vertex -1.200000e+01 -3.500000e+00 3.600000e+00
        vertex -1.650000e+01 -3.500000e+00 3.500000e+00
    endloop
endfacet
facet normal 0.000000e+00 -1.000000e+00 0.000000e+00
    outer loop
        vertex -1.200000e+01 -3.500000e+00 3.600000e+00
        vertex -1.230000e+01 -3.500000e+00 1.100000e+01
        vertex -1.230000e+01 -3.500000e+00 7.600000e+00
    endloop
endfacet
facet normal 0.000000e+00 -1.000000e+00 0.000000e+00
    outer loop
        vertex -1.650000e+01 -3.500000e+00 3.500000e+00
        vertex -1.200000e+01 -3.500000e+00 3.600000e+00
        vertex -1.230000e+01 -3.500000e+00 7.600000e+00
    endloop
endfacet
facet normal 1.000000e+00 0.000000e+00 0.000000e+00
    outer loop
        vertex -1.200000e+01 -3.500000e+00 -2.650000e+01
        vertex -1.200000e+01 3.500000e+00 -2.650000e+01
        vertex -1.200000e+01 3.500000e+00 3.400000e+00
    endloop
endfacet
facet normal 1.000000e+00 0.000000e+00 0.000000e+00
    outer loop
        vertex -1.200000e+01 -3.500000e+00 -2.650000e+01
        vertex -1.200000e+01 3.500000e+00 3.400000e+00
        vertex -1.200000e+01 -2.000000e-01 3.400000e+00
    endloop
endfacet
facet normal 1.000000e+00 0.000000e+00 0.000000e+00
    outer loop
        vertex -1.200000e+01 -3.500000e+00 -2.650000e+01
        vertex -1.200000e+01 -2.000000e-01 3.400000e+00
        vertex -1.200000e+01 -3.500000e+00 3.600000e+00
    endloop
endfacet
facet normal 1.000000e+00 -0.000000e+00 0.000000e+00
    outer loop
        vertex -1.200000e+01 -3.500000e+00 3.600000e+00
        vertex -1.200000e+01 -2.000000e-01 3.400000e+00
        vertex -1.200000e+01 -2.000000e-01 3.600000e+00
    endloop
endfacet
facet normal 1.000000e+00 0.000000e+00 0.000000e+00
    outer loop
        vertex 3.000000e+00 -3.500000e+00 6.600000e+00
        vertex 3.000000e+00 -2.000000e-01 1.100000e+01
        vertex 3.000000e+00 -3.500000e+00 1.100000e+01
    endloop
endfacet
facet normal 1.000000e+00 0.000000e+00 0.000000e+00
    outer loop
        vertex 3.000000e+00 -3.500000e+00 6.600000e+00
        vertex 3.000000e+00 -2.000000e-01 6.600000e+00
        vertex 3.000000e+00 -2.000000e-01 1.100000e+01
    endloop
endfacet
facet normal 1.961161e-01 0.000000e+00 -9.805807e-01
    outer loop
        vertex -1.200000e+01 -3.500000e+00 3.600000e+00
        vertex 3.000000e+00 -2.000000e-01 6.600000e+00
        vertex 3.000000e+00 -3.500000e+00 6.600000e+00
    endloop
endfacet
facet normal 1.961161e-01 0.000000e+00 -9.805807e-01
    outer loop
        vertex -1.200000e+01 -3.500000e+00 3.600000e+00
        vertex -1.200000e+01 -2.000000e-01 3.600000e+00
        vertex 3.000000e+00 -2.000000e-01 6.600000e+00
    endloop
endfacet
facet normal -1.000000e+00 0.000000e+00 0.000000e+00
    outer loop
        vertex -1.650000e+01 -3.500000e+00 -2.650000e+01
        vertex -1.650000e+01 3.500000e+00 3.400000e+00
        vertex -1.650000e+01 3.500000e+00 -2.650000e+01
    endloop
endfacet
facet normal -1.000000e+00 0.000000e+00 0.000000e+00
    outer loop
        vertex -1.650000e+01 -3.500000e+00 -2.650000e+01
        vertex -1.650000e+01 -2.000000e-01 3.400000e+00
        vertex -1.650000e+01 3.500000e+00 3.400000e+00
    endloop
endfacet
facet normal -1.000000e+00 0.000000e+00 0.000000e+00
    outer loop
        vertex -1.650000e+01 -3.500000e+00 -2.650000e+01
        vertex -1.650000e+01 -3.500000e+00 3.500000e+00
        vertex -1.650000e+01 -2.000000e-01 3.400000e+00
    endloop
endfacet
facet normal -1.000000e+00 0.000000e+00 0.000000e+00
    outer loop
        vertex -1.650000e+01 -3.500000e+00 3.500000e+00
        vertex -1.650000e+01 -2.000000e-01 3.500000e+00
        vertex -1.650000e+01 -2.000000e-01 3.400000e+00
    endloop
endfacet
facet normal 0.000000e+00 0.000000e+00 1.000000e+00
    outer loop
        vertex 3.000000e+00 -3.500000e+00 1.100000e+01
        vertex -1.230000e+01 -2.000000e-01 1.100000e+01
        vertex -1.230000e+01 -3.500000e+00 1.100000e+01
    endloop
endfacet
facet normal 0.000000e+00 -0.000000e+00 1.000000e+00
    outer loop
        vertex 3.000000e+00 -3.500000e+00 1.100000e+01
        vertex 3.000000e+00 -2.000000e-01 1.100000e+01
        vertex -1.230000e+01 -2.000000e-01 1.100000e+01
    endloop
endfacet
facet normal 0.000000e+00 1.000000e+00 -0.000000e+00
    outer loop
        vertex -1.200000e+01 3.500000e+00 -2.650000e+01
        vertex -1.650000e+01 3.500000e+00 -2.650000e+01
        vertex -1.200000e+01 3.500000e+00 3.400000e+00
    endloop
endfacet
facet normal 0.000000e+00 1.000000e+00 0.000000e+00
    outer loop
        vertex -1.650000e+01 3.500000e+00 -2.650000e+01
        vertex -1.650000e+01 3.500000e+00 3.400000e+00
        vertex -1.200000e+01 3.500000e+00 3.400000e+00
    endloop
endfacet
facet normal -1.000000e+00 0.000000e+00 0.000000e+00
    outer loop
        vertex -1.230000e+01 -3.500000e+00 7.600000e+00
        vertex -1.230000e+01 -3.500000e+00 1.100000e+01
        vertex -1.230000e+01 -2.000000e-01 7.600000e+00
    endloop
endfacet
facet normal -1.000000e+00 0.000000e+00 0.000000e+00
    outer loop
        vertex -1.230000e+01 -3.500000e+00 1.100000e+01
        vertex -1.230000e+01 -2.000000e-01 1.100000e+01
        vertex -1.230000e+01 -2.000000e-01 7.600000e+00
    endloop
endfacet
facet normal -6.985366e-01 0.000000e+00 7.155743e-01
    outer loop
        vertex -1.650000e+01 -3.500000e+00 3.500000e+00
        vertex -1.230000e+01 -3.500000e+00 7.600000e+00
        vertex -1.230000e+01 -2.000000e-01 7.600000e+00
    endloop
endfacet
facet normal -6.985366e-01 0.000000e+00 7.155743e-01
    outer loop
        vertex -1.650000e+01 -3.500000e+00 3.500000e+00
        vertex -1.230000e+01 -2.000000e-01 7.600000e+00
        vertex -1.650000e+01 -2.000000e-01 3.500000e+00
    endloop
endfacet
facet normal 0.000000e+00 -0.000000e+00 1.000000e+00
    outer loop
        vertex -1.200000e+01 -2.000000e-01 3.400000e+00
        vertex -1.200000e+01 3.500000e+00 3.400000e+00
        vertex -1.650000e+01 -2.000000e-01 3.400000e+00
    endloop
endfacet
facet normal 0.000000e+00 0.000000e+00 1.000000e+00
    outer loop
        vertex -1.650000e+01 -2.000000e-01 3.400000e+00
        vertex -1.200000e+01 3.500000e+00 3.400000e+00
        vertex -1.650000e+01 3.500000e+00 3.400000e+00
    endloop
endfacet
facet normal 0.000000e+00 1.000000e+00 0.000000e+00
    outer loop
        vertex -1.230000e+01 -2.000000e-01 7.600000e+00
        vertex -1.230000e+01 -2.000000e-01 1.100000e+01
        vertex -1.049100e+01 -2.000000e-01 8.000000e+00
    endloop
endfacet
facet normal 0.000000e+00 1.000000e+00 0.000000e+00
    outer loop
        vertex -1.230000e+01 -2.000000e-01 7.600000e+00
        vertex -1.049100e+01 -2.000000e-01 8.000000e+00
        vertex -1.044020e+01 -2.000000e-01 7.614101e+00
    endloop
endfacet
facet normal 0.000000e+00 1.000000e+00 0.000000e+00
    outer loop
        vertex -1.029124e+01 -2.000000e-01 7.254500e+00
        vertex -1.230000e+01 -2.000000e-01 7.600000e+00
        vertex -1.044020e+01 -2.000000e-01 7.614101e+00
    endloop
endfacet
facet normal 0.000000e+00 1.000000e+00 0.000000e+00
    outer loop
        vertex -1.650000e+01 -2.000000e-01 3.500000e+00
        vertex -1.230000e+01 -2.000000e-01 7.600000e+00
        vertex -1.029124e+01 -2.000000e-01 7.254500e+00
    endloop
endfacet
facet normal 0.000000e+00 1.000000e+00 -0.000000e+00
    outer loop
        vertex -3.891000e+00 -2.000000e-01 8.000000e+00
        vertex -7.509000e+00 -2.000000e-01 8.000000e+00
        vertex -3.840195e+00 -2.000000e-01 8.385900e+00
    endloop
endfacet
facet normal 0.000000e+00 1.000000e+00 -0.000000e+00
    outer loop
        vertex -7.509000e+00 -2.000000e-01 8.000000e+00
        vertex -7.559804e+00 -2.000000e-01 8.385900e+00
        vertex -3.840195e+00 -2.000000e-01 8.385900e+00
    endloop
endfacet
facet normal 0.000000e+00 1.000000e+00 0.000000e+00
    outer loop
        vertex -7.559804e+00 -2.000000e-01 7.614101e+00
        vertex -7.509000e+00 -2.000000e-01 8.000000e+00
        vertex -3.891000e+00 -2.000000e-01 8.000000e+00
    endloop
endfacet
facet normal 0.000000e+00 1.000000e+00 0.000000e+00
    outer loop
        vertex -3.840195e+00 -2.000000e-01 7.614101e+00
        vertex -7.559804e+00 -2.000000e-01 7.614101e+00
        vertex -3.891000e+00 -2.000000e-01 8.000000e+00
    endloop
endfacet
facet normal 0.000000e+00 1.000000e+00 0.000000e+00
    outer loop
        vertex -3.691244e+00 -2.000000e-01 7.254500e+00
        vertex -7.559804e+00 -2.000000e-01 7.614101e+00
        vertex -3.840195e+00 -2.000000e-01 7.614101e+00
    endloop
endfacet
facet normal 0.000000e+00 1.000000e+00 0.000000e+00
    outer loop
        vertex -3.691244e+00 -2.000000e-01 7.254500e+00
        vertex -7.708756e+00 -2.000000e-01 7.254500e+00
        vertex -7.559804e+00 -2.000000e-01 7.614101e+00
    endloop
endfacet
facet normal 0.000000e+00 1.000000e+00 -0.000000e+00
    outer loop
        vertex -3.840195e+00 -2.000000e-01 8.385900e+00
        vertex -7.559804e+00 -2.000000e-01 8.385900e+00
        vertex -3.691244e+00 -2.000000e-01 8.745500e+00
    endloop
endfacet
facet normal 0.000000e+00 1.000000e+00 -0.000000e+00
    outer loop
        vertex -7.559804e+00 -2.000000e-01 8.385900e+00
        vertex -7.708756e+00 -2.000000e-01 8.745500e+00
        vertex -3.691244e+00 -2.000000e-01 8.745500e+00
    endloop
endfacet
facet normal 0.000000e+00 1.000000e+00 -0.000000e+00
    outer loop
        vertex -1.049100e+01 -2.000000e-01 8.000000e+00
        vertex -1.230000e+01 -2.000000e-01 1.100000e+01
        vertex -1.044020e+01 -2.000000e-01 8.385900e+00
    endloop
endfacet
facet normal 0.000000e+00 1.000000e+00 -0.000000e+00
    outer loop
        vertex -1.044020e+01 -2.000000e-01 8.385900e+00
        vertex -1.230000e+01 -2.000000e-01 1.100000e+01
        vertex -1.029124e+01 -2.000000e-01 8.745500e+00
    endloop
endfacet
facet normal 0.000000e+00 1.000000e+00 -0.000000e+00
    outer loop
        vertex -1.029124e+01 -2.000000e-01 8.745500e+00
        vertex -1.230000e+01 -2.000000e-01 1.100000e+01
        vertex -1.005430e+01 -2.000000e-01 9.054296e+00
    endloop
endfacet
facet normal 0.000000e+00 1.000000e+00 -0.000000e+00
    outer loop
        vertex -1.005430e+01 -2.000000e-01 9.054296e+00
        vertex -1.230000e+01 -2.000000e-01 1.100000e+01
        vertex -9.745500e+00 -2.000000e-01 9.291244e+00
    endloop
endfacet
facet normal 0.000000e+00 1.000000e+00 -0.000000e+00
    outer loop
        vertex -9.745500e+00 -2.000000e-01 9.291244e+00
        vertex -1.230000e+01 -2.000000e-01 1.100000e+01
        vertex -9.385900e+00 -2.000000e-01 9.440195e+00
    endloop
endfacet
facet normal 0.000000e+00 1.000000e+00 0.000000e+00
    outer loop
        vertex -3.691244e+00 -2.000000e-01 8.745500e+00
        vertex -7.708756e+00 -2.000000e-01 8.745500e+00
        vertex -7.945704e+00 -2.000000e-01 9.054296e+00
    endloop
endfacet
facet normal 0.000000e+00 1.000000e+00 -0.000000e+00
    outer loop
        vertex -3.691244e+00 -2.000000e-01 8.745500e+00
        vertex -7.945704e+00 -2.000000e-01 9.054296e+00
        vertex -3.454297e+00 -2.000000e-01 9.054296e+00
    endloop
endfacet
facet normal 0.000000e+00 1.000000e+00 0.000000e+00
    outer loop
        vertex -7.945704e+00 -2.000000e-01 6.945704e+00
        vertex -7.708756e+00 -2.000000e-01 7.254500e+00
        vertex -3.691244e+00 -2.000000e-01 7.254500e+00
    endloop
endfacet
facet normal 0.000000e+00 1.000000e+00 0.000000e+00
    outer loop
        vertex -3.454297e+00 -2.000000e-01 6.945704e+00
        vertex -7.945704e+00 -2.000000e-01 6.945704e+00
        vertex -3.691244e+00 -2.000000e-01 7.254500e+00
    endloop
endfacet
facet normal 0.000000e+00 1.000000e+00 -0.000000e+00
    outer loop
        vertex -9.385900e+00 -2.000000e-01 9.440195e+00
        vertex -1.230000e+01 -2.000000e-01 1.100000e+01
        vertex -9.000000e+00 -2.000000e-01 9.491000e+00
    endloop
endfacet
facet normal 0.000000e+00 1.000000e+00 -0.000000e+00
    outer loop
        vertex -9.000000e+00 -2.000000e-01 9.491000e+00
        vertex -1.230000e+01 -2.000000e-01 1.100000e+01
        vertex 3.000000e+00 -2.000000e-01 1.100000e+01
    endloop
endfacet
facet normal 0.000000e+00 1.000000e+00 0.000000e+00
    outer loop
        vertex -1.650000e+01 -2.000000e-01 3.500000e+00
        vertex -1.029124e+01 -2.000000e-01 7.254500e+00
        vertex -1.005430e+01 -2.000000e-01 6.945704e+00
    endloop
endfacet
facet normal 0.000000e+00 1.000000e+00 0.000000e+00
    outer loop
        vertex -3.145500e+00 -2.000000e-01 6.708756e+00
        vertex -7.945704e+00 -2.000000e-01 6.945704e+00
        vertex -3.454297e+00 -2.000000e-01 6.945704e+00
    endloop
endfacet
facet normal 0.000000e+00 1.000000e+00 0.000000e+00
    outer loop
        vertex -3.145500e+00 -2.000000e-01 6.708756e+00
        vertex -8.254500e+00 -2.000000e-01 6.708756e+00
        vertex -7.945704e+00 -2.000000e-01 6.945704e+00
    endloop
endfacet
facet normal 0.000000e+00 1.000000e+00 -0.000000e+00
    outer loop
        vertex -3.454297e+00 -2.000000e-01 9.054296e+00
        vertex -7.945704e+00 -2.000000e-01 9.054296e+00
        vertex -3.145500e+00 -2.000000e-01 9.291244e+00
    endloop
endfacet
facet normal 0.000000e+00 1.000000e+00 -0.000000e+00
    outer loop
        vertex -7.945704e+00 -2.000000e-01 9.054296e+00
        vertex -8.254500e+00 -2.000000e-01 9.291244e+00
        vertex -3.145500e+00 -2.000000e-01 9.291244e+00
    endloop
endfacet
facet normal 0.000000e+00 1.000000e+00 0.000000e+00
    outer loop
        vertex -1.650000e+01 -2.000000e-01 3.500000e+00
        vertex -1.005430e+01 -2.000000e-01 6.945704e+00
        vertex -9.745500e+00 -2.000000e-01 6.708756e+00
    endloop
endfacet
facet normal 0.000000e+00 1.000000e+00 -0.000000e+00
    outer loop
        vertex -1.200000e+01 -2.000000e-01 3.400000e+00
        vertex -1.650000e+01 -2.000000e-01 3.400000e+00
        vertex -1.200000e+01 -2.000000e-01 3.600000e+00
    endloop
endfacet
facet normal 0.000000e+00 1.000000e+00 0.000000e+00
    outer loop
        vertex -1.650000e+01 -2.000000e-01 3.500000e+00
        vertex -9.745500e+00 -2.000000e-01 6.708756e+00
        vertex -9.385900e+00 -2.000000e-01 6.559804e+00
    endloop
endfacet
facet normal 0.000000e+00 1.000000e+00 0.000000e+00
    outer loop
        vertex -1.650000e+01 -2.000000e-01 3.400000e+00
        vertex 3.000000e+00 -2.000000e-01 6.600000e+00
        vertex -1.200000e+01 -2.000000e-01 3.600000e+00
    endloop
endfacet
facet normal 0.000000e+00 1.000000e+00 0.000000e+00
    outer loop
        vertex -8.614100e+00 -2.000000e-01 6.559804e+00
        vertex -8.254500e+00 -2.000000e-01 6.708756e+00
        vertex -3.145500e+00 -2.000000e-01 6.708756e+00
    endloop
endfacet
facet normal 0.000000e+00 1.000000e+00 0.000000e+00
    outer loop
        vertex -2.785899e+00 -2.000000e-01 6.559804e+00
        vertex -8.614100e+00 -2.000000e-01 6.559804e+00
        vertex -3.145500e+00 -2.000000e-01 6.708756e+00
    endloop
endfacet
facet normal 0.000000e+00 1.000000e+00 0.000000e+00
    outer loop
        vertex -3.145500e+00 -2.000000e-01 9.291244e+00
        vertex -8.254500e+00 -2.000000e-01 9.291244e+00
        vertex -8.614100e+00 -2.000000e-01 9.440195e+00
    endloop
endfacet
facet normal 0.000000e+00 1.000000e+00 -0.000000e+00
    outer loop
        vertex -3.145500e+00 -2.000000e-01 9.291244e+00
        vertex -8.614100e+00 -2.000000e-01 9.440195e+00
        vertex -2.785899e+00 -2.000000e-01 9.440195e+00
    endloop
endfacet
facet normal 0.000000e+00 1.000000e+00 0.000000e+00
    outer loop
        vertex -1.650000e+01 -2.000000e-01 3.500000e+00
        vertex -9.385900e+00 -2.000000e-01 6.559804e+00
        vertex -9.000000e+00 -2.000000e-01 6.509000e+00
    endloop
endfacet
facet normal 0.000000e+00 1.000000e+00 0.000000e+00
    outer loop
        vertex -1.650000e+01 -2.000000e-01 3.400000e+00
        vertex -1.650000e+01 -2.000000e-01 3.500000e+00
        vertex -9.000000e+00 -2.000000e-01 6.509000e+00
    endloop
endfacet
facet normal 0.000000e+00 1.000000e+00 0.000000e+00
    outer loop
        vertex -1.650000e+01 -2.000000e-01 3.400000e+00
        vertex -9.000000e+00 -2.000000e-01 6.509000e+00
        vertex -8.614100e+00 -2.000000e-01 6.559804e+00
    endloop
endfacet
facet normal 0.000000e+00 1.000000e+00 0.000000e+00
    outer loop
        vertex -1.650000e+01 -2.000000e-01 3.400000e+00
        vertex -8.614100e+00 -2.000000e-01 6.559804e+00
        vertex -2.785899e+00 -2.000000e-01 6.559804e+00
    endloop
endfacet
facet normal 0.000000e+00 1.000000e+00 0.000000e+00
    outer loop
        vertex -1.650000e+01 -2.000000e-01 3.400000e+00
        vertex -2.785899e+00 -2.000000e-01 6.559804e+00
        vertex -2.400000e+00 -2.000000e-01 6.509000e+00
    endloop
endfacet
facet normal 0.000000e+00 1.000000e+00 0.000000e+00
    outer loop
        vertex -1.650000e+01 -2.000000e-01 3.400000e+00
        vertex -2.400000e+00 -2.000000e-01 6.509000e+00
        vertex 3.000000e+00 -2.000000e-01 6.600000e+00
    endloop
endfacet
facet normal 0.000000e+00 1.000000e+00 0.000000e+00
    outer loop
        vertex -2.400000e+00 -2.000000e-01 6.509000e+00
        vertex -2.014101e+00 -2.000000e-01 6.559804e+00
        vertex 3.000000e+00 -2.000000e-01 6.600000e+00
    endloop
endfacet
facet normal 0.000000e+00 1.000000e+00 0.000000e+00
    outer loop
        vertex -2.014101e+00 -2.000000e-01 6.559804e+00
        vertex -1.654500e+00 -2.000000e-01 6.708756e+00
        vertex 3.000000e+00 -2.000000e-01 6.600000e+00
    endloop
endfacet
facet normal 0.000000e+00 1.000000e+00 0.000000e+00
    outer loop
        vertex 3.000000e+00 -2.000000e-01 6.600000e+00
        vertex -1.654500e+00 -2.000000e-01 6.708756e+00
        vertex -1.345704e+00 -2.000000e-01 6.945704e+00
    endloop
endfacet
facet normal 0.000000e+00 1.000000e+00 -0.000000e+00
    outer loop
        vertex 3.000000e+00 -2.000000e-01 6.600000e+00
        vertex -1.345704e+00 -2.000000e-01 6.945704e+00
        vertex 3.000000e+00 -2.000000e-01 1.100000e+01
    endloop
endfacet
facet normal 0.000000e+00 1.000000e+00 0.000000e+00
    outer loop
        vertex -1.345704e+00 -2.000000e-01 6.945704e+00
        vertex -1.108756e+00 -2.000000e-01 7.254500e+00
        vertex 3.000000e+00 -2.000000e-01 1.100000e+01
    endloop
endfacet
facet normal 0.000000e+00 1.000000e+00 0.000000e+00
    outer loop
        vertex -1.108756e+00 -2.000000e-01 7.254500e+00
        vertex -9.598045e-01 -2.000000e-01 7.614101e+00
        vertex 3.000000e+00 -2.000000e-01 1.100000e+01
    endloop
endfacet
facet normal 0.000000e+00 1.000000e+00 0.000000e+00
    outer loop
        vertex -9.598045e-01 -2.000000e-01 7.614101e+00
        vertex -9.090000e-01 -2.000000e-01 8.000000e+00
        vertex 3.000000e+00 -2.000000e-01 1.100000e+01
    endloop
endfacet
facet normal 0.000000e+00 1.000000e+00 -0.000000e+00
    outer loop
        vertex -9.090000e-01 -2.000000e-01 8.000000e+00
        vertex -9.598045e-01 -2.000000e-01 8.385900e+00
        vertex 3.000000e+00 -2.000000e-01 1.100000e+01
    endloop
endfacet
facet normal 0.000000e+00 1.000000e+00 -0.000000e+00
    outer loop
        vertex -9.598045e-01 -2.000000e-01 8.385900e+00
        vertex -1.108756e+00 -2.000000e-01 8.745500e+00
        vertex 3.000000e+00 -2.000000e-01 1.100000e+01
    endloop
endfacet
facet normal 0.000000e+00 1.000000e+00 -0.000000e+00
    outer loop
        vertex -1.108756e+00 -2.000000e-01 8.745500e+00
        vertex -1.345704e+00 -2.000000e-01 9.054296e+00
        vertex 3.000000e+00 -2.000000e-01 1.100000e+01
    endloop
endfacet
facet normal 0.000000e+00 1.000000e+00 -0.000000e+00
    outer loop
        vertex -1.345704e+00 -2.000000e-01 9.054296e+00
        vertex -1.654500e+00 -2.000000e-01 9.291244e+00
        vertex 3.000000e+00 -2.000000e-01 1.100000e+01
    endloop
endfacet
facet normal 0.000000e+00 1.000000e+00 -0.000000e+00
    outer loop
        vertex -1.654500e+00 -2.000000e-01 9.291244e+00
        vertex -2.014101e+00 -2.000000e-01 9.440195e+00
        vertex 3.000000e+00 -2.000000e-01 1.100000e+01
    endloop
endfacet
facet normal 0.000000e+00 1.000000e+00 -0.000000e+00
    outer loop
        vertex -2.014101e+00 -2.000000e-01 9.440195e+00
        vertex -2.400000e+00 -2.000000e-01 9.491000e+00
        vertex 3.000000e+00 -2.000000e-01 1.100000e+01
    endloop
endfacet
facet normal 0.000000e+00 1.000000e+00 0.000000e+00
    outer loop
        vertex -2.785899e+00 -2.000000e-01 9.440195e+00
        vertex 3.000000e+00 -2.000000e-01 1.100000e+01
        vertex -2.400000e+00 -2.000000e-01 9.491000e+00
    endloop
endfacet
facet normal 0.000000e+00 1.000000e+00 -0.000000e+00
    outer loop
        vertex -2.785899e+00 -2.000000e-01 9.440195e+00
        vertex -8.614100e+00 -2.000000e-01 9.440195e+00
        vertex 3.000000e+00 -2.000000e-01 1.100000e+01
    endloop
endfacet
facet normal 0.000000e+00 1.000000e+00 -0.000000e+00
    outer loop
        vertex -8.614100e+00 -2.000000e-01 9.440195e+00
        vertex -9.000000e+00 -2.000000e-01 9.491000e+00
        vertex 3.000000e+00 -2.000000e-01 1.100000e+01
    endloop
endfacet
facet normal 0.000000e+00 1.000000e+00 0.000000e+00
    outer loop
        vertex -1.165914e+00 3.300000e+00 8.712500e+00
        vertex -1.687500e+00 3.300000e+00 9.234086e+00
        vertex -1.392372e+00 3.300000e+00 9.007627e+00
    endloop
endfacet
facet normal 0.000000e+00 1.000000e+00 0.000000e+00
    outer loop
        vertex -1.165914e+00 3.300000e+00 8.712500e+00
        vertex -2.031183e+00 3.300000e+00 9.376444e+00
        vertex -1.687500e+00 3.300000e+00 9.234086e+00
    endloop
endfacet
facet normal 0.000000e+00 1.000000e+00 0.000000e+00
    outer loop
        vertex -1.165914e+00 3.300000e+00 8.712500e+00
        vertex -2.400000e+00 3.300000e+00 9.425000e+00
        vertex -2.031183e+00 3.300000e+00 9.376444e+00
    endloop
endfacet
facet normal 0.000000e+00 1.000000e+00 0.000000e+00
    outer loop
        vertex -1.165914e+00 3.300000e+00 8.712500e+00
        vertex -2.768817e+00 3.300000e+00 9.376444e+00
        vertex -2.400000e+00 3.300000e+00 9.425000e+00
    endloop
endfacet
facet normal 0.000000e+00 1.000000e+00 0.000000e+00
    outer loop
        vertex -1.165914e+00 3.300000e+00 8.712500e+00
        vertex -3.112500e+00 3.300000e+00 9.234086e+00
        vertex -2.768817e+00 3.300000e+00 9.376444e+00
    endloop
endfacet
facet normal 0.000000e+00 1.000000e+00 0.000000e+00
    outer loop
        vertex -1.165914e+00 3.300000e+00 8.712500e+00
        vertex -3.407628e+00 3.300000e+00 9.007627e+00
        vertex -3.112500e+00 3.300000e+00 9.234086e+00
    endloop
endfacet
facet normal 0.000000e+00 1.000000e+00 0.000000e+00
    outer loop
        vertex -1.165914e+00 3.300000e+00 8.712500e+00
        vertex -3.634086e+00 3.300000e+00 8.712500e+00
        vertex -3.407628e+00 3.300000e+00 9.007627e+00
    endloop
endfacet
facet normal 0.000000e+00 1.000000e+00 0.000000e+00
    outer loop
        vertex -3.776444e+00 3.300000e+00 8.368817e+00
        vertex -3.634086e+00 3.300000e+00 8.712500e+00
        vertex -1.165914e+00 3.300000e+00 8.712500e+00
    endloop
endfacet
facet normal 0.000000e+00 1.000000e+00 0.000000e+00
    outer loop
        vertex -3.825000e+00 3.300000e+00 8.000000e+00
        vertex -3.776444e+00 3.300000e+00 8.368817e+00
        vertex -1.165914e+00 3.300000e+00 8.712500e+00
    endloop
endfacet
facet normal 0.000000e+00 1.000000e+00 -0.000000e+00
    outer loop
        vertex -3.776444e+00 3.300000e+00 7.631183e+00
        vertex -3.825000e+00 3.300000e+00 8.000000e+00
        vertex -1.165914e+00 3.300000e+00 8.712500e+00
    endloop
endfacet
facet normal 0.000000e+00 1.000000e+00 -0.000000e+00
    outer loop
        vertex -3.634086e+00 3.300000e+00 7.287500e+00
        vertex -3.776444e+00 3.300000e+00 7.631183e+00
        vertex -1.165914e+00 3.300000e+00 8.712500e+00
    endloop
endfacet
facet normal 0.000000e+00 1.000000e+00 -0.000000e+00
    outer loop
        vertex -3.407628e+00 3.300000e+00 6.992373e+00
        vertex -3.634086e+00 3.300000e+00 7.287500e+00
        vertex -1.165914e+00 3.300000e+00 8.712500e+00
    endloop
endfacet
facet normal 0.000000e+00 1.000000e+00 -0.000000e+00
    outer loop
        vertex -3.112500e+00 3.300000e+00 6.765914e+00
        vertex -3.407628e+00 3.300000e+00 6.992373e+00
        vertex -1.165914e+00 3.300000e+00 8.712500e+00
    endloop
endfacet
facet normal 0.000000e+00 1.000000e+00 0.000000e+00
    outer loop
        vertex -3.112500e+00 3.300000e+00 6.765914e+00
        vertex -1.165914e+00 3.300000e+00 8.712500e+00
        vertex -1.023556e+00 3.300000e+00 8.368817e+00
    endloop
endfacet
facet normal 0.000000e+00 1.000000e+00 0.000000e+00
    outer loop
        vertex -3.112500e+00 3.300000e+00 6.765914e+00
        vertex -1.023556e+00 3.300000e+00 8.368817e+00
        vertex -9.749998e-01 3.300000e+00 8.000000e+00
    endloop
endfacet
facet normal 0.000000e+00 1.000000e+00 -0.000000e+00
    outer loop
        vertex -2.768817e+00 3.300000e+00 6.623556e+00
        vertex -3.112500e+00 3.300000e+00 6.765914e+00
        vertex -9.749998e-01 3.300000e+00 8.000000e+00
    endloop
endfacet
facet normal 0.000000e+00 1.000000e+00 -0.000000e+00
    outer loop
        vertex -2.400000e+00 3.300000e+00 6.575000e+00
        vertex -2.768817e+00 3.300000e+00 6.623556e+00
        vertex -9.749998e-01 3.300000e+00 8.000000e+00
    endloop
endfacet
facet normal 0.000000e+00 1.000000e+00 0.000000e+00
    outer loop
        vertex -2.400000e+00 3.300000e+00 6.575000e+00
        vertex -9.749998e-01 3.300000e+00 8.000000e+00
        vertex -2.031183e+00 3.300000e+00 6.623556e+00
    endloop
endfacet
facet normal 0.000000e+00 1.000000e+00 0.000000e+00
    outer loop
        vertex -2.031183e+00 3.300000e+00 6.623556e+00
        vertex -9.749998e-01 3.300000e+00 8.000000e+00
        vertex -1.023556e+00 3.300000e+00 7.631183e+00
    endloop
endfacet
facet normal 0.000000e+00 1.000000e+00 0.000000e+00
    outer loop
        vertex -2.031183e+00 3.300000e+00 6.623556e+00
        vertex -1.023556e+00 3.300000e+00 7.631183e+00
        vertex -1.687500e+00 3.300000e+00 6.765914e+00
    endloop
endfacet
facet normal 0.000000e+00 1.000000e+00 0.000000e+00
    outer loop
        vertex -1.687500e+00 3.300000e+00 6.765914e+00
        vertex -1.023556e+00 3.300000e+00 7.631183e+00
        vertex -1.165914e+00 3.300000e+00 7.287500e+00
    endloop
endfacet
facet normal 0.000000e+00 1.000000e+00 0.000000e+00
    outer loop
        vertex -1.687500e+00 3.300000e+00 6.765914e+00
        vertex -1.165914e+00 3.300000e+00 7.287500e+00
        vertex -1.392372e+00 3.300000e+00 6.992373e+00
    endloop
endfacet
facet normal 0.000000e+00 1.000000e+00 0.000000e+00
    outer loop
        vertex -7.765914e+00 3.300000e+00 8.712500e+00
        vertex -8.287500e+00 3.300000e+00 9.234086e+00
        vertex -7.992373e+00 3.300000e+00 9.007627e+00
    endloop
endfacet
facet normal 0.000000e+00 1.000000e+00 0.000000e+00
    outer loop
        vertex -7.765914e+00 3.300000e+00 8.712500e+00
        vertex -8.631183e+00 3.300000e+00 9.376444e+00
        vertex -8.287500e+00 3.300000e+00 9.234086e+00
    endloop
endfacet
facet normal 0.000000e+00 1.000000e+00 0.000000e+00
    outer loop
        vertex -7.765914e+00 3.300000e+00 8.712500e+00
        vertex -9.000000e+00 3.300000e+00 9.425000e+00
        vertex -8.631183e+00 3.300000e+00 9.376444e+00
    endloop
endfacet
facet normal 0.000000e+00 1.000000e+00 0.000000e+00
    outer loop
        vertex -7.765914e+00 3.300000e+00 8.712500e+00
        vertex -9.368817e+00 3.300000e+00 9.376444e+00
        vertex -9.000000e+00 3.300000e+00 9.425000e+00
    endloop
endfacet
facet normal 0.000000e+00 1.000000e+00 0.000000e+00
    outer loop
        vertex -7.765914e+00 3.300000e+00 8.712500e+00
        vertex -9.712500e+00 3.300000e+00 9.234086e+00
        vertex -9.368817e+00 3.300000e+00 9.376444e+00
    endloop
endfacet
facet normal 0.000000e+00 1.000000e+00 0.000000e+00
    outer loop
        vertex -7.765914e+00 3.300000e+00 8.712500e+00
        vertex -1.000763e+01 3.300000e+00 9.007627e+00
        vertex -9.712500e+00 3.300000e+00 9.234086e+00
    endloop
endfacet
facet normal 0.000000e+00 1.000000e+00 0.000000e+00
    outer loop
        vertex -7.765914e+00 3.300000e+00 8.712500e+00
        vertex -1.023409e+01 3.300000e+00 8.712500e+00
        vertex -1.000763e+01 3.300000e+00 9.007627e+00
    endloop
endfacet
facet normal 0.000000e+00 1.000000e+00 0.000000e+00
    outer loop
        vertex -1.037644e+01 3.300000e+00 8.368817e+00
        vertex -1.023409e+01 3.300000e+00 8.712500e+00
        vertex -7.765914e+00 3.300000e+00 8.712500e+00
    endloop
endfacet
facet normal 0.000000e+00 1.000000e+00 0.000000e+00
    outer loop
        vertex -1.042500e+01 3.300000e+00 8.000000e+00
        vertex -1.037644e+01 3.300000e+00 8.368817e+00
        vertex -7.765914e+00 3.300000e+00 8.712500e+00
    endloop
endfacet
facet normal 0.000000e+00 1.000000e+00 -0.000000e+00
    outer loop
        vertex -1.037644e+01 3.300000e+00 7.631183e+00
        vertex -1.042500e+01 3.300000e+00 8.000000e+00
        vertex -7.765914e+00 3.300000e+00 8.712500e+00
    endloop
endfacet
facet normal 0.000000e+00 1.000000e+00 -0.000000e+00
    outer loop
        vertex -1.023409e+01 3.300000e+00 7.287500e+00
        vertex -1.037644e+01 3.300000e+00 7.631183e+00
        vertex -7.765914e+00 3.300000e+00 8.712500e+00
    endloop
endfacet
facet normal 0.000000e+00 1.000000e+00 -0.000000e+00
    outer loop
        vertex -1.000763e+01 3.300000e+00 6.992373e+00
        vertex -1.023409e+01 3.300000e+00 7.287500e+00
        vertex -7.765914e+00 3.300000e+00 8.712500e+00
    endloop
endfacet
facet normal 0.000000e+00 1.000000e+00 -0.000000e+00
    outer loop
        vertex -9.712500e+00 3.300000e+00 6.765914e+00
        vertex -1.000763e+01 3.300000e+00 6.992373e+00
        vertex -7.765914e+00 3.300000e+00 8.712500e+00
    endloop
endfacet
facet normal 0.000000e+00 1.000000e+00 0.000000e+00
    outer loop
        vertex -9.712500e+00 3.300000e+00 6.765914e+00
        vertex -7.765914e+00 3.300000e+00 8.712500e+00
        vertex -7.623556e+00 3.300000e+00 8.368817e+00
    endloop
endfacet
facet normal 0.000000e+00 1.000000e+00 0.000000e+00
    outer loop
        vertex -9.712500e+00 3.300000e+00 6.765914e+00
        vertex -7.623556e+00 3.300000e+00 8.368817e+00
        vertex -7.575000e+00 3.300000e+00 8.000000e+00
    endloop
endfacet
facet normal 0.000000e+00 1.000000e+00 -0.000000e+00
    outer loop
        vertex -9.368817e+00 3.300000e+00 6.623556e+00
        vertex -9.712500e+00 3.300000e+00 6.765914e+00
        vertex -7.575000e+00 3.300000e+00 8.000000e+00
    endloop
endfacet
facet normal 0.000000e+00 1.000000e+00 -0.000000e+00
    outer loop
        vertex -9.000000e+00 3.300000e+00 6.575000e+00
        vertex -9.368817e+00 3.300000e+00 6.623556e+00
        vertex -7.575000e+00 3.300000e+00 8.000000e+00
    endloop
endfacet
facet normal 0.000000e+00 1.000000e+00 0.000000e+00
    outer loop
        vertex -9.000000e+00 3.300000e+00 6.575000e+00
        vertex -7.575000e+00 3.300000e+00 8.000000e+00
        vertex -8.631183e+00 3.300000e+00 6.623556e+00
    endloop
endfacet
facet normal 0.000000e+00 1.000000e+00 0.000000e+00
    outer loop
        vertex -8.631183e+00 3.300000e+00 6.623556e+00
        vertex -7.575000e+00 3.300000e+00 8.000000e+00
        vertex -7.623556e+00 3.300000e+00 7.631183e+00
    endloop
endfacet
facet normal 0.000000e+00 1.000000e+00 0.000000e+00
    outer loop
        vertex -8.631183e+00 3.300000e+00 6.623556e+00
        vertex -7.623556e+00 3.300000e+00 7.631183e+00
        vertex -8.287500e+00 3.300000e+00 6.765914e+00
    endloop
endfacet
facet normal 0.000000e+00 1.000000e+00 0.000000e+00
    outer loop
        vertex -8.287500e+00 3.300000e+00 6.765914e+00
        vertex -7.623556e+00 3.300000e+00 7.631183e+00
        vertex -7.765914e+00 3.300000e+00 7.287500e+00
    endloop
endfacet
facet normal 0.000000e+00 1.000000e+00 0.000000e+00
    outer loop
        vertex -8.287500e+00 3.300000e+00 6.765914e+00
        vertex -7.765914e+00 3.300000e+00 7.287500e+00
        vertex -7.992373e+00 3.300000e+00 6.992373e+00
    endloop
endfacet
facet normal 1.305047e-01 1.869258e-02 9.912714e-01
    outer loop
        vertex -2.014101e+00 -2.000000e-01 9.440195e+00
        vertex -2.031183e+00 3.300000e+00 9.376444e+00
        vertex -2.400000e+00 -2.000000e-01 9.491000e+00
    endloop
endfacet
facet normal 1.305050e-01 1.869254e-02 9.912714e-01
    outer loop
        vertex -2.400000e+00 -2.000000e-01 9.491000e+00
        vertex -2.031183e+00 3.300000e+00 9.376444e+00
        vertex -2.400000e+00 3.300000e+00 9.425000e+00
    endloop
endfacet
facet normal 3.826164e-01 1.869255e-02 9.237182e-01
    outer loop
        vertex -1.654500e+00 -2.000000e-01 9.291244e+00
        vertex -1.687500e+00 3.300000e+00 9.234086e+00
        vertex -2.014101e+00 -2.000000e-01 9.440195e+00
    endloop
endfacet
facet normal 3.826164e-01 1.869255e-02 9.237182e-01
    outer loop
        vertex -2.014101e+00 -2.000000e-01 9.440195e+00
        vertex -1.687500e+00 3.300000e+00 9.234086e+00
        vertex -2.031183e+00 3.300000e+00 9.376444e+00
    endloop
endfacet
facet normal 6.086538e-01 1.869251e-02 7.932157e-01
    outer loop
        vertex -1.345704e+00 -2.000000e-01 9.054296e+00
        vertex -1.392372e+00 3.300000e+00 9.007627e+00
        vertex -1.654500e+00 -2.000000e-01 9.291244e+00
    endloop
endfacet
facet normal 6.086533e-01 1.869258e-02 7.932160e-01
    outer loop
        vertex -1.654500e+00 -2.000000e-01 9.291244e+00
        vertex -1.392372e+00 3.300000e+00 9.007627e+00
        vertex -1.687500e+00 3.300000e+00 9.234086e+00
    endloop
endfacet
facet normal 7.932160e-01 1.869255e-02 6.086533e-01
    outer loop
        vertex -1.108756e+00 -2.000000e-01 8.745500e+00
        vertex -1.165914e+00 3.300000e+00 8.712500e+00
        vertex -1.392372e+00 3.300000e+00 9.007627e+00
    endloop
endfacet
facet normal 7.932158e-01 1.869250e-02 6.086537e-01
    outer loop
        vertex -1.108756e+00 -2.000000e-01 8.745500e+00
        vertex -1.392372e+00 3.300000e+00 9.007627e+00
        vertex -1.345704e+00 -2.000000e-01 9.054296e+00
    endloop
endfacet
facet normal 9.237177e-01 1.869256e-02 3.826176e-01
    outer loop
        vertex -9.598045e-01 -2.000000e-01 8.385900e+00
        vertex -1.023556e+00 3.300000e+00 8.368817e+00
        vertex -1.165914e+00 3.300000e+00 8.712500e+00
    endloop
endfacet
facet normal 9.237176e-01 1.869254e-02 3.826178e-01
    outer loop
        vertex -9.598045e-01 -2.000000e-01 8.385900e+00
        vertex -1.165914e+00 3.300000e+00 8.712500e+00
        vertex -1.108756e+00 -2.000000e-01 8.745500e+00
    endloop
endfacet
facet normal 9.912716e-01 1.869250e-02 1.305037e-01
    outer loop
        vertex -9.090000e-01 -2.000000e-01 8.000000e+00
        vertex -9.749998e-01 3.300000e+00 8.000000e+00
        vertex -1.023556e+00 3.300000e+00 8.368817e+00
    endloop
endfacet
facet normal 9.912717e-01 1.869255e-02 1.305032e-01
    outer loop
        vertex -9.090000e-01 -2.000000e-01 8.000000e+00
        vertex -1.023556e+00 3.300000e+00 8.368817e+00
        vertex -9.598045e-01 -2.000000e-01 8.385900e+00
    endloop
endfacet
facet normal 9.912716e-01 1.869256e-02 -1.305033e-01
    outer loop
        vertex -9.598045e-01 -2.000000e-01 7.614101e+00
        vertex -1.023556e+00 3.300000e+00 7.631183e+00
        vertex -9.090000e-01 -2.000000e-01 8.000000e+00
    endloop
endfacet
facet normal 9.912716e-01 1.869250e-02 -1.305039e-01
    outer loop
        vertex -9.090000e-01 -2.000000e-01 8.000000e+00
        vertex -1.023556e+00 3.300000e+00 7.631183e+00
        vertex -9.749998e-01 3.300000e+00 8.000000e+00
    endloop
endfacet
facet normal 9.237180e-01 1.869254e-02 -3.826169e-01
    outer loop
        vertex -1.108756e+00 -2.000000e-01 7.254500e+00
        vertex -1.165914e+00 3.300000e+00 7.287500e+00
        vertex -9.598045e-01 -2.000000e-01 7.614101e+00
    endloop
endfacet
facet normal 9.237181e-01 1.869257e-02 -3.826167e-01
    outer loop
        vertex -9.598045e-01 -2.000000e-01 7.614101e+00
        vertex -1.165914e+00 3.300000e+00 7.287500e+00
        vertex -1.023556e+00 3.300000e+00 7.631183e+00
    endloop
endfacet
facet normal 7.932154e-01 1.869250e-02 -6.086542e-01
    outer loop
        vertex -1.345704e+00 -2.000000e-01 6.945704e+00
        vertex -1.392372e+00 3.300000e+00 6.992373e+00
        vertex -1.108756e+00 -2.000000e-01 7.254500e+00
    endloop
endfacet
facet normal 7.932156e-01 1.869254e-02 -6.086540e-01
    outer loop
        vertex -1.108756e+00 -2.000000e-01 7.254500e+00
        vertex -1.392372e+00 3.300000e+00 6.992373e+00
        vertex -1.165914e+00 3.300000e+00 7.287500e+00
    endloop
endfacet
facet normal 6.086533e-01 1.869258e-02 -7.932160e-01
    outer loop
        vertex -1.654500e+00 -2.000000e-01 6.708756e+00
        vertex -1.687500e+00 3.300000e+00 6.765914e+00
        vertex -1.392372e+00 3.300000e+00 6.992373e+00
    endloop
endfacet
facet normal 6.086538e-01 1.869251e-02 -7.932157e-01
    outer loop
        vertex -1.654500e+00 -2.000000e-01 6.708756e+00
        vertex -1.392372e+00 3.300000e+00 6.992373e+00
        vertex -1.345704e+00 -2.000000e-01 6.945704e+00
    endloop
endfacet
facet normal 3.826175e-01 1.869254e-02 -9.237177e-01
    outer loop
        vertex -2.014101e+00 -2.000000e-01 6.559804e+00
        vertex -2.031183e+00 3.300000e+00 6.623556e+00
        vertex -1.687500e+00 3.300000e+00 6.765914e+00
    endloop
endfacet
facet normal 3.826174e-01 1.869255e-02 -9.237177e-01
    outer loop
        vertex -2.014101e+00 -2.000000e-01 6.559804e+00
        vertex -1.687500e+00 3.300000e+00 6.765914e+00
        vertex -1.654500e+00 -2.000000e-01 6.708756e+00
    endloop
endfacet
facet normal 1.305037e-01 1.869255e-02 -9.912716e-01
    outer loop
        vertex -2.400000e+00 -2.000000e-01 6.509000e+00
        vertex -2.400000e+00 3.300000e+00 6.575000e+00
        vertex -2.031183e+00 3.300000e+00 6.623556e+00
    endloop
endfacet
facet normal 1.305035e-01 1.869257e-02 -9.912716e-01
    outer loop
        vertex -2.400000e+00 -2.000000e-01 6.509000e+00
        vertex -2.031183e+00 3.300000e+00 6.623556e+00
        vertex -2.014101e+00 -2.000000e-01 6.559804e+00
    endloop
endfacet
facet normal -1.305035e-01 1.869257e-02 -9.912716e-01
    outer loop
        vertex -2.400000e+00 -2.000000e-01 6.509000e+00
        vertex -2.785899e+00 -2.000000e-01 6.559804e+00
        vertex -2.768817e+00 3.300000e+00 6.623556e+00
    endloop
endfacet
facet normal -1.305037e-01 1.869255e-02 -9.912716e-01
    outer loop
        vertex -2.400000e+00 -2.000000e-01 6.509000e+00
        vertex -2.768817e+00 3.300000e+00 6.623556e+00
        vertex -2.400000e+00 3.300000e+00 6.575000e+00
    endloop
endfacet
facet normal -3.826176e-01 1.869254e-02 -9.237177e-01
    outer loop
        vertex -2.785899e+00 -2.000000e-01 6.559804e+00
        vertex -3.145500e+00 -2.000000e-01 6.708756e+00
        vertex -3.112500e+00 3.300000e+00 6.765914e+00
    endloop
endfacet
facet normal -3.826176e-01 1.869254e-02 -9.237177e-01
    outer loop
        vertex -2.785899e+00 -2.000000e-01 6.559804e+00
        vertex -3.112500e+00 3.300000e+00 6.765914e+00
        vertex -2.768817e+00 3.300000e+00 6.623556e+00
    endloop
endfacet
facet normal -6.086535e-01 1.869253e-02 -7.932159e-01
    outer loop
        vertex -3.145500e+00 -2.000000e-01 6.708756e+00
        vertex -3.454297e+00 -2.000000e-01 6.945704e+00
        vertex -3.407628e+00 3.300000e+00 6.992373e+00
    endloop
endfacet
facet normal -6.086533e-01 1.869256e-02 -7.932160e-01
    outer loop
        vertex -3.145500e+00 -2.000000e-01 6.708756e+00
        vertex -3.407628e+00 3.300000e+00 6.992373e+00
        vertex -3.112500e+00 3.300000e+00 6.765914e+00
    endloop
endfacet
facet normal -7.932156e-01 1.869257e-02 -6.086540e-01
    outer loop
        vertex -3.691244e+00 -2.000000e-01 7.254500e+00
        vertex -3.634086e+00 3.300000e+00 7.287500e+00
        vertex -3.407628e+00 3.300000e+00 6.992373e+00
    endloop
endfacet
facet normal -7.932154e-01 1.869253e-02 -6.086542e-01
    outer loop
        vertex -3.454297e+00 -2.000000e-01 6.945704e+00
        vertex -3.691244e+00 -2.000000e-01 7.254500e+00
        vertex -3.407628e+00 3.300000e+00 6.992373e+00
    endloop
endfacet
facet normal -9.237185e-01 1.869266e-02 -3.826156e-01
    outer loop
        vertex -3.840195e+00 -2.000000e-01 7.614101e+00
        vertex -3.776444e+00 3.300000e+00 7.631183e+00
        vertex -3.634086e+00 3.300000e+00 7.287500e+00
    endloop
endfacet
facet normal -9.237182e-01 1.869257e-02 -3.826164e-01
    outer loop
        vertex -3.691244e+00 -2.000000e-01 7.254500e+00
        vertex -3.840195e+00 -2.000000e-01 7.614101e+00
        vertex -3.634086e+00 3.300000e+00 7.287500e+00
    endloop
endfacet
facet normal -9.912714e-01 1.869247e-02 -1.305051e-01
    outer loop
        vertex -3.891000e+00 -2.000000e-01 8.000000e+00
        vertex -3.825000e+00 3.300000e+00 8.000000e+00
        vertex -3.776444e+00 3.300000e+00 7.631183e+00
    endloop
endfacet
facet normal -9.912716e-01 1.869266e-02 -1.305035e-01
    outer loop
        vertex -3.840195e+00 -2.000000e-01 7.614101e+00
        vertex -3.891000e+00 -2.000000e-01 8.000000e+00
        vertex -3.776444e+00 3.300000e+00 7.631183e+00
    endloop
endfacet
facet normal -9.912716e-01 1.869266e-02 1.305033e-01
    outer loop
        vertex -3.891000e+00 -2.000000e-01 8.000000e+00
        vertex -3.840195e+00 -2.000000e-01 8.385900e+00
        vertex -3.776444e+00 3.300000e+00 8.368817e+00
    endloop
endfacet
facet normal -9.912714e-01 1.869247e-02 1.305050e-01
    outer loop
        vertex -3.891000e+00 -2.000000e-01 8.000000e+00
        vertex -3.776444e+00 3.300000e+00 8.368817e+00
        vertex -3.825000e+00 3.300000e+00 8.000000e+00
    endloop
endfacet
facet normal -9.237179e-01 1.869257e-02 3.826172e-01
    outer loop
        vertex -3.840195e+00 -2.000000e-01 8.385900e+00
        vertex -3.691244e+00 -2.000000e-01 8.745500e+00
        vertex -3.634086e+00 3.300000e+00 8.712500e+00
    endloop
endfacet
facet normal -9.237182e-01 1.869266e-02 3.826165e-01
    outer loop
        vertex -3.840195e+00 -2.000000e-01 8.385900e+00
        vertex -3.634086e+00 3.300000e+00 8.712500e+00
        vertex -3.776444e+00 3.300000e+00 8.368817e+00
    endloop
endfacet
facet normal -7.932158e-01 1.869253e-02 6.086537e-01
    outer loop
        vertex -3.691244e+00 -2.000000e-01 8.745500e+00
        vertex -3.454297e+00 -2.000000e-01 9.054296e+00
        vertex -3.407628e+00 3.300000e+00 9.007627e+00
    endloop
endfacet
facet normal -7.932160e-01 1.869257e-02 6.086533e-01
    outer loop
        vertex -3.691244e+00 -2.000000e-01 8.745500e+00
        vertex -3.407628e+00 3.300000e+00 9.007627e+00
        vertex -3.634086e+00 3.300000e+00 8.712500e+00
    endloop
endfacet
facet normal -6.086533e-01 1.869256e-02 7.932160e-01
    outer loop
        vertex -3.145500e+00 -2.000000e-01 9.291244e+00
        vertex -3.112500e+00 3.300000e+00 9.234086e+00
        vertex -3.407628e+00 3.300000e+00 9.007627e+00
    endloop
endfacet
facet normal -6.086535e-01 1.869253e-02 7.932159e-01
    outer loop
        vertex -3.454297e+00 -2.000000e-01 9.054296e+00
        vertex -3.145500e+00 -2.000000e-01 9.291244e+00
        vertex -3.407628e+00 3.300000e+00 9.007627e+00
    endloop
endfacet
facet normal -3.826165e-01 1.869255e-02 9.237182e-01
    outer loop
        vertex -2.785899e+00 -2.000000e-01 9.440195e+00
        vertex -2.768817e+00 3.300000e+00 9.376444e+00
        vertex -3.112500e+00 3.300000e+00 9.234086e+00
    endloop
endfacet
facet normal -3.826166e-01 1.869253e-02 9.237181e-01
    outer loop
        vertex -3.145500e+00 -2.000000e-01 9.291244e+00
        vertex -2.785899e+00 -2.000000e-01 9.440195e+00
        vertex -3.112500e+00 3.300000e+00 9.234086e+00
    endloop
endfacet
facet normal -1.305050e-01 1.869254e-02 9.912714e-01
    outer loop
        vertex -2.400000e+00 -2.000000e-01 9.491000e+00
        vertex -2.400000e+00 3.300000e+00 9.425000e+00
        vertex -2.768817e+00 3.300000e+00 9.376444e+00
    endloop
endfacet
facet normal -1.305047e-01 1.869258e-02 9.912714e-01
    outer loop
        vertex -2.785899e+00 -2.000000e-01 9.440195e+00
        vertex -2.400000e+00 -2.000000e-01 9.491000e+00
        vertex -2.768817e+00 3.300000e+00 9.376444e+00
    endloop
endfacet
facet normal 1.305045e-01 1.869259e-02 9.912715e-01
    outer loop
        vertex -8.614100e+00 -2.000000e-01 9.440195e+00
        vertex -8.631183e+00 3.300000e+00 9.376444e+00
        vertex -9.000000e+00 -2.000000e-01 9.491000e+00
    endloop
endfacet
facet normal 1.305050e-01 1.869254e-02 9.912714e-01
    outer loop
        vertex -9.000000e+00 -2.000000e-01 9.491000e+00
        vertex -8.631183e+00 3.300000e+00 9.376444e+00
        vertex -9.000000e+00 3.300000e+00 9.425000e+00
    endloop
endfacet
facet normal 3.826172e-01 1.869251e-02 9.237179e-01
    outer loop
        vertex -8.254500e+00 -2.000000e-01 9.291244e+00
        vertex -8.287500e+00 3.300000e+00 9.234086e+00
        vertex -8.614100e+00 -2.000000e-01 9.440195e+00
    endloop
endfacet
facet normal 3.826165e-01 1.869260e-02 9.237182e-01
    outer loop
        vertex -8.614100e+00 -2.000000e-01 9.440195e+00
        vertex -8.287500e+00 3.300000e+00 9.234086e+00
        vertex -8.631183e+00 3.300000e+00 9.376444e+00
    endloop
endfacet
facet normal 6.086532e-01 1.869253e-02 7.932161e-01
    outer loop
        vertex -7.945704e+00 -2.000000e-01 9.054296e+00
        vertex -7.992373e+00 3.300000e+00 9.007627e+00
        vertex -8.254500e+00 -2.000000e-01 9.291244e+00
    endloop
endfacet
facet normal 6.086533e-01 1.869252e-02 7.932160e-01
    outer loop
        vertex -8.254500e+00 -2.000000e-01 9.291244e+00
        vertex -7.992373e+00 3.300000e+00 9.007627e+00
        vertex -8.287500e+00 3.300000e+00 9.234086e+00
    endloop
endfacet
facet normal 7.932160e-01 1.869252e-02 6.086533e-01
    outer loop
        vertex -7.708756e+00 -2.000000e-01 8.745500e+00
        vertex -7.765914e+00 3.300000e+00 8.712500e+00
        vertex -7.992373e+00 3.300000e+00 9.007627e+00
    endloop
endfacet
facet normal 7.932161e-01 1.869253e-02 6.086532e-01
    outer loop
        vertex -7.708756e+00 -2.000000e-01 8.745500e+00
        vertex -7.992373e+00 3.300000e+00 9.007627e+00
        vertex -7.945704e+00 -2.000000e-01 9.054296e+00
    endloop
endfacet
facet normal 9.237177e-01 1.869260e-02 3.826176e-01
    outer loop
        vertex -7.559804e+00 -2.000000e-01 8.385900e+00
        vertex -7.623556e+00 3.300000e+00 8.368817e+00
        vertex -7.765914e+00 3.300000e+00 8.712500e+00
    endloop
endfacet
facet normal 9.237174e-01 1.869251e-02 3.826183e-01
    outer loop
        vertex -7.559804e+00 -2.000000e-01 8.385900e+00
        vertex -7.765914e+00 3.300000e+00 8.712500e+00
        vertex -7.708756e+00 -2.000000e-01 8.745500e+00
    endloop
endfacet
facet normal 9.912716e-01 1.869255e-02 1.305037e-01
    outer loop
        vertex -7.509000e+00 -2.000000e-01 8.000000e+00
        vertex -7.575000e+00 3.300000e+00 8.000000e+00
        vertex -7.623556e+00 3.300000e+00 8.368817e+00
    endloop
endfacet
facet normal 9.912716e-01 1.869259e-02 1.305033e-01
    outer loop
        vertex -7.509000e+00 -2.000000e-01 8.000000e+00
        vertex -7.623556e+00 3.300000e+00 8.368817e+00
        vertex -7.559804e+00 -2.000000e-01 8.385900e+00
    endloop
endfacet
facet normal 9.912716e-01 1.869259e-02 -1.305035e-01
    outer loop
        vertex -7.559804e+00 -2.000000e-01 7.614101e+00
        vertex -7.623556e+00 3.300000e+00 7.631183e+00
        vertex -7.509000e+00 -2.000000e-01 8.000000e+00
    endloop
endfacet
facet normal 9.912716e-01 1.869255e-02 -1.305039e-01
    outer loop
        vertex -7.509000e+00 -2.000000e-01 8.000000e+00
        vertex -7.623556e+00 3.300000e+00 7.631183e+00
        vertex -7.575000e+00 3.300000e+00 8.000000e+00
    endloop
endfacet
facet normal 9.237177e-01 1.869251e-02 -3.826174e-01
    outer loop
        vertex -7.708756e+00 -2.000000e-01 7.254500e+00
        vertex -7.765914e+00 3.300000e+00 7.287500e+00
        vertex -7.559804e+00 -2.000000e-01 7.614101e+00
    endloop
endfacet
facet normal 9.237181e-01 1.869260e-02 -3.826167e-01
    outer loop
        vertex -7.559804e+00 -2.000000e-01 7.614101e+00
        vertex -7.765914e+00 3.300000e+00 7.287500e+00
        vertex -7.623556e+00 3.300000e+00 7.631183e+00
    endloop
endfacet
facet normal 7.932157e-01 1.869253e-02 -6.086538e-01
    outer loop
        vertex -7.945704e+00 -2.000000e-01 6.945704e+00
        vertex -7.992373e+00 3.300000e+00 6.992373e+00
        vertex -7.708756e+00 -2.000000e-01 7.254500e+00
    endloop
endfacet
facet normal 7.932156e-01 1.869252e-02 -6.086540e-01
    outer loop
        vertex -7.708756e+00 -2.000000e-01 7.254500e+00
        vertex -7.992373e+00 3.300000e+00 6.992373e+00
        vertex -7.765914e+00 3.300000e+00 7.287500e+00
    endloop
endfacet
facet normal 6.086533e-01 1.869252e-02 -7.932160e-01
    outer loop
        vertex -8.254500e+00 -2.000000e-01 6.708756e+00
        vertex -8.287500e+00 3.300000e+00 6.765914e+00
        vertex -7.992373e+00 3.300000e+00 6.992373e+00
    endloop
endfacet
facet normal 6.086532e-01 1.869253e-02 -7.932161e-01
    outer loop
        vertex -8.254500e+00 -2.000000e-01 6.708756e+00
        vertex -7.992373e+00 3.300000e+00 6.992373e+00
        vertex -7.945704e+00 -2.000000e-01 6.945704e+00
    endloop
endfacet
facet normal 3.826176e-01 1.869260e-02 -9.237177e-01
    outer loop
        vertex -8.614100e+00 -2.000000e-01 6.559804e+00
        vertex -8.631183e+00 3.300000e+00 6.623556e+00
        vertex -8.287500e+00 3.300000e+00 6.765914e+00
    endloop
endfacet
facet normal 3.826183e-01 1.869251e-02 -9.237174e-01
    outer loop
        vertex -8.614100e+00 -2.000000e-01 6.559804e+00
        vertex -8.287500e+00 3.300000e+00 6.765914e+00
        vertex -8.254500e+00 -2.000000e-01 6.708756e+00
    endloop
endfacet
facet normal 1.305037e-01 1.869255e-02 -9.912716e-01
    outer loop
        vertex -9.000000e+00 -2.000000e-01 6.509000e+00
        vertex -9.000000e+00 3.300000e+00 6.575000e+00
        vertex -8.631183e+00 3.300000e+00 6.623556e+00
    endloop
endfacet
facet normal 1.305033e-01 1.869259e-02 -9.912716e-01
    outer loop
        vertex -9.000000e+00 -2.000000e-01 6.509000e+00
        vertex -8.631183e+00 3.300000e+00 6.623556e+00
        vertex -8.614100e+00 -2.000000e-01 6.559804e+00
    endloop
endfacet
facet normal -1.305033e-01 1.869259e-02 -9.912716e-01
    outer loop
        vertex -9.000000e+00 -2.000000e-01 6.509000e+00
        vertex -9.385900e+00 -2.000000e-01 6.559804e+00
        vertex -9.368817e+00 3.300000e+00 6.623556e+00
    endloop
endfacet
facet normal -1.305037e-01 1.869255e-02 -9.912716e-01
    outer loop
        vertex -9.000000e+00 -2.000000e-01 6.509000e+00
        vertex -9.368817e+00 3.300000e+00 6.623556e+00
        vertex -9.000000e+00 3.300000e+00 6.575000e+00
    endloop
endfacet
facet normal -3.826183e-01 1.869251e-02 -9.237174e-01
    outer loop
        vertex -9.385900e+00 -2.000000e-01 6.559804e+00
        vertex -9.745500e+00 -2.000000e-01 6.708756e+00
        vertex -9.712500e+00 3.300000e+00 6.765914e+00
    endloop
endfacet
facet normal -3.826176e-01 1.869260e-02 -9.237177e-01
    outer loop
        vertex -9.385900e+00 -2.000000e-01 6.559804e+00
        vertex -9.712500e+00 3.300000e+00 6.765914e+00
        vertex -9.368817e+00 3.300000e+00 6.623556e+00
    endloop
endfacet
facet normal -6.086532e-01 1.869253e-02 -7.932161e-01
    outer loop
        vertex -9.745500e+00 -2.000000e-01 6.708756e+00
        vertex -1.005430e+01 -2.000000e-01 6.945704e+00
        vertex -1.000763e+01 3.300000e+00 6.992373e+00
    endloop
endfacet
facet normal -6.086533e-01 1.869252e-02 -7.932160e-01
    outer loop
        vertex -9.745500e+00 -2.000000e-01 6.708756e+00
        vertex -1.000763e+01 3.300000e+00 6.992373e+00
        vertex -9.712500e+00 3.300000e+00 6.765914e+00
    endloop
endfacet
facet normal -7.932156e-01 1.869252e-02 -6.086540e-01
    outer loop
        vertex -1.029124e+01 -2.000000e-01 7.254500e+00
        vertex -1.023409e+01 3.300000e+00 7.287500e+00
        vertex -1.000763e+01 3.300000e+00 6.992373e+00
    endloop
endfacet
facet normal -7.932157e-01 1.869253e-02 -6.086538e-01
    outer loop
        vertex -1.005430e+01 -2.000000e-01 6.945704e+00
        vertex -1.029124e+01 -2.000000e-01 7.254500e+00
        vertex -1.000763e+01 3.300000e+00 6.992373e+00
    endloop
endfacet
facet normal -9.237185e-01 1.869260e-02 -3.826156e-01
    outer loop
        vertex -1.044020e+01 -2.000000e-01 7.614101e+00
        vertex -1.037644e+01 3.300000e+00 7.631183e+00
        vertex -1.023409e+01 3.300000e+00 7.287500e+00
    endloop
endfacet
facet normal -9.237182e-01 1.869251e-02 -3.826164e-01
    outer loop
        vertex -1.029124e+01 -2.000000e-01 7.254500e+00
        vertex -1.044020e+01 -2.000000e-01 7.614101e+00
        vertex -1.023409e+01 3.300000e+00 7.287500e+00
    endloop
endfacet
facet normal -9.912714e-01 1.869254e-02 -1.305051e-01
    outer loop
        vertex -1.049100e+01 -2.000000e-01 8.000000e+00
        vertex -1.042500e+01 3.300000e+00 8.000000e+00
        vertex -1.037644e+01 3.300000e+00 7.631183e+00
    endloop
endfacet
facet normal -9.912714e-01 1.869259e-02 -1.305047e-01
    outer loop
        vertex -1.044020e+01 -2.000000e-01 7.614101e+00
        vertex -1.049100e+01 -2.000000e-01 8.000000e+00
        vertex -1.037644e+01 3.300000e+00 7.631183e+00
    endloop
endfacet
facet normal -9.912715e-01 1.869259e-02 1.305045e-01
    outer loop
        vertex -1.049100e+01 -2.000000e-01 8.000000e+00
        vertex -1.044020e+01 -2.000000e-01 8.385900e+00
        vertex -1.037644e+01 3.300000e+00 8.368817e+00
    endloop
endfacet
facet normal -9.912714e-01 1.869254e-02 1.305050e-01
    outer loop
        vertex -1.049100e+01 -2.000000e-01 8.000000e+00
        vertex -1.037644e+01 3.300000e+00 8.368817e+00
        vertex -1.042500e+01 3.300000e+00 8.000000e+00
    endloop
endfacet
facet normal -9.237179e-01 1.869251e-02 3.826172e-01
    outer loop
        vertex -1.044020e+01 -2.000000e-01 8.385900e+00
        vertex -1.029124e+01 -2.000000e-01 8.745500e+00
        vertex -1.023409e+01 3.300000e+00 8.712500e+00
    endloop
endfacet
facet normal -9.237182e-01 1.869260e-02 3.826165e-01
    outer loop
        vertex -1.044020e+01 -2.000000e-01 8.385900e+00
        vertex -1.023409e+01 3.300000e+00 8.712500e+00
        vertex -1.037644e+01 3.300000e+00 8.368817e+00
    endloop
endfacet
facet normal -7.932161e-01 1.869253e-02 6.086532e-01
    outer loop
        vertex -1.029124e+01 -2.000000e-01 8.745500e+00
        vertex -1.005430e+01 -2.000000e-01 9.054296e+00
        vertex -1.000763e+01 3.300000e+00 9.007627e+00
    endloop
endfacet
facet normal -7.932160e-01 1.869252e-02 6.086533e-01
    outer loop
        vertex -1.029124e+01 -2.000000e-01 8.745500e+00
        vertex -1.000763e+01 3.300000e+00 9.007627e+00
        vertex -1.023409e+01 3.300000e+00 8.712500e+00
    endloop
endfacet
facet normal -6.086533e-01 1.869252e-02 7.932160e-01
    outer loop
        vertex -9.745500e+00 -2.000000e-01 9.291244e+00
        vertex -9.712500e+00 3.300000e+00 9.234086e+00
        vertex -1.000763e+01 3.300000e+00 9.007627e+00
    endloop
endfacet
facet normal -6.086532e-01 1.869253e-02 7.932161e-01
    outer loop
        vertex -1.005430e+01 -2.000000e-01 9.054296e+00
        vertex -9.745500e+00 -2.000000e-01 9.291244e+00
        vertex -1.000763e+01 3.300000e+00 9.007627e+00
    endloop
endfacet
facet normal -3.826165e-01 1.869260e-02 9.237182e-01
    outer loop
        vertex -9.385900e+00 -2.000000e-01 9.440195e+00
        vertex -9.368817e+00 3.300000e+00 9.376444e+00
        vertex -9.712500e+00 3.300000e+00 9.234086e+00
    endloop
endfacet
facet normal -3.826172e-01 1.869251e-02 9.237179e-01
    outer loop
        vertex -9.745500e+00 -2.000000e-01 9.291244e+00
        vertex -9.385900e+00 -2.000000e-01 9.440195e+00
        vertex -9.712500e+00 3.300000e+00 9.234086e+00
    endloop
endfacet
facet normal -1.305050e-01 1.869254e-02 9.912714e-01
    outer loop
        vertex -9.000000e+00 -2.000000e-01 9.491000e+00
        vertex -9.000000e+00 3.300000e+00 9.425000e+00
        vertex -9.368817e+00 3.300000e+00 9.376444e+00
    endloop
endfacet
facet normal -1.305045e-01 1.869259e-02 9.912715e-01
    outer loop
        vertex -9.385900e+00 -2.000000e-01 9.440195e+00
        vertex -9.000000e+00 -2.000000e-01 9.491000e+00
        vertex -9.368817e+00 3.300000e+00 9.376444e+00
    endloop
endfacet
endsolid trigger.stl
