solid cable-cover.stl
facet normal 0.000000e+00 1.000000e+00 0.000000e+00
    outer loop
        vertex -1.005000e+02 2.600000e+01 5.200000e+01
        vertex -1.005000e+02 2.600000e+01 6.400000e+01
        vertex 1.220000e+02 2.600000e+01 5.200000e+01
    endloop
endfacet
facet normal 0.000000e+00 1.000000e+00 -0.000000e+00
    outer loop
        vertex 1.220000e+02 2.600000e+01 5.200000e+01
        vertex -1.005000e+02 2.600000e+01 6.400000e+01
        vertex 1.220000e+02 2.600000e+01 6.400000e+01
    endloop
endfacet
facet normal 0.000000e+00 1.643988e-01 -9.863939e-01
    outer loop
        vertex 1.110000e+02 1.950000e+01 5.091667e+01
        vertex 1.220000e+02 2.600000e+01 5.200000e+01
        vertex 1.274167e+02 1.950000e+01 5.091667e+01
    endloop
endfacet
facet normal 0.000000e+00 1.643990e-01 -9.863939e-01
    outer loop
        vertex -1.022500e+02 1.550000e+01 5.025000e+01
        vertex -1.005000e+02 2.600000e+01 5.200000e+01
        vertex 1.065000e+02 1.550000e+01 5.025000e+01
    endloop
endfacet
facet normal 0.000000e+00 1.643988e-01 -9.863939e-01
    outer loop
        vertex 1.110000e+02 1.950000e+01 5.091667e+01
        vertex -1.005000e+02 2.600000e+01 5.200000e+01
        vertex 1.220000e+02 2.600000e+01 5.200000e+01
    endloop
endfacet
facet normal 1.504688e-08 1.643993e-01 -9.863939e-01
    outer loop
        vertex 1.065000e+02 1.550000e+01 5.025000e+01
        vertex -1.005000e+02 2.600000e+01 5.200000e+01
        vertex 1.110000e+02 1.950000e+01 5.091667e+01
    endloop
endfacet
facet normal 7.682210e-01 6.401848e-01 0.000000e+00
    outer loop
        vertex 1.274167e+02 1.950000e+01 5.091667e+01
        vertex 1.220000e+02 2.600000e+01 5.200000e+01
        vertex 1.220000e+02 2.600000e+01 6.400000e+01
    endloop
endfacet
facet normal 7.682210e-01 6.401848e-01 -0.000000e+00
    outer loop
        vertex 1.274167e+02 1.950000e+01 5.091667e+01
        vertex 1.220000e+02 2.600000e+01 6.400000e+01
        vertex 1.274167e+02 1.950000e+01 6.508334e+01
    endloop
endfacet
facet normal -9.863939e-01 1.643990e-01 0.000000e+00
    outer loop
        vertex -1.022500e+02 1.550000e+01 5.025000e+01
        vertex -1.022500e+02 1.550000e+01 5.500000e+01
        vertex -1.005000e+02 2.600000e+01 5.200000e+01
    endloop
endfacet
facet normal -9.863939e-01 1.643991e-01 2.832211e-07
    outer loop
        vertex -1.022500e+02 1.550000e+01 5.500000e+01
        vertex -1.011667e+02 2.200000e+01 6.200000e+01
        vertex -1.005000e+02 2.600000e+01 5.200000e+01
    endloop
endfacet
facet normal -9.863940e-01 1.643984e-01 0.000000e+00
    outer loop
        vertex -1.011667e+02 2.200000e+01 6.200000e+01
        vertex -1.005000e+02 2.600000e+01 6.400000e+01
        vertex -1.005000e+02 2.600000e+01 5.200000e+01
    endloop
endfacet
facet normal -9.863940e-01 1.643984e-01 0.000000e+00
    outer loop
        vertex -1.011667e+02 2.200000e+01 6.200000e+01
        vertex -1.011667e+02 2.200000e+01 6.466666e+01
        vertex -1.005000e+02 2.600000e+01 6.400000e+01
    endloop
endfacet
facet normal -0.000000e+00 1.643994e-01 9.863939e-01
    outer loop
        vertex 3.025000e+01 1.550000e+01 6.575000e+01
        vertex 1.065000e+02 1.550000e+01 6.575000e+01
        vertex 2.475000e+01 2.200000e+01 6.466666e+01
    endloop
endfacet
facet normal -0.000000e+00 1.643994e-01 9.863939e-01
    outer loop
        vertex 1.110000e+02 1.950000e+01 6.508334e+01
        vertex 1.274167e+02 1.950000e+01 6.508334e+01
        vertex 1.220000e+02 2.600000e+01 6.400000e+01
    endloop
endfacet
facet normal -7.393561e-08 1.643985e-01 9.863940e-01
    outer loop
        vertex 1.065000e+02 1.550000e+01 6.575000e+01
        vertex 1.110000e+02 1.950000e+01 6.508334e+01
        vertex 2.475000e+01 2.200000e+01 6.466666e+01
    endloop
endfacet
facet normal 0.000000e+00 1.643984e-01 9.863940e-01
    outer loop
        vertex 2.475000e+01 2.200000e+01 6.466666e+01
        vertex -1.005000e+02 2.600000e+01 6.400000e+01
        vertex -1.011667e+02 2.200000e+01 6.466666e+01
    endloop
endfacet
facet normal 0.000000e+00 1.643984e-01 9.863940e-01
    outer loop
        vertex 2.475000e+01 2.200000e+01 6.466666e+01
        vertex 1.220000e+02 2.600000e+01 6.400000e+01
        vertex -1.005000e+02 2.600000e+01 6.400000e+01
    endloop
endfacet
facet normal -4.478564e-08 1.643994e-01 9.863939e-01
    outer loop
        vertex 1.110000e+02 1.950000e+01 6.508334e+01
        vertex 1.220000e+02 2.600000e+01 6.400000e+01
        vertex 2.475000e+01 2.200000e+01 6.466666e+01
    endloop
endfacet
facet normal -7.633863e-01 -6.459423e-01 0.000000e+00
    outer loop
        vertex 3.025000e+01 1.550000e+01 6.475000e+01
        vertex 3.025000e+01 1.550000e+01 6.575000e+01
        vertex 2.475000e+01 2.200000e+01 6.466666e+01
    endloop
endfacet
facet normal -7.633863e-01 -6.459423e-01 0.000000e+00
    outer loop
        vertex 3.025000e+01 1.550000e+01 6.475000e+01
        vertex 2.475000e+01 2.200000e+01 6.466666e+01
        vertex 2.475000e+01 2.200000e+01 6.366667e+01
    endloop
endfacet
facet normal 6.643639e-01 -7.474093e-01 0.000000e+00
    outer loop
        vertex 1.065000e+02 1.550000e+01 5.145000e+01
        vertex 1.110000e+02 1.950000e+01 5.091667e+01
        vertex 1.110000e+02 1.950000e+01 5.211667e+01
    endloop
endfacet
facet normal 6.643639e-01 -7.474093e-01 0.000000e+00
    outer loop
        vertex 1.065000e+02 1.550000e+01 5.025000e+01
        vertex 1.110000e+02 1.950000e+01 5.091667e+01
        vertex 1.065000e+02 1.550000e+01 5.145000e+01
    endloop
endfacet
facet normal 6.643639e-01 -7.474093e-01 0.000000e+00
    outer loop
        vertex 1.065000e+02 1.550000e+01 6.475000e+01
        vertex 1.110000e+02 1.950000e+01 6.508334e+01
        vertex 1.065000e+02 1.550000e+01 6.575000e+01
    endloop
endfacet
facet normal 6.643639e-01 -7.474093e-01 0.000000e+00
    outer loop
        vertex 1.065000e+02 1.550000e+01 6.475000e+01
        vertex 1.110000e+02 1.950000e+01 6.408334e+01
        vertex 1.110000e+02 1.950000e+01 6.508334e+01
    endloop
endfacet
facet normal 0.000000e+00 -1.000000e+00 0.000000e+00
    outer loop
        vertex 1.110000e+02 1.950000e+01 5.091667e+01
        vertex 1.200000e+02 1.950000e+01 5.211667e+01
        vertex 1.110000e+02 1.950000e+01 5.211667e+01
    endloop
endfacet
facet normal 0.000000e+00 -1.000000e+00 0.000000e+00
    outer loop
        vertex 1.110000e+02 1.950000e+01 6.408334e+01
        vertex 1.200000e+02 1.950000e+01 6.408334e+01
        vertex 1.110000e+02 1.950000e+01 6.508334e+01
    endloop
endfacet
facet normal 0.000000e+00 -1.000000e+00 0.000000e+00
    outer loop
        vertex 1.110000e+02 1.950000e+01 5.091667e+01
        vertex 1.274167e+02 1.950000e+01 5.091667e+01
        vertex 1.200000e+02 1.950000e+01 5.211667e+01
    endloop
endfacet
facet normal 0.000000e+00 -1.000000e+00 0.000000e+00
    outer loop
        vertex 1.274167e+02 1.950000e+01 5.091667e+01
        vertex 1.274167e+02 1.950000e+01 6.508334e+01
        vertex 1.200000e+02 1.950000e+01 5.211667e+01
    endloop
endfacet
facet normal 0.000000e+00 -1.000000e+00 0.000000e+00
    outer loop
        vertex 1.200000e+02 1.950000e+01 6.408334e+01
        vertex 1.274167e+02 1.950000e+01 6.508334e+01
        vertex 1.110000e+02 1.950000e+01 6.508334e+01
    endloop
endfacet
facet normal 0.000000e+00 -1.000000e+00 0.000000e+00
    outer loop
        vertex 1.200000e+02 1.950000e+01 5.211667e+01
        vertex 1.274167e+02 1.950000e+01 6.508334e+01
        vertex 1.200000e+02 1.950000e+01 6.408334e+01
    endloop
endfacet
facet normal 0.000000e+00 -1.000000e+00 0.000000e+00
    outer loop
        vertex -9.750000e+01 2.200000e+01 6.200000e+01
        vertex -9.750000e+01 2.200000e+01 6.366667e+01
        vertex -1.011667e+02 2.200000e+01 6.200000e+01
    endloop
endfacet
facet normal 0.000000e+00 -1.000000e+00 0.000000e+00
    outer loop
        vertex 2.475000e+01 2.200000e+01 6.366667e+01
        vertex 2.475000e+01 2.200000e+01 6.466666e+01
        vertex -9.750000e+01 2.200000e+01 6.366667e+01
    endloop
endfacet
facet normal 0.000000e+00 -1.000000e+00 0.000000e+00
    outer loop
        vertex -1.011667e+02 2.200000e+01 6.200000e+01
        vertex -9.750000e+01 2.200000e+01 6.366667e+01
        vertex -1.011667e+02 2.200000e+01 6.466666e+01
    endloop
endfacet
facet normal 0.000000e+00 -1.000000e+00 0.000000e+00
    outer loop
        vertex -9.750000e+01 2.200000e+01 6.366667e+01
        vertex 2.475000e+01 2.200000e+01 6.466666e+01
        vertex -1.011667e+02 2.200000e+01 6.466666e+01
    endloop
endfacet
facet normal 0.000000e+00 -7.327935e-01 6.804511e-01
    outer loop
        vertex -9.750000e+01 1.550000e+01 5.500000e+01
        vertex -9.750000e+01 2.200000e+01 6.200000e+01
        vertex -1.011667e+02 2.200000e+01 6.200000e+01
    endloop
endfacet
facet normal 0.000000e+00 -7.327935e-01 6.804511e-01
    outer loop
        vertex -9.750000e+01 1.550000e+01 5.500000e+01
        vertex -1.011667e+02 2.200000e+01 6.200000e+01
        vertex -1.022500e+02 1.550000e+01 5.500000e+01
    endloop
endfacet
facet normal 0.000000e+00 -1.000000e+00 0.000000e+00
    outer loop
        vertex 3.025000e+01 1.550000e+01 6.475000e+01
        vertex 1.065000e+02 1.550000e+01 6.575000e+01
        vertex 3.025000e+01 1.550000e+01 6.575000e+01
    endloop
endfacet
facet normal 0.000000e+00 -1.000000e+00 0.000000e+00
    outer loop
        vertex 3.025000e+01 1.550000e+01 6.475000e+01
        vertex 1.065000e+02 1.550000e+01 6.475000e+01
        vertex 1.065000e+02 1.550000e+01 6.575000e+01
    endloop
endfacet
facet normal 0.000000e+00 -1.000000e+00 0.000000e+00
    outer loop
        vertex -9.750000e+01 1.550000e+01 5.145000e+01
        vertex -9.750000e+01 1.550000e+01 5.500000e+01
        vertex -1.022500e+02 1.550000e+01 5.500000e+01
    endloop
endfacet
facet normal 0.000000e+00 -1.000000e+00 0.000000e+00
    outer loop
        vertex 1.065000e+02 1.550000e+01 5.025000e+01
        vertex 1.065000e+02 1.550000e+01 5.145000e+01
        vertex -9.750000e+01 1.550000e+01 5.145000e+01
    endloop
endfacet
facet normal 0.000000e+00 -1.000000e+00 0.000000e+00
    outer loop
        vertex -1.022500e+02 1.550000e+01 5.025000e+01
        vertex 1.065000e+02 1.550000e+01 5.025000e+01
        vertex -9.750000e+01 1.550000e+01 5.145000e+01
    endloop
endfacet
facet normal 0.000000e+00 -1.000000e+00 0.000000e+00
    outer loop
        vertex -1.022500e+02 1.550000e+01 5.025000e+01
        vertex -9.750000e+01 1.550000e+01 5.145000e+01
        vertex -1.022500e+02 1.550000e+01 5.500000e+01
    endloop
endfacet
facet normal 0.000000e+00 -1.000000e+00 0.000000e+00
    outer loop
        vertex -9.750000e+01 2.480000e+01 5.300000e+01
        vertex 1.200000e+02 2.480000e+01 5.300000e+01
        vertex -9.750000e+01 2.480000e+01 6.320000e+01
    endloop
endfacet
facet normal 0.000000e+00 -1.000000e+00 0.000000e+00
    outer loop
        vertex 1.200000e+02 2.480000e+01 5.300000e+01
        vertex 1.200000e+02 2.480000e+01 6.320000e+01
        vertex -9.750000e+01 2.480000e+01 6.320000e+01
    endloop
endfacet
facet normal 1.000000e+00 0.000000e+00 0.000000e+00
    outer loop
        vertex -9.750000e+01 1.550000e+01 5.145000e+01
        vertex -9.750000e+01 2.480000e+01 5.300000e+01
        vertex -9.750000e+01 1.550000e+01 5.500000e+01
    endloop
endfacet
facet normal 1.000000e+00 0.000000e+00 0.000000e+00
    outer loop
        vertex -9.750000e+01 2.200000e+01 6.200000e+01
        vertex -9.750000e+01 2.480000e+01 6.320000e+01
        vertex -9.750000e+01 2.200000e+01 6.366667e+01
    endloop
endfacet
facet normal 1.000000e+00 -0.000000e+00 0.000000e+00
    outer loop
        vertex -9.750000e+01 2.200000e+01 6.200000e+01
        vertex -9.750000e+01 2.480000e+01 5.300000e+01
        vertex -9.750000e+01 2.480000e+01 6.320000e+01
    endloop
endfacet
facet normal 1.000000e+00 -0.000000e+00 0.000000e+00
    outer loop
        vertex -9.750000e+01 1.550000e+01 5.500000e+01
        vertex -9.750000e+01 2.480000e+01 5.300000e+01
        vertex -9.750000e+01 2.200000e+01 6.200000e+01
    endloop
endfacet
facet normal 0.000000e+00 -1.643986e-01 9.863940e-01
    outer loop
        vertex 1.110000e+02 1.950000e+01 5.211667e+01
        vertex 1.200000e+02 1.950000e+01 5.211667e+01
        vertex 1.200000e+02 2.480000e+01 5.300000e+01
    endloop
endfacet
facet normal 0.000000e+00 -1.643989e-01 9.863939e-01
    outer loop
        vertex -9.750000e+01 1.550000e+01 5.145000e+01
        vertex 1.065000e+02 1.550000e+01 5.145000e+01
        vertex -9.750000e+01 2.480000e+01 5.300000e+01
    endloop
endfacet
facet normal -1.652176e-08 -1.643993e-01 9.863939e-01
    outer loop
        vertex 1.065000e+02 1.550000e+01 5.145000e+01
        vertex 1.110000e+02 1.950000e+01 5.211667e+01
        vertex -9.750000e+01 2.480000e+01 5.300000e+01
    endloop
endfacet
facet normal 0.000000e+00 -1.643986e-01 9.863940e-01
    outer loop
        vertex 1.110000e+02 1.950000e+01 5.211667e+01
        vertex 1.200000e+02 2.480000e+01 5.300000e+01
        vertex -9.750000e+01 2.480000e+01 5.300000e+01
    endloop
endfacet
facet normal 0.000000e+00 -1.643988e-01 -9.863939e-01
    outer loop
        vertex 3.025000e+01 1.550000e+01 6.475000e+01
        vertex 2.475000e+01 2.200000e+01 6.366667e+01
        vertex 1.065000e+02 1.550000e+01 6.475000e+01
    endloop
endfacet
facet normal 0.000000e+00 -1.643993e-01 -9.863939e-01
    outer loop
        vertex 1.110000e+02 1.950000e+01 6.408334e+01
        vertex 1.200000e+02 2.480000e+01 6.320000e+01
        vertex 1.200000e+02 1.950000e+01 6.408334e+01
    endloop
endfacet
facet normal 3.168669e-08 -1.643984e-01 -9.863940e-01
    outer loop
        vertex 1.065000e+02 1.550000e+01 6.475000e+01
        vertex 2.475000e+01 2.200000e+01 6.366667e+01
        vertex 1.110000e+02 1.950000e+01 6.408334e+01
    endloop
endfacet
facet normal 4.053395e-09 -1.643993e-01 -9.863939e-01
    outer loop
        vertex 1.110000e+02 1.950000e+01 6.408334e+01
        vertex 2.475000e+01 2.200000e+01 6.366667e+01
        vertex 1.200000e+02 2.480000e+01 6.320000e+01
    endloop
endfacet
facet normal 0.000000e+00 -1.643992e-01 -9.863939e-01
    outer loop
        vertex 2.475000e+01 2.200000e+01 6.366667e+01
        vertex -9.750000e+01 2.480000e+01 6.320000e+01
        vertex 1.200000e+02 2.480000e+01 6.320000e+01
    endloop
endfacet
facet normal -0.000000e+00 -1.643992e-01 -9.863939e-01
    outer loop
        vertex 2.475000e+01 2.200000e+01 6.366667e+01
        vertex -9.750000e+01 2.200000e+01 6.366667e+01
        vertex -9.750000e+01 2.480000e+01 6.320000e+01
    endloop
endfacet
facet normal -1.000000e+00 0.000000e+00 0.000000e+00
    outer loop
        vertex 1.200000e+02 1.950000e+01 5.211667e+01
        vertex 1.200000e+02 1.950000e+01 6.408334e+01
        vertex 1.200000e+02 2.480000e+01 6.320000e+01
    endloop
endfacet
facet normal -1.000000e+00 0.000000e+00 0.000000e+00
    outer loop
        vertex 1.200000e+02 1.950000e+01 5.211667e+01
        vertex 1.200000e+02 2.480000e+01 6.320000e+01
        vertex 1.200000e+02 2.480000e+01 5.300000e+01
    endloop
endfacet
endsolid cable-cover.stl
