solid mag-release-catch.stl
facet normal -3.826842e-01 0.000000e+00 -9.238792e-01
    outer loop
        vertex 1.990000e+01 1.250000e+01 8.130126e+00
        vertex 1.869410e+01 1.250000e+01 8.629628e+00
        vertex 1.990000e+01 1.550000e+01 8.130126e+00
    endloop
endfacet
facet normal -3.826842e-01 0.000000e+00 -9.238792e-01
    outer loop
        vertex 1.869410e+01 1.250000e+01 8.629628e+00
        vertex 1.869410e+01 1.550000e+01 8.629628e+00
        vertex 1.990000e+01 1.550000e+01 8.130126e+00
    endloop
endfacet
facet normal -7.061227e-02 0.000000e+00 -9.975038e-01
    outer loop
        vertex 1.869410e+01 1.250000e+01 8.629628e+00
        vertex 1.670590e+01 1.250000e+01 8.770370e+00
        vertex 1.869410e+01 1.550000e+01 8.629628e+00
    endloop
endfacet
facet normal -7.061227e-02 0.000000e+00 -9.975038e-01
    outer loop
        vertex 1.670590e+01 1.250000e+01 8.770370e+00
        vertex 1.670590e+01 1.550000e+01 8.770370e+00
        vertex 1.869410e+01 1.550000e+01 8.629628e+00
    endloop
endfacet
facet normal -3.826837e-01 0.000000e+00 -9.238794e-01
    outer loop
        vertex 1.670590e+01 1.250000e+01 8.770370e+00
        vertex 1.550000e+01 1.250000e+01 9.269873e+00
        vertex 1.670590e+01 1.550000e+01 8.770370e+00
    endloop
endfacet
facet normal -3.826837e-01 0.000000e+00 -9.238794e-01
    outer loop
        vertex 1.550000e+01 1.250000e+01 9.269873e+00
        vertex 1.550000e+01 1.550000e+01 9.269873e+00
        vertex 1.670590e+01 1.550000e+01 8.770370e+00
    endloop
endfacet
facet normal -6.087618e-01 0.000000e+00 -7.933531e-01
    outer loop
        vertex 1.550000e+01 1.250000e+01 9.269873e+00
        vertex 1.446447e+01 1.250000e+01 1.006447e+01
        vertex 1.550000e+01 1.550000e+01 9.269873e+00
    endloop
endfacet
facet normal -6.087618e-01 0.000000e+00 -7.933531e-01
    outer loop
        vertex 1.446447e+01 1.250000e+01 1.006447e+01
        vertex 1.446447e+01 1.550000e+01 1.006447e+01
        vertex 1.550000e+01 1.550000e+01 9.269873e+00
    endloop
endfacet
facet normal -7.933534e-01 0.000000e+00 -6.087613e-01
    outer loop
        vertex 1.446447e+01 1.250000e+01 1.006447e+01
        vertex 1.366987e+01 1.250000e+01 1.110000e+01
        vertex 1.446447e+01 1.550000e+01 1.006447e+01
    endloop
endfacet
facet normal -7.933534e-01 0.000000e+00 -6.087613e-01
    outer loop
        vertex 1.366987e+01 1.250000e+01 1.110000e+01
        vertex 1.366987e+01 1.550000e+01 1.110000e+01
        vertex 1.446447e+01 1.550000e+01 1.006447e+01
    endloop
endfacet
facet normal -9.238794e-01 0.000000e+00 -3.826837e-01
    outer loop
        vertex 1.366987e+01 1.250000e+01 1.110000e+01
        vertex 1.317037e+01 1.250000e+01 1.230590e+01
        vertex 1.366987e+01 1.550000e+01 1.110000e+01
    endloop
endfacet
facet normal -9.238794e-01 0.000000e+00 -3.826837e-01
    outer loop
        vertex 1.317037e+01 1.250000e+01 1.230590e+01
        vertex 1.317037e+01 1.550000e+01 1.230590e+01
        vertex 1.366987e+01 1.550000e+01 1.110000e+01
    endloop
endfacet
facet normal -9.914448e-01 0.000000e+00 -1.305263e-01
    outer loop
        vertex 1.317037e+01 1.250000e+01 1.230590e+01
        vertex 1.300000e+01 1.250000e+01 1.360000e+01
        vertex 1.317037e+01 1.550000e+01 1.230590e+01
    endloop
endfacet
facet normal -9.914448e-01 0.000000e+00 -1.305263e-01
    outer loop
        vertex 1.300000e+01 1.250000e+01 1.360000e+01
        vertex 1.300000e+01 1.550000e+01 1.360000e+01
        vertex 1.317037e+01 1.550000e+01 1.230590e+01
    endloop
endfacet
facet normal -9.914448e-01 0.000000e+00 1.305263e-01
    outer loop
        vertex 1.300000e+01 1.250000e+01 1.360000e+01
        vertex 1.317037e+01 1.250000e+01 1.489410e+01
        vertex 1.300000e+01 1.550000e+01 1.360000e+01
    endloop
endfacet
facet normal -9.914448e-01 0.000000e+00 1.305263e-01
    outer loop
        vertex 1.317037e+01 1.250000e+01 1.489410e+01
        vertex 1.317037e+01 1.550000e+01 1.489410e+01
        vertex 1.300000e+01 1.550000e+01 1.360000e+01
    endloop
endfacet
facet normal -9.238796e-01 0.000000e+00 3.826834e-01
    outer loop
        vertex 1.317037e+01 1.250000e+01 1.489410e+01
        vertex 1.366987e+01 1.250000e+01 1.610000e+01
        vertex 1.317037e+01 1.550000e+01 1.489410e+01
    endloop
endfacet
facet normal -9.238796e-01 0.000000e+00 3.826834e-01
    outer loop
        vertex 1.366987e+01 1.250000e+01 1.610000e+01
        vertex 1.366987e+01 1.550000e+01 1.610000e+01
        vertex 1.317037e+01 1.550000e+01 1.489410e+01
    endloop
endfacet
facet normal -7.933534e-01 0.000000e+00 6.087613e-01
    outer loop
        vertex 1.366987e+01 1.250000e+01 1.610000e+01
        vertex 1.446447e+01 1.250000e+01 1.713553e+01
        vertex 1.366987e+01 1.550000e+01 1.610000e+01
    endloop
endfacet
facet normal -7.933534e-01 0.000000e+00 6.087613e-01
    outer loop
        vertex 1.446447e+01 1.250000e+01 1.713553e+01
        vertex 1.446447e+01 1.550000e+01 1.713553e+01
        vertex 1.366987e+01 1.550000e+01 1.610000e+01
    endloop
endfacet
facet normal -6.087608e-01 0.000000e+00 7.933538e-01
    outer loop
        vertex 1.446447e+01 1.250000e+01 1.713553e+01
        vertex 1.550000e+01 1.250000e+01 1.793013e+01
        vertex 1.446447e+01 1.550000e+01 1.713553e+01
    endloop
endfacet
facet normal -6.087608e-01 0.000000e+00 7.933538e-01
    outer loop
        vertex 1.550000e+01 1.250000e+01 1.793013e+01
        vertex 1.550000e+01 1.550000e+01 1.793013e+01
        vertex 1.446447e+01 1.550000e+01 1.713553e+01
    endloop
endfacet
facet normal -3.826837e-01 0.000000e+00 9.238794e-01
    outer loop
        vertex 1.550000e+01 1.250000e+01 1.793013e+01
        vertex 1.670590e+01 1.250000e+01 1.842963e+01
        vertex 1.550000e+01 1.550000e+01 1.793013e+01
    endloop
endfacet
facet normal -3.826837e-01 0.000000e+00 9.238794e-01
    outer loop
        vertex 1.670590e+01 1.250000e+01 1.842963e+01
        vertex 1.670590e+01 1.550000e+01 1.842963e+01
        vertex 1.550000e+01 1.550000e+01 1.793013e+01
    endloop
endfacet
facet normal -1.305270e-01 0.000000e+00 9.914448e-01
    outer loop
        vertex 1.670590e+01 1.250000e+01 1.842963e+01
        vertex 1.800000e+01 1.250000e+01 1.860000e+01
        vertex 1.670590e+01 1.550000e+01 1.842963e+01
    endloop
endfacet
facet normal -1.305270e-01 0.000000e+00 9.914448e-01
    outer loop
        vertex 1.800000e+01 1.250000e+01 1.860000e+01
        vertex 1.800000e+01 1.550000e+01 1.860000e+01
        vertex 1.670590e+01 1.550000e+01 1.842963e+01
    endloop
endfacet
facet normal 0.000000e+00 0.000000e+00 1.000000e+00
    outer loop
        vertex 1.800000e+01 1.250000e+01 1.860000e+01
        vertex 2.750000e+01 1.250000e+01 1.860000e+01
        vertex 1.800000e+01 1.550000e+01 1.860000e+01
    endloop
endfacet
facet normal 0.000000e+00 -0.000000e+00 1.000000e+00
    outer loop
        vertex 2.750000e+01 1.250000e+01 1.860000e+01
        vertex 2.750000e+01 1.550000e+01 1.860000e+01
        vertex 1.800000e+01 1.550000e+01 1.860000e+01
    endloop
endfacet
facet normal 1.305268e-01 -0.000000e+00 9.914448e-01
    outer loop
        vertex 2.879410e+01 1.250000e+01 1.842963e+01
        vertex 2.879410e+01 1.550000e+01 1.842963e+01
        vertex 2.750000e+01 1.250000e+01 1.860000e+01
    endloop
endfacet
facet normal 1.305268e-01 -0.000000e+00 9.914448e-01
    outer loop
        vertex 2.750000e+01 1.250000e+01 1.860000e+01
        vertex 2.879410e+01 1.550000e+01 1.842963e+01
        vertex 2.750000e+01 1.550000e+01 1.860000e+01
    endloop
endfacet
facet normal 3.826842e-01 -0.000000e+00 9.238792e-01
    outer loop
        vertex 3.000000e+01 1.250000e+01 1.793013e+01
        vertex 3.000000e+01 1.550000e+01 1.793013e+01
        vertex 2.879410e+01 1.250000e+01 1.842963e+01
    endloop
endfacet
facet normal 3.826842e-01 -0.000000e+00 9.238792e-01
    outer loop
        vertex 2.879410e+01 1.250000e+01 1.842963e+01
        vertex 3.000000e+01 1.550000e+01 1.793013e+01
        vertex 2.879410e+01 1.550000e+01 1.842963e+01
    endloop
endfacet
facet normal 6.087608e-01 -0.000000e+00 7.933538e-01
    outer loop
        vertex 3.103553e+01 1.250000e+01 1.713553e+01
        vertex 3.103553e+01 1.550000e+01 1.713553e+01
        vertex 3.000000e+01 1.250000e+01 1.793013e+01
    endloop
endfacet
facet normal 6.087608e-01 -0.000000e+00 7.933538e-01
    outer loop
        vertex 3.000000e+01 1.250000e+01 1.793013e+01
        vertex 3.103553e+01 1.550000e+01 1.713553e+01
        vertex 3.000000e+01 1.550000e+01 1.793013e+01
    endloop
endfacet
facet normal 7.933531e-01 -0.000000e+00 6.087618e-01
    outer loop
        vertex 3.183013e+01 1.250000e+01 1.610000e+01
        vertex 3.183013e+01 1.550000e+01 1.610000e+01
        vertex 3.103553e+01 1.250000e+01 1.713553e+01
    endloop
endfacet
facet normal 7.933531e-01 -0.000000e+00 6.087618e-01
    outer loop
        vertex 3.103553e+01 1.250000e+01 1.713553e+01
        vertex 3.183013e+01 1.550000e+01 1.610000e+01
        vertex 3.103553e+01 1.550000e+01 1.713553e+01
    endloop
endfacet
facet normal 9.238800e-01 -0.000000e+00 3.826822e-01
    outer loop
        vertex 3.232963e+01 1.250000e+01 1.489410e+01
        vertex 3.232963e+01 1.550000e+01 1.489410e+01
        vertex 3.183013e+01 1.250000e+01 1.610000e+01
    endloop
endfacet
facet normal 9.238800e-01 -0.000000e+00 3.826822e-01
    outer loop
        vertex 3.183013e+01 1.250000e+01 1.610000e+01
        vertex 3.232963e+01 1.550000e+01 1.489410e+01
        vertex 3.183013e+01 1.550000e+01 1.610000e+01
    endloop
endfacet
facet normal 9.914448e-01 -0.000000e+00 1.305271e-01
    outer loop
        vertex 3.250000e+01 1.250000e+01 1.360000e+01
        vertex 3.250000e+01 1.550000e+01 1.360000e+01
        vertex 3.232963e+01 1.250000e+01 1.489410e+01
    endloop
endfacet
facet normal 9.914448e-01 -0.000000e+00 1.305271e-01
    outer loop
        vertex 3.232963e+01 1.250000e+01 1.489410e+01
        vertex 3.250000e+01 1.550000e+01 1.360000e+01
        vertex 3.232963e+01 1.550000e+01 1.489410e+01
    endloop
endfacet
facet normal 1.000000e+00 0.000000e+00 0.000000e+00
    outer loop
        vertex 3.250000e+01 1.250000e+01 -1.150000e+01
        vertex 3.250000e+01 1.550000e+01 -1.150000e+01
        vertex 3.250000e+01 1.250000e+01 1.360000e+01
    endloop
endfacet
facet normal 1.000000e+00 -0.000000e+00 0.000000e+00
    outer loop
        vertex 3.250000e+01 1.250000e+01 1.360000e+01
        vertex 3.250000e+01 1.550000e+01 -1.150000e+01
        vertex 3.250000e+01 1.550000e+01 1.360000e+01
    endloop
endfacet
facet normal 9.914448e-01 0.000000e+00 -1.305270e-01
    outer loop
        vertex 3.232963e+01 1.250000e+01 -1.279410e+01
        vertex 3.232963e+01 1.550000e+01 -1.279410e+01
        vertex 3.250000e+01 1.250000e+01 -1.150000e+01
    endloop
endfacet
facet normal 9.914448e-01 0.000000e+00 -1.305270e-01
    outer loop
        vertex 3.250000e+01 1.250000e+01 -1.150000e+01
        vertex 3.232963e+01 1.550000e+01 -1.279410e+01
        vertex 3.250000e+01 1.550000e+01 -1.150000e+01
    endloop
endfacet
facet normal 9.238799e-01 0.000000e+00 -3.826824e-01
    outer loop
        vertex 3.183013e+01 1.250000e+01 -1.400000e+01
        vertex 3.183013e+01 1.550000e+01 -1.400000e+01
        vertex 3.232963e+01 1.250000e+01 -1.279410e+01
    endloop
endfacet
facet normal 9.238799e-01 0.000000e+00 -3.826824e-01
    outer loop
        vertex 3.232963e+01 1.250000e+01 -1.279410e+01
        vertex 3.183013e+01 1.550000e+01 -1.400000e+01
        vertex 3.232963e+01 1.550000e+01 -1.279410e+01
    endloop
endfacet
facet normal 7.933531e-01 0.000000e+00 -6.087618e-01
    outer loop
        vertex 3.103553e+01 1.250000e+01 -1.503553e+01
        vertex 3.103553e+01 1.550000e+01 -1.503553e+01
        vertex 3.183013e+01 1.250000e+01 -1.400000e+01
    endloop
endfacet
facet normal 7.933531e-01 0.000000e+00 -6.087618e-01
    outer loop
        vertex 3.183013e+01 1.250000e+01 -1.400000e+01
        vertex 3.103553e+01 1.550000e+01 -1.503553e+01
        vertex 3.183013e+01 1.550000e+01 -1.400000e+01
    endloop
endfacet
facet normal 6.087618e-01 0.000000e+00 -7.933531e-01
    outer loop
        vertex 3.000000e+01 1.250000e+01 -1.583013e+01
        vertex 3.000000e+01 1.550000e+01 -1.583013e+01
        vertex 3.103553e+01 1.250000e+01 -1.503553e+01
    endloop
endfacet
facet normal 6.087618e-01 0.000000e+00 -7.933531e-01
    outer loop
        vertex 3.103553e+01 1.250000e+01 -1.503553e+01
        vertex 3.000000e+01 1.550000e+01 -1.583013e+01
        vertex 3.103553e+01 1.550000e+01 -1.503553e+01
    endloop
endfacet
facet normal 3.826842e-01 0.000000e+00 -9.238792e-01
    outer loop
        vertex 2.879410e+01 1.250000e+01 -1.632963e+01
        vertex 2.879410e+01 1.550000e+01 -1.632963e+01
        vertex 3.000000e+01 1.250000e+01 -1.583013e+01
    endloop
endfacet
facet normal 3.826842e-01 0.000000e+00 -9.238792e-01
    outer loop
        vertex 3.000000e+01 1.250000e+01 -1.583013e+01
        vertex 2.879410e+01 1.550000e+01 -1.632963e+01
        vertex 3.000000e+01 1.550000e+01 -1.583013e+01
    endloop
endfacet
facet normal 1.305254e-01 0.000000e+00 -9.914449e-01
    outer loop
        vertex 2.750000e+01 1.250000e+01 -1.650000e+01
        vertex 2.750000e+01 1.550000e+01 -1.650000e+01
        vertex 2.879410e+01 1.250000e+01 -1.632963e+01
    endloop
endfacet
facet normal 1.305254e-01 0.000000e+00 -9.914449e-01
    outer loop
        vertex 2.879410e+01 1.250000e+01 -1.632963e+01
        vertex 2.750000e+01 1.550000e+01 -1.650000e+01
        vertex 2.879410e+01 1.550000e+01 -1.632963e+01
    endloop
endfacet
facet normal 0.000000e+00 0.000000e+00 -1.000000e+00
    outer loop
        vertex 2.250000e+01 1.250000e+01 -1.650000e+01
        vertex 2.250000e+01 1.550000e+01 -1.650000e+01
        vertex 2.750000e+01 1.250000e+01 -1.650000e+01
    endloop
endfacet
facet normal 0.000000e+00 0.000000e+00 -1.000000e+00
    outer loop
        vertex 2.750000e+01 1.250000e+01 -1.650000e+01
        vertex 2.250000e+01 1.550000e+01 -1.650000e+01
        vertex 2.750000e+01 1.550000e+01 -1.650000e+01
    endloop
endfacet
facet normal -1.000000e+00 0.000000e+00 0.000000e+00
    outer loop
        vertex 2.250000e+01 1.250000e+01 -1.650000e+01
        vertex 2.250000e+01 1.250000e+01 3.400000e+00
        vertex 2.250000e+01 1.550000e+01 -1.650000e+01
    endloop
endfacet
facet normal -1.000000e+00 0.000000e+00 0.000000e+00
    outer loop
        vertex 2.250000e+01 1.250000e+01 3.400000e+00
        vertex 2.250000e+01 1.550000e+01 3.400000e+00
        vertex 2.250000e+01 1.550000e+01 -1.650000e+01
    endloop
endfacet
facet normal -9.875028e-01 0.000000e+00 -1.576013e-01
    outer loop
        vertex 2.250000e+01 1.250000e+01 3.400000e+00
        vertex 2.222963e+01 1.250000e+01 5.094095e+00
        vertex 2.250000e+01 1.550000e+01 3.400000e+00
    endloop
endfacet
facet normal -9.875028e-01 0.000000e+00 -1.576013e-01
    outer loop
        vertex 2.222963e+01 1.250000e+01 5.094095e+00
        vertex 2.222963e+01 1.550000e+01 5.094095e+00
        vertex 2.250000e+01 1.550000e+01 3.400000e+00
    endloop
endfacet
facet normal -9.238800e-01 0.000000e+00 -3.826822e-01
    outer loop
        vertex 2.222963e+01 1.250000e+01 5.094095e+00
        vertex 2.173013e+01 1.250000e+01 6.300000e+00
        vertex 2.222963e+01 1.550000e+01 5.094095e+00
    endloop
endfacet
facet normal -9.238800e-01 0.000000e+00 -3.826822e-01
    outer loop
        vertex 2.173013e+01 1.250000e+01 6.300000e+00
        vertex 2.173013e+01 1.550000e+01 6.300000e+00
        vertex 2.222963e+01 1.550000e+01 5.094095e+00
    endloop
endfacet
facet normal -7.933517e-01 0.000000e+00 -6.087636e-01
    outer loop
        vertex 2.173013e+01 1.250000e+01 6.300000e+00
        vertex 2.093553e+01 1.250000e+01 7.335534e+00
        vertex 2.173013e+01 1.550000e+01 6.300000e+00
    endloop
endfacet
facet normal -7.933517e-01 0.000000e+00 -6.087636e-01
    outer loop
        vertex 2.093553e+01 1.250000e+01 7.335534e+00
        vertex 2.093553e+01 1.550000e+01 7.335534e+00
        vertex 2.173013e+01 1.550000e+01 6.300000e+00
    endloop
endfacet
facet normal -6.087623e-01 0.000000e+00 -7.933527e-01
    outer loop
        vertex 2.093553e+01 1.250000e+01 7.335534e+00
        vertex 1.990000e+01 1.250000e+01 8.130126e+00
        vertex 2.093553e+01 1.550000e+01 7.335534e+00
    endloop
endfacet
facet normal -6.087623e-01 0.000000e+00 -7.933527e-01
    outer loop
        vertex 1.990000e+01 1.250000e+01 8.130126e+00
        vertex 1.990000e+01 1.550000e+01 8.130126e+00
        vertex 2.093553e+01 1.550000e+01 7.335534e+00
    endloop
endfacet
facet normal 0.000000e+00 1.000000e+00 0.000000e+00
    outer loop
        vertex 2.250000e+01 1.550000e+01 -1.650000e+01
        vertex 2.250000e+01 1.550000e+01 3.400000e+00
        vertex 2.750000e+01 1.550000e+01 -1.650000e+01
    endloop
endfacet
facet normal 0.000000e+00 1.000000e+00 0.000000e+00
    outer loop
        vertex 1.869410e+01 1.550000e+01 8.629628e+00
        vertex 1.670590e+01 1.550000e+01 8.770370e+00
        vertex 1.550000e+01 1.550000e+01 9.269873e+00
    endloop
endfacet
facet normal 0.000000e+00 1.000000e+00 0.000000e+00
    outer loop
        vertex 1.869410e+01 1.550000e+01 8.629628e+00
        vertex 1.550000e+01 1.550000e+01 9.269873e+00
        vertex 1.446447e+01 1.550000e+01 1.006447e+01
    endloop
endfacet
facet normal 0.000000e+00 1.000000e+00 0.000000e+00
    outer loop
        vertex 1.869410e+01 1.550000e+01 8.629628e+00
        vertex 1.446447e+01 1.550000e+01 1.006447e+01
        vertex 1.366987e+01 1.550000e+01 1.110000e+01
    endloop
endfacet
facet normal 0.000000e+00 1.000000e+00 0.000000e+00
    outer loop
        vertex 1.869410e+01 1.550000e+01 8.629628e+00
        vertex 1.366987e+01 1.550000e+01 1.110000e+01
        vertex 1.317037e+01 1.550000e+01 1.230590e+01
    endloop
endfacet
facet normal 0.000000e+00 1.000000e+00 0.000000e+00
    outer loop
        vertex 1.869410e+01 1.550000e+01 8.629628e+00
        vertex 1.317037e+01 1.550000e+01 1.230590e+01
        vertex 1.300000e+01 1.550000e+01 1.360000e+01
    endloop
endfacet
facet normal 0.000000e+00 1.000000e+00 0.000000e+00
    outer loop
        vertex 1.869410e+01 1.550000e+01 8.629628e+00
        vertex 1.300000e+01 1.550000e+01 1.360000e+01
        vertex 1.317037e+01 1.550000e+01 1.489410e+01
    endloop
endfacet
facet normal 0.000000e+00 1.000000e+00 0.000000e+00
    outer loop
        vertex 1.869410e+01 1.550000e+01 8.629628e+00
        vertex 1.317037e+01 1.550000e+01 1.489410e+01
        vertex 1.366987e+01 1.550000e+01 1.610000e+01
    endloop
endfacet
facet normal 0.000000e+00 1.000000e+00 0.000000e+00
    outer loop
        vertex 1.869410e+01 1.550000e+01 8.629628e+00
        vertex 1.366987e+01 1.550000e+01 1.610000e+01
        vertex 1.446447e+01 1.550000e+01 1.713553e+01
    endloop
endfacet
facet normal 0.000000e+00 1.000000e+00 0.000000e+00
    outer loop
        vertex 1.869410e+01 1.550000e+01 8.629628e+00
        vertex 1.446447e+01 1.550000e+01 1.713553e+01
        vertex 1.550000e+01 1.550000e+01 1.793013e+01
    endloop
endfacet
facet normal 0.000000e+00 1.000000e+00 0.000000e+00
    outer loop
        vertex 1.869410e+01 1.550000e+01 8.629628e+00
        vertex 1.550000e+01 1.550000e+01 1.793013e+01
        vertex 1.670590e+01 1.550000e+01 1.842963e+01
    endloop
endfacet
facet normal 0.000000e+00 1.000000e+00 0.000000e+00
    outer loop
        vertex 1.869410e+01 1.550000e+01 8.629628e+00
        vertex 1.670590e+01 1.550000e+01 1.842963e+01
        vertex 1.800000e+01 1.550000e+01 1.860000e+01
    endloop
endfacet
facet normal 0.000000e+00 1.000000e+00 -0.000000e+00
    outer loop
        vertex 1.869410e+01 1.550000e+01 8.629628e+00
        vertex 1.800000e+01 1.550000e+01 1.860000e+01
        vertex 2.750000e+01 1.550000e+01 1.860000e+01
    endloop
endfacet
facet normal 0.000000e+00 1.000000e+00 -0.000000e+00
    outer loop
        vertex 1.990000e+01 1.550000e+01 8.130126e+00
        vertex 1.869410e+01 1.550000e+01 8.629628e+00
        vertex 2.750000e+01 1.550000e+01 1.860000e+01
    endloop
endfacet
facet normal 0.000000e+00 1.000000e+00 -0.000000e+00
    outer loop
        vertex 2.093553e+01 1.550000e+01 7.335534e+00
        vertex 1.990000e+01 1.550000e+01 8.130126e+00
        vertex 2.750000e+01 1.550000e+01 1.860000e+01
    endloop
endfacet
facet normal 0.000000e+00 1.000000e+00 -0.000000e+00
    outer loop
        vertex 2.173013e+01 1.550000e+01 6.300000e+00
        vertex 2.093553e+01 1.550000e+01 7.335534e+00
        vertex 2.750000e+01 1.550000e+01 1.860000e+01
    endloop
endfacet
facet normal 0.000000e+00 1.000000e+00 0.000000e+00
    outer loop
        vertex 2.173013e+01 1.550000e+01 6.300000e+00
        vertex 2.750000e+01 1.550000e+01 1.860000e+01
        vertex 2.879410e+01 1.550000e+01 1.842963e+01
    endloop
endfacet
facet normal 0.000000e+00 1.000000e+00 0.000000e+00
    outer loop
        vertex 2.173013e+01 1.550000e+01 6.300000e+00
        vertex 2.879410e+01 1.550000e+01 1.842963e+01
        vertex 3.000000e+01 1.550000e+01 1.793013e+01
    endloop
endfacet
facet normal 0.000000e+00 1.000000e+00 0.000000e+00
    outer loop
        vertex 2.173013e+01 1.550000e+01 6.300000e+00
        vertex 3.000000e+01 1.550000e+01 1.793013e+01
        vertex 3.103553e+01 1.550000e+01 1.713553e+01
    endloop
endfacet
facet normal 0.000000e+00 1.000000e+00 0.000000e+00
    outer loop
        vertex 2.173013e+01 1.550000e+01 6.300000e+00
        vertex 3.103553e+01 1.550000e+01 1.713553e+01
        vertex 3.183013e+01 1.550000e+01 1.610000e+01
    endloop
endfacet
facet normal 0.000000e+00 1.000000e+00 0.000000e+00
    outer loop
        vertex 2.173013e+01 1.550000e+01 6.300000e+00
        vertex 3.183013e+01 1.550000e+01 1.610000e+01
        vertex 3.232963e+01 1.550000e+01 1.489410e+01
    endloop
endfacet
facet normal 0.000000e+00 1.000000e+00 -0.000000e+00
    outer loop
        vertex 2.222963e+01 1.550000e+01 5.094095e+00
        vertex 2.173013e+01 1.550000e+01 6.300000e+00
        vertex 3.232963e+01 1.550000e+01 1.489410e+01
    endloop
endfacet
facet normal 0.000000e+00 1.000000e+00 -0.000000e+00
    outer loop
        vertex 2.250000e+01 1.550000e+01 3.400000e+00
        vertex 2.222963e+01 1.550000e+01 5.094095e+00
        vertex 3.232963e+01 1.550000e+01 1.489410e+01
    endloop
endfacet
facet normal 0.000000e+00 1.000000e+00 -0.000000e+00
    outer loop
        vertex 2.750000e+01 1.550000e+01 -1.650000e+01
        vertex 2.250000e+01 1.550000e+01 3.400000e+00
        vertex 3.232963e+01 1.550000e+01 1.489410e+01
    endloop
endfacet
facet normal 0.000000e+00 1.000000e+00 0.000000e+00
    outer loop
        vertex 2.750000e+01 1.550000e+01 -1.650000e+01
        vertex 3.000000e+01 1.550000e+01 -1.583013e+01
        vertex 2.879410e+01 1.550000e+01 -1.632963e+01
    endloop
endfacet
facet normal 0.000000e+00 1.000000e+00 0.000000e+00
    outer loop
        vertex 2.750000e+01 1.550000e+01 -1.650000e+01
        vertex 3.103553e+01 1.550000e+01 -1.503553e+01
        vertex 3.000000e+01 1.550000e+01 -1.583013e+01
    endloop
endfacet
facet normal 0.000000e+00 1.000000e+00 0.000000e+00
    outer loop
        vertex 2.750000e+01 1.550000e+01 -1.650000e+01
        vertex 3.183013e+01 1.550000e+01 -1.400000e+01
        vertex 3.103553e+01 1.550000e+01 -1.503553e+01
    endloop
endfacet
facet normal 0.000000e+00 1.000000e+00 0.000000e+00
    outer loop
        vertex 2.750000e+01 1.550000e+01 -1.650000e+01
        vertex 3.232963e+01 1.550000e+01 -1.279410e+01
        vertex 3.183013e+01 1.550000e+01 -1.400000e+01
    endloop
endfacet
facet normal 0.000000e+00 1.000000e+00 0.000000e+00
    outer loop
        vertex 2.750000e+01 1.550000e+01 -1.650000e+01
        vertex 3.250000e+01 1.550000e+01 -1.150000e+01
        vertex 3.232963e+01 1.550000e+01 -1.279410e+01
    endloop
endfacet
facet normal 0.000000e+00 1.000000e+00 0.000000e+00
    outer loop
        vertex 2.750000e+01 1.550000e+01 -1.650000e+01
        vertex 3.250000e+01 1.550000e+01 1.360000e+01
        vertex 3.250000e+01 1.550000e+01 -1.150000e+01
    endloop
endfacet
facet normal 0.000000e+00 1.000000e+00 0.000000e+00
    outer loop
        vertex 2.750000e+01 1.550000e+01 -1.650000e+01
        vertex 3.232963e+01 1.550000e+01 1.489410e+01
        vertex 3.250000e+01 1.550000e+01 1.360000e+01
    endloop
endfacet
facet normal 1.305254e-01 0.000000e+00 9.914449e-01
    outer loop
        vertex 1.862117e+01 -1.380000e+01 1.591822e+01
        vertex 1.800000e+01 1.250000e+01 1.600000e+01
        vertex 1.800000e+01 -1.380000e+01 1.600000e+01
    endloop
endfacet
facet normal 1.305254e-01 -0.000000e+00 9.914449e-01
    outer loop
        vertex 1.862117e+01 -1.380000e+01 1.591822e+01
        vertex 1.862117e+01 1.250000e+01 1.591822e+01
        vertex 1.800000e+01 1.250000e+01 1.600000e+01
    endloop
endfacet
facet normal 3.826838e-01 0.000000e+00 9.238794e-01
    outer loop
        vertex 1.920000e+01 -1.380000e+01 1.567846e+01
        vertex 1.862117e+01 1.250000e+01 1.591822e+01
        vertex 1.862117e+01 -1.380000e+01 1.591822e+01
    endloop
endfacet
facet normal 3.826838e-01 -0.000000e+00 9.238794e-01
    outer loop
        vertex 1.920000e+01 -1.380000e+01 1.567846e+01
        vertex 1.920000e+01 1.250000e+01 1.567846e+01
        vertex 1.862117e+01 1.250000e+01 1.591822e+01
    endloop
endfacet
facet normal 6.087626e-01 0.000000e+00 7.933525e-01
    outer loop
        vertex 1.969706e+01 -1.380000e+01 1.529706e+01
        vertex 1.920000e+01 1.250000e+01 1.567846e+01
        vertex 1.920000e+01 -1.380000e+01 1.567846e+01
    endloop
endfacet
facet normal 6.087626e-01 -0.000000e+00 7.933525e-01
    outer loop
        vertex 1.969706e+01 -1.380000e+01 1.529706e+01
        vertex 1.969706e+01 1.250000e+01 1.529706e+01
        vertex 1.920000e+01 1.250000e+01 1.567846e+01
    endloop
endfacet
facet normal 7.933530e-01 0.000000e+00 6.087618e-01
    outer loop
        vertex 2.007846e+01 -1.380000e+01 1.480000e+01
        vertex 1.969706e+01 1.250000e+01 1.529706e+01
        vertex 1.969706e+01 -1.380000e+01 1.529706e+01
    endloop
endfacet
facet normal 7.933530e-01 -0.000000e+00 6.087618e-01
    outer loop
        vertex 2.007846e+01 -1.380000e+01 1.480000e+01
        vertex 2.007846e+01 1.250000e+01 1.480000e+01
        vertex 1.969706e+01 1.250000e+01 1.529706e+01
    endloop
endfacet
facet normal 9.238794e-01 0.000000e+00 3.826838e-01
    outer loop
        vertex 2.031822e+01 -1.380000e+01 1.422117e+01
        vertex 2.007846e+01 1.250000e+01 1.480000e+01
        vertex 2.007846e+01 -1.380000e+01 1.480000e+01
    endloop
endfacet
facet normal 9.238794e-01 -0.000000e+00 3.826838e-01
    outer loop
        vertex 2.031822e+01 -1.380000e+01 1.422117e+01
        vertex 2.031822e+01 1.250000e+01 1.422117e+01
        vertex 2.007846e+01 1.250000e+01 1.480000e+01
    endloop
endfacet
facet normal 9.914449e-01 0.000000e+00 1.305256e-01
    outer loop
        vertex 2.040000e+01 -1.380000e+01 1.360000e+01
        vertex 2.031822e+01 1.250000e+01 1.422117e+01
        vertex 2.031822e+01 -1.380000e+01 1.422117e+01
    endloop
endfacet
facet normal 9.914449e-01 -0.000000e+00 1.305256e-01
    outer loop
        vertex 2.040000e+01 -1.380000e+01 1.360000e+01
        vertex 2.040000e+01 1.250000e+01 1.360000e+01
        vertex 2.031822e+01 1.250000e+01 1.422117e+01
    endloop
endfacet
facet normal 9.914449e-01 0.000000e+00 -1.305254e-01
    outer loop
        vertex 2.031822e+01 -1.380000e+01 1.297883e+01
        vertex 2.040000e+01 1.250000e+01 1.360000e+01
        vertex 2.040000e+01 -1.380000e+01 1.360000e+01
    endloop
endfacet
facet normal 9.914449e-01 0.000000e+00 -1.305254e-01
    outer loop
        vertex 2.031822e+01 -1.380000e+01 1.297883e+01
        vertex 2.031822e+01 1.250000e+01 1.297883e+01
        vertex 2.040000e+01 1.250000e+01 1.360000e+01
    endloop
endfacet
facet normal 9.238794e-01 0.000000e+00 -3.826838e-01
    outer loop
        vertex 2.007846e+01 -1.380000e+01 1.240000e+01
        vertex 2.031822e+01 1.250000e+01 1.297883e+01
        vertex 2.031822e+01 -1.380000e+01 1.297883e+01
    endloop
endfacet
facet normal 9.238794e-01 0.000000e+00 -3.826838e-01
    outer loop
        vertex 2.007846e+01 -1.380000e+01 1.240000e+01
        vertex 2.007846e+01 1.250000e+01 1.240000e+01
        vertex 2.031822e+01 1.250000e+01 1.297883e+01
    endloop
endfacet
facet normal 7.933530e-01 0.000000e+00 -6.087618e-01
    outer loop
        vertex 1.969706e+01 -1.380000e+01 1.190294e+01
        vertex 2.007846e+01 1.250000e+01 1.240000e+01
        vertex 2.007846e+01 -1.380000e+01 1.240000e+01
    endloop
endfacet
facet normal 7.933530e-01 0.000000e+00 -6.087618e-01
    outer loop
        vertex 1.969706e+01 -1.380000e+01 1.190294e+01
        vertex 1.969706e+01 1.250000e+01 1.190294e+01
        vertex 2.007846e+01 1.250000e+01 1.240000e+01
    endloop
endfacet
facet normal 6.087626e-01 0.000000e+00 -7.933525e-01
    outer loop
        vertex 1.920000e+01 -1.380000e+01 1.152154e+01
        vertex 1.969706e+01 1.250000e+01 1.190294e+01
        vertex 1.969706e+01 -1.380000e+01 1.190294e+01
    endloop
endfacet
facet normal 6.087626e-01 0.000000e+00 -7.933525e-01
    outer loop
        vertex 1.920000e+01 -1.380000e+01 1.152154e+01
        vertex 1.920000e+01 1.250000e+01 1.152154e+01
        vertex 1.969706e+01 1.250000e+01 1.190294e+01
    endloop
endfacet
facet normal 3.826825e-01 0.000000e+00 -9.238799e-01
    outer loop
        vertex 1.862117e+01 -1.380000e+01 1.128178e+01
        vertex 1.920000e+01 1.250000e+01 1.152154e+01
        vertex 1.920000e+01 -1.380000e+01 1.152154e+01
    endloop
endfacet
facet normal 3.826825e-01 0.000000e+00 -9.238799e-01
    outer loop
        vertex 1.862117e+01 -1.380000e+01 1.128178e+01
        vertex 1.862117e+01 1.250000e+01 1.128178e+01
        vertex 1.920000e+01 1.250000e+01 1.152154e+01
    endloop
endfacet
facet normal 1.305269e-01 0.000000e+00 -9.914448e-01
    outer loop
        vertex 1.800000e+01 -1.380000e+01 1.120000e+01
        vertex 1.862117e+01 1.250000e+01 1.128178e+01
        vertex 1.862117e+01 -1.380000e+01 1.128178e+01
    endloop
endfacet
facet normal 1.305269e-01 0.000000e+00 -9.914448e-01
    outer loop
        vertex 1.800000e+01 -1.380000e+01 1.120000e+01
        vertex 1.800000e+01 1.250000e+01 1.120000e+01
        vertex 1.862117e+01 1.250000e+01 1.128178e+01
    endloop
endfacet
facet normal -1.305269e-01 0.000000e+00 -9.914448e-01
    outer loop
        vertex 1.800000e+01 -1.380000e+01 1.120000e+01
        vertex 1.737883e+01 -1.380000e+01 1.128178e+01
        vertex 1.800000e+01 1.250000e+01 1.120000e+01
    endloop
endfacet
facet normal -1.305269e-01 0.000000e+00 -9.914448e-01
    outer loop
        vertex 1.737883e+01 -1.380000e+01 1.128178e+01
        vertex 1.737883e+01 1.250000e+01 1.128178e+01
        vertex 1.800000e+01 1.250000e+01 1.120000e+01
    endloop
endfacet
facet normal -3.826825e-01 0.000000e+00 -9.238799e-01
    outer loop
        vertex 1.737883e+01 -1.380000e+01 1.128178e+01
        vertex 1.680000e+01 -1.380000e+01 1.152154e+01
        vertex 1.737883e+01 1.250000e+01 1.128178e+01
    endloop
endfacet
facet normal -3.826825e-01 0.000000e+00 -9.238799e-01
    outer loop
        vertex 1.680000e+01 -1.380000e+01 1.152154e+01
        vertex 1.680000e+01 1.250000e+01 1.152154e+01
        vertex 1.737883e+01 1.250000e+01 1.128178e+01
    endloop
endfacet
facet normal -6.087626e-01 0.000000e+00 -7.933525e-01
    outer loop
        vertex 1.680000e+01 -1.380000e+01 1.152154e+01
        vertex 1.630294e+01 -1.380000e+01 1.190294e+01
        vertex 1.680000e+01 1.250000e+01 1.152154e+01
    endloop
endfacet
facet normal -6.087626e-01 0.000000e+00 -7.933525e-01
    outer loop
        vertex 1.630294e+01 -1.380000e+01 1.190294e+01
        vertex 1.630294e+01 1.250000e+01 1.190294e+01
        vertex 1.680000e+01 1.250000e+01 1.152154e+01
    endloop
endfacet
facet normal -7.933530e-01 0.000000e+00 -6.087618e-01
    outer loop
        vertex 1.630294e+01 -1.380000e+01 1.190294e+01
        vertex 1.592154e+01 -1.380000e+01 1.240000e+01
        vertex 1.630294e+01 1.250000e+01 1.190294e+01
    endloop
endfacet
facet normal -7.933530e-01 0.000000e+00 -6.087618e-01
    outer loop
        vertex 1.592154e+01 -1.380000e+01 1.240000e+01
        vertex 1.592154e+01 1.250000e+01 1.240000e+01
        vertex 1.630294e+01 1.250000e+01 1.190294e+01
    endloop
endfacet
facet normal -9.238794e-01 0.000000e+00 -3.826838e-01
    outer loop
        vertex 1.592154e+01 -1.380000e+01 1.240000e+01
        vertex 1.568178e+01 -1.380000e+01 1.297883e+01
        vertex 1.592154e+01 1.250000e+01 1.240000e+01
    endloop
endfacet
facet normal -9.238794e-01 0.000000e+00 -3.826838e-01
    outer loop
        vertex 1.568178e+01 -1.380000e+01 1.297883e+01
        vertex 1.568178e+01 1.250000e+01 1.297883e+01
        vertex 1.592154e+01 1.250000e+01 1.240000e+01
    endloop
endfacet
facet normal -9.914449e-01 0.000000e+00 -1.305254e-01
    outer loop
        vertex 1.568178e+01 -1.380000e+01 1.297883e+01
        vertex 1.560000e+01 -1.380000e+01 1.360000e+01
        vertex 1.568178e+01 1.250000e+01 1.297883e+01
    endloop
endfacet
facet normal -9.914449e-01 0.000000e+00 -1.305254e-01
    outer loop
        vertex 1.560000e+01 -1.380000e+01 1.360000e+01
        vertex 1.560000e+01 1.250000e+01 1.360000e+01
        vertex 1.568178e+01 1.250000e+01 1.297883e+01
    endloop
endfacet
facet normal -9.914449e-01 0.000000e+00 1.305256e-01
    outer loop
        vertex 1.560000e+01 -1.380000e+01 1.360000e+01
        vertex 1.568178e+01 -1.380000e+01 1.422117e+01
        vertex 1.560000e+01 1.250000e+01 1.360000e+01
    endloop
endfacet
facet normal -9.914449e-01 0.000000e+00 1.305256e-01
    outer loop
        vertex 1.568178e+01 -1.380000e+01 1.422117e+01
        vertex 1.568178e+01 1.250000e+01 1.422117e+01
        vertex 1.560000e+01 1.250000e+01 1.360000e+01
    endloop
endfacet
facet normal -9.238794e-01 0.000000e+00 3.826838e-01
    outer loop
        vertex 1.568178e+01 -1.380000e+01 1.422117e+01
        vertex 1.592154e+01 -1.380000e+01 1.480000e+01
        vertex 1.568178e+01 1.250000e+01 1.422117e+01
    endloop
endfacet
facet normal -9.238794e-01 0.000000e+00 3.826838e-01
    outer loop
        vertex 1.592154e+01 -1.380000e+01 1.480000e+01
        vertex 1.592154e+01 1.250000e+01 1.480000e+01
        vertex 1.568178e+01 1.250000e+01 1.422117e+01
    endloop
endfacet
facet normal -7.933530e-01 0.000000e+00 6.087618e-01
    outer loop
        vertex 1.592154e+01 -1.380000e+01 1.480000e+01
        vertex 1.630294e+01 -1.380000e+01 1.529706e+01
        vertex 1.592154e+01 1.250000e+01 1.480000e+01
    endloop
endfacet
facet normal -7.933530e-01 0.000000e+00 6.087618e-01
    outer loop
        vertex 1.630294e+01 -1.380000e+01 1.529706e+01
        vertex 1.630294e+01 1.250000e+01 1.529706e+01
        vertex 1.592154e+01 1.250000e+01 1.480000e+01
    endloop
endfacet
facet normal -6.087626e-01 0.000000e+00 7.933525e-01
    outer loop
        vertex 1.630294e+01 -1.380000e+01 1.529706e+01
        vertex 1.680000e+01 -1.380000e+01 1.567846e+01
        vertex 1.630294e+01 1.250000e+01 1.529706e+01
    endloop
endfacet
facet normal -6.087626e-01 0.000000e+00 7.933525e-01
    outer loop
        vertex 1.680000e+01 -1.380000e+01 1.567846e+01
        vertex 1.680000e+01 1.250000e+01 1.567846e+01
        vertex 1.630294e+01 1.250000e+01 1.529706e+01
    endloop
endfacet
facet normal -3.826838e-01 0.000000e+00 9.238794e-01
    outer loop
        vertex 1.680000e+01 -1.380000e+01 1.567846e+01
        vertex 1.737883e+01 -1.380000e+01 1.591822e+01
        vertex 1.680000e+01 1.250000e+01 1.567846e+01
    endloop
endfacet
facet normal -3.826838e-01 0.000000e+00 9.238794e-01
    outer loop
        vertex 1.737883e+01 -1.380000e+01 1.591822e+01
        vertex 1.737883e+01 1.250000e+01 1.591822e+01
        vertex 1.680000e+01 1.250000e+01 1.567846e+01
    endloop
endfacet
facet normal -1.305254e-01 0.000000e+00 9.914449e-01
    outer loop
        vertex 1.737883e+01 -1.380000e+01 1.591822e+01
        vertex 1.800000e+01 -1.380000e+01 1.600000e+01
        vertex 1.737883e+01 1.250000e+01 1.591822e+01
    endloop
endfacet
facet normal -1.305254e-01 0.000000e+00 9.914449e-01
    outer loop
        vertex 1.800000e+01 -1.380000e+01 1.600000e+01
        vertex 1.800000e+01 1.250000e+01 1.600000e+01
        vertex 1.737883e+01 1.250000e+01 1.591822e+01
    endloop
endfacet
facet normal 0.000000e+00 -1.000000e+00 0.000000e+00
    outer loop
        vertex 2.750000e+01 1.250000e+01 -1.650000e+01
        vertex 2.750000e+01 1.250000e+01 -1.400000e+01
        vertex 2.525000e+01 1.250000e+01 -1.400000e+01
    endloop
endfacet
facet normal 0.000000e+00 -1.000000e+00 0.000000e+00
    outer loop
        vertex 2.250000e+01 1.250000e+01 -1.650000e+01
        vertex 2.750000e+01 1.250000e+01 -1.650000e+01
        vertex 2.525000e+01 1.250000e+01 -1.400000e+01
    endloop
endfacet
facet normal 0.000000e+00 -1.000000e+00 0.000000e+00
    outer loop
        vertex 2.750000e+01 1.250000e+01 -1.650000e+01
        vertex 2.879410e+01 1.250000e+01 -1.632963e+01
        vertex 2.750000e+01 1.250000e+01 -1.400000e+01
    endloop
endfacet
facet normal 0.000000e+00 -1.000000e+00 0.000000e+00
    outer loop
        vertex 1.680000e+01 1.250000e+01 1.567846e+01
        vertex 1.670590e+01 1.250000e+01 1.842963e+01
        vertex 1.550000e+01 1.250000e+01 1.793013e+01
    endloop
endfacet
facet normal 0.000000e+00 -1.000000e+00 0.000000e+00
    outer loop
        vertex 1.680000e+01 1.250000e+01 1.567846e+01
        vertex 1.550000e+01 1.250000e+01 1.793013e+01
        vertex 1.446447e+01 1.250000e+01 1.713553e+01
    endloop
endfacet
facet normal 0.000000e+00 -1.000000e+00 0.000000e+00
    outer loop
        vertex 2.879410e+01 1.250000e+01 -1.632963e+01
        vertex 3.000000e+01 1.250000e+01 -1.583013e+01
        vertex 2.750000e+01 1.250000e+01 -1.400000e+01
    endloop
endfacet
facet normal 0.000000e+00 -1.000000e+00 0.000000e+00
    outer loop
        vertex 1.680000e+01 1.250000e+01 1.567846e+01
        vertex 1.800000e+01 1.250000e+01 1.860000e+01
        vertex 1.670590e+01 1.250000e+01 1.842963e+01
    endloop
endfacet
facet normal 0.000000e+00 -1.000000e+00 0.000000e+00
    outer loop
        vertex 1.680000e+01 1.250000e+01 1.567846e+01
        vertex 1.446447e+01 1.250000e+01 1.713553e+01
        vertex 1.366987e+01 1.250000e+01 1.610000e+01
    endloop
endfacet
facet normal 0.000000e+00 -1.000000e+00 0.000000e+00
    outer loop
        vertex 1.317037e+01 1.250000e+01 1.489410e+01
        vertex 1.680000e+01 1.250000e+01 1.567846e+01
        vertex 1.366987e+01 1.250000e+01 1.610000e+01
    endloop
endfacet
facet normal 0.000000e+00 -1.000000e+00 0.000000e+00
    outer loop
        vertex 3.000000e+01 1.250000e+01 -1.583013e+01
        vertex 3.103553e+01 1.250000e+01 -1.503553e+01
        vertex 2.750000e+01 1.250000e+01 -1.400000e+01
    endloop
endfacet
facet normal 0.000000e+00 -1.000000e+00 0.000000e+00
    outer loop
        vertex 3.103553e+01 1.250000e+01 -1.503553e+01
        vertex 2.750000e+01 1.250000e+01 -1.000000e+01
        vertex 2.750000e+01 1.250000e+01 -1.400000e+01
    endloop
endfacet
facet normal 0.000000e+00 -1.000000e+00 0.000000e+00
    outer loop
        vertex 2.250000e+01 1.250000e+01 -1.650000e+01
        vertex 2.525000e+01 1.250000e+01 -1.400000e+01
        vertex 2.525000e+01 1.250000e+01 -1.000000e+01
    endloop
endfacet
facet normal 0.000000e+00 -1.000000e+00 0.000000e+00
    outer loop
        vertex 1.300000e+01 1.250000e+01 1.360000e+01
        vertex 1.680000e+01 1.250000e+01 1.567846e+01
        vertex 1.317037e+01 1.250000e+01 1.489410e+01
    endloop
endfacet
facet normal 0.000000e+00 -1.000000e+00 0.000000e+00
    outer loop
        vertex 3.103553e+01 1.250000e+01 -1.503553e+01
        vertex 3.183013e+01 1.250000e+01 -1.400000e+01
        vertex 2.750000e+01 1.250000e+01 -1.000000e+01
    endloop
endfacet
facet normal 0.000000e+00 -1.000000e+00 0.000000e+00
    outer loop
        vertex 3.183013e+01 1.250000e+01 -1.400000e+01
        vertex 3.232963e+01 1.250000e+01 -1.279410e+01
        vertex 2.750000e+01 1.250000e+01 -1.000000e+01
    endloop
endfacet
facet normal 0.000000e+00 -1.000000e+00 0.000000e+00
    outer loop
        vertex 3.232963e+01 1.250000e+01 -1.279410e+01
        vertex 3.250000e+01 1.250000e+01 -1.150000e+01
        vertex 2.750000e+01 1.250000e+01 -1.000000e+01
    endloop
endfacet
facet normal 0.000000e+00 -1.000000e+00 0.000000e+00
    outer loop
        vertex 3.250000e+01 1.250000e+01 -1.150000e+01
        vertex 3.250000e+01 1.250000e+01 1.360000e+01
        vertex 2.750000e+01 1.250000e+01 -1.000000e+01
    endloop
endfacet
facet normal 0.000000e+00 -1.000000e+00 0.000000e+00
    outer loop
        vertex 2.250000e+01 1.250000e+01 -1.650000e+01
        vertex 2.525000e+01 1.250000e+01 -1.000000e+01
        vertex 2.250000e+01 1.250000e+01 3.400000e+00
    endloop
endfacet
facet normal 0.000000e+00 -1.000000e+00 0.000000e+00
    outer loop
        vertex 1.680000e+01 1.250000e+01 1.567846e+01
        vertex 1.737883e+01 1.250000e+01 1.591822e+01
        vertex 1.800000e+01 1.250000e+01 1.860000e+01
    endloop
endfacet
facet normal 0.000000e+00 -1.000000e+00 0.000000e+00
    outer loop
        vertex 1.737883e+01 1.250000e+01 1.591822e+01
        vertex 2.750000e+01 1.250000e+01 1.860000e+01
        vertex 1.800000e+01 1.250000e+01 1.860000e+01
    endloop
endfacet
facet normal 0.000000e+00 -1.000000e+00 0.000000e+00
    outer loop
        vertex 2.525000e+01 1.250000e+01 -1.000000e+01
        vertex 2.750000e+01 1.250000e+01 -1.000000e+01
        vertex 2.250000e+01 1.250000e+01 3.400000e+00
    endloop
endfacet
facet normal 0.000000e+00 -1.000000e+00 0.000000e+00
    outer loop
        vertex 2.750000e+01 1.250000e+01 -1.000000e+01
        vertex 3.250000e+01 1.250000e+01 1.360000e+01
        vertex 2.250000e+01 1.250000e+01 3.400000e+00
    endloop
endfacet
facet normal 0.000000e+00 -1.000000e+00 0.000000e+00
    outer loop
        vertex 2.250000e+01 1.250000e+01 3.400000e+00
        vertex 3.250000e+01 1.250000e+01 1.360000e+01
        vertex 2.222963e+01 1.250000e+01 5.094095e+00
    endloop
endfacet
facet normal 0.000000e+00 -1.000000e+00 0.000000e+00
    outer loop
        vertex 1.869410e+01 1.250000e+01 8.629628e+00
        vertex 1.550000e+01 1.250000e+01 9.269873e+00
        vertex 1.670590e+01 1.250000e+01 8.770370e+00
    endloop
endfacet
facet normal 0.000000e+00 -1.000000e+00 0.000000e+00
    outer loop
        vertex 1.869410e+01 1.250000e+01 8.629628e+00
        vertex 1.446447e+01 1.250000e+01 1.006447e+01
        vertex 1.550000e+01 1.250000e+01 9.269873e+00
    endloop
endfacet
facet normal 0.000000e+00 -1.000000e+00 0.000000e+00
    outer loop
        vertex 1.869410e+01 1.250000e+01 8.629628e+00
        vertex 1.366987e+01 1.250000e+01 1.110000e+01
        vertex 1.446447e+01 1.250000e+01 1.006447e+01
    endloop
endfacet
facet normal 0.000000e+00 -1.000000e+00 0.000000e+00
    outer loop
        vertex 1.869410e+01 1.250000e+01 8.629628e+00
        vertex 1.317037e+01 1.250000e+01 1.230590e+01
        vertex 1.366987e+01 1.250000e+01 1.110000e+01
    endloop
endfacet
facet normal 0.000000e+00 -1.000000e+00 0.000000e+00
    outer loop
        vertex 1.869410e+01 1.250000e+01 8.629628e+00
        vertex 1.300000e+01 1.250000e+01 1.360000e+01
        vertex 1.317037e+01 1.250000e+01 1.230590e+01
    endloop
endfacet
facet normal 0.000000e+00 -1.000000e+00 0.000000e+00
    outer loop
        vertex 2.222963e+01 1.250000e+01 5.094095e+00
        vertex 3.250000e+01 1.250000e+01 1.360000e+01
        vertex 2.173013e+01 1.250000e+01 6.300000e+00
    endloop
endfacet
facet normal 0.000000e+00 -1.000000e+00 0.000000e+00
    outer loop
        vertex 2.173013e+01 1.250000e+01 6.300000e+00
        vertex 3.250000e+01 1.250000e+01 1.360000e+01
        vertex 2.093553e+01 1.250000e+01 7.335534e+00
    endloop
endfacet
facet normal 0.000000e+00 -1.000000e+00 0.000000e+00
    outer loop
        vertex 2.093553e+01 1.250000e+01 7.335534e+00
        vertex 3.250000e+01 1.250000e+01 1.360000e+01
        vertex 3.232963e+01 1.250000e+01 1.489410e+01
    endloop
endfacet
facet normal 0.000000e+00 -1.000000e+00 0.000000e+00
    outer loop
        vertex 2.093553e+01 1.250000e+01 7.335534e+00
        vertex 3.232963e+01 1.250000e+01 1.489410e+01
        vertex 3.183013e+01 1.250000e+01 1.610000e+01
    endloop
endfacet
facet normal 0.000000e+00 -1.000000e+00 0.000000e+00
    outer loop
        vertex 2.093553e+01 1.250000e+01 7.335534e+00
        vertex 3.183013e+01 1.250000e+01 1.610000e+01
        vertex 3.103553e+01 1.250000e+01 1.713553e+01
    endloop
endfacet
facet normal 0.000000e+00 -1.000000e+00 0.000000e+00
    outer loop
        vertex 2.093553e+01 1.250000e+01 7.335534e+00
        vertex 3.103553e+01 1.250000e+01 1.713553e+01
        vertex 3.000000e+01 1.250000e+01 1.793013e+01
    endloop
endfacet
facet normal 0.000000e+00 -1.000000e+00 0.000000e+00
    outer loop
        vertex 2.093553e+01 1.250000e+01 7.335534e+00
        vertex 3.000000e+01 1.250000e+01 1.793013e+01
        vertex 1.990000e+01 1.250000e+01 8.130126e+00
    endloop
endfacet
facet normal 0.000000e+00 -1.000000e+00 0.000000e+00
    outer loop
        vertex 1.990000e+01 1.250000e+01 8.130126e+00
        vertex 3.000000e+01 1.250000e+01 1.793013e+01
        vertex 2.879410e+01 1.250000e+01 1.842963e+01
    endloop
endfacet
facet normal 0.000000e+00 -1.000000e+00 0.000000e+00
    outer loop
        vertex 1.990000e+01 1.250000e+01 8.130126e+00
        vertex 2.879410e+01 1.250000e+01 1.842963e+01
        vertex 1.869410e+01 1.250000e+01 8.629628e+00
    endloop
endfacet
facet normal 0.000000e+00 -1.000000e+00 0.000000e+00
    outer loop
        vertex 1.869410e+01 1.250000e+01 8.629628e+00
        vertex 2.879410e+01 1.250000e+01 1.842963e+01
        vertex 2.750000e+01 1.250000e+01 1.860000e+01
    endloop
endfacet
facet normal 0.000000e+00 -1.000000e+00 0.000000e+00
    outer loop
        vertex 1.300000e+01 1.250000e+01 1.360000e+01
        vertex 1.630294e+01 1.250000e+01 1.529706e+01
        vertex 1.680000e+01 1.250000e+01 1.567846e+01
    endloop
endfacet
facet normal 0.000000e+00 -1.000000e+00 0.000000e+00
    outer loop
        vertex 1.300000e+01 1.250000e+01 1.360000e+01
        vertex 1.592154e+01 1.250000e+01 1.480000e+01
        vertex 1.630294e+01 1.250000e+01 1.529706e+01
    endloop
endfacet
facet normal 0.000000e+00 -1.000000e+00 0.000000e+00
    outer loop
        vertex 1.300000e+01 1.250000e+01 1.360000e+01
        vertex 1.568178e+01 1.250000e+01 1.422117e+01
        vertex 1.592154e+01 1.250000e+01 1.480000e+01
    endloop
endfacet
facet normal 0.000000e+00 -1.000000e+00 0.000000e+00
    outer loop
        vertex 1.300000e+01 1.250000e+01 1.360000e+01
        vertex 1.560000e+01 1.250000e+01 1.360000e+01
        vertex 1.568178e+01 1.250000e+01 1.422117e+01
    endloop
endfacet
facet normal 0.000000e+00 -1.000000e+00 0.000000e+00
    outer loop
        vertex 1.568178e+01 1.250000e+01 1.297883e+01
        vertex 1.560000e+01 1.250000e+01 1.360000e+01
        vertex 1.300000e+01 1.250000e+01 1.360000e+01
    endloop
endfacet
facet normal 0.000000e+00 -1.000000e+00 0.000000e+00
    outer loop
        vertex 1.592154e+01 1.250000e+01 1.240000e+01
        vertex 1.568178e+01 1.250000e+01 1.297883e+01
        vertex 1.300000e+01 1.250000e+01 1.360000e+01
    endloop
endfacet
facet normal 0.000000e+00 -1.000000e+00 0.000000e+00
    outer loop
        vertex 1.869410e+01 1.250000e+01 8.629628e+00
        vertex 1.592154e+01 1.250000e+01 1.240000e+01
        vertex 1.300000e+01 1.250000e+01 1.360000e+01
    endloop
endfacet
facet normal 0.000000e+00 -1.000000e+00 0.000000e+00
    outer loop
        vertex 1.737883e+01 1.250000e+01 1.591822e+01
        vertex 1.800000e+01 1.250000e+01 1.600000e+01
        vertex 2.750000e+01 1.250000e+01 1.860000e+01
    endloop
endfacet
facet normal 0.000000e+00 -1.000000e+00 0.000000e+00
    outer loop
        vertex 1.862117e+01 1.250000e+01 1.591822e+01
        vertex 2.750000e+01 1.250000e+01 1.860000e+01
        vertex 1.800000e+01 1.250000e+01 1.600000e+01
    endloop
endfacet
facet normal 0.000000e+00 -1.000000e+00 0.000000e+00
    outer loop
        vertex 1.920000e+01 1.250000e+01 1.567846e+01
        vertex 2.750000e+01 1.250000e+01 1.860000e+01
        vertex 1.862117e+01 1.250000e+01 1.591822e+01
    endloop
endfacet
facet normal 0.000000e+00 -1.000000e+00 0.000000e+00
    outer loop
        vertex 1.969706e+01 1.250000e+01 1.529706e+01
        vertex 2.750000e+01 1.250000e+01 1.860000e+01
        vertex 1.920000e+01 1.250000e+01 1.567846e+01
    endloop
endfacet
facet normal 0.000000e+00 -1.000000e+00 0.000000e+00
    outer loop
        vertex 2.007846e+01 1.250000e+01 1.480000e+01
        vertex 2.750000e+01 1.250000e+01 1.860000e+01
        vertex 1.969706e+01 1.250000e+01 1.529706e+01
    endloop
endfacet
facet normal 0.000000e+00 -1.000000e+00 0.000000e+00
    outer loop
        vertex 2.031822e+01 1.250000e+01 1.422117e+01
        vertex 2.750000e+01 1.250000e+01 1.860000e+01
        vertex 2.007846e+01 1.250000e+01 1.480000e+01
    endloop
endfacet
facet normal 0.000000e+00 -1.000000e+00 0.000000e+00
    outer loop
        vertex 2.040000e+01 1.250000e+01 1.360000e+01
        vertex 2.750000e+01 1.250000e+01 1.860000e+01
        vertex 2.031822e+01 1.250000e+01 1.422117e+01
    endloop
endfacet
facet normal 0.000000e+00 -1.000000e+00 0.000000e+00
    outer loop
        vertex 2.031822e+01 1.250000e+01 1.297883e+01
        vertex 2.750000e+01 1.250000e+01 1.860000e+01
        vertex 2.040000e+01 1.250000e+01 1.360000e+01
    endloop
endfacet
facet normal 0.000000e+00 -1.000000e+00 0.000000e+00
    outer loop
        vertex 1.869410e+01 1.250000e+01 8.629628e+00
        vertex 2.750000e+01 1.250000e+01 1.860000e+01
        vertex 2.031822e+01 1.250000e+01 1.297883e+01
    endloop
endfacet
facet normal 0.000000e+00 -1.000000e+00 0.000000e+00
    outer loop
        vertex 1.869410e+01 1.250000e+01 8.629628e+00
        vertex 2.031822e+01 1.250000e+01 1.297883e+01
        vertex 2.007846e+01 1.250000e+01 1.240000e+01
    endloop
endfacet
facet normal 0.000000e+00 -1.000000e+00 0.000000e+00
    outer loop
        vertex 1.869410e+01 1.250000e+01 8.629628e+00
        vertex 2.007846e+01 1.250000e+01 1.240000e+01
        vertex 1.969706e+01 1.250000e+01 1.190294e+01
    endloop
endfacet
facet normal 0.000000e+00 -1.000000e+00 0.000000e+00
    outer loop
        vertex 1.869410e+01 1.250000e+01 8.629628e+00
        vertex 1.969706e+01 1.250000e+01 1.190294e+01
        vertex 1.920000e+01 1.250000e+01 1.152154e+01
    endloop
endfacet
facet normal 0.000000e+00 -1.000000e+00 0.000000e+00
    outer loop
        vertex 1.869410e+01 1.250000e+01 8.629628e+00
        vertex 1.920000e+01 1.250000e+01 1.152154e+01
        vertex 1.862117e+01 1.250000e+01 1.128178e+01
    endloop
endfacet
facet normal 0.000000e+00 -1.000000e+00 0.000000e+00
    outer loop
        vertex 1.869410e+01 1.250000e+01 8.629628e+00
        vertex 1.862117e+01 1.250000e+01 1.128178e+01
        vertex 1.800000e+01 1.250000e+01 1.120000e+01
    endloop
endfacet
facet normal 0.000000e+00 -1.000000e+00 0.000000e+00
    outer loop
        vertex 1.869410e+01 1.250000e+01 8.629628e+00
        vertex 1.800000e+01 1.250000e+01 1.120000e+01
        vertex 1.737883e+01 1.250000e+01 1.128178e+01
    endloop
endfacet
facet normal 0.000000e+00 -1.000000e+00 0.000000e+00
    outer loop
        vertex 1.869410e+01 1.250000e+01 8.629628e+00
        vertex 1.737883e+01 1.250000e+01 1.128178e+01
        vertex 1.680000e+01 1.250000e+01 1.152154e+01
    endloop
endfacet
facet normal 0.000000e+00 -1.000000e+00 0.000000e+00
    outer loop
        vertex 1.869410e+01 1.250000e+01 8.629628e+00
        vertex 1.680000e+01 1.250000e+01 1.152154e+01
        vertex 1.630294e+01 1.250000e+01 1.190294e+01
    endloop
endfacet
facet normal 0.000000e+00 -1.000000e+00 0.000000e+00
    outer loop
        vertex 1.869410e+01 1.250000e+01 8.629628e+00
        vertex 1.630294e+01 1.250000e+01 1.190294e+01
        vertex 1.592154e+01 1.250000e+01 1.240000e+01
    endloop
endfacet
facet normal 0.000000e+00 -8.479983e-01 -5.299990e-01
    outer loop
        vertex 2.525000e+01 7.500000e+00 -1.000000e+01
        vertex 2.525000e+01 1.000000e+01 -1.400000e+01
        vertex 2.750000e+01 1.000000e+01 -1.400000e+01
    endloop
endfacet
facet normal 0.000000e+00 -8.479983e-01 -5.299990e-01
    outer loop
        vertex 2.525000e+01 7.500000e+00 -1.000000e+01
        vertex 2.750000e+01 1.000000e+01 -1.400000e+01
        vertex 2.750000e+01 7.500000e+00 -1.000000e+01
    endloop
endfacet
facet normal -1.000000e+00 0.000000e+00 0.000000e+00
    outer loop
        vertex 2.525000e+01 1.000000e+01 -1.400000e+01
        vertex 2.525000e+01 1.250000e+01 -1.000000e+01
        vertex 2.525000e+01 1.250000e+01 -1.400000e+01
    endloop
endfacet
facet normal -1.000000e+00 0.000000e+00 0.000000e+00
    outer loop
        vertex 2.525000e+01 7.500000e+00 -1.000000e+01
        vertex 2.525000e+01 1.250000e+01 -1.000000e+01
        vertex 2.525000e+01 1.000000e+01 -1.400000e+01
    endloop
endfacet
facet normal 0.000000e+00 0.000000e+00 -1.000000e+00
    outer loop
        vertex 2.525000e+01 1.000000e+01 -1.400000e+01
        vertex 2.750000e+01 1.250000e+01 -1.400000e+01
        vertex 2.750000e+01 1.000000e+01 -1.400000e+01
    endloop
endfacet
facet normal 0.000000e+00 0.000000e+00 -1.000000e+00
    outer loop
        vertex 2.525000e+01 1.000000e+01 -1.400000e+01
        vertex 2.525000e+01 1.250000e+01 -1.400000e+01
        vertex 2.750000e+01 1.250000e+01 -1.400000e+01
    endloop
endfacet
facet normal 0.000000e+00 0.000000e+00 1.000000e+00
    outer loop
        vertex 2.525000e+01 7.500000e+00 -1.000000e+01
        vertex 2.750000e+01 7.500000e+00 -1.000000e+01
        vertex 2.525000e+01 1.250000e+01 -1.000000e+01
    endloop
endfacet
facet normal 0.000000e+00 -0.000000e+00 1.000000e+00
    outer loop
        vertex 2.750000e+01 7.500000e+00 -1.000000e+01
        vertex 2.750000e+01 1.250000e+01 -1.000000e+01
        vertex 2.525000e+01 1.250000e+01 -1.000000e+01
    endloop
endfacet
facet normal 1.000000e+00 -0.000000e+00 0.000000e+00
    outer loop
        vertex 2.750000e+01 7.500000e+00 -1.000000e+01
        vertex 2.750000e+01 1.000000e+01 -1.400000e+01
        vertex 2.750000e+01 1.250000e+01 -1.000000e+01
    endloop
endfacet
facet normal 1.000000e+00 0.000000e+00 0.000000e+00
    outer loop
        vertex 2.750000e+01 1.000000e+01 -1.400000e+01
        vertex 2.750000e+01 1.250000e+01 -1.400000e+01
        vertex 2.750000e+01 1.250000e+01 -1.000000e+01
    endloop
endfacet
facet normal 0.000000e+00 -1.000000e+00 0.000000e+00
    outer loop
        vertex 2.031822e+01 -1.380000e+01 1.297883e+01
        vertex 2.040000e+01 -1.380000e+01 1.360000e+01
        vertex 1.950000e+01 -1.380000e+01 1.360000e+01
    endloop
endfacet
facet normal 0.000000e+00 -1.000000e+00 0.000000e+00
    outer loop
        vertex 1.950000e+01 -1.380000e+01 1.360000e+01
        vertex 2.040000e+01 -1.380000e+01 1.360000e+01
        vertex 2.031822e+01 -1.380000e+01 1.422117e+01
    endloop
endfacet
facet normal 0.000000e+00 -1.000000e+00 0.000000e+00
    outer loop
        vertex 1.950000e+01 -1.380000e+01 1.360000e+01
        vertex 2.031822e+01 -1.380000e+01 1.422117e+01
        vertex 2.007846e+01 -1.380000e+01 1.480000e+01
    endloop
endfacet
facet normal 0.000000e+00 -1.000000e+00 0.000000e+00
    outer loop
        vertex 2.007846e+01 -1.380000e+01 1.240000e+01
        vertex 2.031822e+01 -1.380000e+01 1.297883e+01
        vertex 1.950000e+01 -1.380000e+01 1.360000e+01
    endloop
endfacet
facet normal 0.000000e+00 -1.000000e+00 0.000000e+00
    outer loop
        vertex 1.950000e+01 -1.380000e+01 1.360000e+01
        vertex 2.007846e+01 -1.380000e+01 1.480000e+01
        vertex 1.969706e+01 -1.380000e+01 1.529706e+01
    endloop
endfacet
facet normal 0.000000e+00 -1.000000e+00 0.000000e+00
    outer loop
        vertex 1.969706e+01 -1.380000e+01 1.190294e+01
        vertex 2.007846e+01 -1.380000e+01 1.240000e+01
        vertex 1.950000e+01 -1.380000e+01 1.360000e+01
    endloop
endfacet
facet normal 0.000000e+00 -1.000000e+00 0.000000e+00
    outer loop
        vertex 1.737883e+01 -1.380000e+01 1.128178e+01
        vertex 1.630294e+01 -1.380000e+01 1.190294e+01
        vertex 1.680000e+01 -1.380000e+01 1.152154e+01
    endloop
endfacet
facet normal 0.000000e+00 -1.000000e+00 0.000000e+00
    outer loop
        vertex 1.800000e+01 -1.380000e+01 1.120000e+01
        vertex 1.630294e+01 -1.380000e+01 1.190294e+01
        vertex 1.737883e+01 -1.380000e+01 1.128178e+01
    endloop
endfacet
facet normal 0.000000e+00 -1.000000e+00 0.000000e+00
    outer loop
        vertex 1.800000e+01 -1.380000e+01 1.120000e+01
        vertex 1.862117e+01 -1.380000e+01 1.128178e+01
        vertex 1.630294e+01 -1.380000e+01 1.190294e+01
    endloop
endfacet
facet normal 0.000000e+00 -1.000000e+00 0.000000e+00
    outer loop
        vertex 1.862117e+01 -1.380000e+01 1.128178e+01
        vertex 1.592154e+01 -1.380000e+01 1.240000e+01
        vertex 1.630294e+01 -1.380000e+01 1.190294e+01
    endloop
endfacet
facet normal 0.000000e+00 -1.000000e+00 0.000000e+00
    outer loop
        vertex 1.862117e+01 -1.380000e+01 1.128178e+01
        vertex 1.568178e+01 -1.380000e+01 1.297883e+01
        vertex 1.592154e+01 -1.380000e+01 1.240000e+01
    endloop
endfacet
facet normal 0.000000e+00 -1.000000e+00 0.000000e+00
    outer loop
        vertex 1.862117e+01 -1.380000e+01 1.128178e+01
        vertex 1.920000e+01 -1.380000e+01 1.152154e+01
        vertex 1.969706e+01 -1.380000e+01 1.190294e+01
    endloop
endfacet
facet normal 0.000000e+00 -1.000000e+00 0.000000e+00
    outer loop
        vertex 1.920000e+01 -1.380000e+01 1.567846e+01
        vertex 1.862117e+01 -1.380000e+01 1.591822e+01
        vertex 1.800000e+01 -1.380000e+01 1.600000e+01
    endloop
endfacet
facet normal 0.000000e+00 -1.000000e+00 0.000000e+00
    outer loop
        vertex 1.969706e+01 -1.380000e+01 1.529706e+01
        vertex 1.920000e+01 -1.380000e+01 1.567846e+01
        vertex 1.800000e+01 -1.380000e+01 1.600000e+01
    endloop
endfacet
facet normal 0.000000e+00 -1.000000e+00 0.000000e+00
    outer loop
        vertex 1.969706e+01 -1.380000e+01 1.529706e+01
        vertex 1.800000e+01 -1.380000e+01 1.600000e+01
        vertex 1.737883e+01 -1.380000e+01 1.591822e+01
    endloop
endfacet
facet normal 0.000000e+00 -1.000000e+00 0.000000e+00
    outer loop
        vertex 1.969706e+01 -1.380000e+01 1.529706e+01
        vertex 1.737883e+01 -1.380000e+01 1.591822e+01
        vertex 1.680000e+01 -1.380000e+01 1.567846e+01
    endloop
endfacet
facet normal 0.000000e+00 -1.000000e+00 0.000000e+00
    outer loop
        vertex 1.630294e+01 -1.380000e+01 1.529706e+01
        vertex 1.969706e+01 -1.380000e+01 1.529706e+01
        vertex 1.680000e+01 -1.380000e+01 1.567846e+01
    endloop
endfacet
facet normal 0.000000e+00 -1.000000e+00 0.000000e+00
    outer loop
        vertex 1.560000e+01 -1.380000e+01 1.360000e+01
        vertex 1.592154e+01 -1.380000e+01 1.480000e+01
        vertex 1.568178e+01 -1.380000e+01 1.422117e+01
    endloop
endfacet
facet normal 0.000000e+00 -1.000000e+00 0.000000e+00
    outer loop
        vertex 1.560000e+01 -1.380000e+01 1.360000e+01
        vertex 1.630294e+01 -1.380000e+01 1.529706e+01
        vertex 1.592154e+01 -1.380000e+01 1.480000e+01
    endloop
endfacet
facet normal 0.000000e+00 -1.000000e+00 0.000000e+00
    outer loop
        vertex 1.568178e+01 -1.380000e+01 1.297883e+01
        vertex 1.630294e+01 -1.380000e+01 1.529706e+01
        vertex 1.560000e+01 -1.380000e+01 1.360000e+01
    endloop
endfacet
facet normal 0.000000e+00 -1.000000e+00 0.000000e+00
    outer loop
        vertex 1.950000e+01 -1.380000e+01 1.360000e+01
        vertex 1.969706e+01 -1.380000e+01 1.529706e+01
        vertex 1.944889e+01 -1.380000e+01 1.398823e+01
    endloop
endfacet
facet normal 0.000000e+00 -1.000000e+00 0.000000e+00
    outer loop
        vertex 1.944889e+01 -1.380000e+01 1.398823e+01
        vertex 1.969706e+01 -1.380000e+01 1.529706e+01
        vertex 1.929904e+01 -1.380000e+01 1.435000e+01
    endloop
endfacet
facet normal 0.000000e+00 -1.000000e+00 0.000000e+00
    outer loop
        vertex 1.929904e+01 -1.380000e+01 1.435000e+01
        vertex 1.969706e+01 -1.380000e+01 1.529706e+01
        vertex 1.906066e+01 -1.380000e+01 1.466066e+01
    endloop
endfacet
facet normal 0.000000e+00 -1.000000e+00 0.000000e+00
    outer loop
        vertex 1.906066e+01 -1.380000e+01 1.466066e+01
        vertex 1.969706e+01 -1.380000e+01 1.529706e+01
        vertex 1.875000e+01 -1.380000e+01 1.489904e+01
    endloop
endfacet
facet normal 0.000000e+00 -1.000000e+00 0.000000e+00
    outer loop
        vertex 1.875000e+01 -1.380000e+01 1.489904e+01
        vertex 1.969706e+01 -1.380000e+01 1.529706e+01
        vertex 1.838823e+01 -1.380000e+01 1.504889e+01
    endloop
endfacet
facet normal 0.000000e+00 -1.000000e+00 0.000000e+00
    outer loop
        vertex 1.838823e+01 -1.380000e+01 1.504889e+01
        vertex 1.969706e+01 -1.380000e+01 1.529706e+01
        vertex 1.800000e+01 -1.380000e+01 1.510000e+01
    endloop
endfacet
facet normal 0.000000e+00 -1.000000e+00 0.000000e+00
    outer loop
        vertex 1.800000e+01 -1.380000e+01 1.510000e+01
        vertex 1.969706e+01 -1.380000e+01 1.529706e+01
        vertex 1.630294e+01 -1.380000e+01 1.529706e+01
    endloop
endfacet
facet normal 0.000000e+00 -1.000000e+00 0.000000e+00
    outer loop
        vertex 1.761177e+01 -1.380000e+01 1.504889e+01
        vertex 1.800000e+01 -1.380000e+01 1.510000e+01
        vertex 1.630294e+01 -1.380000e+01 1.529706e+01
    endloop
endfacet
facet normal 0.000000e+00 -1.000000e+00 0.000000e+00
    outer loop
        vertex 1.725000e+01 -1.380000e+01 1.489904e+01
        vertex 1.761177e+01 -1.380000e+01 1.504889e+01
        vertex 1.630294e+01 -1.380000e+01 1.529706e+01
    endloop
endfacet
facet normal 0.000000e+00 -1.000000e+00 0.000000e+00
    outer loop
        vertex 1.693934e+01 -1.380000e+01 1.466066e+01
        vertex 1.725000e+01 -1.380000e+01 1.489904e+01
        vertex 1.630294e+01 -1.380000e+01 1.529706e+01
    endloop
endfacet
facet normal 0.000000e+00 -1.000000e+00 0.000000e+00
    outer loop
        vertex 1.670096e+01 -1.380000e+01 1.435000e+01
        vertex 1.693934e+01 -1.380000e+01 1.466066e+01
        vertex 1.630294e+01 -1.380000e+01 1.529706e+01
    endloop
endfacet
facet normal 0.000000e+00 -1.000000e+00 0.000000e+00
    outer loop
        vertex 1.568178e+01 -1.380000e+01 1.297883e+01
        vertex 1.670096e+01 -1.380000e+01 1.435000e+01
        vertex 1.630294e+01 -1.380000e+01 1.529706e+01
    endloop
endfacet
facet normal 0.000000e+00 -1.000000e+00 0.000000e+00
    outer loop
        vertex 1.568178e+01 -1.380000e+01 1.297883e+01
        vertex 1.655111e+01 -1.380000e+01 1.398823e+01
        vertex 1.670096e+01 -1.380000e+01 1.435000e+01
    endloop
endfacet
facet normal 0.000000e+00 -1.000000e+00 0.000000e+00
    outer loop
        vertex 1.568178e+01 -1.380000e+01 1.297883e+01
        vertex 1.650000e+01 -1.380000e+01 1.360000e+01
        vertex 1.655111e+01 -1.380000e+01 1.398823e+01
    endloop
endfacet
facet normal 0.000000e+00 -1.000000e+00 0.000000e+00
    outer loop
        vertex 1.568178e+01 -1.380000e+01 1.297883e+01
        vertex 1.655111e+01 -1.380000e+01 1.321177e+01
        vertex 1.650000e+01 -1.380000e+01 1.360000e+01
    endloop
endfacet
facet normal 0.000000e+00 -1.000000e+00 0.000000e+00
    outer loop
        vertex 1.670096e+01 -1.380000e+01 1.285000e+01
        vertex 1.655111e+01 -1.380000e+01 1.321177e+01
        vertex 1.568178e+01 -1.380000e+01 1.297883e+01
    endloop
endfacet
facet normal 0.000000e+00 -1.000000e+00 0.000000e+00
    outer loop
        vertex 1.693934e+01 -1.380000e+01 1.253934e+01
        vertex 1.670096e+01 -1.380000e+01 1.285000e+01
        vertex 1.568178e+01 -1.380000e+01 1.297883e+01
    endloop
endfacet
facet normal 0.000000e+00 -1.000000e+00 0.000000e+00
    outer loop
        vertex 1.725000e+01 -1.380000e+01 1.230096e+01
        vertex 1.693934e+01 -1.380000e+01 1.253934e+01
        vertex 1.568178e+01 -1.380000e+01 1.297883e+01
    endloop
endfacet
facet normal 0.000000e+00 -1.000000e+00 0.000000e+00
    outer loop
        vertex 1.862117e+01 -1.380000e+01 1.128178e+01
        vertex 1.725000e+01 -1.380000e+01 1.230096e+01
        vertex 1.568178e+01 -1.380000e+01 1.297883e+01
    endloop
endfacet
facet normal 0.000000e+00 -1.000000e+00 0.000000e+00
    outer loop
        vertex 1.969706e+01 -1.380000e+01 1.190294e+01
        vertex 1.950000e+01 -1.380000e+01 1.360000e+01
        vertex 1.944889e+01 -1.380000e+01 1.321177e+01
    endloop
endfacet
facet normal 0.000000e+00 -1.000000e+00 0.000000e+00
    outer loop
        vertex 1.969706e+01 -1.380000e+01 1.190294e+01
        vertex 1.944889e+01 -1.380000e+01 1.321177e+01
        vertex 1.929904e+01 -1.380000e+01 1.285000e+01
    endloop
endfacet
facet normal 0.000000e+00 -1.000000e+00 0.000000e+00
    outer loop
        vertex 1.862117e+01 -1.380000e+01 1.128178e+01
        vertex 1.969706e+01 -1.380000e+01 1.190294e+01
        vertex 1.929904e+01 -1.380000e+01 1.285000e+01
    endloop
endfacet
facet normal 0.000000e+00 -1.000000e+00 0.000000e+00
    outer loop
        vertex 1.862117e+01 -1.380000e+01 1.128178e+01
        vertex 1.929904e+01 -1.380000e+01 1.285000e+01
        vertex 1.906066e+01 -1.380000e+01 1.253934e+01
    endloop
endfacet
facet normal 0.000000e+00 -1.000000e+00 0.000000e+00
    outer loop
        vertex 1.862117e+01 -1.380000e+01 1.128178e+01
        vertex 1.906066e+01 -1.380000e+01 1.253934e+01
        vertex 1.875000e+01 -1.380000e+01 1.230096e+01
    endloop
endfacet
facet normal 0.000000e+00 -1.000000e+00 0.000000e+00
    outer loop
        vertex 1.862117e+01 -1.380000e+01 1.128178e+01
        vertex 1.875000e+01 -1.380000e+01 1.230096e+01
        vertex 1.838823e+01 -1.380000e+01 1.215111e+01
    endloop
endfacet
facet normal 0.000000e+00 -1.000000e+00 0.000000e+00
    outer loop
        vertex 1.862117e+01 -1.380000e+01 1.128178e+01
        vertex 1.838823e+01 -1.380000e+01 1.215111e+01
        vertex 1.800000e+01 -1.380000e+01 1.210000e+01
    endloop
endfacet
facet normal 0.000000e+00 -1.000000e+00 0.000000e+00
    outer loop
        vertex 1.862117e+01 -1.380000e+01 1.128178e+01
        vertex 1.800000e+01 -1.380000e+01 1.210000e+01
        vertex 1.761177e+01 -1.380000e+01 1.215111e+01
    endloop
endfacet
facet normal 0.000000e+00 -1.000000e+00 0.000000e+00
    outer loop
        vertex 1.862117e+01 -1.380000e+01 1.128178e+01
        vertex 1.761177e+01 -1.380000e+01 1.215111e+01
        vertex 1.725000e+01 -1.380000e+01 1.230096e+01
    endloop
endfacet
facet normal 0.000000e+00 -1.000000e+00 0.000000e+00
    outer loop
        vertex 1.725000e+01 -4.000000e+00 1.489904e+01
        vertex 1.800000e+01 -4.000000e+00 1.510000e+01
        vertex 1.761177e+01 -4.000000e+00 1.504889e+01
    endloop
endfacet
facet normal 0.000000e+00 -1.000000e+00 0.000000e+00
    outer loop
        vertex 1.725000e+01 -4.000000e+00 1.489904e+01
        vertex 1.838823e+01 -4.000000e+00 1.504889e+01
        vertex 1.800000e+01 -4.000000e+00 1.510000e+01
    endloop
endfacet
facet normal 0.000000e+00 -1.000000e+00 0.000000e+00
    outer loop
        vertex 1.725000e+01 -4.000000e+00 1.489904e+01
        vertex 1.875000e+01 -4.000000e+00 1.489904e+01
        vertex 1.838823e+01 -4.000000e+00 1.504889e+01
    endloop
endfacet
facet normal 0.000000e+00 -1.000000e+00 0.000000e+00
    outer loop
        vertex 1.693934e+01 -4.000000e+00 1.466066e+01
        vertex 1.875000e+01 -4.000000e+00 1.489904e+01
        vertex 1.725000e+01 -4.000000e+00 1.489904e+01
    endloop
endfacet
facet normal 0.000000e+00 -1.000000e+00 0.000000e+00
    outer loop
        vertex 1.670096e+01 -4.000000e+00 1.435000e+01
        vertex 1.875000e+01 -4.000000e+00 1.489904e+01
        vertex 1.693934e+01 -4.000000e+00 1.466066e+01
    endloop
endfacet
facet normal 0.000000e+00 -1.000000e+00 0.000000e+00
    outer loop
        vertex 1.655111e+01 -4.000000e+00 1.398823e+01
        vertex 1.875000e+01 -4.000000e+00 1.489904e+01
        vertex 1.670096e+01 -4.000000e+00 1.435000e+01
    endloop
endfacet
facet normal 0.000000e+00 -1.000000e+00 0.000000e+00
    outer loop
        vertex 1.650000e+01 -4.000000e+00 1.360000e+01
        vertex 1.875000e+01 -4.000000e+00 1.489904e+01
        vertex 1.655111e+01 -4.000000e+00 1.398823e+01
    endloop
endfacet
facet normal 0.000000e+00 -1.000000e+00 0.000000e+00
    outer loop
        vertex 1.655111e+01 -4.000000e+00 1.321177e+01
        vertex 1.875000e+01 -4.000000e+00 1.489904e+01
        vertex 1.650000e+01 -4.000000e+00 1.360000e+01
    endloop
endfacet
facet normal 0.000000e+00 -1.000000e+00 0.000000e+00
    outer loop
        vertex 1.670096e+01 -4.000000e+00 1.285000e+01
        vertex 1.875000e+01 -4.000000e+00 1.489904e+01
        vertex 1.655111e+01 -4.000000e+00 1.321177e+01
    endloop
endfacet
facet normal 0.000000e+00 -1.000000e+00 0.000000e+00
    outer loop
        vertex 1.693934e+01 -4.000000e+00 1.253934e+01
        vertex 1.875000e+01 -4.000000e+00 1.489904e+01
        vertex 1.670096e+01 -4.000000e+00 1.285000e+01
    endloop
endfacet
facet normal 0.000000e+00 -1.000000e+00 0.000000e+00
    outer loop
        vertex 1.693934e+01 -4.000000e+00 1.253934e+01
        vertex 1.906066e+01 -4.000000e+00 1.466066e+01
        vertex 1.875000e+01 -4.000000e+00 1.489904e+01
    endloop
endfacet
facet normal 0.000000e+00 -1.000000e+00 0.000000e+00
    outer loop
        vertex 1.693934e+01 -4.000000e+00 1.253934e+01
        vertex 1.929904e+01 -4.000000e+00 1.435000e+01
        vertex 1.906066e+01 -4.000000e+00 1.466066e+01
    endloop
endfacet
facet normal 0.000000e+00 -1.000000e+00 0.000000e+00
    outer loop
        vertex 1.693934e+01 -4.000000e+00 1.253934e+01
        vertex 1.944889e+01 -4.000000e+00 1.398823e+01
        vertex 1.929904e+01 -4.000000e+00 1.435000e+01
    endloop
endfacet
facet normal 0.000000e+00 -1.000000e+00 0.000000e+00
    outer loop
        vertex 1.693934e+01 -4.000000e+00 1.253934e+01
        vertex 1.950000e+01 -4.000000e+00 1.360000e+01
        vertex 1.944889e+01 -4.000000e+00 1.398823e+01
    endloop
endfacet
facet normal 0.000000e+00 -1.000000e+00 0.000000e+00
    outer loop
        vertex 1.693934e+01 -4.000000e+00 1.253934e+01
        vertex 1.944889e+01 -4.000000e+00 1.321177e+01
        vertex 1.950000e+01 -4.000000e+00 1.360000e+01
    endloop
endfacet
facet normal 0.000000e+00 -1.000000e+00 0.000000e+00
    outer loop
        vertex 1.693934e+01 -4.000000e+00 1.253934e+01
        vertex 1.929904e+01 -4.000000e+00 1.285000e+01
        vertex 1.944889e+01 -4.000000e+00 1.321177e+01
    endloop
endfacet
facet normal 0.000000e+00 -1.000000e+00 0.000000e+00
    outer loop
        vertex 1.693934e+01 -4.000000e+00 1.253934e+01
        vertex 1.906066e+01 -4.000000e+00 1.253934e+01
        vertex 1.929904e+01 -4.000000e+00 1.285000e+01
    endloop
endfacet
facet normal 0.000000e+00 -1.000000e+00 0.000000e+00
    outer loop
        vertex 1.725000e+01 -4.000000e+00 1.230096e+01
        vertex 1.906066e+01 -4.000000e+00 1.253934e+01
        vertex 1.693934e+01 -4.000000e+00 1.253934e+01
    endloop
endfacet
facet normal 0.000000e+00 -1.000000e+00 0.000000e+00
    outer loop
        vertex 1.761177e+01 -4.000000e+00 1.215111e+01
        vertex 1.906066e+01 -4.000000e+00 1.253934e+01
        vertex 1.725000e+01 -4.000000e+00 1.230096e+01
    endloop
endfacet
facet normal 0.000000e+00 -1.000000e+00 0.000000e+00
    outer loop
        vertex 1.800000e+01 -4.000000e+00 1.210000e+01
        vertex 1.906066e+01 -4.000000e+00 1.253934e+01
        vertex 1.761177e+01 -4.000000e+00 1.215111e+01
    endloop
endfacet
facet normal 0.000000e+00 -1.000000e+00 0.000000e+00
    outer loop
        vertex 1.800000e+01 -4.000000e+00 1.210000e+01
        vertex 1.838823e+01 -4.000000e+00 1.215111e+01
        vertex 1.875000e+01 -4.000000e+00 1.230096e+01
    endloop
endfacet
facet normal 0.000000e+00 -1.000000e+00 0.000000e+00
    outer loop
        vertex 1.800000e+01 -4.000000e+00 1.210000e+01
        vertex 1.875000e+01 -4.000000e+00 1.230096e+01
        vertex 1.906066e+01 -4.000000e+00 1.253934e+01
    endloop
endfacet
facet normal -1.305258e-01 0.000000e+00 -9.914449e-01
    outer loop
        vertex 1.800000e+01 -1.380000e+01 1.510000e+01
        vertex 1.800000e+01 -4.000000e+00 1.510000e+01
        vertex 1.838823e+01 -4.000000e+00 1.504889e+01
    endloop
endfacet
facet normal -1.305258e-01 0.000000e+00 -9.914449e-01
    outer loop
        vertex 1.838823e+01 -1.380000e+01 1.504889e+01
        vertex 1.800000e+01 -1.380000e+01 1.510000e+01
        vertex 1.838823e+01 -4.000000e+00 1.504889e+01
    endloop
endfacet
facet normal -3.826846e-01 0.000000e+00 -9.238790e-01
    outer loop
        vertex 1.838823e+01 -1.380000e+01 1.504889e+01
        vertex 1.838823e+01 -4.000000e+00 1.504889e+01
        vertex 1.875000e+01 -4.000000e+00 1.489904e+01
    endloop
endfacet
facet normal -3.826846e-01 0.000000e+00 -9.238790e-01
    outer loop
        vertex 1.875000e+01 -1.380000e+01 1.489904e+01
        vertex 1.838823e+01 -1.380000e+01 1.504889e+01
        vertex 1.875000e+01 -4.000000e+00 1.489904e+01
    endloop
endfacet
facet normal -6.087618e-01 0.000000e+00 -7.933531e-01
    outer loop
        vertex 1.875000e+01 -1.380000e+01 1.489904e+01
        vertex 1.875000e+01 -4.000000e+00 1.489904e+01
        vertex 1.906066e+01 -4.000000e+00 1.466066e+01
    endloop
endfacet
facet normal -6.087618e-01 0.000000e+00 -7.933531e-01
    outer loop
        vertex 1.906066e+01 -1.380000e+01 1.466066e+01
        vertex 1.875000e+01 -1.380000e+01 1.489904e+01
        vertex 1.906066e+01 -4.000000e+00 1.466066e+01
    endloop
endfacet
facet normal -7.933528e-01 0.000000e+00 -6.087621e-01
    outer loop
        vertex 1.906066e+01 -1.380000e+01 1.466066e+01
        vertex 1.906066e+01 -4.000000e+00 1.466066e+01
        vertex 1.929904e+01 -4.000000e+00 1.435000e+01
    endloop
endfacet
facet normal -7.933528e-01 0.000000e+00 -6.087621e-01
    outer loop
        vertex 1.929904e+01 -1.380000e+01 1.435000e+01
        vertex 1.906066e+01 -1.380000e+01 1.466066e+01
        vertex 1.929904e+01 -4.000000e+00 1.435000e+01
    endloop
endfacet
facet normal -9.238794e-01 0.000000e+00 -3.826838e-01
    outer loop
        vertex 1.929904e+01 -1.380000e+01 1.435000e+01
        vertex 1.929904e+01 -4.000000e+00 1.435000e+01
        vertex 1.944889e+01 -4.000000e+00 1.398823e+01
    endloop
endfacet
facet normal -9.238794e-01 0.000000e+00 -3.826838e-01
    outer loop
        vertex 1.944889e+01 -1.380000e+01 1.398823e+01
        vertex 1.929904e+01 -1.380000e+01 1.435000e+01
        vertex 1.944889e+01 -4.000000e+00 1.398823e+01
    endloop
endfacet
facet normal -9.914449e-01 0.000000e+00 -1.305261e-01
    outer loop
        vertex 1.944889e+01 -1.380000e+01 1.398823e+01
        vertex 1.944889e+01 -4.000000e+00 1.398823e+01
        vertex 1.950000e+01 -4.000000e+00 1.360000e+01
    endloop
endfacet
facet normal -9.914449e-01 0.000000e+00 -1.305261e-01
    outer loop
        vertex 1.950000e+01 -1.380000e+01 1.360000e+01
        vertex 1.944889e+01 -1.380000e+01 1.398823e+01
        vertex 1.950000e+01 -4.000000e+00 1.360000e+01
    endloop
endfacet
facet normal -9.914449e-01 0.000000e+00 1.305261e-01
    outer loop
        vertex 1.950000e+01 -1.380000e+01 1.360000e+01
        vertex 1.950000e+01 -4.000000e+00 1.360000e+01
        vertex 1.944889e+01 -4.000000e+00 1.321177e+01
    endloop
endfacet
facet normal -9.914449e-01 0.000000e+00 1.305261e-01
    outer loop
        vertex 1.944889e+01 -1.380000e+01 1.321177e+01
        vertex 1.950000e+01 -1.380000e+01 1.360000e+01
        vertex 1.944889e+01 -4.000000e+00 1.321177e+01
    endloop
endfacet
facet normal -9.238794e-01 0.000000e+00 3.826838e-01
    outer loop
        vertex 1.944889e+01 -1.380000e+01 1.321177e+01
        vertex 1.944889e+01 -4.000000e+00 1.321177e+01
        vertex 1.929904e+01 -4.000000e+00 1.285000e+01
    endloop
endfacet
facet normal -9.238794e-01 0.000000e+00 3.826838e-01
    outer loop
        vertex 1.929904e+01 -1.380000e+01 1.285000e+01
        vertex 1.944889e+01 -1.380000e+01 1.321177e+01
        vertex 1.929904e+01 -4.000000e+00 1.285000e+01
    endloop
endfacet
facet normal -7.933528e-01 0.000000e+00 6.087621e-01
    outer loop
        vertex 1.929904e+01 -1.380000e+01 1.285000e+01
        vertex 1.929904e+01 -4.000000e+00 1.285000e+01
        vertex 1.906066e+01 -4.000000e+00 1.253934e+01
    endloop
endfacet
facet normal -7.933528e-01 0.000000e+00 6.087621e-01
    outer loop
        vertex 1.906066e+01 -1.380000e+01 1.253934e+01
        vertex 1.929904e+01 -1.380000e+01 1.285000e+01
        vertex 1.906066e+01 -4.000000e+00 1.253934e+01
    endloop
endfacet
facet normal -6.087618e-01 0.000000e+00 7.933531e-01
    outer loop
        vertex 1.906066e+01 -1.380000e+01 1.253934e+01
        vertex 1.906066e+01 -4.000000e+00 1.253934e+01
        vertex 1.875000e+01 -4.000000e+00 1.230096e+01
    endloop
endfacet
facet normal -6.087618e-01 0.000000e+00 7.933531e-01
    outer loop
        vertex 1.875000e+01 -1.380000e+01 1.230096e+01
        vertex 1.906066e+01 -1.380000e+01 1.253934e+01
        vertex 1.875000e+01 -4.000000e+00 1.230096e+01
    endloop
endfacet
facet normal -3.826846e-01 0.000000e+00 9.238790e-01
    outer loop
        vertex 1.875000e+01 -1.380000e+01 1.230096e+01
        vertex 1.875000e+01 -4.000000e+00 1.230096e+01
        vertex 1.838823e+01 -4.000000e+00 1.215111e+01
    endloop
endfacet
facet normal -3.826846e-01 0.000000e+00 9.238790e-01
    outer loop
        vertex 1.838823e+01 -1.380000e+01 1.215111e+01
        vertex 1.875000e+01 -1.380000e+01 1.230096e+01
        vertex 1.838823e+01 -4.000000e+00 1.215111e+01
    endloop
endfacet
facet normal -1.305258e-01 0.000000e+00 9.914449e-01
    outer loop
        vertex 1.838823e+01 -1.380000e+01 1.215111e+01
        vertex 1.838823e+01 -4.000000e+00 1.215111e+01
        vertex 1.800000e+01 -4.000000e+00 1.210000e+01
    endloop
endfacet
facet normal -1.305258e-01 0.000000e+00 9.914449e-01
    outer loop
        vertex 1.800000e+01 -1.380000e+01 1.210000e+01
        vertex 1.838823e+01 -1.380000e+01 1.215111e+01
        vertex 1.800000e+01 -4.000000e+00 1.210000e+01
    endloop
endfacet
facet normal 1.305258e-01 -0.000000e+00 9.914449e-01
    outer loop
        vertex 1.761177e+01 -1.380000e+01 1.215111e+01
        vertex 1.800000e+01 -4.000000e+00 1.210000e+01
        vertex 1.761177e+01 -4.000000e+00 1.215111e+01
    endloop
endfacet
facet normal 1.305258e-01 -0.000000e+00 9.914449e-01
    outer loop
        vertex 1.800000e+01 -1.380000e+01 1.210000e+01
        vertex 1.800000e+01 -4.000000e+00 1.210000e+01
        vertex 1.761177e+01 -1.380000e+01 1.215111e+01
    endloop
endfacet
facet normal 3.826846e-01 -0.000000e+00 9.238790e-01
    outer loop
        vertex 1.725000e+01 -1.380000e+01 1.230096e+01
        vertex 1.761177e+01 -4.000000e+00 1.215111e+01
        vertex 1.725000e+01 -4.000000e+00 1.230096e+01
    endloop
endfacet
facet normal 3.826846e-01 -0.000000e+00 9.238790e-01
    outer loop
        vertex 1.761177e+01 -1.380000e+01 1.215111e+01
        vertex 1.761177e+01 -4.000000e+00 1.215111e+01
        vertex 1.725000e+01 -1.380000e+01 1.230096e+01
    endloop
endfacet
facet normal 6.087618e-01 -0.000000e+00 7.933531e-01
    outer loop
        vertex 1.693934e+01 -1.380000e+01 1.253934e+01
        vertex 1.725000e+01 -4.000000e+00 1.230096e+01
        vertex 1.693934e+01 -4.000000e+00 1.253934e+01
    endloop
endfacet
facet normal 6.087618e-01 -0.000000e+00 7.933531e-01
    outer loop
        vertex 1.725000e+01 -1.380000e+01 1.230096e+01
        vertex 1.725000e+01 -4.000000e+00 1.230096e+01
        vertex 1.693934e+01 -1.380000e+01 1.253934e+01
    endloop
endfacet
facet normal 7.933528e-01 -0.000000e+00 6.087621e-01
    outer loop
        vertex 1.670096e+01 -1.380000e+01 1.285000e+01
        vertex 1.693934e+01 -4.000000e+00 1.253934e+01
        vertex 1.670096e+01 -4.000000e+00 1.285000e+01
    endloop
endfacet
facet normal 7.933528e-01 -0.000000e+00 6.087621e-01
    outer loop
        vertex 1.693934e+01 -1.380000e+01 1.253934e+01
        vertex 1.693934e+01 -4.000000e+00 1.253934e+01
        vertex 1.670096e+01 -1.380000e+01 1.285000e+01
    endloop
endfacet
facet normal 9.238794e-01 -0.000000e+00 3.826838e-01
    outer loop
        vertex 1.655111e+01 -1.380000e+01 1.321177e+01
        vertex 1.670096e+01 -4.000000e+00 1.285000e+01
        vertex 1.655111e+01 -4.000000e+00 1.321177e+01
    endloop
endfacet
facet normal 9.238794e-01 -0.000000e+00 3.826838e-01
    outer loop
        vertex 1.670096e+01 -1.380000e+01 1.285000e+01
        vertex 1.670096e+01 -4.000000e+00 1.285000e+01
        vertex 1.655111e+01 -1.380000e+01 1.321177e+01
    endloop
endfacet
facet normal 9.914449e-01 -0.000000e+00 1.305261e-01
    outer loop
        vertex 1.650000e+01 -1.380000e+01 1.360000e+01
        vertex 1.655111e+01 -4.000000e+00 1.321177e+01
        vertex 1.650000e+01 -4.000000e+00 1.360000e+01
    endloop
endfacet
facet normal 9.914449e-01 -0.000000e+00 1.305261e-01
    outer loop
        vertex 1.655111e+01 -1.380000e+01 1.321177e+01
        vertex 1.655111e+01 -4.000000e+00 1.321177e+01
        vertex 1.650000e+01 -1.380000e+01 1.360000e+01
    endloop
endfacet
facet normal 9.914449e-01 0.000000e+00 -1.305261e-01
    outer loop
        vertex 1.655111e+01 -1.380000e+01 1.398823e+01
        vertex 1.650000e+01 -4.000000e+00 1.360000e+01
        vertex 1.655111e+01 -4.000000e+00 1.398823e+01
    endloop
endfacet
facet normal 9.914449e-01 0.000000e+00 -1.305261e-01
    outer loop
        vertex 1.650000e+01 -1.380000e+01 1.360000e+01
        vertex 1.650000e+01 -4.000000e+00 1.360000e+01
        vertex 1.655111e+01 -1.380000e+01 1.398823e+01
    endloop
endfacet
facet normal 9.238794e-01 0.000000e+00 -3.826838e-01
    outer loop
        vertex 1.670096e+01 -1.380000e+01 1.435000e+01
        vertex 1.655111e+01 -4.000000e+00 1.398823e+01
        vertex 1.670096e+01 -4.000000e+00 1.435000e+01
    endloop
endfacet
facet normal 9.238794e-01 0.000000e+00 -3.826838e-01
    outer loop
        vertex 1.655111e+01 -1.380000e+01 1.398823e+01
        vertex 1.655111e+01 -4.000000e+00 1.398823e+01
        vertex 1.670096e+01 -1.380000e+01 1.435000e+01
    endloop
endfacet
facet normal 7.933528e-01 0.000000e+00 -6.087621e-01
    outer loop
        vertex 1.693934e+01 -1.380000e+01 1.466066e+01
        vertex 1.670096e+01 -4.000000e+00 1.435000e+01
        vertex 1.693934e+01 -4.000000e+00 1.466066e+01
    endloop
endfacet
facet normal 7.933528e-01 0.000000e+00 -6.087621e-01
    outer loop
        vertex 1.670096e+01 -1.380000e+01 1.435000e+01
        vertex 1.670096e+01 -4.000000e+00 1.435000e+01
        vertex 1.693934e+01 -1.380000e+01 1.466066e+01
    endloop
endfacet
facet normal 6.087618e-01 0.000000e+00 -7.933531e-01
    outer loop
        vertex 1.725000e+01 -1.380000e+01 1.489904e+01
        vertex 1.693934e+01 -4.000000e+00 1.466066e+01
        vertex 1.725000e+01 -4.000000e+00 1.489904e+01
    endloop
endfacet
facet normal 6.087618e-01 0.000000e+00 -7.933531e-01
    outer loop
        vertex 1.693934e+01 -1.380000e+01 1.466066e+01
        vertex 1.693934e+01 -4.000000e+00 1.466066e+01
        vertex 1.725000e+01 -1.380000e+01 1.489904e+01
    endloop
endfacet
facet normal 3.826846e-01 0.000000e+00 -9.238790e-01
    outer loop
        vertex 1.761177e+01 -1.380000e+01 1.504889e+01
        vertex 1.725000e+01 -4.000000e+00 1.489904e+01
        vertex 1.761177e+01 -4.000000e+00 1.504889e+01
    endloop
endfacet
facet normal 3.826846e-01 0.000000e+00 -9.238790e-01
    outer loop
        vertex 1.725000e+01 -1.380000e+01 1.489904e+01
        vertex 1.725000e+01 -4.000000e+00 1.489904e+01
        vertex 1.761177e+01 -1.380000e+01 1.504889e+01
    endloop
endfacet
facet normal 1.305258e-01 0.000000e+00 -9.914449e-01
    outer loop
        vertex 1.800000e+01 -1.380000e+01 1.510000e+01
        vertex 1.761177e+01 -4.000000e+00 1.504889e+01
        vertex 1.800000e+01 -4.000000e+00 1.510000e+01
    endloop
endfacet
facet normal 1.305258e-01 0.000000e+00 -9.914449e-01
    outer loop
        vertex 1.761177e+01 -1.380000e+01 1.504889e+01
        vertex 1.761177e+01 -4.000000e+00 1.504889e+01
        vertex 1.800000e+01 -1.380000e+01 1.510000e+01
    endloop
endfacet
endsolid mag-release-catch.stl
