solid stock-adjust-pin.stl
facet normal 0.000000e+00 0.000000e+00 -1.000000e+00
    outer loop
        vertex -1.961000e+02 -3.290896e+00 1.100000e+01
        vertex -1.947091e+02 -1.900000e+00 1.100000e+01
        vertex -1.953130e+02 -2.687006e+00 1.100000e+01
    endloop
endfacet
facet normal 0.000000e+00 0.000000e+00 -1.000000e+00
    outer loop
        vertex -1.961000e+02 -3.290896e+00 1.100000e+01
        vertex -1.943295e+02 -9.835123e-01 1.100000e+01
        vertex -1.947091e+02 -1.900000e+00 1.100000e+01
    endloop
endfacet
facet normal 0.000000e+00 0.000000e+00 -1.000000e+00
    outer loop
        vertex -1.970165e+02 -3.670518e+00 1.100000e+01
        vertex -1.943295e+02 -9.835123e-01 1.100000e+01
        vertex -1.961000e+02 -3.290896e+00 1.100000e+01
    endloop
endfacet
facet normal 0.000000e+00 0.000000e+00 -1.000000e+00
    outer loop
        vertex -1.970165e+02 -3.670518e+00 1.100000e+01
        vertex -1.942000e+02 0.000000e+00 1.100000e+01
        vertex -1.943295e+02 -9.835123e-01 1.100000e+01
    endloop
endfacet
facet normal 0.000000e+00 0.000000e+00 -1.000000e+00
    outer loop
        vertex -1.970165e+02 -3.670518e+00 1.100000e+01
        vertex -1.943295e+02 9.835123e-01 1.100000e+01
        vertex -1.942000e+02 0.000000e+00 1.100000e+01
    endloop
endfacet
facet normal 0.000000e+00 0.000000e+00 -1.000000e+00
    outer loop
        vertex -1.970165e+02 -3.670518e+00 1.100000e+01
        vertex -1.947091e+02 1.900000e+00 1.100000e+01
        vertex -1.943295e+02 9.835123e-01 1.100000e+01
    endloop
endfacet
facet normal 0.000000e+00 0.000000e+00 -1.000000e+00
    outer loop
        vertex -1.980000e+02 -3.800000e+00 1.100000e+01
        vertex -1.947091e+02 1.900000e+00 1.100000e+01
        vertex -1.970165e+02 -3.670518e+00 1.100000e+01
    endloop
endfacet
facet normal 0.000000e+00 0.000000e+00 -1.000000e+00
    outer loop
        vertex -1.980000e+02 -3.800000e+00 1.100000e+01
        vertex -1.989835e+02 -3.670518e+00 1.100000e+01
        vertex -1.947091e+02 1.900000e+00 1.100000e+01
    endloop
endfacet
facet normal 0.000000e+00 0.000000e+00 -1.000000e+00
    outer loop
        vertex -1.989835e+02 -3.670518e+00 1.100000e+01
        vertex -1.999000e+02 -3.290896e+00 1.100000e+01
        vertex -1.947091e+02 1.900000e+00 1.100000e+01
    endloop
endfacet
facet normal 0.000000e+00 0.000000e+00 -1.000000e+00
    outer loop
        vertex -1.999000e+02 -3.290896e+00 1.100000e+01
        vertex -2.006870e+02 -2.687006e+00 1.100000e+01
        vertex -1.947091e+02 1.900000e+00 1.100000e+01
    endloop
endfacet
facet normal 0.000000e+00 0.000000e+00 -1.000000e+00
    outer loop
        vertex -2.006870e+02 -2.687006e+00 1.100000e+01
        vertex -2.012909e+02 -1.900000e+00 1.100000e+01
        vertex -1.947091e+02 1.900000e+00 1.100000e+01
    endloop
endfacet
facet normal 0.000000e+00 0.000000e+00 -1.000000e+00
    outer loop
        vertex -2.012909e+02 -1.900000e+00 1.100000e+01
        vertex -2.016705e+02 -9.835123e-01 1.100000e+01
        vertex -1.947091e+02 1.900000e+00 1.100000e+01
    endloop
endfacet
facet normal 0.000000e+00 0.000000e+00 -1.000000e+00
    outer loop
        vertex -2.016705e+02 -9.835123e-01 1.100000e+01
        vertex -2.018000e+02 0.000000e+00 1.100000e+01
        vertex -1.947091e+02 1.900000e+00 1.100000e+01
    endloop
endfacet
facet normal 0.000000e+00 0.000000e+00 -1.000000e+00
    outer loop
        vertex -2.018000e+02 0.000000e+00 1.100000e+01
        vertex -2.016705e+02 9.835123e-01 1.100000e+01
        vertex -1.947091e+02 1.900000e+00 1.100000e+01
    endloop
endfacet
facet normal 0.000000e+00 0.000000e+00 -1.000000e+00
    outer loop
        vertex -2.016705e+02 9.835123e-01 1.100000e+01
        vertex -2.012909e+02 1.900000e+00 1.100000e+01
        vertex -1.947091e+02 1.900000e+00 1.100000e+01
    endloop
endfacet
facet normal 0.000000e+00 0.000000e+00 -1.000000e+00
    outer loop
        vertex -1.947091e+02 1.900000e+00 1.100000e+01
        vertex -2.012909e+02 1.900000e+00 1.100000e+01
        vertex -2.006870e+02 2.687006e+00 1.100000e+01
    endloop
endfacet
facet normal 0.000000e+00 0.000000e+00 -1.000000e+00
    outer loop
        vertex -1.947091e+02 1.900000e+00 1.100000e+01
        vertex -2.006870e+02 2.687006e+00 1.100000e+01
        vertex -1.999000e+02 3.290896e+00 1.100000e+01
    endloop
endfacet
facet normal 0.000000e+00 0.000000e+00 -1.000000e+00
    outer loop
        vertex -1.947091e+02 1.900000e+00 1.100000e+01
        vertex -1.999000e+02 3.290896e+00 1.100000e+01
        vertex -1.953130e+02 2.687006e+00 1.100000e+01
    endloop
endfacet
facet normal 0.000000e+00 0.000000e+00 -1.000000e+00
    outer loop
        vertex -1.953130e+02 2.687006e+00 1.100000e+01
        vertex -1.999000e+02 3.290896e+00 1.100000e+01
        vertex -1.989835e+02 3.670518e+00 1.100000e+01
    endloop
endfacet
facet normal 0.000000e+00 0.000000e+00 -1.000000e+00
    outer loop
        vertex -1.953130e+02 2.687006e+00 1.100000e+01
        vertex -1.989835e+02 3.670518e+00 1.100000e+01
        vertex -1.961000e+02 3.290896e+00 1.100000e+01
    endloop
endfacet
facet normal 0.000000e+00 0.000000e+00 -1.000000e+00
    outer loop
        vertex -1.970165e+02 3.670518e+00 1.100000e+01
        vertex -1.989835e+02 3.670518e+00 1.100000e+01
        vertex -1.980000e+02 3.800000e+00 1.100000e+01
    endloop
endfacet
facet normal 0.000000e+00 0.000000e+00 -1.000000e+00
    outer loop
        vertex -1.961000e+02 3.290896e+00 1.100000e+01
        vertex -1.989835e+02 3.670518e+00 1.100000e+01
        vertex -1.970165e+02 3.670518e+00 1.100000e+01
    endloop
endfacet
facet normal 9.914443e-01 1.305304e-01 -0.000000e+00
    outer loop
        vertex -1.942000e+02 0.000000e+00 1.100000e+01
        vertex -1.943295e+02 9.835123e-01 1.100000e+01
        vertex -1.942000e+02 0.000000e+00 3.550000e+01
    endloop
endfacet
facet normal 9.914443e-01 1.305304e-01 0.000000e+00
    outer loop
        vertex -1.942000e+02 0.000000e+00 3.550000e+01
        vertex -1.943295e+02 9.835123e-01 1.100000e+01
        vertex -1.943295e+02 9.835123e-01 3.550000e+01
    endloop
endfacet
facet normal 9.238789e-01 3.826850e-01 -0.000000e+00
    outer loop
        vertex -1.943295e+02 9.835123e-01 1.100000e+01
        vertex -1.947091e+02 1.900000e+00 1.100000e+01
        vertex -1.943295e+02 9.835123e-01 3.550000e+01
    endloop
endfacet
facet normal 9.238789e-01 3.826850e-01 0.000000e+00
    outer loop
        vertex -1.943295e+02 9.835123e-01 3.550000e+01
        vertex -1.947091e+02 1.900000e+00 1.100000e+01
        vertex -1.947091e+02 1.900000e+00 3.550000e+01
    endloop
endfacet
facet normal 7.933577e-01 6.087558e-01 -0.000000e+00
    outer loop
        vertex -1.947091e+02 1.900000e+00 1.100000e+01
        vertex -1.953130e+02 2.687006e+00 1.100000e+01
        vertex -1.947091e+02 1.900000e+00 3.550000e+01
    endloop
endfacet
facet normal 7.933577e-01 6.087558e-01 0.000000e+00
    outer loop
        vertex -1.947091e+02 1.900000e+00 3.550000e+01
        vertex -1.953130e+02 2.687006e+00 1.100000e+01
        vertex -1.953130e+02 2.687006e+00 3.550000e+01
    endloop
endfacet
facet normal 6.087555e-01 7.933579e-01 -0.000000e+00
    outer loop
        vertex -1.953130e+02 2.687006e+00 1.100000e+01
        vertex -1.961000e+02 3.290896e+00 1.100000e+01
        vertex -1.953130e+02 2.687006e+00 3.550000e+01
    endloop
endfacet
facet normal 6.087555e-01 7.933579e-01 0.000000e+00
    outer loop
        vertex -1.953130e+02 2.687006e+00 3.550000e+01
        vertex -1.961000e+02 3.290896e+00 1.100000e+01
        vertex -1.961000e+02 3.290896e+00 3.550000e+01
    endloop
endfacet
facet normal -6.087555e-01 7.933579e-01 0.000000e+00
    outer loop
        vertex -2.006870e+02 2.687006e+00 1.100000e+01
        vertex -2.006870e+02 2.687006e+00 3.550000e+01
        vertex -1.999000e+02 3.290896e+00 1.100000e+01
    endloop
endfacet
facet normal -6.087555e-01 7.933579e-01 0.000000e+00
    outer loop
        vertex -2.006870e+02 2.687006e+00 3.550000e+01
        vertex -1.999000e+02 3.290896e+00 3.550000e+01
        vertex -1.999000e+02 3.290896e+00 1.100000e+01
    endloop
endfacet
facet normal -7.933577e-01 6.087558e-01 0.000000e+00
    outer loop
        vertex -2.012909e+02 1.900000e+00 1.100000e+01
        vertex -2.012909e+02 1.900000e+00 3.550000e+01
        vertex -2.006870e+02 2.687006e+00 1.100000e+01
    endloop
endfacet
facet normal -7.933577e-01 6.087558e-01 0.000000e+00
    outer loop
        vertex -2.012909e+02 1.900000e+00 3.550000e+01
        vertex -2.006870e+02 2.687006e+00 3.550000e+01
        vertex -2.006870e+02 2.687006e+00 1.100000e+01
    endloop
endfacet
facet normal -9.238789e-01 3.826850e-01 0.000000e+00
    outer loop
        vertex -2.016705e+02 9.835123e-01 1.100000e+01
        vertex -2.016705e+02 9.835123e-01 3.550000e+01
        vertex -2.012909e+02 1.900000e+00 1.100000e+01
    endloop
endfacet
facet normal -9.238789e-01 3.826850e-01 0.000000e+00
    outer loop
        vertex -2.016705e+02 9.835123e-01 3.550000e+01
        vertex -2.012909e+02 1.900000e+00 3.550000e+01
        vertex -2.012909e+02 1.900000e+00 1.100000e+01
    endloop
endfacet
facet normal -9.914443e-01 1.305304e-01 0.000000e+00
    outer loop
        vertex -2.018000e+02 0.000000e+00 1.100000e+01
        vertex -2.018000e+02 0.000000e+00 3.550000e+01
        vertex -2.016705e+02 9.835123e-01 1.100000e+01
    endloop
endfacet
facet normal -9.914443e-01 1.305304e-01 0.000000e+00
    outer loop
        vertex -2.018000e+02 0.000000e+00 3.550000e+01
        vertex -2.016705e+02 9.835123e-01 3.550000e+01
        vertex -2.016705e+02 9.835123e-01 1.100000e+01
    endloop
endfacet
facet normal -9.914443e-01 -1.305304e-01 0.000000e+00
    outer loop
        vertex -2.016705e+02 -9.835123e-01 1.100000e+01
        vertex -2.016705e+02 -9.835123e-01 3.550000e+01
        vertex -2.018000e+02 0.000000e+00 1.100000e+01
    endloop
endfacet
facet normal -9.914443e-01 -1.305304e-01 0.000000e+00
    outer loop
        vertex -2.016705e+02 -9.835123e-01 3.550000e+01
        vertex -2.018000e+02 0.000000e+00 3.550000e+01
        vertex -2.018000e+02 0.000000e+00 1.100000e+01
    endloop
endfacet
facet normal -9.238789e-01 -3.826850e-01 0.000000e+00
    outer loop
        vertex -2.012909e+02 -1.900000e+00 1.100000e+01
        vertex -2.012909e+02 -1.900000e+00 3.550000e+01
        vertex -2.016705e+02 -9.835123e-01 1.100000e+01
    endloop
endfacet
facet normal -9.238789e-01 -3.826850e-01 0.000000e+00
    outer loop
        vertex -2.012909e+02 -1.900000e+00 3.550000e+01
        vertex -2.016705e+02 -9.835123e-01 3.550000e+01
        vertex -2.016705e+02 -9.835123e-01 1.100000e+01
    endloop
endfacet
facet normal -7.933577e-01 -6.087558e-01 0.000000e+00
    outer loop
        vertex -2.006870e+02 -2.687006e+00 1.100000e+01
        vertex -2.006870e+02 -2.687006e+00 3.550000e+01
        vertex -2.012909e+02 -1.900000e+00 1.100000e+01
    endloop
endfacet
facet normal -7.933577e-01 -6.087558e-01 0.000000e+00
    outer loop
        vertex -2.006870e+02 -2.687006e+00 3.550000e+01
        vertex -2.012909e+02 -1.900000e+00 3.550000e+01
        vertex -2.012909e+02 -1.900000e+00 1.100000e+01
    endloop
endfacet
facet normal -6.087555e-01 -7.933579e-01 0.000000e+00
    outer loop
        vertex -1.999000e+02 -3.290896e+00 1.100000e+01
        vertex -1.999000e+02 -3.290896e+00 3.550000e+01
        vertex -2.006870e+02 -2.687006e+00 1.100000e+01
    endloop
endfacet
facet normal -6.087555e-01 -7.933579e-01 0.000000e+00
    outer loop
        vertex -1.999000e+02 -3.290896e+00 3.550000e+01
        vertex -2.006870e+02 -2.687006e+00 3.550000e+01
        vertex -2.006870e+02 -2.687006e+00 1.100000e+01
    endloop
endfacet
facet normal 6.087555e-01 -7.933579e-01 0.000000e+00
    outer loop
        vertex -1.961000e+02 -3.290896e+00 1.100000e+01
        vertex -1.953130e+02 -2.687006e+00 1.100000e+01
        vertex -1.961000e+02 -3.290896e+00 3.550000e+01
    endloop
endfacet
facet normal 6.087555e-01 -7.933579e-01 0.000000e+00
    outer loop
        vertex -1.961000e+02 -3.290896e+00 3.550000e+01
        vertex -1.953130e+02 -2.687006e+00 1.100000e+01
        vertex -1.953130e+02 -2.687006e+00 3.550000e+01
    endloop
endfacet
facet normal 7.933577e-01 -6.087558e-01 0.000000e+00
    outer loop
        vertex -1.953130e+02 -2.687006e+00 1.100000e+01
        vertex -1.947091e+02 -1.900000e+00 1.100000e+01
        vertex -1.953130e+02 -2.687006e+00 3.550000e+01
    endloop
endfacet
facet normal 7.933577e-01 -6.087558e-01 0.000000e+00
    outer loop
        vertex -1.953130e+02 -2.687006e+00 3.550000e+01
        vertex -1.947091e+02 -1.900000e+00 1.100000e+01
        vertex -1.947091e+02 -1.900000e+00 3.550000e+01
    endloop
endfacet
facet normal 9.238789e-01 -3.826850e-01 0.000000e+00
    outer loop
        vertex -1.947091e+02 -1.900000e+00 1.100000e+01
        vertex -1.943295e+02 -9.835123e-01 1.100000e+01
        vertex -1.947091e+02 -1.900000e+00 3.550000e+01
    endloop
endfacet
facet normal 9.238789e-01 -3.826850e-01 0.000000e+00
    outer loop
        vertex -1.947091e+02 -1.900000e+00 3.550000e+01
        vertex -1.943295e+02 -9.835123e-01 1.100000e+01
        vertex -1.943295e+02 -9.835123e-01 3.550000e+01
    endloop
endfacet
facet normal 9.914443e-01 -1.305304e-01 0.000000e+00
    outer loop
        vertex -1.943295e+02 -9.835123e-01 1.100000e+01
        vertex -1.942000e+02 0.000000e+00 1.100000e+01
        vertex -1.943295e+02 -9.835123e-01 3.550000e+01
    endloop
endfacet
facet normal 9.914443e-01 -1.305304e-01 0.000000e+00
    outer loop
        vertex -1.943295e+02 -9.835123e-01 3.550000e+01
        vertex -1.942000e+02 0.000000e+00 1.100000e+01
        vertex -1.942000e+02 0.000000e+00 3.550000e+01
    endloop
endfacet
facet normal 0.000000e+00 0.000000e+00 1.000000e+00
    outer loop
        vertex -1.955826e+02 1.395688e+00 3.650000e+01
        vertex -1.960262e+02 1.973797e+00 3.650000e+01
        vertex -1.966043e+02 2.417397e+00 3.650000e+01
    endloop
endfacet
facet normal 0.000000e+00 0.000000e+00 1.000000e+00
    outer loop
        vertex -1.953037e+02 7.224571e-01 3.650000e+01
        vertex -1.955826e+02 1.395688e+00 3.650000e+01
        vertex -1.966043e+02 2.417397e+00 3.650000e+01
    endloop
endfacet
facet normal 0.000000e+00 0.000000e+00 1.000000e+00
    outer loop
        vertex -1.952086e+02 0.000000e+00 3.650000e+01
        vertex -1.953037e+02 7.224571e-01 3.650000e+01
        vertex -1.966043e+02 2.417397e+00 3.650000e+01
    endloop
endfacet
facet normal 0.000000e+00 -0.000000e+00 1.000000e+00
    outer loop
        vertex -1.953037e+02 -7.224571e-01 3.650000e+01
        vertex -1.952086e+02 0.000000e+00 3.650000e+01
        vertex -1.966043e+02 2.417397e+00 3.650000e+01
    endloop
endfacet
facet normal 0.000000e+00 -0.000000e+00 1.000000e+00
    outer loop
        vertex -1.955826e+02 -1.395688e+00 3.650000e+01
        vertex -1.953037e+02 -7.224571e-01 3.650000e+01
        vertex -1.966043e+02 2.417397e+00 3.650000e+01
    endloop
endfacet
facet normal 0.000000e+00 0.000000e+00 1.000000e+00
    outer loop
        vertex -1.955826e+02 -1.395688e+00 3.650000e+01
        vertex -1.966043e+02 2.417397e+00 3.650000e+01
        vertex -1.972775e+02 2.696258e+00 3.650000e+01
    endloop
endfacet
facet normal 0.000000e+00 0.000000e+00 1.000000e+00
    outer loop
        vertex -1.955826e+02 -1.395688e+00 3.650000e+01
        vertex -1.972775e+02 2.696258e+00 3.650000e+01
        vertex -1.980000e+02 2.791371e+00 3.650000e+01
    endloop
endfacet
facet normal 0.000000e+00 0.000000e+00 1.000000e+00
    outer loop
        vertex -1.955826e+02 -1.395688e+00 3.650000e+01
        vertex -1.980000e+02 2.791371e+00 3.650000e+01
        vertex -1.987225e+02 2.696258e+00 3.650000e+01
    endloop
endfacet
facet normal 0.000000e+00 0.000000e+00 1.000000e+00
    outer loop
        vertex -1.955826e+02 -1.395688e+00 3.650000e+01
        vertex -1.987225e+02 2.696258e+00 3.650000e+01
        vertex -1.993957e+02 2.417397e+00 3.650000e+01
    endloop
endfacet
facet normal 0.000000e+00 0.000000e+00 1.000000e+00
    outer loop
        vertex -1.955826e+02 -1.395688e+00 3.650000e+01
        vertex -1.993957e+02 2.417397e+00 3.650000e+01
        vertex -1.999738e+02 1.973797e+00 3.650000e+01
    endloop
endfacet
facet normal 0.000000e+00 0.000000e+00 1.000000e+00
    outer loop
        vertex -1.955826e+02 -1.395688e+00 3.650000e+01
        vertex -1.999738e+02 1.973797e+00 3.650000e+01
        vertex -2.004174e+02 1.395688e+00 3.650000e+01
    endloop
endfacet
facet normal 0.000000e+00 0.000000e+00 1.000000e+00
    outer loop
        vertex -1.955826e+02 -1.395688e+00 3.650000e+01
        vertex -2.004174e+02 1.395688e+00 3.650000e+01
        vertex -2.006963e+02 7.224571e-01 3.650000e+01
    endloop
endfacet
facet normal 0.000000e+00 0.000000e+00 1.000000e+00
    outer loop
        vertex -1.955826e+02 -1.395688e+00 3.650000e+01
        vertex -2.006963e+02 7.224571e-01 3.650000e+01
        vertex -2.007914e+02 0.000000e+00 3.650000e+01
    endloop
endfacet
facet normal 0.000000e+00 0.000000e+00 1.000000e+00
    outer loop
        vertex -1.955826e+02 -1.395688e+00 3.650000e+01
        vertex -2.007914e+02 0.000000e+00 3.650000e+01
        vertex -2.006963e+02 -7.224571e-01 3.650000e+01
    endloop
endfacet
facet normal 0.000000e+00 0.000000e+00 1.000000e+00
    outer loop
        vertex -1.955826e+02 -1.395688e+00 3.650000e+01
        vertex -2.006963e+02 -7.224571e-01 3.650000e+01
        vertex -2.004174e+02 -1.395688e+00 3.650000e+01
    endloop
endfacet
facet normal 0.000000e+00 -0.000000e+00 1.000000e+00
    outer loop
        vertex -1.999738e+02 -1.973797e+00 3.650000e+01
        vertex -1.955826e+02 -1.395688e+00 3.650000e+01
        vertex -2.004174e+02 -1.395688e+00 3.650000e+01
    endloop
endfacet
facet normal 0.000000e+00 -0.000000e+00 1.000000e+00
    outer loop
        vertex -1.993957e+02 -2.417397e+00 3.650000e+01
        vertex -1.955826e+02 -1.395688e+00 3.650000e+01
        vertex -1.999738e+02 -1.973797e+00 3.650000e+01
    endloop
endfacet
facet normal 0.000000e+00 -0.000000e+00 1.000000e+00
    outer loop
        vertex -1.987225e+02 -2.696258e+00 3.650000e+01
        vertex -1.955826e+02 -1.395688e+00 3.650000e+01
        vertex -1.993957e+02 -2.417397e+00 3.650000e+01
    endloop
endfacet
facet normal 0.000000e+00 0.000000e+00 1.000000e+00
    outer loop
        vertex -1.987225e+02 -2.696258e+00 3.650000e+01
        vertex -1.960262e+02 -1.973797e+00 3.650000e+01
        vertex -1.955826e+02 -1.395688e+00 3.650000e+01
    endloop
endfacet
facet normal 0.000000e+00 0.000000e+00 1.000000e+00
    outer loop
        vertex -1.987225e+02 -2.696258e+00 3.650000e+01
        vertex -1.966043e+02 -2.417397e+00 3.650000e+01
        vertex -1.960262e+02 -1.973797e+00 3.650000e+01
    endloop
endfacet
facet normal 0.000000e+00 -0.000000e+00 1.000000e+00
    outer loop
        vertex -1.980000e+02 -2.791371e+00 3.650000e+01
        vertex -1.966043e+02 -2.417397e+00 3.650000e+01
        vertex -1.987225e+02 -2.696258e+00 3.650000e+01
    endloop
endfacet
facet normal 0.000000e+00 0.000000e+00 1.000000e+00
    outer loop
        vertex -1.980000e+02 -2.791371e+00 3.650000e+01
        vertex -1.972775e+02 -2.696258e+00 3.650000e+01
        vertex -1.966043e+02 -2.417397e+00 3.650000e+01
    endloop
endfacet
facet normal 7.010575e-01 9.229898e-02 7.071063e-01
    outer loop
        vertex -1.942000e+02 0.000000e+00 3.550000e+01
        vertex -1.943295e+02 9.835123e-01 3.550000e+01
        vertex -1.953037e+02 7.224571e-01 3.650000e+01
    endloop
endfacet
facet normal 7.010551e-01 9.229056e-02 7.071097e-01
    outer loop
        vertex -1.942000e+02 0.000000e+00 3.550000e+01
        vertex -1.953037e+02 7.224571e-01 3.650000e+01
        vertex -1.952086e+02 0.000000e+00 3.650000e+01
    endloop
endfacet
facet normal 7.010575e-01 -9.229898e-02 7.071063e-01
    outer loop
        vertex -1.943295e+02 -9.835123e-01 3.550000e+01
        vertex -1.942000e+02 0.000000e+00 3.550000e+01
        vertex -1.953037e+02 -7.224571e-01 3.650000e+01
    endloop
endfacet
facet normal 7.010551e-01 -9.229056e-02 7.071097e-01
    outer loop
        vertex -1.953037e+02 -7.224571e-01 3.650000e+01
        vertex -1.942000e+02 0.000000e+00 3.550000e+01
        vertex -1.952086e+02 0.000000e+00 3.650000e+01
    endloop
endfacet
facet normal 6.532815e-01 -2.705993e-01 7.071064e-01
    outer loop
        vertex -1.947091e+02 -1.900000e+00 3.550000e+01
        vertex -1.943295e+02 -9.835123e-01 3.550000e+01
        vertex -1.953037e+02 -7.224571e-01 3.650000e+01
    endloop
endfacet
facet normal 6.532766e-01 -2.706040e-01 7.071090e-01
    outer loop
        vertex -1.947091e+02 -1.900000e+00 3.550000e+01
        vertex -1.953037e+02 -7.224571e-01 3.650000e+01
        vertex -1.955826e+02 -1.395688e+00 3.650000e+01
    endloop
endfacet
facet normal 5.609881e-01 -4.304550e-01 7.071074e-01
    outer loop
        vertex -1.953130e+02 -2.687006e+00 3.550000e+01
        vertex -1.947091e+02 -1.900000e+00 3.550000e+01
        vertex -1.960262e+02 -1.973797e+00 3.650000e+01
    endloop
endfacet
facet normal 5.609888e-01 -4.304522e-01 7.071085e-01
    outer loop
        vertex -1.960262e+02 -1.973797e+00 3.650000e+01
        vertex -1.947091e+02 -1.900000e+00 3.550000e+01
        vertex -1.955826e+02 -1.395688e+00 3.650000e+01
    endloop
endfacet
facet normal 4.304549e-01 -5.609884e-01 7.071072e-01
    outer loop
        vertex -1.961000e+02 -3.290896e+00 3.550000e+01
        vertex -1.953130e+02 -2.687006e+00 3.550000e+01
        vertex -1.960262e+02 -1.973797e+00 3.650000e+01
    endloop
endfacet
facet normal 4.304515e-01 -5.609893e-01 7.071086e-01
    outer loop
        vertex -1.961000e+02 -3.290896e+00 3.550000e+01
        vertex -1.960262e+02 -1.973797e+00 3.650000e+01
        vertex -1.966043e+02 -2.417397e+00 3.650000e+01
    endloop
endfacet
facet normal 2.705981e-01 -6.532822e-01 7.071061e-01
    outer loop
        vertex -1.970165e+02 -3.670518e+00 3.550000e+01
        vertex -1.961000e+02 -3.290896e+00 3.550000e+01
        vertex -1.972775e+02 -2.696258e+00 3.650000e+01
    endloop
endfacet
facet normal 2.706018e-01 -6.532785e-01 7.071081e-01
    outer loop
        vertex -1.961000e+02 -3.290896e+00 3.550000e+01
        vertex -1.966043e+02 -2.417397e+00 3.650000e+01
        vertex -1.972775e+02 -2.696258e+00 3.650000e+01
    endloop
endfacet
facet normal 9.229656e-02 -7.010573e-01 7.071068e-01
    outer loop
        vertex -1.980000e+02 -3.800000e+00 3.550000e+01
        vertex -1.970165e+02 -3.670518e+00 3.550000e+01
        vertex -1.980000e+02 -2.791371e+00 3.650000e+01
    endloop
endfacet
facet normal 9.229589e-02 -7.010577e-01 7.071065e-01
    outer loop
        vertex -1.970165e+02 -3.670518e+00 3.550000e+01
        vertex -1.972775e+02 -2.696258e+00 3.650000e+01
        vertex -1.980000e+02 -2.791371e+00 3.650000e+01
    endloop
endfacet
facet normal -9.229656e-02 -7.010573e-01 7.071068e-01
    outer loop
        vertex -1.980000e+02 -3.800000e+00 3.550000e+01
        vertex -1.980000e+02 -2.791371e+00 3.650000e+01
        vertex -1.989835e+02 -3.670518e+00 3.550000e+01
    endloop
endfacet
facet normal -9.229589e-02 -7.010577e-01 7.071065e-01
    outer loop
        vertex -1.989835e+02 -3.670518e+00 3.550000e+01
        vertex -1.980000e+02 -2.791371e+00 3.650000e+01
        vertex -1.987225e+02 -2.696258e+00 3.650000e+01
    endloop
endfacet
facet normal -2.705981e-01 -6.532822e-01 7.071061e-01
    outer loop
        vertex -1.989835e+02 -3.670518e+00 3.550000e+01
        vertex -1.987225e+02 -2.696258e+00 3.650000e+01
        vertex -1.999000e+02 -3.290896e+00 3.550000e+01
    endloop
endfacet
facet normal -2.706018e-01 -6.532785e-01 7.071081e-01
    outer loop
        vertex -1.999000e+02 -3.290896e+00 3.550000e+01
        vertex -1.987225e+02 -2.696258e+00 3.650000e+01
        vertex -1.993957e+02 -2.417397e+00 3.650000e+01
    endloop
endfacet
facet normal -4.304515e-01 -5.609893e-01 7.071086e-01
    outer loop
        vertex -1.999000e+02 -3.290896e+00 3.550000e+01
        vertex -1.993957e+02 -2.417397e+00 3.650000e+01
        vertex -1.999738e+02 -1.973797e+00 3.650000e+01
    endloop
endfacet
facet normal -4.304549e-01 -5.609884e-01 7.071072e-01
    outer loop
        vertex -1.999000e+02 -3.290896e+00 3.550000e+01
        vertex -1.999738e+02 -1.973797e+00 3.650000e+01
        vertex -2.006870e+02 -2.687006e+00 3.550000e+01
    endloop
endfacet
facet normal -5.609881e-01 -4.304550e-01 7.071074e-01
    outer loop
        vertex -2.006870e+02 -2.687006e+00 3.550000e+01
        vertex -1.999738e+02 -1.973797e+00 3.650000e+01
        vertex -2.012909e+02 -1.900000e+00 3.550000e+01
    endloop
endfacet
facet normal -5.609888e-01 -4.304522e-01 7.071085e-01
    outer loop
        vertex -1.999738e+02 -1.973797e+00 3.650000e+01
        vertex -2.004174e+02 -1.395688e+00 3.650000e+01
        vertex -2.012909e+02 -1.900000e+00 3.550000e+01
    endloop
endfacet
facet normal -6.532766e-01 -2.706040e-01 7.071090e-01
    outer loop
        vertex -2.012909e+02 -1.900000e+00 3.550000e+01
        vertex -2.004174e+02 -1.395688e+00 3.650000e+01
        vertex -2.006963e+02 -7.224571e-01 3.650000e+01
    endloop
endfacet
facet normal -6.532815e-01 -2.705993e-01 7.071064e-01
    outer loop
        vertex -2.012909e+02 -1.900000e+00 3.550000e+01
        vertex -2.006963e+02 -7.224571e-01 3.650000e+01
        vertex -2.016705e+02 -9.835123e-01 3.550000e+01
    endloop
endfacet
facet normal -7.010575e-01 -9.229898e-02 7.071063e-01
    outer loop
        vertex -2.016705e+02 -9.835123e-01 3.550000e+01
        vertex -2.006963e+02 -7.224571e-01 3.650000e+01
        vertex -2.018000e+02 0.000000e+00 3.550000e+01
    endloop
endfacet
facet normal -7.010551e-01 -9.229056e-02 7.071097e-01
    outer loop
        vertex -2.006963e+02 -7.224571e-01 3.650000e+01
        vertex -2.007914e+02 0.000000e+00 3.650000e+01
        vertex -2.018000e+02 0.000000e+00 3.550000e+01
    endloop
endfacet
facet normal -7.010551e-01 9.229056e-02 7.071097e-01
    outer loop
        vertex -2.018000e+02 0.000000e+00 3.550000e+01
        vertex -2.007914e+02 0.000000e+00 3.650000e+01
        vertex -2.006963e+02 7.224571e-01 3.650000e+01
    endloop
endfacet
facet normal -7.010575e-01 9.229898e-02 7.071063e-01
    outer loop
        vertex -2.018000e+02 0.000000e+00 3.550000e+01
        vertex -2.006963e+02 7.224571e-01 3.650000e+01
        vertex -2.016705e+02 9.835123e-01 3.550000e+01
    endloop
endfacet
facet normal -6.532815e-01 2.705993e-01 7.071064e-01
    outer loop
        vertex -2.006963e+02 7.224571e-01 3.650000e+01
        vertex -2.012909e+02 1.900000e+00 3.550000e+01
        vertex -2.016705e+02 9.835123e-01 3.550000e+01
    endloop
endfacet
facet normal -6.532766e-01 2.706040e-01 7.071090e-01
    outer loop
        vertex -2.006963e+02 7.224571e-01 3.650000e+01
        vertex -2.004174e+02 1.395688e+00 3.650000e+01
        vertex -2.012909e+02 1.900000e+00 3.550000e+01
    endloop
endfacet
facet normal -5.609888e-01 4.304522e-01 7.071085e-01
    outer loop
        vertex -2.004174e+02 1.395688e+00 3.650000e+01
        vertex -1.999738e+02 1.973797e+00 3.650000e+01
        vertex -2.012909e+02 1.900000e+00 3.550000e+01
    endloop
endfacet
facet normal -5.609881e-01 4.304550e-01 7.071074e-01
    outer loop
        vertex -2.012909e+02 1.900000e+00 3.550000e+01
        vertex -1.999738e+02 1.973797e+00 3.650000e+01
        vertex -2.006870e+02 2.687006e+00 3.550000e+01
    endloop
endfacet
facet normal -4.304549e-01 5.609884e-01 7.071072e-01
    outer loop
        vertex -1.999738e+02 1.973797e+00 3.650000e+01
        vertex -1.999000e+02 3.290896e+00 3.550000e+01
        vertex -2.006870e+02 2.687006e+00 3.550000e+01
    endloop
endfacet
facet normal -4.304515e-01 5.609893e-01 7.071086e-01
    outer loop
        vertex -1.999738e+02 1.973797e+00 3.650000e+01
        vertex -1.993957e+02 2.417397e+00 3.650000e+01
        vertex -1.999000e+02 3.290896e+00 3.550000e+01
    endloop
endfacet
facet normal -2.706018e-01 6.532785e-01 7.071081e-01
    outer loop
        vertex -1.993957e+02 2.417397e+00 3.650000e+01
        vertex -1.987225e+02 2.696258e+00 3.650000e+01
        vertex -1.999000e+02 3.290896e+00 3.550000e+01
    endloop
endfacet
facet normal -2.705981e-01 6.532822e-01 7.071061e-01
    outer loop
        vertex -1.987225e+02 2.696258e+00 3.650000e+01
        vertex -1.989835e+02 3.670518e+00 3.550000e+01
        vertex -1.999000e+02 3.290896e+00 3.550000e+01
    endloop
endfacet
facet normal -9.229589e-02 7.010577e-01 7.071065e-01
    outer loop
        vertex -1.987225e+02 2.696258e+00 3.650000e+01
        vertex -1.980000e+02 2.791371e+00 3.650000e+01
        vertex -1.989835e+02 3.670518e+00 3.550000e+01
    endloop
endfacet
facet normal -9.229656e-02 7.010573e-01 7.071068e-01
    outer loop
        vertex -1.980000e+02 2.791371e+00 3.650000e+01
        vertex -1.980000e+02 3.800000e+00 3.550000e+01
        vertex -1.989835e+02 3.670518e+00 3.550000e+01
    endloop
endfacet
facet normal 9.229656e-02 7.010573e-01 7.071068e-01
    outer loop
        vertex -1.980000e+02 2.791371e+00 3.650000e+01
        vertex -1.970165e+02 3.670518e+00 3.550000e+01
        vertex -1.980000e+02 3.800000e+00 3.550000e+01
    endloop
endfacet
facet normal 9.229589e-02 7.010577e-01 7.071065e-01
    outer loop
        vertex -1.972775e+02 2.696258e+00 3.650000e+01
        vertex -1.970165e+02 3.670518e+00 3.550000e+01
        vertex -1.980000e+02 2.791371e+00 3.650000e+01
    endloop
endfacet
facet normal 2.705981e-01 6.532822e-01 7.071061e-01
    outer loop
        vertex -1.972775e+02 2.696258e+00 3.650000e+01
        vertex -1.961000e+02 3.290896e+00 3.550000e+01
        vertex -1.970165e+02 3.670518e+00 3.550000e+01
    endloop
endfacet
facet normal 2.706018e-01 6.532785e-01 7.071081e-01
    outer loop
        vertex -1.966043e+02 2.417397e+00 3.650000e+01
        vertex -1.961000e+02 3.290896e+00 3.550000e+01
        vertex -1.972775e+02 2.696258e+00 3.650000e+01
    endloop
endfacet
facet normal 4.304549e-01 5.609884e-01 7.071072e-01
    outer loop
        vertex -1.960262e+02 1.973797e+00 3.650000e+01
        vertex -1.953130e+02 2.687006e+00 3.550000e+01
        vertex -1.961000e+02 3.290896e+00 3.550000e+01
    endloop
endfacet
facet normal 4.304515e-01 5.609893e-01 7.071086e-01
    outer loop
        vertex -1.960262e+02 1.973797e+00 3.650000e+01
        vertex -1.961000e+02 3.290896e+00 3.550000e+01
        vertex -1.966043e+02 2.417397e+00 3.650000e+01
    endloop
endfacet
facet normal 5.609881e-01 4.304550e-01 7.071074e-01
    outer loop
        vertex -1.947091e+02 1.900000e+00 3.550000e+01
        vertex -1.953130e+02 2.687006e+00 3.550000e+01
        vertex -1.960262e+02 1.973797e+00 3.650000e+01
    endloop
endfacet
facet normal 5.609888e-01 4.304522e-01 7.071085e-01
    outer loop
        vertex -1.955826e+02 1.395688e+00 3.650000e+01
        vertex -1.947091e+02 1.900000e+00 3.550000e+01
        vertex -1.960262e+02 1.973797e+00 3.650000e+01
    endloop
endfacet
facet normal 6.532815e-01 2.705993e-01 7.071064e-01
    outer loop
        vertex -1.953037e+02 7.224571e-01 3.650000e+01
        vertex -1.943295e+02 9.835123e-01 3.550000e+01
        vertex -1.947091e+02 1.900000e+00 3.550000e+01
    endloop
endfacet
facet normal 6.532766e-01 2.706040e-01 7.071090e-01
    outer loop
        vertex -1.953037e+02 7.224571e-01 3.650000e+01
        vertex -1.947091e+02 1.900000e+00 3.550000e+01
        vertex -1.955826e+02 1.395688e+00 3.650000e+01
    endloop
endfacet
facet normal 3.826832e-01 9.238796e-01 0.000000e+00
    outer loop
        vertex -1.961000e+02 3.290896e+00 1.100000e+01
        vertex -1.970165e+02 3.670518e+00 1.100000e+01
        vertex -1.970165e+02 3.670518e+00 1.338014e+01
    endloop
endfacet
facet normal 3.826832e-01 9.238796e-01 0.000000e+00
    outer loop
        vertex -1.961000e+02 3.290896e+00 3.550000e+01
        vertex -1.970165e+02 3.670518e+00 1.561986e+01
        vertex -1.970165e+02 3.670518e+00 3.550000e+01
    endloop
endfacet
facet normal 3.826836e-01 9.238794e-01 1.855873e-07
    outer loop
        vertex -1.961000e+02 3.290896e+00 1.100000e+01
        vertex -1.970165e+02 3.670518e+00 1.338014e+01
        vertex -1.969393e+02 3.638562e+00 1.343934e+01
    endloop
endfacet
facet normal 3.826830e-01 9.238797e-01 -3.770246e-08
    outer loop
        vertex -1.961000e+02 3.290896e+00 1.100000e+01
        vertex -1.969393e+02 3.638562e+00 1.343934e+01
        vertex -1.967010e+02 3.539819e+00 1.375000e+01
    endloop
endfacet
facet normal 3.826834e-01 9.238796e-01 5.275416e-08
    outer loop
        vertex -1.961000e+02 3.290896e+00 1.100000e+01
        vertex -1.967010e+02 3.539819e+00 1.375000e+01
        vertex -1.965511e+02 3.477752e+00 1.411177e+01
    endloop
endfacet
facet normal 3.826826e-01 9.238799e-01 -8.751662e-08
    outer loop
        vertex -1.961000e+02 3.290896e+00 1.100000e+01
        vertex -1.965511e+02 3.477752e+00 1.411177e+01
        vertex -1.965000e+02 3.456579e+00 1.450000e+01
    endloop
endfacet
facet normal 3.826832e-01 9.238796e-01 -0.000000e+00
    outer loop
        vertex -1.961000e+02 3.290896e+00 1.100000e+01
        vertex -1.965000e+02 3.456579e+00 1.450000e+01
        vertex -1.961000e+02 3.290896e+00 3.550000e+01
    endloop
endfacet
facet normal 3.826837e-01 9.238794e-01 -2.780105e-08
    outer loop
        vertex -1.961000e+02 3.290896e+00 3.550000e+01
        vertex -1.969393e+02 3.638562e+00 1.556066e+01
        vertex -1.970165e+02 3.670518e+00 1.561986e+01
    endloop
endfacet
facet normal 3.826830e-01 9.238797e-01 6.333253e-09
    outer loop
        vertex -1.961000e+02 3.290896e+00 3.550000e+01
        vertex -1.967010e+02 3.539819e+00 1.525000e+01
        vertex -1.969393e+02 3.638562e+00 1.556066e+01
    endloop
endfacet
facet normal 3.826822e-01 9.238800e-01 2.380308e-08
    outer loop
        vertex -1.961000e+02 3.290896e+00 3.550000e+01
        vertex -1.965000e+02 3.456579e+00 1.450000e+01
        vertex -1.965511e+02 3.477752e+00 1.488823e+01
    endloop
endfacet
facet normal 3.826835e-01 9.238795e-01 -1.021228e-08
    outer loop
        vertex -1.961000e+02 3.290896e+00 3.550000e+01
        vertex -1.965511e+02 3.477752e+00 1.488823e+01
        vertex -1.967010e+02 3.539819e+00 1.525000e+01
    endloop
endfacet
facet normal 1.305270e-01 9.914448e-01 0.000000e+00
    outer loop
        vertex -1.970165e+02 3.670518e+00 3.550000e+01
        vertex -1.980000e+02 3.800000e+00 1.600000e+01
        vertex -1.980000e+02 3.800000e+00 3.550000e+01
    endloop
endfacet
facet normal 1.305270e-01 9.914448e-01 1.470999e-09
    outer loop
        vertex -1.970165e+02 3.670518e+00 3.550000e+01
        vertex -1.976118e+02 3.748888e+00 1.594889e+01
        vertex -1.980000e+02 3.800000e+00 1.600000e+01
    endloop
endfacet
facet normal 1.305268e-01 9.914448e-01 -0.000000e+00
    outer loop
        vertex -1.970165e+02 3.670518e+00 1.561986e+01
        vertex -1.972500e+02 3.701260e+00 1.579904e+01
        vertex -1.970165e+02 3.670518e+00 3.550000e+01
    endloop
endfacet
facet normal 1.305273e-01 9.914447e-01 -5.662417e-09
    outer loop
        vertex -1.970165e+02 3.670518e+00 3.550000e+01
        vertex -1.972500e+02 3.701260e+00 1.579904e+01
        vertex -1.976118e+02 3.748888e+00 1.594889e+01
    endloop
endfacet
facet normal 1.305270e-01 9.914448e-01 0.000000e+00
    outer loop
        vertex -1.970165e+02 3.670518e+00 1.100000e+01
        vertex -1.980000e+02 3.800000e+00 1.100000e+01
        vertex -1.980000e+02 3.800000e+00 1.300000e+01
    endloop
endfacet
facet normal 1.305270e-01 9.914448e-01 -1.355962e-08
    outer loop
        vertex -1.970165e+02 3.670518e+00 1.100000e+01
        vertex -1.980000e+02 3.800000e+00 1.300000e+01
        vertex -1.976118e+02 3.748888e+00 1.305111e+01
    endloop
endfacet
facet normal 1.305272e-01 9.914447e-01 4.878946e-08
    outer loop
        vertex -1.970165e+02 3.670518e+00 1.100000e+01
        vertex -1.976118e+02 3.748888e+00 1.305111e+01
        vertex -1.972500e+02 3.701260e+00 1.320096e+01
    endloop
endfacet
facet normal 1.305268e-01 9.914448e-01 -0.000000e+00
    outer loop
        vertex -1.970165e+02 3.670518e+00 1.100000e+01
        vertex -1.972500e+02 3.701260e+00 1.320096e+01
        vertex -1.970165e+02 3.670518e+00 1.338014e+01
    endloop
endfacet
facet normal -1.305270e-01 9.914448e-01 0.000000e+00
    outer loop
        vertex -1.989835e+02 3.670518e+00 3.550000e+01
        vertex -1.980000e+02 3.800000e+00 3.550000e+01
        vertex -1.980000e+02 3.800000e+00 1.600000e+01
    endloop
endfacet
facet normal -1.305270e-01 9.914448e-01 1.470999e-09
    outer loop
        vertex -1.989835e+02 3.670518e+00 3.550000e+01
        vertex -1.980000e+02 3.800000e+00 1.600000e+01
        vertex -1.983882e+02 3.748888e+00 1.594889e+01
    endloop
endfacet
facet normal -1.305273e-01 9.914447e-01 -5.662417e-09
    outer loop
        vertex -1.989835e+02 3.670518e+00 3.550000e+01
        vertex -1.983882e+02 3.748888e+00 1.594889e+01
        vertex -1.987500e+02 3.701260e+00 1.579904e+01
    endloop
endfacet
facet normal -1.305268e-01 9.914448e-01 0.000000e+00
    outer loop
        vertex -1.989835e+02 3.670518e+00 1.561986e+01
        vertex -1.989835e+02 3.670518e+00 3.550000e+01
        vertex -1.987500e+02 3.701260e+00 1.579904e+01
    endloop
endfacet
facet normal -1.305270e-01 9.914448e-01 0.000000e+00
    outer loop
        vertex -1.989835e+02 3.670518e+00 1.100000e+01
        vertex -1.980000e+02 3.800000e+00 1.300000e+01
        vertex -1.980000e+02 3.800000e+00 1.100000e+01
    endloop
endfacet
facet normal -1.305270e-01 9.914448e-01 -1.355962e-08
    outer loop
        vertex -1.989835e+02 3.670518e+00 1.100000e+01
        vertex -1.983882e+02 3.748888e+00 1.305111e+01
        vertex -1.980000e+02 3.800000e+00 1.300000e+01
    endloop
endfacet
facet normal -1.305268e-01 9.914448e-01 0.000000e+00
    outer loop
        vertex -1.989835e+02 3.670518e+00 1.100000e+01
        vertex -1.989835e+02 3.670518e+00 1.338014e+01
        vertex -1.987500e+02 3.701260e+00 1.320096e+01
    endloop
endfacet
facet normal -1.305272e-01 9.914447e-01 4.878946e-08
    outer loop
        vertex -1.989835e+02 3.670518e+00 1.100000e+01
        vertex -1.987500e+02 3.701260e+00 1.320096e+01
        vertex -1.983882e+02 3.748888e+00 1.305111e+01
    endloop
endfacet
facet normal -3.826832e-01 9.238796e-01 0.000000e+00
    outer loop
        vertex -1.999000e+02 3.290896e+00 1.100000e+01
        vertex -1.989835e+02 3.670518e+00 1.338014e+01
        vertex -1.989835e+02 3.670518e+00 1.100000e+01
    endloop
endfacet
facet normal -3.826832e-01 9.238796e-01 0.000000e+00
    outer loop
        vertex -1.999000e+02 3.290896e+00 3.550000e+01
        vertex -1.989835e+02 3.670518e+00 3.550000e+01
        vertex -1.989835e+02 3.670518e+00 1.561986e+01
    endloop
endfacet
facet normal -3.826836e-01 9.238794e-01 1.855873e-07
    outer loop
        vertex -1.999000e+02 3.290896e+00 1.100000e+01
        vertex -1.990607e+02 3.638562e+00 1.343934e+01
        vertex -1.989835e+02 3.670518e+00 1.338014e+01
    endloop
endfacet
facet normal -3.826830e-01 9.238797e-01 -3.770246e-08
    outer loop
        vertex -1.999000e+02 3.290896e+00 1.100000e+01
        vertex -1.992990e+02 3.539819e+00 1.375000e+01
        vertex -1.990607e+02 3.638562e+00 1.343934e+01
    endloop
endfacet
facet normal -3.826834e-01 9.238796e-01 5.275416e-08
    outer loop
        vertex -1.999000e+02 3.290896e+00 1.100000e+01
        vertex -1.994489e+02 3.477752e+00 1.411177e+01
        vertex -1.992990e+02 3.539819e+00 1.375000e+01
    endloop
endfacet
facet normal -3.826826e-01 9.238799e-01 -8.751662e-08
    outer loop
        vertex -1.999000e+02 3.290896e+00 1.100000e+01
        vertex -1.995000e+02 3.456579e+00 1.450000e+01
        vertex -1.994489e+02 3.477752e+00 1.411177e+01
    endloop
endfacet
facet normal -3.826832e-01 9.238796e-01 0.000000e+00
    outer loop
        vertex -1.999000e+02 3.290896e+00 1.100000e+01
        vertex -1.999000e+02 3.290896e+00 3.550000e+01
        vertex -1.995000e+02 3.456579e+00 1.450000e+01
    endloop
endfacet
facet normal -3.826837e-01 9.238794e-01 -2.780105e-08
    outer loop
        vertex -1.999000e+02 3.290896e+00 3.550000e+01
        vertex -1.989835e+02 3.670518e+00 1.561986e+01
        vertex -1.990607e+02 3.638562e+00 1.556066e+01
    endloop
endfacet
facet normal -3.826830e-01 9.238797e-01 6.333253e-09
    outer loop
        vertex -1.999000e+02 3.290896e+00 3.550000e+01
        vertex -1.990607e+02 3.638562e+00 1.556066e+01
        vertex -1.992990e+02 3.539819e+00 1.525000e+01
    endloop
endfacet
facet normal -3.826835e-01 9.238795e-01 -1.021228e-08
    outer loop
        vertex -1.999000e+02 3.290896e+00 3.550000e+01
        vertex -1.992990e+02 3.539819e+00 1.525000e+01
        vertex -1.994489e+02 3.477752e+00 1.488823e+01
    endloop
endfacet
facet normal -3.826822e-01 9.238800e-01 2.380308e-08
    outer loop
        vertex -1.999000e+02 3.290896e+00 3.550000e+01
        vertex -1.994489e+02 3.477752e+00 1.488823e+01
        vertex -1.995000e+02 3.456579e+00 1.450000e+01
    endloop
endfacet
facet normal -3.826832e-01 -9.238796e-01 0.000000e+00
    outer loop
        vertex -1.989835e+02 -3.670518e+00 1.100000e+01
        vertex -1.989835e+02 -3.670518e+00 1.338014e+01
        vertex -1.999000e+02 -3.290896e+00 1.100000e+01
    endloop
endfacet
facet normal -3.826832e-01 -9.238796e-01 0.000000e+00
    outer loop
        vertex -1.989835e+02 -3.670518e+00 1.561986e+01
        vertex -1.989835e+02 -3.670518e+00 3.550000e+01
        vertex -1.999000e+02 -3.290896e+00 3.550000e+01
    endloop
endfacet
facet normal -3.826836e-01 -9.238794e-01 1.855873e-07
    outer loop
        vertex -1.989835e+02 -3.670518e+00 1.338014e+01
        vertex -1.990607e+02 -3.638562e+00 1.343934e+01
        vertex -1.999000e+02 -3.290896e+00 1.100000e+01
    endloop
endfacet
facet normal -3.826830e-01 -9.238797e-01 -3.770246e-08
    outer loop
        vertex -1.990607e+02 -3.638562e+00 1.343934e+01
        vertex -1.992990e+02 -3.539819e+00 1.375000e+01
        vertex -1.999000e+02 -3.290896e+00 1.100000e+01
    endloop
endfacet
facet normal -3.826834e-01 -9.238796e-01 5.275416e-08
    outer loop
        vertex -1.992990e+02 -3.539819e+00 1.375000e+01
        vertex -1.994489e+02 -3.477752e+00 1.411177e+01
        vertex -1.999000e+02 -3.290896e+00 1.100000e+01
    endloop
endfacet
facet normal -3.826826e-01 -9.238799e-01 -8.751662e-08
    outer loop
        vertex -1.994489e+02 -3.477752e+00 1.411177e+01
        vertex -1.995000e+02 -3.456579e+00 1.450000e+01
        vertex -1.999000e+02 -3.290896e+00 1.100000e+01
    endloop
endfacet
facet normal -3.826832e-01 -9.238796e-01 0.000000e+00
    outer loop
        vertex -1.995000e+02 -3.456579e+00 1.450000e+01
        vertex -1.999000e+02 -3.290896e+00 3.550000e+01
        vertex -1.999000e+02 -3.290896e+00 1.100000e+01
    endloop
endfacet
facet normal -3.826837e-01 -9.238794e-01 -2.780105e-08
    outer loop
        vertex -1.989835e+02 -3.670518e+00 1.561986e+01
        vertex -1.999000e+02 -3.290896e+00 3.550000e+01
        vertex -1.990607e+02 -3.638562e+00 1.556066e+01
    endloop
endfacet
facet normal -3.826830e-01 -9.238797e-01 6.333253e-09
    outer loop
        vertex -1.990607e+02 -3.638562e+00 1.556066e+01
        vertex -1.999000e+02 -3.290896e+00 3.550000e+01
        vertex -1.992990e+02 -3.539819e+00 1.525000e+01
    endloop
endfacet
facet normal -3.826822e-01 -9.238800e-01 2.380308e-08
    outer loop
        vertex -1.994489e+02 -3.477752e+00 1.488823e+01
        vertex -1.999000e+02 -3.290896e+00 3.550000e+01
        vertex -1.995000e+02 -3.456579e+00 1.450000e+01
    endloop
endfacet
facet normal -3.826835e-01 -9.238795e-01 -1.021228e-08
    outer loop
        vertex -1.992990e+02 -3.539819e+00 1.525000e+01
        vertex -1.999000e+02 -3.290896e+00 3.550000e+01
        vertex -1.994489e+02 -3.477752e+00 1.488823e+01
    endloop
endfacet
facet normal -1.305270e-01 -9.914448e-01 0.000000e+00
    outer loop
        vertex -1.980000e+02 -3.800000e+00 1.600000e+01
        vertex -1.980000e+02 -3.800000e+00 3.550000e+01
        vertex -1.989835e+02 -3.670518e+00 3.550000e+01
    endloop
endfacet
facet normal -1.305270e-01 -9.914448e-01 1.470999e-09
    outer loop
        vertex -1.980000e+02 -3.800000e+00 1.600000e+01
        vertex -1.989835e+02 -3.670518e+00 3.550000e+01
        vertex -1.983882e+02 -3.748888e+00 1.594889e+01
    endloop
endfacet
facet normal -1.305268e-01 -9.914448e-01 0.000000e+00
    outer loop
        vertex -1.987500e+02 -3.701260e+00 1.579904e+01
        vertex -1.989835e+02 -3.670518e+00 3.550000e+01
        vertex -1.989835e+02 -3.670518e+00 1.561986e+01
    endloop
endfacet
facet normal -1.305273e-01 -9.914447e-01 -5.662417e-09
    outer loop
        vertex -1.983882e+02 -3.748888e+00 1.594889e+01
        vertex -1.989835e+02 -3.670518e+00 3.550000e+01
        vertex -1.987500e+02 -3.701260e+00 1.579904e+01
    endloop
endfacet
facet normal -1.305270e-01 -9.914448e-01 0.000000e+00
    outer loop
        vertex -1.980000e+02 -3.800000e+00 1.100000e+01
        vertex -1.980000e+02 -3.800000e+00 1.300000e+01
        vertex -1.989835e+02 -3.670518e+00 1.100000e+01
    endloop
endfacet
facet normal -1.305270e-01 -9.914448e-01 -1.355962e-08
    outer loop
        vertex -1.980000e+02 -3.800000e+00 1.300000e+01
        vertex -1.983882e+02 -3.748888e+00 1.305111e+01
        vertex -1.989835e+02 -3.670518e+00 1.100000e+01
    endloop
endfacet
facet normal -1.305272e-01 -9.914447e-01 4.878946e-08
    outer loop
        vertex -1.983882e+02 -3.748888e+00 1.305111e+01
        vertex -1.987500e+02 -3.701260e+00 1.320096e+01
        vertex -1.989835e+02 -3.670518e+00 1.100000e+01
    endloop
endfacet
facet normal -1.305268e-01 -9.914448e-01 0.000000e+00
    outer loop
        vertex -1.987500e+02 -3.701260e+00 1.320096e+01
        vertex -1.989835e+02 -3.670518e+00 1.338014e+01
        vertex -1.989835e+02 -3.670518e+00 1.100000e+01
    endloop
endfacet
facet normal 1.305270e-01 -9.914448e-01 0.000000e+00
    outer loop
        vertex -1.980000e+02 -3.800000e+00 1.600000e+01
        vertex -1.970165e+02 -3.670518e+00 3.550000e+01
        vertex -1.980000e+02 -3.800000e+00 3.550000e+01
    endloop
endfacet
facet normal 1.305270e-01 -9.914448e-01 1.470999e-09
    outer loop
        vertex -1.980000e+02 -3.800000e+00 1.600000e+01
        vertex -1.976118e+02 -3.748888e+00 1.594889e+01
        vertex -1.970165e+02 -3.670518e+00 3.550000e+01
    endloop
endfacet
facet normal 1.305273e-01 -9.914447e-01 -5.662417e-09
    outer loop
        vertex -1.976118e+02 -3.748888e+00 1.594889e+01
        vertex -1.972500e+02 -3.701260e+00 1.579904e+01
        vertex -1.970165e+02 -3.670518e+00 3.550000e+01
    endloop
endfacet
facet normal 1.305268e-01 -9.914448e-01 0.000000e+00
    outer loop
        vertex -1.972500e+02 -3.701260e+00 1.579904e+01
        vertex -1.970165e+02 -3.670518e+00 1.561986e+01
        vertex -1.970165e+02 -3.670518e+00 3.550000e+01
    endloop
endfacet
facet normal 1.305270e-01 -9.914448e-01 0.000000e+00
    outer loop
        vertex -1.980000e+02 -3.800000e+00 1.100000e+01
        vertex -1.970165e+02 -3.670518e+00 1.100000e+01
        vertex -1.980000e+02 -3.800000e+00 1.300000e+01
    endloop
endfacet
facet normal 1.305270e-01 -9.914448e-01 -1.355962e-08
    outer loop
        vertex -1.980000e+02 -3.800000e+00 1.300000e+01
        vertex -1.970165e+02 -3.670518e+00 1.100000e+01
        vertex -1.976118e+02 -3.748888e+00 1.305111e+01
    endloop
endfacet
facet normal 1.305268e-01 -9.914448e-01 0.000000e+00
    outer loop
        vertex -1.972500e+02 -3.701260e+00 1.320096e+01
        vertex -1.970165e+02 -3.670518e+00 1.100000e+01
        vertex -1.970165e+02 -3.670518e+00 1.338014e+01
    endloop
endfacet
facet normal 1.305272e-01 -9.914447e-01 4.878946e-08
    outer loop
        vertex -1.976118e+02 -3.748888e+00 1.305111e+01
        vertex -1.970165e+02 -3.670518e+00 1.100000e+01
        vertex -1.972500e+02 -3.701260e+00 1.320096e+01
    endloop
endfacet
facet normal 3.826832e-01 -9.238796e-01 0.000000e+00
    outer loop
        vertex -1.970165e+02 -3.670518e+00 1.100000e+01
        vertex -1.961000e+02 -3.290896e+00 1.100000e+01
        vertex -1.970165e+02 -3.670518e+00 1.338014e+01
    endloop
endfacet
facet normal 3.826832e-01 -9.238796e-01 0.000000e+00
    outer loop
        vertex -1.970165e+02 -3.670518e+00 1.561986e+01
        vertex -1.961000e+02 -3.290896e+00 3.550000e+01
        vertex -1.970165e+02 -3.670518e+00 3.550000e+01
    endloop
endfacet
facet normal 3.826836e-01 -9.238794e-01 1.855873e-07
    outer loop
        vertex -1.970165e+02 -3.670518e+00 1.338014e+01
        vertex -1.961000e+02 -3.290896e+00 1.100000e+01
        vertex -1.969393e+02 -3.638562e+00 1.343934e+01
    endloop
endfacet
facet normal 3.826830e-01 -9.238797e-01 -3.770246e-08
    outer loop
        vertex -1.969393e+02 -3.638562e+00 1.343934e+01
        vertex -1.961000e+02 -3.290896e+00 1.100000e+01
        vertex -1.967010e+02 -3.539819e+00 1.375000e+01
    endloop
endfacet
facet normal 3.826834e-01 -9.238796e-01 5.275416e-08
    outer loop
        vertex -1.967010e+02 -3.539819e+00 1.375000e+01
        vertex -1.961000e+02 -3.290896e+00 1.100000e+01
        vertex -1.965511e+02 -3.477752e+00 1.411177e+01
    endloop
endfacet
facet normal 3.826826e-01 -9.238799e-01 -8.751662e-08
    outer loop
        vertex -1.965511e+02 -3.477752e+00 1.411177e+01
        vertex -1.961000e+02 -3.290896e+00 1.100000e+01
        vertex -1.965000e+02 -3.456579e+00 1.450000e+01
    endloop
endfacet
facet normal 3.826832e-01 -9.238796e-01 0.000000e+00
    outer loop
        vertex -1.965000e+02 -3.456579e+00 1.450000e+01
        vertex -1.961000e+02 -3.290896e+00 1.100000e+01
        vertex -1.961000e+02 -3.290896e+00 3.550000e+01
    endloop
endfacet
facet normal 3.826837e-01 -9.238794e-01 -2.780105e-08
    outer loop
        vertex -1.970165e+02 -3.670518e+00 1.561986e+01
        vertex -1.969393e+02 -3.638562e+00 1.556066e+01
        vertex -1.961000e+02 -3.290896e+00 3.550000e+01
    endloop
endfacet
facet normal 3.826830e-01 -9.238797e-01 6.333253e-09
    outer loop
        vertex -1.969393e+02 -3.638562e+00 1.556066e+01
        vertex -1.967010e+02 -3.539819e+00 1.525000e+01
        vertex -1.961000e+02 -3.290896e+00 3.550000e+01
    endloop
endfacet
facet normal 3.826835e-01 -9.238795e-01 -1.021228e-08
    outer loop
        vertex -1.967010e+02 -3.539819e+00 1.525000e+01
        vertex -1.965511e+02 -3.477752e+00 1.488823e+01
        vertex -1.961000e+02 -3.290896e+00 3.550000e+01
    endloop
endfacet
facet normal 3.826822e-01 -9.238800e-01 2.380308e-08
    outer loop
        vertex -1.965511e+02 -3.477752e+00 1.488823e+01
        vertex -1.965000e+02 -3.456579e+00 1.450000e+01
        vertex -1.961000e+02 -3.290896e+00 3.550000e+01
    endloop
endfacet
facet normal -1.305258e-01 0.000000e+00 -9.914449e-01
    outer loop
        vertex -1.980000e+02 -3.800000e+00 1.600000e+01
        vertex -1.980000e+02 3.800000e+00 1.600000e+01
        vertex -1.976118e+02 -3.748888e+00 1.594889e+01
    endloop
endfacet
facet normal -1.305258e-01 0.000000e+00 -9.914449e-01
    outer loop
        vertex -1.976118e+02 -3.748888e+00 1.594889e+01
        vertex -1.980000e+02 3.800000e+00 1.600000e+01
        vertex -1.976118e+02 3.748888e+00 1.594889e+01
    endloop
endfacet
facet normal -3.826846e-01 0.000000e+00 -9.238790e-01
    outer loop
        vertex -1.976118e+02 -3.748888e+00 1.594889e+01
        vertex -1.976118e+02 3.748888e+00 1.594889e+01
        vertex -1.972500e+02 -3.701260e+00 1.579904e+01
    endloop
endfacet
facet normal -3.826846e-01 0.000000e+00 -9.238790e-01
    outer loop
        vertex -1.972500e+02 -3.701260e+00 1.579904e+01
        vertex -1.976118e+02 3.748888e+00 1.594889e+01
        vertex -1.972500e+02 3.701260e+00 1.579904e+01
    endloop
endfacet
facet normal -6.087682e-01 5.291307e-06 -7.933482e-01
    outer loop
        vertex -1.969393e+02 3.638562e+00 1.556066e+01
        vertex -1.972500e+02 3.701260e+00 1.579904e+01
        vertex -1.970165e+02 3.670518e+00 1.561986e+01
    endloop
endfacet
facet normal -6.087682e-01 -5.291307e-06 -7.933482e-01
    outer loop
        vertex -1.972500e+02 -3.701260e+00 1.579904e+01
        vertex -1.969393e+02 -3.638562e+00 1.556066e+01
        vertex -1.970165e+02 -3.670518e+00 1.561986e+01
    endloop
endfacet
facet normal -6.087688e-01 0.000000e+00 -7.933477e-01
    outer loop
        vertex -1.972500e+02 -3.701260e+00 1.579904e+01
        vertex -1.972500e+02 3.701260e+00 1.579904e+01
        vertex -1.969393e+02 -3.638562e+00 1.556066e+01
    endloop
endfacet
facet normal -6.087688e-01 0.000000e+00 -7.933477e-01
    outer loop
        vertex -1.969393e+02 -3.638562e+00 1.556066e+01
        vertex -1.972500e+02 3.701260e+00 1.579904e+01
        vertex -1.969393e+02 3.638562e+00 1.556066e+01
    endloop
endfacet
facet normal -7.933410e-01 0.000000e+00 -6.087775e-01
    outer loop
        vertex -1.969393e+02 -3.638562e+00 1.556066e+01
        vertex -1.969393e+02 3.638562e+00 1.556066e+01
        vertex -1.967010e+02 -3.539819e+00 1.525000e+01
    endloop
endfacet
facet normal -7.933410e-01 0.000000e+00 -6.087775e-01
    outer loop
        vertex -1.967010e+02 -3.539819e+00 1.525000e+01
        vertex -1.969393e+02 3.638562e+00 1.556066e+01
        vertex -1.967010e+02 3.539819e+00 1.525000e+01
    endloop
endfacet
facet normal -9.238880e-01 0.000000e+00 -3.826630e-01
    outer loop
        vertex -1.967010e+02 -3.539819e+00 1.525000e+01
        vertex -1.967010e+02 3.539819e+00 1.525000e+01
        vertex -1.965511e+02 -3.477752e+00 1.488823e+01
    endloop
endfacet
facet normal -9.238880e-01 0.000000e+00 -3.826630e-01
    outer loop
        vertex -1.965511e+02 -3.477752e+00 1.488823e+01
        vertex -1.967010e+02 3.539819e+00 1.525000e+01
        vertex -1.965511e+02 3.477752e+00 1.488823e+01
    endloop
endfacet
facet normal -9.914430e-01 0.000000e+00 -1.305405e-01
    outer loop
        vertex -1.965511e+02 -3.477752e+00 1.488823e+01
        vertex -1.965511e+02 3.477752e+00 1.488823e+01
        vertex -1.965000e+02 -3.456579e+00 1.450000e+01
    endloop
endfacet
facet normal -9.914430e-01 0.000000e+00 -1.305405e-01
    outer loop
        vertex -1.965000e+02 -3.456579e+00 1.450000e+01
        vertex -1.965511e+02 3.477752e+00 1.488823e+01
        vertex -1.965000e+02 3.456579e+00 1.450000e+01
    endloop
endfacet
facet normal -9.914430e-01 0.000000e+00 1.305405e-01
    outer loop
        vertex -1.965511e+02 -3.477752e+00 1.411177e+01
        vertex -1.965000e+02 3.456579e+00 1.450000e+01
        vertex -1.965511e+02 3.477752e+00 1.411177e+01
    endloop
endfacet
facet normal -9.914430e-01 0.000000e+00 1.305405e-01
    outer loop
        vertex -1.965511e+02 -3.477752e+00 1.411177e+01
        vertex -1.965000e+02 -3.456579e+00 1.450000e+01
        vertex -1.965000e+02 3.456579e+00 1.450000e+01
    endloop
endfacet
facet normal -9.238880e-01 0.000000e+00 3.826630e-01
    outer loop
        vertex -1.967010e+02 -3.539819e+00 1.375000e+01
        vertex -1.965511e+02 3.477752e+00 1.411177e+01
        vertex -1.967010e+02 3.539819e+00 1.375000e+01
    endloop
endfacet
facet normal -9.238880e-01 0.000000e+00 3.826630e-01
    outer loop
        vertex -1.967010e+02 -3.539819e+00 1.375000e+01
        vertex -1.965511e+02 -3.477752e+00 1.411177e+01
        vertex -1.965511e+02 3.477752e+00 1.411177e+01
    endloop
endfacet
facet normal -7.933410e-01 0.000000e+00 6.087775e-01
    outer loop
        vertex -1.969393e+02 -3.638562e+00 1.343934e+01
        vertex -1.967010e+02 3.539819e+00 1.375000e+01
        vertex -1.969393e+02 3.638562e+00 1.343934e+01
    endloop
endfacet
facet normal -7.933410e-01 0.000000e+00 6.087775e-01
    outer loop
        vertex -1.969393e+02 -3.638562e+00 1.343934e+01
        vertex -1.967010e+02 -3.539819e+00 1.375000e+01
        vertex -1.967010e+02 3.539819e+00 1.375000e+01
    endloop
endfacet
facet normal -6.087682e-01 -5.291307e-06 7.933482e-01
    outer loop
        vertex -1.972500e+02 -3.701260e+00 1.320096e+01
        vertex -1.970165e+02 -3.670518e+00 1.338014e+01
        vertex -1.969393e+02 -3.638562e+00 1.343934e+01
    endloop
endfacet
facet normal -6.087682e-01 5.291307e-06 7.933482e-01
    outer loop
        vertex -1.969393e+02 3.638562e+00 1.343934e+01
        vertex -1.970165e+02 3.670518e+00 1.338014e+01
        vertex -1.972500e+02 3.701260e+00 1.320096e+01
    endloop
endfacet
facet normal -6.087688e-01 0.000000e+00 7.933477e-01
    outer loop
        vertex -1.972500e+02 -3.701260e+00 1.320096e+01
        vertex -1.969393e+02 3.638562e+00 1.343934e+01
        vertex -1.972500e+02 3.701260e+00 1.320096e+01
    endloop
endfacet
facet normal -6.087688e-01 0.000000e+00 7.933477e-01
    outer loop
        vertex -1.972500e+02 -3.701260e+00 1.320096e+01
        vertex -1.969393e+02 -3.638562e+00 1.343934e+01
        vertex -1.969393e+02 3.638562e+00 1.343934e+01
    endloop
endfacet
facet normal -3.826846e-01 0.000000e+00 9.238790e-01
    outer loop
        vertex -1.976118e+02 -3.748888e+00 1.305111e+01
        vertex -1.972500e+02 3.701260e+00 1.320096e+01
        vertex -1.976118e+02 3.748888e+00 1.305111e+01
    endloop
endfacet
facet normal -3.826846e-01 0.000000e+00 9.238790e-01
    outer loop
        vertex -1.976118e+02 -3.748888e+00 1.305111e+01
        vertex -1.972500e+02 -3.701260e+00 1.320096e+01
        vertex -1.972500e+02 3.701260e+00 1.320096e+01
    endloop
endfacet
facet normal -1.305258e-01 0.000000e+00 9.914449e-01
    outer loop
        vertex -1.980000e+02 -3.800000e+00 1.300000e+01
        vertex -1.976118e+02 3.748888e+00 1.305111e+01
        vertex -1.980000e+02 3.800000e+00 1.300000e+01
    endloop
endfacet
facet normal -1.305258e-01 0.000000e+00 9.914449e-01
    outer loop
        vertex -1.980000e+02 -3.800000e+00 1.300000e+01
        vertex -1.976118e+02 -3.748888e+00 1.305111e+01
        vertex -1.976118e+02 3.748888e+00 1.305111e+01
    endloop
endfacet
facet normal 1.305258e-01 -0.000000e+00 9.914449e-01
    outer loop
        vertex -1.980000e+02 -3.800000e+00 1.300000e+01
        vertex -1.980000e+02 3.800000e+00 1.300000e+01
        vertex -1.983882e+02 -3.748888e+00 1.305111e+01
    endloop
endfacet
facet normal 1.305258e-01 -0.000000e+00 9.914449e-01
    outer loop
        vertex -1.983882e+02 -3.748888e+00 1.305111e+01
        vertex -1.980000e+02 3.800000e+00 1.300000e+01
        vertex -1.983882e+02 3.748888e+00 1.305111e+01
    endloop
endfacet
facet normal 3.826846e-01 -0.000000e+00 9.238790e-01
    outer loop
        vertex -1.983882e+02 -3.748888e+00 1.305111e+01
        vertex -1.983882e+02 3.748888e+00 1.305111e+01
        vertex -1.987500e+02 -3.701260e+00 1.320096e+01
    endloop
endfacet
facet normal 3.826846e-01 -0.000000e+00 9.238790e-01
    outer loop
        vertex -1.987500e+02 -3.701260e+00 1.320096e+01
        vertex -1.983882e+02 3.748888e+00 1.305111e+01
        vertex -1.987500e+02 3.701260e+00 1.320096e+01
    endloop
endfacet
facet normal 6.087682e-01 5.291307e-06 7.933482e-01
    outer loop
        vertex -1.990607e+02 3.638562e+00 1.343934e+01
        vertex -1.987500e+02 3.701260e+00 1.320096e+01
        vertex -1.989835e+02 3.670518e+00 1.338014e+01
    endloop
endfacet
facet normal 6.087682e-01 -5.291307e-06 7.933482e-01
    outer loop
        vertex -1.987500e+02 -3.701260e+00 1.320096e+01
        vertex -1.990607e+02 -3.638562e+00 1.343934e+01
        vertex -1.989835e+02 -3.670518e+00 1.338014e+01
    endloop
endfacet
facet normal 6.087688e-01 -0.000000e+00 7.933477e-01
    outer loop
        vertex -1.987500e+02 -3.701260e+00 1.320096e+01
        vertex -1.987500e+02 3.701260e+00 1.320096e+01
        vertex -1.990607e+02 3.638562e+00 1.343934e+01
    endloop
endfacet
facet normal 6.087688e-01 0.000000e+00 7.933477e-01
    outer loop
        vertex -1.987500e+02 -3.701260e+00 1.320096e+01
        vertex -1.990607e+02 3.638562e+00 1.343934e+01
        vertex -1.990607e+02 -3.638562e+00 1.343934e+01
    endloop
endfacet
facet normal 7.933410e-01 -0.000000e+00 6.087775e-01
    outer loop
        vertex -1.990607e+02 -3.638562e+00 1.343934e+01
        vertex -1.990607e+02 3.638562e+00 1.343934e+01
        vertex -1.992990e+02 -3.539819e+00 1.375000e+01
    endloop
endfacet
facet normal 7.933410e-01 -0.000000e+00 6.087775e-01
    outer loop
        vertex -1.992990e+02 -3.539819e+00 1.375000e+01
        vertex -1.990607e+02 3.638562e+00 1.343934e+01
        vertex -1.992990e+02 3.539819e+00 1.375000e+01
    endloop
endfacet
facet normal 9.238880e-01 -0.000000e+00 3.826630e-01
    outer loop
        vertex -1.992990e+02 -3.539819e+00 1.375000e+01
        vertex -1.992990e+02 3.539819e+00 1.375000e+01
        vertex -1.994489e+02 -3.477752e+00 1.411177e+01
    endloop
endfacet
facet normal 9.238880e-01 -0.000000e+00 3.826630e-01
    outer loop
        vertex -1.994489e+02 -3.477752e+00 1.411177e+01
        vertex -1.992990e+02 3.539819e+00 1.375000e+01
        vertex -1.994489e+02 3.477752e+00 1.411177e+01
    endloop
endfacet
facet normal 9.914430e-01 -0.000000e+00 1.305405e-01
    outer loop
        vertex -1.994489e+02 -3.477752e+00 1.411177e+01
        vertex -1.994489e+02 3.477752e+00 1.411177e+01
        vertex -1.995000e+02 -3.456579e+00 1.450000e+01
    endloop
endfacet
facet normal 9.914430e-01 -0.000000e+00 1.305405e-01
    outer loop
        vertex -1.995000e+02 -3.456579e+00 1.450000e+01
        vertex -1.994489e+02 3.477752e+00 1.411177e+01
        vertex -1.995000e+02 3.456579e+00 1.450000e+01
    endloop
endfacet
facet normal 9.914430e-01 0.000000e+00 -1.305405e-01
    outer loop
        vertex -1.994489e+02 -3.477752e+00 1.488823e+01
        vertex -1.995000e+02 3.456579e+00 1.450000e+01
        vertex -1.994489e+02 3.477752e+00 1.488823e+01
    endloop
endfacet
facet normal 9.914430e-01 0.000000e+00 -1.305405e-01
    outer loop
        vertex -1.994489e+02 -3.477752e+00 1.488823e+01
        vertex -1.995000e+02 -3.456579e+00 1.450000e+01
        vertex -1.995000e+02 3.456579e+00 1.450000e+01
    endloop
endfacet
facet normal 9.238880e-01 0.000000e+00 -3.826630e-01
    outer loop
        vertex -1.992990e+02 -3.539819e+00 1.525000e+01
        vertex -1.994489e+02 3.477752e+00 1.488823e+01
        vertex -1.992990e+02 3.539819e+00 1.525000e+01
    endloop
endfacet
facet normal 9.238880e-01 0.000000e+00 -3.826630e-01
    outer loop
        vertex -1.992990e+02 -3.539819e+00 1.525000e+01
        vertex -1.994489e+02 -3.477752e+00 1.488823e+01
        vertex -1.994489e+02 3.477752e+00 1.488823e+01
    endloop
endfacet
facet normal 7.933410e-01 0.000000e+00 -6.087775e-01
    outer loop
        vertex -1.990607e+02 -3.638562e+00 1.556066e+01
        vertex -1.992990e+02 3.539819e+00 1.525000e+01
        vertex -1.990607e+02 3.638562e+00 1.556066e+01
    endloop
endfacet
facet normal 7.933410e-01 0.000000e+00 -6.087775e-01
    outer loop
        vertex -1.990607e+02 -3.638562e+00 1.556066e+01
        vertex -1.992990e+02 -3.539819e+00 1.525000e+01
        vertex -1.992990e+02 3.539819e+00 1.525000e+01
    endloop
endfacet
facet normal 6.087682e-01 -5.291307e-06 -7.933482e-01
    outer loop
        vertex -1.987500e+02 -3.701260e+00 1.579904e+01
        vertex -1.989835e+02 -3.670518e+00 1.561986e+01
        vertex -1.990607e+02 -3.638562e+00 1.556066e+01
    endloop
endfacet
facet normal 6.087682e-01 5.291307e-06 -7.933482e-01
    outer loop
        vertex -1.990607e+02 3.638562e+00 1.556066e+01
        vertex -1.989835e+02 3.670518e+00 1.561986e+01
        vertex -1.987500e+02 3.701260e+00 1.579904e+01
    endloop
endfacet
facet normal 6.087688e-01 0.000000e+00 -7.933477e-01
    outer loop
        vertex -1.987500e+02 -3.701260e+00 1.579904e+01
        vertex -1.990607e+02 3.638562e+00 1.556066e+01
        vertex -1.987500e+02 3.701260e+00 1.579904e+01
    endloop
endfacet
facet normal 6.087688e-01 0.000000e+00 -7.933477e-01
    outer loop
        vertex -1.987500e+02 -3.701260e+00 1.579904e+01
        vertex -1.990607e+02 -3.638562e+00 1.556066e+01
        vertex -1.990607e+02 3.638562e+00 1.556066e+01
    endloop
endfacet
facet normal 3.826846e-01 0.000000e+00 -9.238790e-01
    outer loop
        vertex -1.983882e+02 -3.748888e+00 1.594889e+01
        vertex -1.987500e+02 3.701260e+00 1.579904e+01
        vertex -1.983882e+02 3.748888e+00 1.594889e+01
    endloop
endfacet
facet normal 3.826846e-01 0.000000e+00 -9.238790e-01
    outer loop
        vertex -1.983882e+02 -3.748888e+00 1.594889e+01
        vertex -1.987500e+02 -3.701260e+00 1.579904e+01
        vertex -1.987500e+02 3.701260e+00 1.579904e+01
    endloop
endfacet
facet normal 1.305258e-01 0.000000e+00 -9.914449e-01
    outer loop
        vertex -1.980000e+02 -3.800000e+00 1.600000e+01
        vertex -1.983882e+02 3.748888e+00 1.594889e+01
        vertex -1.980000e+02 3.800000e+00 1.600000e+01
    endloop
endfacet
facet normal 1.305258e-01 0.000000e+00 -9.914449e-01
    outer loop
        vertex -1.980000e+02 -3.800000e+00 1.600000e+01
        vertex -1.983882e+02 -3.748888e+00 1.594889e+01
        vertex -1.983882e+02 3.748888e+00 1.594889e+01
    endloop
endfacet
endsolid stock-adjust-pin.stl
