solid mag-stop.stl
facet normal 0.000000e+00 0.000000e+00 -1.000000e+00
    outer loop
        vertex 4.000000e+01 -1.200000e+01 7.950000e+01
        vertex -4.350000e+01 1.210000e+01 7.950000e+01
        vertex 4.000000e+01 1.210000e+01 7.950000e+01
    endloop
endfacet
facet normal 0.000000e+00 0.000000e+00 -1.000000e+00
    outer loop
        vertex 4.000000e+01 -1.200000e+01 7.950000e+01
        vertex -4.350000e+01 -1.200000e+01 7.950000e+01
        vertex -4.350000e+01 1.210000e+01 7.950000e+01
    endloop
endfacet
facet normal -1.305262e-01 9.914449e-01 0.000000e+00
    outer loop
        vertex 2.770000e+01 -4.000000e+00 1.130000e+02
        vertex 2.873528e+01 -3.863703e+00 1.130000e+02
        vertex 2.873528e+01 -3.863703e+00 1.110000e+02
    endloop
endfacet
facet normal -1.305262e-01 9.914449e-01 0.000000e+00
    outer loop
        vertex 2.770000e+01 -4.000000e+00 1.110000e+02
        vertex 2.770000e+01 -4.000000e+00 1.130000e+02
        vertex 2.873528e+01 -3.863703e+00 1.110000e+02
    endloop
endfacet
facet normal -9.914448e-01 -1.305267e-01 0.000000e+00
    outer loop
        vertex 3.170000e+01 0.000000e+00 1.130000e+02
        vertex 3.156370e+01 1.035276e+00 1.130000e+02
        vertex 3.156370e+01 1.035276e+00 1.110000e+02
    endloop
endfacet
facet normal -9.914448e-01 -1.305267e-01 0.000000e+00
    outer loop
        vertex 3.170000e+01 0.000000e+00 1.110000e+02
        vertex 3.170000e+01 0.000000e+00 1.130000e+02
        vertex 3.156370e+01 1.035276e+00 1.110000e+02
    endloop
endfacet
facet normal -9.238798e-01 -3.826829e-01 0.000000e+00
    outer loop
        vertex 3.156370e+01 1.035276e+00 1.130000e+02
        vertex 3.116410e+01 2.000000e+00 1.130000e+02
        vertex 3.116410e+01 2.000000e+00 1.110000e+02
    endloop
endfacet
facet normal -9.238798e-01 -3.826829e-01 0.000000e+00
    outer loop
        vertex 3.156370e+01 1.035276e+00 1.110000e+02
        vertex 3.156370e+01 1.035276e+00 1.130000e+02
        vertex 3.116410e+01 2.000000e+00 1.110000e+02
    endloop
endfacet
facet normal -7.933529e-01 -6.087620e-01 0.000000e+00
    outer loop
        vertex 3.116410e+01 2.000000e+00 1.130000e+02
        vertex 3.052843e+01 2.828427e+00 1.130000e+02
        vertex 3.052843e+01 2.828427e+00 1.110000e+02
    endloop
endfacet
facet normal -7.933529e-01 -6.087620e-01 0.000000e+00
    outer loop
        vertex 3.116410e+01 2.000000e+00 1.110000e+02
        vertex 3.116410e+01 2.000000e+00 1.130000e+02
        vertex 3.052843e+01 2.828427e+00 1.110000e+02
    endloop
endfacet
facet normal -6.087618e-01 -7.933531e-01 0.000000e+00
    outer loop
        vertex 3.052843e+01 2.828427e+00 1.130000e+02
        vertex 2.970000e+01 3.464102e+00 1.130000e+02
        vertex 2.970000e+01 3.464102e+00 1.110000e+02
    endloop
endfacet
facet normal -6.087618e-01 -7.933531e-01 0.000000e+00
    outer loop
        vertex 3.052843e+01 2.828427e+00 1.110000e+02
        vertex 3.052843e+01 2.828427e+00 1.130000e+02
        vertex 2.970000e+01 3.464102e+00 1.110000e+02
    endloop
endfacet
facet normal -3.826835e-01 -9.238795e-01 0.000000e+00
    outer loop
        vertex 2.970000e+01 3.464102e+00 1.130000e+02
        vertex 2.873528e+01 3.863703e+00 1.130000e+02
        vertex 2.873528e+01 3.863703e+00 1.110000e+02
    endloop
endfacet
facet normal -3.826835e-01 -9.238795e-01 0.000000e+00
    outer loop
        vertex 2.970000e+01 3.464102e+00 1.110000e+02
        vertex 2.970000e+01 3.464102e+00 1.130000e+02
        vertex 2.873528e+01 3.863703e+00 1.110000e+02
    endloop
endfacet
facet normal -1.305262e-01 -9.914449e-01 0.000000e+00
    outer loop
        vertex 2.873528e+01 3.863703e+00 1.130000e+02
        vertex 2.770000e+01 4.000000e+00 1.130000e+02
        vertex 2.770000e+01 4.000000e+00 1.110000e+02
    endloop
endfacet
facet normal -1.305262e-01 -9.914449e-01 0.000000e+00
    outer loop
        vertex 2.873528e+01 3.863703e+00 1.110000e+02
        vertex 2.873528e+01 3.863703e+00 1.130000e+02
        vertex 2.770000e+01 4.000000e+00 1.110000e+02
    endloop
endfacet
facet normal 0.000000e+00 -1.000000e+00 0.000000e+00
    outer loop
        vertex 2.770000e+01 4.000000e+00 1.110000e+02
        vertex 2.770000e+01 4.000000e+00 1.130000e+02
        vertex 1.900000e+01 4.000000e+00 1.130000e+02
    endloop
endfacet
facet normal 0.000000e+00 -1.000000e+00 0.000000e+00
    outer loop
        vertex 1.900000e+01 4.000000e+00 1.110000e+02
        vertex 2.770000e+01 4.000000e+00 1.110000e+02
        vertex 1.900000e+01 4.000000e+00 1.130000e+02
    endloop
endfacet
facet normal 0.000000e+00 1.000000e+00 -0.000000e+00
    outer loop
        vertex 2.770000e+01 -4.000000e+00 1.110000e+02
        vertex 1.900000e+01 -4.000000e+00 1.130000e+02
        vertex 2.770000e+01 -4.000000e+00 1.130000e+02
    endloop
endfacet
facet normal 0.000000e+00 1.000000e+00 0.000000e+00
    outer loop
        vertex 1.900000e+01 -4.000000e+00 1.110000e+02
        vertex 1.900000e+01 -4.000000e+00 1.130000e+02
        vertex 2.770000e+01 -4.000000e+00 1.110000e+02
    endloop
endfacet
facet normal -3.826835e-01 9.238795e-01 0.000000e+00
    outer loop
        vertex 2.873528e+01 -3.863703e+00 1.130000e+02
        vertex 2.970000e+01 -3.464102e+00 1.130000e+02
        vertex 2.970000e+01 -3.464102e+00 1.110000e+02
    endloop
endfacet
facet normal -3.826835e-01 9.238795e-01 0.000000e+00
    outer loop
        vertex 2.873528e+01 -3.863703e+00 1.110000e+02
        vertex 2.873528e+01 -3.863703e+00 1.130000e+02
        vertex 2.970000e+01 -3.464102e+00 1.110000e+02
    endloop
endfacet
facet normal -6.087618e-01 7.933531e-01 0.000000e+00
    outer loop
        vertex 2.970000e+01 -3.464102e+00 1.130000e+02
        vertex 3.052843e+01 -2.828427e+00 1.130000e+02
        vertex 3.052843e+01 -2.828427e+00 1.110000e+02
    endloop
endfacet
facet normal -6.087618e-01 7.933531e-01 0.000000e+00
    outer loop
        vertex 2.970000e+01 -3.464102e+00 1.110000e+02
        vertex 2.970000e+01 -3.464102e+00 1.130000e+02
        vertex 3.052843e+01 -2.828427e+00 1.110000e+02
    endloop
endfacet
facet normal -7.933529e-01 6.087620e-01 0.000000e+00
    outer loop
        vertex 3.052843e+01 -2.828427e+00 1.130000e+02
        vertex 3.116410e+01 -2.000000e+00 1.130000e+02
        vertex 3.116410e+01 -2.000000e+00 1.110000e+02
    endloop
endfacet
facet normal -7.933529e-01 6.087620e-01 0.000000e+00
    outer loop
        vertex 3.052843e+01 -2.828427e+00 1.110000e+02
        vertex 3.052843e+01 -2.828427e+00 1.130000e+02
        vertex 3.116410e+01 -2.000000e+00 1.110000e+02
    endloop
endfacet
facet normal -9.238798e-01 3.826829e-01 0.000000e+00
    outer loop
        vertex 3.116410e+01 -2.000000e+00 1.130000e+02
        vertex 3.156370e+01 -1.035276e+00 1.130000e+02
        vertex 3.156370e+01 -1.035276e+00 1.110000e+02
    endloop
endfacet
facet normal -9.238798e-01 3.826829e-01 0.000000e+00
    outer loop
        vertex 3.116410e+01 -2.000000e+00 1.110000e+02
        vertex 3.116410e+01 -2.000000e+00 1.130000e+02
        vertex 3.156370e+01 -1.035276e+00 1.110000e+02
    endloop
endfacet
facet normal -9.914448e-01 1.305267e-01 0.000000e+00
    outer loop
        vertex 3.156370e+01 -1.035276e+00 1.130000e+02
        vertex 3.170000e+01 0.000000e+00 1.130000e+02
        vertex 3.170000e+01 0.000000e+00 1.110000e+02
    endloop
endfacet
facet normal -9.914448e-01 1.305267e-01 0.000000e+00
    outer loop
        vertex 3.156370e+01 -1.035276e+00 1.110000e+02
        vertex 3.156370e+01 -1.035276e+00 1.130000e+02
        vertex 3.170000e+01 0.000000e+00 1.110000e+02
    endloop
endfacet
facet normal -1.000000e+00 0.000000e+00 0.000000e+00
    outer loop
        vertex -4.350000e+01 -1.200000e+01 8.550000e+01
        vertex -4.350000e+01 1.210000e+01 8.550000e+01
        vertex -4.350000e+01 1.210000e+01 7.950000e+01
    endloop
endfacet
facet normal -1.000000e+00 0.000000e+00 0.000000e+00
    outer loop
        vertex -4.350000e+01 -1.200000e+01 7.950000e+01
        vertex -4.350000e+01 -1.200000e+01 8.550000e+01
        vertex -4.350000e+01 1.210000e+01 7.950000e+01
    endloop
endfacet
facet normal 0.000000e+00 -1.000000e+00 0.000000e+00
    outer loop
        vertex 3.600000e+01 -1.000000e+01 8.550000e+01
        vertex 3.600000e+01 -1.000000e+01 1.130000e+02
        vertex 1.900000e+01 -1.000000e+01 1.130000e+02
    endloop
endfacet
facet normal 0.000000e+00 -1.000000e+00 0.000000e+00
    outer loop
        vertex 1.900000e+01 -1.000000e+01 8.550000e+01
        vertex 3.600000e+01 -1.000000e+01 8.550000e+01
        vertex 1.900000e+01 -1.000000e+01 1.130000e+02
    endloop
endfacet
facet normal 0.000000e+00 1.000000e+00 -0.000000e+00
    outer loop
        vertex 3.600000e+01 1.000000e+01 8.550000e+01
        vertex 1.900000e+01 1.000000e+01 1.130000e+02
        vertex 3.600000e+01 1.000000e+01 1.130000e+02
    endloop
endfacet
facet normal 0.000000e+00 1.000000e+00 0.000000e+00
    outer loop
        vertex 1.900000e+01 1.000000e+01 8.550000e+01
        vertex 1.900000e+01 1.000000e+01 1.130000e+02
        vertex 3.600000e+01 1.000000e+01 8.550000e+01
    endloop
endfacet
facet normal 1.000000e+00 0.000000e+00 0.000000e+00
    outer loop
        vertex 3.600000e+01 -1.000000e+01 8.550000e+01
        vertex 3.600000e+01 -9.000000e+00 8.550000e+01
        vertex 3.600000e+01 -9.000000e+00 1.110000e+02
    endloop
endfacet
facet normal 1.000000e+00 0.000000e+00 0.000000e+00
    outer loop
        vertex 3.600000e+01 9.000000e+00 8.550000e+01
        vertex 3.600000e+01 1.000000e+01 8.550000e+01
        vertex 3.600000e+01 9.000000e+00 1.110000e+02
    endloop
endfacet
facet normal 1.000000e+00 0.000000e+00 0.000000e+00
    outer loop
        vertex 3.600000e+01 -1.000000e+01 8.550000e+01
        vertex 3.600000e+01 -9.000000e+00 1.110000e+02
        vertex 3.600000e+01 -1.000000e+01 1.130000e+02
    endloop
endfacet
facet normal 1.000000e+00 -0.000000e+00 0.000000e+00
    outer loop
        vertex 3.600000e+01 -1.000000e+01 1.130000e+02
        vertex 3.600000e+01 -9.000000e+00 1.110000e+02
        vertex 3.600000e+01 1.000000e+01 1.130000e+02
    endloop
endfacet
facet normal 1.000000e+00 0.000000e+00 0.000000e+00
    outer loop
        vertex 3.600000e+01 -9.000000e+00 1.110000e+02
        vertex 3.600000e+01 9.000000e+00 1.110000e+02
        vertex 3.600000e+01 1.000000e+01 1.130000e+02
    endloop
endfacet
facet normal 1.000000e+00 -0.000000e+00 0.000000e+00
    outer loop
        vertex 3.600000e+01 9.000000e+00 1.110000e+02
        vertex 3.600000e+01 1.000000e+01 8.550000e+01
        vertex 3.600000e+01 1.000000e+01 1.130000e+02
    endloop
endfacet
facet normal 0.000000e+00 1.000000e+00 0.000000e+00
    outer loop
        vertex 1.900000e+01 -9.000000e+00 8.550000e+01
        vertex 1.900000e+01 -9.000000e+00 1.110000e+02
        vertex 3.600000e+01 -9.000000e+00 1.110000e+02
    endloop
endfacet
facet normal 0.000000e+00 1.000000e+00 0.000000e+00
    outer loop
        vertex 1.900000e+01 -9.000000e+00 8.550000e+01
        vertex 3.600000e+01 -9.000000e+00 1.110000e+02
        vertex 3.600000e+01 -9.000000e+00 8.550000e+01
    endloop
endfacet
facet normal 0.000000e+00 -1.000000e+00 0.000000e+00
    outer loop
        vertex 3.600000e+01 9.000000e+00 8.550000e+01
        vertex 3.600000e+01 9.000000e+00 1.110000e+02
        vertex 1.900000e+01 9.000000e+00 1.110000e+02
    endloop
endfacet
facet normal 0.000000e+00 -1.000000e+00 0.000000e+00
    outer loop
        vertex 1.900000e+01 9.000000e+00 8.550000e+01
        vertex 3.600000e+01 9.000000e+00 8.550000e+01
        vertex 1.900000e+01 9.000000e+00 1.110000e+02
    endloop
endfacet
facet normal -1.000000e+00 0.000000e+00 0.000000e+00
    outer loop
        vertex 1.900000e+01 4.000000e+00 1.110000e+02
        vertex 1.900000e+01 4.000000e+00 1.130000e+02
        vertex 1.900000e+01 9.000000e+00 1.110000e+02
    endloop
endfacet
facet normal -1.000000e+00 0.000000e+00 0.000000e+00
    outer loop
        vertex 1.900000e+01 9.000000e+00 8.550000e+01
        vertex 1.900000e+01 9.000000e+00 1.110000e+02
        vertex 1.900000e+01 1.000000e+01 8.550000e+01
    endloop
endfacet
facet normal -1.000000e+00 0.000000e+00 0.000000e+00
    outer loop
        vertex 1.900000e+01 9.000000e+00 1.110000e+02
        vertex 1.900000e+01 1.000000e+01 1.130000e+02
        vertex 1.900000e+01 1.000000e+01 8.550000e+01
    endloop
endfacet
facet normal -1.000000e+00 0.000000e+00 0.000000e+00
    outer loop
        vertex 1.900000e+01 4.000000e+00 1.130000e+02
        vertex 1.900000e+01 1.000000e+01 1.130000e+02
        vertex 1.900000e+01 9.000000e+00 1.110000e+02
    endloop
endfacet
facet normal -1.000000e+00 0.000000e+00 0.000000e+00
    outer loop
        vertex 1.900000e+01 -9.000000e+00 1.110000e+02
        vertex 1.900000e+01 -4.000000e+00 1.130000e+02
        vertex 1.900000e+01 -4.000000e+00 1.110000e+02
    endloop
endfacet
facet normal -1.000000e+00 0.000000e+00 0.000000e+00
    outer loop
        vertex 1.900000e+01 -1.000000e+01 8.550000e+01
        vertex 1.900000e+01 -9.000000e+00 1.110000e+02
        vertex 1.900000e+01 -9.000000e+00 8.550000e+01
    endloop
endfacet
facet normal -1.000000e+00 0.000000e+00 0.000000e+00
    outer loop
        vertex 1.900000e+01 -1.000000e+01 1.130000e+02
        vertex 1.900000e+01 -4.000000e+00 1.130000e+02
        vertex 1.900000e+01 -9.000000e+00 1.110000e+02
    endloop
endfacet
facet normal -1.000000e+00 0.000000e+00 0.000000e+00
    outer loop
        vertex 1.900000e+01 -1.000000e+01 8.550000e+01
        vertex 1.900000e+01 -1.000000e+01 1.130000e+02
        vertex 1.900000e+01 -9.000000e+00 1.110000e+02
    endloop
endfacet
facet normal 0.000000e+00 -0.000000e+00 1.000000e+00
    outer loop
        vertex 2.873528e+01 3.863703e+00 1.130000e+02
        vertex 2.950000e+01 6.500000e+00 1.130000e+02
        vertex 2.600000e+01 6.500000e+00 1.130000e+02
    endloop
endfacet
facet normal 0.000000e+00 0.000000e+00 1.000000e+00
    outer loop
        vertex 1.900000e+01 4.000000e+00 1.130000e+02
        vertex 2.770000e+01 4.000000e+00 1.130000e+02
        vertex 1.900000e+01 1.000000e+01 1.130000e+02
    endloop
endfacet
facet normal 0.000000e+00 0.000000e+00 1.000000e+00
    outer loop
        vertex 1.900000e+01 -1.000000e+01 1.130000e+02
        vertex 2.770000e+01 -4.000000e+00 1.130000e+02
        vertex 1.900000e+01 -4.000000e+00 1.130000e+02
    endloop
endfacet
facet normal 0.000000e+00 0.000000e+00 1.000000e+00
    outer loop
        vertex 1.900000e+01 -1.000000e+01 1.130000e+02
        vertex 3.600000e+01 -1.000000e+01 1.130000e+02
        vertex 2.770000e+01 -4.000000e+00 1.130000e+02
    endloop
endfacet
facet normal 0.000000e+00 0.000000e+00 1.000000e+00
    outer loop
        vertex 2.970000e+01 3.464102e+00 1.130000e+02
        vertex 2.950000e+01 6.500000e+00 1.130000e+02
        vertex 2.873528e+01 3.863703e+00 1.130000e+02
    endloop
endfacet
facet normal 0.000000e+00 0.000000e+00 1.000000e+00
    outer loop
        vertex 3.052843e+01 2.828427e+00 1.130000e+02
        vertex 2.950000e+01 6.500000e+00 1.130000e+02
        vertex 2.970000e+01 3.464102e+00 1.130000e+02
    endloop
endfacet
facet normal 0.000000e+00 0.000000e+00 1.000000e+00
    outer loop
        vertex 2.873528e+01 3.863703e+00 1.130000e+02
        vertex 2.600000e+01 6.500000e+00 1.130000e+02
        vertex 2.770000e+01 4.000000e+00 1.130000e+02
    endloop
endfacet
facet normal 0.000000e+00 0.000000e+00 1.000000e+00
    outer loop
        vertex 2.770000e+01 4.000000e+00 1.130000e+02
        vertex 2.600000e+01 6.500000e+00 1.130000e+02
        vertex 1.900000e+01 1.000000e+01 1.130000e+02
    endloop
endfacet
facet normal 0.000000e+00 -0.000000e+00 1.000000e+00
    outer loop
        vertex 2.600000e+01 6.500000e+00 1.130000e+02
        vertex 2.600000e+01 8.500000e+00 1.130000e+02
        vertex 1.900000e+01 1.000000e+01 1.130000e+02
    endloop
endfacet
facet normal 0.000000e+00 -0.000000e+00 1.000000e+00
    outer loop
        vertex 2.600000e+01 8.500000e+00 1.130000e+02
        vertex 3.600000e+01 1.000000e+01 1.130000e+02
        vertex 1.900000e+01 1.000000e+01 1.130000e+02
    endloop
endfacet
facet normal 0.000000e+00 0.000000e+00 1.000000e+00
    outer loop
        vertex 3.052843e+01 2.828427e+00 1.130000e+02
        vertex 2.950000e+01 8.500000e+00 1.130000e+02
        vertex 2.950000e+01 6.500000e+00 1.130000e+02
    endloop
endfacet
facet normal 0.000000e+00 0.000000e+00 1.000000e+00
    outer loop
        vertex 3.600000e+01 -1.000000e+01 1.130000e+02
        vertex 2.873528e+01 -3.863703e+00 1.130000e+02
        vertex 2.770000e+01 -4.000000e+00 1.130000e+02
    endloop
endfacet
facet normal 0.000000e+00 0.000000e+00 1.000000e+00
    outer loop
        vertex 3.600000e+01 -1.000000e+01 1.130000e+02
        vertex 2.970000e+01 -3.464102e+00 1.130000e+02
        vertex 2.873528e+01 -3.863703e+00 1.130000e+02
    endloop
endfacet
facet normal 0.000000e+00 0.000000e+00 1.000000e+00
    outer loop
        vertex 3.600000e+01 -1.000000e+01 1.130000e+02
        vertex 3.052843e+01 -2.828427e+00 1.130000e+02
        vertex 2.970000e+01 -3.464102e+00 1.130000e+02
    endloop
endfacet
facet normal 0.000000e+00 0.000000e+00 1.000000e+00
    outer loop
        vertex 3.600000e+01 -1.000000e+01 1.130000e+02
        vertex 3.116410e+01 -2.000000e+00 1.130000e+02
        vertex 3.052843e+01 -2.828427e+00 1.130000e+02
    endloop
endfacet
facet normal 0.000000e+00 0.000000e+00 1.000000e+00
    outer loop
        vertex 3.600000e+01 -1.000000e+01 1.130000e+02
        vertex 3.156370e+01 -1.035276e+00 1.130000e+02
        vertex 3.116410e+01 -2.000000e+00 1.130000e+02
    endloop
endfacet
facet normal 0.000000e+00 -0.000000e+00 1.000000e+00
    outer loop
        vertex 3.600000e+01 -1.000000e+01 1.130000e+02
        vertex 3.600000e+01 1.000000e+01 1.130000e+02
        vertex 3.156370e+01 -1.035276e+00 1.130000e+02
    endloop
endfacet
facet normal 0.000000e+00 0.000000e+00 1.000000e+00
    outer loop
        vertex 3.116410e+01 2.000000e+00 1.130000e+02
        vertex 2.950000e+01 8.500000e+00 1.130000e+02
        vertex 3.052843e+01 2.828427e+00 1.130000e+02
    endloop
endfacet
facet normal 0.000000e+00 0.000000e+00 1.000000e+00
    outer loop
        vertex 2.600000e+01 8.500000e+00 1.130000e+02
        vertex 2.950000e+01 8.500000e+00 1.130000e+02
        vertex 3.600000e+01 1.000000e+01 1.130000e+02
    endloop
endfacet
facet normal 0.000000e+00 -0.000000e+00 1.000000e+00
    outer loop
        vertex 3.116410e+01 2.000000e+00 1.130000e+02
        vertex 3.600000e+01 1.000000e+01 1.130000e+02
        vertex 2.950000e+01 8.500000e+00 1.130000e+02
    endloop
endfacet
facet normal 0.000000e+00 -0.000000e+00 1.000000e+00
    outer loop
        vertex 3.156370e+01 1.035276e+00 1.130000e+02
        vertex 3.600000e+01 1.000000e+01 1.130000e+02
        vertex 3.116410e+01 2.000000e+00 1.130000e+02
    endloop
endfacet
facet normal 0.000000e+00 -0.000000e+00 1.000000e+00
    outer loop
        vertex 3.170000e+01 0.000000e+00 1.130000e+02
        vertex 3.600000e+01 1.000000e+01 1.130000e+02
        vertex 3.156370e+01 1.035276e+00 1.130000e+02
    endloop
endfacet
facet normal 0.000000e+00 0.000000e+00 1.000000e+00
    outer loop
        vertex 3.156370e+01 -1.035276e+00 1.130000e+02
        vertex 3.600000e+01 1.000000e+01 1.130000e+02
        vertex 3.170000e+01 0.000000e+00 1.130000e+02
    endloop
endfacet
facet normal 0.000000e+00 0.000000e+00 -1.000000e+00
    outer loop
        vertex 2.873528e+01 3.863703e+00 1.110000e+02
        vertex 2.600000e+01 6.500000e+00 1.110000e+02
        vertex 2.950000e+01 6.500000e+00 1.110000e+02
    endloop
endfacet
facet normal 0.000000e+00 0.000000e+00 -1.000000e+00
    outer loop
        vertex 1.900000e+01 -9.000000e+00 1.110000e+02
        vertex 1.900000e+01 -4.000000e+00 1.110000e+02
        vertex 2.770000e+01 -4.000000e+00 1.110000e+02
    endloop
endfacet
facet normal 0.000000e+00 0.000000e+00 -1.000000e+00
    outer loop
        vertex 1.900000e+01 4.000000e+00 1.110000e+02
        vertex 1.900000e+01 9.000000e+00 1.110000e+02
        vertex 2.770000e+01 4.000000e+00 1.110000e+02
    endloop
endfacet
facet normal 0.000000e+00 0.000000e+00 -1.000000e+00
    outer loop
        vertex 1.900000e+01 -9.000000e+00 1.110000e+02
        vertex 2.770000e+01 -4.000000e+00 1.110000e+02
        vertex 3.600000e+01 -9.000000e+00 1.110000e+02
    endloop
endfacet
facet normal 0.000000e+00 0.000000e+00 -1.000000e+00
    outer loop
        vertex 2.970000e+01 3.464102e+00 1.110000e+02
        vertex 2.873528e+01 3.863703e+00 1.110000e+02
        vertex 2.950000e+01 6.500000e+00 1.110000e+02
    endloop
endfacet
facet normal 0.000000e+00 0.000000e+00 -1.000000e+00
    outer loop
        vertex 3.052843e+01 2.828427e+00 1.110000e+02
        vertex 2.970000e+01 3.464102e+00 1.110000e+02
        vertex 2.950000e+01 6.500000e+00 1.110000e+02
    endloop
endfacet
facet normal 0.000000e+00 0.000000e+00 -1.000000e+00
    outer loop
        vertex 2.873528e+01 3.863703e+00 1.110000e+02
        vertex 2.770000e+01 4.000000e+00 1.110000e+02
        vertex 2.600000e+01 6.500000e+00 1.110000e+02
    endloop
endfacet
facet normal 0.000000e+00 0.000000e+00 -1.000000e+00
    outer loop
        vertex 2.770000e+01 4.000000e+00 1.110000e+02
        vertex 1.900000e+01 9.000000e+00 1.110000e+02
        vertex 2.600000e+01 6.500000e+00 1.110000e+02
    endloop
endfacet
facet normal 0.000000e+00 0.000000e+00 -1.000000e+00
    outer loop
        vertex 2.600000e+01 6.500000e+00 1.110000e+02
        vertex 1.900000e+01 9.000000e+00 1.110000e+02
        vertex 2.600000e+01 8.500000e+00 1.110000e+02
    endloop
endfacet
facet normal 0.000000e+00 0.000000e+00 -1.000000e+00
    outer loop
        vertex 3.052843e+01 2.828427e+00 1.110000e+02
        vertex 2.950000e+01 6.500000e+00 1.110000e+02
        vertex 2.950000e+01 8.500000e+00 1.110000e+02
    endloop
endfacet
facet normal 0.000000e+00 0.000000e+00 -1.000000e+00
    outer loop
        vertex 3.600000e+01 -9.000000e+00 1.110000e+02
        vertex 2.770000e+01 -4.000000e+00 1.110000e+02
        vertex 2.873528e+01 -3.863703e+00 1.110000e+02
    endloop
endfacet
facet normal 0.000000e+00 0.000000e+00 -1.000000e+00
    outer loop
        vertex 3.600000e+01 -9.000000e+00 1.110000e+02
        vertex 2.873528e+01 -3.863703e+00 1.110000e+02
        vertex 2.970000e+01 -3.464102e+00 1.110000e+02
    endloop
endfacet
facet normal 0.000000e+00 0.000000e+00 -1.000000e+00
    outer loop
        vertex 3.600000e+01 -9.000000e+00 1.110000e+02
        vertex 2.970000e+01 -3.464102e+00 1.110000e+02
        vertex 3.052843e+01 -2.828427e+00 1.110000e+02
    endloop
endfacet
facet normal 0.000000e+00 0.000000e+00 -1.000000e+00
    outer loop
        vertex 3.600000e+01 -9.000000e+00 1.110000e+02
        vertex 3.052843e+01 -2.828427e+00 1.110000e+02
        vertex 3.116410e+01 -2.000000e+00 1.110000e+02
    endloop
endfacet
facet normal 0.000000e+00 0.000000e+00 -1.000000e+00
    outer loop
        vertex 3.600000e+01 -9.000000e+00 1.110000e+02
        vertex 3.116410e+01 -2.000000e+00 1.110000e+02
        vertex 3.600000e+01 9.000000e+00 1.110000e+02
    endloop
endfacet
facet normal 0.000000e+00 0.000000e+00 -1.000000e+00
    outer loop
        vertex 3.116410e+01 2.000000e+00 1.110000e+02
        vertex 3.052843e+01 2.828427e+00 1.110000e+02
        vertex 2.950000e+01 8.500000e+00 1.110000e+02
    endloop
endfacet
facet normal 0.000000e+00 0.000000e+00 -1.000000e+00
    outer loop
        vertex 2.600000e+01 8.500000e+00 1.110000e+02
        vertex 1.900000e+01 9.000000e+00 1.110000e+02
        vertex 3.600000e+01 9.000000e+00 1.110000e+02
    endloop
endfacet
facet normal 0.000000e+00 0.000000e+00 -1.000000e+00
    outer loop
        vertex 2.600000e+01 8.500000e+00 1.110000e+02
        vertex 3.600000e+01 9.000000e+00 1.110000e+02
        vertex 2.950000e+01 8.500000e+00 1.110000e+02
    endloop
endfacet
facet normal 0.000000e+00 0.000000e+00 -1.000000e+00
    outer loop
        vertex 3.116410e+01 2.000000e+00 1.110000e+02
        vertex 2.950000e+01 8.500000e+00 1.110000e+02
        vertex 3.600000e+01 9.000000e+00 1.110000e+02
    endloop
endfacet
facet normal 0.000000e+00 0.000000e+00 -1.000000e+00
    outer loop
        vertex 3.156370e+01 1.035276e+00 1.110000e+02
        vertex 3.116410e+01 2.000000e+00 1.110000e+02
        vertex 3.600000e+01 9.000000e+00 1.110000e+02
    endloop
endfacet
facet normal 0.000000e+00 0.000000e+00 -1.000000e+00
    outer loop
        vertex 3.170000e+01 0.000000e+00 1.110000e+02
        vertex 3.156370e+01 1.035276e+00 1.110000e+02
        vertex 3.600000e+01 9.000000e+00 1.110000e+02
    endloop
endfacet
facet normal 0.000000e+00 0.000000e+00 -1.000000e+00
    outer loop
        vertex 3.116410e+01 -2.000000e+00 1.110000e+02
        vertex 3.156370e+01 -1.035276e+00 1.110000e+02
        vertex 3.600000e+01 9.000000e+00 1.110000e+02
    endloop
endfacet
facet normal 0.000000e+00 0.000000e+00 -1.000000e+00
    outer loop
        vertex 3.156370e+01 -1.035276e+00 1.110000e+02
        vertex 3.170000e+01 0.000000e+00 1.110000e+02
        vertex 3.600000e+01 9.000000e+00 1.110000e+02
    endloop
endfacet
facet normal 0.000000e+00 1.000000e+00 -0.000000e+00
    outer loop
        vertex 2.950000e+01 6.500000e+00 1.110000e+02
        vertex 2.600000e+01 6.500000e+00 1.130000e+02
        vertex 2.950000e+01 6.500000e+00 1.130000e+02
    endloop
endfacet
facet normal 0.000000e+00 1.000000e+00 0.000000e+00
    outer loop
        vertex 2.600000e+01 6.500000e+00 1.110000e+02
        vertex 2.600000e+01 6.500000e+00 1.130000e+02
        vertex 2.950000e+01 6.500000e+00 1.110000e+02
    endloop
endfacet
facet normal -1.000000e+00 0.000000e+00 0.000000e+00
    outer loop
        vertex 2.950000e+01 6.500000e+00 1.130000e+02
        vertex 2.950000e+01 8.500000e+00 1.130000e+02
        vertex 2.950000e+01 8.500000e+00 1.110000e+02
    endloop
endfacet
facet normal -1.000000e+00 0.000000e+00 0.000000e+00
    outer loop
        vertex 2.950000e+01 6.500000e+00 1.110000e+02
        vertex 2.950000e+01 6.500000e+00 1.130000e+02
        vertex 2.950000e+01 8.500000e+00 1.110000e+02
    endloop
endfacet
facet normal 0.000000e+00 -1.000000e+00 0.000000e+00
    outer loop
        vertex 2.600000e+01 8.500000e+00 1.110000e+02
        vertex 2.950000e+01 8.500000e+00 1.130000e+02
        vertex 2.600000e+01 8.500000e+00 1.130000e+02
    endloop
endfacet
facet normal 0.000000e+00 -1.000000e+00 0.000000e+00
    outer loop
        vertex 2.600000e+01 8.500000e+00 1.110000e+02
        vertex 2.950000e+01 8.500000e+00 1.110000e+02
        vertex 2.950000e+01 8.500000e+00 1.130000e+02
    endloop
endfacet
facet normal 1.000000e+00 0.000000e+00 0.000000e+00
    outer loop
        vertex 2.600000e+01 6.500000e+00 1.110000e+02
        vertex 2.600000e+01 8.500000e+00 1.130000e+02
        vertex 2.600000e+01 6.500000e+00 1.130000e+02
    endloop
endfacet
facet normal 1.000000e+00 0.000000e+00 0.000000e+00
    outer loop
        vertex 2.600000e+01 6.500000e+00 1.110000e+02
        vertex 2.600000e+01 8.500000e+00 1.110000e+02
        vertex 2.600000e+01 8.500000e+00 1.130000e+02
    endloop
endfacet
facet normal 0.000000e+00 1.000000e+00 -0.000000e+00
    outer loop
        vertex 4.000000e+01 1.210000e+01 7.950000e+01
        vertex 3.640000e+01 1.210000e+01 8.450001e+01
        vertex 4.000000e+01 1.210000e+01 8.450001e+01
    endloop
endfacet
facet normal 0.000000e+00 1.000000e+00 0.000000e+00
    outer loop
        vertex -4.350000e+01 1.210000e+01 7.950000e+01
        vertex -4.350000e+01 1.210000e+01 8.550000e+01
        vertex 3.640000e+01 1.210000e+01 8.550000e+01
    endloop
endfacet
facet normal 0.000000e+00 1.000000e+00 0.000000e+00
    outer loop
        vertex -4.350000e+01 1.210000e+01 7.950000e+01
        vertex 3.640000e+01 1.210000e+01 8.550000e+01
        vertex 3.640000e+01 1.210000e+01 8.450001e+01
    endloop
endfacet
facet normal 0.000000e+00 1.000000e+00 0.000000e+00
    outer loop
        vertex 4.000000e+01 1.210000e+01 7.950000e+01
        vertex -4.350000e+01 1.210000e+01 7.950000e+01
        vertex 3.640000e+01 1.210000e+01 8.450001e+01
    endloop
endfacet
facet normal 0.000000e+00 -1.000000e+00 0.000000e+00
    outer loop
        vertex 4.000000e+01 -1.200000e+01 7.950000e+01
        vertex 4.000000e+01 -1.200000e+01 8.450001e+01
        vertex 3.640000e+01 -1.200000e+01 8.450001e+01
    endloop
endfacet
facet normal 0.000000e+00 -1.000000e+00 0.000000e+00
    outer loop
        vertex -4.350000e+01 -1.200000e+01 7.950000e+01
        vertex 3.640000e+01 -1.200000e+01 8.550000e+01
        vertex -4.350000e+01 -1.200000e+01 8.550000e+01
    endloop
endfacet
facet normal 0.000000e+00 -1.000000e+00 0.000000e+00
    outer loop
        vertex 4.000000e+01 -1.200000e+01 7.950000e+01
        vertex 3.640000e+01 -1.200000e+01 8.450001e+01
        vertex -4.350000e+01 -1.200000e+01 7.950000e+01
    endloop
endfacet
facet normal 0.000000e+00 -1.000000e+00 0.000000e+00
    outer loop
        vertex -4.350000e+01 -1.200000e+01 7.950000e+01
        vertex 3.640000e+01 -1.200000e+01 8.450001e+01
        vertex 3.640000e+01 -1.200000e+01 8.550000e+01
    endloop
endfacet
facet normal 1.000000e+00 0.000000e+00 0.000000e+00
    outer loop
        vertex 4.000000e+01 -1.200000e+01 7.950000e+01
        vertex 4.000000e+01 1.210000e+01 7.950000e+01
        vertex 4.000000e+01 -1.200000e+01 8.450001e+01
    endloop
endfacet
facet normal 1.000000e+00 -0.000000e+00 0.000000e+00
    outer loop
        vertex 4.000000e+01 -1.200000e+01 8.450001e+01
        vertex 4.000000e+01 1.210000e+01 7.950000e+01
        vertex 4.000000e+01 1.210000e+01 8.450001e+01
    endloop
endfacet
facet normal 0.000000e+00 0.000000e+00 1.000000e+00
    outer loop
        vertex 1.900000e+01 1.000000e+01 8.550000e+01
        vertex 3.600000e+01 1.000000e+01 8.550000e+01
        vertex 3.640000e+01 1.210000e+01 8.550000e+01
    endloop
endfacet
facet normal 0.000000e+00 0.000000e+00 1.000000e+00
    outer loop
        vertex 3.640000e+01 -1.200000e+01 8.550000e+01
        vertex 3.600000e+01 -1.000000e+01 8.550000e+01
        vertex 1.900000e+01 -1.000000e+01 8.550000e+01
    endloop
endfacet
facet normal 0.000000e+00 0.000000e+00 1.000000e+00
    outer loop
        vertex 3.640000e+01 -1.200000e+01 8.550000e+01
        vertex 3.600000e+01 -9.000000e+00 8.550000e+01
        vertex 3.600000e+01 -1.000000e+01 8.550000e+01
    endloop
endfacet
facet normal 0.000000e+00 0.000000e+00 1.000000e+00
    outer loop
        vertex 3.600000e+01 9.000000e+00 8.550000e+01
        vertex 3.640000e+01 1.210000e+01 8.550000e+01
        vertex 3.600000e+01 1.000000e+01 8.550000e+01
    endloop
endfacet
facet normal 0.000000e+00 -0.000000e+00 1.000000e+00
    outer loop
        vertex 1.900000e+01 1.000000e+01 8.550000e+01
        vertex 3.640000e+01 1.210000e+01 8.550000e+01
        vertex -4.350000e+01 1.210000e+01 8.550000e+01
    endloop
endfacet
facet normal 0.000000e+00 0.000000e+00 1.000000e+00
    outer loop
        vertex -4.350000e+01 -1.200000e+01 8.550000e+01
        vertex 1.900000e+01 1.000000e+01 8.550000e+01
        vertex -4.350000e+01 1.210000e+01 8.550000e+01
    endloop
endfacet
facet normal 0.000000e+00 0.000000e+00 1.000000e+00
    outer loop
        vertex 3.640000e+01 -1.200000e+01 8.550000e+01
        vertex 1.900000e+01 -1.000000e+01 8.550000e+01
        vertex -4.350000e+01 -1.200000e+01 8.550000e+01
    endloop
endfacet
facet normal 0.000000e+00 -0.000000e+00 1.000000e+00
    outer loop
        vertex 3.640000e+01 -1.200000e+01 8.550000e+01
        vertex 3.640000e+01 1.210000e+01 8.550000e+01
        vertex 3.600000e+01 9.000000e+00 8.550000e+01
    endloop
endfacet
facet normal 0.000000e+00 0.000000e+00 1.000000e+00
    outer loop
        vertex 3.640000e+01 -1.200000e+01 8.550000e+01
        vertex 3.600000e+01 9.000000e+00 8.550000e+01
        vertex 3.600000e+01 -9.000000e+00 8.550000e+01
    endloop
endfacet
facet normal 0.000000e+00 0.000000e+00 1.000000e+00
    outer loop
        vertex 1.900000e+01 -9.000000e+00 8.550000e+01
        vertex 3.600000e+01 -9.000000e+00 8.550000e+01
        vertex 3.600000e+01 9.000000e+00 8.550000e+01
    endloop
endfacet
facet normal 0.000000e+00 0.000000e+00 1.000000e+00
    outer loop
        vertex 1.900000e+01 -9.000000e+00 8.550000e+01
        vertex 3.600000e+01 9.000000e+00 8.550000e+01
        vertex 1.900000e+01 9.000000e+00 8.550000e+01
    endloop
endfacet
facet normal 0.000000e+00 0.000000e+00 1.000000e+00
    outer loop
        vertex -4.350000e+01 -1.200000e+01 8.550000e+01
        vertex 1.900000e+01 -1.000000e+01 8.550000e+01
        vertex 1.900000e+01 -9.000000e+00 8.550000e+01
    endloop
endfacet
facet normal 0.000000e+00 0.000000e+00 1.000000e+00
    outer loop
        vertex -4.350000e+01 -1.200000e+01 8.550000e+01
        vertex 1.900000e+01 -9.000000e+00 8.550000e+01
        vertex 1.900000e+01 9.000000e+00 8.550000e+01
    endloop
endfacet
facet normal 0.000000e+00 0.000000e+00 1.000000e+00
    outer loop
        vertex -4.350000e+01 -1.200000e+01 8.550000e+01
        vertex 1.900000e+01 9.000000e+00 8.550000e+01
        vertex 1.900000e+01 1.000000e+01 8.550000e+01
    endloop
endfacet
facet normal 0.000000e+00 0.000000e+00 1.000000e+00
    outer loop
        vertex 3.640000e+01 -1.200000e+01 8.450001e+01
        vertex 4.000000e+01 1.210000e+01 8.450001e+01
        vertex 3.640000e+01 1.210000e+01 8.450001e+01
    endloop
endfacet
facet normal 0.000000e+00 0.000000e+00 1.000000e+00
    outer loop
        vertex 3.640000e+01 -1.200000e+01 8.450001e+01
        vertex 4.000000e+01 -1.200000e+01 8.450001e+01
        vertex 4.000000e+01 1.210000e+01 8.450001e+01
    endloop
endfacet
facet normal 1.000000e+00 0.000000e+00 0.000000e+00
    outer loop
        vertex 3.640000e+01 -1.200000e+01 8.450001e+01
        vertex 3.640000e+01 1.210000e+01 8.450001e+01
        vertex 3.640000e+01 1.210000e+01 8.550000e+01
    endloop
endfacet
facet normal 1.000000e+00 0.000000e+00 0.000000e+00
    outer loop
        vertex 3.640000e+01 -1.200000e+01 8.450001e+01
        vertex 3.640000e+01 1.210000e+01 8.550000e+01
        vertex 3.640000e+01 -1.200000e+01 8.550000e+01
    endloop
endfacet
endsolid mag-stop.stl
