solid pusher.stl
facet normal 0.000000e+00 -1.000000e+00 0.000000e+00
    outer loop
        vertex -4.000000e+00 -3.000000e+00 7.680000e+01
        vertex -4.549999e+00 -3.000000e+00 7.860000e+01
        vertex -6.000000e+00 -3.000000e+00 7.860000e+01
    endloop
endfacet
facet normal 0.000000e+00 -1.000000e+00 0.000000e+00
    outer loop
        vertex -6.000000e+00 -3.000000e+00 7.100000e+01
        vertex -4.000000e+00 -3.000000e+00 7.680000e+01
        vertex -6.000000e+00 -3.000000e+00 7.860000e+01
    endloop
endfacet
facet normal 0.000000e+00 -1.000000e+00 0.000000e+00
    outer loop
        vertex -6.000000e+00 -3.000000e+00 7.100000e+01
        vertex 4.000000e+01 -3.000000e+00 7.100000e+01
        vertex -4.000000e+00 -3.000000e+00 7.680000e+01
    endloop
endfacet
facet normal 0.000000e+00 -1.000000e+00 0.000000e+00
    outer loop
        vertex 4.000000e+01 -3.000000e+00 7.100000e+01
        vertex 4.000000e+01 -3.000000e+00 7.680000e+01
        vertex -4.000000e+00 -3.000000e+00 7.680000e+01
    endloop
endfacet
facet normal 0.000000e+00 1.000000e+00 0.000000e+00
    outer loop
        vertex -4.000000e+00 3.000000e+00 7.680000e+01
        vertex -6.000000e+00 3.000000e+00 7.860000e+01
        vertex -4.549999e+00 3.000000e+00 7.860000e+01
    endloop
endfacet
facet normal 0.000000e+00 1.000000e+00 0.000000e+00
    outer loop
        vertex -6.000000e+00 3.000000e+00 7.100000e+01
        vertex -6.000000e+00 3.000000e+00 7.860000e+01
        vertex -4.000000e+00 3.000000e+00 7.680000e+01
    endloop
endfacet
facet normal 0.000000e+00 1.000000e+00 0.000000e+00
    outer loop
        vertex -6.000000e+00 3.000000e+00 7.100000e+01
        vertex -4.000000e+00 3.000000e+00 7.680000e+01
        vertex 4.000000e+01 3.000000e+00 7.100000e+01
    endloop
endfacet
facet normal 0.000000e+00 1.000000e+00 -0.000000e+00
    outer loop
        vertex 4.000000e+01 3.000000e+00 7.100000e+01
        vertex -4.000000e+00 3.000000e+00 7.680000e+01
        vertex 4.000000e+01 3.000000e+00 7.680000e+01
    endloop
endfacet
facet normal 0.000000e+00 0.000000e+00 -1.000000e+00
    outer loop
        vertex 4.000000e+01 -2.800000e+01 7.100000e+01
        vertex 4.950000e+01 -2.410000e+01 7.100000e+01
        vertex 5.200000e+01 -2.800000e+01 7.100000e+01
    endloop
endfacet
facet normal 0.000000e+00 0.000000e+00 -1.000000e+00
    outer loop
        vertex 4.000000e+01 -2.800000e+01 7.100000e+01
        vertex 4.250000e+01 -2.410000e+01 7.100000e+01
        vertex 4.950000e+01 -2.410000e+01 7.100000e+01
    endloop
endfacet
facet normal 0.000000e+00 0.000000e+00 -1.000000e+00
    outer loop
        vertex 5.200000e+01 -2.800000e+01 7.100000e+01
        vertex 4.950000e+01 -2.410000e+01 7.100000e+01
        vertex 5.200000e+01 2.800000e+01 7.100000e+01
    endloop
endfacet
facet normal 0.000000e+00 0.000000e+00 -1.000000e+00
    outer loop
        vertex 4.000000e+01 -2.800000e+01 7.100000e+01
        vertex 4.000000e+01 2.800000e+01 7.100000e+01
        vertex 4.250000e+01 -2.410000e+01 7.100000e+01
    endloop
endfacet
facet normal 0.000000e+00 0.000000e+00 -1.000000e+00
    outer loop
        vertex 4.950000e+01 -2.410000e+01 7.100000e+01
        vertex 4.950000e+01 2.410000e+01 7.100000e+01
        vertex 5.200000e+01 2.800000e+01 7.100000e+01
    endloop
endfacet
facet normal 0.000000e+00 0.000000e+00 -1.000000e+00
    outer loop
        vertex 4.950000e+01 2.410000e+01 7.100000e+01
        vertex 4.000000e+01 2.800000e+01 7.100000e+01
        vertex 5.200000e+01 2.800000e+01 7.100000e+01
    endloop
endfacet
facet normal 0.000000e+00 0.000000e+00 -1.000000e+00
    outer loop
        vertex 4.250000e+01 2.410000e+01 7.100000e+01
        vertex 4.000000e+01 2.800000e+01 7.100000e+01
        vertex 4.950000e+01 2.410000e+01 7.100000e+01
    endloop
endfacet
facet normal 0.000000e+00 0.000000e+00 -1.000000e+00
    outer loop
        vertex 4.250000e+01 -2.410000e+01 7.100000e+01
        vertex 4.000000e+01 2.800000e+01 7.100000e+01
        vertex 4.250000e+01 2.410000e+01 7.100000e+01
    endloop
endfacet
facet normal 0.000000e+00 0.000000e+00 1.000000e+00
    outer loop
        vertex 4.000000e+01 -2.800000e+01 7.700000e+01
        vertex 5.200000e+01 -2.800000e+01 7.700000e+01
        vertex 4.950000e+01 -2.410000e+01 7.700000e+01
    endloop
endfacet
facet normal 0.000000e+00 0.000000e+00 1.000000e+00
    outer loop
        vertex 4.000000e+01 -2.800000e+01 7.700000e+01
        vertex 4.950000e+01 -2.410000e+01 7.700000e+01
        vertex 4.250000e+01 -2.410000e+01 7.700000e+01
    endloop
endfacet
facet normal 0.000000e+00 0.000000e+00 1.000000e+00
    outer loop
        vertex 4.000000e+01 -2.800000e+01 7.700000e+01
        vertex 4.250000e+01 -2.410000e+01 7.700000e+01
        vertex 4.000000e+01 2.800000e+01 7.700000e+01
    endloop
endfacet
facet normal 0.000000e+00 -0.000000e+00 1.000000e+00
    outer loop
        vertex 5.200000e+01 -2.800000e+01 7.700000e+01
        vertex 5.200000e+01 2.800000e+01 7.700000e+01
        vertex 4.950000e+01 -2.410000e+01 7.700000e+01
    endloop
endfacet
facet normal 0.000000e+00 -0.000000e+00 1.000000e+00
    outer loop
        vertex 4.250000e+01 -2.410000e+01 7.700000e+01
        vertex 4.250000e+01 2.410000e+01 7.700000e+01
        vertex 4.000000e+01 2.800000e+01 7.700000e+01
    endloop
endfacet
facet normal 0.000000e+00 -0.000000e+00 1.000000e+00
    outer loop
        vertex 4.250000e+01 2.410000e+01 7.700000e+01
        vertex 5.200000e+01 2.800000e+01 7.700000e+01
        vertex 4.000000e+01 2.800000e+01 7.700000e+01
    endloop
endfacet
facet normal 0.000000e+00 0.000000e+00 1.000000e+00
    outer loop
        vertex 4.250000e+01 2.410000e+01 7.700000e+01
        vertex 4.950000e+01 2.410000e+01 7.700000e+01
        vertex 5.200000e+01 2.800000e+01 7.700000e+01
    endloop
endfacet
facet normal 0.000000e+00 0.000000e+00 1.000000e+00
    outer loop
        vertex 4.950000e+01 -2.410000e+01 7.700000e+01
        vertex 5.200000e+01 2.800000e+01 7.700000e+01
        vertex 4.950000e+01 2.410000e+01 7.700000e+01
    endloop
endfacet
facet normal -1.000000e+00 0.000000e+00 0.000000e+00
    outer loop
        vertex 4.000000e+01 3.000000e+00 7.100000e+01
        vertex 4.000000e+01 2.800000e+01 7.700000e+01
        vertex 4.000000e+01 2.800000e+01 7.100000e+01
    endloop
endfacet
facet normal -1.000000e+00 0.000000e+00 0.000000e+00
    outer loop
        vertex 4.000000e+01 3.000000e+00 7.100000e+01
        vertex 4.000000e+01 3.000000e+00 7.680000e+01
        vertex 4.000000e+01 2.800000e+01 7.700000e+01
    endloop
endfacet
facet normal -1.000000e+00 0.000000e+00 0.000000e+00
    outer loop
        vertex 4.000000e+01 -2.800000e+01 7.700000e+01
        vertex 4.000000e+01 2.800000e+01 7.700000e+01
        vertex 4.000000e+01 3.000000e+00 7.680000e+01
    endloop
endfacet
facet normal -1.000000e+00 0.000000e+00 0.000000e+00
    outer loop
        vertex 4.000000e+01 -2.800000e+01 7.700000e+01
        vertex 4.000000e+01 3.000000e+00 7.680000e+01
        vertex 4.000000e+01 -3.000000e+00 7.680000e+01
    endloop
endfacet
facet normal -1.000000e+00 0.000000e+00 0.000000e+00
    outer loop
        vertex 4.000000e+01 -2.800000e+01 7.100000e+01
        vertex 4.000000e+01 -2.800000e+01 7.700000e+01
        vertex 4.000000e+01 -3.000000e+00 7.680000e+01
    endloop
endfacet
facet normal -1.000000e+00 0.000000e+00 0.000000e+00
    outer loop
        vertex 4.000000e+01 -2.800000e+01 7.100000e+01
        vertex 4.000000e+01 -3.000000e+00 7.680000e+01
        vertex 4.000000e+01 2.800000e+01 7.100000e+01
    endloop
endfacet
facet normal 1.000000e+00 0.000000e+00 0.000000e+00
    outer loop
        vertex 4.000000e+01 -3.000000e+00 7.100000e+01
        vertex 4.000000e+01 2.800000e+01 7.100000e+01
        vertex 4.000000e+01 -3.000000e+00 7.680000e+01
    endloop
endfacet
facet normal 0.000000e+00 0.000000e+00 1.000000e+00
    outer loop
        vertex -6.000000e+00 -3.000000e+00 7.860000e+01
        vertex -4.549999e+00 3.000000e+00 7.860000e+01
        vertex -6.000000e+00 3.000000e+00 7.860000e+01
    endloop
endfacet
facet normal 0.000000e+00 -0.000000e+00 1.000000e+00
    outer loop
        vertex -4.549999e+00 -3.000000e+00 7.860000e+01
        vertex -4.549999e+00 3.000000e+00 7.860000e+01
        vertex -6.000000e+00 -3.000000e+00 7.860000e+01
    endloop
endfacet
facet normal 9.563515e-01 -0.000000e+00 2.922188e-01
    outer loop
        vertex -4.000000e+00 -3.000000e+00 7.680000e+01
        vertex -4.000000e+00 3.000000e+00 7.680000e+01
        vertex -4.549999e+00 -3.000000e+00 7.860000e+01
    endloop
endfacet
facet normal 9.563515e-01 -0.000000e+00 2.922188e-01
    outer loop
        vertex -4.549999e+00 -3.000000e+00 7.860000e+01
        vertex -4.000000e+00 3.000000e+00 7.680000e+01
        vertex -4.549999e+00 3.000000e+00 7.860000e+01
    endloop
endfacet
facet normal 0.000000e+00 0.000000e+00 1.000000e+00
    outer loop
        vertex -4.000000e+00 -3.000000e+00 7.680000e+01
        vertex 4.000000e+01 -3.000000e+00 7.680000e+01
        vertex 4.000000e+01 3.000000e+00 7.680000e+01
    endloop
endfacet
facet normal 0.000000e+00 0.000000e+00 1.000000e+00
    outer loop
        vertex -4.000000e+00 -3.000000e+00 7.680000e+01
        vertex 4.000000e+01 3.000000e+00 7.680000e+01
        vertex -4.000000e+00 3.000000e+00 7.680000e+01
    endloop
endfacet
facet normal -1.000000e+00 0.000000e+00 0.000000e+00
    outer loop
        vertex -7.000000e+00 -2.000000e+00 7.220000e+01
        vertex -7.000000e+00 -2.000000e+00 7.760000e+01
        vertex -7.000000e+00 2.000000e+00 7.220000e+01
    endloop
endfacet
facet normal -1.000000e+00 0.000000e+00 0.000000e+00
    outer loop
        vertex -7.000000e+00 -2.000000e+00 7.760000e+01
        vertex -7.000000e+00 2.000000e+00 7.760000e+01
        vertex -7.000000e+00 2.000000e+00 7.220000e+01
    endloop
endfacet
facet normal 1.000000e+00 0.000000e+00 0.000000e+00
    outer loop
        vertex 4.250000e+01 -2.410000e+01 7.100000e+01
        vertex 4.250000e+01 2.410000e+01 7.100000e+01
        vertex 4.250000e+01 2.410000e+01 7.700000e+01
    endloop
endfacet
facet normal 1.000000e+00 0.000000e+00 0.000000e+00
    outer loop
        vertex 4.250000e+01 -2.410000e+01 7.100000e+01
        vertex 4.250000e+01 2.410000e+01 7.700000e+01
        vertex 4.250000e+01 -2.410000e+01 7.700000e+01
    endloop
endfacet
facet normal 0.000000e+00 -1.000000e+00 0.000000e+00
    outer loop
        vertex 4.250000e+01 2.410000e+01 7.100000e+01
        vertex 4.950000e+01 2.410000e+01 7.100000e+01
        vertex 4.950000e+01 2.410000e+01 7.700000e+01
    endloop
endfacet
facet normal 0.000000e+00 -1.000000e+00 0.000000e+00
    outer loop
        vertex 4.250000e+01 2.410000e+01 7.100000e+01
        vertex 4.950000e+01 2.410000e+01 7.700000e+01
        vertex 4.250000e+01 2.410000e+01 7.700000e+01
    endloop
endfacet
facet normal -1.000000e+00 0.000000e+00 0.000000e+00
    outer loop
        vertex 4.950000e+01 -2.410000e+01 7.100000e+01
        vertex 4.950000e+01 -2.410000e+01 7.700000e+01
        vertex 4.950000e+01 2.410000e+01 7.100000e+01
    endloop
endfacet
facet normal -1.000000e+00 0.000000e+00 0.000000e+00
    outer loop
        vertex 4.950000e+01 -2.410000e+01 7.700000e+01
        vertex 4.950000e+01 2.410000e+01 7.700000e+01
        vertex 4.950000e+01 2.410000e+01 7.100000e+01
    endloop
endfacet
facet normal 0.000000e+00 1.000000e+00 0.000000e+00
    outer loop
        vertex 4.250000e+01 -2.410000e+01 7.100000e+01
        vertex 4.250000e+01 -2.410000e+01 7.700000e+01
        vertex 4.950000e+01 -2.410000e+01 7.100000e+01
    endloop
endfacet
facet normal 0.000000e+00 1.000000e+00 -0.000000e+00
    outer loop
        vertex 4.950000e+01 -2.410000e+01 7.100000e+01
        vertex 4.250000e+01 -2.410000e+01 7.700000e+01
        vertex 4.950000e+01 -2.410000e+01 7.700000e+01
    endloop
endfacet
facet normal 0.000000e+00 1.000000e+00 0.000000e+00
    outer loop
        vertex 4.000000e+01 2.800000e+01 7.100000e+01
        vertex 4.000000e+01 2.800000e+01 7.700000e+01
        vertex 5.200000e+01 2.800000e+01 7.100000e+01
    endloop
endfacet
facet normal 0.000000e+00 1.000000e+00 -0.000000e+00
    outer loop
        vertex 5.200000e+01 2.800000e+01 7.100000e+01
        vertex 4.000000e+01 2.800000e+01 7.700000e+01
        vertex 5.200000e+01 2.800000e+01 7.700000e+01
    endloop
endfacet
facet normal 1.000000e+00 0.000000e+00 0.000000e+00
    outer loop
        vertex 5.200000e+01 -2.800000e+01 7.100000e+01
        vertex 5.200000e+01 2.800000e+01 7.100000e+01
        vertex 5.200000e+01 -2.800000e+01 7.700000e+01
    endloop
endfacet
facet normal 1.000000e+00 -0.000000e+00 0.000000e+00
    outer loop
        vertex 5.200000e+01 -2.800000e+01 7.700000e+01
        vertex 5.200000e+01 2.800000e+01 7.100000e+01
        vertex 5.200000e+01 2.800000e+01 7.700000e+01
    endloop
endfacet
facet normal 0.000000e+00 -1.000000e+00 0.000000e+00
    outer loop
        vertex 4.000000e+01 -2.800000e+01 7.100000e+01
        vertex 5.200000e+01 -2.800000e+01 7.100000e+01
        vertex 4.000000e+01 -2.800000e+01 7.700000e+01
    endloop
endfacet
facet normal 0.000000e+00 -1.000000e+00 0.000000e+00
    outer loop
        vertex 5.200000e+01 -2.800000e+01 7.100000e+01
        vertex 5.200000e+01 -2.800000e+01 7.700000e+01
        vertex 4.000000e+01 -2.800000e+01 7.700000e+01
    endloop
endfacet
facet normal 0.000000e+00 0.000000e+00 -1.000000e+00
    outer loop
        vertex -6.000000e+00 -3.000000e+00 7.100000e+01
        vertex 4.000000e+01 3.000000e+00 7.100000e+01
        vertex 4.000000e+01 -3.000000e+00 7.100000e+01
    endloop
endfacet
facet normal 0.000000e+00 0.000000e+00 -1.000000e+00
    outer loop
        vertex -6.000000e+00 -3.000000e+00 7.100000e+01
        vertex -6.000000e+00 3.000000e+00 7.100000e+01
        vertex 4.000000e+01 3.000000e+00 7.100000e+01
    endloop
endfacet
facet normal -7.071068e-01 -7.071068e-01 0.000000e+00
    outer loop
        vertex -6.000000e+00 -3.000000e+00 7.100000e+01
        vertex -6.000000e+00 -3.000000e+00 7.860000e+01
        vertex -7.000000e+00 -2.000000e+00 7.220000e+01
    endloop
endfacet
facet normal -7.071068e-01 -7.071068e-01 0.000000e+00
    outer loop
        vertex -6.000000e+00 -3.000000e+00 7.860000e+01
        vertex -7.000000e+00 -2.000000e+00 7.760000e+01
        vertex -7.000000e+00 -2.000000e+00 7.220000e+01
    endloop
endfacet
facet normal -7.682205e-01 0.000000e+00 -6.401854e-01
    outer loop
        vertex -6.000000e+00 -3.000000e+00 7.100000e+01
        vertex -7.000000e+00 -2.000000e+00 7.220000e+01
        vertex -6.000000e+00 3.000000e+00 7.100000e+01
    endloop
endfacet
facet normal -7.682205e-01 0.000000e+00 -6.401854e-01
    outer loop
        vertex -7.000000e+00 -2.000000e+00 7.220000e+01
        vertex -7.000000e+00 2.000000e+00 7.220000e+01
        vertex -6.000000e+00 3.000000e+00 7.100000e+01
    endloop
endfacet
facet normal -7.071068e-01 7.071068e-01 0.000000e+00
    outer loop
        vertex -7.000000e+00 2.000000e+00 7.220000e+01
        vertex -6.000000e+00 3.000000e+00 7.860000e+01
        vertex -6.000000e+00 3.000000e+00 7.100000e+01
    endloop
endfacet
facet normal -7.071068e-01 7.071068e-01 0.000000e+00
    outer loop
        vertex -7.000000e+00 2.000000e+00 7.220000e+01
        vertex -7.000000e+00 2.000000e+00 7.760000e+01
        vertex -6.000000e+00 3.000000e+00 7.860000e+01
    endloop
endfacet
facet normal -7.071068e-01 0.000000e+00 7.071068e-01
    outer loop
        vertex -6.000000e+00 -3.000000e+00 7.860000e+01
        vertex -7.000000e+00 2.000000e+00 7.760000e+01
        vertex -7.000000e+00 -2.000000e+00 7.760000e+01
    endloop
endfacet
facet normal -7.071068e-01 0.000000e+00 7.071068e-01
    outer loop
        vertex -6.000000e+00 -3.000000e+00 7.860000e+01
        vertex -6.000000e+00 3.000000e+00 7.860000e+01
        vertex -7.000000e+00 2.000000e+00 7.760000e+01
    endloop
endfacet
endsolid pusher.stl
