solid pusher-guide.stl
facet normal 0.000000e+00 7.933625e-01 -6.087495e-01
    outer loop
        vertex 3.900000e+01 2.898528e+01 6.951472e+01
        vertex 9.700000e+01 2.900000e+01 6.953390e+01
        vertex 9.700000e+01 2.898528e+01 6.951472e+01
    endloop
endfacet
facet normal 0.000000e+00 7.933625e-01 -6.087495e-01
    outer loop
        vertex 3.900000e+01 2.898528e+01 6.951472e+01
        vertex 3.900000e+01 2.900000e+01 6.953390e+01
        vertex 9.700000e+01 2.900000e+01 6.953390e+01
    endloop
endfacet
facet normal 0.000000e+00 6.087609e-01 -7.933537e-01
    outer loop
        vertex 9.700000e+01 2.650000e+01 6.760770e+01
        vertex 3.900000e+01 2.898528e+01 6.951472e+01
        vertex 9.700000e+01 2.898528e+01 6.951472e+01
    endloop
endfacet
facet normal 0.000000e+00 6.087609e-01 -7.933537e-01
    outer loop
        vertex 3.900000e+01 2.650000e+01 6.760770e+01
        vertex 3.900000e+01 2.898528e+01 6.951472e+01
        vertex 9.700000e+01 2.650000e+01 6.760770e+01
    endloop
endfacet
facet normal 0.000000e+00 3.826840e-01 -9.238793e-01
    outer loop
        vertex 9.700000e+01 2.360583e+01 6.640889e+01
        vertex 3.900000e+01 2.650000e+01 6.760770e+01
        vertex 9.700000e+01 2.650000e+01 6.760770e+01
    endloop
endfacet
facet normal 0.000000e+00 3.826840e-01 -9.238793e-01
    outer loop
        vertex 3.900000e+01 2.360583e+01 6.640889e+01
        vertex 3.900000e+01 2.650000e+01 6.760770e+01
        vertex 9.700000e+01 2.360583e+01 6.640889e+01
    endloop
endfacet
facet normal 0.000000e+00 1.305261e-01 -9.914449e-01
    outer loop
        vertex 9.700000e+01 2.050000e+01 6.600000e+01
        vertex 3.900000e+01 2.360583e+01 6.640889e+01
        vertex 9.700000e+01 2.360583e+01 6.640889e+01
    endloop
endfacet
facet normal 0.000000e+00 1.305261e-01 -9.914449e-01
    outer loop
        vertex 3.900000e+01 2.050000e+01 6.600000e+01
        vertex 3.900000e+01 2.360583e+01 6.640889e+01
        vertex 9.700000e+01 2.050000e+01 6.600000e+01
    endloop
endfacet
facet normal 0.000000e+00 0.000000e+00 -1.000000e+00
    outer loop
        vertex 9.700000e+01 -2.050000e+01 6.600000e+01
        vertex 3.900000e+01 2.050000e+01 6.600000e+01
        vertex 9.700000e+01 2.050000e+01 6.600000e+01
    endloop
endfacet
facet normal 0.000000e+00 0.000000e+00 -1.000000e+00
    outer loop
        vertex 3.900000e+01 -2.050000e+01 6.600000e+01
        vertex 3.900000e+01 2.050000e+01 6.600000e+01
        vertex 9.700000e+01 -2.050000e+01 6.600000e+01
    endloop
endfacet
facet normal 0.000000e+00 -1.305261e-01 -9.914449e-01
    outer loop
        vertex 9.700000e+01 -2.360583e+01 6.640889e+01
        vertex 3.900000e+01 -2.050000e+01 6.600000e+01
        vertex 9.700000e+01 -2.050000e+01 6.600000e+01
    endloop
endfacet
facet normal 0.000000e+00 -1.305261e-01 -9.914449e-01
    outer loop
        vertex 3.900000e+01 -2.360583e+01 6.640889e+01
        vertex 3.900000e+01 -2.050000e+01 6.600000e+01
        vertex 9.700000e+01 -2.360583e+01 6.640889e+01
    endloop
endfacet
facet normal 0.000000e+00 -3.826840e-01 -9.238793e-01
    outer loop
        vertex 9.700000e+01 -2.650000e+01 6.760770e+01
        vertex 3.900000e+01 -2.360583e+01 6.640889e+01
        vertex 9.700000e+01 -2.360583e+01 6.640889e+01
    endloop
endfacet
facet normal 0.000000e+00 -3.826840e-01 -9.238793e-01
    outer loop
        vertex 3.900000e+01 -2.650000e+01 6.760770e+01
        vertex 3.900000e+01 -2.360583e+01 6.640889e+01
        vertex 9.700000e+01 -2.650000e+01 6.760770e+01
    endloop
endfacet
facet normal 0.000000e+00 -6.087609e-01 -7.933537e-01
    outer loop
        vertex 9.700000e+01 -2.898528e+01 6.951472e+01
        vertex 3.900000e+01 -2.650000e+01 6.760770e+01
        vertex 9.700000e+01 -2.650000e+01 6.760770e+01
    endloop
endfacet
facet normal 0.000000e+00 -6.087609e-01 -7.933537e-01
    outer loop
        vertex 3.900000e+01 -2.898528e+01 6.951472e+01
        vertex 3.900000e+01 -2.650000e+01 6.760770e+01
        vertex 9.700000e+01 -2.898528e+01 6.951472e+01
    endloop
endfacet
facet normal 0.000000e+00 -7.933625e-01 -6.087495e-01
    outer loop
        vertex 3.900000e+01 -2.900000e+01 6.953390e+01
        vertex 3.900000e+01 -2.898528e+01 6.951472e+01
        vertex 9.700000e+01 -2.900000e+01 6.953390e+01
    endloop
endfacet
facet normal 0.000000e+00 -7.933625e-01 -6.087495e-01
    outer loop
        vertex 9.700000e+01 -2.900000e+01 6.953390e+01
        vertex 3.900000e+01 -2.898528e+01 6.951472e+01
        vertex 9.700000e+01 -2.898528e+01 6.951472e+01
    endloop
endfacet
facet normal 0.000000e+00 -1.000000e+00 -4.092122e-06
    outer loop
        vertex 3.900000e+01 -2.900000e+01 7.000000e+01
        vertex 9.700000e+01 -2.900000e+01 6.953390e+01
        vertex 9.700000e+01 -2.900000e+01 7.000000e+01
    endloop
endfacet
facet normal 0.000000e+00 -1.000000e+00 -4.092122e-06
    outer loop
        vertex 3.900000e+01 -2.900000e+01 7.000000e+01
        vertex 3.900000e+01 -2.900000e+01 6.953390e+01
        vertex 9.700000e+01 -2.900000e+01 6.953390e+01
    endloop
endfacet
facet normal 1.000000e+00 0.000000e+00 0.000000e+00
    outer loop
        vertex 9.700000e+01 -2.650000e+01 6.760770e+01
        vertex 9.700000e+01 -2.360583e+01 6.640889e+01
        vertex 9.700000e+01 -2.050000e+01 6.600000e+01
    endloop
endfacet
facet normal 1.000000e+00 0.000000e+00 0.000000e+00
    outer loop
        vertex 9.700000e+01 2.050000e+01 6.600000e+01
        vertex 9.700000e+01 2.360583e+01 6.640889e+01
        vertex 9.700000e+01 2.650000e+01 6.760770e+01
    endloop
endfacet
facet normal 1.000000e+00 0.000000e+00 0.000000e+00
    outer loop
        vertex 9.700000e+01 -2.898528e+01 6.951472e+01
        vertex 9.700000e+01 -2.650000e+01 6.760770e+01
        vertex 9.700000e+01 -2.050000e+01 6.600000e+01
    endloop
endfacet
facet normal 1.000000e+00 0.000000e+00 0.000000e+00
    outer loop
        vertex 9.700000e+01 2.050000e+01 6.600000e+01
        vertex 9.700000e+01 2.650000e+01 6.760770e+01
        vertex 9.700000e+01 2.898528e+01 6.951472e+01
    endloop
endfacet
facet normal 1.000000e+00 0.000000e+00 0.000000e+00
    outer loop
        vertex 9.700000e+01 -2.898528e+01 6.951472e+01
        vertex 9.700000e+01 -2.050000e+01 6.600000e+01
        vertex 9.700000e+01 2.050000e+01 6.600000e+01
    endloop
endfacet
facet normal 1.000000e+00 0.000000e+00 0.000000e+00
    outer loop
        vertex 9.700000e+01 2.898528e+01 6.951472e+01
        vertex 9.700000e+01 2.900000e+01 6.953390e+01
        vertex 9.700000e+01 2.900000e+01 7.000000e+01
    endloop
endfacet
facet normal 1.000000e+00 0.000000e+00 0.000000e+00
    outer loop
        vertex 9.700000e+01 2.050000e+01 6.600000e+01
        vertex 9.700000e+01 2.898528e+01 6.951472e+01
        vertex 9.700000e+01 2.900000e+01 7.000000e+01
    endloop
endfacet
facet normal 1.000000e+00 -0.000000e+00 0.000000e+00
    outer loop
        vertex 9.700000e+01 -2.900000e+01 7.000000e+01
        vertex 9.700000e+01 2.050000e+01 6.600000e+01
        vertex 9.700000e+01 2.900000e+01 7.000000e+01
    endloop
endfacet
facet normal 1.000000e+00 0.000000e+00 0.000000e+00
    outer loop
        vertex 9.700000e+01 -2.900000e+01 7.000000e+01
        vertex 9.700000e+01 -2.900000e+01 6.953390e+01
        vertex 9.700000e+01 -2.898528e+01 6.951472e+01
    endloop
endfacet
facet normal 1.000000e+00 0.000000e+00 0.000000e+00
    outer loop
        vertex 9.700000e+01 -2.900000e+01 7.000000e+01
        vertex 9.700000e+01 -2.898528e+01 6.951472e+01
        vertex 9.700000e+01 2.050000e+01 6.600000e+01
    endloop
endfacet
facet normal 0.000000e+00 1.000000e+00 -4.092122e-06
    outer loop
        vertex 9.700000e+01 2.900000e+01 6.953390e+01
        vertex 3.900000e+01 2.900000e+01 7.000000e+01
        vertex 9.700000e+01 2.900000e+01 7.000000e+01
    endloop
endfacet
facet normal 0.000000e+00 1.000000e+00 -4.092122e-06
    outer loop
        vertex 3.900000e+01 2.900000e+01 6.953390e+01
        vertex 3.900000e+01 2.900000e+01 7.000000e+01
        vertex 9.700000e+01 2.900000e+01 6.953390e+01
    endloop
endfacet
facet normal -1.000000e+00 0.000000e+00 0.000000e+00
    outer loop
        vertex 3.900000e+01 2.050000e+01 6.600000e+01
        vertex 3.900000e+01 2.650000e+01 6.760770e+01
        vertex 3.900000e+01 2.360583e+01 6.640889e+01
    endloop
endfacet
facet normal -1.000000e+00 0.000000e+00 0.000000e+00
    outer loop
        vertex 3.900000e+01 -2.650000e+01 6.760770e+01
        vertex 3.900000e+01 -2.050000e+01 6.600000e+01
        vertex 3.900000e+01 -2.360583e+01 6.640889e+01
    endloop
endfacet
facet normal -1.000000e+00 0.000000e+00 0.000000e+00
    outer loop
        vertex 3.900000e+01 2.050000e+01 6.600000e+01
        vertex 3.900000e+01 2.898528e+01 6.951472e+01
        vertex 3.900000e+01 2.650000e+01 6.760770e+01
    endloop
endfacet
facet normal -1.000000e+00 0.000000e+00 0.000000e+00
    outer loop
        vertex 3.900000e+01 -2.898528e+01 6.951472e+01
        vertex 3.900000e+01 -2.050000e+01 6.600000e+01
        vertex 3.900000e+01 -2.650000e+01 6.760770e+01
    endloop
endfacet
facet normal -1.000000e+00 0.000000e+00 0.000000e+00
    outer loop
        vertex 3.900000e+01 -2.050000e+01 6.600000e+01
        vertex 3.900000e+01 2.898528e+01 6.951472e+01
        vertex 3.900000e+01 2.050000e+01 6.600000e+01
    endloop
endfacet
facet normal -1.000000e+00 0.000000e+00 0.000000e+00
    outer loop
        vertex 3.900000e+01 -2.900000e+01 7.000000e+01
        vertex 3.900000e+01 -2.898528e+01 6.951472e+01
        vertex 3.900000e+01 -2.900000e+01 6.953390e+01
    endloop
endfacet
facet normal -1.000000e+00 0.000000e+00 0.000000e+00
    outer loop
        vertex 3.900000e+01 -2.900000e+01 7.000000e+01
        vertex 3.900000e+01 -2.050000e+01 6.600000e+01
        vertex 3.900000e+01 -2.898528e+01 6.951472e+01
    endloop
endfacet
facet normal -1.000000e+00 0.000000e+00 0.000000e+00
    outer loop
        vertex 3.900000e+01 2.898528e+01 6.951472e+01
        vertex 3.900000e+01 2.900000e+01 7.000000e+01
        vertex 3.900000e+01 2.900000e+01 6.953390e+01
    endloop
endfacet
facet normal -1.000000e+00 0.000000e+00 0.000000e+00
    outer loop
        vertex 3.900000e+01 -2.050000e+01 6.600000e+01
        vertex 3.900000e+01 2.900000e+01 7.000000e+01
        vertex 3.900000e+01 2.898528e+01 6.951472e+01
    endloop
endfacet
facet normal -1.000000e+00 0.000000e+00 0.000000e+00
    outer loop
        vertex 3.900000e+01 -2.900000e+01 7.000000e+01
        vertex 3.900000e+01 2.900000e+01 7.000000e+01
        vertex 3.900000e+01 -2.050000e+01 6.600000e+01
    endloop
endfacet
facet normal 0.000000e+00 0.000000e+00 1.000000e+00
    outer loop
        vertex 3.930000e+01 -2.300000e+01 7.000000e+01
        vertex 9.680000e+01 -2.300000e+01 7.000000e+01
        vertex 9.680000e+01 -1.200000e+00 7.000000e+01
    endloop
endfacet
facet normal 0.000000e+00 0.000000e+00 1.000000e+00
    outer loop
        vertex 3.930000e+01 1.300000e+00 7.000000e+01
        vertex 9.680000e+01 1.300000e+00 7.000000e+01
        vertex 9.680000e+01 2.300000e+01 7.000000e+01
    endloop
endfacet
facet normal 0.000000e+00 0.000000e+00 1.000000e+00
    outer loop
        vertex 3.930000e+01 -2.300000e+01 7.000000e+01
        vertex 9.680000e+01 -1.200000e+00 7.000000e+01
        vertex 3.930000e+01 -1.200000e+00 7.000000e+01
    endloop
endfacet
facet normal 0.000000e+00 0.000000e+00 1.000000e+00
    outer loop
        vertex 3.930000e+01 1.300000e+00 7.000000e+01
        vertex 9.680000e+01 2.300000e+01 7.000000e+01
        vertex 3.930000e+01 2.300000e+01 7.000000e+01
    endloop
endfacet
facet normal 0.000000e+00 0.000000e+00 1.000000e+00
    outer loop
        vertex 3.930000e+01 2.550000e+01 7.000000e+01
        vertex 9.680000e+01 2.550000e+01 7.000000e+01
        vertex 9.700000e+01 2.900000e+01 7.000000e+01
    endloop
endfacet
facet normal 0.000000e+00 -0.000000e+00 1.000000e+00
    outer loop
        vertex 3.930000e+01 2.550000e+01 7.000000e+01
        vertex 9.700000e+01 2.900000e+01 7.000000e+01
        vertex 3.900000e+01 2.900000e+01 7.000000e+01
    endloop
endfacet
facet normal 0.000000e+00 -0.000000e+00 1.000000e+00
    outer loop
        vertex 3.930000e+01 2.300000e+01 7.000000e+01
        vertex 3.930000e+01 2.550000e+01 7.000000e+01
        vertex 3.900000e+01 2.900000e+01 7.000000e+01
    endloop
endfacet
facet normal 0.000000e+00 -0.000000e+00 1.000000e+00
    outer loop
        vertex 3.930000e+01 1.300000e+00 7.000000e+01
        vertex 3.930000e+01 2.300000e+01 7.000000e+01
        vertex 3.900000e+01 2.900000e+01 7.000000e+01
    endloop
endfacet
facet normal 0.000000e+00 0.000000e+00 1.000000e+00
    outer loop
        vertex 3.900000e+01 -2.900000e+01 7.000000e+01
        vertex 3.930000e+01 1.300000e+00 7.000000e+01
        vertex 3.900000e+01 2.900000e+01 7.000000e+01
    endloop
endfacet
facet normal 0.000000e+00 -0.000000e+00 1.000000e+00
    outer loop
        vertex 9.700000e+01 -2.900000e+01 7.000000e+01
        vertex 9.700000e+01 2.900000e+01 7.000000e+01
        vertex 9.680000e+01 2.550000e+01 7.000000e+01
    endloop
endfacet
facet normal 0.000000e+00 0.000000e+00 1.000000e+00
    outer loop
        vertex 9.700000e+01 -2.900000e+01 7.000000e+01
        vertex 9.680000e+01 2.550000e+01 7.000000e+01
        vertex 9.680000e+01 -2.550000e+01 7.000000e+01
    endloop
endfacet
facet normal 0.000000e+00 0.000000e+00 1.000000e+00
    outer loop
        vertex 9.700000e+01 -2.900000e+01 7.000000e+01
        vertex 9.680000e+01 -2.550000e+01 7.000000e+01
        vertex 3.930000e+01 -2.550000e+01 7.000000e+01
    endloop
endfacet
facet normal 0.000000e+00 0.000000e+00 1.000000e+00
    outer loop
        vertex 3.900000e+01 -2.900000e+01 7.000000e+01
        vertex 9.700000e+01 -2.900000e+01 7.000000e+01
        vertex 3.930000e+01 -2.550000e+01 7.000000e+01
    endloop
endfacet
facet normal 0.000000e+00 0.000000e+00 1.000000e+00
    outer loop
        vertex 3.900000e+01 -2.900000e+01 7.000000e+01
        vertex 3.930000e+01 -2.550000e+01 7.000000e+01
        vertex 3.930000e+01 -2.300000e+01 7.000000e+01
    endloop
endfacet
facet normal 0.000000e+00 0.000000e+00 1.000000e+00
    outer loop
        vertex 3.900000e+01 -2.900000e+01 7.000000e+01
        vertex 3.930000e+01 -2.300000e+01 7.000000e+01
        vertex 3.930000e+01 -1.200000e+00 7.000000e+01
    endloop
endfacet
facet normal 0.000000e+00 0.000000e+00 1.000000e+00
    outer loop
        vertex 3.900000e+01 -2.900000e+01 7.000000e+01
        vertex 3.930000e+01 -1.200000e+00 7.000000e+01
        vertex 3.930000e+01 1.300000e+00 7.000000e+01
    endloop
endfacet
facet normal 0.000000e+00 0.000000e+00 1.000000e+00
    outer loop
        vertex 3.930000e+01 -1.200000e+00 7.100000e+01
        vertex 9.680000e+01 -1.200000e+00 7.100000e+01
        vertex 3.930000e+01 1.300000e+00 7.100000e+01
    endloop
endfacet
facet normal 0.000000e+00 -0.000000e+00 1.000000e+00
    outer loop
        vertex 9.680000e+01 -1.200000e+00 7.100000e+01
        vertex 9.680000e+01 1.300000e+00 7.100000e+01
        vertex 3.930000e+01 1.300000e+00 7.100000e+01
    endloop
endfacet
facet normal 0.000000e+00 0.000000e+00 1.000000e+00
    outer loop
        vertex 3.930000e+01 2.300000e+01 7.100000e+01
        vertex 9.680000e+01 2.300000e+01 7.100000e+01
        vertex 3.930000e+01 2.550000e+01 7.100000e+01
    endloop
endfacet
facet normal 0.000000e+00 -0.000000e+00 1.000000e+00
    outer loop
        vertex 9.680000e+01 2.300000e+01 7.100000e+01
        vertex 9.680000e+01 2.550000e+01 7.100000e+01
        vertex 3.930000e+01 2.550000e+01 7.100000e+01
    endloop
endfacet
facet normal 0.000000e+00 0.000000e+00 1.000000e+00
    outer loop
        vertex 3.930000e+01 -2.550000e+01 7.100000e+01
        vertex 9.680000e+01 -2.300000e+01 7.100000e+01
        vertex 3.930000e+01 -2.300000e+01 7.100000e+01
    endloop
endfacet
facet normal 0.000000e+00 0.000000e+00 1.000000e+00
    outer loop
        vertex 3.930000e+01 -2.550000e+01 7.100000e+01
        vertex 9.680000e+01 -2.550000e+01 7.100000e+01
        vertex 9.680000e+01 -2.300000e+01 7.100000e+01
    endloop
endfacet
facet normal 0.000000e+00 -1.000000e+00 0.000000e+00
    outer loop
        vertex 9.680000e+01 -1.200000e+00 7.000000e+01
        vertex 9.680000e+01 -1.200000e+00 7.100000e+01
        vertex 3.930000e+01 -1.200000e+00 7.100000e+01
    endloop
endfacet
facet normal 0.000000e+00 -1.000000e+00 0.000000e+00
    outer loop
        vertex 3.930000e+01 -1.200000e+00 7.000000e+01
        vertex 9.680000e+01 -1.200000e+00 7.000000e+01
        vertex 3.930000e+01 -1.200000e+00 7.100000e+01
    endloop
endfacet
facet normal 1.000000e+00 -0.000000e+00 0.000000e+00
    outer loop
        vertex 9.680000e+01 -1.200000e+00 7.100000e+01
        vertex 9.680000e+01 1.300000e+00 7.000000e+01
        vertex 9.680000e+01 1.300000e+00 7.100000e+01
    endloop
endfacet
facet normal 1.000000e+00 0.000000e+00 0.000000e+00
    outer loop
        vertex 9.680000e+01 -1.200000e+00 7.000000e+01
        vertex 9.680000e+01 1.300000e+00 7.000000e+01
        vertex 9.680000e+01 -1.200000e+00 7.100000e+01
    endloop
endfacet
facet normal 0.000000e+00 1.000000e+00 -0.000000e+00
    outer loop
        vertex 9.680000e+01 1.300000e+00 7.000000e+01
        vertex 3.930000e+01 1.300000e+00 7.100000e+01
        vertex 9.680000e+01 1.300000e+00 7.100000e+01
    endloop
endfacet
facet normal 0.000000e+00 1.000000e+00 0.000000e+00
    outer loop
        vertex 3.930000e+01 1.300000e+00 7.000000e+01
        vertex 3.930000e+01 1.300000e+00 7.100000e+01
        vertex 9.680000e+01 1.300000e+00 7.000000e+01
    endloop
endfacet
facet normal -1.000000e+00 0.000000e+00 0.000000e+00
    outer loop
        vertex 3.930000e+01 -1.200000e+00 7.100000e+01
        vertex 3.930000e+01 1.300000e+00 7.100000e+01
        vertex 3.930000e+01 1.300000e+00 7.000000e+01
    endloop
endfacet
facet normal -1.000000e+00 0.000000e+00 0.000000e+00
    outer loop
        vertex 3.930000e+01 -1.200000e+00 7.000000e+01
        vertex 3.930000e+01 -1.200000e+00 7.100000e+01
        vertex 3.930000e+01 1.300000e+00 7.000000e+01
    endloop
endfacet
facet normal 0.000000e+00 -1.000000e+00 0.000000e+00
    outer loop
        vertex 9.680000e+01 2.300000e+01 7.000000e+01
        vertex 9.680000e+01 2.300000e+01 7.100000e+01
        vertex 3.930000e+01 2.300000e+01 7.100000e+01
    endloop
endfacet
facet normal 0.000000e+00 -1.000000e+00 0.000000e+00
    outer loop
        vertex 3.930000e+01 2.300000e+01 7.000000e+01
        vertex 9.680000e+01 2.300000e+01 7.000000e+01
        vertex 3.930000e+01 2.300000e+01 7.100000e+01
    endloop
endfacet
facet normal 1.000000e+00 -0.000000e+00 0.000000e+00
    outer loop
        vertex 9.680000e+01 2.300000e+01 7.100000e+01
        vertex 9.680000e+01 2.550000e+01 7.000000e+01
        vertex 9.680000e+01 2.550000e+01 7.100000e+01
    endloop
endfacet
facet normal 1.000000e+00 0.000000e+00 0.000000e+00
    outer loop
        vertex 9.680000e+01 2.300000e+01 7.000000e+01
        vertex 9.680000e+01 2.550000e+01 7.000000e+01
        vertex 9.680000e+01 2.300000e+01 7.100000e+01
    endloop
endfacet
facet normal 0.000000e+00 1.000000e+00 -0.000000e+00
    outer loop
        vertex 9.680000e+01 2.550000e+01 7.000000e+01
        vertex 3.930000e+01 2.550000e+01 7.100000e+01
        vertex 9.680000e+01 2.550000e+01 7.100000e+01
    endloop
endfacet
facet normal 0.000000e+00 1.000000e+00 0.000000e+00
    outer loop
        vertex 3.930000e+01 2.550000e+01 7.000000e+01
        vertex 3.930000e+01 2.550000e+01 7.100000e+01
        vertex 9.680000e+01 2.550000e+01 7.000000e+01
    endloop
endfacet
facet normal -1.000000e+00 0.000000e+00 0.000000e+00
    outer loop
        vertex 3.930000e+01 2.300000e+01 7.100000e+01
        vertex 3.930000e+01 2.550000e+01 7.100000e+01
        vertex 3.930000e+01 2.550000e+01 7.000000e+01
    endloop
endfacet
facet normal -1.000000e+00 0.000000e+00 0.000000e+00
    outer loop
        vertex 3.930000e+01 2.300000e+01 7.000000e+01
        vertex 3.930000e+01 2.300000e+01 7.100000e+01
        vertex 3.930000e+01 2.550000e+01 7.000000e+01
    endloop
endfacet
facet normal 0.000000e+00 1.000000e+00 -0.000000e+00
    outer loop
        vertex 9.680000e+01 -2.300000e+01 7.000000e+01
        vertex 3.930000e+01 -2.300000e+01 7.100000e+01
        vertex 9.680000e+01 -2.300000e+01 7.100000e+01
    endloop
endfacet
facet normal 0.000000e+00 1.000000e+00 0.000000e+00
    outer loop
        vertex 3.930000e+01 -2.300000e+01 7.000000e+01
        vertex 3.930000e+01 -2.300000e+01 7.100000e+01
        vertex 9.680000e+01 -2.300000e+01 7.000000e+01
    endloop
endfacet
facet normal 1.000000e+00 0.000000e+00 0.000000e+00
    outer loop
        vertex 9.680000e+01 -2.550000e+01 7.000000e+01
        vertex 9.680000e+01 -2.300000e+01 7.100000e+01
        vertex 9.680000e+01 -2.550000e+01 7.100000e+01
    endloop
endfacet
facet normal 1.000000e+00 0.000000e+00 0.000000e+00
    outer loop
        vertex 9.680000e+01 -2.550000e+01 7.000000e+01
        vertex 9.680000e+01 -2.300000e+01 7.000000e+01
        vertex 9.680000e+01 -2.300000e+01 7.100000e+01
    endloop
endfacet
facet normal 0.000000e+00 -1.000000e+00 0.000000e+00
    outer loop
        vertex 9.680000e+01 -2.550000e+01 7.000000e+01
        vertex 9.680000e+01 -2.550000e+01 7.100000e+01
        vertex 3.930000e+01 -2.550000e+01 7.100000e+01
    endloop
endfacet
facet normal 0.000000e+00 -1.000000e+00 0.000000e+00
    outer loop
        vertex 3.930000e+01 -2.550000e+01 7.000000e+01
        vertex 9.680000e+01 -2.550000e+01 7.000000e+01
        vertex 3.930000e+01 -2.550000e+01 7.100000e+01
    endloop
endfacet
facet normal -1.000000e+00 0.000000e+00 0.000000e+00
    outer loop
        vertex 3.930000e+01 -2.550000e+01 7.000000e+01
        vertex 3.930000e+01 -2.550000e+01 7.100000e+01
        vertex 3.930000e+01 -2.300000e+01 7.100000e+01
    endloop
endfacet
facet normal -1.000000e+00 0.000000e+00 0.000000e+00
    outer loop
        vertex 3.930000e+01 -2.550000e+01 7.000000e+01
        vertex 3.930000e+01 -2.300000e+01 7.100000e+01
        vertex 3.930000e+01 -2.300000e+01 7.000000e+01
    endloop
endfacet
facet normal 0.000000e+00 0.000000e+00 -1.000000e+00
    outer loop
        vertex 9.700000e+01 -1.180000e+01 6.600000e+01
        vertex 9.700000e+01 1.180000e+01 6.600000e+01
        vertex 9.900000e+01 -1.180000e+01 6.600000e+01
    endloop
endfacet
facet normal 0.000000e+00 0.000000e+00 -1.000000e+00
    outer loop
        vertex 9.900000e+01 -1.180000e+01 6.600000e+01
        vertex 9.700000e+01 1.180000e+01 6.600000e+01
        vertex 9.900000e+01 1.180000e+01 6.600000e+01
    endloop
endfacet
facet normal 0.000000e+00 -1.000000e+00 0.000000e+00
    outer loop
        vertex 9.700000e+01 -1.180000e+01 6.600000e+01
        vertex 9.900000e+01 -1.180000e+01 6.600000e+01
        vertex 9.700000e+01 -1.180000e+01 8.449999e+01
    endloop
endfacet
facet normal 0.000000e+00 -1.000000e+00 0.000000e+00
    outer loop
        vertex 9.900000e+01 -1.180000e+01 6.600000e+01
        vertex 9.900000e+01 -1.180000e+01 8.449999e+01
        vertex 9.700000e+01 -1.180000e+01 8.449999e+01
    endloop
endfacet
facet normal 1.000000e+00 0.000000e+00 0.000000e+00
    outer loop
        vertex 9.900000e+01 -1.180000e+01 6.600000e+01
        vertex 9.900000e+01 1.180000e+01 6.600000e+01
        vertex 9.900000e+01 -1.180000e+01 8.449999e+01
    endloop
endfacet
facet normal 1.000000e+00 -0.000000e+00 0.000000e+00
    outer loop
        vertex 9.900000e+01 -1.180000e+01 8.449999e+01
        vertex 9.900000e+01 1.180000e+01 6.600000e+01
        vertex 9.900000e+01 1.180000e+01 8.449999e+01
    endloop
endfacet
facet normal 0.000000e+00 1.000000e+00 0.000000e+00
    outer loop
        vertex 9.700000e+01 1.180000e+01 6.600000e+01
        vertex 9.700000e+01 1.180000e+01 8.449999e+01
        vertex 9.900000e+01 1.180000e+01 6.600000e+01
    endloop
endfacet
facet normal 0.000000e+00 1.000000e+00 -0.000000e+00
    outer loop
        vertex 9.900000e+01 1.180000e+01 6.600000e+01
        vertex 9.700000e+01 1.180000e+01 8.449999e+01
        vertex 9.900000e+01 1.180000e+01 8.449999e+01
    endloop
endfacet
facet normal -1.000000e+00 0.000000e+00 0.000000e+00
    outer loop
        vertex 9.700000e+01 -1.180000e+01 6.600000e+01
        vertex 9.700000e+01 -1.180000e+01 8.449999e+01
        vertex 9.700000e+01 1.180000e+01 6.600000e+01
    endloop
endfacet
facet normal -1.000000e+00 0.000000e+00 0.000000e+00
    outer loop
        vertex 9.700000e+01 -1.180000e+01 8.449999e+01
        vertex 9.700000e+01 1.180000e+01 8.449999e+01
        vertex 9.700000e+01 1.180000e+01 6.600000e+01
    endloop
endfacet
facet normal 0.000000e+00 0.000000e+00 1.000000e+00
    outer loop
        vertex 9.700000e+01 -1.180000e+01 8.449999e+01
        vertex 9.900000e+01 -1.180000e+01 8.449999e+01
        vertex 9.700000e+01 1.180000e+01 8.449999e+01
    endloop
endfacet
facet normal 0.000000e+00 -0.000000e+00 1.000000e+00
    outer loop
        vertex 9.900000e+01 -1.180000e+01 8.449999e+01
        vertex 9.900000e+01 1.180000e+01 8.449999e+01
        vertex 9.700000e+01 1.180000e+01 8.449999e+01
    endloop
endfacet
facet normal 0.000000e+00 0.000000e+00 -1.000000e+00
    outer loop
        vertex 3.700000e+01 -1.180000e+01 6.600000e+01
        vertex 3.700000e+01 1.180000e+01 6.600000e+01
        vertex 3.900000e+01 -1.180000e+01 6.600000e+01
    endloop
endfacet
facet normal 0.000000e+00 0.000000e+00 -1.000000e+00
    outer loop
        vertex 3.900000e+01 -1.180000e+01 6.600000e+01
        vertex 3.700000e+01 1.180000e+01 6.600000e+01
        vertex 3.900000e+01 1.180000e+01 6.600000e+01
    endloop
endfacet
facet normal 0.000000e+00 -1.000000e+00 0.000000e+00
    outer loop
        vertex 3.700000e+01 -1.180000e+01 6.600000e+01
        vertex 3.900000e+01 -1.180000e+01 6.600000e+01
        vertex 3.700000e+01 -1.180000e+01 7.900000e+01
    endloop
endfacet
facet normal 0.000000e+00 -1.000000e+00 0.000000e+00
    outer loop
        vertex 3.900000e+01 -1.180000e+01 6.600000e+01
        vertex 3.900000e+01 -1.180000e+01 7.900000e+01
        vertex 3.700000e+01 -1.180000e+01 7.900000e+01
    endloop
endfacet
facet normal 0.000000e+00 1.000000e+00 0.000000e+00
    outer loop
        vertex 3.700000e+01 1.180000e+01 6.600000e+01
        vertex 3.700000e+01 1.180000e+01 7.900000e+01
        vertex 3.900000e+01 1.180000e+01 6.600000e+01
    endloop
endfacet
facet normal 0.000000e+00 1.000000e+00 -0.000000e+00
    outer loop
        vertex 3.900000e+01 1.180000e+01 6.600000e+01
        vertex 3.700000e+01 1.180000e+01 7.900000e+01
        vertex 3.900000e+01 1.180000e+01 7.900000e+01
    endloop
endfacet
facet normal 1.000000e+00 0.000000e+00 0.000000e+00
    outer loop
        vertex 3.900000e+01 3.400000e+00 7.100000e+01
        vertex 3.900000e+01 1.180000e+01 7.900000e+01
        vertex 3.900000e+01 3.400000e+00 7.900000e+01
    endloop
endfacet
facet normal 1.000000e+00 -0.000000e+00 0.000000e+00
    outer loop
        vertex 3.900000e+01 -1.180000e+01 7.900000e+01
        vertex 3.900000e+01 -3.400000e+00 7.100000e+01
        vertex 3.900000e+01 -3.400000e+00 7.900000e+01
    endloop
endfacet
facet normal 1.000000e+00 -0.000000e+00 0.000000e+00
    outer loop
        vertex 3.900000e+01 3.400000e+00 7.100000e+01
        vertex 3.900000e+01 1.180000e+01 6.600000e+01
        vertex 3.900000e+01 1.180000e+01 7.900000e+01
    endloop
endfacet
facet normal 1.000000e+00 0.000000e+00 0.000000e+00
    outer loop
        vertex 3.900000e+01 -1.180000e+01 6.600000e+01
        vertex 3.900000e+01 1.180000e+01 6.600000e+01
        vertex 3.900000e+01 3.400000e+00 7.100000e+01
    endloop
endfacet
facet normal 1.000000e+00 0.000000e+00 0.000000e+00
    outer loop
        vertex 3.900000e+01 -1.180000e+01 6.600000e+01
        vertex 3.900000e+01 3.400000e+00 7.100000e+01
        vertex 3.900000e+01 -3.400000e+00 7.100000e+01
    endloop
endfacet
facet normal 1.000000e+00 0.000000e+00 0.000000e+00
    outer loop
        vertex 3.900000e+01 -1.180000e+01 6.600000e+01
        vertex 3.900000e+01 -3.400000e+00 7.100000e+01
        vertex 3.900000e+01 -1.180000e+01 7.900000e+01
    endloop
endfacet
facet normal -1.000000e+00 0.000000e+00 0.000000e+00
    outer loop
        vertex 3.700000e+01 -1.180000e+01 7.900000e+01
        vertex 3.700000e+01 -3.400000e+00 7.900000e+01
        vertex 3.700000e+01 -3.400000e+00 7.100000e+01
    endloop
endfacet
facet normal -1.000000e+00 0.000000e+00 0.000000e+00
    outer loop
        vertex 3.700000e+01 3.400000e+00 7.100000e+01
        vertex 3.700000e+01 3.400000e+00 7.900000e+01
        vertex 3.700000e+01 1.180000e+01 7.900000e+01
    endloop
endfacet
facet normal -1.000000e+00 0.000000e+00 0.000000e+00
    outer loop
        vertex 3.700000e+01 -1.180000e+01 6.600000e+01
        vertex 3.700000e+01 -1.180000e+01 7.900000e+01
        vertex 3.700000e+01 -3.400000e+00 7.100000e+01
    endloop
endfacet
facet normal -1.000000e+00 0.000000e+00 0.000000e+00
    outer loop
        vertex 3.700000e+01 -1.180000e+01 6.600000e+01
        vertex 3.700000e+01 -3.400000e+00 7.100000e+01
        vertex 3.700000e+01 1.180000e+01 6.600000e+01
    endloop
endfacet
facet normal -1.000000e+00 0.000000e+00 0.000000e+00
    outer loop
        vertex 3.700000e+01 -3.400000e+00 7.100000e+01
        vertex 3.700000e+01 3.400000e+00 7.100000e+01
        vertex 3.700000e+01 1.180000e+01 6.600000e+01
    endloop
endfacet
facet normal -1.000000e+00 0.000000e+00 0.000000e+00
    outer loop
        vertex 3.700000e+01 3.400000e+00 7.100000e+01
        vertex 3.700000e+01 1.180000e+01 7.900000e+01
        vertex 3.700000e+01 1.180000e+01 6.600000e+01
    endloop
endfacet
facet normal 0.000000e+00 -0.000000e+00 1.000000e+00
    outer loop
        vertex 3.900000e+01 3.400000e+00 7.900000e+01
        vertex 3.900000e+01 1.180000e+01 7.900000e+01
        vertex 3.700000e+01 1.180000e+01 7.900000e+01
    endloop
endfacet
facet normal 0.000000e+00 0.000000e+00 1.000000e+00
    outer loop
        vertex 3.700000e+01 3.400000e+00 7.900000e+01
        vertex 3.900000e+01 3.400000e+00 7.900000e+01
        vertex 3.700000e+01 1.180000e+01 7.900000e+01
    endloop
endfacet
facet normal 0.000000e+00 0.000000e+00 1.000000e+00
    outer loop
        vertex 3.700000e+01 -1.180000e+01 7.900000e+01
        vertex 3.900000e+01 -1.180000e+01 7.900000e+01
        vertex 3.700000e+01 -3.400000e+00 7.900000e+01
    endloop
endfacet
facet normal 0.000000e+00 -0.000000e+00 1.000000e+00
    outer loop
        vertex 3.900000e+01 -1.180000e+01 7.900000e+01
        vertex 3.900000e+01 -3.400000e+00 7.900000e+01
        vertex 3.700000e+01 -3.400000e+00 7.900000e+01
    endloop
endfacet
facet normal 0.000000e+00 -0.000000e+00 1.000000e+00
    outer loop
        vertex 3.900000e+01 -3.400000e+00 7.100000e+01
        vertex 3.900000e+01 3.400000e+00 7.100000e+01
        vertex 3.700000e+01 3.400000e+00 7.100000e+01
    endloop
endfacet
facet normal 0.000000e+00 0.000000e+00 1.000000e+00
    outer loop
        vertex 3.700000e+01 -3.400000e+00 7.100000e+01
        vertex 3.900000e+01 -3.400000e+00 7.100000e+01
        vertex 3.700000e+01 3.400000e+00 7.100000e+01
    endloop
endfacet
facet normal 0.000000e+00 -1.000000e+00 0.000000e+00
    outer loop
        vertex 3.700000e+01 3.400000e+00 7.100000e+01
        vertex 3.900000e+01 3.400000e+00 7.100000e+01
        vertex 3.900000e+01 3.400000e+00 7.900000e+01
    endloop
endfacet
facet normal 0.000000e+00 -1.000000e+00 0.000000e+00
    outer loop
        vertex 3.700000e+01 3.400000e+00 7.100000e+01
        vertex 3.900000e+01 3.400000e+00 7.900000e+01
        vertex 3.700000e+01 3.400000e+00 7.900000e+01
    endloop
endfacet
facet normal 0.000000e+00 1.000000e+00 0.000000e+00
    outer loop
        vertex 3.700000e+01 -3.400000e+00 7.100000e+01
        vertex 3.900000e+01 -3.400000e+00 7.900000e+01
        vertex 3.900000e+01 -3.400000e+00 7.100000e+01
    endloop
endfacet
facet normal 0.000000e+00 1.000000e+00 0.000000e+00
    outer loop
        vertex 3.700000e+01 -3.400000e+00 7.100000e+01
        vertex 3.700000e+01 -3.400000e+00 7.900000e+01
        vertex 3.900000e+01 -3.400000e+00 7.900000e+01
    endloop
endfacet
endsolid pusher-guide.stl
