solid mag-catch.stl
facet normal 0.000000e+00 -0.000000e+00 1.000000e+00
    outer loop
        vertex -1.550000e+01 3.300000e+01 -2.550000e+01
        vertex -1.550000e+01 5.720000e+01 -2.550000e+01
        vertex -2.100000e+01 3.300000e+01 -2.550000e+01
    endloop
endfacet
facet normal 0.000000e+00 0.000000e+00 1.000000e+00
    outer loop
        vertex -2.100000e+01 3.300000e+01 -2.550000e+01
        vertex -1.550000e+01 5.720000e+01 -2.550000e+01
        vertex -2.100000e+01 5.720000e+01 -2.550000e+01
    endloop
endfacet
facet normal 0.000000e+00 1.000000e+00 -0.000000e+00
    outer loop
        vertex -1.550000e+01 5.720000e+01 -4.400000e+01
        vertex -2.100000e+01 5.720000e+01 -2.550000e+01
        vertex -1.550000e+01 5.720000e+01 -2.550000e+01
    endloop
endfacet
facet normal 0.000000e+00 1.000000e+00 0.000000e+00
    outer loop
        vertex -1.550000e+01 5.720000e+01 -4.400000e+01
        vertex -2.100000e+01 5.720000e+01 -4.400000e+01
        vertex -2.100000e+01 5.720000e+01 -2.550000e+01
    endloop
endfacet
facet normal 0.000000e+00 0.000000e+00 -1.000000e+00
    outer loop
        vertex -1.550000e+01 4.400000e+01 -4.400000e+01
        vertex -2.100000e+01 4.400000e+01 -4.400000e+01
        vertex -1.550000e+01 5.720000e+01 -4.400000e+01
    endloop
endfacet
facet normal 0.000000e+00 0.000000e+00 -1.000000e+00
    outer loop
        vertex -2.100000e+01 4.400000e+01 -4.400000e+01
        vertex -2.100000e+01 5.720000e+01 -4.400000e+01
        vertex -1.550000e+01 5.720000e+01 -4.400000e+01
    endloop
endfacet
facet normal 0.000000e+00 -1.000000e+00 0.000000e+00
    outer loop
        vertex -2.100000e+01 3.300000e+01 -6.000000e+01
        vertex -1.550000e+01 3.300000e+01 -2.550000e+01
        vertex -2.100000e+01 3.300000e+01 -2.550000e+01
    endloop
endfacet
facet normal 0.000000e+00 -1.000000e+00 0.000000e+00
    outer loop
        vertex -1.550000e+01 3.300000e+01 -6.000000e+01
        vertex -1.550000e+01 3.300000e+01 -2.550000e+01
        vertex -2.100000e+01 3.300000e+01 -6.000000e+01
    endloop
endfacet
facet normal 0.000000e+00 1.000000e+00 -0.000000e+00
    outer loop
        vertex -1.550000e+01 4.400000e+01 -6.000000e+01
        vertex -2.100000e+01 4.400000e+01 -4.400000e+01
        vertex -1.550000e+01 4.400000e+01 -4.400000e+01
    endloop
endfacet
facet normal 0.000000e+00 1.000000e+00 0.000000e+00
    outer loop
        vertex -1.550000e+01 4.400000e+01 -6.000000e+01
        vertex -2.100000e+01 4.400000e+01 -6.000000e+01
        vertex -2.100000e+01 4.400000e+01 -4.400000e+01
    endloop
endfacet
facet normal 0.000000e+00 0.000000e+00 -1.000000e+00
    outer loop
        vertex -1.550000e+01 3.300000e+01 -6.000000e+01
        vertex -2.100000e+01 3.300000e+01 -6.000000e+01
        vertex -2.100000e+01 4.400000e+01 -6.000000e+01
    endloop
endfacet
facet normal 0.000000e+00 0.000000e+00 -1.000000e+00
    outer loop
        vertex -1.550000e+01 3.300000e+01 -6.000000e+01
        vertex -2.100000e+01 4.400000e+01 -6.000000e+01
        vertex -1.550000e+01 4.400000e+01 -6.000000e+01
    endloop
endfacet
facet normal 1.000000e+00 0.000000e+00 0.000000e+00
    outer loop
        vertex -1.000000e+00 3.994889e+01 -5.738823e+01
        vertex -1.000000e+00 4.000000e+01 -5.700000e+01
        vertex -1.000000e+00 3.994889e+01 -5.661177e+01
    endloop
endfacet
facet normal 1.000000e+00 0.000000e+00 0.000000e+00
    outer loop
        vertex -1.000000e+00 3.979904e+01 -5.625000e+01
        vertex -1.000000e+00 3.994889e+01 -5.738823e+01
        vertex -1.000000e+00 3.994889e+01 -5.661177e+01
    endloop
endfacet
facet normal 1.000000e+00 0.000000e+00 0.000000e+00
    outer loop
        vertex -1.000000e+00 3.956066e+01 -5.593934e+01
        vertex -1.000000e+00 3.994889e+01 -5.738823e+01
        vertex -1.000000e+00 3.979904e+01 -5.625000e+01
    endloop
endfacet
facet normal 1.000000e+00 0.000000e+00 0.000000e+00
    outer loop
        vertex -1.000000e+00 3.925000e+01 -5.570096e+01
        vertex -1.000000e+00 3.994889e+01 -5.738823e+01
        vertex -1.000000e+00 3.956066e+01 -5.593934e+01
    endloop
endfacet
facet normal 1.000000e+00 0.000000e+00 0.000000e+00
    outer loop
        vertex -1.000000e+00 3.888823e+01 -5.555111e+01
        vertex -1.000000e+00 3.994889e+01 -5.738823e+01
        vertex -1.000000e+00 3.925000e+01 -5.570096e+01
    endloop
endfacet
facet normal 1.000000e+00 0.000000e+00 0.000000e+00
    outer loop
        vertex -1.000000e+00 3.850000e+01 -5.550000e+01
        vertex -1.000000e+00 3.994889e+01 -5.738823e+01
        vertex -1.000000e+00 3.888823e+01 -5.555111e+01
    endloop
endfacet
facet normal 1.000000e+00 -0.000000e+00 0.000000e+00
    outer loop
        vertex -1.000000e+00 3.811177e+01 -5.555111e+01
        vertex -1.000000e+00 3.994889e+01 -5.738823e+01
        vertex -1.000000e+00 3.850000e+01 -5.550000e+01
    endloop
endfacet
facet normal 1.000000e+00 -0.000000e+00 0.000000e+00
    outer loop
        vertex -1.000000e+00 3.775000e+01 -5.570096e+01
        vertex -1.000000e+00 3.994889e+01 -5.738823e+01
        vertex -1.000000e+00 3.811177e+01 -5.555111e+01
    endloop
endfacet
facet normal 1.000000e+00 -0.000000e+00 0.000000e+00
    outer loop
        vertex -1.000000e+00 3.743934e+01 -5.593934e+01
        vertex -1.000000e+00 3.994889e+01 -5.738823e+01
        vertex -1.000000e+00 3.775000e+01 -5.570096e+01
    endloop
endfacet
facet normal 1.000000e+00 -0.000000e+00 0.000000e+00
    outer loop
        vertex -1.000000e+00 3.720096e+01 -5.625000e+01
        vertex -1.000000e+00 3.994889e+01 -5.738823e+01
        vertex -1.000000e+00 3.743934e+01 -5.593934e+01
    endloop
endfacet
facet normal 1.000000e+00 -0.000000e+00 0.000000e+00
    outer loop
        vertex -1.000000e+00 3.705111e+01 -5.661177e+01
        vertex -1.000000e+00 3.994889e+01 -5.738823e+01
        vertex -1.000000e+00 3.720096e+01 -5.625000e+01
    endloop
endfacet
facet normal 1.000000e+00 -0.000000e+00 0.000000e+00
    outer loop
        vertex -1.000000e+00 3.700000e+01 -5.700000e+01
        vertex -1.000000e+00 3.994889e+01 -5.738823e+01
        vertex -1.000000e+00 3.705111e+01 -5.661177e+01
    endloop
endfacet
facet normal 1.000000e+00 0.000000e+00 0.000000e+00
    outer loop
        vertex -1.000000e+00 3.700000e+01 -5.700000e+01
        vertex -1.000000e+00 3.705111e+01 -5.738823e+01
        vertex -1.000000e+00 3.994889e+01 -5.738823e+01
    endloop
endfacet
facet normal 1.000000e+00 -0.000000e+00 0.000000e+00
    outer loop
        vertex -1.000000e+00 3.705111e+01 -5.738823e+01
        vertex -1.000000e+00 3.720096e+01 -5.775000e+01
        vertex -1.000000e+00 3.994889e+01 -5.738823e+01
    endloop
endfacet
facet normal 1.000000e+00 -0.000000e+00 0.000000e+00
    outer loop
        vertex -1.000000e+00 3.720096e+01 -5.775000e+01
        vertex -1.000000e+00 3.743934e+01 -5.806066e+01
        vertex -1.000000e+00 3.994889e+01 -5.738823e+01
    endloop
endfacet
facet normal 1.000000e+00 0.000000e+00 0.000000e+00
    outer loop
        vertex -1.000000e+00 3.743934e+01 -5.806066e+01
        vertex -1.000000e+00 3.979904e+01 -5.775000e+01
        vertex -1.000000e+00 3.994889e+01 -5.738823e+01
    endloop
endfacet
facet normal 1.000000e+00 0.000000e+00 0.000000e+00
    outer loop
        vertex -1.000000e+00 3.743934e+01 -5.806066e+01
        vertex -1.000000e+00 3.956066e+01 -5.806066e+01
        vertex -1.000000e+00 3.979904e+01 -5.775000e+01
    endloop
endfacet
facet normal 1.000000e+00 -0.000000e+00 0.000000e+00
    outer loop
        vertex -1.000000e+00 3.743934e+01 -5.806066e+01
        vertex -1.000000e+00 3.775000e+01 -5.829904e+01
        vertex -1.000000e+00 3.956066e+01 -5.806066e+01
    endloop
endfacet
facet normal 1.000000e+00 0.000000e+00 0.000000e+00
    outer loop
        vertex -1.000000e+00 3.775000e+01 -5.829904e+01
        vertex -1.000000e+00 3.925000e+01 -5.829904e+01
        vertex -1.000000e+00 3.956066e+01 -5.806066e+01
    endloop
endfacet
facet normal 1.000000e+00 -0.000000e+00 0.000000e+00
    outer loop
        vertex -1.000000e+00 3.775000e+01 -5.829904e+01
        vertex -1.000000e+00 3.811177e+01 -5.844889e+01
        vertex -1.000000e+00 3.925000e+01 -5.829904e+01
    endloop
endfacet
facet normal 1.000000e+00 -0.000000e+00 0.000000e+00
    outer loop
        vertex -1.000000e+00 3.811177e+01 -5.844889e+01
        vertex -1.000000e+00 3.850000e+01 -5.850000e+01
        vertex -1.000000e+00 3.888823e+01 -5.844889e+01
    endloop
endfacet
facet normal 1.000000e+00 0.000000e+00 0.000000e+00
    outer loop
        vertex -1.000000e+00 3.811177e+01 -5.844889e+01
        vertex -1.000000e+00 3.888823e+01 -5.844889e+01
        vertex -1.000000e+00 3.925000e+01 -5.829904e+01
    endloop
endfacet
facet normal 0.000000e+00 9.914443e-01 1.305306e-01
    outer loop
        vertex -1.000000e+00 3.994889e+01 -5.661177e+01
        vertex -1.000000e+00 4.000000e+01 -5.700000e+01
        vertex -1.550000e+01 3.994889e+01 -5.661177e+01
    endloop
endfacet
facet normal 0.000000e+00 9.914443e-01 1.305306e-01
    outer loop
        vertex -1.550000e+01 3.994889e+01 -5.661177e+01
        vertex -1.000000e+00 4.000000e+01 -5.700000e+01
        vertex -1.550000e+01 4.000000e+01 -5.700000e+01
    endloop
endfacet
facet normal 0.000000e+00 9.238808e-01 3.826804e-01
    outer loop
        vertex -1.000000e+00 3.979904e+01 -5.625000e+01
        vertex -1.000000e+00 3.994889e+01 -5.661177e+01
        vertex -1.550000e+01 3.979904e+01 -5.625000e+01
    endloop
endfacet
facet normal 0.000000e+00 9.238808e-01 3.826804e-01
    outer loop
        vertex -1.550000e+01 3.979904e+01 -5.625000e+01
        vertex -1.000000e+00 3.994889e+01 -5.661177e+01
        vertex -1.550000e+01 3.994889e+01 -5.661177e+01
    endloop
endfacet
facet normal 0.000000e+00 7.933561e-01 6.087579e-01
    outer loop
        vertex -1.000000e+00 3.956066e+01 -5.593934e+01
        vertex -1.000000e+00 3.979904e+01 -5.625000e+01
        vertex -1.550000e+01 3.956066e+01 -5.593934e+01
    endloop
endfacet
facet normal 0.000000e+00 7.933561e-01 6.087579e-01
    outer loop
        vertex -1.550000e+01 3.956066e+01 -5.593934e+01
        vertex -1.000000e+00 3.979904e+01 -5.625000e+01
        vertex -1.550000e+01 3.979904e+01 -5.625000e+01
    endloop
endfacet
facet normal 0.000000e+00 6.087579e-01 7.933561e-01
    outer loop
        vertex -1.000000e+00 3.925000e+01 -5.570096e+01
        vertex -1.000000e+00 3.956066e+01 -5.593934e+01
        vertex -1.550000e+01 3.925000e+01 -5.570096e+01
    endloop
endfacet
facet normal 0.000000e+00 6.087579e-01 7.933561e-01
    outer loop
        vertex -1.550000e+01 3.925000e+01 -5.570096e+01
        vertex -1.000000e+00 3.956066e+01 -5.593934e+01
        vertex -1.550000e+01 3.956066e+01 -5.593934e+01
    endloop
endfacet
facet normal 0.000000e+00 3.826804e-01 9.238808e-01
    outer loop
        vertex -1.000000e+00 3.888823e+01 -5.555111e+01
        vertex -1.000000e+00 3.925000e+01 -5.570096e+01
        vertex -1.550000e+01 3.888823e+01 -5.555111e+01
    endloop
endfacet
facet normal 0.000000e+00 3.826804e-01 9.238808e-01
    outer loop
        vertex -1.550000e+01 3.888823e+01 -5.555111e+01
        vertex -1.000000e+00 3.925000e+01 -5.570096e+01
        vertex -1.550000e+01 3.925000e+01 -5.570096e+01
    endloop
endfacet
facet normal 0.000000e+00 1.305306e-01 9.914443e-01
    outer loop
        vertex -1.000000e+00 3.850000e+01 -5.550000e+01
        vertex -1.000000e+00 3.888823e+01 -5.555111e+01
        vertex -1.550000e+01 3.850000e+01 -5.550000e+01
    endloop
endfacet
facet normal 0.000000e+00 1.305306e-01 9.914443e-01
    outer loop
        vertex -1.550000e+01 3.850000e+01 -5.550000e+01
        vertex -1.000000e+00 3.888823e+01 -5.555111e+01
        vertex -1.550000e+01 3.888823e+01 -5.555111e+01
    endloop
endfacet
facet normal 0.000000e+00 -1.305306e-01 9.914443e-01
    outer loop
        vertex -1.000000e+00 3.811177e+01 -5.555111e+01
        vertex -1.000000e+00 3.850000e+01 -5.550000e+01
        vertex -1.550000e+01 3.811177e+01 -5.555111e+01
    endloop
endfacet
facet normal 0.000000e+00 -1.305306e-01 9.914443e-01
    outer loop
        vertex -1.550000e+01 3.811177e+01 -5.555111e+01
        vertex -1.000000e+00 3.850000e+01 -5.550000e+01
        vertex -1.550000e+01 3.850000e+01 -5.550000e+01
    endloop
endfacet
facet normal 0.000000e+00 -3.826804e-01 9.238808e-01
    outer loop
        vertex -1.000000e+00 3.775000e+01 -5.570096e+01
        vertex -1.000000e+00 3.811177e+01 -5.555111e+01
        vertex -1.550000e+01 3.775000e+01 -5.570096e+01
    endloop
endfacet
facet normal 0.000000e+00 -3.826804e-01 9.238808e-01
    outer loop
        vertex -1.550000e+01 3.775000e+01 -5.570096e+01
        vertex -1.000000e+00 3.811177e+01 -5.555111e+01
        vertex -1.550000e+01 3.811177e+01 -5.555111e+01
    endloop
endfacet
facet normal 0.000000e+00 -6.087579e-01 7.933561e-01
    outer loop
        vertex -1.000000e+00 3.743934e+01 -5.593934e+01
        vertex -1.000000e+00 3.775000e+01 -5.570096e+01
        vertex -1.550000e+01 3.743934e+01 -5.593934e+01
    endloop
endfacet
facet normal 0.000000e+00 -6.087579e-01 7.933561e-01
    outer loop
        vertex -1.550000e+01 3.743934e+01 -5.593934e+01
        vertex -1.000000e+00 3.775000e+01 -5.570096e+01
        vertex -1.550000e+01 3.775000e+01 -5.570096e+01
    endloop
endfacet
facet normal 0.000000e+00 -7.933561e-01 6.087579e-01
    outer loop
        vertex -1.000000e+00 3.720096e+01 -5.625000e+01
        vertex -1.000000e+00 3.743934e+01 -5.593934e+01
        vertex -1.550000e+01 3.720096e+01 -5.625000e+01
    endloop
endfacet
facet normal 0.000000e+00 -7.933561e-01 6.087579e-01
    outer loop
        vertex -1.550000e+01 3.720096e+01 -5.625000e+01
        vertex -1.000000e+00 3.743934e+01 -5.593934e+01
        vertex -1.550000e+01 3.743934e+01 -5.593934e+01
    endloop
endfacet
facet normal 0.000000e+00 -9.238808e-01 3.826804e-01
    outer loop
        vertex -1.000000e+00 3.705111e+01 -5.661177e+01
        vertex -1.000000e+00 3.720096e+01 -5.625000e+01
        vertex -1.550000e+01 3.705111e+01 -5.661177e+01
    endloop
endfacet
facet normal 0.000000e+00 -9.238808e-01 3.826804e-01
    outer loop
        vertex -1.550000e+01 3.705111e+01 -5.661177e+01
        vertex -1.000000e+00 3.720096e+01 -5.625000e+01
        vertex -1.550000e+01 3.720096e+01 -5.625000e+01
    endloop
endfacet
facet normal 0.000000e+00 -9.914443e-01 1.305306e-01
    outer loop
        vertex -1.000000e+00 3.700000e+01 -5.700000e+01
        vertex -1.000000e+00 3.705111e+01 -5.661177e+01
        vertex -1.550000e+01 3.700000e+01 -5.700000e+01
    endloop
endfacet
facet normal 0.000000e+00 -9.914443e-01 1.305306e-01
    outer loop
        vertex -1.550000e+01 3.700000e+01 -5.700000e+01
        vertex -1.000000e+00 3.705111e+01 -5.661177e+01
        vertex -1.550000e+01 3.705111e+01 -5.661177e+01
    endloop
endfacet
facet normal 0.000000e+00 -9.914443e-01 -1.305306e-01
    outer loop
        vertex -1.000000e+00 3.700000e+01 -5.700000e+01
        vertex -1.550000e+01 3.705111e+01 -5.738823e+01
        vertex -1.000000e+00 3.705111e+01 -5.738823e+01
    endloop
endfacet
facet normal -0.000000e+00 -9.914443e-01 -1.305306e-01
    outer loop
        vertex -1.000000e+00 3.700000e+01 -5.700000e+01
        vertex -1.550000e+01 3.700000e+01 -5.700000e+01
        vertex -1.550000e+01 3.705111e+01 -5.738823e+01
    endloop
endfacet
facet normal 0.000000e+00 -9.238808e-01 -3.826804e-01
    outer loop
        vertex -1.000000e+00 3.705111e+01 -5.738823e+01
        vertex -1.550000e+01 3.720096e+01 -5.775000e+01
        vertex -1.000000e+00 3.720096e+01 -5.775000e+01
    endloop
endfacet
facet normal -0.000000e+00 -9.238808e-01 -3.826804e-01
    outer loop
        vertex -1.000000e+00 3.705111e+01 -5.738823e+01
        vertex -1.550000e+01 3.705111e+01 -5.738823e+01
        vertex -1.550000e+01 3.720096e+01 -5.775000e+01
    endloop
endfacet
facet normal 0.000000e+00 -7.933561e-01 -6.087579e-01
    outer loop
        vertex -1.000000e+00 3.720096e+01 -5.775000e+01
        vertex -1.550000e+01 3.743934e+01 -5.806066e+01
        vertex -1.000000e+00 3.743934e+01 -5.806066e+01
    endloop
endfacet
facet normal -0.000000e+00 -7.933561e-01 -6.087579e-01
    outer loop
        vertex -1.000000e+00 3.720096e+01 -5.775000e+01
        vertex -1.550000e+01 3.720096e+01 -5.775000e+01
        vertex -1.550000e+01 3.743934e+01 -5.806066e+01
    endloop
endfacet
facet normal 0.000000e+00 -6.087579e-01 -7.933561e-01
    outer loop
        vertex -1.000000e+00 3.743934e+01 -5.806066e+01
        vertex -1.550000e+01 3.775000e+01 -5.829904e+01
        vertex -1.000000e+00 3.775000e+01 -5.829904e+01
    endloop
endfacet
facet normal -0.000000e+00 -6.087579e-01 -7.933561e-01
    outer loop
        vertex -1.000000e+00 3.743934e+01 -5.806066e+01
        vertex -1.550000e+01 3.743934e+01 -5.806066e+01
        vertex -1.550000e+01 3.775000e+01 -5.829904e+01
    endloop
endfacet
facet normal 0.000000e+00 -3.826804e-01 -9.238808e-01
    outer loop
        vertex -1.000000e+00 3.775000e+01 -5.829904e+01
        vertex -1.550000e+01 3.811177e+01 -5.844889e+01
        vertex -1.000000e+00 3.811177e+01 -5.844889e+01
    endloop
endfacet
facet normal -0.000000e+00 -3.826804e-01 -9.238808e-01
    outer loop
        vertex -1.000000e+00 3.775000e+01 -5.829904e+01
        vertex -1.550000e+01 3.775000e+01 -5.829904e+01
        vertex -1.550000e+01 3.811177e+01 -5.844889e+01
    endloop
endfacet
facet normal 0.000000e+00 -1.305306e-01 -9.914443e-01
    outer loop
        vertex -1.000000e+00 3.811177e+01 -5.844889e+01
        vertex -1.550000e+01 3.850000e+01 -5.850000e+01
        vertex -1.000000e+00 3.850000e+01 -5.850000e+01
    endloop
endfacet
facet normal -0.000000e+00 -1.305306e-01 -9.914443e-01
    outer loop
        vertex -1.000000e+00 3.811177e+01 -5.844889e+01
        vertex -1.550000e+01 3.811177e+01 -5.844889e+01
        vertex -1.550000e+01 3.850000e+01 -5.850000e+01
    endloop
endfacet
facet normal 0.000000e+00 1.305306e-01 -9.914443e-01
    outer loop
        vertex -1.000000e+00 3.850000e+01 -5.850000e+01
        vertex -1.550000e+01 3.888823e+01 -5.844889e+01
        vertex -1.000000e+00 3.888823e+01 -5.844889e+01
    endloop
endfacet
facet normal 0.000000e+00 1.305306e-01 -9.914443e-01
    outer loop
        vertex -1.000000e+00 3.850000e+01 -5.850000e+01
        vertex -1.550000e+01 3.850000e+01 -5.850000e+01
        vertex -1.550000e+01 3.888823e+01 -5.844889e+01
    endloop
endfacet
facet normal 0.000000e+00 3.826804e-01 -9.238808e-01
    outer loop
        vertex -1.000000e+00 3.888823e+01 -5.844889e+01
        vertex -1.550000e+01 3.925000e+01 -5.829904e+01
        vertex -1.000000e+00 3.925000e+01 -5.829904e+01
    endloop
endfacet
facet normal 0.000000e+00 3.826804e-01 -9.238808e-01
    outer loop
        vertex -1.000000e+00 3.888823e+01 -5.844889e+01
        vertex -1.550000e+01 3.888823e+01 -5.844889e+01
        vertex -1.550000e+01 3.925000e+01 -5.829904e+01
    endloop
endfacet
facet normal 0.000000e+00 6.087579e-01 -7.933561e-01
    outer loop
        vertex -1.000000e+00 3.925000e+01 -5.829904e+01
        vertex -1.550000e+01 3.956066e+01 -5.806066e+01
        vertex -1.000000e+00 3.956066e+01 -5.806066e+01
    endloop
endfacet
facet normal 0.000000e+00 6.087579e-01 -7.933561e-01
    outer loop
        vertex -1.000000e+00 3.925000e+01 -5.829904e+01
        vertex -1.550000e+01 3.925000e+01 -5.829904e+01
        vertex -1.550000e+01 3.956066e+01 -5.806066e+01
    endloop
endfacet
facet normal 0.000000e+00 7.933561e-01 -6.087579e-01
    outer loop
        vertex -1.000000e+00 3.956066e+01 -5.806066e+01
        vertex -1.550000e+01 3.979904e+01 -5.775000e+01
        vertex -1.000000e+00 3.979904e+01 -5.775000e+01
    endloop
endfacet
facet normal 0.000000e+00 7.933561e-01 -6.087579e-01
    outer loop
        vertex -1.000000e+00 3.956066e+01 -5.806066e+01
        vertex -1.550000e+01 3.956066e+01 -5.806066e+01
        vertex -1.550000e+01 3.979904e+01 -5.775000e+01
    endloop
endfacet
facet normal 0.000000e+00 9.238808e-01 -3.826804e-01
    outer loop
        vertex -1.000000e+00 3.979904e+01 -5.775000e+01
        vertex -1.550000e+01 3.994889e+01 -5.738823e+01
        vertex -1.000000e+00 3.994889e+01 -5.738823e+01
    endloop
endfacet
facet normal 0.000000e+00 9.238808e-01 -3.826804e-01
    outer loop
        vertex -1.000000e+00 3.979904e+01 -5.775000e+01
        vertex -1.550000e+01 3.979904e+01 -5.775000e+01
        vertex -1.550000e+01 3.994889e+01 -5.738823e+01
    endloop
endfacet
facet normal 0.000000e+00 9.914443e-01 -1.305306e-01
    outer loop
        vertex -1.000000e+00 3.994889e+01 -5.738823e+01
        vertex -1.550000e+01 4.000000e+01 -5.700000e+01
        vertex -1.000000e+00 4.000000e+01 -5.700000e+01
    endloop
endfacet
facet normal 0.000000e+00 9.914443e-01 -1.305306e-01
    outer loop
        vertex -1.000000e+00 3.994889e+01 -5.738823e+01
        vertex -1.550000e+01 3.994889e+01 -5.738823e+01
        vertex -1.550000e+01 4.000000e+01 -5.700000e+01
    endloop
endfacet
facet normal -1.000000e+00 0.000000e+00 0.000000e+00
    outer loop
        vertex -2.100000e+01 3.300000e+01 -2.550000e+01
        vertex -2.100000e+01 5.720000e+01 -2.550000e+01
        vertex -2.100000e+01 5.720000e+01 -4.400000e+01
    endloop
endfacet
facet normal -1.000000e+00 0.000000e+00 0.000000e+00
    outer loop
        vertex -2.100000e+01 3.300000e+01 -6.000000e+01
        vertex -2.100000e+01 4.400000e+01 -4.400000e+01
        vertex -2.100000e+01 4.400000e+01 -6.000000e+01
    endloop
endfacet
facet normal -1.000000e+00 0.000000e+00 0.000000e+00
    outer loop
        vertex -2.100000e+01 3.300000e+01 -2.550000e+01
        vertex -2.100000e+01 5.720000e+01 -4.400000e+01
        vertex -2.100000e+01 4.400000e+01 -4.400000e+01
    endloop
endfacet
facet normal -1.000000e+00 0.000000e+00 0.000000e+00
    outer loop
        vertex -2.100000e+01 3.300000e+01 -2.550000e+01
        vertex -2.100000e+01 4.400000e+01 -4.400000e+01
        vertex -2.100000e+01 3.925000e+01 -4.370096e+01
    endloop
endfacet
facet normal -1.000000e+00 0.000000e+00 0.000000e+00
    outer loop
        vertex -2.100000e+01 3.925000e+01 -4.370096e+01
        vertex -2.100000e+01 4.400000e+01 -4.400000e+01
        vertex -2.100000e+01 3.956066e+01 -4.393934e+01
    endloop
endfacet
facet normal -1.000000e+00 0.000000e+00 0.000000e+00
    outer loop
        vertex -2.100000e+01 3.956066e+01 -4.393934e+01
        vertex -2.100000e+01 4.400000e+01 -4.400000e+01
        vertex -2.100000e+01 3.979904e+01 -4.425000e+01
    endloop
endfacet
facet normal -1.000000e+00 0.000000e+00 0.000000e+00
    outer loop
        vertex -2.100000e+01 3.979904e+01 -4.425000e+01
        vertex -2.100000e+01 4.400000e+01 -4.400000e+01
        vertex -2.100000e+01 3.994889e+01 -4.461177e+01
    endloop
endfacet
facet normal -1.000000e+00 0.000000e+00 0.000000e+00
    outer loop
        vertex -2.100000e+01 3.994889e+01 -4.461177e+01
        vertex -2.100000e+01 4.400000e+01 -4.400000e+01
        vertex -2.100000e+01 4.000000e+01 -4.500000e+01
    endloop
endfacet
facet normal -1.000000e+00 0.000000e+00 0.000000e+00
    outer loop
        vertex -2.100000e+01 3.994889e+01 -4.538823e+01
        vertex -2.100000e+01 4.000000e+01 -4.500000e+01
        vertex -2.100000e+01 4.400000e+01 -4.400000e+01
    endloop
endfacet
facet normal -1.000000e+00 0.000000e+00 0.000000e+00
    outer loop
        vertex -2.100000e+01 3.979904e+01 -4.575000e+01
        vertex -2.100000e+01 3.994889e+01 -4.538823e+01
        vertex -2.100000e+01 4.400000e+01 -4.400000e+01
    endloop
endfacet
facet normal -1.000000e+00 0.000000e+00 0.000000e+00
    outer loop
        vertex -2.100000e+01 3.300000e+01 -6.000000e+01
        vertex -2.100000e+01 3.979904e+01 -4.575000e+01
        vertex -2.100000e+01 4.400000e+01 -4.400000e+01
    endloop
endfacet
facet normal -1.000000e+00 0.000000e+00 0.000000e+00
    outer loop
        vertex -2.100000e+01 3.300000e+01 -2.550000e+01
        vertex -2.100000e+01 3.925000e+01 -4.370096e+01
        vertex -2.100000e+01 3.888823e+01 -4.355111e+01
    endloop
endfacet
facet normal -1.000000e+00 0.000000e+00 0.000000e+00
    outer loop
        vertex -2.100000e+01 3.300000e+01 -2.550000e+01
        vertex -2.100000e+01 3.888823e+01 -4.355111e+01
        vertex -2.100000e+01 3.850000e+01 -4.350000e+01
    endloop
endfacet
facet normal -1.000000e+00 0.000000e+00 0.000000e+00
    outer loop
        vertex -2.100000e+01 3.300000e+01 -2.550000e+01
        vertex -2.100000e+01 3.850000e+01 -4.350000e+01
        vertex -2.100000e+01 3.811177e+01 -4.355111e+01
    endloop
endfacet
facet normal -1.000000e+00 0.000000e+00 0.000000e+00
    outer loop
        vertex -2.100000e+01 3.300000e+01 -2.550000e+01
        vertex -2.100000e+01 3.811177e+01 -4.355111e+01
        vertex -2.100000e+01 3.775000e+01 -4.370096e+01
    endloop
endfacet
facet normal -1.000000e+00 0.000000e+00 0.000000e+00
    outer loop
        vertex -2.100000e+01 3.300000e+01 -2.550000e+01
        vertex -2.100000e+01 3.775000e+01 -4.370096e+01
        vertex -2.100000e+01 3.743934e+01 -4.393934e+01
    endloop
endfacet
facet normal -1.000000e+00 0.000000e+00 0.000000e+00
    outer loop
        vertex -2.100000e+01 3.300000e+01 -2.550000e+01
        vertex -2.100000e+01 3.743934e+01 -4.393934e+01
        vertex -2.100000e+01 3.720096e+01 -4.425000e+01
    endloop
endfacet
facet normal -1.000000e+00 0.000000e+00 0.000000e+00
    outer loop
        vertex -2.100000e+01 3.300000e+01 -2.550000e+01
        vertex -2.100000e+01 3.720096e+01 -4.425000e+01
        vertex -2.100000e+01 3.705111e+01 -4.461177e+01
    endloop
endfacet
facet normal -1.000000e+00 0.000000e+00 0.000000e+00
    outer loop
        vertex -2.100000e+01 3.300000e+01 -6.000000e+01
        vertex -2.100000e+01 3.300000e+01 -2.550000e+01
        vertex -2.100000e+01 3.705111e+01 -4.461177e+01
    endloop
endfacet
facet normal -1.000000e+00 0.000000e+00 0.000000e+00
    outer loop
        vertex -2.100000e+01 3.300000e+01 -6.000000e+01
        vertex -2.100000e+01 3.956066e+01 -4.606066e+01
        vertex -2.100000e+01 3.979904e+01 -4.575000e+01
    endloop
endfacet
facet normal -1.000000e+00 0.000000e+00 0.000000e+00
    outer loop
        vertex -2.100000e+01 3.300000e+01 -6.000000e+01
        vertex -2.100000e+01 3.925000e+01 -4.629904e+01
        vertex -2.100000e+01 3.956066e+01 -4.606066e+01
    endloop
endfacet
facet normal -1.000000e+00 0.000000e+00 0.000000e+00
    outer loop
        vertex -2.100000e+01 3.300000e+01 -6.000000e+01
        vertex -2.100000e+01 3.888823e+01 -4.644889e+01
        vertex -2.100000e+01 3.925000e+01 -4.629904e+01
    endloop
endfacet
facet normal -1.000000e+00 0.000000e+00 0.000000e+00
    outer loop
        vertex -2.100000e+01 3.300000e+01 -6.000000e+01
        vertex -2.100000e+01 3.850000e+01 -4.650000e+01
        vertex -2.100000e+01 3.888823e+01 -4.644889e+01
    endloop
endfacet
facet normal -1.000000e+00 0.000000e+00 0.000000e+00
    outer loop
        vertex -2.100000e+01 3.300000e+01 -6.000000e+01
        vertex -2.100000e+01 3.811177e+01 -4.644889e+01
        vertex -2.100000e+01 3.850000e+01 -4.650000e+01
    endloop
endfacet
facet normal -1.000000e+00 0.000000e+00 0.000000e+00
    outer loop
        vertex -2.100000e+01 3.300000e+01 -6.000000e+01
        vertex -2.100000e+01 3.775000e+01 -4.629904e+01
        vertex -2.100000e+01 3.811177e+01 -4.644889e+01
    endloop
endfacet
facet normal -1.000000e+00 0.000000e+00 0.000000e+00
    outer loop
        vertex -2.100000e+01 3.300000e+01 -6.000000e+01
        vertex -2.100000e+01 3.743934e+01 -4.606066e+01
        vertex -2.100000e+01 3.775000e+01 -4.629904e+01
    endloop
endfacet
facet normal -1.000000e+00 0.000000e+00 0.000000e+00
    outer loop
        vertex -2.100000e+01 3.300000e+01 -6.000000e+01
        vertex -2.100000e+01 3.720096e+01 -4.575000e+01
        vertex -2.100000e+01 3.743934e+01 -4.606066e+01
    endloop
endfacet
facet normal -1.000000e+00 0.000000e+00 0.000000e+00
    outer loop
        vertex -2.100000e+01 3.300000e+01 -6.000000e+01
        vertex -2.100000e+01 3.705111e+01 -4.538823e+01
        vertex -2.100000e+01 3.720096e+01 -4.575000e+01
    endloop
endfacet
facet normal -1.000000e+00 0.000000e+00 0.000000e+00
    outer loop
        vertex -2.100000e+01 3.300000e+01 -6.000000e+01
        vertex -2.100000e+01 3.705111e+01 -4.461177e+01
        vertex -2.100000e+01 3.700000e+01 -4.500000e+01
    endloop
endfacet
facet normal -1.000000e+00 0.000000e+00 0.000000e+00
    outer loop
        vertex -2.100000e+01 3.300000e+01 -6.000000e+01
        vertex -2.100000e+01 3.700000e+01 -4.500000e+01
        vertex -2.100000e+01 3.705111e+01 -4.538823e+01
    endloop
endfacet
facet normal 1.000000e+00 -0.000000e+00 0.000000e+00
    outer loop
        vertex -1.550000e+01 3.300000e+01 -2.550000e+01
        vertex -1.550000e+01 5.720000e+01 -4.400000e+01
        vertex -1.550000e+01 5.720000e+01 -2.550000e+01
    endloop
endfacet
facet normal 1.000000e+00 0.000000e+00 0.000000e+00
    outer loop
        vertex -1.550000e+01 3.300000e+01 -2.550000e+01
        vertex -1.550000e+01 4.400000e+01 -4.400000e+01
        vertex -1.550000e+01 5.720000e+01 -4.400000e+01
    endloop
endfacet
facet normal 1.000000e+00 -0.000000e+00 0.000000e+00
    outer loop
        vertex -1.550000e+01 4.101141e+01 -4.430119e+01
        vertex -1.550000e+01 4.110000e+01 -4.500000e+01
        vertex -1.550000e+01 4.400000e+01 -4.400000e+01
    endloop
endfacet
facet normal 1.000000e+00 0.000000e+00 0.000000e+00
    outer loop
        vertex -1.550000e+01 4.075167e+01 -4.365000e+01
        vertex -1.550000e+01 4.101141e+01 -4.430119e+01
        vertex -1.550000e+01 4.400000e+01 -4.400000e+01
    endloop
endfacet
facet normal 1.000000e+00 -0.000000e+00 0.000000e+00
    outer loop
        vertex -1.550000e+01 4.110000e+01 -4.500000e+01
        vertex -1.550000e+01 4.400000e+01 -6.000000e+01
        vertex -1.550000e+01 4.400000e+01 -4.400000e+01
    endloop
endfacet
facet normal 1.000000e+00 0.000000e+00 0.000000e+00
    outer loop
        vertex -1.550000e+01 4.033848e+01 -4.309081e+01
        vertex -1.550000e+01 4.075167e+01 -4.365000e+01
        vertex -1.550000e+01 4.400000e+01 -4.400000e+01
    endloop
endfacet
facet normal 1.000000e+00 0.000000e+00 0.000000e+00
    outer loop
        vertex -1.550000e+01 3.300000e+01 -2.550000e+01
        vertex -1.550000e+01 4.033848e+01 -4.309081e+01
        vertex -1.550000e+01 4.400000e+01 -4.400000e+01
    endloop
endfacet
facet normal 1.000000e+00 0.000000e+00 0.000000e+00
    outer loop
        vertex -1.550000e+01 3.300000e+01 -6.000000e+01
        vertex -1.550000e+01 3.720096e+01 -5.775000e+01
        vertex -1.550000e+01 3.705111e+01 -5.738823e+01
    endloop
endfacet
facet normal 1.000000e+00 0.000000e+00 0.000000e+00
    outer loop
        vertex -1.550000e+01 3.300000e+01 -6.000000e+01
        vertex -1.550000e+01 3.743934e+01 -5.806066e+01
        vertex -1.550000e+01 3.720096e+01 -5.775000e+01
    endloop
endfacet
facet normal 1.000000e+00 0.000000e+00 0.000000e+00
    outer loop
        vertex -1.550000e+01 3.300000e+01 -6.000000e+01
        vertex -1.550000e+01 3.705111e+01 -5.738823e+01
        vertex -1.550000e+01 3.700000e+01 -5.700000e+01
    endloop
endfacet
facet normal 1.000000e+00 0.000000e+00 0.000000e+00
    outer loop
        vertex -1.550000e+01 3.300000e+01 -6.000000e+01
        vertex -1.550000e+01 3.700000e+01 -5.700000e+01
        vertex -1.550000e+01 3.300000e+01 -2.550000e+01
    endloop
endfacet
facet normal 1.000000e+00 0.000000e+00 0.000000e+00
    outer loop
        vertex -1.550000e+01 3.300000e+01 -6.000000e+01
        vertex -1.550000e+01 3.775000e+01 -5.829904e+01
        vertex -1.550000e+01 3.743934e+01 -5.806066e+01
    endloop
endfacet
facet normal 1.000000e+00 0.000000e+00 0.000000e+00
    outer loop
        vertex -1.550000e+01 3.300000e+01 -6.000000e+01
        vertex -1.550000e+01 3.811177e+01 -5.844889e+01
        vertex -1.550000e+01 3.775000e+01 -5.829904e+01
    endloop
endfacet
facet normal 1.000000e+00 0.000000e+00 0.000000e+00
    outer loop
        vertex -1.550000e+01 3.300000e+01 -6.000000e+01
        vertex -1.550000e+01 4.400000e+01 -6.000000e+01
        vertex -1.550000e+01 3.811177e+01 -5.844889e+01
    endloop
endfacet
facet normal 1.000000e+00 0.000000e+00 0.000000e+00
    outer loop
        vertex -1.550000e+01 3.300000e+01 -2.550000e+01
        vertex -1.550000e+01 3.980000e+01 -4.266173e+01
        vertex -1.550000e+01 4.033848e+01 -4.309081e+01
    endloop
endfacet
facet normal 1.000000e+00 0.000000e+00 0.000000e+00
    outer loop
        vertex -1.550000e+01 3.300000e+01 -2.550000e+01
        vertex -1.550000e+01 3.917293e+01 -4.239200e+01
        vertex -1.550000e+01 3.980000e+01 -4.266173e+01
    endloop
endfacet
facet normal 1.000000e+00 0.000000e+00 0.000000e+00
    outer loop
        vertex -1.550000e+01 3.300000e+01 -2.550000e+01
        vertex -1.550000e+01 3.850000e+01 -4.230000e+01
        vertex -1.550000e+01 3.917293e+01 -4.239200e+01
    endloop
endfacet
facet normal 1.000000e+00 0.000000e+00 0.000000e+00
    outer loop
        vertex -1.550000e+01 3.300000e+01 -2.550000e+01
        vertex -1.550000e+01 3.782707e+01 -4.239200e+01
        vertex -1.550000e+01 3.850000e+01 -4.230000e+01
    endloop
endfacet
facet normal 1.000000e+00 0.000000e+00 0.000000e+00
    outer loop
        vertex -1.550000e+01 3.300000e+01 -2.550000e+01
        vertex -1.550000e+01 3.720000e+01 -4.266173e+01
        vertex -1.550000e+01 3.782707e+01 -4.239200e+01
    endloop
endfacet
facet normal 1.000000e+00 0.000000e+00 0.000000e+00
    outer loop
        vertex -1.550000e+01 3.300000e+01 -2.550000e+01
        vertex -1.550000e+01 3.666152e+01 -4.309081e+01
        vertex -1.550000e+01 3.720000e+01 -4.266173e+01
    endloop
endfacet
facet normal 1.000000e+00 0.000000e+00 0.000000e+00
    outer loop
        vertex -1.550000e+01 3.300000e+01 -2.550000e+01
        vertex -1.550000e+01 3.624833e+01 -4.365000e+01
        vertex -1.550000e+01 3.666152e+01 -4.309081e+01
    endloop
endfacet
facet normal 1.000000e+00 0.000000e+00 0.000000e+00
    outer loop
        vertex -1.550000e+01 3.300000e+01 -2.550000e+01
        vertex -1.550000e+01 3.598859e+01 -4.430119e+01
        vertex -1.550000e+01 3.624833e+01 -4.365000e+01
    endloop
endfacet
facet normal 1.000000e+00 -0.000000e+00 0.000000e+00
    outer loop
        vertex -1.550000e+01 4.101141e+01 -4.569881e+01
        vertex -1.550000e+01 4.400000e+01 -6.000000e+01
        vertex -1.550000e+01 4.110000e+01 -4.500000e+01
    endloop
endfacet
facet normal 1.000000e+00 -0.000000e+00 0.000000e+00
    outer loop
        vertex -1.550000e+01 4.075167e+01 -4.635000e+01
        vertex -1.550000e+01 4.400000e+01 -6.000000e+01
        vertex -1.550000e+01 4.101141e+01 -4.569881e+01
    endloop
endfacet
facet normal 1.000000e+00 -0.000000e+00 0.000000e+00
    outer loop
        vertex -1.550000e+01 4.033848e+01 -4.690919e+01
        vertex -1.550000e+01 4.400000e+01 -6.000000e+01
        vertex -1.550000e+01 4.075167e+01 -4.635000e+01
    endloop
endfacet
facet normal 1.000000e+00 -0.000000e+00 0.000000e+00
    outer loop
        vertex -1.550000e+01 3.980000e+01 -4.733827e+01
        vertex -1.550000e+01 4.400000e+01 -6.000000e+01
        vertex -1.550000e+01 4.033848e+01 -4.690919e+01
    endloop
endfacet
facet normal 1.000000e+00 -0.000000e+00 0.000000e+00
    outer loop
        vertex -1.550000e+01 3.917293e+01 -4.760800e+01
        vertex -1.550000e+01 4.400000e+01 -6.000000e+01
        vertex -1.550000e+01 3.980000e+01 -4.733827e+01
    endloop
endfacet
facet normal 1.000000e+00 -0.000000e+00 0.000000e+00
    outer loop
        vertex -1.550000e+01 3.850000e+01 -4.770000e+01
        vertex -1.550000e+01 4.400000e+01 -6.000000e+01
        vertex -1.550000e+01 3.917293e+01 -4.760800e+01
    endloop
endfacet
facet normal 1.000000e+00 0.000000e+00 0.000000e+00
    outer loop
        vertex -1.550000e+01 3.782707e+01 -4.760800e+01
        vertex -1.550000e+01 4.400000e+01 -6.000000e+01
        vertex -1.550000e+01 3.850000e+01 -4.770000e+01
    endloop
endfacet
facet normal 1.000000e+00 0.000000e+00 0.000000e+00
    outer loop
        vertex -1.550000e+01 3.720000e+01 -4.733827e+01
        vertex -1.550000e+01 4.400000e+01 -6.000000e+01
        vertex -1.550000e+01 3.782707e+01 -4.760800e+01
    endloop
endfacet
facet normal 1.000000e+00 0.000000e+00 0.000000e+00
    outer loop
        vertex -1.550000e+01 3.666152e+01 -4.690919e+01
        vertex -1.550000e+01 4.400000e+01 -6.000000e+01
        vertex -1.550000e+01 3.720000e+01 -4.733827e+01
    endloop
endfacet
facet normal 1.000000e+00 0.000000e+00 0.000000e+00
    outer loop
        vertex -1.550000e+01 3.300000e+01 -2.550000e+01
        vertex -1.550000e+01 3.590000e+01 -4.500000e+01
        vertex -1.550000e+01 3.598859e+01 -4.430119e+01
    endloop
endfacet
facet normal 1.000000e+00 0.000000e+00 0.000000e+00
    outer loop
        vertex -1.550000e+01 3.300000e+01 -2.550000e+01
        vertex -1.550000e+01 3.700000e+01 -5.700000e+01
        vertex -1.550000e+01 3.590000e+01 -4.500000e+01
    endloop
endfacet
facet normal 1.000000e+00 0.000000e+00 0.000000e+00
    outer loop
        vertex -1.550000e+01 3.811177e+01 -5.844889e+01
        vertex -1.550000e+01 4.400000e+01 -6.000000e+01
        vertex -1.550000e+01 3.850000e+01 -5.850000e+01
    endloop
endfacet
facet normal 1.000000e+00 -0.000000e+00 0.000000e+00
    outer loop
        vertex -1.550000e+01 3.850000e+01 -5.850000e+01
        vertex -1.550000e+01 4.400000e+01 -6.000000e+01
        vertex -1.550000e+01 3.888823e+01 -5.844889e+01
    endloop
endfacet
facet normal 1.000000e+00 -0.000000e+00 0.000000e+00
    outer loop
        vertex -1.550000e+01 3.888823e+01 -5.844889e+01
        vertex -1.550000e+01 4.400000e+01 -6.000000e+01
        vertex -1.550000e+01 3.925000e+01 -5.829904e+01
    endloop
endfacet
facet normal 1.000000e+00 -0.000000e+00 0.000000e+00
    outer loop
        vertex -1.550000e+01 3.925000e+01 -5.829904e+01
        vertex -1.550000e+01 4.400000e+01 -6.000000e+01
        vertex -1.550000e+01 3.956066e+01 -5.806066e+01
    endloop
endfacet
facet normal 1.000000e+00 -0.000000e+00 0.000000e+00
    outer loop
        vertex -1.550000e+01 3.956066e+01 -5.806066e+01
        vertex -1.550000e+01 4.400000e+01 -6.000000e+01
        vertex -1.550000e+01 3.979904e+01 -5.775000e+01
    endloop
endfacet
facet normal 1.000000e+00 -0.000000e+00 0.000000e+00
    outer loop
        vertex -1.550000e+01 3.979904e+01 -5.775000e+01
        vertex -1.550000e+01 4.400000e+01 -6.000000e+01
        vertex -1.550000e+01 3.994889e+01 -5.738823e+01
    endloop
endfacet
facet normal 1.000000e+00 -0.000000e+00 0.000000e+00
    outer loop
        vertex -1.550000e+01 3.994889e+01 -5.738823e+01
        vertex -1.550000e+01 4.400000e+01 -6.000000e+01
        vertex -1.550000e+01 4.000000e+01 -5.700000e+01
    endloop
endfacet
facet normal 1.000000e+00 0.000000e+00 0.000000e+00
    outer loop
        vertex -1.550000e+01 3.994889e+01 -5.661177e+01
        vertex -1.550000e+01 4.000000e+01 -5.700000e+01
        vertex -1.550000e+01 4.400000e+01 -6.000000e+01
    endloop
endfacet
facet normal 1.000000e+00 0.000000e+00 0.000000e+00
    outer loop
        vertex -1.550000e+01 3.666152e+01 -4.690919e+01
        vertex -1.550000e+01 3.994889e+01 -5.661177e+01
        vertex -1.550000e+01 4.400000e+01 -6.000000e+01
    endloop
endfacet
facet normal 1.000000e+00 0.000000e+00 0.000000e+00
    outer loop
        vertex -1.550000e+01 3.624833e+01 -4.635000e+01
        vertex -1.550000e+01 3.994889e+01 -5.661177e+01
        vertex -1.550000e+01 3.666152e+01 -4.690919e+01
    endloop
endfacet
facet normal 1.000000e+00 0.000000e+00 0.000000e+00
    outer loop
        vertex -1.550000e+01 3.590000e+01 -4.500000e+01
        vertex -1.550000e+01 3.700000e+01 -5.700000e+01
        vertex -1.550000e+01 3.705111e+01 -5.661177e+01
    endloop
endfacet
facet normal 1.000000e+00 0.000000e+00 0.000000e+00
    outer loop
        vertex -1.550000e+01 3.590000e+01 -4.500000e+01
        vertex -1.550000e+01 3.705111e+01 -5.661177e+01
        vertex -1.550000e+01 3.720096e+01 -5.625000e+01
    endloop
endfacet
facet normal 1.000000e+00 0.000000e+00 0.000000e+00
    outer loop
        vertex -1.550000e+01 3.598859e+01 -4.569881e+01
        vertex -1.550000e+01 3.994889e+01 -5.661177e+01
        vertex -1.550000e+01 3.624833e+01 -4.635000e+01
    endloop
endfacet
facet normal 1.000000e+00 0.000000e+00 0.000000e+00
    outer loop
        vertex -1.550000e+01 3.598859e+01 -4.569881e+01
        vertex -1.550000e+01 3.979904e+01 -5.625000e+01
        vertex -1.550000e+01 3.994889e+01 -5.661177e+01
    endloop
endfacet
facet normal 1.000000e+00 0.000000e+00 0.000000e+00
    outer loop
        vertex -1.550000e+01 3.598859e+01 -4.569881e+01
        vertex -1.550000e+01 3.956066e+01 -5.593934e+01
        vertex -1.550000e+01 3.979904e+01 -5.625000e+01
    endloop
endfacet
facet normal 1.000000e+00 0.000000e+00 0.000000e+00
    outer loop
        vertex -1.550000e+01 3.598859e+01 -4.569881e+01
        vertex -1.550000e+01 3.925000e+01 -5.570096e+01
        vertex -1.550000e+01 3.956066e+01 -5.593934e+01
    endloop
endfacet
facet normal 1.000000e+00 0.000000e+00 0.000000e+00
    outer loop
        vertex -1.550000e+01 3.598859e+01 -4.569881e+01
        vertex -1.550000e+01 3.888823e+01 -5.555111e+01
        vertex -1.550000e+01 3.925000e+01 -5.570096e+01
    endloop
endfacet
facet normal 1.000000e+00 0.000000e+00 0.000000e+00
    outer loop
        vertex -1.550000e+01 3.598859e+01 -4.569881e+01
        vertex -1.550000e+01 3.850000e+01 -5.550000e+01
        vertex -1.550000e+01 3.888823e+01 -5.555111e+01
    endloop
endfacet
facet normal 1.000000e+00 0.000000e+00 0.000000e+00
    outer loop
        vertex -1.550000e+01 3.598859e+01 -4.569881e+01
        vertex -1.550000e+01 3.811177e+01 -5.555111e+01
        vertex -1.550000e+01 3.850000e+01 -5.550000e+01
    endloop
endfacet
facet normal 1.000000e+00 0.000000e+00 0.000000e+00
    outer loop
        vertex -1.550000e+01 3.598859e+01 -4.569881e+01
        vertex -1.550000e+01 3.775000e+01 -5.570096e+01
        vertex -1.550000e+01 3.811177e+01 -5.555111e+01
    endloop
endfacet
facet normal 1.000000e+00 0.000000e+00 0.000000e+00
    outer loop
        vertex -1.550000e+01 3.598859e+01 -4.569881e+01
        vertex -1.550000e+01 3.743934e+01 -5.593934e+01
        vertex -1.550000e+01 3.775000e+01 -5.570096e+01
    endloop
endfacet
facet normal 1.000000e+00 0.000000e+00 0.000000e+00
    outer loop
        vertex -1.550000e+01 3.598859e+01 -4.569881e+01
        vertex -1.550000e+01 3.720096e+01 -5.625000e+01
        vertex -1.550000e+01 3.743934e+01 -5.593934e+01
    endloop
endfacet
facet normal 1.000000e+00 0.000000e+00 0.000000e+00
    outer loop
        vertex -1.550000e+01 3.590000e+01 -4.500000e+01
        vertex -1.550000e+01 3.720096e+01 -5.625000e+01
        vertex -1.550000e+01 3.598859e+01 -4.569881e+01
    endloop
endfacet
facet normal -0.000000e+00 -9.914443e-01 -1.305306e-01
    outer loop
        vertex -1.880000e+01 3.994889e+01 -4.461177e+01
        vertex -2.100000e+01 3.994889e+01 -4.461177e+01
        vertex -2.100000e+01 4.000000e+01 -4.500000e+01
    endloop
endfacet
facet normal 0.000000e+00 -9.914443e-01 -1.305306e-01
    outer loop
        vertex -1.880000e+01 3.994889e+01 -4.461177e+01
        vertex -2.100000e+01 4.000000e+01 -4.500000e+01
        vertex -1.880000e+01 4.000000e+01 -4.500000e+01
    endloop
endfacet
facet normal -0.000000e+00 -9.238808e-01 -3.826804e-01
    outer loop
        vertex -1.880000e+01 3.979904e+01 -4.425000e+01
        vertex -2.100000e+01 3.979904e+01 -4.425000e+01
        vertex -2.100000e+01 3.994889e+01 -4.461177e+01
    endloop
endfacet
facet normal 0.000000e+00 -9.238808e-01 -3.826804e-01
    outer loop
        vertex -1.880000e+01 3.979904e+01 -4.425000e+01
        vertex -2.100000e+01 3.994889e+01 -4.461177e+01
        vertex -1.880000e+01 3.994889e+01 -4.461177e+01
    endloop
endfacet
facet normal -0.000000e+00 -7.933561e-01 -6.087579e-01
    outer loop
        vertex -1.880000e+01 3.956066e+01 -4.393934e+01
        vertex -2.100000e+01 3.956066e+01 -4.393934e+01
        vertex -2.100000e+01 3.979904e+01 -4.425000e+01
    endloop
endfacet
facet normal 0.000000e+00 -7.933561e-01 -6.087579e-01
    outer loop
        vertex -1.880000e+01 3.956066e+01 -4.393934e+01
        vertex -2.100000e+01 3.979904e+01 -4.425000e+01
        vertex -1.880000e+01 3.979904e+01 -4.425000e+01
    endloop
endfacet
facet normal -0.000000e+00 -6.087579e-01 -7.933561e-01
    outer loop
        vertex -1.880000e+01 3.925000e+01 -4.370096e+01
        vertex -2.100000e+01 3.925000e+01 -4.370096e+01
        vertex -2.100000e+01 3.956066e+01 -4.393934e+01
    endloop
endfacet
facet normal 0.000000e+00 -6.087579e-01 -7.933561e-01
    outer loop
        vertex -1.880000e+01 3.925000e+01 -4.370096e+01
        vertex -2.100000e+01 3.956066e+01 -4.393934e+01
        vertex -1.880000e+01 3.956066e+01 -4.393934e+01
    endloop
endfacet
facet normal -0.000000e+00 -3.826804e-01 -9.238808e-01
    outer loop
        vertex -1.880000e+01 3.888823e+01 -4.355111e+01
        vertex -2.100000e+01 3.888823e+01 -4.355111e+01
        vertex -2.100000e+01 3.925000e+01 -4.370096e+01
    endloop
endfacet
facet normal 0.000000e+00 -3.826804e-01 -9.238808e-01
    outer loop
        vertex -1.880000e+01 3.888823e+01 -4.355111e+01
        vertex -2.100000e+01 3.925000e+01 -4.370096e+01
        vertex -1.880000e+01 3.925000e+01 -4.370096e+01
    endloop
endfacet
facet normal -0.000000e+00 -1.305306e-01 -9.914443e-01
    outer loop
        vertex -1.880000e+01 3.850000e+01 -4.350000e+01
        vertex -2.100000e+01 3.850000e+01 -4.350000e+01
        vertex -2.100000e+01 3.888823e+01 -4.355111e+01
    endloop
endfacet
facet normal 0.000000e+00 -1.305306e-01 -9.914443e-01
    outer loop
        vertex -1.880000e+01 3.850000e+01 -4.350000e+01
        vertex -2.100000e+01 3.888823e+01 -4.355111e+01
        vertex -1.880000e+01 3.888823e+01 -4.355111e+01
    endloop
endfacet
facet normal 0.000000e+00 1.305306e-01 -9.914443e-01
    outer loop
        vertex -1.880000e+01 3.811177e+01 -4.355111e+01
        vertex -2.100000e+01 3.811177e+01 -4.355111e+01
        vertex -2.100000e+01 3.850000e+01 -4.350000e+01
    endloop
endfacet
facet normal 0.000000e+00 1.305306e-01 -9.914443e-01
    outer loop
        vertex -1.880000e+01 3.811177e+01 -4.355111e+01
        vertex -2.100000e+01 3.850000e+01 -4.350000e+01
        vertex -1.880000e+01 3.850000e+01 -4.350000e+01
    endloop
endfacet
facet normal 0.000000e+00 3.826804e-01 -9.238808e-01
    outer loop
        vertex -1.880000e+01 3.775000e+01 -4.370096e+01
        vertex -2.100000e+01 3.775000e+01 -4.370096e+01
        vertex -2.100000e+01 3.811177e+01 -4.355111e+01
    endloop
endfacet
facet normal 0.000000e+00 3.826804e-01 -9.238808e-01
    outer loop
        vertex -1.880000e+01 3.775000e+01 -4.370096e+01
        vertex -2.100000e+01 3.811177e+01 -4.355111e+01
        vertex -1.880000e+01 3.811177e+01 -4.355111e+01
    endloop
endfacet
facet normal 0.000000e+00 6.087579e-01 -7.933561e-01
    outer loop
        vertex -1.880000e+01 3.743934e+01 -4.393934e+01
        vertex -2.100000e+01 3.743934e+01 -4.393934e+01
        vertex -2.100000e+01 3.775000e+01 -4.370096e+01
    endloop
endfacet
facet normal 0.000000e+00 6.087579e-01 -7.933561e-01
    outer loop
        vertex -1.880000e+01 3.743934e+01 -4.393934e+01
        vertex -2.100000e+01 3.775000e+01 -4.370096e+01
        vertex -1.880000e+01 3.775000e+01 -4.370096e+01
    endloop
endfacet
facet normal 0.000000e+00 7.933561e-01 -6.087579e-01
    outer loop
        vertex -1.880000e+01 3.720096e+01 -4.425000e+01
        vertex -2.100000e+01 3.720096e+01 -4.425000e+01
        vertex -2.100000e+01 3.743934e+01 -4.393934e+01
    endloop
endfacet
facet normal 0.000000e+00 7.933561e-01 -6.087579e-01
    outer loop
        vertex -1.880000e+01 3.720096e+01 -4.425000e+01
        vertex -2.100000e+01 3.743934e+01 -4.393934e+01
        vertex -1.880000e+01 3.743934e+01 -4.393934e+01
    endloop
endfacet
facet normal 0.000000e+00 9.238808e-01 -3.826804e-01
    outer loop
        vertex -1.880000e+01 3.705111e+01 -4.461177e+01
        vertex -2.100000e+01 3.705111e+01 -4.461177e+01
        vertex -2.100000e+01 3.720096e+01 -4.425000e+01
    endloop
endfacet
facet normal 0.000000e+00 9.238808e-01 -3.826804e-01
    outer loop
        vertex -1.880000e+01 3.705111e+01 -4.461177e+01
        vertex -2.100000e+01 3.720096e+01 -4.425000e+01
        vertex -1.880000e+01 3.720096e+01 -4.425000e+01
    endloop
endfacet
facet normal 0.000000e+00 9.914443e-01 -1.305306e-01
    outer loop
        vertex -1.880000e+01 3.700000e+01 -4.500000e+01
        vertex -2.100000e+01 3.700000e+01 -4.500000e+01
        vertex -2.100000e+01 3.705111e+01 -4.461177e+01
    endloop
endfacet
facet normal 0.000000e+00 9.914443e-01 -1.305306e-01
    outer loop
        vertex -1.880000e+01 3.700000e+01 -4.500000e+01
        vertex -2.100000e+01 3.705111e+01 -4.461177e+01
        vertex -1.880000e+01 3.705111e+01 -4.461177e+01
    endloop
endfacet
facet normal 0.000000e+00 9.914443e-01 1.305306e-01
    outer loop
        vertex -2.100000e+01 3.700000e+01 -4.500000e+01
        vertex -1.880000e+01 3.705111e+01 -4.538823e+01
        vertex -2.100000e+01 3.705111e+01 -4.538823e+01
    endloop
endfacet
facet normal 0.000000e+00 9.914443e-01 1.305306e-01
    outer loop
        vertex -1.880000e+01 3.700000e+01 -4.500000e+01
        vertex -1.880000e+01 3.705111e+01 -4.538823e+01
        vertex -2.100000e+01 3.700000e+01 -4.500000e+01
    endloop
endfacet
facet normal 0.000000e+00 9.238808e-01 3.826804e-01
    outer loop
        vertex -2.100000e+01 3.705111e+01 -4.538823e+01
        vertex -1.880000e+01 3.720096e+01 -4.575000e+01
        vertex -2.100000e+01 3.720096e+01 -4.575000e+01
    endloop
endfacet
facet normal 0.000000e+00 9.238808e-01 3.826804e-01
    outer loop
        vertex -1.880000e+01 3.705111e+01 -4.538823e+01
        vertex -1.880000e+01 3.720096e+01 -4.575000e+01
        vertex -2.100000e+01 3.705111e+01 -4.538823e+01
    endloop
endfacet
facet normal 0.000000e+00 7.933561e-01 6.087579e-01
    outer loop
        vertex -2.100000e+01 3.720096e+01 -4.575000e+01
        vertex -1.880000e+01 3.743934e+01 -4.606066e+01
        vertex -2.100000e+01 3.743934e+01 -4.606066e+01
    endloop
endfacet
facet normal 0.000000e+00 7.933561e-01 6.087579e-01
    outer loop
        vertex -1.880000e+01 3.720096e+01 -4.575000e+01
        vertex -1.880000e+01 3.743934e+01 -4.606066e+01
        vertex -2.100000e+01 3.720096e+01 -4.575000e+01
    endloop
endfacet
facet normal 0.000000e+00 6.087579e-01 7.933561e-01
    outer loop
        vertex -2.100000e+01 3.743934e+01 -4.606066e+01
        vertex -1.880000e+01 3.775000e+01 -4.629904e+01
        vertex -2.100000e+01 3.775000e+01 -4.629904e+01
    endloop
endfacet
facet normal 0.000000e+00 6.087579e-01 7.933561e-01
    outer loop
        vertex -1.880000e+01 3.743934e+01 -4.606066e+01
        vertex -1.880000e+01 3.775000e+01 -4.629904e+01
        vertex -2.100000e+01 3.743934e+01 -4.606066e+01
    endloop
endfacet
facet normal 0.000000e+00 3.826804e-01 9.238808e-01
    outer loop
        vertex -2.100000e+01 3.775000e+01 -4.629904e+01
        vertex -1.880000e+01 3.811177e+01 -4.644889e+01
        vertex -2.100000e+01 3.811177e+01 -4.644889e+01
    endloop
endfacet
facet normal 0.000000e+00 3.826804e-01 9.238808e-01
    outer loop
        vertex -1.880000e+01 3.775000e+01 -4.629904e+01
        vertex -1.880000e+01 3.811177e+01 -4.644889e+01
        vertex -2.100000e+01 3.775000e+01 -4.629904e+01
    endloop
endfacet
facet normal 0.000000e+00 1.305306e-01 9.914443e-01
    outer loop
        vertex -2.100000e+01 3.811177e+01 -4.644889e+01
        vertex -1.880000e+01 3.850000e+01 -4.650000e+01
        vertex -2.100000e+01 3.850000e+01 -4.650000e+01
    endloop
endfacet
facet normal 0.000000e+00 1.305306e-01 9.914443e-01
    outer loop
        vertex -1.880000e+01 3.811177e+01 -4.644889e+01
        vertex -1.880000e+01 3.850000e+01 -4.650000e+01
        vertex -2.100000e+01 3.811177e+01 -4.644889e+01
    endloop
endfacet
facet normal 0.000000e+00 -1.305306e-01 9.914443e-01
    outer loop
        vertex -2.100000e+01 3.850000e+01 -4.650000e+01
        vertex -1.880000e+01 3.888823e+01 -4.644889e+01
        vertex -2.100000e+01 3.888823e+01 -4.644889e+01
    endloop
endfacet
facet normal 0.000000e+00 -1.305306e-01 9.914443e-01
    outer loop
        vertex -1.880000e+01 3.850000e+01 -4.650000e+01
        vertex -1.880000e+01 3.888823e+01 -4.644889e+01
        vertex -2.100000e+01 3.850000e+01 -4.650000e+01
    endloop
endfacet
facet normal 0.000000e+00 -3.826804e-01 9.238808e-01
    outer loop
        vertex -2.100000e+01 3.888823e+01 -4.644889e+01
        vertex -1.880000e+01 3.925000e+01 -4.629904e+01
        vertex -2.100000e+01 3.925000e+01 -4.629904e+01
    endloop
endfacet
facet normal 0.000000e+00 -3.826804e-01 9.238808e-01
    outer loop
        vertex -1.880000e+01 3.888823e+01 -4.644889e+01
        vertex -1.880000e+01 3.925000e+01 -4.629904e+01
        vertex -2.100000e+01 3.888823e+01 -4.644889e+01
    endloop
endfacet
facet normal 0.000000e+00 -6.087579e-01 7.933561e-01
    outer loop
        vertex -2.100000e+01 3.925000e+01 -4.629904e+01
        vertex -1.880000e+01 3.956066e+01 -4.606066e+01
        vertex -2.100000e+01 3.956066e+01 -4.606066e+01
    endloop
endfacet
facet normal 0.000000e+00 -6.087579e-01 7.933561e-01
    outer loop
        vertex -1.880000e+01 3.925000e+01 -4.629904e+01
        vertex -1.880000e+01 3.956066e+01 -4.606066e+01
        vertex -2.100000e+01 3.925000e+01 -4.629904e+01
    endloop
endfacet
facet normal 0.000000e+00 -7.933561e-01 6.087579e-01
    outer loop
        vertex -2.100000e+01 3.956066e+01 -4.606066e+01
        vertex -1.880000e+01 3.979904e+01 -4.575000e+01
        vertex -2.100000e+01 3.979904e+01 -4.575000e+01
    endloop
endfacet
facet normal 0.000000e+00 -7.933561e-01 6.087579e-01
    outer loop
        vertex -1.880000e+01 3.956066e+01 -4.606066e+01
        vertex -1.880000e+01 3.979904e+01 -4.575000e+01
        vertex -2.100000e+01 3.956066e+01 -4.606066e+01
    endloop
endfacet
facet normal 0.000000e+00 -9.238808e-01 3.826804e-01
    outer loop
        vertex -2.100000e+01 3.979904e+01 -4.575000e+01
        vertex -1.880000e+01 3.994889e+01 -4.538823e+01
        vertex -2.100000e+01 3.994889e+01 -4.538823e+01
    endloop
endfacet
facet normal 0.000000e+00 -9.238808e-01 3.826804e-01
    outer loop
        vertex -1.880000e+01 3.979904e+01 -4.575000e+01
        vertex -1.880000e+01 3.994889e+01 -4.538823e+01
        vertex -2.100000e+01 3.979904e+01 -4.575000e+01
    endloop
endfacet
facet normal 0.000000e+00 -9.914443e-01 1.305306e-01
    outer loop
        vertex -2.100000e+01 3.994889e+01 -4.538823e+01
        vertex -1.880000e+01 4.000000e+01 -4.500000e+01
        vertex -2.100000e+01 4.000000e+01 -4.500000e+01
    endloop
endfacet
facet normal 0.000000e+00 -9.914443e-01 1.305306e-01
    outer loop
        vertex -1.880000e+01 3.994889e+01 -4.538823e+01
        vertex -1.880000e+01 4.000000e+01 -4.500000e+01
        vertex -2.100000e+01 3.994889e+01 -4.538823e+01
    endloop
endfacet
facet normal 1.000000e+00 0.000000e+00 0.000000e+00
    outer loop
        vertex -1.880000e+01 3.590000e+01 -4.500000e+01
        vertex -1.880000e+01 3.700000e+01 -4.500000e+01
        vertex -1.880000e+01 3.598859e+01 -4.430119e+01
    endloop
endfacet
facet normal 1.000000e+00 -0.000000e+00 0.000000e+00
    outer loop
        vertex -1.880000e+01 3.590000e+01 -4.500000e+01
        vertex -1.880000e+01 3.598859e+01 -4.569881e+01
        vertex -1.880000e+01 3.700000e+01 -4.500000e+01
    endloop
endfacet
facet normal 1.000000e+00 -0.000000e+00 0.000000e+00
    outer loop
        vertex -1.880000e+01 3.598859e+01 -4.569881e+01
        vertex -1.880000e+01 3.624833e+01 -4.635000e+01
        vertex -1.880000e+01 3.700000e+01 -4.500000e+01
    endloop
endfacet
facet normal 1.000000e+00 -0.000000e+00 0.000000e+00
    outer loop
        vertex -1.880000e+01 3.598859e+01 -4.430119e+01
        vertex -1.880000e+01 3.700000e+01 -4.500000e+01
        vertex -1.880000e+01 3.624833e+01 -4.365000e+01
    endloop
endfacet
facet normal 1.000000e+00 -0.000000e+00 0.000000e+00
    outer loop
        vertex -1.880000e+01 3.624833e+01 -4.635000e+01
        vertex -1.880000e+01 3.666152e+01 -4.690919e+01
        vertex -1.880000e+01 3.700000e+01 -4.500000e+01
    endloop
endfacet
facet normal 1.000000e+00 -0.000000e+00 0.000000e+00
    outer loop
        vertex -1.880000e+01 3.624833e+01 -4.365000e+01
        vertex -1.880000e+01 3.700000e+01 -4.500000e+01
        vertex -1.880000e+01 3.666152e+01 -4.309081e+01
    endloop
endfacet
facet normal 1.000000e+00 -0.000000e+00 0.000000e+00
    outer loop
        vertex -1.880000e+01 3.666152e+01 -4.690919e+01
        vertex -1.880000e+01 3.720000e+01 -4.733827e+01
        vertex -1.880000e+01 3.700000e+01 -4.500000e+01
    endloop
endfacet
facet normal 1.000000e+00 -0.000000e+00 0.000000e+00
    outer loop
        vertex -1.880000e+01 3.666152e+01 -4.309081e+01
        vertex -1.880000e+01 3.700000e+01 -4.500000e+01
        vertex -1.880000e+01 3.720000e+01 -4.266173e+01
    endloop
endfacet
facet normal 1.000000e+00 -0.000000e+00 0.000000e+00
    outer loop
        vertex -1.880000e+01 3.782707e+01 -4.760800e+01
        vertex -1.880000e+01 3.850000e+01 -4.770000e+01
        vertex -1.880000e+01 3.917293e+01 -4.760800e+01
    endloop
endfacet
facet normal 1.000000e+00 0.000000e+00 0.000000e+00
    outer loop
        vertex -1.880000e+01 3.720000e+01 -4.733827e+01
        vertex -1.880000e+01 3.782707e+01 -4.760800e+01
        vertex -1.880000e+01 3.917293e+01 -4.760800e+01
    endloop
endfacet
facet normal 1.000000e+00 -0.000000e+00 0.000000e+00
    outer loop
        vertex -1.880000e+01 3.720000e+01 -4.733827e+01
        vertex -1.880000e+01 3.917293e+01 -4.760800e+01
        vertex -1.880000e+01 3.980000e+01 -4.733827e+01
    endloop
endfacet
facet normal 1.000000e+00 0.000000e+00 0.000000e+00
    outer loop
        vertex -1.880000e+01 3.720000e+01 -4.733827e+01
        vertex -1.880000e+01 3.980000e+01 -4.733827e+01
        vertex -1.880000e+01 4.033848e+01 -4.690919e+01
    endloop
endfacet
facet normal 1.000000e+00 0.000000e+00 0.000000e+00
    outer loop
        vertex -1.880000e+01 3.720000e+01 -4.733827e+01
        vertex -1.880000e+01 4.033848e+01 -4.690919e+01
        vertex -1.880000e+01 4.075167e+01 -4.635000e+01
    endloop
endfacet
facet normal 1.000000e+00 0.000000e+00 0.000000e+00
    outer loop
        vertex -1.880000e+01 3.720000e+01 -4.733827e+01
        vertex -1.880000e+01 4.075167e+01 -4.635000e+01
        vertex -1.880000e+01 4.101141e+01 -4.569881e+01
    endloop
endfacet
facet normal 1.000000e+00 0.000000e+00 0.000000e+00
    outer loop
        vertex -1.880000e+01 3.782707e+01 -4.239200e+01
        vertex -1.880000e+01 3.917293e+01 -4.239200e+01
        vertex -1.880000e+01 3.850000e+01 -4.230000e+01
    endloop
endfacet
facet normal 1.000000e+00 -0.000000e+00 0.000000e+00
    outer loop
        vertex -1.880000e+01 3.782707e+01 -4.239200e+01
        vertex -1.880000e+01 3.980000e+01 -4.266173e+01
        vertex -1.880000e+01 3.917293e+01 -4.239200e+01
    endloop
endfacet
facet normal 1.000000e+00 0.000000e+00 0.000000e+00
    outer loop
        vertex -1.880000e+01 3.720000e+01 -4.266173e+01
        vertex -1.880000e+01 3.980000e+01 -4.266173e+01
        vertex -1.880000e+01 3.782707e+01 -4.239200e+01
    endloop
endfacet
facet normal 1.000000e+00 -0.000000e+00 0.000000e+00
    outer loop
        vertex -1.880000e+01 3.720000e+01 -4.266173e+01
        vertex -1.880000e+01 4.033848e+01 -4.309081e+01
        vertex -1.880000e+01 3.980000e+01 -4.266173e+01
    endloop
endfacet
facet normal 1.000000e+00 0.000000e+00 0.000000e+00
    outer loop
        vertex -1.880000e+01 3.720000e+01 -4.266173e+01
        vertex -1.880000e+01 4.075167e+01 -4.365000e+01
        vertex -1.880000e+01 4.033848e+01 -4.309081e+01
    endloop
endfacet
facet normal 1.000000e+00 0.000000e+00 0.000000e+00
    outer loop
        vertex -1.880000e+01 3.720000e+01 -4.266173e+01
        vertex -1.880000e+01 4.101141e+01 -4.430119e+01
        vertex -1.880000e+01 4.075167e+01 -4.365000e+01
    endloop
endfacet
facet normal 1.000000e+00 0.000000e+00 0.000000e+00
    outer loop
        vertex -1.880000e+01 4.101141e+01 -4.569881e+01
        vertex -1.880000e+01 4.110000e+01 -4.500000e+01
        vertex -1.880000e+01 4.101141e+01 -4.430119e+01
    endloop
endfacet
facet normal 1.000000e+00 0.000000e+00 0.000000e+00
    outer loop
        vertex -1.880000e+01 3.700000e+01 -4.500000e+01
        vertex -1.880000e+01 3.705111e+01 -4.461177e+01
        vertex -1.880000e+01 3.720000e+01 -4.266173e+01
    endloop
endfacet
facet normal 1.000000e+00 0.000000e+00 0.000000e+00
    outer loop
        vertex -1.880000e+01 3.705111e+01 -4.461177e+01
        vertex -1.880000e+01 3.720096e+01 -4.425000e+01
        vertex -1.880000e+01 3.720000e+01 -4.266173e+01
    endloop
endfacet
facet normal 1.000000e+00 0.000000e+00 0.000000e+00
    outer loop
        vertex -1.880000e+01 3.720000e+01 -4.266173e+01
        vertex -1.880000e+01 3.720096e+01 -4.425000e+01
        vertex -1.880000e+01 3.743934e+01 -4.393934e+01
    endloop
endfacet
facet normal 1.000000e+00 0.000000e+00 0.000000e+00
    outer loop
        vertex -1.880000e+01 3.720000e+01 -4.266173e+01
        vertex -1.880000e+01 3.743934e+01 -4.393934e+01
        vertex -1.880000e+01 3.775000e+01 -4.370096e+01
    endloop
endfacet
facet normal 1.000000e+00 0.000000e+00 0.000000e+00
    outer loop
        vertex -1.880000e+01 3.720000e+01 -4.266173e+01
        vertex -1.880000e+01 3.775000e+01 -4.370096e+01
        vertex -1.880000e+01 3.811177e+01 -4.355111e+01
    endloop
endfacet
facet normal 1.000000e+00 0.000000e+00 0.000000e+00
    outer loop
        vertex -1.880000e+01 3.720000e+01 -4.266173e+01
        vertex -1.880000e+01 3.811177e+01 -4.355111e+01
        vertex -1.880000e+01 3.850000e+01 -4.350000e+01
    endloop
endfacet
facet normal 1.000000e+00 0.000000e+00 0.000000e+00
    outer loop
        vertex -1.880000e+01 3.720000e+01 -4.266173e+01
        vertex -1.880000e+01 3.850000e+01 -4.350000e+01
        vertex -1.880000e+01 3.888823e+01 -4.355111e+01
    endloop
endfacet
facet normal 1.000000e+00 0.000000e+00 0.000000e+00
    outer loop
        vertex -1.880000e+01 3.720000e+01 -4.266173e+01
        vertex -1.880000e+01 3.888823e+01 -4.355111e+01
        vertex -1.880000e+01 4.101141e+01 -4.430119e+01
    endloop
endfacet
facet normal 1.000000e+00 0.000000e+00 0.000000e+00
    outer loop
        vertex -1.880000e+01 3.888823e+01 -4.355111e+01
        vertex -1.880000e+01 3.925000e+01 -4.370096e+01
        vertex -1.880000e+01 4.101141e+01 -4.430119e+01
    endloop
endfacet
facet normal 1.000000e+00 0.000000e+00 0.000000e+00
    outer loop
        vertex -1.880000e+01 3.925000e+01 -4.370096e+01
        vertex -1.880000e+01 3.956066e+01 -4.393934e+01
        vertex -1.880000e+01 4.101141e+01 -4.430119e+01
    endloop
endfacet
facet normal 1.000000e+00 0.000000e+00 0.000000e+00
    outer loop
        vertex -1.880000e+01 3.956066e+01 -4.393934e+01
        vertex -1.880000e+01 4.101141e+01 -4.569881e+01
        vertex -1.880000e+01 4.101141e+01 -4.430119e+01
    endloop
endfacet
facet normal 1.000000e+00 0.000000e+00 0.000000e+00
    outer loop
        vertex -1.880000e+01 3.700000e+01 -4.500000e+01
        vertex -1.880000e+01 3.720000e+01 -4.733827e+01
        vertex -1.880000e+01 3.705111e+01 -4.538823e+01
    endloop
endfacet
facet normal 1.000000e+00 0.000000e+00 0.000000e+00
    outer loop
        vertex -1.880000e+01 3.705111e+01 -4.538823e+01
        vertex -1.880000e+01 3.720000e+01 -4.733827e+01
        vertex -1.880000e+01 3.720096e+01 -4.575000e+01
    endloop
endfacet
facet normal 1.000000e+00 0.000000e+00 0.000000e+00
    outer loop
        vertex -1.880000e+01 3.720000e+01 -4.733827e+01
        vertex -1.880000e+01 3.743934e+01 -4.606066e+01
        vertex -1.880000e+01 3.720096e+01 -4.575000e+01
    endloop
endfacet
facet normal 1.000000e+00 0.000000e+00 0.000000e+00
    outer loop
        vertex -1.880000e+01 3.720000e+01 -4.733827e+01
        vertex -1.880000e+01 3.775000e+01 -4.629904e+01
        vertex -1.880000e+01 3.743934e+01 -4.606066e+01
    endloop
endfacet
facet normal 1.000000e+00 0.000000e+00 0.000000e+00
    outer loop
        vertex -1.880000e+01 3.720000e+01 -4.733827e+01
        vertex -1.880000e+01 3.811177e+01 -4.644889e+01
        vertex -1.880000e+01 3.775000e+01 -4.629904e+01
    endloop
endfacet
facet normal 1.000000e+00 0.000000e+00 0.000000e+00
    outer loop
        vertex -1.880000e+01 3.720000e+01 -4.733827e+01
        vertex -1.880000e+01 3.850000e+01 -4.650000e+01
        vertex -1.880000e+01 3.811177e+01 -4.644889e+01
    endloop
endfacet
facet normal 1.000000e+00 0.000000e+00 0.000000e+00
    outer loop
        vertex -1.880000e+01 3.720000e+01 -4.733827e+01
        vertex -1.880000e+01 3.888823e+01 -4.644889e+01
        vertex -1.880000e+01 3.850000e+01 -4.650000e+01
    endloop
endfacet
facet normal 1.000000e+00 0.000000e+00 0.000000e+00
    outer loop
        vertex -1.880000e+01 3.720000e+01 -4.733827e+01
        vertex -1.880000e+01 4.101141e+01 -4.569881e+01
        vertex -1.880000e+01 3.888823e+01 -4.644889e+01
    endloop
endfacet
facet normal 1.000000e+00 0.000000e+00 0.000000e+00
    outer loop
        vertex -1.880000e+01 3.888823e+01 -4.644889e+01
        vertex -1.880000e+01 4.101141e+01 -4.569881e+01
        vertex -1.880000e+01 3.925000e+01 -4.629904e+01
    endloop
endfacet
facet normal 1.000000e+00 0.000000e+00 0.000000e+00
    outer loop
        vertex -1.880000e+01 3.925000e+01 -4.629904e+01
        vertex -1.880000e+01 4.101141e+01 -4.569881e+01
        vertex -1.880000e+01 3.956066e+01 -4.606066e+01
    endloop
endfacet
facet normal 1.000000e+00 0.000000e+00 0.000000e+00
    outer loop
        vertex -1.880000e+01 3.956066e+01 -4.606066e+01
        vertex -1.880000e+01 4.101141e+01 -4.569881e+01
        vertex -1.880000e+01 3.979904e+01 -4.575000e+01
    endloop
endfacet
facet normal 1.000000e+00 0.000000e+00 0.000000e+00
    outer loop
        vertex -1.880000e+01 3.979904e+01 -4.575000e+01
        vertex -1.880000e+01 4.101141e+01 -4.569881e+01
        vertex -1.880000e+01 3.994889e+01 -4.538823e+01
    endloop
endfacet
facet normal 1.000000e+00 -0.000000e+00 0.000000e+00
    outer loop
        vertex -1.880000e+01 3.994889e+01 -4.538823e+01
        vertex -1.880000e+01 4.101141e+01 -4.569881e+01
        vertex -1.880000e+01 4.000000e+01 -4.500000e+01
    endloop
endfacet
facet normal 1.000000e+00 0.000000e+00 0.000000e+00
    outer loop
        vertex -1.880000e+01 3.994889e+01 -4.461177e+01
        vertex -1.880000e+01 4.000000e+01 -4.500000e+01
        vertex -1.880000e+01 4.101141e+01 -4.569881e+01
    endloop
endfacet
facet normal 1.000000e+00 0.000000e+00 0.000000e+00
    outer loop
        vertex -1.880000e+01 3.956066e+01 -4.393934e+01
        vertex -1.880000e+01 3.979904e+01 -4.425000e+01
        vertex -1.880000e+01 4.101141e+01 -4.569881e+01
    endloop
endfacet
facet normal 1.000000e+00 0.000000e+00 0.000000e+00
    outer loop
        vertex -1.880000e+01 3.979904e+01 -4.425000e+01
        vertex -1.880000e+01 3.994889e+01 -4.461177e+01
        vertex -1.880000e+01 4.101141e+01 -4.569881e+01
    endloop
endfacet
facet normal -0.000000e+00 -9.920595e-01 -1.257695e-01
    outer loop
        vertex -1.550000e+01 4.101141e+01 -4.430119e+01
        vertex -1.880000e+01 4.101141e+01 -4.430119e+01
        vertex -1.880000e+01 4.110000e+01 -4.500000e+01
    endloop
endfacet
facet normal 0.000000e+00 -9.920592e-01 -1.257717e-01
    outer loop
        vertex -1.550000e+01 4.101692e+01 -4.434471e+01
        vertex -1.880000e+01 4.110000e+01 -4.500000e+01
        vertex -1.550000e+01 4.110000e+01 -4.500000e+01
    endloop
endfacet
facet normal -7.169052e-06 -9.920637e-01 -1.257362e-01
    outer loop
        vertex -1.550000e+01 4.101141e+01 -4.430119e+01
        vertex -1.880000e+01 4.110000e+01 -4.500000e+01
        vertex -1.550000e+01 4.101692e+01 -4.434471e+01
    endloop
endfacet
facet normal -0.000000e+00 -9.288384e-01 -3.704852e-01
    outer loop
        vertex -1.550000e+01 4.075167e+01 -4.365000e+01
        vertex -1.880000e+01 4.075167e+01 -4.365000e+01
        vertex -1.880000e+01 4.101141e+01 -4.430119e+01
    endloop
endfacet
facet normal 0.000000e+00 -9.288384e-01 -3.704852e-01
    outer loop
        vertex -1.550000e+01 4.075167e+01 -4.365000e+01
        vertex -1.880000e+01 4.101141e+01 -4.430119e+01
        vertex -1.550000e+01 4.101141e+01 -4.430119e+01
    endloop
endfacet
facet normal -0.000000e+00 -8.042617e-01 -5.942752e-01
    outer loop
        vertex -1.550000e+01 4.033848e+01 -4.309081e+01
        vertex -1.880000e+01 4.033848e+01 -4.309081e+01
        vertex -1.880000e+01 4.075167e+01 -4.365000e+01
    endloop
endfacet
facet normal 0.000000e+00 -8.042617e-01 -5.942752e-01
    outer loop
        vertex -1.550000e+01 4.033848e+01 -4.309081e+01
        vertex -1.880000e+01 4.075167e+01 -4.365000e+01
        vertex -1.550000e+01 4.075167e+01 -4.365000e+01
    endloop
endfacet
facet normal -0.000000e+00 -6.231865e-01 -7.820733e-01
    outer loop
        vertex -1.550000e+01 3.980000e+01 -4.266173e+01
        vertex -1.880000e+01 3.980000e+01 -4.266173e+01
        vertex -1.880000e+01 4.033848e+01 -4.309081e+01
    endloop
endfacet
facet normal 0.000000e+00 -6.231865e-01 -7.820733e-01
    outer loop
        vertex -1.550000e+01 3.980000e+01 -4.266173e+01
        vertex -1.880000e+01 4.033848e+01 -4.309081e+01
        vertex -1.550000e+01 4.033848e+01 -4.309081e+01
    endloop
endfacet
facet normal -0.000000e+00 -3.951377e-01 -9.186219e-01
    outer loop
        vertex -1.550000e+01 3.917293e+01 -4.239200e+01
        vertex -1.880000e+01 3.917293e+01 -4.239200e+01
        vertex -1.880000e+01 3.980000e+01 -4.266173e+01
    endloop
endfacet
facet normal 0.000000e+00 -3.951377e-01 -9.186219e-01
    outer loop
        vertex -1.550000e+01 3.917293e+01 -4.239200e+01
        vertex -1.880000e+01 3.980000e+01 -4.266173e+01
        vertex -1.550000e+01 3.980000e+01 -4.266173e+01
    endloop
endfacet
facet normal -0.000000e+00 -1.354601e-01 -9.907828e-01
    outer loop
        vertex -1.550000e+01 3.850000e+01 -4.230000e+01
        vertex -1.880000e+01 3.850000e+01 -4.230000e+01
        vertex -1.880000e+01 3.917293e+01 -4.239200e+01
    endloop
endfacet
facet normal 0.000000e+00 -1.354601e-01 -9.907828e-01
    outer loop
        vertex -1.550000e+01 3.850000e+01 -4.230000e+01
        vertex -1.880000e+01 3.917293e+01 -4.239200e+01
        vertex -1.550000e+01 3.917293e+01 -4.239200e+01
    endloop
endfacet
facet normal 0.000000e+00 1.354601e-01 -9.907828e-01
    outer loop
        vertex -1.880000e+01 3.782707e+01 -4.239200e+01
        vertex -1.880000e+01 3.850000e+01 -4.230000e+01
        vertex -1.550000e+01 3.850000e+01 -4.230000e+01
    endloop
endfacet
facet normal 0.000000e+00 1.354601e-01 -9.907828e-01
    outer loop
        vertex -1.550000e+01 3.782707e+01 -4.239200e+01
        vertex -1.880000e+01 3.782707e+01 -4.239200e+01
        vertex -1.550000e+01 3.850000e+01 -4.230000e+01
    endloop
endfacet
facet normal 0.000000e+00 3.951377e-01 -9.186219e-01
    outer loop
        vertex -1.880000e+01 3.720000e+01 -4.266173e+01
        vertex -1.880000e+01 3.782707e+01 -4.239200e+01
        vertex -1.550000e+01 3.782707e+01 -4.239200e+01
    endloop
endfacet
facet normal 0.000000e+00 3.951377e-01 -9.186219e-01
    outer loop
        vertex -1.550000e+01 3.720000e+01 -4.266173e+01
        vertex -1.880000e+01 3.720000e+01 -4.266173e+01
        vertex -1.550000e+01 3.782707e+01 -4.239200e+01
    endloop
endfacet
facet normal 0.000000e+00 6.231865e-01 -7.820733e-01
    outer loop
        vertex -1.880000e+01 3.666152e+01 -4.309081e+01
        vertex -1.880000e+01 3.720000e+01 -4.266173e+01
        vertex -1.550000e+01 3.720000e+01 -4.266173e+01
    endloop
endfacet
facet normal 0.000000e+00 6.231865e-01 -7.820733e-01
    outer loop
        vertex -1.550000e+01 3.666152e+01 -4.309081e+01
        vertex -1.880000e+01 3.666152e+01 -4.309081e+01
        vertex -1.550000e+01 3.720000e+01 -4.266173e+01
    endloop
endfacet
facet normal 0.000000e+00 8.042617e-01 -5.942752e-01
    outer loop
        vertex -1.880000e+01 3.624833e+01 -4.365000e+01
        vertex -1.880000e+01 3.666152e+01 -4.309081e+01
        vertex -1.550000e+01 3.666152e+01 -4.309081e+01
    endloop
endfacet
facet normal 0.000000e+00 8.042617e-01 -5.942752e-01
    outer loop
        vertex -1.550000e+01 3.624833e+01 -4.365000e+01
        vertex -1.880000e+01 3.624833e+01 -4.365000e+01
        vertex -1.550000e+01 3.666152e+01 -4.309081e+01
    endloop
endfacet
facet normal 0.000000e+00 9.288384e-01 -3.704852e-01
    outer loop
        vertex -1.880000e+01 3.598859e+01 -4.430119e+01
        vertex -1.880000e+01 3.624833e+01 -4.365000e+01
        vertex -1.550000e+01 3.624833e+01 -4.365000e+01
    endloop
endfacet
facet normal 0.000000e+00 9.288384e-01 -3.704852e-01
    outer loop
        vertex -1.550000e+01 3.598859e+01 -4.430119e+01
        vertex -1.880000e+01 3.598859e+01 -4.430119e+01
        vertex -1.550000e+01 3.624833e+01 -4.365000e+01
    endloop
endfacet
facet normal 0.000000e+00 9.920595e-01 -1.257695e-01
    outer loop
        vertex -1.880000e+01 3.590000e+01 -4.500000e+01
        vertex -1.880000e+01 3.598859e+01 -4.430119e+01
        vertex -1.550000e+01 3.598859e+01 -4.430119e+01
    endloop
endfacet
facet normal 0.000000e+00 9.920595e-01 -1.257695e-01
    outer loop
        vertex -1.550000e+01 3.590000e+01 -4.500000e+01
        vertex -1.880000e+01 3.590000e+01 -4.500000e+01
        vertex -1.550000e+01 3.598859e+01 -4.430119e+01
    endloop
endfacet
facet normal 0.000000e+00 9.920595e-01 1.257695e-01
    outer loop
        vertex -1.550000e+01 3.590000e+01 -4.500000e+01
        vertex -1.880000e+01 3.598859e+01 -4.569881e+01
        vertex -1.880000e+01 3.590000e+01 -4.500000e+01
    endloop
endfacet
facet normal 0.000000e+00 9.920595e-01 1.257695e-01
    outer loop
        vertex -1.550000e+01 3.590000e+01 -4.500000e+01
        vertex -1.550000e+01 3.598859e+01 -4.569881e+01
        vertex -1.880000e+01 3.598859e+01 -4.569881e+01
    endloop
endfacet
facet normal 0.000000e+00 9.288384e-01 3.704852e-01
    outer loop
        vertex -1.550000e+01 3.598859e+01 -4.569881e+01
        vertex -1.880000e+01 3.624833e+01 -4.635000e+01
        vertex -1.880000e+01 3.598859e+01 -4.569881e+01
    endloop
endfacet
facet normal 0.000000e+00 9.288384e-01 3.704852e-01
    outer loop
        vertex -1.550000e+01 3.598859e+01 -4.569881e+01
        vertex -1.550000e+01 3.624833e+01 -4.635000e+01
        vertex -1.880000e+01 3.624833e+01 -4.635000e+01
    endloop
endfacet
facet normal 0.000000e+00 8.042617e-01 5.942752e-01
    outer loop
        vertex -1.550000e+01 3.624833e+01 -4.635000e+01
        vertex -1.880000e+01 3.666152e+01 -4.690919e+01
        vertex -1.880000e+01 3.624833e+01 -4.635000e+01
    endloop
endfacet
facet normal 0.000000e+00 8.042617e-01 5.942752e-01
    outer loop
        vertex -1.550000e+01 3.624833e+01 -4.635000e+01
        vertex -1.550000e+01 3.666152e+01 -4.690919e+01
        vertex -1.880000e+01 3.666152e+01 -4.690919e+01
    endloop
endfacet
facet normal 0.000000e+00 6.231865e-01 7.820733e-01
    outer loop
        vertex -1.550000e+01 3.666152e+01 -4.690919e+01
        vertex -1.880000e+01 3.720000e+01 -4.733827e+01
        vertex -1.880000e+01 3.666152e+01 -4.690919e+01
    endloop
endfacet
facet normal 0.000000e+00 6.231865e-01 7.820733e-01
    outer loop
        vertex -1.550000e+01 3.666152e+01 -4.690919e+01
        vertex -1.550000e+01 3.720000e+01 -4.733827e+01
        vertex -1.880000e+01 3.720000e+01 -4.733827e+01
    endloop
endfacet
facet normal 0.000000e+00 3.951377e-01 9.186219e-01
    outer loop
        vertex -1.550000e+01 3.720000e+01 -4.733827e+01
        vertex -1.880000e+01 3.782707e+01 -4.760800e+01
        vertex -1.880000e+01 3.720000e+01 -4.733827e+01
    endloop
endfacet
facet normal 0.000000e+00 3.951377e-01 9.186219e-01
    outer loop
        vertex -1.550000e+01 3.720000e+01 -4.733827e+01
        vertex -1.550000e+01 3.782707e+01 -4.760800e+01
        vertex -1.880000e+01 3.782707e+01 -4.760800e+01
    endloop
endfacet
facet normal 0.000000e+00 1.354601e-01 9.907828e-01
    outer loop
        vertex -1.550000e+01 3.782707e+01 -4.760800e+01
        vertex -1.880000e+01 3.850000e+01 -4.770000e+01
        vertex -1.880000e+01 3.782707e+01 -4.760800e+01
    endloop
endfacet
facet normal 0.000000e+00 1.354601e-01 9.907828e-01
    outer loop
        vertex -1.550000e+01 3.782707e+01 -4.760800e+01
        vertex -1.550000e+01 3.850000e+01 -4.770000e+01
        vertex -1.880000e+01 3.850000e+01 -4.770000e+01
    endloop
endfacet
facet normal 0.000000e+00 -1.354601e-01 9.907828e-01
    outer loop
        vertex -1.880000e+01 3.850000e+01 -4.770000e+01
        vertex -1.550000e+01 3.917293e+01 -4.760800e+01
        vertex -1.880000e+01 3.917293e+01 -4.760800e+01
    endloop
endfacet
facet normal 0.000000e+00 -1.354601e-01 9.907828e-01
    outer loop
        vertex -1.550000e+01 3.850000e+01 -4.770000e+01
        vertex -1.550000e+01 3.917293e+01 -4.760800e+01
        vertex -1.880000e+01 3.850000e+01 -4.770000e+01
    endloop
endfacet
facet normal 0.000000e+00 -3.951377e-01 9.186219e-01
    outer loop
        vertex -1.880000e+01 3.917293e+01 -4.760800e+01
        vertex -1.550000e+01 3.980000e+01 -4.733827e+01
        vertex -1.880000e+01 3.980000e+01 -4.733827e+01
    endloop
endfacet
facet normal 0.000000e+00 -3.951377e-01 9.186219e-01
    outer loop
        vertex -1.550000e+01 3.917293e+01 -4.760800e+01
        vertex -1.550000e+01 3.980000e+01 -4.733827e+01
        vertex -1.880000e+01 3.917293e+01 -4.760800e+01
    endloop
endfacet
facet normal 0.000000e+00 -6.231865e-01 7.820733e-01
    outer loop
        vertex -1.880000e+01 3.980000e+01 -4.733827e+01
        vertex -1.550000e+01 4.033848e+01 -4.690919e+01
        vertex -1.880000e+01 4.033848e+01 -4.690919e+01
    endloop
endfacet
facet normal 0.000000e+00 -6.231865e-01 7.820733e-01
    outer loop
        vertex -1.550000e+01 3.980000e+01 -4.733827e+01
        vertex -1.550000e+01 4.033848e+01 -4.690919e+01
        vertex -1.880000e+01 3.980000e+01 -4.733827e+01
    endloop
endfacet
facet normal 0.000000e+00 -8.042617e-01 5.942752e-01
    outer loop
        vertex -1.880000e+01 4.033848e+01 -4.690919e+01
        vertex -1.550000e+01 4.075167e+01 -4.635000e+01
        vertex -1.880000e+01 4.075167e+01 -4.635000e+01
    endloop
endfacet
facet normal 0.000000e+00 -8.042617e-01 5.942752e-01
    outer loop
        vertex -1.550000e+01 4.033848e+01 -4.690919e+01
        vertex -1.550000e+01 4.075167e+01 -4.635000e+01
        vertex -1.880000e+01 4.033848e+01 -4.690919e+01
    endloop
endfacet
facet normal 0.000000e+00 -9.288384e-01 3.704852e-01
    outer loop
        vertex -1.880000e+01 4.075167e+01 -4.635000e+01
        vertex -1.550000e+01 4.101141e+01 -4.569881e+01
        vertex -1.880000e+01 4.101141e+01 -4.569881e+01
    endloop
endfacet
facet normal 0.000000e+00 -9.288384e-01 3.704852e-01
    outer loop
        vertex -1.550000e+01 4.075167e+01 -4.635000e+01
        vertex -1.550000e+01 4.101141e+01 -4.569881e+01
        vertex -1.880000e+01 4.075167e+01 -4.635000e+01
    endloop
endfacet
facet normal 0.000000e+00 -9.920595e-01 1.257695e-01
    outer loop
        vertex -1.880000e+01 4.101141e+01 -4.569881e+01
        vertex -1.550000e+01 4.110000e+01 -4.500000e+01
        vertex -1.880000e+01 4.110000e+01 -4.500000e+01
    endloop
endfacet
facet normal 0.000000e+00 -9.920595e-01 1.257695e-01
    outer loop
        vertex -1.550000e+01 4.101141e+01 -4.569881e+01
        vertex -1.550000e+01 4.110000e+01 -4.500000e+01
        vertex -1.880000e+01 4.101141e+01 -4.569881e+01
    endloop
endfacet
endsolid mag-catch.stl
