solid mag-catch.stl
facet normal 0.000000e+00 -0.000000e+00 1.000000e+00
    outer loop
        vertex -1.550000e+01 3.300000e+01 -2.550000e+01
        vertex -1.550000e+01 5.720000e+01 -2.550000e+01
        vertex -2.100000e+01 3.300000e+01 -2.550000e+01
    endloop
endfacet
facet normal 0.000000e+00 0.000000e+00 1.000000e+00
    outer loop
        vertex -2.100000e+01 3.300000e+01 -2.550000e+01
        vertex -1.550000e+01 5.720000e+01 -2.550000e+01
        vertex -2.100000e+01 5.720000e+01 -2.550000e+01
    endloop
endfacet
facet normal 0.000000e+00 1.000000e+00 -0.000000e+00
    outer loop
        vertex -1.550000e+01 5.720000e+01 -4.400000e+01
        vertex -2.100000e+01 5.720000e+01 -2.550000e+01
        vertex -1.550000e+01 5.720000e+01 -2.550000e+01
    endloop
endfacet
facet normal 0.000000e+00 1.000000e+00 0.000000e+00
    outer loop
        vertex -1.550000e+01 5.720000e+01 -4.400000e+01
        vertex -2.100000e+01 5.720000e+01 -4.400000e+01
        vertex -2.100000e+01 5.720000e+01 -2.550000e+01
    endloop
endfacet
facet normal 0.000000e+00 0.000000e+00 -1.000000e+00
    outer loop
        vertex -1.550000e+01 4.400000e+01 -4.400000e+01
        vertex -2.100000e+01 4.400000e+01 -4.400000e+01
        vertex -1.550000e+01 5.720000e+01 -4.400000e+01
    endloop
endfacet
facet normal 0.000000e+00 0.000000e+00 -1.000000e+00
    outer loop
        vertex -2.100000e+01 4.400000e+01 -4.400000e+01
        vertex -2.100000e+01 5.720000e+01 -4.400000e+01
        vertex -1.550000e+01 5.720000e+01 -4.400000e+01
    endloop
endfacet
facet normal 0.000000e+00 -1.000000e+00 0.000000e+00
    outer loop
        vertex -2.100000e+01 3.300000e+01 -6.000000e+01
        vertex -1.550000e+01 3.300000e+01 -2.550000e+01
        vertex -2.100000e+01 3.300000e+01 -2.550000e+01
    endloop
endfacet
facet normal 0.000000e+00 -1.000000e+00 0.000000e+00
    outer loop
        vertex -1.550000e+01 3.300000e+01 -6.000000e+01
        vertex -1.550000e+01 3.300000e+01 -2.550000e+01
        vertex -2.100000e+01 3.300000e+01 -6.000000e+01
    endloop
endfacet
facet normal 0.000000e+00 1.000000e+00 -0.000000e+00
    outer loop
        vertex -1.550000e+01 4.400000e+01 -6.000000e+01
        vertex -2.100000e+01 4.400000e+01 -4.400000e+01
        vertex -1.550000e+01 4.400000e+01 -4.400000e+01
    endloop
endfacet
facet normal 0.000000e+00 1.000000e+00 0.000000e+00
    outer loop
        vertex -1.550000e+01 4.400000e+01 -6.000000e+01
        vertex -2.100000e+01 4.400000e+01 -6.000000e+01
        vertex -2.100000e+01 4.400000e+01 -4.400000e+01
    endloop
endfacet
facet normal 0.000000e+00 0.000000e+00 -1.000000e+00
    outer loop
        vertex -1.550000e+01 3.300000e+01 -6.000000e+01
        vertex -2.100000e+01 3.300000e+01 -6.000000e+01
        vertex -2.100000e+01 4.400000e+01 -6.000000e+01
    endloop
endfacet
facet normal 0.000000e+00 0.000000e+00 -1.000000e+00
    outer loop
        vertex -1.550000e+01 3.300000e+01 -6.000000e+01
        vertex -2.100000e+01 4.400000e+01 -6.000000e+01
        vertex -1.550000e+01 4.400000e+01 -6.000000e+01
    endloop
endfacet
facet normal 1.000000e+00 0.000000e+00 0.000000e+00
    outer loop
        vertex -1.000000e+00 3.994889e+01 -5.738823e+01
        vertex -1.000000e+00 4.000000e+01 -5.700000e+01
        vertex -1.000000e+00 3.994889e+01 -5.661177e+01
    endloop
endfacet
facet normal 1.000000e+00 0.000000e+00 0.000000e+00
    outer loop
        vertex -1.000000e+00 3.979904e+01 -5.625000e+01
        vertex -1.000000e+00 3.994889e+01 -5.738823e+01
        vertex -1.000000e+00 3.994889e+01 -5.661177e+01
    endloop
endfacet
facet normal 1.000000e+00 0.000000e+00 0.000000e+00
    outer loop
        vertex -1.000000e+00 3.956066e+01 -5.593934e+01
        vertex -1.000000e+00 3.994889e+01 -5.738823e+01
        vertex -1.000000e+00 3.979904e+01 -5.625000e+01
    endloop
endfacet
facet normal 1.000000e+00 0.000000e+00 0.000000e+00
    outer loop
        vertex -1.000000e+00 3.925000e+01 -5.570096e+01
        vertex -1.000000e+00 3.994889e+01 -5.738823e+01
        vertex -1.000000e+00 3.956066e+01 -5.593934e+01
    endloop
endfacet
facet normal 1.000000e+00 0.000000e+00 0.000000e+00
    outer loop
        vertex -1.000000e+00 3.888823e+01 -5.555111e+01
        vertex -1.000000e+00 3.994889e+01 -5.738823e+01
        vertex -1.000000e+00 3.925000e+01 -5.570096e+01
    endloop
endfacet
facet normal 1.000000e+00 0.000000e+00 0.000000e+00
    outer loop
        vertex -1.000000e+00 3.850000e+01 -5.550000e+01
        vertex -1.000000e+00 3.994889e+01 -5.738823e+01
        vertex -1.000000e+00 3.888823e+01 -5.555111e+01
    endloop
endfacet
facet normal 1.000000e+00 -0.000000e+00 0.000000e+00
    outer loop
        vertex -1.000000e+00 3.811177e+01 -5.555111e+01
        vertex -1.000000e+00 3.994889e+01 -5.738823e+01
        vertex -1.000000e+00 3.850000e+01 -5.550000e+01
    endloop
endfacet
facet normal 1.000000e+00 -0.000000e+00 0.000000e+00
    outer loop
        vertex -1.000000e+00 3.775000e+01 -5.570096e+01
        vertex -1.000000e+00 3.994889e+01 -5.738823e+01
        vertex -1.000000e+00 3.811177e+01 -5.555111e+01
    endloop
endfacet
facet normal 1.000000e+00 -0.000000e+00 0.000000e+00
    outer loop
        vertex -1.000000e+00 3.743934e+01 -5.593934e+01
        vertex -1.000000e+00 3.994889e+01 -5.738823e+01
        vertex -1.000000e+00 3.775000e+01 -5.570096e+01
    endloop
endfacet
facet normal 1.000000e+00 -0.000000e+00 0.000000e+00
    outer loop
        vertex -1.000000e+00 3.720096e+01 -5.625000e+01
        vertex -1.000000e+00 3.994889e+01 -5.738823e+01
        vertex -1.000000e+00 3.743934e+01 -5.593934e+01
    endloop
endfacet
facet normal 1.000000e+00 -0.000000e+00 0.000000e+00
    outer loop
        vertex -1.000000e+00 3.705111e+01 -5.661177e+01
        vertex -1.000000e+00 3.994889e+01 -5.738823e+01
        vertex -1.000000e+00 3.720096e+01 -5.625000e+01
    endloop
endfacet
facet normal 1.000000e+00 -0.000000e+00 0.000000e+00
    outer loop
        vertex -1.000000e+00 3.700000e+01 -5.700000e+01
        vertex -1.000000e+00 3.994889e+01 -5.738823e+01
        vertex -1.000000e+00 3.705111e+01 -5.661177e+01
    endloop
endfacet
facet normal 1.000000e+00 0.000000e+00 0.000000e+00
    outer loop
        vertex -1.000000e+00 3.700000e+01 -5.700000e+01
        vertex -1.000000e+00 3.705111e+01 -5.738823e+01
        vertex -1.000000e+00 3.994889e+01 -5.738823e+01
    endloop
endfacet
facet normal 1.000000e+00 -0.000000e+00 0.000000e+00
    outer loop
        vertex -1.000000e+00 3.705111e+01 -5.738823e+01
        vertex -1.000000e+00 3.720096e+01 -5.775000e+01
        vertex -1.000000e+00 3.994889e+01 -5.738823e+01
    endloop
endfacet
facet normal 1.000000e+00 -0.000000e+00 0.000000e+00
    outer loop
        vertex -1.000000e+00 3.720096e+01 -5.775000e+01
        vertex -1.000000e+00 3.743934e+01 -5.806066e+01
        vertex -1.000000e+00 3.994889e+01 -5.738823e+01
    endloop
endfacet
facet normal 1.000000e+00 0.000000e+00 0.000000e+00
    outer loop
        vertex -1.000000e+00 3.743934e+01 -5.806066e+01
        vertex -1.000000e+00 3.979904e+01 -5.775000e+01
        vertex -1.000000e+00 3.994889e+01 -5.738823e+01
    endloop
endfacet
facet normal 1.000000e+00 0.000000e+00 0.000000e+00
    outer loop
        vertex -1.000000e+00 3.743934e+01 -5.806066e+01
        vertex -1.000000e+00 3.956066e+01 -5.806066e+01
        vertex -1.000000e+00 3.979904e+01 -5.775000e+01
    endloop
endfacet
facet normal 1.000000e+00 -0.000000e+00 0.000000e+00
    outer loop
        vertex -1.000000e+00 3.743934e+01 -5.806066e+01
        vertex -1.000000e+00 3.775000e+01 -5.829904e+01
        vertex -1.000000e+00 3.956066e+01 -5.806066e+01
    endloop
endfacet
facet normal 1.000000e+00 0.000000e+00 0.000000e+00
    outer loop
        vertex -1.000000e+00 3.775000e+01 -5.829904e+01
        vertex -1.000000e+00 3.925000e+01 -5.829904e+01
        vertex -1.000000e+00 3.956066e+01 -5.806066e+01
    endloop
endfacet
facet normal 1.000000e+00 -0.000000e+00 0.000000e+00
    outer loop
        vertex -1.000000e+00 3.775000e+01 -5.829904e+01
        vertex -1.000000e+00 3.811177e+01 -5.844889e+01
        vertex -1.000000e+00 3.925000e+01 -5.829904e+01
    endloop
endfacet
facet normal 1.000000e+00 -0.000000e+00 0.000000e+00
    outer loop
        vertex -1.000000e+00 3.811177e+01 -5.844889e+01
        vertex -1.000000e+00 3.850000e+01 -5.850000e+01
        vertex -1.000000e+00 3.888823e+01 -5.844889e+01
    endloop
endfacet
facet normal 1.000000e+00 0.000000e+00 0.000000e+00
    outer loop
        vertex -1.000000e+00 3.811177e+01 -5.844889e+01
        vertex -1.000000e+00 3.888823e+01 -5.844889e+01
        vertex -1.000000e+00 3.925000e+01 -5.829904e+01
    endloop
endfacet
facet normal 0.000000e+00 9.914443e-01 1.305306e-01
    outer loop
        vertex -1.000000e+00 3.994889e+01 -5.661177e+01
        vertex -1.000000e+00 4.000000e+01 -5.700000e+01
        vertex -1.550000e+01 3.994889e+01 -5.661177e+01
    endloop
endfacet
facet normal 0.000000e+00 9.914443e-01 1.305306e-01
    outer loop
        vertex -1.550000e+01 3.994889e+01 -5.661177e+01
        vertex -1.000000e+00 4.000000e+01 -5.700000e+01
        vertex -1.550000e+01 4.000000e+01 -5.700000e+01
    endloop
endfacet
facet normal 0.000000e+00 9.238808e-01 3.826804e-01
    outer loop
        vertex -1.000000e+00 3.979904e+01 -5.625000e+01
        vertex -1.000000e+00 3.994889e+01 -5.661177e+01
        vertex -1.550000e+01 3.979904e+01 -5.625000e+01
    endloop
endfacet
facet normal 0.000000e+00 9.238808e-01 3.826804e-01
    outer loop
        vertex -1.550000e+01 3.979904e+01 -5.625000e+01
        vertex -1.000000e+00 3.994889e+01 -5.661177e+01
        vertex -1.550000e+01 3.994889e+01 -5.661177e+01
    endloop
endfacet
facet normal 0.000000e+00 7.933561e-01 6.087579e-01
    outer loop
        vertex -1.000000e+00 3.956066e+01 -5.593934e+01
        vertex -1.000000e+00 3.979904e+01 -5.625000e+01
        vertex -1.550000e+01 3.956066e+01 -5.593934e+01
    endloop
endfacet
facet normal 0.000000e+00 7.933561e-01 6.087579e-01
    outer loop
        vertex -1.550000e+01 3.956066e+01 -5.593934e+01
        vertex -1.000000e+00 3.979904e+01 -5.625000e+01
        vertex -1.550000e+01 3.979904e+01 -5.625000e+01
    endloop
endfacet
facet normal 0.000000e+00 6.087579e-01 7.933561e-01
    outer loop
        vertex -1.000000e+00 3.925000e+01 -5.570096e+01
        vertex -1.000000e+00 3.956066e+01 -5.593934e+01
        vertex -1.550000e+01 3.925000e+01 -5.570096e+01
    endloop
endfacet
facet normal 0.000000e+00 6.087579e-01 7.933561e-01
    outer loop
        vertex -1.550000e+01 3.925000e+01 -5.570096e+01
        vertex -1.000000e+00 3.956066e+01 -5.593934e+01
        vertex -1.550000e+01 3.956066e+01 -5.593934e+01
    endloop
endfacet
facet normal 0.000000e+00 3.826804e-01 9.238808e-01
    outer loop
        vertex -1.000000e+00 3.888823e+01 -5.555111e+01
        vertex -1.000000e+00 3.925000e+01 -5.570096e+01
        vertex -1.550000e+01 3.888823e+01 -5.555111e+01
    endloop
endfacet
facet normal 0.000000e+00 3.826804e-01 9.238808e-01
    outer loop
        vertex -1.550000e+01 3.888823e+01 -5.555111e+01
        vertex -1.000000e+00 3.925000e+01 -5.570096e+01
        vertex -1.550000e+01 3.925000e+01 -5.570096e+01
    endloop
endfacet
facet normal 0.000000e+00 1.305306e-01 9.914443e-01
    outer loop
        vertex -1.000000e+00 3.850000e+01 -5.550000e+01
        vertex -1.000000e+00 3.888823e+01 -5.555111e+01
        vertex -1.550000e+01 3.850000e+01 -5.550000e+01
    endloop
endfacet
facet normal 0.000000e+00 1.305306e-01 9.914443e-01
    outer loop
        vertex -1.550000e+01 3.850000e+01 -5.550000e+01
        vertex -1.000000e+00 3.888823e+01 -5.555111e+01
        vertex -1.550000e+01 3.888823e+01 -5.555111e+01
    endloop
endfacet
facet normal 0.000000e+00 -1.305306e-01 9.914443e-01
    outer loop
        vertex -1.000000e+00 3.811177e+01 -5.555111e+01
        vertex -1.000000e+00 3.850000e+01 -5.550000e+01
        vertex -1.550000e+01 3.811177e+01 -5.555111e+01
    endloop
endfacet
facet normal 0.000000e+00 -1.305306e-01 9.914443e-01
    outer loop
        vertex -1.550000e+01 3.811177e+01 -5.555111e+01
        vertex -1.000000e+00 3.850000e+01 -5.550000e+01
        vertex -1.550000e+01 3.850000e+01 -5.550000e+01
    endloop
endfacet
facet normal 0.000000e+00 -3.826804e-01 9.238808e-01
    outer loop
        vertex -1.000000e+00 3.775000e+01 -5.570096e+01
        vertex -1.000000e+00 3.811177e+01 -5.555111e+01
        vertex -1.550000e+01 3.775000e+01 -5.570096e+01
    endloop
endfacet
facet normal 0.000000e+00 -3.826804e-01 9.238808e-01
    outer loop
        vertex -1.550000e+01 3.775000e+01 -5.570096e+01
        vertex -1.000000e+00 3.811177e+01 -5.555111e+01
        vertex -1.550000e+01 3.811177e+01 -5.555111e+01
    endloop
endfacet
facet normal 0.000000e+00 -6.087579e-01 7.933561e-01
    outer loop
        vertex -1.000000e+00 3.743934e+01 -5.593934e+01
        vertex -1.000000e+00 3.775000e+01 -5.570096e+01
        vertex -1.550000e+01 3.743934e+01 -5.593934e+01
    endloop
endfacet
facet normal 0.000000e+00 -6.087579e-01 7.933561e-01
    outer loop
        vertex -1.550000e+01 3.743934e+01 -5.593934e+01
        vertex -1.000000e+00 3.775000e+01 -5.570096e+01
        vertex -1.550000e+01 3.775000e+01 -5.570096e+01
    endloop
endfacet
facet normal 0.000000e+00 -7.933561e-01 6.087579e-01
    outer loop
        vertex -1.000000e+00 3.720096e+01 -5.625000e+01
        vertex -1.000000e+00 3.743934e+01 -5.593934e+01
        vertex -1.550000e+01 3.720096e+01 -5.625000e+01
    endloop
endfacet
facet normal 0.000000e+00 -7.933561e-01 6.087579e-01
    outer loop
        vertex -1.550000e+01 3.720096e+01 -5.625000e+01
        vertex -1.000000e+00 3.743934e+01 -5.593934e+01
        vertex -1.550000e+01 3.743934e+01 -5.593934e+01
    endloop
endfacet
facet normal 0.000000e+00 -9.238808e-01 3.826804e-01
    outer loop
        vertex -1.000000e+00 3.705111e+01 -5.661177e+01
        vertex -1.000000e+00 3.720096e+01 -5.625000e+01
        vertex -1.550000e+01 3.705111e+01 -5.661177e+01
    endloop
endfacet
facet normal 0.000000e+00 -9.238808e-01 3.826804e-01
    outer loop
        vertex -1.550000e+01 3.705111e+01 -5.661177e+01
        vertex -1.000000e+00 3.720096e+01 -5.625000e+01
        vertex -1.550000e+01 3.720096e+01 -5.625000e+01
    endloop
endfacet
facet normal 0.000000e+00 -9.914443e-01 1.305306e-01
    outer loop
        vertex -1.000000e+00 3.700000e+01 -5.700000e+01
        vertex -1.000000e+00 3.705111e+01 -5.661177e+01
        vertex -1.550000e+01 3.700000e+01 -5.700000e+01
    endloop
endfacet
facet normal 0.000000e+00 -9.914443e-01 1.305306e-01
    outer loop
        vertex -1.550000e+01 3.700000e+01 -5.700000e+01
        vertex -1.000000e+00 3.705111e+01 -5.661177e+01
        vertex -1.550000e+01 3.705111e+01 -5.661177e+01
    endloop
endfacet
facet normal 0.000000e+00 -9.914443e-01 -1.305306e-01
    outer loop
        vertex -1.000000e+00 3.700000e+01 -5.700000e+01
        vertex -1.550000e+01 3.705111e+01 -5.738823e+01
        vertex -1.000000e+00 3.705111e+01 -5.738823e+01
    endloop
endfacet
facet normal -0.000000e+00 -9.914443e-01 -1.305306e-01
    outer loop
        vertex -1.000000e+00 3.700000e+01 -5.700000e+01
        vertex -1.550000e+01 3.700000e+01 -5.700000e+01
        vertex -1.550000e+01 3.705111e+01 -5.738823e+01
    endloop
endfacet
facet normal 0.000000e+00 -9.238808e-01 -3.826804e-01
    outer loop
        vertex -1.000000e+00 3.705111e+01 -5.738823e+01
        vertex -1.550000e+01 3.720096e+01 -5.775000e+01
        vertex -1.000000e+00 3.720096e+01 -5.775000e+01
    endloop
endfacet
facet normal -0.000000e+00 -9.238808e-01 -3.826804e-01
    outer loop
        vertex -1.000000e+00 3.705111e+01 -5.738823e+01
        vertex -1.550000e+01 3.705111e+01 -5.738823e+01
        vertex -1.550000e+01 3.720096e+01 -5.775000e+01
    endloop
endfacet
facet normal 0.000000e+00 -7.933561e-01 -6.087579e-01
    outer loop
        vertex -1.000000e+00 3.720096e+01 -5.775000e+01
        vertex -1.550000e+01 3.743934e+01 -5.806066e+01
        vertex -1.000000e+00 3.743934e+01 -5.806066e+01
    endloop
endfacet
facet normal -0.000000e+00 -7.933561e-01 -6.087579e-01
    outer loop
        vertex -1.000000e+00 3.720096e+01 -5.775000e+01
        vertex -1.550000e+01 3.720096e+01 -5.775000e+01
        vertex -1.550000e+01 3.743934e+01 -5.806066e+01
    endloop
endfacet
facet normal 0.000000e+00 -6.087579e-01 -7.933561e-01
    outer loop
        vertex -1.000000e+00 3.743934e+01 -5.806066e+01
        vertex -1.550000e+01 3.775000e+01 -5.829904e+01
        vertex -1.000000e+00 3.775000e+01 -5.829904e+01
    endloop
endfacet
facet normal -0.000000e+00 -6.087579e-01 -7.933561e-01
    outer loop
        vertex -1.000000e+00 3.743934e+01 -5.806066e+01
        vertex -1.550000e+01 3.743934e+01 -5.806066e+01
        vertex -1.550000e+01 3.775000e+01 -5.829904e+01
    endloop
endfacet
facet normal 0.000000e+00 -3.826804e-01 -9.238808e-01
    outer loop
        vertex -1.000000e+00 3.775000e+01 -5.829904e+01
        vertex -1.550000e+01 3.811177e+01 -5.844889e+01
        vertex -1.000000e+00 3.811177e+01 -5.844889e+01
    endloop
endfacet
facet normal -0.000000e+00 -3.826804e-01 -9.238808e-01
    outer loop
        vertex -1.000000e+00 3.775000e+01 -5.829904e+01
        vertex -1.550000e+01 3.775000e+01 -5.829904e+01
        vertex -1.550000e+01 3.811177e+01 -5.844889e+01
    endloop
endfacet
facet normal 0.000000e+00 -1.305306e-01 -9.914443e-01
    outer loop
        vertex -1.000000e+00 3.811177e+01 -5.844889e+01
        vertex -1.550000e+01 3.850000e+01 -5.850000e+01
        vertex -1.000000e+00 3.850000e+01 -5.850000e+01
    endloop
endfacet
facet normal -0.000000e+00 -1.305306e-01 -9.914443e-01
    outer loop
        vertex -1.000000e+00 3.811177e+01 -5.844889e+01
        vertex -1.550000e+01 3.811177e+01 -5.844889e+01
        vertex -1.550000e+01 3.850000e+01 -5.850000e+01
    endloop
endfacet
facet normal 0.000000e+00 1.305306e-01 -9.914443e-01
    outer loop
        vertex -1.000000e+00 3.850000e+01 -5.850000e+01
        vertex -1.550000e+01 3.888823e+01 -5.844889e+01
        vertex -1.000000e+00 3.888823e+01 -5.844889e+01
    endloop
endfacet
facet normal 0.000000e+00 1.305306e-01 -9.914443e-01
    outer loop
        vertex -1.000000e+00 3.850000e+01 -5.850000e+01
        vertex -1.550000e+01 3.850000e+01 -5.850000e+01
        vertex -1.550000e+01 3.888823e+01 -5.844889e+01
    endloop
endfacet
facet normal 0.000000e+00 3.826804e-01 -9.238808e-01
    outer loop
        vertex -1.000000e+00 3.888823e+01 -5.844889e+01
        vertex -1.550000e+01 3.925000e+01 -5.829904e+01
        vertex -1.000000e+00 3.925000e+01 -5.829904e+01
    endloop
endfacet
facet normal 0.000000e+00 3.826804e-01 -9.238808e-01
    outer loop
        vertex -1.000000e+00 3.888823e+01 -5.844889e+01
        vertex -1.550000e+01 3.888823e+01 -5.844889e+01
        vertex -1.550000e+01 3.925000e+01 -5.829904e+01
    endloop
endfacet
facet normal 0.000000e+00 6.087579e-01 -7.933561e-01
    outer loop
        vertex -1.000000e+00 3.925000e+01 -5.829904e+01
        vertex -1.550000e+01 3.956066e+01 -5.806066e+01
        vertex -1.000000e+00 3.956066e+01 -5.806066e+01
    endloop
endfacet
facet normal 0.000000e+00 6.087579e-01 -7.933561e-01
    outer loop
        vertex -1.000000e+00 3.925000e+01 -5.829904e+01
        vertex -1.550000e+01 3.925000e+01 -5.829904e+01
        vertex -1.550000e+01 3.956066e+01 -5.806066e+01
    endloop
endfacet
facet normal 0.000000e+00 7.933561e-01 -6.087579e-01
    outer loop
        vertex -1.000000e+00 3.956066e+01 -5.806066e+01
        vertex -1.550000e+01 3.979904e+01 -5.775000e+01
        vertex -1.000000e+00 3.979904e+01 -5.775000e+01
    endloop
endfacet
facet normal 0.000000e+00 7.933561e-01 -6.087579e-01
    outer loop
        vertex -1.000000e+00 3.956066e+01 -5.806066e+01
        vertex -1.550000e+01 3.956066e+01 -5.806066e+01
        vertex -1.550000e+01 3.979904e+01 -5.775000e+01
    endloop
endfacet
facet normal 0.000000e+00 9.238808e-01 -3.826804e-01
    outer loop
        vertex -1.000000e+00 3.979904e+01 -5.775000e+01
        vertex -1.550000e+01 3.994889e+01 -5.738823e+01
        vertex -1.000000e+00 3.994889e+01 -5.738823e+01
    endloop
endfacet
facet normal 0.000000e+00 9.238808e-01 -3.826804e-01
    outer loop
        vertex -1.000000e+00 3.979904e+01 -5.775000e+01
        vertex -1.550000e+01 3.979904e+01 -5.775000e+01
        vertex -1.550000e+01 3.994889e+01 -5.738823e+01
    endloop
endfacet
facet normal 0.000000e+00 9.914443e-01 -1.305306e-01
    outer loop
        vertex -1.000000e+00 3.994889e+01 -5.738823e+01
        vertex -1.550000e+01 4.000000e+01 -5.700000e+01
        vertex -1.000000e+00 4.000000e+01 -5.700000e+01
    endloop
endfacet
facet normal 0.000000e+00 9.914443e-01 -1.305306e-01
    outer loop
        vertex -1.000000e+00 3.994889e+01 -5.738823e+01
        vertex -1.550000e+01 3.994889e+01 -5.738823e+01
        vertex -1.550000e+01 4.000000e+01 -5.700000e+01
    endloop
endfacet
facet normal -1.000000e+00 0.000000e+00 0.000000e+00
    outer loop
        vertex -2.100000e+01 3.300000e+01 -2.550000e+01
        vertex -2.100000e+01 5.720000e+01 -2.550000e+01
        vertex -2.100000e+01 5.720000e+01 -4.400000e+01
    endloop
endfacet
facet normal -1.000000e+00 0.000000e+00 0.000000e+00
    outer loop
        vertex -2.100000e+01 3.300000e+01 -6.000000e+01
        vertex -2.100000e+01 4.400000e+01 -4.400000e+01
        vertex -2.100000e+01 4.400000e+01 -6.000000e+01
    endloop
endfacet
facet normal -1.000000e+00 0.000000e+00 0.000000e+00
    outer loop
        vertex -2.100000e+01 3.300000e+01 -2.550000e+01
        vertex -2.100000e+01 5.720000e+01 -4.400000e+01
        vertex -2.100000e+01 4.400000e+01 -4.400000e+01
    endloop
endfacet
facet normal -1.000000e+00 0.000000e+00 0.000000e+00
    outer loop
        vertex -2.100000e+01 3.300000e+01 -2.550000e+01
        vertex -2.100000e+01 4.400000e+01 -4.400000e+01
        vertex -2.100000e+01 3.925000e+01 -4.370096e+01
    endloop
endfacet
facet normal -1.000000e+00 0.000000e+00 0.000000e+00
    outer loop
        vertex -2.100000e+01 3.925000e+01 -4.370096e+01
        vertex -2.100000e+01 4.400000e+01 -4.400000e+01
        vertex -2.100000e+01 3.956066e+01 -4.393934e+01
    endloop
endfacet
facet normal -1.000000e+00 0.000000e+00 0.000000e+00
    outer loop
        vertex -2.100000e+01 3.956066e+01 -4.393934e+01
        vertex -2.100000e+01 4.400000e+01 -4.400000e+01
        vertex -2.100000e+01 3.979904e+01 -4.425000e+01
    endloop
endfacet
facet normal -1.000000e+00 0.000000e+00 0.000000e+00
    outer loop
        vertex -2.100000e+01 3.979904e+01 -4.425000e+01
        vertex -2.100000e+01 4.400000e+01 -4.400000e+01
        vertex -2.100000e+01 3.994889e+01 -4.461177e+01
    endloop
endfacet
facet normal -1.000000e+00 0.000000e+00 0.000000e+00
    outer loop
        vertex -2.100000e+01 3.994889e+01 -4.461177e+01
        vertex -2.100000e+01 4.400000e+01 -4.400000e+01
        vertex -2.100000e+01 4.000000e+01 -4.500000e+01
    endloop
endfacet
facet normal -1.000000e+00 0.000000e+00 0.000000e+00
    outer loop
        vertex -2.100000e+01 3.994889e+01 -4.538823e+01
        vertex -2.100000e+01 4.000000e+01 -4.500000e+01
        vertex -2.100000e+01 4.400000e+01 -4.400000e+01
    endloop
endfacet
facet normal -1.000000e+00 0.000000e+00 0.000000e+00
    outer loop
        vertex -2.100000e+01 3.979904e+01 -4.575000e+01
        vertex -2.100000e+01 3.994889e+01 -4.538823e+01
        vertex -2.100000e+01 4.400000e+01 -4.400000e+01
    endloop
endfacet
facet normal -1.000000e+00 0.000000e+00 0.000000e+00
    outer loop
        vertex -2.100000e+01 3.300000e+01 -6.000000e+01
        vertex -2.100000e+01 3.979904e+01 -4.575000e+01
        vertex -2.100000e+01 4.400000e+01 -4.400000e+01
    endloop
endfacet
facet normal -1.000000e+00 0.000000e+00 0.000000e+00
    outer loop
        vertex -2.100000e+01 3.300000e+01 -2.550000e+01
        vertex -2.100000e+01 3.925000e+01 -4.370096e+01
        vertex -2.100000e+01 3.888823e+01 -4.355111e+01
    endloop
endfacet
facet normal -1.000000e+00 0.000000e+00 0.000000e+00
    outer loop
        vertex -2.100000e+01 3.300000e+01 -2.550000e+01
        vertex -2.100000e+01 3.888823e+01 -4.355111e+01
        vertex -2.100000e+01 3.850000e+01 -4.350000e+01
    endloop
endfacet
facet normal -1.000000e+00 0.000000e+00 0.000000e+00
    outer loop
        vertex -2.100000e+01 3.300000e+01 -2.550000e+01
        vertex -2.100000e+01 3.850000e+01 -4.350000e+01
        vertex -2.100000e+01 3.811177e+01 -4.355111e+01
    endloop
endfacet
facet normal -1.000000e+00 0.000000e+00 0.000000e+00
    outer loop
        vertex -2.100000e+01 3.300000e+01 -2.550000e+01
        vertex -2.100000e+01 3.811177e+01 -4.355111e+01
        vertex -2.100000e+01 3.775000e+01 -4.370096e+01
    endloop
endfacet
facet normal -1.000000e+00 0.000000e+00 0.000000e+00
    outer loop
        vertex -2.100000e+01 3.300000e+01 -2.550000e+01
        vertex -2.100000e+01 3.775000e+01 -4.370096e+01
        vertex -2.100000e+01 3.743934e+01 -4.393934e+01
    endloop
endfacet
facet normal -1.000000e+00 0.000000e+00 0.000000e+00
    outer loop
        vertex -2.100000e+01 3.300000e+01 -2.550000e+01
        vertex -2.100000e+01 3.743934e+01 -4.393934e+01
        vertex -2.100000e+01 3.720096e+01 -4.425000e+01
    endloop
endfacet
facet normal -1.000000e+00 0.000000e+00 0.000000e+00
    outer loop
        vertex -2.100000e+01 3.300000e+01 -2.550000e+01
        vertex -2.100000e+01 3.720096e+01 -4.425000e+01
        vertex -2.100000e+01 3.705111e+01 -4.461177e+01
    endloop
endfacet
facet normal -1.000000e+00 0.000000e+00 0.000000e+00
    outer loop
        vertex -2.100000e+01 3.300000e+01 -6.000000e+01
        vertex -2.100000e+01 3.300000e+01 -2.550000e+01
        vertex -2.100000e+01 3.705111e+01 -4.461177e+01
    endloop
endfacet
facet normal -1.000000e+00 0.000000e+00 0.000000e+00
    outer loop
        vertex -2.100000e+01 3.300000e+01 -6.000000e+01
        vertex -2.100000e+01 3.956066e+01 -4.606066e+01
        vertex -2.100000e+01 3.979904e+01 -4.575000e+01
    endloop
endfacet
facet normal -1.000000e+00 0.000000e+00 0.000000e+00
    outer loop
        vertex -2.100000e+01 3.300000e+01 -6.000000e+01
        vertex -2.100000e+01 3.925000e+01 -4.629904e+01
        vertex -2.100000e+01 3.956066e+01 -4.606066e+01
    endloop
endfacet
facet normal -1.000000e+00 0.000000e+00 0.000000e+00
    outer loop
        vertex -2.100000e+01 3.300000e+01 -6.000000e+01
        vertex -2.100000e+01 3.888823e+01 -4.644889e+01
        vertex -2.100000e+01 3.925000e+01 -4.629904e+01
    endloop
endfacet
facet normal -1.000000e+00 0.000000e+00 0.000000e+00
    outer loop
        vertex -2.100000e+01 3.300000e+01 -6.000000e+01
        vertex -2.100000e+01 3.850000e+01 -4.650000e+01
        vertex -2.100000e+01 3.888823e+01 -4.644889e+01
    endloop
endfacet
facet normal -1.000000e+00 0.000000e+00 0.000000e+00
    outer loop
        vertex -2.100000e+01 3.300000e+01 -6.000000e+01
        vertex -2.100000e+01 3.811177e+01 -4.644889e+01
        vertex -2.100000e+01 3.850000e+01 -4.650000e+01
    endloop
endfacet
facet normal -1.000000e+00 0.000000e+00 0.000000e+00
    outer loop
        vertex -2.100000e+01 3.300000e+01 -6.000000e+01
        vertex -2.100000e+01 3.775000e+01 -4.629904e+01
        vertex -2.100000e+01 3.811177e+01 -4.644889e+01
    endloop
endfacet
facet normal -1.000000e+00 0.000000e+00 0.000000e+00
    outer loop
        vertex -2.100000e+01 3.300000e+01 -6.000000e+01
        vertex -2.100000e+01 3.743934e+01 -4.606066e+01
        vertex -2.100000e+01 3.775000e+01 -4.629904e+01
    endloop
endfacet
facet normal -1.000000e+00 0.000000e+00 0.000000e+00
    outer loop
        vertex -2.100000e+01 3.300000e+01 -6.000000e+01
        vertex -2.100000e+01 3.720096e+01 -4.575000e+01
        vertex -2.100000e+01 3.743934e+01 -4.606066e+01
    endloop
endfacet
facet normal -1.000000e+00 0.000000e+00 0.000000e+00
    outer loop
        vertex -2.100000e+01 3.300000e+01 -6.000000e+01
        vertex -2.100000e+01 3.705111e+01 -4.538823e+01
        vertex -2.100000e+01 3.720096e+01 -4.575000e+01
    endloop
endfacet
facet normal -1.000000e+00 0.000000e+00 0.000000e+00
    outer loop
        vertex -2.100000e+01 3.300000e+01 -6.000000e+01
        vertex -2.100000e+01 3.705111e+01 -4.461177e+01
        vertex -2.100000e+01 3.700000e+01 -4.500000e+01
    endloop
endfacet
facet normal -1.000000e+00 0.000000e+00 0.000000e+00
    outer loop
        vertex -2.100000e+01 3.300000e+01 -6.000000e+01
        vertex -2.100000e+01 3.700000e+01 -4.500000e+01
        vertex -2.100000e+01 3.705111e+01 -4.538823e+01
    endloop
endfacet
facet normal 1.000000e+00 -0.000000e+00 0.000000e+00
    outer loop
        vertex -1.550000e+01 3.300000e+01 -2.550000e+01
        vertex -1.550000e+01 5.720000e+01 -4.400000e+01
        vertex -1.550000e+01 5.720000e+01 -2.550000e+01
    endloop
endfacet
facet normal 1.000000e+00 0.000000e+00 0.000000e+00
    outer loop
        vertex -1.550000e+01 3.300000e+01 -2.550000e+01
        vertex -1.550000e+01 4.400000e+01 -4.400000e+01
        vertex -1.550000e+01 5.720000e+01 -4.400000e+01
    endloop
endfacet
facet normal 1.000000e+00 -0.000000e+00 0.000000e+00
    outer loop
        vertex -1.550000e+01 4.072163e+01 -4.437883e+01
        vertex -1.550000e+01 4.400000e+01 -6.000000e+01
        vertex -1.550000e+01 4.400000e+01 -4.400000e+01
    endloop
endfacet
facet normal 1.000000e+00 0.000000e+00 0.000000e+00
    outer loop
        vertex -1.550000e+01 4.049186e+01 -4.380000e+01
        vertex -1.550000e+01 4.072163e+01 -4.437883e+01
        vertex -1.550000e+01 4.400000e+01 -4.400000e+01
    endloop
endfacet
facet normal 1.000000e+00 0.000000e+00 0.000000e+00
    outer loop
        vertex -1.550000e+01 3.300000e+01 -2.550000e+01
        vertex -1.550000e+01 4.049186e+01 -4.380000e+01
        vertex -1.550000e+01 4.400000e+01 -4.400000e+01
    endloop
endfacet
facet normal 1.000000e+00 -0.000000e+00 0.000000e+00
    outer loop
        vertex -1.550000e+01 3.979904e+01 -5.775000e+01
        vertex -1.550000e+01 4.400000e+01 -6.000000e+01
        vertex -1.550000e+01 3.994889e+01 -5.738823e+01
    endloop
endfacet
facet normal 1.000000e+00 -0.000000e+00 0.000000e+00
    outer loop
        vertex -1.550000e+01 3.956066e+01 -5.806066e+01
        vertex -1.550000e+01 4.400000e+01 -6.000000e+01
        vertex -1.550000e+01 3.979904e+01 -5.775000e+01
    endloop
endfacet
facet normal 1.000000e+00 -0.000000e+00 0.000000e+00
    outer loop
        vertex -1.550000e+01 3.994889e+01 -5.738823e+01
        vertex -1.550000e+01 4.400000e+01 -6.000000e+01
        vertex -1.550000e+01 4.000000e+01 -5.700000e+01
    endloop
endfacet
facet normal 1.000000e+00 -0.000000e+00 0.000000e+00
    outer loop
        vertex -1.550000e+01 3.925000e+01 -5.829904e+01
        vertex -1.550000e+01 4.400000e+01 -6.000000e+01
        vertex -1.550000e+01 3.956066e+01 -5.806066e+01
    endloop
endfacet
facet normal 1.000000e+00 0.000000e+00 0.000000e+00
    outer loop
        vertex -1.550000e+01 3.994889e+01 -5.661177e+01
        vertex -1.550000e+01 4.000000e+01 -5.700000e+01
        vertex -1.550000e+01 4.400000e+01 -6.000000e+01
    endloop
endfacet
facet normal 1.000000e+00 -0.000000e+00 0.000000e+00
    outer loop
        vertex -1.550000e+01 3.888823e+01 -5.844889e+01
        vertex -1.550000e+01 4.400000e+01 -6.000000e+01
        vertex -1.550000e+01 3.925000e+01 -5.829904e+01
    endloop
endfacet
facet normal 1.000000e+00 0.000000e+00 0.000000e+00
    outer loop
        vertex -1.550000e+01 3.300000e+01 -6.000000e+01
        vertex -1.550000e+01 4.400000e+01 -6.000000e+01
        vertex -1.550000e+01 3.888823e+01 -5.844889e+01
    endloop
endfacet
facet normal 1.000000e+00 0.000000e+00 0.000000e+00
    outer loop
        vertex -1.550000e+01 3.979904e+01 -5.625000e+01
        vertex -1.550000e+01 3.994889e+01 -5.661177e+01
        vertex -1.550000e+01 4.400000e+01 -6.000000e+01
    endloop
endfacet
facet normal 1.000000e+00 0.000000e+00 0.000000e+00
    outer loop
        vertex -1.550000e+01 3.956066e+01 -5.593934e+01
        vertex -1.550000e+01 3.979904e+01 -5.625000e+01
        vertex -1.550000e+01 4.400000e+01 -6.000000e+01
    endloop
endfacet
facet normal 1.000000e+00 0.000000e+00 0.000000e+00
    outer loop
        vertex -1.550000e+01 3.300000e+01 -6.000000e+01
        vertex -1.550000e+01 3.888823e+01 -5.844889e+01
        vertex -1.550000e+01 3.850000e+01 -5.850000e+01
    endloop
endfacet
facet normal 1.000000e+00 0.000000e+00 0.000000e+00
    outer loop
        vertex -1.550000e+01 3.300000e+01 -6.000000e+01
        vertex -1.550000e+01 3.850000e+01 -5.850000e+01
        vertex -1.550000e+01 3.811177e+01 -5.844889e+01
    endloop
endfacet
facet normal 1.000000e+00 0.000000e+00 0.000000e+00
    outer loop
        vertex -1.550000e+01 3.300000e+01 -6.000000e+01
        vertex -1.550000e+01 3.811177e+01 -5.844889e+01
        vertex -1.550000e+01 3.775000e+01 -5.829904e+01
    endloop
endfacet
facet normal 1.000000e+00 0.000000e+00 0.000000e+00
    outer loop
        vertex -1.550000e+01 3.300000e+01 -6.000000e+01
        vertex -1.550000e+01 3.775000e+01 -5.829904e+01
        vertex -1.550000e+01 3.743934e+01 -5.806066e+01
    endloop
endfacet
facet normal 1.000000e+00 0.000000e+00 0.000000e+00
    outer loop
        vertex -1.550000e+01 3.300000e+01 -6.000000e+01
        vertex -1.550000e+01 3.743934e+01 -5.806066e+01
        vertex -1.550000e+01 3.720096e+01 -5.775000e+01
    endloop
endfacet
facet normal 1.000000e+00 0.000000e+00 0.000000e+00
    outer loop
        vertex -1.550000e+01 3.300000e+01 -6.000000e+01
        vertex -1.550000e+01 3.720096e+01 -5.775000e+01
        vertex -1.550000e+01 3.705111e+01 -5.738823e+01
    endloop
endfacet
facet normal 1.000000e+00 0.000000e+00 0.000000e+00
    outer loop
        vertex -1.550000e+01 3.300000e+01 -6.000000e+01
        vertex -1.550000e+01 3.705111e+01 -5.738823e+01
        vertex -1.550000e+01 3.700000e+01 -5.700000e+01
    endloop
endfacet
facet normal 1.000000e+00 0.000000e+00 0.000000e+00
    outer loop
        vertex -1.550000e+01 3.300000e+01 -6.000000e+01
        vertex -1.550000e+01 3.700000e+01 -5.700000e+01
        vertex -1.550000e+01 3.300000e+01 -2.550000e+01
    endloop
endfacet
facet normal 1.000000e+00 0.000000e+00 0.000000e+00
    outer loop
        vertex -1.550000e+01 3.300000e+01 -2.550000e+01
        vertex -1.550000e+01 4.012635e+01 -4.330294e+01
        vertex -1.550000e+01 4.049186e+01 -4.380000e+01
    endloop
endfacet
facet normal 1.000000e+00 0.000000e+00 0.000000e+00
    outer loop
        vertex -1.550000e+01 3.300000e+01 -2.550000e+01
        vertex -1.550000e+01 3.965000e+01 -4.292154e+01
        vertex -1.550000e+01 4.012635e+01 -4.330294e+01
    endloop
endfacet
facet normal 1.000000e+00 0.000000e+00 0.000000e+00
    outer loop
        vertex -1.550000e+01 3.300000e+01 -2.550000e+01
        vertex -1.550000e+01 3.909528e+01 -4.268178e+01
        vertex -1.550000e+01 3.965000e+01 -4.292154e+01
    endloop
endfacet
facet normal 1.000000e+00 0.000000e+00 0.000000e+00
    outer loop
        vertex -1.550000e+01 3.300000e+01 -2.550000e+01
        vertex -1.550000e+01 3.850000e+01 -4.260000e+01
        vertex -1.550000e+01 3.909528e+01 -4.268178e+01
    endloop
endfacet
facet normal 1.000000e+00 0.000000e+00 0.000000e+00
    outer loop
        vertex -1.550000e+01 3.300000e+01 -2.550000e+01
        vertex -1.550000e+01 3.790472e+01 -4.268178e+01
        vertex -1.550000e+01 3.850000e+01 -4.260000e+01
    endloop
endfacet
facet normal 1.000000e+00 0.000000e+00 0.000000e+00
    outer loop
        vertex -1.550000e+01 3.300000e+01 -2.550000e+01
        vertex -1.550000e+01 3.735000e+01 -4.292154e+01
        vertex -1.550000e+01 3.790472e+01 -4.268178e+01
    endloop
endfacet
facet normal 1.000000e+00 0.000000e+00 0.000000e+00
    outer loop
        vertex -1.550000e+01 3.300000e+01 -2.550000e+01
        vertex -1.550000e+01 3.687365e+01 -4.330294e+01
        vertex -1.550000e+01 3.735000e+01 -4.292154e+01
    endloop
endfacet
facet normal 1.000000e+00 0.000000e+00 0.000000e+00
    outer loop
        vertex -1.550000e+01 3.300000e+01 -2.550000e+01
        vertex -1.550000e+01 3.650814e+01 -4.380000e+01
        vertex -1.550000e+01 3.687365e+01 -4.330294e+01
    endloop
endfacet
facet normal 1.000000e+00 0.000000e+00 0.000000e+00
    outer loop
        vertex -1.550000e+01 3.300000e+01 -2.550000e+01
        vertex -1.550000e+01 3.627837e+01 -4.437883e+01
        vertex -1.550000e+01 3.650814e+01 -4.380000e+01
    endloop
endfacet
facet normal 1.000000e+00 0.000000e+00 0.000000e+00
    outer loop
        vertex -1.550000e+01 3.300000e+01 -2.550000e+01
        vertex -1.550000e+01 3.620000e+01 -4.500000e+01
        vertex -1.550000e+01 3.627837e+01 -4.437883e+01
    endloop
endfacet
facet normal 1.000000e+00 0.000000e+00 0.000000e+00
    outer loop
        vertex -1.550000e+01 3.300000e+01 -2.550000e+01
        vertex -1.550000e+01 3.700000e+01 -5.700000e+01
        vertex -1.550000e+01 3.620000e+01 -4.500000e+01
    endloop
endfacet
facet normal 1.000000e+00 0.000000e+00 0.000000e+00
    outer loop
        vertex -1.550000e+01 3.620000e+01 -4.500000e+01
        vertex -1.550000e+01 3.700000e+01 -5.700000e+01
        vertex -1.550000e+01 3.705111e+01 -5.661177e+01
    endloop
endfacet
facet normal 1.000000e+00 0.000000e+00 0.000000e+00
    outer loop
        vertex -1.550000e+01 3.620000e+01 -4.500000e+01
        vertex -1.550000e+01 3.705111e+01 -5.661177e+01
        vertex -1.550000e+01 3.720096e+01 -5.625000e+01
    endloop
endfacet
facet normal 1.000000e+00 0.000000e+00 0.000000e+00
    outer loop
        vertex -1.550000e+01 3.620000e+01 -4.500000e+01
        vertex -1.550000e+01 3.720096e+01 -5.625000e+01
        vertex -1.550000e+01 3.743934e+01 -5.593934e+01
    endloop
endfacet
facet normal 1.000000e+00 0.000000e+00 0.000000e+00
    outer loop
        vertex -1.550000e+01 4.072163e+01 -4.437883e+01
        vertex -1.550000e+01 4.080000e+01 -4.500000e+01
        vertex -1.550000e+01 4.400000e+01 -6.000000e+01
    endloop
endfacet
facet normal 1.000000e+00 -0.000000e+00 0.000000e+00
    outer loop
        vertex -1.550000e+01 3.956066e+01 -5.593934e+01
        vertex -1.550000e+01 4.400000e+01 -6.000000e+01
        vertex -1.550000e+01 4.080000e+01 -4.500000e+01
    endloop
endfacet
facet normal 1.000000e+00 0.000000e+00 0.000000e+00
    outer loop
        vertex -1.550000e+01 3.956066e+01 -5.593934e+01
        vertex -1.550000e+01 4.080000e+01 -4.500000e+01
        vertex -1.550000e+01 4.072163e+01 -4.562117e+01
    endloop
endfacet
facet normal 1.000000e+00 -0.000000e+00 0.000000e+00
    outer loop
        vertex -1.550000e+01 3.925000e+01 -5.570096e+01
        vertex -1.550000e+01 3.956066e+01 -5.593934e+01
        vertex -1.550000e+01 4.072163e+01 -4.562117e+01
    endloop
endfacet
facet normal 1.000000e+00 -0.000000e+00 0.000000e+00
    outer loop
        vertex -1.550000e+01 3.888823e+01 -5.555111e+01
        vertex -1.550000e+01 3.925000e+01 -5.570096e+01
        vertex -1.550000e+01 4.072163e+01 -4.562117e+01
    endloop
endfacet
facet normal 1.000000e+00 -0.000000e+00 0.000000e+00
    outer loop
        vertex -1.550000e+01 3.850000e+01 -5.550000e+01
        vertex -1.550000e+01 3.888823e+01 -5.555111e+01
        vertex -1.550000e+01 4.072163e+01 -4.562117e+01
    endloop
endfacet
facet normal 1.000000e+00 0.000000e+00 0.000000e+00
    outer loop
        vertex -1.550000e+01 3.811177e+01 -5.555111e+01
        vertex -1.550000e+01 3.850000e+01 -5.550000e+01
        vertex -1.550000e+01 4.072163e+01 -4.562117e+01
    endloop
endfacet
facet normal 1.000000e+00 0.000000e+00 0.000000e+00
    outer loop
        vertex -1.550000e+01 3.775000e+01 -5.570096e+01
        vertex -1.550000e+01 3.811177e+01 -5.555111e+01
        vertex -1.550000e+01 4.072163e+01 -4.562117e+01
    endloop
endfacet
facet normal 1.000000e+00 0.000000e+00 0.000000e+00
    outer loop
        vertex -1.550000e+01 3.743934e+01 -5.593934e+01
        vertex -1.550000e+01 3.775000e+01 -5.570096e+01
        vertex -1.550000e+01 4.072163e+01 -4.562117e+01
    endloop
endfacet
facet normal 1.000000e+00 0.000000e+00 0.000000e+00
    outer loop
        vertex -1.550000e+01 3.743934e+01 -5.593934e+01
        vertex -1.550000e+01 4.072163e+01 -4.562117e+01
        vertex -1.550000e+01 4.049186e+01 -4.620000e+01
    endloop
endfacet
facet normal 1.000000e+00 0.000000e+00 0.000000e+00
    outer loop
        vertex -1.550000e+01 3.743934e+01 -5.593934e+01
        vertex -1.550000e+01 4.049186e+01 -4.620000e+01
        vertex -1.550000e+01 4.012635e+01 -4.669706e+01
    endloop
endfacet
facet normal 1.000000e+00 0.000000e+00 0.000000e+00
    outer loop
        vertex -1.550000e+01 3.743934e+01 -5.593934e+01
        vertex -1.550000e+01 4.012635e+01 -4.669706e+01
        vertex -1.550000e+01 3.965000e+01 -4.707846e+01
    endloop
endfacet
facet normal 1.000000e+00 0.000000e+00 0.000000e+00
    outer loop
        vertex -1.550000e+01 3.743934e+01 -5.593934e+01
        vertex -1.550000e+01 3.965000e+01 -4.707846e+01
        vertex -1.550000e+01 3.909528e+01 -4.731822e+01
    endloop
endfacet
facet normal 1.000000e+00 0.000000e+00 0.000000e+00
    outer loop
        vertex -1.550000e+01 3.743934e+01 -5.593934e+01
        vertex -1.550000e+01 3.909528e+01 -4.731822e+01
        vertex -1.550000e+01 3.850000e+01 -4.740000e+01
    endloop
endfacet
facet normal 1.000000e+00 0.000000e+00 0.000000e+00
    outer loop
        vertex -1.550000e+01 3.743934e+01 -5.593934e+01
        vertex -1.550000e+01 3.850000e+01 -4.740000e+01
        vertex -1.550000e+01 3.790472e+01 -4.731822e+01
    endloop
endfacet
facet normal 1.000000e+00 0.000000e+00 0.000000e+00
    outer loop
        vertex -1.550000e+01 3.735000e+01 -4.707846e+01
        vertex -1.550000e+01 3.743934e+01 -5.593934e+01
        vertex -1.550000e+01 3.790472e+01 -4.731822e+01
    endloop
endfacet
facet normal 1.000000e+00 0.000000e+00 0.000000e+00
    outer loop
        vertex -1.550000e+01 3.687365e+01 -4.669706e+01
        vertex -1.550000e+01 3.743934e+01 -5.593934e+01
        vertex -1.550000e+01 3.735000e+01 -4.707846e+01
    endloop
endfacet
facet normal 1.000000e+00 0.000000e+00 0.000000e+00
    outer loop
        vertex -1.550000e+01 3.650814e+01 -4.620000e+01
        vertex -1.550000e+01 3.743934e+01 -5.593934e+01
        vertex -1.550000e+01 3.687365e+01 -4.669706e+01
    endloop
endfacet
facet normal 1.000000e+00 0.000000e+00 0.000000e+00
    outer loop
        vertex -1.550000e+01 3.627837e+01 -4.562117e+01
        vertex -1.550000e+01 3.743934e+01 -5.593934e+01
        vertex -1.550000e+01 3.650814e+01 -4.620000e+01
    endloop
endfacet
facet normal 1.000000e+00 0.000000e+00 0.000000e+00
    outer loop
        vertex -1.550000e+01 3.620000e+01 -4.500000e+01
        vertex -1.550000e+01 3.743934e+01 -5.593934e+01
        vertex -1.550000e+01 3.627837e+01 -4.562117e+01
    endloop
endfacet
facet normal -0.000000e+00 -9.914443e-01 -1.305306e-01
    outer loop
        vertex -1.860000e+01 3.994889e+01 -4.461177e+01
        vertex -2.100000e+01 3.994889e+01 -4.461177e+01
        vertex -2.100000e+01 4.000000e+01 -4.500000e+01
    endloop
endfacet
facet normal 0.000000e+00 -9.914443e-01 -1.305306e-01
    outer loop
        vertex -1.860000e+01 3.994889e+01 -4.461177e+01
        vertex -2.100000e+01 4.000000e+01 -4.500000e+01
        vertex -1.860000e+01 4.000000e+01 -4.500000e+01
    endloop
endfacet
facet normal -0.000000e+00 -9.238808e-01 -3.826804e-01
    outer loop
        vertex -1.860000e+01 3.979904e+01 -4.425000e+01
        vertex -2.100000e+01 3.979904e+01 -4.425000e+01
        vertex -2.100000e+01 3.994889e+01 -4.461177e+01
    endloop
endfacet
facet normal 0.000000e+00 -9.238808e-01 -3.826804e-01
    outer loop
        vertex -1.860000e+01 3.979904e+01 -4.425000e+01
        vertex -2.100000e+01 3.994889e+01 -4.461177e+01
        vertex -1.860000e+01 3.994889e+01 -4.461177e+01
    endloop
endfacet
facet normal -0.000000e+00 -7.933561e-01 -6.087579e-01
    outer loop
        vertex -1.860000e+01 3.956066e+01 -4.393934e+01
        vertex -2.100000e+01 3.956066e+01 -4.393934e+01
        vertex -2.100000e+01 3.979904e+01 -4.425000e+01
    endloop
endfacet
facet normal 0.000000e+00 -7.933561e-01 -6.087579e-01
    outer loop
        vertex -1.860000e+01 3.956066e+01 -4.393934e+01
        vertex -2.100000e+01 3.979904e+01 -4.425000e+01
        vertex -1.860000e+01 3.979904e+01 -4.425000e+01
    endloop
endfacet
facet normal -0.000000e+00 -6.087579e-01 -7.933561e-01
    outer loop
        vertex -1.860000e+01 3.925000e+01 -4.370096e+01
        vertex -2.100000e+01 3.925000e+01 -4.370096e+01
        vertex -2.100000e+01 3.956066e+01 -4.393934e+01
    endloop
endfacet
facet normal 0.000000e+00 -6.087579e-01 -7.933561e-01
    outer loop
        vertex -1.860000e+01 3.925000e+01 -4.370096e+01
        vertex -2.100000e+01 3.956066e+01 -4.393934e+01
        vertex -1.860000e+01 3.956066e+01 -4.393934e+01
    endloop
endfacet
facet normal -0.000000e+00 -3.826804e-01 -9.238808e-01
    outer loop
        vertex -1.860000e+01 3.888823e+01 -4.355111e+01
        vertex -2.100000e+01 3.888823e+01 -4.355111e+01
        vertex -2.100000e+01 3.925000e+01 -4.370096e+01
    endloop
endfacet
facet normal 0.000000e+00 -3.826804e-01 -9.238808e-01
    outer loop
        vertex -1.860000e+01 3.888823e+01 -4.355111e+01
        vertex -2.100000e+01 3.925000e+01 -4.370096e+01
        vertex -1.860000e+01 3.925000e+01 -4.370096e+01
    endloop
endfacet
facet normal -0.000000e+00 -1.305306e-01 -9.914443e-01
    outer loop
        vertex -1.860000e+01 3.850000e+01 -4.350000e+01
        vertex -2.100000e+01 3.850000e+01 -4.350000e+01
        vertex -2.100000e+01 3.888823e+01 -4.355111e+01
    endloop
endfacet
facet normal 0.000000e+00 -1.305306e-01 -9.914443e-01
    outer loop
        vertex -1.860000e+01 3.850000e+01 -4.350000e+01
        vertex -2.100000e+01 3.888823e+01 -4.355111e+01
        vertex -1.860000e+01 3.888823e+01 -4.355111e+01
    endloop
endfacet
facet normal 0.000000e+00 1.305306e-01 -9.914443e-01
    outer loop
        vertex -1.860000e+01 3.811177e+01 -4.355111e+01
        vertex -2.100000e+01 3.811177e+01 -4.355111e+01
        vertex -2.100000e+01 3.850000e+01 -4.350000e+01
    endloop
endfacet
facet normal 0.000000e+00 1.305306e-01 -9.914443e-01
    outer loop
        vertex -1.860000e+01 3.811177e+01 -4.355111e+01
        vertex -2.100000e+01 3.850000e+01 -4.350000e+01
        vertex -1.860000e+01 3.850000e+01 -4.350000e+01
    endloop
endfacet
facet normal 0.000000e+00 3.826804e-01 -9.238808e-01
    outer loop
        vertex -1.860000e+01 3.775000e+01 -4.370096e+01
        vertex -2.100000e+01 3.775000e+01 -4.370096e+01
        vertex -2.100000e+01 3.811177e+01 -4.355111e+01
    endloop
endfacet
facet normal 0.000000e+00 3.826804e-01 -9.238808e-01
    outer loop
        vertex -1.860000e+01 3.775000e+01 -4.370096e+01
        vertex -2.100000e+01 3.811177e+01 -4.355111e+01
        vertex -1.860000e+01 3.811177e+01 -4.355111e+01
    endloop
endfacet
facet normal 0.000000e+00 6.087579e-01 -7.933561e-01
    outer loop
        vertex -1.860000e+01 3.743934e+01 -4.393934e+01
        vertex -2.100000e+01 3.743934e+01 -4.393934e+01
        vertex -2.100000e+01 3.775000e+01 -4.370096e+01
    endloop
endfacet
facet normal 0.000000e+00 6.087579e-01 -7.933561e-01
    outer loop
        vertex -1.860000e+01 3.743934e+01 -4.393934e+01
        vertex -2.100000e+01 3.775000e+01 -4.370096e+01
        vertex -1.860000e+01 3.775000e+01 -4.370096e+01
    endloop
endfacet
facet normal 0.000000e+00 7.933561e-01 -6.087579e-01
    outer loop
        vertex -1.860000e+01 3.720096e+01 -4.425000e+01
        vertex -2.100000e+01 3.720096e+01 -4.425000e+01
        vertex -2.100000e+01 3.743934e+01 -4.393934e+01
    endloop
endfacet
facet normal 0.000000e+00 7.933561e-01 -6.087579e-01
    outer loop
        vertex -1.860000e+01 3.720096e+01 -4.425000e+01
        vertex -2.100000e+01 3.743934e+01 -4.393934e+01
        vertex -1.860000e+01 3.743934e+01 -4.393934e+01
    endloop
endfacet
facet normal 0.000000e+00 9.238808e-01 -3.826804e-01
    outer loop
        vertex -1.860000e+01 3.705111e+01 -4.461177e+01
        vertex -2.100000e+01 3.705111e+01 -4.461177e+01
        vertex -2.100000e+01 3.720096e+01 -4.425000e+01
    endloop
endfacet
facet normal 0.000000e+00 9.238808e-01 -3.826804e-01
    outer loop
        vertex -1.860000e+01 3.705111e+01 -4.461177e+01
        vertex -2.100000e+01 3.720096e+01 -4.425000e+01
        vertex -1.860000e+01 3.720096e+01 -4.425000e+01
    endloop
endfacet
facet normal 0.000000e+00 9.914443e-01 -1.305306e-01
    outer loop
        vertex -1.860000e+01 3.700000e+01 -4.500000e+01
        vertex -2.100000e+01 3.700000e+01 -4.500000e+01
        vertex -2.100000e+01 3.705111e+01 -4.461177e+01
    endloop
endfacet
facet normal 0.000000e+00 9.914443e-01 -1.305306e-01
    outer loop
        vertex -1.860000e+01 3.700000e+01 -4.500000e+01
        vertex -2.100000e+01 3.705111e+01 -4.461177e+01
        vertex -1.860000e+01 3.705111e+01 -4.461177e+01
    endloop
endfacet
facet normal 0.000000e+00 9.914443e-01 1.305306e-01
    outer loop
        vertex -2.100000e+01 3.700000e+01 -4.500000e+01
        vertex -1.860000e+01 3.705111e+01 -4.538823e+01
        vertex -2.100000e+01 3.705111e+01 -4.538823e+01
    endloop
endfacet
facet normal 0.000000e+00 9.914443e-01 1.305306e-01
    outer loop
        vertex -1.860000e+01 3.700000e+01 -4.500000e+01
        vertex -1.860000e+01 3.705111e+01 -4.538823e+01
        vertex -2.100000e+01 3.700000e+01 -4.500000e+01
    endloop
endfacet
facet normal 0.000000e+00 9.238808e-01 3.826804e-01
    outer loop
        vertex -2.100000e+01 3.705111e+01 -4.538823e+01
        vertex -1.860000e+01 3.720096e+01 -4.575000e+01
        vertex -2.100000e+01 3.720096e+01 -4.575000e+01
    endloop
endfacet
facet normal 0.000000e+00 9.238808e-01 3.826804e-01
    outer loop
        vertex -1.860000e+01 3.705111e+01 -4.538823e+01
        vertex -1.860000e+01 3.720096e+01 -4.575000e+01
        vertex -2.100000e+01 3.705111e+01 -4.538823e+01
    endloop
endfacet
facet normal 0.000000e+00 7.933561e-01 6.087579e-01
    outer loop
        vertex -2.100000e+01 3.720096e+01 -4.575000e+01
        vertex -1.860000e+01 3.743934e+01 -4.606066e+01
        vertex -2.100000e+01 3.743934e+01 -4.606066e+01
    endloop
endfacet
facet normal 0.000000e+00 7.933561e-01 6.087579e-01
    outer loop
        vertex -1.860000e+01 3.720096e+01 -4.575000e+01
        vertex -1.860000e+01 3.743934e+01 -4.606066e+01
        vertex -2.100000e+01 3.720096e+01 -4.575000e+01
    endloop
endfacet
facet normal 0.000000e+00 6.087579e-01 7.933561e-01
    outer loop
        vertex -2.100000e+01 3.743934e+01 -4.606066e+01
        vertex -1.860000e+01 3.775000e+01 -4.629904e+01
        vertex -2.100000e+01 3.775000e+01 -4.629904e+01
    endloop
endfacet
facet normal 0.000000e+00 6.087579e-01 7.933561e-01
    outer loop
        vertex -1.860000e+01 3.743934e+01 -4.606066e+01
        vertex -1.860000e+01 3.775000e+01 -4.629904e+01
        vertex -2.100000e+01 3.743934e+01 -4.606066e+01
    endloop
endfacet
facet normal 0.000000e+00 3.826804e-01 9.238808e-01
    outer loop
        vertex -2.100000e+01 3.775000e+01 -4.629904e+01
        vertex -1.860000e+01 3.811177e+01 -4.644889e+01
        vertex -2.100000e+01 3.811177e+01 -4.644889e+01
    endloop
endfacet
facet normal 0.000000e+00 3.826804e-01 9.238808e-01
    outer loop
        vertex -1.860000e+01 3.775000e+01 -4.629904e+01
        vertex -1.860000e+01 3.811177e+01 -4.644889e+01
        vertex -2.100000e+01 3.775000e+01 -4.629904e+01
    endloop
endfacet
facet normal 0.000000e+00 1.305306e-01 9.914443e-01
    outer loop
        vertex -2.100000e+01 3.811177e+01 -4.644889e+01
        vertex -1.860000e+01 3.850000e+01 -4.650000e+01
        vertex -2.100000e+01 3.850000e+01 -4.650000e+01
    endloop
endfacet
facet normal 0.000000e+00 1.305306e-01 9.914443e-01
    outer loop
        vertex -1.860000e+01 3.811177e+01 -4.644889e+01
        vertex -1.860000e+01 3.850000e+01 -4.650000e+01
        vertex -2.100000e+01 3.811177e+01 -4.644889e+01
    endloop
endfacet
facet normal 0.000000e+00 -1.305306e-01 9.914443e-01
    outer loop
        vertex -2.100000e+01 3.850000e+01 -4.650000e+01
        vertex -1.860000e+01 3.888823e+01 -4.644889e+01
        vertex -2.100000e+01 3.888823e+01 -4.644889e+01
    endloop
endfacet
facet normal 0.000000e+00 -1.305306e-01 9.914443e-01
    outer loop
        vertex -1.860000e+01 3.850000e+01 -4.650000e+01
        vertex -1.860000e+01 3.888823e+01 -4.644889e+01
        vertex -2.100000e+01 3.850000e+01 -4.650000e+01
    endloop
endfacet
facet normal 0.000000e+00 -3.826804e-01 9.238808e-01
    outer loop
        vertex -2.100000e+01 3.888823e+01 -4.644889e+01
        vertex -1.860000e+01 3.925000e+01 -4.629904e+01
        vertex -2.100000e+01 3.925000e+01 -4.629904e+01
    endloop
endfacet
facet normal 0.000000e+00 -3.826804e-01 9.238808e-01
    outer loop
        vertex -1.860000e+01 3.888823e+01 -4.644889e+01
        vertex -1.860000e+01 3.925000e+01 -4.629904e+01
        vertex -2.100000e+01 3.888823e+01 -4.644889e+01
    endloop
endfacet
facet normal 0.000000e+00 -6.087579e-01 7.933561e-01
    outer loop
        vertex -2.100000e+01 3.925000e+01 -4.629904e+01
        vertex -1.860000e+01 3.956066e+01 -4.606066e+01
        vertex -2.100000e+01 3.956066e+01 -4.606066e+01
    endloop
endfacet
facet normal 0.000000e+00 -6.087579e-01 7.933561e-01
    outer loop
        vertex -1.860000e+01 3.925000e+01 -4.629904e+01
        vertex -1.860000e+01 3.956066e+01 -4.606066e+01
        vertex -2.100000e+01 3.925000e+01 -4.629904e+01
    endloop
endfacet
facet normal 0.000000e+00 -7.933561e-01 6.087579e-01
    outer loop
        vertex -2.100000e+01 3.956066e+01 -4.606066e+01
        vertex -1.860000e+01 3.979904e+01 -4.575000e+01
        vertex -2.100000e+01 3.979904e+01 -4.575000e+01
    endloop
endfacet
facet normal 0.000000e+00 -7.933561e-01 6.087579e-01
    outer loop
        vertex -1.860000e+01 3.956066e+01 -4.606066e+01
        vertex -1.860000e+01 3.979904e+01 -4.575000e+01
        vertex -2.100000e+01 3.956066e+01 -4.606066e+01
    endloop
endfacet
facet normal 0.000000e+00 -9.238808e-01 3.826804e-01
    outer loop
        vertex -2.100000e+01 3.979904e+01 -4.575000e+01
        vertex -1.860000e+01 3.994889e+01 -4.538823e+01
        vertex -2.100000e+01 3.994889e+01 -4.538823e+01
    endloop
endfacet
facet normal 0.000000e+00 -9.238808e-01 3.826804e-01
    outer loop
        vertex -1.860000e+01 3.979904e+01 -4.575000e+01
        vertex -1.860000e+01 3.994889e+01 -4.538823e+01
        vertex -2.100000e+01 3.979904e+01 -4.575000e+01
    endloop
endfacet
facet normal 0.000000e+00 -9.914443e-01 1.305306e-01
    outer loop
        vertex -2.100000e+01 3.994889e+01 -4.538823e+01
        vertex -1.860000e+01 4.000000e+01 -4.500000e+01
        vertex -2.100000e+01 4.000000e+01 -4.500000e+01
    endloop
endfacet
facet normal 0.000000e+00 -9.914443e-01 1.305306e-01
    outer loop
        vertex -1.860000e+01 3.994889e+01 -4.538823e+01
        vertex -1.860000e+01 4.000000e+01 -4.500000e+01
        vertex -2.100000e+01 3.994889e+01 -4.538823e+01
    endloop
endfacet
facet normal 1.000000e+00 0.000000e+00 0.000000e+00
    outer loop
        vertex -1.860000e+01 3.620000e+01 -4.500000e+01
        vertex -1.860000e+01 3.700000e+01 -4.500000e+01
        vertex -1.860000e+01 3.627837e+01 -4.437883e+01
    endloop
endfacet
facet normal 1.000000e+00 -0.000000e+00 0.000000e+00
    outer loop
        vertex -1.860000e+01 3.620000e+01 -4.500000e+01
        vertex -1.860000e+01 3.627837e+01 -4.562117e+01
        vertex -1.860000e+01 3.700000e+01 -4.500000e+01
    endloop
endfacet
facet normal 1.000000e+00 -0.000000e+00 0.000000e+00
    outer loop
        vertex -1.860000e+01 3.627837e+01 -4.562117e+01
        vertex -1.860000e+01 3.650814e+01 -4.620000e+01
        vertex -1.860000e+01 3.700000e+01 -4.500000e+01
    endloop
endfacet
facet normal 1.000000e+00 -0.000000e+00 0.000000e+00
    outer loop
        vertex -1.860000e+01 3.627837e+01 -4.437883e+01
        vertex -1.860000e+01 3.700000e+01 -4.500000e+01
        vertex -1.860000e+01 3.650814e+01 -4.380000e+01
    endloop
endfacet
facet normal 1.000000e+00 -0.000000e+00 0.000000e+00
    outer loop
        vertex -1.860000e+01 3.650814e+01 -4.620000e+01
        vertex -1.860000e+01 3.687365e+01 -4.669706e+01
        vertex -1.860000e+01 3.700000e+01 -4.500000e+01
    endloop
endfacet
facet normal 1.000000e+00 -0.000000e+00 0.000000e+00
    outer loop
        vertex -1.860000e+01 3.650814e+01 -4.380000e+01
        vertex -1.860000e+01 3.700000e+01 -4.500000e+01
        vertex -1.860000e+01 3.687365e+01 -4.330294e+01
    endloop
endfacet
facet normal 1.000000e+00 -0.000000e+00 0.000000e+00
    outer loop
        vertex -1.860000e+01 3.790472e+01 -4.731822e+01
        vertex -1.860000e+01 3.850000e+01 -4.740000e+01
        vertex -1.860000e+01 3.909528e+01 -4.731822e+01
    endloop
endfacet
facet normal 1.000000e+00 0.000000e+00 0.000000e+00
    outer loop
        vertex -1.860000e+01 3.735000e+01 -4.707846e+01
        vertex -1.860000e+01 3.790472e+01 -4.731822e+01
        vertex -1.860000e+01 3.909528e+01 -4.731822e+01
    endloop
endfacet
facet normal 1.000000e+00 -0.000000e+00 0.000000e+00
    outer loop
        vertex -1.860000e+01 3.735000e+01 -4.707846e+01
        vertex -1.860000e+01 3.909528e+01 -4.731822e+01
        vertex -1.860000e+01 3.965000e+01 -4.707846e+01
    endloop
endfacet
facet normal 1.000000e+00 0.000000e+00 0.000000e+00
    outer loop
        vertex -1.860000e+01 3.687365e+01 -4.669706e+01
        vertex -1.860000e+01 3.735000e+01 -4.707846e+01
        vertex -1.860000e+01 3.965000e+01 -4.707846e+01
    endloop
endfacet
facet normal 1.000000e+00 -0.000000e+00 0.000000e+00
    outer loop
        vertex -1.860000e+01 3.687365e+01 -4.669706e+01
        vertex -1.860000e+01 3.965000e+01 -4.707846e+01
        vertex -1.860000e+01 4.012635e+01 -4.669706e+01
    endloop
endfacet
facet normal 1.000000e+00 0.000000e+00 0.000000e+00
    outer loop
        vertex -1.860000e+01 3.790472e+01 -4.268178e+01
        vertex -1.860000e+01 3.909528e+01 -4.268178e+01
        vertex -1.860000e+01 3.850000e+01 -4.260000e+01
    endloop
endfacet
facet normal 1.000000e+00 -0.000000e+00 0.000000e+00
    outer loop
        vertex -1.860000e+01 3.790472e+01 -4.268178e+01
        vertex -1.860000e+01 3.965000e+01 -4.292154e+01
        vertex -1.860000e+01 3.909528e+01 -4.268178e+01
    endloop
endfacet
facet normal 1.000000e+00 0.000000e+00 0.000000e+00
    outer loop
        vertex -1.860000e+01 3.735000e+01 -4.292154e+01
        vertex -1.860000e+01 3.965000e+01 -4.292154e+01
        vertex -1.860000e+01 3.790472e+01 -4.268178e+01
    endloop
endfacet
facet normal 1.000000e+00 -0.000000e+00 0.000000e+00
    outer loop
        vertex -1.860000e+01 3.735000e+01 -4.292154e+01
        vertex -1.860000e+01 4.012635e+01 -4.330294e+01
        vertex -1.860000e+01 3.965000e+01 -4.292154e+01
    endloop
endfacet
facet normal 1.000000e+00 0.000000e+00 0.000000e+00
    outer loop
        vertex -1.860000e+01 3.687365e+01 -4.330294e+01
        vertex -1.860000e+01 4.012635e+01 -4.330294e+01
        vertex -1.860000e+01 3.735000e+01 -4.292154e+01
    endloop
endfacet
facet normal 1.000000e+00 0.000000e+00 0.000000e+00
    outer loop
        vertex -1.860000e+01 4.012635e+01 -4.669706e+01
        vertex -1.860000e+01 4.049186e+01 -4.620000e+01
        vertex -1.860000e+01 4.072163e+01 -4.562117e+01
    endloop
endfacet
facet normal 1.000000e+00 0.000000e+00 0.000000e+00
    outer loop
        vertex -1.860000e+01 4.012635e+01 -4.669706e+01
        vertex -1.860000e+01 4.072163e+01 -4.562117e+01
        vertex -1.860000e+01 4.080000e+01 -4.500000e+01
    endloop
endfacet
facet normal 1.000000e+00 0.000000e+00 0.000000e+00
    outer loop
        vertex -1.860000e+01 4.012635e+01 -4.669706e+01
        vertex -1.860000e+01 4.080000e+01 -4.500000e+01
        vertex -1.860000e+01 4.072163e+01 -4.437883e+01
    endloop
endfacet
facet normal 1.000000e+00 0.000000e+00 0.000000e+00
    outer loop
        vertex -1.860000e+01 4.012635e+01 -4.669706e+01
        vertex -1.860000e+01 4.072163e+01 -4.437883e+01
        vertex -1.860000e+01 4.049186e+01 -4.380000e+01
    endloop
endfacet
facet normal 1.000000e+00 0.000000e+00 0.000000e+00
    outer loop
        vertex -1.860000e+01 4.012635e+01 -4.669706e+01
        vertex -1.860000e+01 4.049186e+01 -4.380000e+01
        vertex -1.860000e+01 4.012635e+01 -4.330294e+01
    endloop
endfacet
facet normal 1.000000e+00 0.000000e+00 0.000000e+00
    outer loop
        vertex -1.860000e+01 3.687365e+01 -4.330294e+01
        vertex -1.860000e+01 3.700000e+01 -4.500000e+01
        vertex -1.860000e+01 3.705111e+01 -4.461177e+01
    endloop
endfacet
facet normal 1.000000e+00 0.000000e+00 0.000000e+00
    outer loop
        vertex -1.860000e+01 3.687365e+01 -4.330294e+01
        vertex -1.860000e+01 3.705111e+01 -4.461177e+01
        vertex -1.860000e+01 3.720096e+01 -4.425000e+01
    endloop
endfacet
facet normal 1.000000e+00 0.000000e+00 0.000000e+00
    outer loop
        vertex -1.860000e+01 3.687365e+01 -4.330294e+01
        vertex -1.860000e+01 3.720096e+01 -4.425000e+01
        vertex -1.860000e+01 3.743934e+01 -4.393934e+01
    endloop
endfacet
facet normal 1.000000e+00 0.000000e+00 0.000000e+00
    outer loop
        vertex -1.860000e+01 3.687365e+01 -4.330294e+01
        vertex -1.860000e+01 3.743934e+01 -4.393934e+01
        vertex -1.860000e+01 3.775000e+01 -4.370096e+01
    endloop
endfacet
facet normal 1.000000e+00 0.000000e+00 0.000000e+00
    outer loop
        vertex -1.860000e+01 3.687365e+01 -4.330294e+01
        vertex -1.860000e+01 3.775000e+01 -4.370096e+01
        vertex -1.860000e+01 3.811177e+01 -4.355111e+01
    endloop
endfacet
facet normal 1.000000e+00 0.000000e+00 0.000000e+00
    outer loop
        vertex -1.860000e+01 3.687365e+01 -4.330294e+01
        vertex -1.860000e+01 3.811177e+01 -4.355111e+01
        vertex -1.860000e+01 3.850000e+01 -4.350000e+01
    endloop
endfacet
facet normal 1.000000e+00 -0.000000e+00 0.000000e+00
    outer loop
        vertex -1.860000e+01 3.687365e+01 -4.330294e+01
        vertex -1.860000e+01 3.850000e+01 -4.350000e+01
        vertex -1.860000e+01 4.012635e+01 -4.330294e+01
    endloop
endfacet
facet normal 1.000000e+00 -0.000000e+00 0.000000e+00
    outer loop
        vertex -1.860000e+01 3.850000e+01 -4.350000e+01
        vertex -1.860000e+01 3.888823e+01 -4.355111e+01
        vertex -1.860000e+01 4.012635e+01 -4.330294e+01
    endloop
endfacet
facet normal 1.000000e+00 -0.000000e+00 0.000000e+00
    outer loop
        vertex -1.860000e+01 3.888823e+01 -4.355111e+01
        vertex -1.860000e+01 3.925000e+01 -4.370096e+01
        vertex -1.860000e+01 4.012635e+01 -4.330294e+01
    endloop
endfacet
facet normal 1.000000e+00 -0.000000e+00 0.000000e+00
    outer loop
        vertex -1.860000e+01 3.925000e+01 -4.370096e+01
        vertex -1.860000e+01 3.956066e+01 -4.393934e+01
        vertex -1.860000e+01 4.012635e+01 -4.330294e+01
    endloop
endfacet
facet normal 1.000000e+00 -0.000000e+00 0.000000e+00
    outer loop
        vertex -1.860000e+01 3.956066e+01 -4.393934e+01
        vertex -1.860000e+01 3.979904e+01 -4.425000e+01
        vertex -1.860000e+01 4.012635e+01 -4.330294e+01
    endloop
endfacet
facet normal 1.000000e+00 -0.000000e+00 0.000000e+00
    outer loop
        vertex -1.860000e+01 3.979904e+01 -4.425000e+01
        vertex -1.860000e+01 3.994889e+01 -4.461177e+01
        vertex -1.860000e+01 4.012635e+01 -4.330294e+01
    endloop
endfacet
facet normal 1.000000e+00 -0.000000e+00 0.000000e+00
    outer loop
        vertex -1.860000e+01 3.994889e+01 -4.461177e+01
        vertex -1.860000e+01 4.000000e+01 -4.500000e+01
        vertex -1.860000e+01 4.012635e+01 -4.330294e+01
    endloop
endfacet
facet normal 1.000000e+00 0.000000e+00 0.000000e+00
    outer loop
        vertex -1.860000e+01 3.687365e+01 -4.669706e+01
        vertex -1.860000e+01 3.705111e+01 -4.538823e+01
        vertex -1.860000e+01 3.700000e+01 -4.500000e+01
    endloop
endfacet
facet normal 1.000000e+00 0.000000e+00 0.000000e+00
    outer loop
        vertex -1.860000e+01 3.687365e+01 -4.669706e+01
        vertex -1.860000e+01 3.720096e+01 -4.575000e+01
        vertex -1.860000e+01 3.705111e+01 -4.538823e+01
    endloop
endfacet
facet normal 1.000000e+00 0.000000e+00 0.000000e+00
    outer loop
        vertex -1.860000e+01 3.687365e+01 -4.669706e+01
        vertex -1.860000e+01 3.743934e+01 -4.606066e+01
        vertex -1.860000e+01 3.720096e+01 -4.575000e+01
    endloop
endfacet
facet normal 1.000000e+00 0.000000e+00 0.000000e+00
    outer loop
        vertex -1.860000e+01 3.687365e+01 -4.669706e+01
        vertex -1.860000e+01 3.775000e+01 -4.629904e+01
        vertex -1.860000e+01 3.743934e+01 -4.606066e+01
    endloop
endfacet
facet normal 1.000000e+00 0.000000e+00 0.000000e+00
    outer loop
        vertex -1.860000e+01 3.687365e+01 -4.669706e+01
        vertex -1.860000e+01 3.811177e+01 -4.644889e+01
        vertex -1.860000e+01 3.775000e+01 -4.629904e+01
    endloop
endfacet
facet normal 1.000000e+00 0.000000e+00 0.000000e+00
    outer loop
        vertex -1.860000e+01 3.687365e+01 -4.669706e+01
        vertex -1.860000e+01 3.850000e+01 -4.650000e+01
        vertex -1.860000e+01 3.811177e+01 -4.644889e+01
    endloop
endfacet
facet normal 1.000000e+00 0.000000e+00 0.000000e+00
    outer loop
        vertex -1.860000e+01 3.687365e+01 -4.669706e+01
        vertex -1.860000e+01 4.012635e+01 -4.669706e+01
        vertex -1.860000e+01 3.850000e+01 -4.650000e+01
    endloop
endfacet
facet normal 1.000000e+00 -0.000000e+00 0.000000e+00
    outer loop
        vertex -1.860000e+01 3.850000e+01 -4.650000e+01
        vertex -1.860000e+01 4.012635e+01 -4.669706e+01
        vertex -1.860000e+01 3.888823e+01 -4.644889e+01
    endloop
endfacet
facet normal 1.000000e+00 -0.000000e+00 0.000000e+00
    outer loop
        vertex -1.860000e+01 3.888823e+01 -4.644889e+01
        vertex -1.860000e+01 4.012635e+01 -4.669706e+01
        vertex -1.860000e+01 3.925000e+01 -4.629904e+01
    endloop
endfacet
facet normal 1.000000e+00 -0.000000e+00 0.000000e+00
    outer loop
        vertex -1.860000e+01 3.925000e+01 -4.629904e+01
        vertex -1.860000e+01 4.012635e+01 -4.669706e+01
        vertex -1.860000e+01 3.956066e+01 -4.606066e+01
    endloop
endfacet
facet normal 1.000000e+00 -0.000000e+00 0.000000e+00
    outer loop
        vertex -1.860000e+01 3.956066e+01 -4.606066e+01
        vertex -1.860000e+01 4.012635e+01 -4.669706e+01
        vertex -1.860000e+01 3.979904e+01 -4.575000e+01
    endloop
endfacet
facet normal 1.000000e+00 -0.000000e+00 0.000000e+00
    outer loop
        vertex -1.860000e+01 3.979904e+01 -4.575000e+01
        vertex -1.860000e+01 4.012635e+01 -4.669706e+01
        vertex -1.860000e+01 3.994889e+01 -4.538823e+01
    endloop
endfacet
facet normal 1.000000e+00 -0.000000e+00 0.000000e+00
    outer loop
        vertex -1.860000e+01 3.994889e+01 -4.538823e+01
        vertex -1.860000e+01 4.012635e+01 -4.669706e+01
        vertex -1.860000e+01 4.000000e+01 -4.500000e+01
    endloop
endfacet
facet normal 1.000000e+00 -0.000000e+00 0.000000e+00
    outer loop
        vertex -1.860000e+01 4.000000e+01 -4.500000e+01
        vertex -1.860000e+01 4.012635e+01 -4.669706e+01
        vertex -1.860000e+01 4.012635e+01 -4.330294e+01
    endloop
endfacet
facet normal -0.000000e+00 -9.921350e-01 -1.251722e-01
    outer loop
        vertex -1.550000e+01 4.072163e+01 -4.437883e+01
        vertex -1.860000e+01 4.072163e+01 -4.437883e+01
        vertex -1.860000e+01 4.080000e+01 -4.500000e+01
    endloop
endfacet
facet normal 0.000000e+00 -9.921350e-01 -1.251722e-01
    outer loop
        vertex -1.550000e+01 4.072163e+01 -4.437883e+01
        vertex -1.860000e+01 4.080000e+01 -4.500000e+01
        vertex -1.550000e+01 4.080000e+01 -4.500000e+01
    endloop
endfacet
facet normal -0.000000e+00 -9.294497e-01 -3.689488e-01
    outer loop
        vertex -1.550000e+01 4.049186e+01 -4.380000e+01
        vertex -1.860000e+01 4.049186e+01 -4.380000e+01
        vertex -1.860000e+01 4.072163e+01 -4.437883e+01
    endloop
endfacet
facet normal 0.000000e+00 -9.294497e-01 -3.689488e-01
    outer loop
        vertex -1.550000e+01 4.049186e+01 -4.380000e+01
        vertex -1.860000e+01 4.072163e+01 -4.437883e+01
        vertex -1.550000e+01 4.072163e+01 -4.437883e+01
    endloop
endfacet
facet normal -0.000000e+00 -8.056269e-01 -5.924233e-01
    outer loop
        vertex -1.550000e+01 4.012635e+01 -4.330294e+01
        vertex -1.860000e+01 4.012635e+01 -4.330294e+01
        vertex -1.860000e+01 4.049186e+01 -4.380000e+01
    endloop
endfacet
facet normal 0.000000e+00 -8.056269e-01 -5.924233e-01
    outer loop
        vertex -1.550000e+01 4.012635e+01 -4.330294e+01
        vertex -1.860000e+01 4.049186e+01 -4.380000e+01
        vertex -1.550000e+01 4.049186e+01 -4.380000e+01
    endloop
endfacet
facet normal -0.000000e+00 -6.250235e-01 -7.806059e-01
    outer loop
        vertex -1.550000e+01 3.965000e+01 -4.292154e+01
        vertex -1.860000e+01 3.965000e+01 -4.292154e+01
        vertex -1.860000e+01 4.012635e+01 -4.330294e+01
    endloop
endfacet
facet normal 0.000000e+00 -6.250235e-01 -7.806059e-01
    outer loop
        vertex -1.550000e+01 3.965000e+01 -4.292154e+01
        vertex -1.860000e+01 4.012635e+01 -4.330294e+01
        vertex -1.550000e+01 4.012635e+01 -4.330294e+01
    endloop
endfacet
facet normal -0.000000e+00 -3.967485e-01 -9.179274e-01
    outer loop
        vertex -1.550000e+01 3.909528e+01 -4.268178e+01
        vertex -1.860000e+01 3.909528e+01 -4.268178e+01
        vertex -1.860000e+01 3.965000e+01 -4.292154e+01
    endloop
endfacet
facet normal 0.000000e+00 -3.967485e-01 -9.179274e-01
    outer loop
        vertex -1.550000e+01 3.909528e+01 -4.268178e+01
        vertex -1.860000e+01 3.965000e+01 -4.292154e+01
        vertex -1.550000e+01 3.965000e+01 -4.292154e+01
    endloop
endfacet
facet normal -0.000000e+00 -1.361007e-01 -9.906950e-01
    outer loop
        vertex -1.550000e+01 3.850000e+01 -4.260000e+01
        vertex -1.860000e+01 3.850000e+01 -4.260000e+01
        vertex -1.860000e+01 3.909528e+01 -4.268178e+01
    endloop
endfacet
facet normal 0.000000e+00 -1.361007e-01 -9.906950e-01
    outer loop
        vertex -1.550000e+01 3.850000e+01 -4.260000e+01
        vertex -1.860000e+01 3.909528e+01 -4.268178e+01
        vertex -1.550000e+01 3.909528e+01 -4.268178e+01
    endloop
endfacet
facet normal 0.000000e+00 1.361007e-01 -9.906950e-01
    outer loop
        vertex -1.860000e+01 3.790472e+01 -4.268178e+01
        vertex -1.860000e+01 3.850000e+01 -4.260000e+01
        vertex -1.550000e+01 3.850000e+01 -4.260000e+01
    endloop
endfacet
facet normal 0.000000e+00 1.361007e-01 -9.906950e-01
    outer loop
        vertex -1.550000e+01 3.790472e+01 -4.268178e+01
        vertex -1.860000e+01 3.790472e+01 -4.268178e+01
        vertex -1.550000e+01 3.850000e+01 -4.260000e+01
    endloop
endfacet
facet normal 0.000000e+00 3.967485e-01 -9.179274e-01
    outer loop
        vertex -1.860000e+01 3.735000e+01 -4.292154e+01
        vertex -1.860000e+01 3.790472e+01 -4.268178e+01
        vertex -1.550000e+01 3.790472e+01 -4.268178e+01
    endloop
endfacet
facet normal 0.000000e+00 3.967485e-01 -9.179274e-01
    outer loop
        vertex -1.550000e+01 3.735000e+01 -4.292154e+01
        vertex -1.860000e+01 3.735000e+01 -4.292154e+01
        vertex -1.550000e+01 3.790472e+01 -4.268178e+01
    endloop
endfacet
facet normal 0.000000e+00 6.250235e-01 -7.806059e-01
    outer loop
        vertex -1.860000e+01 3.687365e+01 -4.330294e+01
        vertex -1.860000e+01 3.735000e+01 -4.292154e+01
        vertex -1.550000e+01 3.735000e+01 -4.292154e+01
    endloop
endfacet
facet normal 0.000000e+00 6.250235e-01 -7.806059e-01
    outer loop
        vertex -1.550000e+01 3.687365e+01 -4.330294e+01
        vertex -1.860000e+01 3.687365e+01 -4.330294e+01
        vertex -1.550000e+01 3.735000e+01 -4.292154e+01
    endloop
endfacet
facet normal 0.000000e+00 8.056269e-01 -5.924233e-01
    outer loop
        vertex -1.860000e+01 3.650814e+01 -4.380000e+01
        vertex -1.860000e+01 3.687365e+01 -4.330294e+01
        vertex -1.550000e+01 3.687365e+01 -4.330294e+01
    endloop
endfacet
facet normal 0.000000e+00 8.056269e-01 -5.924233e-01
    outer loop
        vertex -1.550000e+01 3.650814e+01 -4.380000e+01
        vertex -1.860000e+01 3.650814e+01 -4.380000e+01
        vertex -1.550000e+01 3.687365e+01 -4.330294e+01
    endloop
endfacet
facet normal 0.000000e+00 9.294497e-01 -3.689488e-01
    outer loop
        vertex -1.860000e+01 3.627837e+01 -4.437883e+01
        vertex -1.860000e+01 3.650814e+01 -4.380000e+01
        vertex -1.550000e+01 3.650814e+01 -4.380000e+01
    endloop
endfacet
facet normal 0.000000e+00 9.294497e-01 -3.689488e-01
    outer loop
        vertex -1.550000e+01 3.627837e+01 -4.437883e+01
        vertex -1.860000e+01 3.627837e+01 -4.437883e+01
        vertex -1.550000e+01 3.650814e+01 -4.380000e+01
    endloop
endfacet
facet normal 0.000000e+00 9.921350e-01 -1.251722e-01
    outer loop
        vertex -1.860000e+01 3.620000e+01 -4.500000e+01
        vertex -1.860000e+01 3.627837e+01 -4.437883e+01
        vertex -1.550000e+01 3.627837e+01 -4.437883e+01
    endloop
endfacet
facet normal 0.000000e+00 9.921350e-01 -1.251722e-01
    outer loop
        vertex -1.550000e+01 3.620000e+01 -4.500000e+01
        vertex -1.860000e+01 3.620000e+01 -4.500000e+01
        vertex -1.550000e+01 3.627837e+01 -4.437883e+01
    endloop
endfacet
facet normal 0.000000e+00 9.921350e-01 1.251722e-01
    outer loop
        vertex -1.550000e+01 3.620000e+01 -4.500000e+01
        vertex -1.860000e+01 3.627837e+01 -4.562117e+01
        vertex -1.860000e+01 3.620000e+01 -4.500000e+01
    endloop
endfacet
facet normal 0.000000e+00 9.921350e-01 1.251722e-01
    outer loop
        vertex -1.550000e+01 3.620000e+01 -4.500000e+01
        vertex -1.550000e+01 3.627837e+01 -4.562117e+01
        vertex -1.860000e+01 3.627837e+01 -4.562117e+01
    endloop
endfacet
facet normal 0.000000e+00 9.294497e-01 3.689488e-01
    outer loop
        vertex -1.550000e+01 3.627837e+01 -4.562117e+01
        vertex -1.860000e+01 3.650814e+01 -4.620000e+01
        vertex -1.860000e+01 3.627837e+01 -4.562117e+01
    endloop
endfacet
facet normal 0.000000e+00 9.294497e-01 3.689488e-01
    outer loop
        vertex -1.550000e+01 3.627837e+01 -4.562117e+01
        vertex -1.550000e+01 3.650814e+01 -4.620000e+01
        vertex -1.860000e+01 3.650814e+01 -4.620000e+01
    endloop
endfacet
facet normal 0.000000e+00 8.056269e-01 5.924233e-01
    outer loop
        vertex -1.550000e+01 3.650814e+01 -4.620000e+01
        vertex -1.860000e+01 3.687365e+01 -4.669706e+01
        vertex -1.860000e+01 3.650814e+01 -4.620000e+01
    endloop
endfacet
facet normal 0.000000e+00 8.056269e-01 5.924233e-01
    outer loop
        vertex -1.550000e+01 3.650814e+01 -4.620000e+01
        vertex -1.550000e+01 3.687365e+01 -4.669706e+01
        vertex -1.860000e+01 3.687365e+01 -4.669706e+01
    endloop
endfacet
facet normal 0.000000e+00 6.250235e-01 7.806059e-01
    outer loop
        vertex -1.550000e+01 3.687365e+01 -4.669706e+01
        vertex -1.860000e+01 3.735000e+01 -4.707846e+01
        vertex -1.860000e+01 3.687365e+01 -4.669706e+01
    endloop
endfacet
facet normal 0.000000e+00 6.250235e-01 7.806059e-01
    outer loop
        vertex -1.550000e+01 3.687365e+01 -4.669706e+01
        vertex -1.550000e+01 3.735000e+01 -4.707846e+01
        vertex -1.860000e+01 3.735000e+01 -4.707846e+01
    endloop
endfacet
facet normal 0.000000e+00 3.967485e-01 9.179274e-01
    outer loop
        vertex -1.550000e+01 3.735000e+01 -4.707846e+01
        vertex -1.860000e+01 3.790472e+01 -4.731822e+01
        vertex -1.860000e+01 3.735000e+01 -4.707846e+01
    endloop
endfacet
facet normal 0.000000e+00 3.967485e-01 9.179274e-01
    outer loop
        vertex -1.550000e+01 3.735000e+01 -4.707846e+01
        vertex -1.550000e+01 3.790472e+01 -4.731822e+01
        vertex -1.860000e+01 3.790472e+01 -4.731822e+01
    endloop
endfacet
facet normal 0.000000e+00 1.361007e-01 9.906950e-01
    outer loop
        vertex -1.550000e+01 3.790472e+01 -4.731822e+01
        vertex -1.860000e+01 3.850000e+01 -4.740000e+01
        vertex -1.860000e+01 3.790472e+01 -4.731822e+01
    endloop
endfacet
facet normal 0.000000e+00 1.361007e-01 9.906950e-01
    outer loop
        vertex -1.550000e+01 3.790472e+01 -4.731822e+01
        vertex -1.550000e+01 3.850000e+01 -4.740000e+01
        vertex -1.860000e+01 3.850000e+01 -4.740000e+01
    endloop
endfacet
facet normal 0.000000e+00 -1.361007e-01 9.906950e-01
    outer loop
        vertex -1.860000e+01 3.850000e+01 -4.740000e+01
        vertex -1.550000e+01 3.909528e+01 -4.731822e+01
        vertex -1.860000e+01 3.909528e+01 -4.731822e+01
    endloop
endfacet
facet normal 0.000000e+00 -1.361007e-01 9.906950e-01
    outer loop
        vertex -1.550000e+01 3.850000e+01 -4.740000e+01
        vertex -1.550000e+01 3.909528e+01 -4.731822e+01
        vertex -1.860000e+01 3.850000e+01 -4.740000e+01
    endloop
endfacet
facet normal 0.000000e+00 -3.967485e-01 9.179274e-01
    outer loop
        vertex -1.860000e+01 3.909528e+01 -4.731822e+01
        vertex -1.550000e+01 3.965000e+01 -4.707846e+01
        vertex -1.860000e+01 3.965000e+01 -4.707846e+01
    endloop
endfacet
facet normal 0.000000e+00 -3.967485e-01 9.179274e-01
    outer loop
        vertex -1.550000e+01 3.909528e+01 -4.731822e+01
        vertex -1.550000e+01 3.965000e+01 -4.707846e+01
        vertex -1.860000e+01 3.909528e+01 -4.731822e+01
    endloop
endfacet
facet normal 0.000000e+00 -6.250235e-01 7.806059e-01
    outer loop
        vertex -1.860000e+01 3.965000e+01 -4.707846e+01
        vertex -1.550000e+01 4.012635e+01 -4.669706e+01
        vertex -1.860000e+01 4.012635e+01 -4.669706e+01
    endloop
endfacet
facet normal 0.000000e+00 -6.250235e-01 7.806059e-01
    outer loop
        vertex -1.550000e+01 3.965000e+01 -4.707846e+01
        vertex -1.550000e+01 4.012635e+01 -4.669706e+01
        vertex -1.860000e+01 3.965000e+01 -4.707846e+01
    endloop
endfacet
facet normal 0.000000e+00 -8.056269e-01 5.924233e-01
    outer loop
        vertex -1.860000e+01 4.012635e+01 -4.669706e+01
        vertex -1.550000e+01 4.049186e+01 -4.620000e+01
        vertex -1.860000e+01 4.049186e+01 -4.620000e+01
    endloop
endfacet
facet normal 0.000000e+00 -8.056269e-01 5.924233e-01
    outer loop
        vertex -1.550000e+01 4.012635e+01 -4.669706e+01
        vertex -1.550000e+01 4.049186e+01 -4.620000e+01
        vertex -1.860000e+01 4.012635e+01 -4.669706e+01
    endloop
endfacet
facet normal 0.000000e+00 -9.294497e-01 3.689488e-01
    outer loop
        vertex -1.860000e+01 4.049186e+01 -4.620000e+01
        vertex -1.550000e+01 4.072163e+01 -4.562117e+01
        vertex -1.860000e+01 4.072163e+01 -4.562117e+01
    endloop
endfacet
facet normal 0.000000e+00 -9.294497e-01 3.689488e-01
    outer loop
        vertex -1.550000e+01 4.049186e+01 -4.620000e+01
        vertex -1.550000e+01 4.072163e+01 -4.562117e+01
        vertex -1.860000e+01 4.049186e+01 -4.620000e+01
    endloop
endfacet
facet normal 0.000000e+00 -9.921350e-01 1.251722e-01
    outer loop
        vertex -1.860000e+01 4.072163e+01 -4.562117e+01
        vertex -1.550000e+01 4.080000e+01 -4.500000e+01
        vertex -1.860000e+01 4.080000e+01 -4.500000e+01
    endloop
endfacet
facet normal 0.000000e+00 -9.921350e-01 1.251722e-01
    outer loop
        vertex -1.550000e+01 4.072163e+01 -4.562117e+01
        vertex -1.550000e+01 4.080000e+01 -4.500000e+01
        vertex -1.860000e+01 4.072163e+01 -4.562117e+01
    endloop
endfacet
endsolid mag-catch.stl
