solid motor-mount.stl
facet normal -1.000000e+00 0.000000e+00 0.000000e+00
    outer loop
        vertex -1.250000e+01 1.049000e+02 -1.800000e+01
        vertex -1.250000e+01 1.049000e+02 7.000000e+00
        vertex -1.250000e+01 1.079000e+02 -1.800000e+01
    endloop
endfacet
facet normal -1.000000e+00 0.000000e+00 0.000000e+00
    outer loop
        vertex -1.250000e+01 1.049000e+02 7.000000e+00
        vertex -1.250000e+01 1.079000e+02 7.000000e+00
        vertex -1.250000e+01 1.079000e+02 -1.800000e+01
    endloop
endfacet
facet normal 0.000000e+00 0.000000e+00 -1.000000e+00
    outer loop
        vertex 1.250000e+01 1.049000e+02 -1.800000e+01
        vertex -1.250000e+01 1.049000e+02 -1.800000e+01
        vertex -1.250000e+01 1.079000e+02 -1.800000e+01
    endloop
endfacet
facet normal 0.000000e+00 0.000000e+00 -1.000000e+00
    outer loop
        vertex 1.250000e+01 1.049000e+02 -1.800000e+01
        vertex -1.250000e+01 1.079000e+02 -1.800000e+01
        vertex 1.250000e+01 1.079000e+02 -1.800000e+01
    endloop
endfacet
facet normal 0.000000e+00 0.000000e+00 1.000000e+00
    outer loop
        vertex -1.250000e+01 1.049000e+02 7.000000e+00
        vertex 1.250000e+01 1.049000e+02 7.000000e+00
        vertex -1.250000e+01 1.079000e+02 7.000000e+00
    endloop
endfacet
facet normal 0.000000e+00 -0.000000e+00 1.000000e+00
    outer loop
        vertex 1.250000e+01 1.049000e+02 7.000000e+00
        vertex 1.250000e+01 1.079000e+02 7.000000e+00
        vertex -1.250000e+01 1.079000e+02 7.000000e+00
    endloop
endfacet
facet normal 1.000000e+00 0.000000e+00 0.000000e+00
    outer loop
        vertex 1.250000e+01 1.049000e+02 -1.800000e+01
        vertex 1.250000e+01 1.079000e+02 -1.800000e+01
        vertex 1.250000e+01 1.049000e+02 7.000000e+00
    endloop
endfacet
facet normal 1.000000e+00 -0.000000e+00 0.000000e+00
    outer loop
        vertex 1.250000e+01 1.049000e+02 7.000000e+00
        vertex 1.250000e+01 1.079000e+02 -1.800000e+01
        vertex 1.250000e+01 1.079000e+02 7.000000e+00
    endloop
endfacet
facet normal 0.000000e+00 -1.000000e+00 0.000000e+00
    outer loop
        vertex 3.464102e+00 1.049000e+02 -3.200000e+00
        vertex 1.250000e+01 1.049000e+02 7.000000e+00
        vertex 2.828427e+00 1.049000e+02 -2.371573e+00
    endloop
endfacet
facet normal 0.000000e+00 -1.000000e+00 0.000000e+00
    outer loop
        vertex 1.250000e+01 1.049000e+02 -1.800000e+01
        vertex 1.250000e+01 1.049000e+02 7.000000e+00
        vertex 3.464102e+00 1.049000e+02 -3.200000e+00
    endloop
endfacet
facet normal 0.000000e+00 -1.000000e+00 0.000000e+00
    outer loop
        vertex 2.828427e+00 1.049000e+02 -2.371573e+00
        vertex 1.250000e+01 1.049000e+02 7.000000e+00
        vertex 2.000000e+00 1.049000e+02 -1.735898e+00
    endloop
endfacet
facet normal 0.000000e+00 -1.000000e+00 0.000000e+00
    outer loop
        vertex 2.000000e+00 1.049000e+02 -1.735898e+00
        vertex 1.250000e+01 1.049000e+02 7.000000e+00
        vertex -1.250000e+01 1.049000e+02 7.000000e+00
    endloop
endfacet
facet normal 0.000000e+00 -1.000000e+00 0.000000e+00
    outer loop
        vertex 1.250000e+01 1.049000e+02 -1.800000e+01
        vertex 3.464102e+00 1.049000e+02 -3.200000e+00
        vertex 3.863703e+00 1.049000e+02 -4.164724e+00
    endloop
endfacet
facet normal 0.000000e+00 -1.000000e+00 0.000000e+00
    outer loop
        vertex 1.250000e+01 1.049000e+02 -1.800000e+01
        vertex 3.863703e+00 1.049000e+02 -4.164724e+00
        vertex 4.000000e+00 1.049000e+02 -5.200000e+00
    endloop
endfacet
facet normal 0.000000e+00 -1.000000e+00 0.000000e+00
    outer loop
        vertex 1.250000e+01 1.049000e+02 -1.800000e+01
        vertex 4.000000e+00 1.049000e+02 -5.200000e+00
        vertex 3.863703e+00 1.049000e+02 -6.235276e+00
    endloop
endfacet
facet normal 0.000000e+00 -1.000000e+00 0.000000e+00
    outer loop
        vertex 1.250000e+01 1.049000e+02 -1.800000e+01
        vertex 3.863703e+00 1.049000e+02 -6.235276e+00
        vertex 3.464102e+00 1.049000e+02 -7.200000e+00
    endloop
endfacet
facet normal 0.000000e+00 -1.000000e+00 0.000000e+00
    outer loop
        vertex 1.250000e+01 1.049000e+02 -1.800000e+01
        vertex 3.464102e+00 1.049000e+02 -7.200000e+00
        vertex 2.828427e+00 1.049000e+02 -8.028427e+00
    endloop
endfacet
facet normal 0.000000e+00 -1.000000e+00 0.000000e+00
    outer loop
        vertex 1.250000e+01 1.049000e+02 -1.800000e+01
        vertex 2.828427e+00 1.049000e+02 -8.028427e+00
        vertex 2.000000e+00 1.049000e+02 -8.664102e+00
    endloop
endfacet
facet normal 0.000000e+00 -1.000000e+00 0.000000e+00
    outer loop
        vertex -1.250000e+01 1.049000e+02 -1.800000e+01
        vertex 1.250000e+01 1.049000e+02 -1.800000e+01
        vertex 2.000000e+00 1.049000e+02 -8.664102e+00
    endloop
endfacet
facet normal 0.000000e+00 -1.000000e+00 0.000000e+00
    outer loop
        vertex -1.250000e+01 1.049000e+02 -1.800000e+01
        vertex 2.000000e+00 1.049000e+02 -8.664102e+00
        vertex 1.035276e+00 1.049000e+02 -9.063704e+00
    endloop
endfacet
facet normal 0.000000e+00 -1.000000e+00 0.000000e+00
    outer loop
        vertex -1.250000e+01 1.049000e+02 -1.800000e+01
        vertex 1.035276e+00 1.049000e+02 -9.063704e+00
        vertex 8.881784e-16 1.049000e+02 -9.200000e+00
    endloop
endfacet
facet normal 0.000000e+00 -1.000000e+00 0.000000e+00
    outer loop
        vertex -1.250000e+01 1.049000e+02 -1.800000e+01
        vertex 8.881784e-16 1.049000e+02 -9.200000e+00
        vertex -1.035276e+00 1.049000e+02 -9.063704e+00
    endloop
endfacet
facet normal 0.000000e+00 -1.000000e+00 0.000000e+00
    outer loop
        vertex -1.250000e+01 1.049000e+02 -1.800000e+01
        vertex -1.035276e+00 1.049000e+02 -9.063704e+00
        vertex -2.000000e+00 1.049000e+02 -8.664102e+00
    endloop
endfacet
facet normal 0.000000e+00 -1.000000e+00 0.000000e+00
    outer loop
        vertex -1.250000e+01 1.049000e+02 -1.800000e+01
        vertex -2.000000e+00 1.049000e+02 -8.664102e+00
        vertex -2.828427e+00 1.049000e+02 -8.028427e+00
    endloop
endfacet
facet normal 0.000000e+00 -1.000000e+00 0.000000e+00
    outer loop
        vertex -1.250000e+01 1.049000e+02 -1.800000e+01
        vertex -2.828427e+00 1.049000e+02 -8.028427e+00
        vertex -3.464102e+00 1.049000e+02 -7.200000e+00
    endloop
endfacet
facet normal 0.000000e+00 -1.000000e+00 0.000000e+00
    outer loop
        vertex -1.250000e+01 1.049000e+02 -1.800000e+01
        vertex -3.464102e+00 1.049000e+02 -7.200000e+00
        vertex -1.250000e+01 1.049000e+02 7.000000e+00
    endloop
endfacet
facet normal 0.000000e+00 -1.000000e+00 0.000000e+00
    outer loop
        vertex -3.464102e+00 1.049000e+02 -7.200000e+00
        vertex -3.863703e+00 1.049000e+02 -6.235276e+00
        vertex -1.250000e+01 1.049000e+02 7.000000e+00
    endloop
endfacet
facet normal 0.000000e+00 -1.000000e+00 0.000000e+00
    outer loop
        vertex -3.863703e+00 1.049000e+02 -6.235276e+00
        vertex -4.000000e+00 1.049000e+02 -5.200000e+00
        vertex -1.250000e+01 1.049000e+02 7.000000e+00
    endloop
endfacet
facet normal 0.000000e+00 -1.000000e+00 0.000000e+00
    outer loop
        vertex -4.000000e+00 1.049000e+02 -5.200000e+00
        vertex -3.863703e+00 1.049000e+02 -4.164724e+00
        vertex -1.250000e+01 1.049000e+02 7.000000e+00
    endloop
endfacet
facet normal 0.000000e+00 -1.000000e+00 0.000000e+00
    outer loop
        vertex -3.863703e+00 1.049000e+02 -4.164724e+00
        vertex -3.464102e+00 1.049000e+02 -3.200000e+00
        vertex -1.250000e+01 1.049000e+02 7.000000e+00
    endloop
endfacet
facet normal 0.000000e+00 -1.000000e+00 0.000000e+00
    outer loop
        vertex -3.464102e+00 1.049000e+02 -3.200000e+00
        vertex -2.828427e+00 1.049000e+02 -2.371573e+00
        vertex -1.250000e+01 1.049000e+02 7.000000e+00
    endloop
endfacet
facet normal 0.000000e+00 -1.000000e+00 0.000000e+00
    outer loop
        vertex -2.828427e+00 1.049000e+02 -2.371573e+00
        vertex -2.000000e+00 1.049000e+02 -1.735898e+00
        vertex -1.250000e+01 1.049000e+02 7.000000e+00
    endloop
endfacet
facet normal 0.000000e+00 -1.000000e+00 0.000000e+00
    outer loop
        vertex -2.000000e+00 1.049000e+02 -1.735898e+00
        vertex -1.035276e+00 1.049000e+02 -1.336297e+00
        vertex -1.250000e+01 1.049000e+02 7.000000e+00
    endloop
endfacet
facet normal 0.000000e+00 -1.000000e+00 0.000000e+00
    outer loop
        vertex -1.035276e+00 1.049000e+02 -1.336297e+00
        vertex 8.881784e-16 1.049000e+02 -1.200000e+00
        vertex -1.250000e+01 1.049000e+02 7.000000e+00
    endloop
endfacet
facet normal 0.000000e+00 -1.000000e+00 0.000000e+00
    outer loop
        vertex 1.035276e+00 1.049000e+02 -1.336297e+00
        vertex -1.250000e+01 1.049000e+02 7.000000e+00
        vertex 8.881784e-16 1.049000e+02 -1.200000e+00
    endloop
endfacet
facet normal 0.000000e+00 -1.000000e+00 0.000000e+00
    outer loop
        vertex 2.000000e+00 1.049000e+02 -1.735898e+00
        vertex -1.250000e+01 1.049000e+02 7.000000e+00
        vertex 1.035276e+00 1.049000e+02 -1.336297e+00
    endloop
endfacet
facet normal -1.305262e-01 0.000000e+00 -9.914448e-01
    outer loop
        vertex 1.035276e+00 1.049000e+02 -1.336297e+00
        vertex 0.000000e+00 1.079000e+02 -1.200000e+00
        vertex 1.035276e+00 1.079000e+02 -1.336297e+00
    endloop
endfacet
facet normal -1.305262e-01 -3.544062e-17 -9.914448e-01
    outer loop
        vertex 1.035276e+00 1.049000e+02 -1.336297e+00
        vertex 8.881784e-16 1.049000e+02 -1.200000e+00
        vertex 0.000000e+00 1.079000e+02 -1.200000e+00
    endloop
endfacet
facet normal -3.826834e-01 0.000000e+00 -9.238795e-01
    outer loop
        vertex 2.000000e+00 1.049000e+02 -1.735898e+00
        vertex 1.035276e+00 1.079000e+02 -1.336297e+00
        vertex 2.000000e+00 1.079000e+02 -1.735898e+00
    endloop
endfacet
facet normal -3.826834e-01 0.000000e+00 -9.238795e-01
    outer loop
        vertex 2.000000e+00 1.049000e+02 -1.735898e+00
        vertex 1.035276e+00 1.049000e+02 -1.336297e+00
        vertex 1.035276e+00 1.079000e+02 -1.336297e+00
    endloop
endfacet
facet normal -6.087614e-01 0.000000e+00 -7.933533e-01
    outer loop
        vertex 2.828427e+00 1.049000e+02 -2.371573e+00
        vertex 2.000000e+00 1.079000e+02 -1.735898e+00
        vertex 2.828427e+00 1.079000e+02 -2.371573e+00
    endloop
endfacet
facet normal -6.087614e-01 0.000000e+00 -7.933533e-01
    outer loop
        vertex 2.828427e+00 1.049000e+02 -2.371573e+00
        vertex 2.000000e+00 1.049000e+02 -1.735898e+00
        vertex 2.000000e+00 1.079000e+02 -1.735898e+00
    endloop
endfacet
facet normal -7.933533e-01 0.000000e+00 -6.087614e-01
    outer loop
        vertex 3.464102e+00 1.049000e+02 -3.200000e+00
        vertex 2.828427e+00 1.079000e+02 -2.371573e+00
        vertex 3.464102e+00 1.079000e+02 -3.200000e+00
    endloop
endfacet
facet normal -7.933533e-01 0.000000e+00 -6.087614e-01
    outer loop
        vertex 3.464102e+00 1.049000e+02 -3.200000e+00
        vertex 2.828427e+00 1.049000e+02 -2.371573e+00
        vertex 2.828427e+00 1.079000e+02 -2.371573e+00
    endloop
endfacet
facet normal -9.238795e-01 0.000000e+00 -3.826834e-01
    outer loop
        vertex 3.863703e+00 1.049000e+02 -4.164724e+00
        vertex 3.464102e+00 1.079000e+02 -3.200000e+00
        vertex 3.863703e+00 1.079000e+02 -4.164724e+00
    endloop
endfacet
facet normal -9.238795e-01 0.000000e+00 -3.826834e-01
    outer loop
        vertex 3.863703e+00 1.049000e+02 -4.164724e+00
        vertex 3.464102e+00 1.049000e+02 -3.200000e+00
        vertex 3.464102e+00 1.079000e+02 -3.200000e+00
    endloop
endfacet
facet normal -9.914448e-01 0.000000e+00 -1.305263e-01
    outer loop
        vertex 4.000000e+00 1.049000e+02 -5.200000e+00
        vertex 3.863703e+00 1.079000e+02 -4.164724e+00
        vertex 4.000000e+00 1.079000e+02 -5.200000e+00
    endloop
endfacet
facet normal -9.914448e-01 0.000000e+00 -1.305263e-01
    outer loop
        vertex 4.000000e+00 1.049000e+02 -5.200000e+00
        vertex 3.863703e+00 1.049000e+02 -4.164724e+00
        vertex 3.863703e+00 1.079000e+02 -4.164724e+00
    endloop
endfacet
facet normal -9.914449e-01 0.000000e+00 1.305262e-01
    outer loop
        vertex 3.863703e+00 1.049000e+02 -6.235276e+00
        vertex 4.000000e+00 1.079000e+02 -5.200000e+00
        vertex 3.863703e+00 1.079000e+02 -6.235276e+00
    endloop
endfacet
facet normal -9.914449e-01 0.000000e+00 1.305262e-01
    outer loop
        vertex 3.863703e+00 1.049000e+02 -6.235276e+00
        vertex 4.000000e+00 1.049000e+02 -5.200000e+00
        vertex 4.000000e+00 1.079000e+02 -5.200000e+00
    endloop
endfacet
facet normal -9.238795e-01 0.000000e+00 3.826835e-01
    outer loop
        vertex 3.464102e+00 1.049000e+02 -7.200000e+00
        vertex 3.863703e+00 1.079000e+02 -6.235276e+00
        vertex 3.464102e+00 1.079000e+02 -7.200000e+00
    endloop
endfacet
facet normal -9.238795e-01 0.000000e+00 3.826835e-01
    outer loop
        vertex 3.464102e+00 1.049000e+02 -7.200000e+00
        vertex 3.863703e+00 1.049000e+02 -6.235276e+00
        vertex 3.863703e+00 1.079000e+02 -6.235276e+00
    endloop
endfacet
facet normal -7.933534e-01 0.000000e+00 6.087613e-01
    outer loop
        vertex 2.828427e+00 1.049000e+02 -8.028427e+00
        vertex 3.464102e+00 1.079000e+02 -7.200000e+00
        vertex 2.828427e+00 1.079000e+02 -8.028427e+00
    endloop
endfacet
facet normal -7.933534e-01 0.000000e+00 6.087613e-01
    outer loop
        vertex 2.828427e+00 1.049000e+02 -8.028427e+00
        vertex 3.464102e+00 1.049000e+02 -7.200000e+00
        vertex 3.464102e+00 1.079000e+02 -7.200000e+00
    endloop
endfacet
facet normal -6.087614e-01 0.000000e+00 7.933533e-01
    outer loop
        vertex 2.000000e+00 1.049000e+02 -8.664102e+00
        vertex 2.828427e+00 1.079000e+02 -8.028427e+00
        vertex 2.000000e+00 1.079000e+02 -8.664102e+00
    endloop
endfacet
facet normal -6.087614e-01 0.000000e+00 7.933533e-01
    outer loop
        vertex 2.000000e+00 1.049000e+02 -8.664102e+00
        vertex 2.828427e+00 1.049000e+02 -8.028427e+00
        vertex 2.828427e+00 1.079000e+02 -8.028427e+00
    endloop
endfacet
facet normal -3.826836e-01 0.000000e+00 9.238794e-01
    outer loop
        vertex 1.035276e+00 1.049000e+02 -9.063704e+00
        vertex 2.000000e+00 1.079000e+02 -8.664102e+00
        vertex 1.035276e+00 1.079000e+02 -9.063704e+00
    endloop
endfacet
facet normal -3.826836e-01 0.000000e+00 9.238794e-01
    outer loop
        vertex 1.035276e+00 1.049000e+02 -9.063704e+00
        vertex 2.000000e+00 1.049000e+02 -8.664102e+00
        vertex 2.000000e+00 1.079000e+02 -8.664102e+00
    endloop
endfacet
facet normal -1.305258e-01 0.000000e+00 9.914449e-01
    outer loop
        vertex 8.881784e-16 1.049000e+02 -9.200000e+00
        vertex 1.035276e+00 1.079000e+02 -9.063704e+00
        vertex 8.881784e-16 1.079000e+02 -9.200000e+00
    endloop
endfacet
facet normal -1.305258e-01 0.000000e+00 9.914449e-01
    outer loop
        vertex 8.881784e-16 1.049000e+02 -9.200000e+00
        vertex 1.035276e+00 1.049000e+02 -9.063704e+00
        vertex 1.035276e+00 1.079000e+02 -9.063704e+00
    endloop
endfacet
facet normal 1.305258e-01 -0.000000e+00 9.914449e-01
    outer loop
        vertex -1.035276e+00 1.049000e+02 -9.063704e+00
        vertex 8.881784e-16 1.079000e+02 -9.200000e+00
        vertex -1.035276e+00 1.079000e+02 -9.063704e+00
    endloop
endfacet
facet normal 1.305258e-01 -0.000000e+00 9.914449e-01
    outer loop
        vertex 8.881784e-16 1.049000e+02 -9.200000e+00
        vertex 8.881784e-16 1.079000e+02 -9.200000e+00
        vertex -1.035276e+00 1.049000e+02 -9.063704e+00
    endloop
endfacet
facet normal 3.826836e-01 -0.000000e+00 9.238794e-01
    outer loop
        vertex -2.000000e+00 1.049000e+02 -8.664102e+00
        vertex -1.035276e+00 1.079000e+02 -9.063704e+00
        vertex -2.000000e+00 1.079000e+02 -8.664102e+00
    endloop
endfacet
facet normal 3.826836e-01 -0.000000e+00 9.238794e-01
    outer loop
        vertex -1.035276e+00 1.049000e+02 -9.063704e+00
        vertex -1.035276e+00 1.079000e+02 -9.063704e+00
        vertex -2.000000e+00 1.049000e+02 -8.664102e+00
    endloop
endfacet
facet normal 6.087614e-01 -0.000000e+00 7.933533e-01
    outer loop
        vertex -2.828427e+00 1.049000e+02 -8.028427e+00
        vertex -2.000000e+00 1.079000e+02 -8.664102e+00
        vertex -2.828427e+00 1.079000e+02 -8.028427e+00
    endloop
endfacet
facet normal 6.087614e-01 -0.000000e+00 7.933533e-01
    outer loop
        vertex -2.000000e+00 1.049000e+02 -8.664102e+00
        vertex -2.000000e+00 1.079000e+02 -8.664102e+00
        vertex -2.828427e+00 1.049000e+02 -8.028427e+00
    endloop
endfacet
facet normal 7.933534e-01 -0.000000e+00 6.087613e-01
    outer loop
        vertex -3.464102e+00 1.049000e+02 -7.200000e+00
        vertex -2.828427e+00 1.079000e+02 -8.028427e+00
        vertex -3.464102e+00 1.079000e+02 -7.200000e+00
    endloop
endfacet
facet normal 7.933534e-01 -0.000000e+00 6.087613e-01
    outer loop
        vertex -2.828427e+00 1.049000e+02 -8.028427e+00
        vertex -2.828427e+00 1.079000e+02 -8.028427e+00
        vertex -3.464102e+00 1.049000e+02 -7.200000e+00
    endloop
endfacet
facet normal 9.238795e-01 -0.000000e+00 3.826835e-01
    outer loop
        vertex -3.863703e+00 1.049000e+02 -6.235276e+00
        vertex -3.464102e+00 1.079000e+02 -7.200000e+00
        vertex -3.863703e+00 1.079000e+02 -6.235276e+00
    endloop
endfacet
facet normal 9.238795e-01 -0.000000e+00 3.826835e-01
    outer loop
        vertex -3.464102e+00 1.049000e+02 -7.200000e+00
        vertex -3.464102e+00 1.079000e+02 -7.200000e+00
        vertex -3.863703e+00 1.049000e+02 -6.235276e+00
    endloop
endfacet
facet normal 9.914449e-01 -0.000000e+00 1.305262e-01
    outer loop
        vertex -4.000000e+00 1.049000e+02 -5.200000e+00
        vertex -3.863703e+00 1.079000e+02 -6.235276e+00
        vertex -4.000000e+00 1.079000e+02 -5.200000e+00
    endloop
endfacet
facet normal 9.914449e-01 -0.000000e+00 1.305262e-01
    outer loop
        vertex -3.863703e+00 1.049000e+02 -6.235276e+00
        vertex -3.863703e+00 1.079000e+02 -6.235276e+00
        vertex -4.000000e+00 1.049000e+02 -5.200000e+00
    endloop
endfacet
facet normal 9.914448e-01 0.000000e+00 -1.305263e-01
    outer loop
        vertex -3.863703e+00 1.049000e+02 -4.164724e+00
        vertex -4.000000e+00 1.079000e+02 -5.200000e+00
        vertex -3.863703e+00 1.079000e+02 -4.164724e+00
    endloop
endfacet
facet normal 9.914448e-01 0.000000e+00 -1.305263e-01
    outer loop
        vertex -4.000000e+00 1.049000e+02 -5.200000e+00
        vertex -4.000000e+00 1.079000e+02 -5.200000e+00
        vertex -3.863703e+00 1.049000e+02 -4.164724e+00
    endloop
endfacet
facet normal 9.238795e-01 0.000000e+00 -3.826834e-01
    outer loop
        vertex -3.464102e+00 1.049000e+02 -3.200000e+00
        vertex -3.863703e+00 1.079000e+02 -4.164724e+00
        vertex -3.464102e+00 1.079000e+02 -3.200000e+00
    endloop
endfacet
facet normal 9.238795e-01 0.000000e+00 -3.826834e-01
    outer loop
        vertex -3.863703e+00 1.049000e+02 -4.164724e+00
        vertex -3.863703e+00 1.079000e+02 -4.164724e+00
        vertex -3.464102e+00 1.049000e+02 -3.200000e+00
    endloop
endfacet
facet normal 7.933533e-01 0.000000e+00 -6.087614e-01
    outer loop
        vertex -2.828427e+00 1.049000e+02 -2.371573e+00
        vertex -3.464102e+00 1.079000e+02 -3.200000e+00
        vertex -2.828427e+00 1.079000e+02 -2.371573e+00
    endloop
endfacet
facet normal 7.933533e-01 0.000000e+00 -6.087614e-01
    outer loop
        vertex -3.464102e+00 1.049000e+02 -3.200000e+00
        vertex -3.464102e+00 1.079000e+02 -3.200000e+00
        vertex -2.828427e+00 1.049000e+02 -2.371573e+00
    endloop
endfacet
facet normal 6.087614e-01 0.000000e+00 -7.933533e-01
    outer loop
        vertex -2.000000e+00 1.049000e+02 -1.735898e+00
        vertex -2.828427e+00 1.079000e+02 -2.371573e+00
        vertex -2.000000e+00 1.079000e+02 -1.735898e+00
    endloop
endfacet
facet normal 6.087614e-01 0.000000e+00 -7.933533e-01
    outer loop
        vertex -2.828427e+00 1.049000e+02 -2.371573e+00
        vertex -2.828427e+00 1.079000e+02 -2.371573e+00
        vertex -2.000000e+00 1.049000e+02 -1.735898e+00
    endloop
endfacet
facet normal 3.826834e-01 0.000000e+00 -9.238795e-01
    outer loop
        vertex -1.035276e+00 1.049000e+02 -1.336297e+00
        vertex -2.000000e+00 1.079000e+02 -1.735898e+00
        vertex -1.035276e+00 1.079000e+02 -1.336297e+00
    endloop
endfacet
facet normal 3.826834e-01 0.000000e+00 -9.238795e-01
    outer loop
        vertex -2.000000e+00 1.049000e+02 -1.735898e+00
        vertex -2.000000e+00 1.079000e+02 -1.735898e+00
        vertex -1.035276e+00 1.049000e+02 -1.336297e+00
    endloop
endfacet
facet normal 1.305262e-01 3.864353e-17 -9.914448e-01
    outer loop
        vertex 8.881784e-16 1.049000e+02 -1.200000e+00
        vertex -1.035276e+00 1.079000e+02 -1.336297e+00
        vertex 0.000000e+00 1.079000e+02 -1.200000e+00
    endloop
endfacet
facet normal 1.305262e-01 0.000000e+00 -9.914448e-01
    outer loop
        vertex -1.035276e+00 1.049000e+02 -1.336297e+00
        vertex -1.035276e+00 1.079000e+02 -1.336297e+00
        vertex 8.881784e-16 1.049000e+02 -1.200000e+00
    endloop
endfacet
facet normal 0.000000e+00 1.000000e+00 -0.000000e+00
    outer loop
        vertex -8.207055e+00 1.079000e+02 -4.427259e+00
        vertex -1.250000e+01 1.079000e+02 7.000000e+00
        vertex 1.250000e+01 1.079000e+02 7.000000e+00
    endloop
endfacet
facet normal 0.000000e+00 1.000000e+00 0.000000e+00
    outer loop
        vertex -3.863703e+00 1.079000e+02 -6.235276e+00
        vertex -7.200000e+00 1.079000e+02 -5.200000e+00
        vertex -4.000000e+00 1.079000e+02 -5.200000e+00
    endloop
endfacet
facet normal 0.000000e+00 1.000000e+00 0.000000e+00
    outer loop
        vertex 3.863703e+00 1.079000e+02 -6.235276e+00
        vertex 4.000000e+00 1.079000e+02 -5.200000e+00
        vertex 7.200000e+00 1.079000e+02 -5.200000e+00
    endloop
endfacet
facet normal 0.000000e+00 1.000000e+00 -0.000000e+00
    outer loop
        vertex 4.000000e+00 1.079000e+02 -5.200000e+00
        vertex 3.863703e+00 1.079000e+02 -4.164724e+00
        vertex 7.200000e+00 1.079000e+02 -5.200000e+00
    endloop
endfacet
facet normal 0.000000e+00 1.000000e+00 -0.000000e+00
    outer loop
        vertex -4.000000e+00 1.079000e+02 -5.200000e+00
        vertex -7.200000e+00 1.079000e+02 -5.200000e+00
        vertex -3.863703e+00 1.079000e+02 -4.164724e+00
    endloop
endfacet
facet normal 0.000000e+00 1.000000e+00 0.000000e+00
    outer loop
        vertex 7.200000e+00 1.079000e+02 -5.200000e+00
        vertex 3.863703e+00 1.079000e+02 -4.164724e+00
        vertex 3.464102e+00 1.079000e+02 -3.200000e+00
    endloop
endfacet
facet normal 0.000000e+00 1.000000e+00 0.000000e+00
    outer loop
        vertex -7.200000e+00 1.079000e+02 -5.200000e+00
        vertex -3.464102e+00 1.079000e+02 -3.200000e+00
        vertex -3.863703e+00 1.079000e+02 -4.164724e+00
    endloop
endfacet
facet normal 0.000000e+00 1.000000e+00 0.000000e+00
    outer loop
        vertex -3.464102e+00 1.079000e+02 -7.200000e+00
        vertex -7.200000e+00 1.079000e+02 -5.200000e+00
        vertex -3.863703e+00 1.079000e+02 -6.235276e+00
    endloop
endfacet
facet normal 0.000000e+00 1.000000e+00 0.000000e+00
    outer loop
        vertex 3.464102e+00 1.079000e+02 -7.200000e+00
        vertex 3.863703e+00 1.079000e+02 -6.235276e+00
        vertex 7.200000e+00 1.079000e+02 -5.200000e+00
    endloop
endfacet
facet normal 0.000000e+00 1.000000e+00 0.000000e+00
    outer loop
        vertex -2.828427e+00 1.079000e+02 -8.028427e+00
        vertex -7.200000e+00 1.079000e+02 -5.200000e+00
        vertex -3.464102e+00 1.079000e+02 -7.200000e+00
    endloop
endfacet
facet normal 0.000000e+00 1.000000e+00 0.000000e+00
    outer loop
        vertex 2.828427e+00 1.079000e+02 -8.028427e+00
        vertex 3.464102e+00 1.079000e+02 -7.200000e+00
        vertex 7.200000e+00 1.079000e+02 -5.200000e+00
    endloop
endfacet
facet normal 0.000000e+00 1.000000e+00 0.000000e+00
    outer loop
        vertex 7.200000e+00 1.079000e+02 -5.200000e+00
        vertex 3.464102e+00 1.079000e+02 -3.200000e+00
        vertex 2.828427e+00 1.079000e+02 -2.371573e+00
    endloop
endfacet
facet normal 0.000000e+00 1.000000e+00 0.000000e+00
    outer loop
        vertex -7.200000e+00 1.079000e+02 -5.200000e+00
        vertex -2.828427e+00 1.079000e+02 -2.371573e+00
        vertex -3.464102e+00 1.079000e+02 -3.200000e+00
    endloop
endfacet
facet normal 0.000000e+00 1.000000e+00 0.000000e+00
    outer loop
        vertex -2.828427e+00 1.079000e+02 -8.028427e+00
        vertex -7.227259e+00 1.079000e+02 -5.407055e+00
        vertex -7.200000e+00 1.079000e+02 -5.200000e+00
    endloop
endfacet
facet normal 0.000000e+00 1.000000e+00 0.000000e+00
    outer loop
        vertex -2.828427e+00 1.079000e+02 -8.028427e+00
        vertex -7.307179e+00 1.079000e+02 -5.600000e+00
        vertex -7.227259e+00 1.079000e+02 -5.407055e+00
    endloop
endfacet
facet normal 0.000000e+00 1.000000e+00 0.000000e+00
    outer loop
        vertex -2.828427e+00 1.079000e+02 -8.028427e+00
        vertex -7.434315e+00 1.079000e+02 -5.765686e+00
        vertex -7.307179e+00 1.079000e+02 -5.600000e+00
    endloop
endfacet
facet normal 0.000000e+00 1.000000e+00 0.000000e+00
    outer loop
        vertex 2.828427e+00 1.079000e+02 -8.028427e+00
        vertex 7.200000e+00 1.079000e+02 -5.200000e+00
        vertex 7.227259e+00 1.079000e+02 -5.407055e+00
    endloop
endfacet
facet normal 0.000000e+00 1.000000e+00 0.000000e+00
    outer loop
        vertex 2.828427e+00 1.079000e+02 -8.028427e+00
        vertex 7.227259e+00 1.079000e+02 -5.407055e+00
        vertex 7.307179e+00 1.079000e+02 -5.600000e+00
    endloop
endfacet
facet normal 0.000000e+00 1.000000e+00 0.000000e+00
    outer loop
        vertex 2.828427e+00 1.079000e+02 -8.028427e+00
        vertex 7.307179e+00 1.079000e+02 -5.600000e+00
        vertex 7.434315e+00 1.079000e+02 -5.765686e+00
    endloop
endfacet
facet normal 0.000000e+00 1.000000e+00 -0.000000e+00
    outer loop
        vertex 7.200000e+00 1.079000e+02 -5.200000e+00
        vertex 2.828427e+00 1.079000e+02 -2.371573e+00
        vertex 7.227259e+00 1.079000e+02 -4.992945e+00
    endloop
endfacet
facet normal 0.000000e+00 1.000000e+00 -0.000000e+00
    outer loop
        vertex 7.227259e+00 1.079000e+02 -4.992945e+00
        vertex 2.828427e+00 1.079000e+02 -2.371573e+00
        vertex 7.307179e+00 1.079000e+02 -4.800000e+00
    endloop
endfacet
facet normal 0.000000e+00 1.000000e+00 -0.000000e+00
    outer loop
        vertex 7.307179e+00 1.079000e+02 -4.800000e+00
        vertex 2.828427e+00 1.079000e+02 -2.371573e+00
        vertex 7.434315e+00 1.079000e+02 -4.634315e+00
    endloop
endfacet
facet normal 0.000000e+00 1.000000e+00 -0.000000e+00
    outer loop
        vertex -7.200000e+00 1.079000e+02 -5.200000e+00
        vertex -7.227259e+00 1.079000e+02 -4.992945e+00
        vertex -2.828427e+00 1.079000e+02 -2.371573e+00
    endloop
endfacet
facet normal 0.000000e+00 1.000000e+00 -0.000000e+00
    outer loop
        vertex -7.227259e+00 1.079000e+02 -4.992945e+00
        vertex -7.307179e+00 1.079000e+02 -4.800000e+00
        vertex -2.828427e+00 1.079000e+02 -2.371573e+00
    endloop
endfacet
facet normal 0.000000e+00 1.000000e+00 -0.000000e+00
    outer loop
        vertex -7.307179e+00 1.079000e+02 -4.800000e+00
        vertex -7.434315e+00 1.079000e+02 -4.634315e+00
        vertex -2.828427e+00 1.079000e+02 -2.371573e+00
    endloop
endfacet
facet normal 0.000000e+00 1.000000e+00 0.000000e+00
    outer loop
        vertex -2.828427e+00 1.079000e+02 -8.028427e+00
        vertex -7.600000e+00 1.079000e+02 -5.892820e+00
        vertex -7.434315e+00 1.079000e+02 -5.765686e+00
    endloop
endfacet
facet normal 0.000000e+00 1.000000e+00 0.000000e+00
    outer loop
        vertex -2.000000e+00 1.079000e+02 -8.664102e+00
        vertex -7.600000e+00 1.079000e+02 -5.892820e+00
        vertex -2.828427e+00 1.079000e+02 -8.028427e+00
    endloop
endfacet
facet normal 0.000000e+00 1.000000e+00 0.000000e+00
    outer loop
        vertex 2.828427e+00 1.079000e+02 -8.028427e+00
        vertex 7.434315e+00 1.079000e+02 -5.765686e+00
        vertex 7.600000e+00 1.079000e+02 -5.892820e+00
    endloop
endfacet
facet normal 0.000000e+00 1.000000e+00 0.000000e+00
    outer loop
        vertex 2.000000e+00 1.079000e+02 -8.664102e+00
        vertex 2.828427e+00 1.079000e+02 -8.028427e+00
        vertex 7.600000e+00 1.079000e+02 -5.892820e+00
    endloop
endfacet
facet normal 0.000000e+00 1.000000e+00 -0.000000e+00
    outer loop
        vertex 7.434315e+00 1.079000e+02 -4.634315e+00
        vertex 2.828427e+00 1.079000e+02 -2.371573e+00
        vertex 7.600000e+00 1.079000e+02 -4.507180e+00
    endloop
endfacet
facet normal 0.000000e+00 1.000000e+00 0.000000e+00
    outer loop
        vertex 7.600000e+00 1.079000e+02 -4.507180e+00
        vertex 2.828427e+00 1.079000e+02 -2.371573e+00
        vertex 2.000000e+00 1.079000e+02 -1.735898e+00
    endloop
endfacet
facet normal 0.000000e+00 1.000000e+00 -0.000000e+00
    outer loop
        vertex -7.434315e+00 1.079000e+02 -4.634315e+00
        vertex -7.600000e+00 1.079000e+02 -4.507180e+00
        vertex -2.828427e+00 1.079000e+02 -2.371573e+00
    endloop
endfacet
facet normal 0.000000e+00 1.000000e+00 0.000000e+00
    outer loop
        vertex -7.600000e+00 1.079000e+02 -4.507180e+00
        vertex -2.000000e+00 1.079000e+02 -1.735898e+00
        vertex -2.828427e+00 1.079000e+02 -2.371573e+00
    endloop
endfacet
facet normal 0.000000e+00 1.000000e+00 0.000000e+00
    outer loop
        vertex -2.000000e+00 1.079000e+02 -8.664102e+00
        vertex -7.792945e+00 1.079000e+02 -5.972741e+00
        vertex -7.600000e+00 1.079000e+02 -5.892820e+00
    endloop
endfacet
facet normal 0.000000e+00 1.000000e+00 0.000000e+00
    outer loop
        vertex 2.000000e+00 1.079000e+02 -8.664102e+00
        vertex 7.600000e+00 1.079000e+02 -5.892820e+00
        vertex 7.792945e+00 1.079000e+02 -5.972741e+00
    endloop
endfacet
facet normal 0.000000e+00 1.000000e+00 -0.000000e+00
    outer loop
        vertex 7.600000e+00 1.079000e+02 -4.507180e+00
        vertex 2.000000e+00 1.079000e+02 -1.735898e+00
        vertex 7.792945e+00 1.079000e+02 -4.427259e+00
    endloop
endfacet
facet normal 0.000000e+00 1.000000e+00 -0.000000e+00
    outer loop
        vertex -7.600000e+00 1.079000e+02 -4.507180e+00
        vertex -7.792945e+00 1.079000e+02 -4.427259e+00
        vertex -2.000000e+00 1.079000e+02 -1.735898e+00
    endloop
endfacet
facet normal 0.000000e+00 1.000000e+00 -0.000000e+00
    outer loop
        vertex -8.400000e+00 1.079000e+02 -4.507180e+00
        vertex -1.250000e+01 1.079000e+02 7.000000e+00
        vertex -8.207055e+00 1.079000e+02 -4.427259e+00
    endloop
endfacet
facet normal 0.000000e+00 1.000000e+00 0.000000e+00
    outer loop
        vertex -2.000000e+00 1.079000e+02 -8.664102e+00
        vertex -8.000000e+00 1.079000e+02 -6.000000e+00
        vertex -7.792945e+00 1.079000e+02 -5.972741e+00
    endloop
endfacet
facet normal 0.000000e+00 1.000000e+00 0.000000e+00
    outer loop
        vertex 2.000000e+00 1.079000e+02 -8.664102e+00
        vertex 7.792945e+00 1.079000e+02 -5.972741e+00
        vertex 8.000000e+00 1.079000e+02 -6.000000e+00
    endloop
endfacet
facet normal 0.000000e+00 1.000000e+00 -0.000000e+00
    outer loop
        vertex 7.792945e+00 1.079000e+02 -4.427259e+00
        vertex 2.000000e+00 1.079000e+02 -1.735898e+00
        vertex 8.000000e+00 1.079000e+02 -4.400000e+00
    endloop
endfacet
facet normal 0.000000e+00 1.000000e+00 -0.000000e+00
    outer loop
        vertex -7.792945e+00 1.079000e+02 -4.427259e+00
        vertex -8.000000e+00 1.079000e+02 -4.400000e+00
        vertex -2.000000e+00 1.079000e+02 -1.735898e+00
    endloop
endfacet
facet normal 0.000000e+00 1.000000e+00 -0.000000e+00
    outer loop
        vertex -8.565685e+00 1.079000e+02 -4.634315e+00
        vertex -1.250000e+01 1.079000e+02 7.000000e+00
        vertex -8.400000e+00 1.079000e+02 -4.507180e+00
    endloop
endfacet
facet normal 0.000000e+00 1.000000e+00 -0.000000e+00
    outer loop
        vertex -8.692821e+00 1.079000e+02 -4.800000e+00
        vertex -1.250000e+01 1.079000e+02 7.000000e+00
        vertex -8.565685e+00 1.079000e+02 -4.634315e+00
    endloop
endfacet
facet normal 0.000000e+00 1.000000e+00 -0.000000e+00
    outer loop
        vertex -8.772740e+00 1.079000e+02 -4.992945e+00
        vertex -1.250000e+01 1.079000e+02 7.000000e+00
        vertex -8.692821e+00 1.079000e+02 -4.800000e+00
    endloop
endfacet
facet normal 0.000000e+00 1.000000e+00 0.000000e+00
    outer loop
        vertex -1.250000e+01 1.079000e+02 -1.800000e+01
        vertex -1.250000e+01 1.079000e+02 7.000000e+00
        vertex -8.772740e+00 1.079000e+02 -4.992945e+00
    endloop
endfacet
facet normal 0.000000e+00 1.000000e+00 0.000000e+00
    outer loop
        vertex -2.000000e+00 1.079000e+02 -8.664102e+00
        vertex -8.207055e+00 1.079000e+02 -5.972741e+00
        vertex -8.000000e+00 1.079000e+02 -6.000000e+00
    endloop
endfacet
facet normal 0.000000e+00 1.000000e+00 0.000000e+00
    outer loop
        vertex 2.000000e+00 1.079000e+02 -8.664102e+00
        vertex 8.000000e+00 1.079000e+02 -6.000000e+00
        vertex 8.207055e+00 1.079000e+02 -5.972741e+00
    endloop
endfacet
facet normal 0.000000e+00 1.000000e+00 0.000000e+00
    outer loop
        vertex 8.207055e+00 1.079000e+02 -4.427259e+00
        vertex 8.000000e+00 1.079000e+02 -4.400000e+00
        vertex 2.000000e+00 1.079000e+02 -1.735898e+00
    endloop
endfacet
facet normal 0.000000e+00 1.000000e+00 0.000000e+00
    outer loop
        vertex -8.207055e+00 1.079000e+02 -4.427259e+00
        vertex -2.000000e+00 1.079000e+02 -1.735898e+00
        vertex -8.000000e+00 1.079000e+02 -4.400000e+00
    endloop
endfacet
facet normal 0.000000e+00 1.000000e+00 0.000000e+00
    outer loop
        vertex -8.207055e+00 1.079000e+02 -4.427259e+00
        vertex 1.250000e+01 1.079000e+02 7.000000e+00
        vertex -2.000000e+00 1.079000e+02 -1.735898e+00
    endloop
endfacet
facet normal 0.000000e+00 1.000000e+00 0.000000e+00
    outer loop
        vertex -2.000000e+00 1.079000e+02 -1.735898e+00
        vertex 1.250000e+01 1.079000e+02 7.000000e+00
        vertex -1.035276e+00 1.079000e+02 -1.336297e+00
    endloop
endfacet
facet normal 0.000000e+00 1.000000e+00 0.000000e+00
    outer loop
        vertex -1.035276e+00 1.079000e+02 -1.336297e+00
        vertex 1.250000e+01 1.079000e+02 7.000000e+00
        vertex 0.000000e+00 1.079000e+02 -1.200000e+00
    endloop
endfacet
facet normal 0.000000e+00 1.000000e+00 -0.000000e+00
    outer loop
        vertex 1.035276e+00 1.079000e+02 -1.336297e+00
        vertex 0.000000e+00 1.079000e+02 -1.200000e+00
        vertex 1.250000e+01 1.079000e+02 7.000000e+00
    endloop
endfacet
facet normal 0.000000e+00 1.000000e+00 -0.000000e+00
    outer loop
        vertex 2.000000e+00 1.079000e+02 -1.735898e+00
        vertex 1.035276e+00 1.079000e+02 -1.336297e+00
        vertex 1.250000e+01 1.079000e+02 7.000000e+00
    endloop
endfacet
facet normal 0.000000e+00 1.000000e+00 -0.000000e+00
    outer loop
        vertex 8.207055e+00 1.079000e+02 -4.427259e+00
        vertex 2.000000e+00 1.079000e+02 -1.735898e+00
        vertex 1.250000e+01 1.079000e+02 7.000000e+00
    endloop
endfacet
facet normal 0.000000e+00 1.000000e+00 -0.000000e+00
    outer loop
        vertex 8.400000e+00 1.079000e+02 -4.507180e+00
        vertex 8.207055e+00 1.079000e+02 -4.427259e+00
        vertex 1.250000e+01 1.079000e+02 7.000000e+00
    endloop
endfacet
facet normal 0.000000e+00 1.000000e+00 -0.000000e+00
    outer loop
        vertex 8.565685e+00 1.079000e+02 -4.634315e+00
        vertex 8.400000e+00 1.079000e+02 -4.507180e+00
        vertex 1.250000e+01 1.079000e+02 7.000000e+00
    endloop
endfacet
facet normal 0.000000e+00 1.000000e+00 -0.000000e+00
    outer loop
        vertex 8.692821e+00 1.079000e+02 -4.800000e+00
        vertex 8.565685e+00 1.079000e+02 -4.634315e+00
        vertex 1.250000e+01 1.079000e+02 7.000000e+00
    endloop
endfacet
facet normal 0.000000e+00 1.000000e+00 -0.000000e+00
    outer loop
        vertex 8.772740e+00 1.079000e+02 -4.992945e+00
        vertex 8.692821e+00 1.079000e+02 -4.800000e+00
        vertex 1.250000e+01 1.079000e+02 7.000000e+00
    endloop
endfacet
facet normal 0.000000e+00 1.000000e+00 -0.000000e+00
    outer loop
        vertex 1.250000e+01 1.079000e+02 -1.800000e+01
        vertex 8.772740e+00 1.079000e+02 -4.992945e+00
        vertex 1.250000e+01 1.079000e+02 7.000000e+00
    endloop
endfacet
facet normal 0.000000e+00 1.000000e+00 0.000000e+00
    outer loop
        vertex -1.250000e+01 1.079000e+02 -1.800000e+01
        vertex -8.772740e+00 1.079000e+02 -4.992945e+00
        vertex -8.800000e+00 1.079000e+02 -5.200000e+00
    endloop
endfacet
facet normal 0.000000e+00 1.000000e+00 0.000000e+00
    outer loop
        vertex -1.250000e+01 1.079000e+02 -1.800000e+01
        vertex -8.800000e+00 1.079000e+02 -5.200000e+00
        vertex -8.772740e+00 1.079000e+02 -5.407055e+00
    endloop
endfacet
facet normal 0.000000e+00 1.000000e+00 0.000000e+00
    outer loop
        vertex -1.250000e+01 1.079000e+02 -1.800000e+01
        vertex -8.772740e+00 1.079000e+02 -5.407055e+00
        vertex -8.692821e+00 1.079000e+02 -5.600000e+00
    endloop
endfacet
facet normal 0.000000e+00 1.000000e+00 0.000000e+00
    outer loop
        vertex -1.250000e+01 1.079000e+02 -1.800000e+01
        vertex -8.692821e+00 1.079000e+02 -5.600000e+00
        vertex -8.565685e+00 1.079000e+02 -5.765686e+00
    endloop
endfacet
facet normal 0.000000e+00 1.000000e+00 0.000000e+00
    outer loop
        vertex -1.250000e+01 1.079000e+02 -1.800000e+01
        vertex -8.565685e+00 1.079000e+02 -5.765686e+00
        vertex -8.400000e+00 1.079000e+02 -5.892820e+00
    endloop
endfacet
facet normal 0.000000e+00 1.000000e+00 0.000000e+00
    outer loop
        vertex 1.250000e+01 1.079000e+02 -1.800000e+01
        vertex -1.250000e+01 1.079000e+02 -1.800000e+01
        vertex -8.400000e+00 1.079000e+02 -5.892820e+00
    endloop
endfacet
facet normal 0.000000e+00 1.000000e+00 0.000000e+00
    outer loop
        vertex 1.250000e+01 1.079000e+02 -1.800000e+01
        vertex 8.800000e+00 1.079000e+02 -5.200000e+00
        vertex 8.772740e+00 1.079000e+02 -4.992945e+00
    endloop
endfacet
facet normal 0.000000e+00 1.000000e+00 0.000000e+00
    outer loop
        vertex 1.250000e+01 1.079000e+02 -1.800000e+01
        vertex 8.772740e+00 1.079000e+02 -5.407055e+00
        vertex 8.800000e+00 1.079000e+02 -5.200000e+00
    endloop
endfacet
facet normal 0.000000e+00 1.000000e+00 0.000000e+00
    outer loop
        vertex 1.250000e+01 1.079000e+02 -1.800000e+01
        vertex 8.692821e+00 1.079000e+02 -5.600000e+00
        vertex 8.772740e+00 1.079000e+02 -5.407055e+00
    endloop
endfacet
facet normal 0.000000e+00 1.000000e+00 0.000000e+00
    outer loop
        vertex 1.250000e+01 1.079000e+02 -1.800000e+01
        vertex 8.565685e+00 1.079000e+02 -5.765686e+00
        vertex 8.692821e+00 1.079000e+02 -5.600000e+00
    endloop
endfacet
facet normal 0.000000e+00 1.000000e+00 0.000000e+00
    outer loop
        vertex 1.250000e+01 1.079000e+02 -1.800000e+01
        vertex 8.400000e+00 1.079000e+02 -5.892820e+00
        vertex 8.565685e+00 1.079000e+02 -5.765686e+00
    endloop
endfacet
facet normal 0.000000e+00 1.000000e+00 0.000000e+00
    outer loop
        vertex 1.250000e+01 1.079000e+02 -1.800000e+01
        vertex 8.207055e+00 1.079000e+02 -5.972741e+00
        vertex 8.400000e+00 1.079000e+02 -5.892820e+00
    endloop
endfacet
facet normal 0.000000e+00 1.000000e+00 0.000000e+00
    outer loop
        vertex 1.250000e+01 1.079000e+02 -1.800000e+01
        vertex 2.000000e+00 1.079000e+02 -8.664102e+00
        vertex 8.207055e+00 1.079000e+02 -5.972741e+00
    endloop
endfacet
facet normal 0.000000e+00 1.000000e+00 0.000000e+00
    outer loop
        vertex 1.250000e+01 1.079000e+02 -1.800000e+01
        vertex 1.035276e+00 1.079000e+02 -9.063704e+00
        vertex 2.000000e+00 1.079000e+02 -8.664102e+00
    endloop
endfacet
facet normal 0.000000e+00 1.000000e+00 0.000000e+00
    outer loop
        vertex 1.250000e+01 1.079000e+02 -1.800000e+01
        vertex 8.881784e-16 1.079000e+02 -9.200000e+00
        vertex 1.035276e+00 1.079000e+02 -9.063704e+00
    endloop
endfacet
facet normal 0.000000e+00 1.000000e+00 0.000000e+00
    outer loop
        vertex 1.250000e+01 1.079000e+02 -1.800000e+01
        vertex -1.035276e+00 1.079000e+02 -9.063704e+00
        vertex 8.881784e-16 1.079000e+02 -9.200000e+00
    endloop
endfacet
facet normal 0.000000e+00 1.000000e+00 0.000000e+00
    outer loop
        vertex 1.250000e+01 1.079000e+02 -1.800000e+01
        vertex -2.000000e+00 1.079000e+02 -8.664102e+00
        vertex -1.035276e+00 1.079000e+02 -9.063704e+00
    endloop
endfacet
facet normal 0.000000e+00 1.000000e+00 0.000000e+00
    outer loop
        vertex 1.250000e+01 1.079000e+02 -1.800000e+01
        vertex -8.400000e+00 1.079000e+02 -5.892820e+00
        vertex -8.207055e+00 1.079000e+02 -5.972741e+00
    endloop
endfacet
facet normal 0.000000e+00 1.000000e+00 0.000000e+00
    outer loop
        vertex 1.250000e+01 1.079000e+02 -1.800000e+01
        vertex -8.207055e+00 1.079000e+02 -5.972741e+00
        vertex -2.000000e+00 1.079000e+02 -8.664102e+00
    endloop
endfacet
facet normal 0.000000e+00 1.000000e+00 0.000000e+00
    outer loop
        vertex 8.772740e+00 1.096000e+02 -5.407055e+00
        vertex 8.772740e+00 1.096000e+02 -4.992945e+00
        vertex 8.800000e+00 1.096000e+02 -5.200000e+00
    endloop
endfacet
facet normal 0.000000e+00 1.000000e+00 -0.000000e+00
    outer loop
        vertex 8.772740e+00 1.096000e+02 -5.407055e+00
        vertex 8.692821e+00 1.096000e+02 -4.800000e+00
        vertex 8.772740e+00 1.096000e+02 -4.992945e+00
    endloop
endfacet
facet normal 0.000000e+00 1.000000e+00 0.000000e+00
    outer loop
        vertex 8.772740e+00 1.096000e+02 -5.407055e+00
        vertex 8.565685e+00 1.096000e+02 -4.634315e+00
        vertex 8.692821e+00 1.096000e+02 -4.800000e+00
    endloop
endfacet
facet normal 0.000000e+00 1.000000e+00 0.000000e+00
    outer loop
        vertex 8.772740e+00 1.096000e+02 -5.407055e+00
        vertex 8.400000e+00 1.096000e+02 -4.507180e+00
        vertex 8.565685e+00 1.096000e+02 -4.634315e+00
    endloop
endfacet
facet normal 0.000000e+00 1.000000e+00 0.000000e+00
    outer loop
        vertex 8.772740e+00 1.096000e+02 -5.407055e+00
        vertex 8.207055e+00 1.096000e+02 -4.427259e+00
        vertex 8.400000e+00 1.096000e+02 -4.507180e+00
    endloop
endfacet
facet normal 0.000000e+00 1.000000e+00 0.000000e+00
    outer loop
        vertex 8.772740e+00 1.096000e+02 -5.407055e+00
        vertex 8.000000e+00 1.096000e+02 -4.400000e+00
        vertex 8.207055e+00 1.096000e+02 -4.427259e+00
    endloop
endfacet
facet normal 0.000000e+00 1.000000e+00 0.000000e+00
    outer loop
        vertex 8.772740e+00 1.096000e+02 -5.407055e+00
        vertex 7.792945e+00 1.096000e+02 -4.427259e+00
        vertex 8.000000e+00 1.096000e+02 -4.400000e+00
    endloop
endfacet
facet normal 0.000000e+00 1.000000e+00 0.000000e+00
    outer loop
        vertex 8.772740e+00 1.096000e+02 -5.407055e+00
        vertex 7.600000e+00 1.096000e+02 -4.507180e+00
        vertex 7.792945e+00 1.096000e+02 -4.427259e+00
    endloop
endfacet
facet normal 0.000000e+00 1.000000e+00 0.000000e+00
    outer loop
        vertex 8.772740e+00 1.096000e+02 -5.407055e+00
        vertex 7.434315e+00 1.096000e+02 -4.634315e+00
        vertex 7.600000e+00 1.096000e+02 -4.507180e+00
    endloop
endfacet
facet normal 0.000000e+00 1.000000e+00 0.000000e+00
    outer loop
        vertex 8.772740e+00 1.096000e+02 -5.407055e+00
        vertex 7.307179e+00 1.096000e+02 -4.800000e+00
        vertex 7.434315e+00 1.096000e+02 -4.634315e+00
    endloop
endfacet
facet normal 0.000000e+00 1.000000e+00 0.000000e+00
    outer loop
        vertex 8.772740e+00 1.096000e+02 -5.407055e+00
        vertex 7.227259e+00 1.096000e+02 -4.992945e+00
        vertex 7.307179e+00 1.096000e+02 -4.800000e+00
    endloop
endfacet
facet normal 0.000000e+00 1.000000e+00 0.000000e+00
    outer loop
        vertex 8.772740e+00 1.096000e+02 -5.407055e+00
        vertex 7.200000e+00 1.096000e+02 -5.200000e+00
        vertex 7.227259e+00 1.096000e+02 -4.992945e+00
    endloop
endfacet
facet normal 0.000000e+00 1.000000e+00 -0.000000e+00
    outer loop
        vertex 7.227259e+00 1.096000e+02 -5.407055e+00
        vertex 7.200000e+00 1.096000e+02 -5.200000e+00
        vertex 8.772740e+00 1.096000e+02 -5.407055e+00
    endloop
endfacet
facet normal 0.000000e+00 1.000000e+00 -0.000000e+00
    outer loop
        vertex 7.307179e+00 1.096000e+02 -5.600000e+00
        vertex 7.227259e+00 1.096000e+02 -5.407055e+00
        vertex 8.772740e+00 1.096000e+02 -5.407055e+00
    endloop
endfacet
facet normal 0.000000e+00 1.000000e+00 -0.000000e+00
    outer loop
        vertex 7.434315e+00 1.096000e+02 -5.765686e+00
        vertex 7.307179e+00 1.096000e+02 -5.600000e+00
        vertex 8.772740e+00 1.096000e+02 -5.407055e+00
    endloop
endfacet
facet normal 0.000000e+00 1.000000e+00 0.000000e+00
    outer loop
        vertex 7.434315e+00 1.096000e+02 -5.765686e+00
        vertex 8.772740e+00 1.096000e+02 -5.407055e+00
        vertex 8.692821e+00 1.096000e+02 -5.600000e+00
    endloop
endfacet
facet normal 0.000000e+00 1.000000e+00 0.000000e+00
    outer loop
        vertex 7.434315e+00 1.096000e+02 -5.765686e+00
        vertex 8.692821e+00 1.096000e+02 -5.600000e+00
        vertex 8.565685e+00 1.096000e+02 -5.765686e+00
    endloop
endfacet
facet normal 0.000000e+00 1.000000e+00 -0.000000e+00
    outer loop
        vertex 8.400000e+00 1.096000e+02 -5.892820e+00
        vertex 7.434315e+00 1.096000e+02 -5.765686e+00
        vertex 8.565685e+00 1.096000e+02 -5.765686e+00
    endloop
endfacet
facet normal 0.000000e+00 1.000000e+00 -0.000000e+00
    outer loop
        vertex 7.600000e+00 1.096000e+02 -5.892820e+00
        vertex 7.434315e+00 1.096000e+02 -5.765686e+00
        vertex 8.400000e+00 1.096000e+02 -5.892820e+00
    endloop
endfacet
facet normal 0.000000e+00 1.000000e+00 -0.000000e+00
    outer loop
        vertex 7.792945e+00 1.096000e+02 -5.972741e+00
        vertex 7.600000e+00 1.096000e+02 -5.892820e+00
        vertex 8.400000e+00 1.096000e+02 -5.892820e+00
    endloop
endfacet
facet normal 0.000000e+00 1.000000e+00 0.000000e+00
    outer loop
        vertex 7.792945e+00 1.096000e+02 -5.972741e+00
        vertex 8.400000e+00 1.096000e+02 -5.892820e+00
        vertex 8.207055e+00 1.096000e+02 -5.972741e+00
    endloop
endfacet
facet normal 0.000000e+00 1.000000e+00 -0.000000e+00
    outer loop
        vertex 8.000000e+00 1.096000e+02 -6.000000e+00
        vertex 7.792945e+00 1.096000e+02 -5.972741e+00
        vertex 8.207055e+00 1.096000e+02 -5.972741e+00
    endloop
endfacet
facet normal 0.000000e+00 1.000000e+00 -0.000000e+00
    outer loop
        vertex -8.772740e+00 1.096000e+02 -5.407055e+00
        vertex -8.800000e+00 1.096000e+02 -5.200000e+00
        vertex -8.772740e+00 1.096000e+02 -4.992945e+00
    endloop
endfacet
facet normal 0.000000e+00 1.000000e+00 0.000000e+00
    outer loop
        vertex -8.692821e+00 1.096000e+02 -5.600000e+00
        vertex -8.772740e+00 1.096000e+02 -5.407055e+00
        vertex -8.772740e+00 1.096000e+02 -4.992945e+00
    endloop
endfacet
facet normal 0.000000e+00 1.000000e+00 0.000000e+00
    outer loop
        vertex -8.565685e+00 1.096000e+02 -5.765686e+00
        vertex -8.692821e+00 1.096000e+02 -5.600000e+00
        vertex -8.772740e+00 1.096000e+02 -4.992945e+00
    endloop
endfacet
facet normal 0.000000e+00 1.000000e+00 0.000000e+00
    outer loop
        vertex -8.400000e+00 1.096000e+02 -5.892820e+00
        vertex -8.565685e+00 1.096000e+02 -5.765686e+00
        vertex -8.772740e+00 1.096000e+02 -4.992945e+00
    endloop
endfacet
facet normal 0.000000e+00 1.000000e+00 0.000000e+00
    outer loop
        vertex -8.207055e+00 1.096000e+02 -5.972741e+00
        vertex -8.400000e+00 1.096000e+02 -5.892820e+00
        vertex -8.772740e+00 1.096000e+02 -4.992945e+00
    endloop
endfacet
facet normal 0.000000e+00 1.000000e+00 0.000000e+00
    outer loop
        vertex -8.000000e+00 1.096000e+02 -6.000000e+00
        vertex -8.207055e+00 1.096000e+02 -5.972741e+00
        vertex -8.772740e+00 1.096000e+02 -4.992945e+00
    endloop
endfacet
facet normal 0.000000e+00 1.000000e+00 -0.000000e+00
    outer loop
        vertex -8.000000e+00 1.096000e+02 -6.000000e+00
        vertex -8.772740e+00 1.096000e+02 -4.992945e+00
        vertex -7.792945e+00 1.096000e+02 -5.972741e+00
    endloop
endfacet
facet normal 0.000000e+00 1.000000e+00 -0.000000e+00
    outer loop
        vertex -7.792945e+00 1.096000e+02 -5.972741e+00
        vertex -8.772740e+00 1.096000e+02 -4.992945e+00
        vertex -7.600000e+00 1.096000e+02 -5.892820e+00
    endloop
endfacet
facet normal 0.000000e+00 1.000000e+00 -0.000000e+00
    outer loop
        vertex -7.600000e+00 1.096000e+02 -5.892820e+00
        vertex -8.772740e+00 1.096000e+02 -4.992945e+00
        vertex -7.434315e+00 1.096000e+02 -5.765686e+00
    endloop
endfacet
facet normal 0.000000e+00 1.000000e+00 -0.000000e+00
    outer loop
        vertex -7.434315e+00 1.096000e+02 -5.765686e+00
        vertex -8.772740e+00 1.096000e+02 -4.992945e+00
        vertex -7.307179e+00 1.096000e+02 -5.600000e+00
    endloop
endfacet
facet normal 0.000000e+00 1.000000e+00 -0.000000e+00
    outer loop
        vertex -7.307179e+00 1.096000e+02 -5.600000e+00
        vertex -8.772740e+00 1.096000e+02 -4.992945e+00
        vertex -7.227259e+00 1.096000e+02 -5.407055e+00
    endloop
endfacet
facet normal 0.000000e+00 1.000000e+00 -0.000000e+00
    outer loop
        vertex -7.227259e+00 1.096000e+02 -5.407055e+00
        vertex -8.772740e+00 1.096000e+02 -4.992945e+00
        vertex -7.200000e+00 1.096000e+02 -5.200000e+00
    endloop
endfacet
facet normal 0.000000e+00 1.000000e+00 0.000000e+00
    outer loop
        vertex -7.200000e+00 1.096000e+02 -5.200000e+00
        vertex -8.772740e+00 1.096000e+02 -4.992945e+00
        vertex -7.227259e+00 1.096000e+02 -4.992945e+00
    endloop
endfacet
facet normal 0.000000e+00 1.000000e+00 0.000000e+00
    outer loop
        vertex -7.227259e+00 1.096000e+02 -4.992945e+00
        vertex -8.772740e+00 1.096000e+02 -4.992945e+00
        vertex -7.307179e+00 1.096000e+02 -4.800000e+00
    endloop
endfacet
facet normal 0.000000e+00 1.000000e+00 0.000000e+00
    outer loop
        vertex -8.772740e+00 1.096000e+02 -4.992945e+00
        vertex -7.434315e+00 1.096000e+02 -4.634315e+00
        vertex -7.307179e+00 1.096000e+02 -4.800000e+00
    endloop
endfacet
facet normal 0.000000e+00 1.000000e+00 0.000000e+00
    outer loop
        vertex -8.772740e+00 1.096000e+02 -4.992945e+00
        vertex -8.692821e+00 1.096000e+02 -4.800000e+00
        vertex -7.434315e+00 1.096000e+02 -4.634315e+00
    endloop
endfacet
facet normal 0.000000e+00 1.000000e+00 0.000000e+00
    outer loop
        vertex -8.692821e+00 1.096000e+02 -4.800000e+00
        vertex -8.565685e+00 1.096000e+02 -4.634315e+00
        vertex -7.434315e+00 1.096000e+02 -4.634315e+00
    endloop
endfacet
facet normal 0.000000e+00 1.000000e+00 0.000000e+00
    outer loop
        vertex -7.434315e+00 1.096000e+02 -4.634315e+00
        vertex -8.565685e+00 1.096000e+02 -4.634315e+00
        vertex -8.400000e+00 1.096000e+02 -4.507180e+00
    endloop
endfacet
facet normal 0.000000e+00 1.000000e+00 0.000000e+00
    outer loop
        vertex -7.434315e+00 1.096000e+02 -4.634315e+00
        vertex -8.400000e+00 1.096000e+02 -4.507180e+00
        vertex -7.600000e+00 1.096000e+02 -4.507180e+00
    endloop
endfacet
facet normal 0.000000e+00 1.000000e+00 0.000000e+00
    outer loop
        vertex -7.600000e+00 1.096000e+02 -4.507180e+00
        vertex -8.400000e+00 1.096000e+02 -4.507180e+00
        vertex -7.792945e+00 1.096000e+02 -4.427259e+00
    endloop
endfacet
facet normal 0.000000e+00 1.000000e+00 0.000000e+00
    outer loop
        vertex -7.792945e+00 1.096000e+02 -4.427259e+00
        vertex -8.207055e+00 1.096000e+02 -4.427259e+00
        vertex -8.000000e+00 1.096000e+02 -4.400000e+00
    endloop
endfacet
facet normal 0.000000e+00 1.000000e+00 0.000000e+00
    outer loop
        vertex -8.400000e+00 1.096000e+02 -4.507180e+00
        vertex -8.207055e+00 1.096000e+02 -4.427259e+00
        vertex -7.792945e+00 1.096000e+02 -4.427259e+00
    endloop
endfacet
facet normal 1.305263e-01 -0.000000e+00 9.914448e-01
    outer loop
        vertex 8.000000e+00 1.079000e+02 -4.400000e+00
        vertex 8.207055e+00 1.096000e+02 -4.427259e+00
        vertex 8.000000e+00 1.096000e+02 -4.400000e+00
    endloop
endfacet
facet normal 1.305263e-01 -0.000000e+00 9.914448e-01
    outer loop
        vertex 8.207055e+00 1.079000e+02 -4.427259e+00
        vertex 8.207055e+00 1.096000e+02 -4.427259e+00
        vertex 8.000000e+00 1.079000e+02 -4.400000e+00
    endloop
endfacet
facet normal 3.826836e-01 -0.000000e+00 9.238794e-01
    outer loop
        vertex 8.207055e+00 1.079000e+02 -4.427259e+00
        vertex 8.400000e+00 1.096000e+02 -4.507180e+00
        vertex 8.207055e+00 1.096000e+02 -4.427259e+00
    endloop
endfacet
facet normal 3.826836e-01 -0.000000e+00 9.238794e-01
    outer loop
        vertex 8.400000e+00 1.079000e+02 -4.507180e+00
        vertex 8.400000e+00 1.096000e+02 -4.507180e+00
        vertex 8.207055e+00 1.079000e+02 -4.427259e+00
    endloop
endfacet
facet normal 6.087606e-01 -0.000000e+00 7.933540e-01
    outer loop
        vertex 8.400000e+00 1.079000e+02 -4.507180e+00
        vertex 8.565685e+00 1.096000e+02 -4.634315e+00
        vertex 8.400000e+00 1.096000e+02 -4.507180e+00
    endloop
endfacet
facet normal 6.087606e-01 -0.000000e+00 7.933540e-01
    outer loop
        vertex 8.565685e+00 1.079000e+02 -4.634315e+00
        vertex 8.565685e+00 1.096000e+02 -4.634315e+00
        vertex 8.400000e+00 1.079000e+02 -4.507180e+00
    endloop
endfacet
facet normal 7.933528e-01 -0.000000e+00 6.087620e-01
    outer loop
        vertex 8.565685e+00 1.079000e+02 -4.634315e+00
        vertex 8.692821e+00 1.096000e+02 -4.800000e+00
        vertex 8.565685e+00 1.096000e+02 -4.634315e+00
    endloop
endfacet
facet normal 7.933528e-01 -0.000000e+00 6.087620e-01
    outer loop
        vertex 8.692821e+00 1.079000e+02 -4.800000e+00
        vertex 8.692821e+00 1.096000e+02 -4.800000e+00
        vertex 8.565685e+00 1.079000e+02 -4.634315e+00
    endloop
endfacet
facet normal 9.238803e-01 -0.000000e+00 3.826817e-01
    outer loop
        vertex 8.692821e+00 1.079000e+02 -4.800000e+00
        vertex 8.772740e+00 1.096000e+02 -4.992945e+00
        vertex 8.692821e+00 1.096000e+02 -4.800000e+00
    endloop
endfacet
facet normal 9.238803e-01 -0.000000e+00 3.826817e-01
    outer loop
        vertex 8.772740e+00 1.079000e+02 -4.992945e+00
        vertex 8.772740e+00 1.096000e+02 -4.992945e+00
        vertex 8.692821e+00 1.079000e+02 -4.800000e+00
    endloop
endfacet
facet normal 9.914445e-01 -0.000000e+00 1.305286e-01
    outer loop
        vertex 8.772740e+00 1.079000e+02 -4.992945e+00
        vertex 8.800000e+00 1.096000e+02 -5.200000e+00
        vertex 8.772740e+00 1.096000e+02 -4.992945e+00
    endloop
endfacet
facet normal 9.914445e-01 -0.000000e+00 1.305286e-01
    outer loop
        vertex 8.800000e+00 1.079000e+02 -5.200000e+00
        vertex 8.800000e+00 1.096000e+02 -5.200000e+00
        vertex 8.772740e+00 1.079000e+02 -4.992945e+00
    endloop
endfacet
facet normal 9.914446e-01 0.000000e+00 -1.305283e-01
    outer loop
        vertex 8.800000e+00 1.079000e+02 -5.200000e+00
        vertex 8.772740e+00 1.096000e+02 -5.407055e+00
        vertex 8.800000e+00 1.096000e+02 -5.200000e+00
    endloop
endfacet
facet normal 9.914446e-01 0.000000e+00 -1.305283e-01
    outer loop
        vertex 8.772740e+00 1.079000e+02 -5.407055e+00
        vertex 8.772740e+00 1.096000e+02 -5.407055e+00
        vertex 8.800000e+00 1.079000e+02 -5.200000e+00
    endloop
endfacet
facet normal 9.238803e-01 0.000000e+00 -3.826817e-01
    outer loop
        vertex 8.772740e+00 1.079000e+02 -5.407055e+00
        vertex 8.692821e+00 1.096000e+02 -5.600000e+00
        vertex 8.772740e+00 1.096000e+02 -5.407055e+00
    endloop
endfacet
facet normal 9.238803e-01 0.000000e+00 -3.826817e-01
    outer loop
        vertex 8.692821e+00 1.079000e+02 -5.600000e+00
        vertex 8.692821e+00 1.096000e+02 -5.600000e+00
        vertex 8.772740e+00 1.079000e+02 -5.407055e+00
    endloop
endfacet
facet normal 7.933528e-01 0.000000e+00 -6.087620e-01
    outer loop
        vertex 8.692821e+00 1.079000e+02 -5.600000e+00
        vertex 8.565685e+00 1.096000e+02 -5.765686e+00
        vertex 8.692821e+00 1.096000e+02 -5.600000e+00
    endloop
endfacet
facet normal 7.933528e-01 0.000000e+00 -6.087620e-01
    outer loop
        vertex 8.565685e+00 1.079000e+02 -5.765686e+00
        vertex 8.565685e+00 1.096000e+02 -5.765686e+00
        vertex 8.692821e+00 1.079000e+02 -5.600000e+00
    endloop
endfacet
facet normal 6.087606e-01 0.000000e+00 -7.933540e-01
    outer loop
        vertex 8.565685e+00 1.079000e+02 -5.765686e+00
        vertex 8.400000e+00 1.096000e+02 -5.892820e+00
        vertex 8.565685e+00 1.096000e+02 -5.765686e+00
    endloop
endfacet
facet normal 6.087606e-01 0.000000e+00 -7.933540e-01
    outer loop
        vertex 8.400000e+00 1.079000e+02 -5.892820e+00
        vertex 8.400000e+00 1.096000e+02 -5.892820e+00
        vertex 8.565685e+00 1.079000e+02 -5.765686e+00
    endloop
endfacet
facet normal 3.826836e-01 0.000000e+00 -9.238794e-01
    outer loop
        vertex 8.400000e+00 1.079000e+02 -5.892820e+00
        vertex 8.207055e+00 1.096000e+02 -5.972741e+00
        vertex 8.400000e+00 1.096000e+02 -5.892820e+00
    endloop
endfacet
facet normal 3.826836e-01 0.000000e+00 -9.238794e-01
    outer loop
        vertex 8.207055e+00 1.079000e+02 -5.972741e+00
        vertex 8.207055e+00 1.096000e+02 -5.972741e+00
        vertex 8.400000e+00 1.079000e+02 -5.892820e+00
    endloop
endfacet
facet normal 1.305263e-01 0.000000e+00 -9.914448e-01
    outer loop
        vertex 8.207055e+00 1.079000e+02 -5.972741e+00
        vertex 8.000000e+00 1.096000e+02 -6.000000e+00
        vertex 8.207055e+00 1.096000e+02 -5.972741e+00
    endloop
endfacet
facet normal 1.305263e-01 0.000000e+00 -9.914448e-01
    outer loop
        vertex 8.000000e+00 1.079000e+02 -6.000000e+00
        vertex 8.000000e+00 1.096000e+02 -6.000000e+00
        vertex 8.207055e+00 1.079000e+02 -5.972741e+00
    endloop
endfacet
facet normal -1.305263e-01 0.000000e+00 -9.914448e-01
    outer loop
        vertex 7.792945e+00 1.079000e+02 -5.972741e+00
        vertex 7.792945e+00 1.096000e+02 -5.972741e+00
        vertex 8.000000e+00 1.096000e+02 -6.000000e+00
    endloop
endfacet
facet normal -1.305263e-01 0.000000e+00 -9.914448e-01
    outer loop
        vertex 8.000000e+00 1.079000e+02 -6.000000e+00
        vertex 7.792945e+00 1.079000e+02 -5.972741e+00
        vertex 8.000000e+00 1.096000e+02 -6.000000e+00
    endloop
endfacet
facet normal -3.826828e-01 0.000000e+00 -9.238798e-01
    outer loop
        vertex 7.600000e+00 1.079000e+02 -5.892820e+00
        vertex 7.600000e+00 1.096000e+02 -5.892820e+00
        vertex 7.792945e+00 1.096000e+02 -5.972741e+00
    endloop
endfacet
facet normal -3.826828e-01 0.000000e+00 -9.238798e-01
    outer loop
        vertex 7.792945e+00 1.079000e+02 -5.972741e+00
        vertex 7.600000e+00 1.079000e+02 -5.892820e+00
        vertex 7.792945e+00 1.096000e+02 -5.972741e+00
    endloop
endfacet
facet normal -6.087617e-01 0.000000e+00 -7.933531e-01
    outer loop
        vertex 7.434315e+00 1.079000e+02 -5.765686e+00
        vertex 7.434315e+00 1.096000e+02 -5.765686e+00
        vertex 7.600000e+00 1.096000e+02 -5.892820e+00
    endloop
endfacet
facet normal -6.087617e-01 0.000000e+00 -7.933531e-01
    outer loop
        vertex 7.600000e+00 1.079000e+02 -5.892820e+00
        vertex 7.434315e+00 1.079000e+02 -5.765686e+00
        vertex 7.600000e+00 1.096000e+02 -5.892820e+00
    endloop
endfacet
facet normal -7.933528e-01 0.000000e+00 -6.087620e-01
    outer loop
        vertex 7.307179e+00 1.079000e+02 -5.600000e+00
        vertex 7.307179e+00 1.096000e+02 -5.600000e+00
        vertex 7.434315e+00 1.096000e+02 -5.765686e+00
    endloop
endfacet
facet normal -7.933528e-01 0.000000e+00 -6.087620e-01
    outer loop
        vertex 7.434315e+00 1.079000e+02 -5.765686e+00
        vertex 7.307179e+00 1.079000e+02 -5.600000e+00
        vertex 7.434315e+00 1.096000e+02 -5.765686e+00
    endloop
endfacet
facet normal -9.238794e-01 0.000000e+00 -3.826836e-01
    outer loop
        vertex 7.227259e+00 1.079000e+02 -5.407055e+00
        vertex 7.227259e+00 1.096000e+02 -5.407055e+00
        vertex 7.307179e+00 1.096000e+02 -5.600000e+00
    endloop
endfacet
facet normal -9.238794e-01 0.000000e+00 -3.826836e-01
    outer loop
        vertex 7.307179e+00 1.079000e+02 -5.600000e+00
        vertex 7.227259e+00 1.079000e+02 -5.407055e+00
        vertex 7.307179e+00 1.096000e+02 -5.600000e+00
    endloop
endfacet
facet normal -9.914449e-01 0.000000e+00 -1.305260e-01
    outer loop
        vertex 7.200000e+00 1.079000e+02 -5.200000e+00
        vertex 7.200000e+00 1.096000e+02 -5.200000e+00
        vertex 7.227259e+00 1.096000e+02 -5.407055e+00
    endloop
endfacet
facet normal -9.914449e-01 0.000000e+00 -1.305260e-01
    outer loop
        vertex 7.227259e+00 1.079000e+02 -5.407055e+00
        vertex 7.200000e+00 1.079000e+02 -5.200000e+00
        vertex 7.227259e+00 1.096000e+02 -5.407055e+00
    endloop
endfacet
facet normal -9.914448e-01 0.000000e+00 1.305263e-01
    outer loop
        vertex 7.227259e+00 1.079000e+02 -4.992945e+00
        vertex 7.227259e+00 1.096000e+02 -4.992945e+00
        vertex 7.200000e+00 1.096000e+02 -5.200000e+00
    endloop
endfacet
facet normal -9.914448e-01 0.000000e+00 1.305263e-01
    outer loop
        vertex 7.200000e+00 1.079000e+02 -5.200000e+00
        vertex 7.227259e+00 1.079000e+02 -4.992945e+00
        vertex 7.200000e+00 1.096000e+02 -5.200000e+00
    endloop
endfacet
facet normal -9.238794e-01 0.000000e+00 3.826836e-01
    outer loop
        vertex 7.307179e+00 1.079000e+02 -4.800000e+00
        vertex 7.307179e+00 1.096000e+02 -4.800000e+00
        vertex 7.227259e+00 1.096000e+02 -4.992945e+00
    endloop
endfacet
facet normal -9.238794e-01 0.000000e+00 3.826836e-01
    outer loop
        vertex 7.227259e+00 1.079000e+02 -4.992945e+00
        vertex 7.307179e+00 1.079000e+02 -4.800000e+00
        vertex 7.227259e+00 1.096000e+02 -4.992945e+00
    endloop
endfacet
facet normal -7.933528e-01 0.000000e+00 6.087620e-01
    outer loop
        vertex 7.434315e+00 1.079000e+02 -4.634315e+00
        vertex 7.434315e+00 1.096000e+02 -4.634315e+00
        vertex 7.307179e+00 1.096000e+02 -4.800000e+00
    endloop
endfacet
facet normal -7.933528e-01 0.000000e+00 6.087620e-01
    outer loop
        vertex 7.307179e+00 1.079000e+02 -4.800000e+00
        vertex 7.434315e+00 1.079000e+02 -4.634315e+00
        vertex 7.307179e+00 1.096000e+02 -4.800000e+00
    endloop
endfacet
facet normal -6.087617e-01 0.000000e+00 7.933531e-01
    outer loop
        vertex 7.600000e+00 1.079000e+02 -4.507180e+00
        vertex 7.600000e+00 1.096000e+02 -4.507180e+00
        vertex 7.434315e+00 1.096000e+02 -4.634315e+00
    endloop
endfacet
facet normal -6.087617e-01 0.000000e+00 7.933531e-01
    outer loop
        vertex 7.434315e+00 1.079000e+02 -4.634315e+00
        vertex 7.600000e+00 1.079000e+02 -4.507180e+00
        vertex 7.434315e+00 1.096000e+02 -4.634315e+00
    endloop
endfacet
facet normal -3.826828e-01 0.000000e+00 9.238798e-01
    outer loop
        vertex 7.792945e+00 1.079000e+02 -4.427259e+00
        vertex 7.792945e+00 1.096000e+02 -4.427259e+00
        vertex 7.600000e+00 1.096000e+02 -4.507180e+00
    endloop
endfacet
facet normal -3.826828e-01 0.000000e+00 9.238798e-01
    outer loop
        vertex 7.600000e+00 1.079000e+02 -4.507180e+00
        vertex 7.792945e+00 1.079000e+02 -4.427259e+00
        vertex 7.600000e+00 1.096000e+02 -4.507180e+00
    endloop
endfacet
facet normal -1.305263e-01 0.000000e+00 9.914448e-01
    outer loop
        vertex 8.000000e+00 1.079000e+02 -4.400000e+00
        vertex 8.000000e+00 1.096000e+02 -4.400000e+00
        vertex 7.792945e+00 1.096000e+02 -4.427259e+00
    endloop
endfacet
facet normal -1.305263e-01 0.000000e+00 9.914448e-01
    outer loop
        vertex 7.792945e+00 1.079000e+02 -4.427259e+00
        vertex 8.000000e+00 1.079000e+02 -4.400000e+00
        vertex 7.792945e+00 1.096000e+02 -4.427259e+00
    endloop
endfacet
facet normal -1.305263e-01 0.000000e+00 9.914448e-01
    outer loop
        vertex -8.000000e+00 1.079000e+02 -4.400000e+00
        vertex -8.000000e+00 1.096000e+02 -4.400000e+00
        vertex -8.207055e+00 1.096000e+02 -4.427259e+00
    endloop
endfacet
facet normal -1.305263e-01 0.000000e+00 9.914448e-01
    outer loop
        vertex -8.207055e+00 1.079000e+02 -4.427259e+00
        vertex -8.000000e+00 1.079000e+02 -4.400000e+00
        vertex -8.207055e+00 1.096000e+02 -4.427259e+00
    endloop
endfacet
facet normal -3.826836e-01 0.000000e+00 9.238794e-01
    outer loop
        vertex -8.207055e+00 1.079000e+02 -4.427259e+00
        vertex -8.207055e+00 1.096000e+02 -4.427259e+00
        vertex -8.400000e+00 1.096000e+02 -4.507180e+00
    endloop
endfacet
facet normal -3.826836e-01 0.000000e+00 9.238794e-01
    outer loop
        vertex -8.400000e+00 1.079000e+02 -4.507180e+00
        vertex -8.207055e+00 1.079000e+02 -4.427259e+00
        vertex -8.400000e+00 1.096000e+02 -4.507180e+00
    endloop
endfacet
facet normal -6.087606e-01 0.000000e+00 7.933540e-01
    outer loop
        vertex -8.400000e+00 1.079000e+02 -4.507180e+00
        vertex -8.400000e+00 1.096000e+02 -4.507180e+00
        vertex -8.565685e+00 1.096000e+02 -4.634315e+00
    endloop
endfacet
facet normal -6.087606e-01 0.000000e+00 7.933540e-01
    outer loop
        vertex -8.565685e+00 1.079000e+02 -4.634315e+00
        vertex -8.400000e+00 1.079000e+02 -4.507180e+00
        vertex -8.565685e+00 1.096000e+02 -4.634315e+00
    endloop
endfacet
facet normal -7.933528e-01 0.000000e+00 6.087620e-01
    outer loop
        vertex -8.565685e+00 1.079000e+02 -4.634315e+00
        vertex -8.565685e+00 1.096000e+02 -4.634315e+00
        vertex -8.692821e+00 1.096000e+02 -4.800000e+00
    endloop
endfacet
facet normal -7.933528e-01 0.000000e+00 6.087620e-01
    outer loop
        vertex -8.692821e+00 1.079000e+02 -4.800000e+00
        vertex -8.565685e+00 1.079000e+02 -4.634315e+00
        vertex -8.692821e+00 1.096000e+02 -4.800000e+00
    endloop
endfacet
facet normal -9.238803e-01 0.000000e+00 3.826817e-01
    outer loop
        vertex -8.692821e+00 1.079000e+02 -4.800000e+00
        vertex -8.692821e+00 1.096000e+02 -4.800000e+00
        vertex -8.772740e+00 1.096000e+02 -4.992945e+00
    endloop
endfacet
facet normal -9.238803e-01 0.000000e+00 3.826817e-01
    outer loop
        vertex -8.772740e+00 1.079000e+02 -4.992945e+00
        vertex -8.692821e+00 1.079000e+02 -4.800000e+00
        vertex -8.772740e+00 1.096000e+02 -4.992945e+00
    endloop
endfacet
facet normal -9.914445e-01 0.000000e+00 1.305286e-01
    outer loop
        vertex -8.772740e+00 1.079000e+02 -4.992945e+00
        vertex -8.772740e+00 1.096000e+02 -4.992945e+00
        vertex -8.800000e+00 1.096000e+02 -5.200000e+00
    endloop
endfacet
facet normal -9.914445e-01 0.000000e+00 1.305286e-01
    outer loop
        vertex -8.800000e+00 1.079000e+02 -5.200000e+00
        vertex -8.772740e+00 1.079000e+02 -4.992945e+00
        vertex -8.800000e+00 1.096000e+02 -5.200000e+00
    endloop
endfacet
facet normal -9.914446e-01 0.000000e+00 -1.305283e-01
    outer loop
        vertex -8.800000e+00 1.079000e+02 -5.200000e+00
        vertex -8.800000e+00 1.096000e+02 -5.200000e+00
        vertex -8.772740e+00 1.096000e+02 -5.407055e+00
    endloop
endfacet
facet normal -9.914446e-01 0.000000e+00 -1.305283e-01
    outer loop
        vertex -8.772740e+00 1.079000e+02 -5.407055e+00
        vertex -8.800000e+00 1.079000e+02 -5.200000e+00
        vertex -8.772740e+00 1.096000e+02 -5.407055e+00
    endloop
endfacet
facet normal -9.238803e-01 0.000000e+00 -3.826817e-01
    outer loop
        vertex -8.772740e+00 1.079000e+02 -5.407055e+00
        vertex -8.772740e+00 1.096000e+02 -5.407055e+00
        vertex -8.692821e+00 1.096000e+02 -5.600000e+00
    endloop
endfacet
facet normal -9.238803e-01 0.000000e+00 -3.826817e-01
    outer loop
        vertex -8.692821e+00 1.079000e+02 -5.600000e+00
        vertex -8.772740e+00 1.079000e+02 -5.407055e+00
        vertex -8.692821e+00 1.096000e+02 -5.600000e+00
    endloop
endfacet
facet normal -7.933528e-01 0.000000e+00 -6.087620e-01
    outer loop
        vertex -8.692821e+00 1.079000e+02 -5.600000e+00
        vertex -8.692821e+00 1.096000e+02 -5.600000e+00
        vertex -8.565685e+00 1.096000e+02 -5.765686e+00
    endloop
endfacet
facet normal -7.933528e-01 0.000000e+00 -6.087620e-01
    outer loop
        vertex -8.565685e+00 1.079000e+02 -5.765686e+00
        vertex -8.692821e+00 1.079000e+02 -5.600000e+00
        vertex -8.565685e+00 1.096000e+02 -5.765686e+00
    endloop
endfacet
facet normal -6.087606e-01 0.000000e+00 -7.933540e-01
    outer loop
        vertex -8.565685e+00 1.079000e+02 -5.765686e+00
        vertex -8.565685e+00 1.096000e+02 -5.765686e+00
        vertex -8.400000e+00 1.096000e+02 -5.892820e+00
    endloop
endfacet
facet normal -6.087606e-01 0.000000e+00 -7.933540e-01
    outer loop
        vertex -8.400000e+00 1.079000e+02 -5.892820e+00
        vertex -8.565685e+00 1.079000e+02 -5.765686e+00
        vertex -8.400000e+00 1.096000e+02 -5.892820e+00
    endloop
endfacet
facet normal -3.826836e-01 0.000000e+00 -9.238794e-01
    outer loop
        vertex -8.400000e+00 1.079000e+02 -5.892820e+00
        vertex -8.400000e+00 1.096000e+02 -5.892820e+00
        vertex -8.207055e+00 1.096000e+02 -5.972741e+00
    endloop
endfacet
facet normal -3.826836e-01 0.000000e+00 -9.238794e-01
    outer loop
        vertex -8.207055e+00 1.079000e+02 -5.972741e+00
        vertex -8.400000e+00 1.079000e+02 -5.892820e+00
        vertex -8.207055e+00 1.096000e+02 -5.972741e+00
    endloop
endfacet
facet normal -1.305263e-01 0.000000e+00 -9.914448e-01
    outer loop
        vertex -8.207055e+00 1.079000e+02 -5.972741e+00
        vertex -8.207055e+00 1.096000e+02 -5.972741e+00
        vertex -8.000000e+00 1.096000e+02 -6.000000e+00
    endloop
endfacet
facet normal -1.305263e-01 0.000000e+00 -9.914448e-01
    outer loop
        vertex -8.000000e+00 1.079000e+02 -6.000000e+00
        vertex -8.207055e+00 1.079000e+02 -5.972741e+00
        vertex -8.000000e+00 1.096000e+02 -6.000000e+00
    endloop
endfacet
facet normal 1.305263e-01 0.000000e+00 -9.914448e-01
    outer loop
        vertex -7.792945e+00 1.079000e+02 -5.972741e+00
        vertex -8.000000e+00 1.096000e+02 -6.000000e+00
        vertex -7.792945e+00 1.096000e+02 -5.972741e+00
    endloop
endfacet
facet normal 1.305263e-01 0.000000e+00 -9.914448e-01
    outer loop
        vertex -8.000000e+00 1.079000e+02 -6.000000e+00
        vertex -8.000000e+00 1.096000e+02 -6.000000e+00
        vertex -7.792945e+00 1.079000e+02 -5.972741e+00
    endloop
endfacet
facet normal 3.826828e-01 0.000000e+00 -9.238798e-01
    outer loop
        vertex -7.600000e+00 1.079000e+02 -5.892820e+00
        vertex -7.792945e+00 1.096000e+02 -5.972741e+00
        vertex -7.600000e+00 1.096000e+02 -5.892820e+00
    endloop
endfacet
facet normal 3.826828e-01 0.000000e+00 -9.238798e-01
    outer loop
        vertex -7.792945e+00 1.079000e+02 -5.972741e+00
        vertex -7.792945e+00 1.096000e+02 -5.972741e+00
        vertex -7.600000e+00 1.079000e+02 -5.892820e+00
    endloop
endfacet
facet normal 6.087617e-01 0.000000e+00 -7.933531e-01
    outer loop
        vertex -7.434315e+00 1.079000e+02 -5.765686e+00
        vertex -7.600000e+00 1.096000e+02 -5.892820e+00
        vertex -7.434315e+00 1.096000e+02 -5.765686e+00
    endloop
endfacet
facet normal 6.087617e-01 0.000000e+00 -7.933531e-01
    outer loop
        vertex -7.600000e+00 1.079000e+02 -5.892820e+00
        vertex -7.600000e+00 1.096000e+02 -5.892820e+00
        vertex -7.434315e+00 1.079000e+02 -5.765686e+00
    endloop
endfacet
facet normal 7.933528e-01 0.000000e+00 -6.087620e-01
    outer loop
        vertex -7.307179e+00 1.079000e+02 -5.600000e+00
        vertex -7.434315e+00 1.096000e+02 -5.765686e+00
        vertex -7.307179e+00 1.096000e+02 -5.600000e+00
    endloop
endfacet
facet normal 7.933528e-01 0.000000e+00 -6.087620e-01
    outer loop
        vertex -7.434315e+00 1.079000e+02 -5.765686e+00
        vertex -7.434315e+00 1.096000e+02 -5.765686e+00
        vertex -7.307179e+00 1.079000e+02 -5.600000e+00
    endloop
endfacet
facet normal 9.238794e-01 0.000000e+00 -3.826836e-01
    outer loop
        vertex -7.227259e+00 1.079000e+02 -5.407055e+00
        vertex -7.307179e+00 1.096000e+02 -5.600000e+00
        vertex -7.227259e+00 1.096000e+02 -5.407055e+00
    endloop
endfacet
facet normal 9.238794e-01 0.000000e+00 -3.826836e-01
    outer loop
        vertex -7.307179e+00 1.079000e+02 -5.600000e+00
        vertex -7.307179e+00 1.096000e+02 -5.600000e+00
        vertex -7.227259e+00 1.079000e+02 -5.407055e+00
    endloop
endfacet
facet normal 9.914449e-01 0.000000e+00 -1.305260e-01
    outer loop
        vertex -7.200000e+00 1.079000e+02 -5.200000e+00
        vertex -7.227259e+00 1.096000e+02 -5.407055e+00
        vertex -7.200000e+00 1.096000e+02 -5.200000e+00
    endloop
endfacet
facet normal 9.914449e-01 0.000000e+00 -1.305260e-01
    outer loop
        vertex -7.227259e+00 1.079000e+02 -5.407055e+00
        vertex -7.227259e+00 1.096000e+02 -5.407055e+00
        vertex -7.200000e+00 1.079000e+02 -5.200000e+00
    endloop
endfacet
facet normal 9.914448e-01 -0.000000e+00 1.305263e-01
    outer loop
        vertex -7.227259e+00 1.079000e+02 -4.992945e+00
        vertex -7.200000e+00 1.096000e+02 -5.200000e+00
        vertex -7.227259e+00 1.096000e+02 -4.992945e+00
    endloop
endfacet
facet normal 9.914448e-01 -0.000000e+00 1.305263e-01
    outer loop
        vertex -7.200000e+00 1.079000e+02 -5.200000e+00
        vertex -7.200000e+00 1.096000e+02 -5.200000e+00
        vertex -7.227259e+00 1.079000e+02 -4.992945e+00
    endloop
endfacet
facet normal 9.238794e-01 -0.000000e+00 3.826836e-01
    outer loop
        vertex -7.307179e+00 1.079000e+02 -4.800000e+00
        vertex -7.227259e+00 1.096000e+02 -4.992945e+00
        vertex -7.307179e+00 1.096000e+02 -4.800000e+00
    endloop
endfacet
facet normal 9.238794e-01 -0.000000e+00 3.826836e-01
    outer loop
        vertex -7.227259e+00 1.079000e+02 -4.992945e+00
        vertex -7.227259e+00 1.096000e+02 -4.992945e+00
        vertex -7.307179e+00 1.079000e+02 -4.800000e+00
    endloop
endfacet
facet normal 7.933528e-01 -0.000000e+00 6.087620e-01
    outer loop
        vertex -7.434315e+00 1.079000e+02 -4.634315e+00
        vertex -7.307179e+00 1.096000e+02 -4.800000e+00
        vertex -7.434315e+00 1.096000e+02 -4.634315e+00
    endloop
endfacet
facet normal 7.933528e-01 -0.000000e+00 6.087620e-01
    outer loop
        vertex -7.307179e+00 1.079000e+02 -4.800000e+00
        vertex -7.307179e+00 1.096000e+02 -4.800000e+00
        vertex -7.434315e+00 1.079000e+02 -4.634315e+00
    endloop
endfacet
facet normal 6.087617e-01 -0.000000e+00 7.933531e-01
    outer loop
        vertex -7.600000e+00 1.079000e+02 -4.507180e+00
        vertex -7.434315e+00 1.096000e+02 -4.634315e+00
        vertex -7.600000e+00 1.096000e+02 -4.507180e+00
    endloop
endfacet
facet normal 6.087617e-01 -0.000000e+00 7.933531e-01
    outer loop
        vertex -7.434315e+00 1.079000e+02 -4.634315e+00
        vertex -7.434315e+00 1.096000e+02 -4.634315e+00
        vertex -7.600000e+00 1.079000e+02 -4.507180e+00
    endloop
endfacet
facet normal 3.826828e-01 -0.000000e+00 9.238798e-01
    outer loop
        vertex -7.792945e+00 1.079000e+02 -4.427259e+00
        vertex -7.600000e+00 1.096000e+02 -4.507180e+00
        vertex -7.792945e+00 1.096000e+02 -4.427259e+00
    endloop
endfacet
facet normal 3.826828e-01 -0.000000e+00 9.238798e-01
    outer loop
        vertex -7.600000e+00 1.079000e+02 -4.507180e+00
        vertex -7.600000e+00 1.096000e+02 -4.507180e+00
        vertex -7.792945e+00 1.079000e+02 -4.427259e+00
    endloop
endfacet
facet normal 1.305263e-01 -0.000000e+00 9.914448e-01
    outer loop
        vertex -8.000000e+00 1.079000e+02 -4.400000e+00
        vertex -7.792945e+00 1.096000e+02 -4.427259e+00
        vertex -8.000000e+00 1.096000e+02 -4.400000e+00
    endloop
endfacet
facet normal 1.305263e-01 -0.000000e+00 9.914448e-01
    outer loop
        vertex -7.792945e+00 1.079000e+02 -4.427259e+00
        vertex -7.792945e+00 1.096000e+02 -4.427259e+00
        vertex -8.000000e+00 1.079000e+02 -4.400000e+00
    endloop
endfacet
endsolid motor-mount.stl
