solid pusher-rack.stl
facet normal 0.000000e+00 -1.000000e+00 0.000000e+00
    outer loop
        vertex -3.800000e+00 -9.536743e-07 0.000000e+00
        vertex 3.800000e+00 -9.536743e-07 1.500000e+01
        vertex -3.800000e+00 -9.536743e-07 1.500000e+01
    endloop
endfacet
facet normal 0.000000e+00 -1.000000e+00 0.000000e+00
    outer loop
        vertex -3.800000e+00 -9.536743e-07 0.000000e+00
        vertex 3.800000e+00 -9.536743e-07 0.000000e+00
        vertex 3.800000e+00 -9.536743e-07 1.500000e+01
    endloop
endfacet
facet normal -1.000000e+00 0.000000e+00 0.000000e+00
    outer loop
        vertex -3.800000e+00 -9.536743e-07 0.000000e+00
        vertex -3.800000e+00 -9.536743e-07 1.500000e+01
        vertex -3.800000e+00 4.999999e+00 0.000000e+00
    endloop
endfacet
facet normal -1.000000e+00 0.000000e+00 0.000000e+00
    outer loop
        vertex -3.800000e+00 9.999999e+00 1.000000e+01
        vertex -3.800000e+00 4.220000e+01 1.500000e+01
        vertex -3.800000e+00 4.220000e+01 1.000000e+01
    endloop
endfacet
facet normal -1.000000e+00 0.000000e+00 0.000000e+00
    outer loop
        vertex -3.800000e+00 -9.536743e-07 1.500000e+01
        vertex -3.800000e+00 9.999999e+00 1.000000e+01
        vertex -3.800000e+00 4.999999e+00 0.000000e+00
    endloop
endfacet
facet normal -1.000000e+00 0.000000e+00 0.000000e+00
    outer loop
        vertex -3.800000e+00 -9.536743e-07 1.500000e+01
        vertex -3.800000e+00 4.220000e+01 1.500000e+01
        vertex -3.800000e+00 9.999999e+00 1.000000e+01
    endloop
endfacet
facet normal 1.000000e+00 0.000000e+00 0.000000e+00
    outer loop
        vertex 3.800000e+00 -9.536743e-07 0.000000e+00
        vertex 3.800000e+00 4.999999e+00 0.000000e+00
        vertex 3.800000e+00 -9.536743e-07 1.500000e+01
    endloop
endfacet
facet normal 1.000000e+00 0.000000e+00 0.000000e+00
    outer loop
        vertex 3.800000e+00 9.999999e+00 1.000000e+01
        vertex 3.800000e+00 4.220000e+01 1.000000e+01
        vertex 3.800000e+00 4.220000e+01 1.500000e+01
    endloop
endfacet
facet normal 1.000000e+00 0.000000e+00 0.000000e+00
    outer loop
        vertex 3.800000e+00 -9.536743e-07 1.500000e+01
        vertex 3.800000e+00 4.999999e+00 0.000000e+00
        vertex 3.800000e+00 9.999999e+00 1.000000e+01
    endloop
endfacet
facet normal 1.000000e+00 -0.000000e+00 0.000000e+00
    outer loop
        vertex 3.800000e+00 -9.536743e-07 1.500000e+01
        vertex 3.800000e+00 9.999999e+00 1.000000e+01
        vertex 3.800000e+00 4.220000e+01 1.500000e+01
    endloop
endfacet
facet normal 0.000000e+00 0.000000e+00 1.000000e+00
    outer loop
        vertex 1.875000e+01 4.220000e+01 1.500000e+01
        vertex 1.440000e+01 5.140000e+01 1.500000e+01
        vertex 3.800000e+00 4.420000e+01 1.500000e+01
    endloop
endfacet
facet normal 0.000000e+00 0.000000e+00 1.000000e+00
    outer loop
        vertex -1.700000e+01 6.520000e+01 1.500000e+01
        vertex -1.440000e+01 6.580000e+01 1.500000e+01
        vertex -1.440000e+01 6.820000e+01 1.500000e+01
    endloop
endfacet
facet normal 0.000000e+00 0.000000e+00 1.000000e+00
    outer loop
        vertex -1.700000e+01 7.360000e+01 1.500000e+01
        vertex -1.440000e+01 7.420000e+01 1.500000e+01
        vertex -1.440000e+01 7.660000e+01 1.500000e+01
    endloop
endfacet
facet normal 0.000000e+00 0.000000e+00 1.000000e+00
    outer loop
        vertex -1.700000e+01 8.200000e+01 1.500000e+01
        vertex -1.440000e+01 8.260000e+01 1.500000e+01
        vertex -1.440000e+01 8.500000e+01 1.500000e+01
    endloop
endfacet
facet normal 0.000000e+00 0.000000e+00 1.000000e+00
    outer loop
        vertex 1.700000e+01 8.200000e+01 1.500000e+01
        vertex 1.440000e+01 8.500000e+01 1.500000e+01
        vertex 1.440000e+01 8.260000e+01 1.500000e+01
    endloop
endfacet
facet normal 0.000000e+00 0.000000e+00 1.000000e+00
    outer loop
        vertex 1.440000e+01 7.420000e+01 1.500000e+01
        vertex 1.700000e+01 7.720000e+01 1.500000e+01
        vertex 1.440000e+01 7.660000e+01 1.500000e+01
    endloop
endfacet
facet normal 0.000000e+00 0.000000e+00 1.000000e+00
    outer loop
        vertex 1.440000e+01 6.580000e+01 1.500000e+01
        vertex 1.700000e+01 6.880000e+01 1.500000e+01
        vertex 1.440000e+01 6.820000e+01 1.500000e+01
    endloop
endfacet
facet normal 0.000000e+00 0.000000e+00 1.000000e+00
    outer loop
        vertex -1.700000e+01 5.680000e+01 1.500000e+01
        vertex -1.440000e+01 5.740000e+01 1.500000e+01
        vertex -1.440000e+01 5.980000e+01 1.500000e+01
    endloop
endfacet
facet normal 0.000000e+00 0.000000e+00 1.000000e+00
    outer loop
        vertex 1.700000e+01 5.680000e+01 1.500000e+01
        vertex 1.440000e+01 5.980000e+01 1.500000e+01
        vertex 1.440000e+01 5.740000e+01 1.500000e+01
    endloop
endfacet
facet normal 0.000000e+00 0.000000e+00 1.000000e+00
    outer loop
        vertex 1.875000e+01 4.220000e+01 1.500000e+01
        vertex 1.700000e+01 5.200000e+01 1.500000e+01
        vertex 1.440000e+01 5.140000e+01 1.500000e+01
    endloop
endfacet
facet normal 0.000000e+00 0.000000e+00 1.000000e+00
    outer loop
        vertex -3.800000e+00 -9.536743e-07 1.500000e+01
        vertex 3.800000e+00 -9.536743e-07 1.500000e+01
        vertex -3.800000e+00 4.220000e+01 1.500000e+01
    endloop
endfacet
facet normal 0.000000e+00 -0.000000e+00 1.000000e+00
    outer loop
        vertex 3.800000e+00 -9.536743e-07 1.500000e+01
        vertex 3.800000e+00 4.220000e+01 1.500000e+01
        vertex -3.800000e+00 4.220000e+01 1.500000e+01
    endloop
endfacet
facet normal 0.000000e+00 0.000000e+00 1.000000e+00
    outer loop
        vertex -1.700000e+01 8.200000e+01 1.500000e+01
        vertex -1.440000e+01 8.500000e+01 1.500000e+01
        vertex -1.700000e+01 8.560001e+01 1.500000e+01
    endloop
endfacet
facet normal 0.000000e+00 -0.000000e+00 1.000000e+00
    outer loop
        vertex 1.700000e+01 8.200000e+01 1.500000e+01
        vertex 1.700000e+01 8.560001e+01 1.500000e+01
        vertex 1.440000e+01 8.500000e+01 1.500000e+01
    endloop
endfacet
facet normal 0.000000e+00 -0.000000e+00 1.000000e+00
    outer loop
        vertex 1.700000e+01 5.680000e+01 1.500000e+01
        vertex 1.700000e+01 6.040000e+01 1.500000e+01
        vertex 1.440000e+01 5.980000e+01 1.500000e+01
    endloop
endfacet
facet normal 0.000000e+00 0.000000e+00 1.000000e+00
    outer loop
        vertex -1.700000e+01 5.680000e+01 1.500000e+01
        vertex -1.440000e+01 5.980000e+01 1.500000e+01
        vertex -1.700000e+01 6.040000e+01 1.500000e+01
    endloop
endfacet
facet normal 0.000000e+00 0.000000e+00 1.000000e+00
    outer loop
        vertex -1.700000e+01 7.360000e+01 1.500000e+01
        vertex -1.440000e+01 7.660000e+01 1.500000e+01
        vertex -1.700000e+01 7.720000e+01 1.500000e+01
    endloop
endfacet
facet normal 0.000000e+00 -0.000000e+00 1.000000e+00
    outer loop
        vertex 1.700000e+01 6.520000e+01 1.500000e+01
        vertex 1.700000e+01 6.880000e+01 1.500000e+01
        vertex 1.440000e+01 6.580000e+01 1.500000e+01
    endloop
endfacet
facet normal 0.000000e+00 0.000000e+00 1.000000e+00
    outer loop
        vertex 3.800000e+00 4.220000e+01 1.500000e+01
        vertex 1.875000e+01 4.220000e+01 1.500000e+01
        vertex 3.800000e+00 4.420000e+01 1.500000e+01
    endloop
endfacet
facet normal 0.000000e+00 0.000000e+00 1.000000e+00
    outer loop
        vertex -3.800000e+00 4.220000e+01 1.500000e+01
        vertex 3.800000e+00 4.220000e+01 1.500000e+01
        vertex 3.800000e+00 4.420000e+01 1.500000e+01
    endloop
endfacet
facet normal 0.000000e+00 0.000000e+00 1.000000e+00
    outer loop
        vertex -3.800000e+00 4.220000e+01 1.500000e+01
        vertex 3.800000e+00 4.420000e+01 1.500000e+01
        vertex -3.800000e+00 4.420000e+01 1.500000e+01
    endloop
endfacet
facet normal 0.000000e+00 -0.000000e+00 1.000000e+00
    outer loop
        vertex -3.800000e+00 4.220000e+01 1.500000e+01
        vertex -3.800000e+00 4.420000e+01 1.500000e+01
        vertex -1.875000e+01 4.220000e+01 1.500000e+01
    endloop
endfacet
facet normal 0.000000e+00 0.000000e+00 1.000000e+00
    outer loop
        vertex -1.875000e+01 4.220000e+01 1.500000e+01
        vertex -3.800000e+00 4.420000e+01 1.500000e+01
        vertex -1.440000e+01 5.140000e+01 1.500000e+01
    endloop
endfacet
facet normal 0.000000e+00 0.000000e+00 1.000000e+00
    outer loop
        vertex -1.875000e+01 4.220000e+01 1.500000e+01
        vertex -1.440000e+01 5.140000e+01 1.500000e+01
        vertex -1.700000e+01 5.200000e+01 1.500000e+01
    endloop
endfacet
facet normal 0.000000e+00 0.000000e+00 1.000000e+00
    outer loop
        vertex -1.700000e+01 6.520000e+01 1.500000e+01
        vertex -1.440000e+01 6.820000e+01 1.500000e+01
        vertex -1.700000e+01 6.880000e+01 1.500000e+01
    endloop
endfacet
facet normal 0.000000e+00 -0.000000e+00 1.000000e+00
    outer loop
        vertex 1.700000e+01 7.360000e+01 1.500000e+01
        vertex 1.700000e+01 7.720000e+01 1.500000e+01
        vertex 1.440000e+01 7.420000e+01 1.500000e+01
    endloop
endfacet
facet normal 0.000000e+00 0.000000e+00 1.000000e+00
    outer loop
        vertex -1.700000e+01 9.039999e+01 1.500000e+01
        vertex -1.440000e+01 9.100000e+01 1.500000e+01
        vertex -3.800000e+00 9.820000e+01 1.500000e+01
    endloop
endfacet
facet normal 0.000000e+00 0.000000e+00 1.000000e+00
    outer loop
        vertex 1.700000e+01 9.039999e+01 1.500000e+01
        vertex 3.800000e+00 9.820000e+01 1.500000e+01
        vertex 1.440000e+01 9.100000e+01 1.500000e+01
    endloop
endfacet
facet normal 0.000000e+00 0.000000e+00 1.000000e+00
    outer loop
        vertex -1.875000e+01 4.220000e+01 1.500000e+01
        vertex -1.700000e+01 5.200000e+01 1.500000e+01
        vertex -1.700000e+01 5.680000e+01 1.500000e+01
    endloop
endfacet
facet normal 0.000000e+00 0.000000e+00 1.000000e+00
    outer loop
        vertex 1.875000e+01 4.220000e+01 1.500000e+01
        vertex 1.700000e+01 5.680000e+01 1.500000e+01
        vertex 1.700000e+01 5.200000e+01 1.500000e+01
    endloop
endfacet
facet normal 0.000000e+00 0.000000e+00 1.000000e+00
    outer loop
        vertex -1.875000e+01 4.220000e+01 1.500000e+01
        vertex -1.700000e+01 5.680000e+01 1.500000e+01
        vertex -1.875000e+01 1.002000e+02 1.500000e+01
    endloop
endfacet
facet normal 0.000000e+00 -0.000000e+00 1.000000e+00
    outer loop
        vertex 1.875000e+01 4.220000e+01 1.500000e+01
        vertex 1.875000e+01 1.002000e+02 1.500000e+01
        vertex 1.700000e+01 5.680000e+01 1.500000e+01
    endloop
endfacet
facet normal 0.000000e+00 -0.000000e+00 1.000000e+00
    outer loop
        vertex -1.700000e+01 5.680000e+01 1.500000e+01
        vertex -1.700000e+01 6.040000e+01 1.500000e+01
        vertex -1.875000e+01 1.002000e+02 1.500000e+01
    endloop
endfacet
facet normal 0.000000e+00 -0.000000e+00 1.000000e+00
    outer loop
        vertex -1.700000e+01 6.040000e+01 1.500000e+01
        vertex -1.700000e+01 6.520000e+01 1.500000e+01
        vertex -1.875000e+01 1.002000e+02 1.500000e+01
    endloop
endfacet
facet normal 0.000000e+00 -0.000000e+00 1.000000e+00
    outer loop
        vertex -1.700000e+01 6.520000e+01 1.500000e+01
        vertex -1.700000e+01 6.880000e+01 1.500000e+01
        vertex -1.875000e+01 1.002000e+02 1.500000e+01
    endloop
endfacet
facet normal 0.000000e+00 -0.000000e+00 1.000000e+00
    outer loop
        vertex -1.700000e+01 6.880000e+01 1.500000e+01
        vertex -1.700000e+01 7.360000e+01 1.500000e+01
        vertex -1.875000e+01 1.002000e+02 1.500000e+01
    endloop
endfacet
facet normal 0.000000e+00 -0.000000e+00 1.000000e+00
    outer loop
        vertex -1.700000e+01 7.360000e+01 1.500000e+01
        vertex -1.700000e+01 7.720000e+01 1.500000e+01
        vertex -1.875000e+01 1.002000e+02 1.500000e+01
    endloop
endfacet
facet normal 0.000000e+00 -0.000000e+00 1.000000e+00
    outer loop
        vertex -1.700000e+01 7.720000e+01 1.500000e+01
        vertex -1.700000e+01 8.200000e+01 1.500000e+01
        vertex -1.875000e+01 1.002000e+02 1.500000e+01
    endloop
endfacet
facet normal 0.000000e+00 -0.000000e+00 1.000000e+00
    outer loop
        vertex -1.700000e+01 8.200000e+01 1.500000e+01
        vertex -1.700000e+01 8.560001e+01 1.500000e+01
        vertex -1.875000e+01 1.002000e+02 1.500000e+01
    endloop
endfacet
facet normal 0.000000e+00 -0.000000e+00 1.000000e+00
    outer loop
        vertex -1.700000e+01 8.560001e+01 1.500000e+01
        vertex -1.700000e+01 9.039999e+01 1.500000e+01
        vertex -1.875000e+01 1.002000e+02 1.500000e+01
    endloop
endfacet
facet normal 0.000000e+00 -0.000000e+00 1.000000e+00
    outer loop
        vertex -1.700000e+01 9.039999e+01 1.500000e+01
        vertex -3.800000e+00 9.820000e+01 1.500000e+01
        vertex -1.875000e+01 1.002000e+02 1.500000e+01
    endloop
endfacet
facet normal 0.000000e+00 -0.000000e+00 1.000000e+00
    outer loop
        vertex -3.800000e+00 9.820000e+01 1.500000e+01
        vertex 1.875000e+01 1.002000e+02 1.500000e+01
        vertex -1.875000e+01 1.002000e+02 1.500000e+01
    endloop
endfacet
facet normal 0.000000e+00 0.000000e+00 1.000000e+00
    outer loop
        vertex -3.800000e+00 9.820000e+01 1.500000e+01
        vertex 3.800000e+00 9.820000e+01 1.500000e+01
        vertex 1.875000e+01 1.002000e+02 1.500000e+01
    endloop
endfacet
facet normal 0.000000e+00 -0.000000e+00 1.000000e+00
    outer loop
        vertex 1.700000e+01 9.039999e+01 1.500000e+01
        vertex 1.875000e+01 1.002000e+02 1.500000e+01
        vertex 3.800000e+00 9.820000e+01 1.500000e+01
    endloop
endfacet
facet normal 0.000000e+00 0.000000e+00 1.000000e+00
    outer loop
        vertex 1.700000e+01 8.560001e+01 1.500000e+01
        vertex 1.875000e+01 1.002000e+02 1.500000e+01
        vertex 1.700000e+01 9.039999e+01 1.500000e+01
    endloop
endfacet
facet normal 0.000000e+00 0.000000e+00 1.000000e+00
    outer loop
        vertex 1.700000e+01 8.200000e+01 1.500000e+01
        vertex 1.875000e+01 1.002000e+02 1.500000e+01
        vertex 1.700000e+01 8.560001e+01 1.500000e+01
    endloop
endfacet
facet normal 0.000000e+00 0.000000e+00 1.000000e+00
    outer loop
        vertex 1.700000e+01 7.720000e+01 1.500000e+01
        vertex 1.875000e+01 1.002000e+02 1.500000e+01
        vertex 1.700000e+01 8.200000e+01 1.500000e+01
    endloop
endfacet
facet normal 0.000000e+00 0.000000e+00 1.000000e+00
    outer loop
        vertex 1.700000e+01 7.360000e+01 1.500000e+01
        vertex 1.875000e+01 1.002000e+02 1.500000e+01
        vertex 1.700000e+01 7.720000e+01 1.500000e+01
    endloop
endfacet
facet normal 0.000000e+00 0.000000e+00 1.000000e+00
    outer loop
        vertex 1.700000e+01 6.880000e+01 1.500000e+01
        vertex 1.875000e+01 1.002000e+02 1.500000e+01
        vertex 1.700000e+01 7.360000e+01 1.500000e+01
    endloop
endfacet
facet normal 0.000000e+00 0.000000e+00 1.000000e+00
    outer loop
        vertex 1.700000e+01 6.520000e+01 1.500000e+01
        vertex 1.875000e+01 1.002000e+02 1.500000e+01
        vertex 1.700000e+01 6.880000e+01 1.500000e+01
    endloop
endfacet
facet normal 0.000000e+00 0.000000e+00 1.000000e+00
    outer loop
        vertex 1.700000e+01 6.040000e+01 1.500000e+01
        vertex 1.875000e+01 1.002000e+02 1.500000e+01
        vertex 1.700000e+01 6.520000e+01 1.500000e+01
    endloop
endfacet
facet normal 0.000000e+00 0.000000e+00 1.000000e+00
    outer loop
        vertex 1.700000e+01 5.680000e+01 1.500000e+01
        vertex 1.875000e+01 1.002000e+02 1.500000e+01
        vertex 1.700000e+01 6.040000e+01 1.500000e+01
    endloop
endfacet
facet normal -1.000000e+00 0.000000e+00 0.000000e+00
    outer loop
        vertex -1.875000e+01 4.220000e+01 1.000000e+01
        vertex -1.875000e+01 4.220000e+01 1.500000e+01
        vertex -1.875000e+01 1.002000e+02 1.000000e+01
    endloop
endfacet
facet normal -1.000000e+00 0.000000e+00 0.000000e+00
    outer loop
        vertex -1.875000e+01 4.220000e+01 1.500000e+01
        vertex -1.875000e+01 1.002000e+02 1.500000e+01
        vertex -1.875000e+01 1.002000e+02 1.000000e+01
    endloop
endfacet
facet normal 0.000000e+00 -1.000000e+00 0.000000e+00
    outer loop
        vertex -3.800000e+00 4.220000e+01 1.000000e+01
        vertex -3.800000e+00 4.220000e+01 1.500000e+01
        vertex -1.875000e+01 4.220000e+01 1.000000e+01
    endloop
endfacet
facet normal 0.000000e+00 -1.000000e+00 0.000000e+00
    outer loop
        vertex -1.875000e+01 4.220000e+01 1.000000e+01
        vertex -3.800000e+00 4.220000e+01 1.500000e+01
        vertex -1.875000e+01 4.220000e+01 1.500000e+01
    endloop
endfacet
facet normal 0.000000e+00 -1.000000e+00 0.000000e+00
    outer loop
        vertex 3.800000e+00 4.220000e+01 1.000000e+01
        vertex 1.875000e+01 4.220000e+01 1.000000e+01
        vertex 3.800000e+00 4.220000e+01 1.500000e+01
    endloop
endfacet
facet normal 0.000000e+00 -1.000000e+00 0.000000e+00
    outer loop
        vertex 1.875000e+01 4.220000e+01 1.000000e+01
        vertex 1.875000e+01 4.220000e+01 1.500000e+01
        vertex 3.800000e+00 4.220000e+01 1.500000e+01
    endloop
endfacet
facet normal 1.000000e+00 0.000000e+00 0.000000e+00
    outer loop
        vertex 1.875000e+01 4.220000e+01 1.000000e+01
        vertex 1.875000e+01 1.002000e+02 1.000000e+01
        vertex 1.875000e+01 4.220000e+01 1.500000e+01
    endloop
endfacet
facet normal 1.000000e+00 -0.000000e+00 0.000000e+00
    outer loop
        vertex 1.875000e+01 4.220000e+01 1.500000e+01
        vertex 1.875000e+01 1.002000e+02 1.000000e+01
        vertex 1.875000e+01 1.002000e+02 1.500000e+01
    endloop
endfacet
facet normal 0.000000e+00 1.000000e+00 0.000000e+00
    outer loop
        vertex 1.875000e+01 1.002000e+02 1.000000e+01
        vertex -1.875000e+01 1.002000e+02 1.000000e+01
        vertex -1.875000e+01 1.002000e+02 1.500000e+01
    endloop
endfacet
facet normal 0.000000e+00 1.000000e+00 -0.000000e+00
    outer loop
        vertex 1.875000e+01 1.002000e+02 1.000000e+01
        vertex -1.875000e+01 1.002000e+02 1.500000e+01
        vertex 1.875000e+01 1.002000e+02 1.500000e+01
    endloop
endfacet
facet normal 5.618833e-01 8.272165e-01 0.000000e+00
    outer loop
        vertex -3.800000e+00 4.420000e+01 1.000000e+01
        vertex -1.440000e+01 5.140000e+01 1.000000e+01
        vertex -1.440000e+01 5.140000e+01 1.500000e+01
    endloop
endfacet
facet normal 5.618833e-01 8.272165e-01 -0.000000e+00
    outer loop
        vertex -3.800000e+00 4.420000e+01 1.000000e+01
        vertex -1.440000e+01 5.140000e+01 1.500000e+01
        vertex -3.800000e+00 4.420000e+01 1.500000e+01
    endloop
endfacet
facet normal 0.000000e+00 1.000000e+00 0.000000e+00
    outer loop
        vertex 3.800000e+00 4.420000e+01 1.000000e+01
        vertex -3.800000e+00 4.420000e+01 1.000000e+01
        vertex -3.800000e+00 4.420000e+01 1.500000e+01
    endloop
endfacet
facet normal 0.000000e+00 1.000000e+00 -0.000000e+00
    outer loop
        vertex 3.800000e+00 4.420000e+01 1.000000e+01
        vertex -3.800000e+00 4.420000e+01 1.500000e+01
        vertex 3.800000e+00 4.420000e+01 1.500000e+01
    endloop
endfacet
facet normal -5.618833e-01 8.272165e-01 0.000000e+00
    outer loop
        vertex 3.800000e+00 4.420000e+01 1.000000e+01
        vertex 3.800000e+00 4.420000e+01 1.500000e+01
        vertex 1.440000e+01 5.140000e+01 1.000000e+01
    endloop
endfacet
facet normal -5.618833e-01 8.272165e-01 0.000000e+00
    outer loop
        vertex 3.800000e+00 4.420000e+01 1.500000e+01
        vertex 1.440000e+01 5.140000e+01 1.500000e+01
        vertex 1.440000e+01 5.140000e+01 1.000000e+01
    endloop
endfacet
facet normal -2.248589e-01 9.743913e-01 0.000000e+00
    outer loop
        vertex 1.440000e+01 5.140000e+01 1.000000e+01
        vertex 1.440000e+01 5.140000e+01 1.500000e+01
        vertex 1.700000e+01 5.200000e+01 1.000000e+01
    endloop
endfacet
facet normal -2.248589e-01 9.743913e-01 0.000000e+00
    outer loop
        vertex 1.440000e+01 5.140000e+01 1.500000e+01
        vertex 1.700000e+01 5.200000e+01 1.500000e+01
        vertex 1.700000e+01 5.200000e+01 1.000000e+01
    endloop
endfacet
facet normal -1.000000e+00 0.000000e+00 0.000000e+00
    outer loop
        vertex 1.700000e+01 5.200000e+01 1.000000e+01
        vertex 1.700000e+01 5.200000e+01 1.500000e+01
        vertex 1.700000e+01 5.680000e+01 1.000000e+01
    endloop
endfacet
facet normal -1.000000e+00 0.000000e+00 0.000000e+00
    outer loop
        vertex 1.700000e+01 5.200000e+01 1.500000e+01
        vertex 1.700000e+01 5.680000e+01 1.500000e+01
        vertex 1.700000e+01 5.680000e+01 1.000000e+01
    endloop
endfacet
facet normal -2.248603e-01 -9.743910e-01 0.000000e+00
    outer loop
        vertex 1.700000e+01 5.680000e+01 1.000000e+01
        vertex 1.700000e+01 5.680000e+01 1.500000e+01
        vertex 1.440000e+01 5.740000e+01 1.000000e+01
    endloop
endfacet
facet normal -2.248603e-01 -9.743910e-01 0.000000e+00
    outer loop
        vertex 1.700000e+01 5.680000e+01 1.500000e+01
        vertex 1.440000e+01 5.740000e+01 1.500000e+01
        vertex 1.440000e+01 5.740000e+01 1.000000e+01
    endloop
endfacet
facet normal -1.000000e+00 0.000000e+00 0.000000e+00
    outer loop
        vertex 1.440000e+01 5.740000e+01 1.000000e+01
        vertex 1.440000e+01 5.740000e+01 1.500000e+01
        vertex 1.440000e+01 5.980000e+01 1.000000e+01
    endloop
endfacet
facet normal -1.000000e+00 0.000000e+00 0.000000e+00
    outer loop
        vertex 1.440000e+01 5.740000e+01 1.500000e+01
        vertex 1.440000e+01 5.980000e+01 1.500000e+01
        vertex 1.440000e+01 5.980000e+01 1.000000e+01
    endloop
endfacet
facet normal -2.248617e-01 9.743907e-01 0.000000e+00
    outer loop
        vertex 1.440000e+01 5.980000e+01 1.000000e+01
        vertex 1.440000e+01 5.980000e+01 1.500000e+01
        vertex 1.700000e+01 6.040000e+01 1.000000e+01
    endloop
endfacet
facet normal -2.248617e-01 9.743907e-01 0.000000e+00
    outer loop
        vertex 1.440000e+01 5.980000e+01 1.500000e+01
        vertex 1.700000e+01 6.040000e+01 1.500000e+01
        vertex 1.700000e+01 6.040000e+01 1.000000e+01
    endloop
endfacet
facet normal -1.000000e+00 0.000000e+00 0.000000e+00
    outer loop
        vertex 1.700000e+01 6.040000e+01 1.000000e+01
        vertex 1.700000e+01 6.040000e+01 1.500000e+01
        vertex 1.700000e+01 6.520000e+01 1.000000e+01
    endloop
endfacet
facet normal -1.000000e+00 0.000000e+00 0.000000e+00
    outer loop
        vertex 1.700000e+01 6.040000e+01 1.500000e+01
        vertex 1.700000e+01 6.520000e+01 1.500000e+01
        vertex 1.700000e+01 6.520000e+01 1.000000e+01
    endloop
endfacet
facet normal -2.248589e-01 -9.743913e-01 0.000000e+00
    outer loop
        vertex 1.700000e+01 6.520000e+01 1.000000e+01
        vertex 1.700000e+01 6.520000e+01 1.500000e+01
        vertex 1.440000e+01 6.580000e+01 1.000000e+01
    endloop
endfacet
facet normal -2.248589e-01 -9.743913e-01 0.000000e+00
    outer loop
        vertex 1.700000e+01 6.520000e+01 1.500000e+01
        vertex 1.440000e+01 6.580000e+01 1.500000e+01
        vertex 1.440000e+01 6.580000e+01 1.000000e+01
    endloop
endfacet
facet normal -1.000000e+00 0.000000e+00 0.000000e+00
    outer loop
        vertex 1.440000e+01 6.580000e+01 1.000000e+01
        vertex 1.440000e+01 6.580000e+01 1.500000e+01
        vertex 1.440000e+01 6.820000e+01 1.000000e+01
    endloop
endfacet
facet normal -1.000000e+00 0.000000e+00 0.000000e+00
    outer loop
        vertex 1.440000e+01 6.580000e+01 1.500000e+01
        vertex 1.440000e+01 6.820000e+01 1.500000e+01
        vertex 1.440000e+01 6.820000e+01 1.000000e+01
    endloop
endfacet
facet normal -2.248589e-01 9.743913e-01 0.000000e+00
    outer loop
        vertex 1.440000e+01 6.820000e+01 1.000000e+01
        vertex 1.440000e+01 6.820000e+01 1.500000e+01
        vertex 1.700000e+01 6.880000e+01 1.000000e+01
    endloop
endfacet
facet normal -2.248589e-01 9.743913e-01 0.000000e+00
    outer loop
        vertex 1.440000e+01 6.820000e+01 1.500000e+01
        vertex 1.700000e+01 6.880000e+01 1.500000e+01
        vertex 1.700000e+01 6.880000e+01 1.000000e+01
    endloop
endfacet
facet normal -1.000000e+00 0.000000e+00 0.000000e+00
    outer loop
        vertex 1.700000e+01 6.880000e+01 1.000000e+01
        vertex 1.700000e+01 6.880000e+01 1.500000e+01
        vertex 1.700000e+01 7.360000e+01 1.000000e+01
    endloop
endfacet
facet normal -1.000000e+00 0.000000e+00 0.000000e+00
    outer loop
        vertex 1.700000e+01 6.880000e+01 1.500000e+01
        vertex 1.700000e+01 7.360000e+01 1.500000e+01
        vertex 1.700000e+01 7.360000e+01 1.000000e+01
    endloop
endfacet
facet normal -2.248589e-01 -9.743913e-01 0.000000e+00
    outer loop
        vertex 1.700000e+01 7.360000e+01 1.000000e+01
        vertex 1.700000e+01 7.360000e+01 1.500000e+01
        vertex 1.440000e+01 7.420000e+01 1.000000e+01
    endloop
endfacet
facet normal -2.248589e-01 -9.743913e-01 0.000000e+00
    outer loop
        vertex 1.700000e+01 7.360000e+01 1.500000e+01
        vertex 1.440000e+01 7.420000e+01 1.500000e+01
        vertex 1.440000e+01 7.420000e+01 1.000000e+01
    endloop
endfacet
facet normal -1.000000e+00 0.000000e+00 0.000000e+00
    outer loop
        vertex 1.440000e+01 7.420000e+01 1.000000e+01
        vertex 1.440000e+01 7.420000e+01 1.500000e+01
        vertex 1.440000e+01 7.660000e+01 1.000000e+01
    endloop
endfacet
facet normal -1.000000e+00 0.000000e+00 0.000000e+00
    outer loop
        vertex 1.440000e+01 7.420000e+01 1.500000e+01
        vertex 1.440000e+01 7.660000e+01 1.500000e+01
        vertex 1.440000e+01 7.660000e+01 1.000000e+01
    endloop
endfacet
facet normal -2.248589e-01 9.743913e-01 0.000000e+00
    outer loop
        vertex 1.440000e+01 7.660000e+01 1.000000e+01
        vertex 1.440000e+01 7.660000e+01 1.500000e+01
        vertex 1.700000e+01 7.720000e+01 1.000000e+01
    endloop
endfacet
facet normal -2.248589e-01 9.743913e-01 0.000000e+00
    outer loop
        vertex 1.440000e+01 7.660000e+01 1.500000e+01
        vertex 1.700000e+01 7.720000e+01 1.500000e+01
        vertex 1.700000e+01 7.720000e+01 1.000000e+01
    endloop
endfacet
facet normal -1.000000e+00 0.000000e+00 0.000000e+00
    outer loop
        vertex 1.700000e+01 7.720000e+01 1.000000e+01
        vertex 1.700000e+01 7.720000e+01 1.500000e+01
        vertex 1.700000e+01 8.200000e+01 1.000000e+01
    endloop
endfacet
facet normal -1.000000e+00 0.000000e+00 0.000000e+00
    outer loop
        vertex 1.700000e+01 7.720000e+01 1.500000e+01
        vertex 1.700000e+01 8.200000e+01 1.500000e+01
        vertex 1.700000e+01 8.200000e+01 1.000000e+01
    endloop
endfacet
facet normal -2.248589e-01 -9.743913e-01 0.000000e+00
    outer loop
        vertex 1.700000e+01 8.200000e+01 1.000000e+01
        vertex 1.700000e+01 8.200000e+01 1.500000e+01
        vertex 1.440000e+01 8.260000e+01 1.000000e+01
    endloop
endfacet
facet normal -2.248589e-01 -9.743913e-01 0.000000e+00
    outer loop
        vertex 1.700000e+01 8.200000e+01 1.500000e+01
        vertex 1.440000e+01 8.260000e+01 1.500000e+01
        vertex 1.440000e+01 8.260000e+01 1.000000e+01
    endloop
endfacet
facet normal -1.000000e+00 0.000000e+00 0.000000e+00
    outer loop
        vertex 1.440000e+01 8.260000e+01 1.000000e+01
        vertex 1.440000e+01 8.260000e+01 1.500000e+01
        vertex 1.440000e+01 8.500000e+01 1.000000e+01
    endloop
endfacet
facet normal -1.000000e+00 0.000000e+00 0.000000e+00
    outer loop
        vertex 1.440000e+01 8.260000e+01 1.500000e+01
        vertex 1.440000e+01 8.500000e+01 1.500000e+01
        vertex 1.440000e+01 8.500000e+01 1.000000e+01
    endloop
endfacet
facet normal -2.248617e-01 9.743907e-01 0.000000e+00
    outer loop
        vertex 1.440000e+01 8.500000e+01 1.000000e+01
        vertex 1.440000e+01 8.500000e+01 1.500000e+01
        vertex 1.700000e+01 8.560001e+01 1.000000e+01
    endloop
endfacet
facet normal -2.248617e-01 9.743907e-01 0.000000e+00
    outer loop
        vertex 1.440000e+01 8.500000e+01 1.500000e+01
        vertex 1.700000e+01 8.560001e+01 1.500000e+01
        vertex 1.700000e+01 8.560001e+01 1.000000e+01
    endloop
endfacet
facet normal -1.000000e+00 0.000000e+00 0.000000e+00
    outer loop
        vertex 1.700000e+01 8.560001e+01 1.000000e+01
        vertex 1.700000e+01 8.560001e+01 1.500000e+01
        vertex 1.700000e+01 9.039999e+01 1.000000e+01
    endloop
endfacet
facet normal -1.000000e+00 0.000000e+00 0.000000e+00
    outer loop
        vertex 1.700000e+01 8.560001e+01 1.500000e+01
        vertex 1.700000e+01 9.039999e+01 1.500000e+01
        vertex 1.700000e+01 9.039999e+01 1.000000e+01
    endloop
endfacet
facet normal -2.248617e-01 -9.743907e-01 0.000000e+00
    outer loop
        vertex 1.700000e+01 9.039999e+01 1.000000e+01
        vertex 1.700000e+01 9.039999e+01 1.500000e+01
        vertex 1.440000e+01 9.100000e+01 1.000000e+01
    endloop
endfacet
facet normal -2.248617e-01 -9.743907e-01 0.000000e+00
    outer loop
        vertex 1.700000e+01 9.039999e+01 1.500000e+01
        vertex 1.440000e+01 9.100000e+01 1.500000e+01
        vertex 1.440000e+01 9.100000e+01 1.000000e+01
    endloop
endfacet
facet normal -5.618829e-01 -8.272168e-01 0.000000e+00
    outer loop
        vertex 1.440000e+01 9.100000e+01 1.000000e+01
        vertex 1.440000e+01 9.100000e+01 1.500000e+01
        vertex 3.800000e+00 9.820000e+01 1.000000e+01
    endloop
endfacet
facet normal -5.618829e-01 -8.272168e-01 0.000000e+00
    outer loop
        vertex 1.440000e+01 9.100000e+01 1.500000e+01
        vertex 3.800000e+00 9.820000e+01 1.500000e+01
        vertex 3.800000e+00 9.820000e+01 1.000000e+01
    endloop
endfacet
facet normal 0.000000e+00 -1.000000e+00 0.000000e+00
    outer loop
        vertex -3.800000e+00 9.820000e+01 1.000000e+01
        vertex 3.800000e+00 9.820000e+01 1.000000e+01
        vertex 3.800000e+00 9.820000e+01 1.500000e+01
    endloop
endfacet
facet normal 0.000000e+00 -1.000000e+00 0.000000e+00
    outer loop
        vertex -3.800000e+00 9.820000e+01 1.000000e+01
        vertex 3.800000e+00 9.820000e+01 1.500000e+01
        vertex -3.800000e+00 9.820000e+01 1.500000e+01
    endloop
endfacet
facet normal 5.618829e-01 -8.272168e-01 0.000000e+00
    outer loop
        vertex -1.440000e+01 9.100000e+01 1.000000e+01
        vertex -3.800000e+00 9.820000e+01 1.000000e+01
        vertex -3.800000e+00 9.820000e+01 1.500000e+01
    endloop
endfacet
facet normal 5.618829e-01 -8.272168e-01 0.000000e+00
    outer loop
        vertex -1.440000e+01 9.100000e+01 1.000000e+01
        vertex -3.800000e+00 9.820000e+01 1.500000e+01
        vertex -1.440000e+01 9.100000e+01 1.500000e+01
    endloop
endfacet
facet normal 2.248617e-01 -9.743907e-01 0.000000e+00
    outer loop
        vertex -1.700000e+01 9.039999e+01 1.000000e+01
        vertex -1.440000e+01 9.100000e+01 1.000000e+01
        vertex -1.440000e+01 9.100000e+01 1.500000e+01
    endloop
endfacet
facet normal 2.248617e-01 -9.743907e-01 0.000000e+00
    outer loop
        vertex -1.700000e+01 9.039999e+01 1.000000e+01
        vertex -1.440000e+01 9.100000e+01 1.500000e+01
        vertex -1.700000e+01 9.039999e+01 1.500000e+01
    endloop
endfacet
facet normal 1.000000e+00 0.000000e+00 0.000000e+00
    outer loop
        vertex -1.700000e+01 8.560001e+01 1.000000e+01
        vertex -1.700000e+01 9.039999e+01 1.000000e+01
        vertex -1.700000e+01 9.039999e+01 1.500000e+01
    endloop
endfacet
facet normal 1.000000e+00 0.000000e+00 0.000000e+00
    outer loop
        vertex -1.700000e+01 8.560001e+01 1.000000e+01
        vertex -1.700000e+01 9.039999e+01 1.500000e+01
        vertex -1.700000e+01 8.560001e+01 1.500000e+01
    endloop
endfacet
facet normal 2.248617e-01 9.743907e-01 0.000000e+00
    outer loop
        vertex -1.440000e+01 8.500000e+01 1.000000e+01
        vertex -1.700000e+01 8.560001e+01 1.000000e+01
        vertex -1.700000e+01 8.560001e+01 1.500000e+01
    endloop
endfacet
facet normal 2.248617e-01 9.743907e-01 -0.000000e+00
    outer loop
        vertex -1.440000e+01 8.500000e+01 1.000000e+01
        vertex -1.700000e+01 8.560001e+01 1.500000e+01
        vertex -1.440000e+01 8.500000e+01 1.500000e+01
    endloop
endfacet
facet normal 1.000000e+00 0.000000e+00 0.000000e+00
    outer loop
        vertex -1.440000e+01 8.260000e+01 1.000000e+01
        vertex -1.440000e+01 8.500000e+01 1.000000e+01
        vertex -1.440000e+01 8.500000e+01 1.500000e+01
    endloop
endfacet
facet normal 1.000000e+00 0.000000e+00 0.000000e+00
    outer loop
        vertex -1.440000e+01 8.260000e+01 1.000000e+01
        vertex -1.440000e+01 8.500000e+01 1.500000e+01
        vertex -1.440000e+01 8.260000e+01 1.500000e+01
    endloop
endfacet
facet normal 2.248589e-01 -9.743913e-01 0.000000e+00
    outer loop
        vertex -1.700000e+01 8.200000e+01 1.000000e+01
        vertex -1.440000e+01 8.260000e+01 1.000000e+01
        vertex -1.440000e+01 8.260000e+01 1.500000e+01
    endloop
endfacet
facet normal 2.248589e-01 -9.743913e-01 0.000000e+00
    outer loop
        vertex -1.700000e+01 8.200000e+01 1.000000e+01
        vertex -1.440000e+01 8.260000e+01 1.500000e+01
        vertex -1.700000e+01 8.200000e+01 1.500000e+01
    endloop
endfacet
facet normal 1.000000e+00 0.000000e+00 0.000000e+00
    outer loop
        vertex -1.700000e+01 7.720000e+01 1.000000e+01
        vertex -1.700000e+01 8.200000e+01 1.000000e+01
        vertex -1.700000e+01 8.200000e+01 1.500000e+01
    endloop
endfacet
facet normal 1.000000e+00 0.000000e+00 0.000000e+00
    outer loop
        vertex -1.700000e+01 7.720000e+01 1.000000e+01
        vertex -1.700000e+01 8.200000e+01 1.500000e+01
        vertex -1.700000e+01 7.720000e+01 1.500000e+01
    endloop
endfacet
facet normal 2.248589e-01 9.743913e-01 0.000000e+00
    outer loop
        vertex -1.440000e+01 7.660000e+01 1.000000e+01
        vertex -1.700000e+01 7.720000e+01 1.000000e+01
        vertex -1.700000e+01 7.720000e+01 1.500000e+01
    endloop
endfacet
facet normal 2.248589e-01 9.743913e-01 -0.000000e+00
    outer loop
        vertex -1.440000e+01 7.660000e+01 1.000000e+01
        vertex -1.700000e+01 7.720000e+01 1.500000e+01
        vertex -1.440000e+01 7.660000e+01 1.500000e+01
    endloop
endfacet
facet normal 1.000000e+00 0.000000e+00 0.000000e+00
    outer loop
        vertex -1.440000e+01 7.420000e+01 1.000000e+01
        vertex -1.440000e+01 7.660000e+01 1.000000e+01
        vertex -1.440000e+01 7.660000e+01 1.500000e+01
    endloop
endfacet
facet normal 1.000000e+00 0.000000e+00 0.000000e+00
    outer loop
        vertex -1.440000e+01 7.420000e+01 1.000000e+01
        vertex -1.440000e+01 7.660000e+01 1.500000e+01
        vertex -1.440000e+01 7.420000e+01 1.500000e+01
    endloop
endfacet
facet normal 2.248589e-01 -9.743913e-01 0.000000e+00
    outer loop
        vertex -1.700000e+01 7.360000e+01 1.000000e+01
        vertex -1.440000e+01 7.420000e+01 1.000000e+01
        vertex -1.440000e+01 7.420000e+01 1.500000e+01
    endloop
endfacet
facet normal 2.248589e-01 -9.743913e-01 0.000000e+00
    outer loop
        vertex -1.700000e+01 7.360000e+01 1.000000e+01
        vertex -1.440000e+01 7.420000e+01 1.500000e+01
        vertex -1.700000e+01 7.360000e+01 1.500000e+01
    endloop
endfacet
facet normal 1.000000e+00 0.000000e+00 0.000000e+00
    outer loop
        vertex -1.700000e+01 6.880000e+01 1.000000e+01
        vertex -1.700000e+01 7.360000e+01 1.000000e+01
        vertex -1.700000e+01 7.360000e+01 1.500000e+01
    endloop
endfacet
facet normal 1.000000e+00 0.000000e+00 0.000000e+00
    outer loop
        vertex -1.700000e+01 6.880000e+01 1.000000e+01
        vertex -1.700000e+01 7.360000e+01 1.500000e+01
        vertex -1.700000e+01 6.880000e+01 1.500000e+01
    endloop
endfacet
facet normal 2.248589e-01 9.743913e-01 0.000000e+00
    outer loop
        vertex -1.440000e+01 6.820000e+01 1.000000e+01
        vertex -1.700000e+01 6.880000e+01 1.000000e+01
        vertex -1.700000e+01 6.880000e+01 1.500000e+01
    endloop
endfacet
facet normal 2.248589e-01 9.743913e-01 -0.000000e+00
    outer loop
        vertex -1.440000e+01 6.820000e+01 1.000000e+01
        vertex -1.700000e+01 6.880000e+01 1.500000e+01
        vertex -1.440000e+01 6.820000e+01 1.500000e+01
    endloop
endfacet
facet normal 1.000000e+00 0.000000e+00 0.000000e+00
    outer loop
        vertex -1.440000e+01 6.580000e+01 1.000000e+01
        vertex -1.440000e+01 6.820000e+01 1.000000e+01
        vertex -1.440000e+01 6.820000e+01 1.500000e+01
    endloop
endfacet
facet normal 1.000000e+00 0.000000e+00 0.000000e+00
    outer loop
        vertex -1.440000e+01 6.580000e+01 1.000000e+01
        vertex -1.440000e+01 6.820000e+01 1.500000e+01
        vertex -1.440000e+01 6.580000e+01 1.500000e+01
    endloop
endfacet
facet normal 2.248589e-01 -9.743913e-01 0.000000e+00
    outer loop
        vertex -1.700000e+01 6.520000e+01 1.000000e+01
        vertex -1.440000e+01 6.580000e+01 1.000000e+01
        vertex -1.440000e+01 6.580000e+01 1.500000e+01
    endloop
endfacet
facet normal 2.248589e-01 -9.743913e-01 0.000000e+00
    outer loop
        vertex -1.700000e+01 6.520000e+01 1.000000e+01
        vertex -1.440000e+01 6.580000e+01 1.500000e+01
        vertex -1.700000e+01 6.520000e+01 1.500000e+01
    endloop
endfacet
facet normal 1.000000e+00 0.000000e+00 0.000000e+00
    outer loop
        vertex -1.700000e+01 6.040000e+01 1.000000e+01
        vertex -1.700000e+01 6.520000e+01 1.000000e+01
        vertex -1.700000e+01 6.520000e+01 1.500000e+01
    endloop
endfacet
facet normal 1.000000e+00 0.000000e+00 0.000000e+00
    outer loop
        vertex -1.700000e+01 6.040000e+01 1.000000e+01
        vertex -1.700000e+01 6.520000e+01 1.500000e+01
        vertex -1.700000e+01 6.040000e+01 1.500000e+01
    endloop
endfacet
facet normal 2.248617e-01 9.743907e-01 0.000000e+00
    outer loop
        vertex -1.440000e+01 5.980000e+01 1.000000e+01
        vertex -1.700000e+01 6.040000e+01 1.000000e+01
        vertex -1.700000e+01 6.040000e+01 1.500000e+01
    endloop
endfacet
facet normal 2.248617e-01 9.743907e-01 -0.000000e+00
    outer loop
        vertex -1.440000e+01 5.980000e+01 1.000000e+01
        vertex -1.700000e+01 6.040000e+01 1.500000e+01
        vertex -1.440000e+01 5.980000e+01 1.500000e+01
    endloop
endfacet
facet normal 1.000000e+00 0.000000e+00 0.000000e+00
    outer loop
        vertex -1.440000e+01 5.740000e+01 1.000000e+01
        vertex -1.440000e+01 5.980000e+01 1.000000e+01
        vertex -1.440000e+01 5.980000e+01 1.500000e+01
    endloop
endfacet
facet normal 1.000000e+00 0.000000e+00 0.000000e+00
    outer loop
        vertex -1.440000e+01 5.740000e+01 1.000000e+01
        vertex -1.440000e+01 5.980000e+01 1.500000e+01
        vertex -1.440000e+01 5.740000e+01 1.500000e+01
    endloop
endfacet
facet normal 2.248603e-01 -9.743910e-01 0.000000e+00
    outer loop
        vertex -1.700000e+01 5.680000e+01 1.000000e+01
        vertex -1.440000e+01 5.740000e+01 1.000000e+01
        vertex -1.440000e+01 5.740000e+01 1.500000e+01
    endloop
endfacet
facet normal 2.248603e-01 -9.743910e-01 0.000000e+00
    outer loop
        vertex -1.700000e+01 5.680000e+01 1.000000e+01
        vertex -1.440000e+01 5.740000e+01 1.500000e+01
        vertex -1.700000e+01 5.680000e+01 1.500000e+01
    endloop
endfacet
facet normal 1.000000e+00 0.000000e+00 0.000000e+00
    outer loop
        vertex -1.700000e+01 5.200000e+01 1.000000e+01
        vertex -1.700000e+01 5.680000e+01 1.000000e+01
        vertex -1.700000e+01 5.680000e+01 1.500000e+01
    endloop
endfacet
facet normal 1.000000e+00 0.000000e+00 0.000000e+00
    outer loop
        vertex -1.700000e+01 5.200000e+01 1.000000e+01
        vertex -1.700000e+01 5.680000e+01 1.500000e+01
        vertex -1.700000e+01 5.200000e+01 1.500000e+01
    endloop
endfacet
facet normal 2.248589e-01 9.743913e-01 0.000000e+00
    outer loop
        vertex -1.440000e+01 5.140000e+01 1.000000e+01
        vertex -1.700000e+01 5.200000e+01 1.000000e+01
        vertex -1.700000e+01 5.200000e+01 1.500000e+01
    endloop
endfacet
facet normal 2.248589e-01 9.743913e-01 -0.000000e+00
    outer loop
        vertex -1.440000e+01 5.140000e+01 1.000000e+01
        vertex -1.700000e+01 5.200000e+01 1.500000e+01
        vertex -1.440000e+01 5.140000e+01 1.500000e+01
    endloop
endfacet
facet normal 0.000000e+00 0.000000e+00 -1.000000e+00
    outer loop
        vertex 1.875000e+01 4.220000e+01 1.000000e+01
        vertex 3.800000e+00 4.420000e+01 1.000000e+01
        vertex 1.440000e+01 5.140000e+01 1.000000e+01
    endloop
endfacet
facet normal 0.000000e+00 0.000000e+00 -1.000000e+00
    outer loop
        vertex 1.700000e+01 6.520000e+01 1.000000e+01
        vertex 1.440000e+01 6.580000e+01 1.000000e+01
        vertex 1.440000e+01 6.820000e+01 1.000000e+01
    endloop
endfacet
facet normal 0.000000e+00 0.000000e+00 -1.000000e+00
    outer loop
        vertex 1.700000e+01 7.360000e+01 1.000000e+01
        vertex 1.440000e+01 7.420000e+01 1.000000e+01
        vertex 1.440000e+01 7.660000e+01 1.000000e+01
    endloop
endfacet
facet normal 0.000000e+00 0.000000e+00 -1.000000e+00
    outer loop
        vertex 1.700000e+01 8.200000e+01 1.000000e+01
        vertex 1.440000e+01 8.260000e+01 1.000000e+01
        vertex 1.440000e+01 8.500000e+01 1.000000e+01
    endloop
endfacet
facet normal 0.000000e+00 0.000000e+00 -1.000000e+00
    outer loop
        vertex -1.700000e+01 8.200000e+01 1.000000e+01
        vertex -1.440000e+01 8.500000e+01 1.000000e+01
        vertex -1.440000e+01 8.260000e+01 1.000000e+01
    endloop
endfacet
facet normal 0.000000e+00 0.000000e+00 -1.000000e+00
    outer loop
        vertex -1.440000e+01 7.420000e+01 1.000000e+01
        vertex -1.700000e+01 7.720000e+01 1.000000e+01
        vertex -1.440000e+01 7.660000e+01 1.000000e+01
    endloop
endfacet
facet normal 0.000000e+00 0.000000e+00 -1.000000e+00
    outer loop
        vertex -1.440000e+01 6.580000e+01 1.000000e+01
        vertex -1.700000e+01 6.880000e+01 1.000000e+01
        vertex -1.440000e+01 6.820000e+01 1.000000e+01
    endloop
endfacet
facet normal 0.000000e+00 0.000000e+00 -1.000000e+00
    outer loop
        vertex 1.700000e+01 5.680000e+01 1.000000e+01
        vertex 1.440000e+01 5.740000e+01 1.000000e+01
        vertex 1.440000e+01 5.980000e+01 1.000000e+01
    endloop
endfacet
facet normal 0.000000e+00 0.000000e+00 -1.000000e+00
    outer loop
        vertex -1.700000e+01 5.680000e+01 1.000000e+01
        vertex -1.440000e+01 5.980000e+01 1.000000e+01
        vertex -1.440000e+01 5.740000e+01 1.000000e+01
    endloop
endfacet
facet normal 0.000000e+00 0.000000e+00 -1.000000e+00
    outer loop
        vertex 1.875000e+01 4.220000e+01 1.000000e+01
        vertex 1.440000e+01 5.140000e+01 1.000000e+01
        vertex 1.700000e+01 5.200000e+01 1.000000e+01
    endloop
endfacet
facet normal 0.000000e+00 0.000000e+00 -1.000000e+00
    outer loop
        vertex 3.800000e+00 9.999999e+00 1.000000e+01
        vertex -3.800000e+00 9.999999e+00 1.000000e+01
        vertex 3.800000e+00 4.220000e+01 1.000000e+01
    endloop
endfacet
facet normal 0.000000e+00 0.000000e+00 -1.000000e+00
    outer loop
        vertex -3.800000e+00 9.999999e+00 1.000000e+01
        vertex -3.800000e+00 4.220000e+01 1.000000e+01
        vertex 3.800000e+00 4.220000e+01 1.000000e+01
    endloop
endfacet
facet normal 0.000000e+00 0.000000e+00 -1.000000e+00
    outer loop
        vertex 1.700000e+01 8.200000e+01 1.000000e+01
        vertex 1.440000e+01 8.500000e+01 1.000000e+01
        vertex 1.700000e+01 8.560001e+01 1.000000e+01
    endloop
endfacet
facet normal 0.000000e+00 0.000000e+00 -1.000000e+00
    outer loop
        vertex -1.700000e+01 8.200000e+01 1.000000e+01
        vertex -1.700000e+01 8.560001e+01 1.000000e+01
        vertex -1.440000e+01 8.500000e+01 1.000000e+01
    endloop
endfacet
facet normal 0.000000e+00 0.000000e+00 -1.000000e+00
    outer loop
        vertex -1.700000e+01 5.680000e+01 1.000000e+01
        vertex -1.700000e+01 6.040000e+01 1.000000e+01
        vertex -1.440000e+01 5.980000e+01 1.000000e+01
    endloop
endfacet
facet normal 0.000000e+00 0.000000e+00 -1.000000e+00
    outer loop
        vertex 1.700000e+01 6.520000e+01 1.000000e+01
        vertex 1.440000e+01 6.820000e+01 1.000000e+01
        vertex 1.700000e+01 6.880000e+01 1.000000e+01
    endloop
endfacet
facet normal 0.000000e+00 0.000000e+00 -1.000000e+00
    outer loop
        vertex -1.700000e+01 6.520000e+01 1.000000e+01
        vertex -1.700000e+01 6.880000e+01 1.000000e+01
        vertex -1.440000e+01 6.580000e+01 1.000000e+01
    endloop
endfacet
facet normal 0.000000e+00 0.000000e+00 -1.000000e+00
    outer loop
        vertex 3.800000e+00 4.220000e+01 1.000000e+01
        vertex 3.800000e+00 4.420000e+01 1.000000e+01
        vertex 1.875000e+01 4.220000e+01 1.000000e+01
    endloop
endfacet
facet normal 0.000000e+00 0.000000e+00 -1.000000e+00
    outer loop
        vertex 3.800000e+00 4.220000e+01 1.000000e+01
        vertex -3.800000e+00 4.420000e+01 1.000000e+01
        vertex 3.800000e+00 4.420000e+01 1.000000e+01
    endloop
endfacet
facet normal 0.000000e+00 0.000000e+00 -1.000000e+00
    outer loop
        vertex 3.800000e+00 4.220000e+01 1.000000e+01
        vertex -3.800000e+00 4.220000e+01 1.000000e+01
        vertex -3.800000e+00 4.420000e+01 1.000000e+01
    endloop
endfacet
facet normal 0.000000e+00 0.000000e+00 -1.000000e+00
    outer loop
        vertex -3.800000e+00 4.220000e+01 1.000000e+01
        vertex -1.875000e+01 4.220000e+01 1.000000e+01
        vertex -3.800000e+00 4.420000e+01 1.000000e+01
    endloop
endfacet
facet normal 0.000000e+00 0.000000e+00 -1.000000e+00
    outer loop
        vertex -1.875000e+01 4.220000e+01 1.000000e+01
        vertex -1.440000e+01 5.140000e+01 1.000000e+01
        vertex -3.800000e+00 4.420000e+01 1.000000e+01
    endloop
endfacet
facet normal 0.000000e+00 0.000000e+00 -1.000000e+00
    outer loop
        vertex -1.875000e+01 4.220000e+01 1.000000e+01
        vertex -1.700000e+01 5.200000e+01 1.000000e+01
        vertex -1.440000e+01 5.140000e+01 1.000000e+01
    endloop
endfacet
facet normal 0.000000e+00 0.000000e+00 -1.000000e+00
    outer loop
        vertex 1.700000e+01 7.360000e+01 1.000000e+01
        vertex 1.440000e+01 7.660000e+01 1.000000e+01
        vertex 1.700000e+01 7.720000e+01 1.000000e+01
    endloop
endfacet
facet normal 0.000000e+00 0.000000e+00 -1.000000e+00
    outer loop
        vertex 1.700000e+01 5.680000e+01 1.000000e+01
        vertex 1.440000e+01 5.980000e+01 1.000000e+01
        vertex 1.700000e+01 6.040000e+01 1.000000e+01
    endloop
endfacet
facet normal 0.000000e+00 0.000000e+00 -1.000000e+00
    outer loop
        vertex -1.700000e+01 7.360000e+01 1.000000e+01
        vertex -1.700000e+01 7.720000e+01 1.000000e+01
        vertex -1.440000e+01 7.420000e+01 1.000000e+01
    endloop
endfacet
facet normal 0.000000e+00 0.000000e+00 -1.000000e+00
    outer loop
        vertex 1.700000e+01 9.039999e+01 1.000000e+01
        vertex 1.440000e+01 9.100000e+01 1.000000e+01
        vertex 3.800000e+00 9.820000e+01 1.000000e+01
    endloop
endfacet
facet normal 0.000000e+00 0.000000e+00 -1.000000e+00
    outer loop
        vertex -1.700000e+01 9.039999e+01 1.000000e+01
        vertex -3.800000e+00 9.820000e+01 1.000000e+01
        vertex -1.440000e+01 9.100000e+01 1.000000e+01
    endloop
endfacet
facet normal 0.000000e+00 0.000000e+00 -1.000000e+00
    outer loop
        vertex 1.875000e+01 4.220000e+01 1.000000e+01
        vertex 1.700000e+01 5.200000e+01 1.000000e+01
        vertex 1.700000e+01 5.680000e+01 1.000000e+01
    endloop
endfacet
facet normal 0.000000e+00 0.000000e+00 -1.000000e+00
    outer loop
        vertex -1.875000e+01 4.220000e+01 1.000000e+01
        vertex -1.700000e+01 5.680000e+01 1.000000e+01
        vertex -1.700000e+01 5.200000e+01 1.000000e+01
    endloop
endfacet
facet normal 0.000000e+00 0.000000e+00 -1.000000e+00
    outer loop
        vertex 1.875000e+01 4.220000e+01 1.000000e+01
        vertex 1.700000e+01 5.680000e+01 1.000000e+01
        vertex 1.875000e+01 1.002000e+02 1.000000e+01
    endloop
endfacet
facet normal 0.000000e+00 0.000000e+00 -1.000000e+00
    outer loop
        vertex -1.875000e+01 4.220000e+01 1.000000e+01
        vertex -1.875000e+01 1.002000e+02 1.000000e+01
        vertex -1.700000e+01 5.680000e+01 1.000000e+01
    endloop
endfacet
facet normal 0.000000e+00 0.000000e+00 -1.000000e+00
    outer loop
        vertex 1.700000e+01 5.680000e+01 1.000000e+01
        vertex 1.700000e+01 6.040000e+01 1.000000e+01
        vertex 1.875000e+01 1.002000e+02 1.000000e+01
    endloop
endfacet
facet normal 0.000000e+00 0.000000e+00 -1.000000e+00
    outer loop
        vertex 1.700000e+01 6.040000e+01 1.000000e+01
        vertex 1.700000e+01 6.520000e+01 1.000000e+01
        vertex 1.875000e+01 1.002000e+02 1.000000e+01
    endloop
endfacet
facet normal 0.000000e+00 0.000000e+00 -1.000000e+00
    outer loop
        vertex 1.700000e+01 6.520000e+01 1.000000e+01
        vertex 1.700000e+01 6.880000e+01 1.000000e+01
        vertex 1.875000e+01 1.002000e+02 1.000000e+01
    endloop
endfacet
facet normal 0.000000e+00 0.000000e+00 -1.000000e+00
    outer loop
        vertex 1.700000e+01 6.880000e+01 1.000000e+01
        vertex 1.700000e+01 7.360000e+01 1.000000e+01
        vertex 1.875000e+01 1.002000e+02 1.000000e+01
    endloop
endfacet
facet normal 0.000000e+00 0.000000e+00 -1.000000e+00
    outer loop
        vertex 1.700000e+01 7.360000e+01 1.000000e+01
        vertex 1.700000e+01 7.720000e+01 1.000000e+01
        vertex 1.875000e+01 1.002000e+02 1.000000e+01
    endloop
endfacet
facet normal 0.000000e+00 0.000000e+00 -1.000000e+00
    outer loop
        vertex 1.700000e+01 7.720000e+01 1.000000e+01
        vertex 1.700000e+01 8.200000e+01 1.000000e+01
        vertex 1.875000e+01 1.002000e+02 1.000000e+01
    endloop
endfacet
facet normal 0.000000e+00 0.000000e+00 -1.000000e+00
    outer loop
        vertex 1.700000e+01 8.200000e+01 1.000000e+01
        vertex 1.700000e+01 8.560001e+01 1.000000e+01
        vertex 1.875000e+01 1.002000e+02 1.000000e+01
    endloop
endfacet
facet normal 0.000000e+00 0.000000e+00 -1.000000e+00
    outer loop
        vertex 1.700000e+01 8.560001e+01 1.000000e+01
        vertex 1.700000e+01 9.039999e+01 1.000000e+01
        vertex 1.875000e+01 1.002000e+02 1.000000e+01
    endloop
endfacet
facet normal 0.000000e+00 0.000000e+00 -1.000000e+00
    outer loop
        vertex 1.700000e+01 9.039999e+01 1.000000e+01
        vertex 3.800000e+00 9.820000e+01 1.000000e+01
        vertex 1.875000e+01 1.002000e+02 1.000000e+01
    endloop
endfacet
facet normal 0.000000e+00 0.000000e+00 -1.000000e+00
    outer loop
        vertex 3.800000e+00 9.820000e+01 1.000000e+01
        vertex -1.875000e+01 1.002000e+02 1.000000e+01
        vertex 1.875000e+01 1.002000e+02 1.000000e+01
    endloop
endfacet
facet normal 0.000000e+00 0.000000e+00 -1.000000e+00
    outer loop
        vertex 3.800000e+00 9.820000e+01 1.000000e+01
        vertex -3.800000e+00 9.820000e+01 1.000000e+01
        vertex -1.875000e+01 1.002000e+02 1.000000e+01
    endloop
endfacet
facet normal 0.000000e+00 0.000000e+00 -1.000000e+00
    outer loop
        vertex -1.700000e+01 9.039999e+01 1.000000e+01
        vertex -1.875000e+01 1.002000e+02 1.000000e+01
        vertex -3.800000e+00 9.820000e+01 1.000000e+01
    endloop
endfacet
facet normal 0.000000e+00 0.000000e+00 -1.000000e+00
    outer loop
        vertex -1.700000e+01 8.560001e+01 1.000000e+01
        vertex -1.875000e+01 1.002000e+02 1.000000e+01
        vertex -1.700000e+01 9.039999e+01 1.000000e+01
    endloop
endfacet
facet normal 0.000000e+00 0.000000e+00 -1.000000e+00
    outer loop
        vertex -1.700000e+01 8.200000e+01 1.000000e+01
        vertex -1.875000e+01 1.002000e+02 1.000000e+01
        vertex -1.700000e+01 8.560001e+01 1.000000e+01
    endloop
endfacet
facet normal 0.000000e+00 0.000000e+00 -1.000000e+00
    outer loop
        vertex -1.700000e+01 7.720000e+01 1.000000e+01
        vertex -1.875000e+01 1.002000e+02 1.000000e+01
        vertex -1.700000e+01 8.200000e+01 1.000000e+01
    endloop
endfacet
facet normal 0.000000e+00 0.000000e+00 -1.000000e+00
    outer loop
        vertex -1.700000e+01 7.360000e+01 1.000000e+01
        vertex -1.875000e+01 1.002000e+02 1.000000e+01
        vertex -1.700000e+01 7.720000e+01 1.000000e+01
    endloop
endfacet
facet normal 0.000000e+00 0.000000e+00 -1.000000e+00
    outer loop
        vertex -1.700000e+01 6.880000e+01 1.000000e+01
        vertex -1.875000e+01 1.002000e+02 1.000000e+01
        vertex -1.700000e+01 7.360000e+01 1.000000e+01
    endloop
endfacet
facet normal 0.000000e+00 0.000000e+00 -1.000000e+00
    outer loop
        vertex -1.700000e+01 6.520000e+01 1.000000e+01
        vertex -1.875000e+01 1.002000e+02 1.000000e+01
        vertex -1.700000e+01 6.880000e+01 1.000000e+01
    endloop
endfacet
facet normal 0.000000e+00 0.000000e+00 -1.000000e+00
    outer loop
        vertex -1.700000e+01 6.040000e+01 1.000000e+01
        vertex -1.875000e+01 1.002000e+02 1.000000e+01
        vertex -1.700000e+01 6.520000e+01 1.000000e+01
    endloop
endfacet
facet normal 0.000000e+00 0.000000e+00 -1.000000e+00
    outer loop
        vertex -1.700000e+01 5.680000e+01 1.000000e+01
        vertex -1.875000e+01 1.002000e+02 1.000000e+01
        vertex -1.700000e+01 6.040000e+01 1.000000e+01
    endloop
endfacet
facet normal 0.000000e+00 0.000000e+00 -1.000000e+00
    outer loop
        vertex 3.800000e+00 -9.536743e-07 0.000000e+00
        vertex -3.800000e+00 -9.536743e-07 0.000000e+00
        vertex -3.800000e+00 4.999999e+00 0.000000e+00
    endloop
endfacet
facet normal 0.000000e+00 0.000000e+00 -1.000000e+00
    outer loop
        vertex 3.800000e+00 -9.536743e-07 0.000000e+00
        vertex -3.800000e+00 4.999999e+00 0.000000e+00
        vertex 3.800000e+00 4.999999e+00 0.000000e+00
    endloop
endfacet
facet normal 0.000000e+00 8.944272e-01 -4.472136e-01
    outer loop
        vertex 3.800000e+00 4.999999e+00 0.000000e+00
        vertex -3.800000e+00 4.999999e+00 0.000000e+00
        vertex -3.800000e+00 9.999999e+00 1.000000e+01
    endloop
endfacet
facet normal 0.000000e+00 8.944272e-01 -4.472136e-01
    outer loop
        vertex 3.800000e+00 4.999999e+00 0.000000e+00
        vertex -3.800000e+00 9.999999e+00 1.000000e+01
        vertex 3.800000e+00 9.999999e+00 1.000000e+01
    endloop
endfacet
endsolid pusher-rack.stl
