solid jam-leaver.stl
facet normal 0.000000e+00 1.000000e+00 -0.000000e+00
    outer loop
        vertex -1.320000e+01 5.980000e+01 3.200000e+00
        vertex -3.020000e+01 5.980000e+01 3.200000e+00
        vertex -1.320000e+01 5.980000e+01 7.800000e+00
    endloop
endfacet
facet normal 0.000000e+00 1.000000e+00 0.000000e+00
    outer loop
        vertex -3.020000e+01 5.980000e+01 3.200000e+00
        vertex -3.020000e+01 5.980000e+01 7.800000e+00
        vertex -1.320000e+01 5.980000e+01 7.800000e+00
    endloop
endfacet
facet normal 0.000000e+00 0.000000e+00 -1.000000e+00
    outer loop
        vertex -1.780000e+01 5.020000e+01 3.200000e+00
        vertex -3.020000e+01 5.020000e+01 3.200000e+00
        vertex -3.020000e+01 5.980000e+01 3.200000e+00
    endloop
endfacet
facet normal 0.000000e+00 0.000000e+00 -1.000000e+00
    outer loop
        vertex -1.320000e+01 3.820000e+01 3.200000e+00
        vertex -1.780000e+01 3.820000e+01 3.200000e+00
        vertex -1.780000e+01 5.020000e+01 3.200000e+00
    endloop
endfacet
facet normal 0.000000e+00 0.000000e+00 -1.000000e+00
    outer loop
        vertex -1.320000e+01 3.820000e+01 3.200000e+00
        vertex -1.780000e+01 5.020000e+01 3.200000e+00
        vertex -1.320000e+01 5.980000e+01 3.200000e+00
    endloop
endfacet
facet normal 0.000000e+00 0.000000e+00 -1.000000e+00
    outer loop
        vertex -1.780000e+01 5.020000e+01 3.200000e+00
        vertex -3.020000e+01 5.980000e+01 3.200000e+00
        vertex -1.320000e+01 5.980000e+01 3.200000e+00
    endloop
endfacet
facet normal 0.000000e+00 0.000000e+00 1.000000e+00
    outer loop
        vertex -1.780000e+01 5.020000e+01 7.800000e+00
        vertex -3.020000e+01 5.980000e+01 7.800000e+00
        vertex -3.020000e+01 5.020000e+01 7.800000e+00
    endloop
endfacet
facet normal 0.000000e+00 0.000000e+00 1.000000e+00
    outer loop
        vertex -1.320000e+01 3.820000e+01 7.800000e+00
        vertex -1.780000e+01 5.020000e+01 7.800000e+00
        vertex -1.780000e+01 3.820000e+01 7.800000e+00
    endloop
endfacet
facet normal 0.000000e+00 -0.000000e+00 1.000000e+00
    outer loop
        vertex -1.320000e+01 3.820000e+01 7.800000e+00
        vertex -1.320000e+01 5.980000e+01 7.800000e+00
        vertex -1.780000e+01 5.020000e+01 7.800000e+00
    endloop
endfacet
facet normal 0.000000e+00 -0.000000e+00 1.000000e+00
    outer loop
        vertex -1.780000e+01 5.020000e+01 7.800000e+00
        vertex -1.320000e+01 5.980000e+01 7.800000e+00
        vertex -3.020000e+01 5.980000e+01 7.800000e+00
    endloop
endfacet
facet normal 1.000000e+00 -0.000000e+00 0.000000e+00
    outer loop
        vertex -1.320000e+01 3.820000e+01 7.800000e+00
        vertex -1.320000e+01 5.980000e+01 3.200000e+00
        vertex -1.320000e+01 5.980000e+01 7.800000e+00
    endloop
endfacet
facet normal 1.000000e+00 0.000000e+00 0.000000e+00
    outer loop
        vertex -1.320000e+01 3.820000e+01 3.200000e+00
        vertex -1.320000e+01 5.980000e+01 3.200000e+00
        vertex -1.320000e+01 3.820000e+01 7.800000e+00
    endloop
endfacet
facet normal -1.000000e+00 0.000000e+00 0.000000e+00
    outer loop
        vertex -1.780000e+01 3.820000e+01 3.200000e+00
        vertex -1.780000e+01 5.020000e+01 7.800000e+00
        vertex -1.780000e+01 5.020000e+01 3.200000e+00
    endloop
endfacet
facet normal -1.000000e+00 0.000000e+00 0.000000e+00
    outer loop
        vertex -1.780000e+01 3.820000e+01 3.200000e+00
        vertex -1.780000e+01 3.820000e+01 7.800000e+00
        vertex -1.780000e+01 5.020000e+01 7.800000e+00
    endloop
endfacet
facet normal -1.000000e+00 0.000000e+00 0.000000e+00
    outer loop
        vertex -3.020000e+01 5.020000e+01 3.200000e+00
        vertex -3.020000e+01 5.020000e+01 7.800000e+00
        vertex -3.020000e+01 5.980000e+01 3.200000e+00
    endloop
endfacet
facet normal -1.000000e+00 0.000000e+00 0.000000e+00
    outer loop
        vertex -3.020000e+01 5.020000e+01 7.800000e+00
        vertex -3.020000e+01 5.980000e+01 7.800000e+00
        vertex -3.020000e+01 5.980000e+01 3.200000e+00
    endloop
endfacet
facet normal 0.000000e+00 -1.000000e+00 0.000000e+00
    outer loop
        vertex -1.320000e+01 3.820000e+01 3.200000e+00
        vertex -1.320000e+01 3.820000e+01 7.800000e+00
        vertex -1.780000e+01 3.820000e+01 7.800000e+00
    endloop
endfacet
facet normal 0.000000e+00 -1.000000e+00 0.000000e+00
    outer loop
        vertex -1.320000e+01 3.820000e+01 3.200000e+00
        vertex -1.780000e+01 3.820000e+01 7.800000e+00
        vertex -1.780000e+01 3.820000e+01 3.200000e+00
    endloop
endfacet
facet normal 0.000000e+00 -1.000000e+00 0.000000e+00
    outer loop
        vertex -3.020000e+01 5.020000e+01 3.200000e+00
        vertex -1.780000e+01 5.020000e+01 7.800000e+00
        vertex -3.020000e+01 5.020000e+01 7.800000e+00
    endloop
endfacet
facet normal 0.000000e+00 -1.000000e+00 0.000000e+00
    outer loop
        vertex -1.780000e+01 5.020000e+01 3.200000e+00
        vertex -1.780000e+01 5.020000e+01 7.800000e+00
        vertex -3.020000e+01 5.020000e+01 3.200000e+00
    endloop
endfacet
endsolid jam-leaver.stl
