solid tester-for-pusher-pinion.stl
facet normal 0.000000e+00 0.000000e+00 -1.000000e+00
    outer loop
        vertex -6.099543e+00 9.552157e+01 -2.000000e+01
        vertex -3.879946e+00 9.841422e+01 -2.000000e+01
        vertex 3.879946e+00 9.841422e+01 -2.000000e+01
    endloop
endfacet
facet normal 0.000000e+00 0.000000e+00 -1.000000e+00
    outer loop
        vertex -6.099543e+00 9.552157e+01 -2.000000e+01
        vertex 3.879946e+00 9.841422e+01 -2.000000e+01
        vertex 6.099543e+00 9.552157e+01 -2.000000e+01
    endloop
endfacet
facet normal 0.000000e+00 0.000000e+00 -1.000000e+00
    outer loop
        vertex -6.803155e+00 9.382290e+01 -2.000000e+01
        vertex -6.099543e+00 9.552157e+01 -2.000000e+01
        vertex 6.099543e+00 9.552157e+01 -2.000000e+01
    endloop
endfacet
facet normal 0.000000e+00 0.000000e+00 -1.000000e+00
    outer loop
        vertex -7.043145e+00 9.200000e+01 -2.000000e+01
        vertex -6.803155e+00 9.382290e+01 -2.000000e+01
        vertex 6.099543e+00 9.552157e+01 -2.000000e+01
    endloop
endfacet
facet normal 0.000000e+00 0.000000e+00 -1.000000e+00
    outer loop
        vertex -6.803155e+00 9.017710e+01 -2.000000e+01
        vertex -7.043145e+00 9.200000e+01 -2.000000e+01
        vertex 6.099543e+00 9.552157e+01 -2.000000e+01
    endloop
endfacet
facet normal 0.000000e+00 0.000000e+00 -1.000000e+00
    outer loop
        vertex -6.099543e+00 8.847843e+01 -2.000000e+01
        vertex -6.803155e+00 9.017710e+01 -2.000000e+01
        vertex 6.099543e+00 9.552157e+01 -2.000000e+01
    endloop
endfacet
facet normal 0.000000e+00 0.000000e+00 -1.000000e+00
    outer loop
        vertex -4.980249e+00 8.701973e+01 -2.000000e+01
        vertex -6.099543e+00 8.847843e+01 -2.000000e+01
        vertex 6.099543e+00 9.552157e+01 -2.000000e+01
    endloop
endfacet
facet normal 0.000000e+00 0.000000e+00 -1.000000e+00
    outer loop
        vertex -4.980249e+00 8.701973e+01 -2.000000e+01
        vertex 6.099543e+00 9.552157e+01 -2.000000e+01
        vertex 6.803155e+00 9.382290e+01 -2.000000e+01
    endloop
endfacet
facet normal 0.000000e+00 0.000000e+00 -1.000000e+00
    outer loop
        vertex -4.980249e+00 8.701973e+01 -2.000000e+01
        vertex 6.803155e+00 9.382290e+01 -2.000000e+01
        vertex 7.043145e+00 9.200000e+01 -2.000000e+01
    endloop
endfacet
facet normal 0.000000e+00 0.000000e+00 -1.000000e+00
    outer loop
        vertex -4.980249e+00 8.701973e+01 -2.000000e+01
        vertex 7.043145e+00 9.200000e+01 -2.000000e+01
        vertex 6.803155e+00 9.017710e+01 -2.000000e+01
    endloop
endfacet
facet normal 0.000000e+00 0.000000e+00 -1.000000e+00
    outer loop
        vertex -4.980249e+00 8.701973e+01 -2.000000e+01
        vertex 6.803155e+00 9.017710e+01 -2.000000e+01
        vertex 6.099543e+00 8.847843e+01 -2.000000e+01
    endloop
endfacet
facet normal 0.000000e+00 0.000000e+00 -1.000000e+00
    outer loop
        vertex -4.980249e+00 8.701973e+01 -2.000000e+01
        vertex 6.099543e+00 8.847843e+01 -2.000000e+01
        vertex 4.980249e+00 8.701973e+01 -2.000000e+01
    endloop
endfacet
facet normal 0.000000e+00 0.000000e+00 -1.000000e+00
    outer loop
        vertex 3.521576e+00 8.590047e+01 -2.000000e+01
        vertex -4.980249e+00 8.701973e+01 -2.000000e+01
        vertex 4.980249e+00 8.701973e+01 -2.000000e+01
    endloop
endfacet
facet normal 0.000000e+00 0.000000e+00 -1.000000e+00
    outer loop
        vertex 1.822912e+00 8.519684e+01 -2.000000e+01
        vertex -4.980249e+00 8.701973e+01 -2.000000e+01
        vertex 3.521576e+00 8.590047e+01 -2.000000e+01
    endloop
endfacet
facet normal 0.000000e+00 0.000000e+00 -1.000000e+00
    outer loop
        vertex 1.822912e+00 8.519684e+01 -2.000000e+01
        vertex -3.521576e+00 8.590047e+01 -2.000000e+01
        vertex -4.980249e+00 8.701973e+01 -2.000000e+01
    endloop
endfacet
facet normal 0.000000e+00 0.000000e+00 -1.000000e+00
    outer loop
        vertex 0.000000e+00 8.495686e+01 -2.000000e+01
        vertex -3.521576e+00 8.590047e+01 -2.000000e+01
        vertex 1.822912e+00 8.519684e+01 -2.000000e+01
    endloop
endfacet
facet normal 0.000000e+00 0.000000e+00 -1.000000e+00
    outer loop
        vertex 0.000000e+00 8.495686e+01 -2.000000e+01
        vertex -1.822912e+00 8.519684e+01 -2.000000e+01
        vertex -3.521576e+00 8.590047e+01 -2.000000e+01
    endloop
endfacet
facet normal 9.916338e-01 1.290825e-01 -0.000000e+00
    outer loop
        vertex 1.936000e+00 9.200000e+01 5.500000e+00
        vertex 1.870032e+00 9.250677e+01 5.500000e+00
        vertex 1.936000e+00 9.200000e+01 1.480000e+01
    endloop
endfacet
facet normal 9.916338e-01 1.290825e-01 0.000000e+00
    outer loop
        vertex 1.936000e+00 9.200000e+01 1.480000e+01
        vertex 1.870032e+00 9.250677e+01 5.500000e+00
        vertex 1.870032e+00 9.250677e+01 1.480000e+01
    endloop
endfacet
facet normal 9.253920e-01 3.790115e-01 -0.000000e+00
    outer loop
        vertex 1.870032e+00 9.250677e+01 5.500000e+00
        vertex 1.676625e+00 9.297900e+01 5.500000e+00
        vertex 1.870032e+00 9.250677e+01 1.480000e+01
    endloop
endfacet
facet normal 9.253920e-01 3.790115e-01 0.000000e+00
    outer loop
        vertex 1.870032e+00 9.250677e+01 1.480000e+01
        vertex 1.676625e+00 9.297900e+01 5.500000e+00
        vertex 1.676625e+00 9.297900e+01 1.480000e+01
    endloop
endfacet
facet normal 7.966605e-01 6.044270e-01 -0.000000e+00
    outer loop
        vertex 1.676625e+00 9.297900e+01 5.500000e+00
        vertex 1.368959e+00 9.338451e+01 5.500000e+00
        vertex 1.676625e+00 9.297900e+01 1.480000e+01
    endloop
endfacet
facet normal 7.966605e-01 6.044270e-01 0.000000e+00
    outer loop
        vertex 1.676625e+00 9.297900e+01 1.480000e+01
        vertex 1.368959e+00 9.338451e+01 5.500000e+00
        vertex 1.368959e+00 9.338451e+01 1.480000e+01
    endloop
endfacet
facet normal 0.000000e+00 1.000000e+00 0.000000e+00
    outer loop
        vertex 1.368959e+00 9.338451e+01 5.500000e+00
        vertex -1.368959e+00 9.338451e+01 5.500000e+00
        vertex -1.368959e+00 9.338451e+01 1.480000e+01
    endloop
endfacet
facet normal 0.000000e+00 1.000000e+00 -0.000000e+00
    outer loop
        vertex 1.368959e+00 9.338451e+01 5.500000e+00
        vertex -1.368959e+00 9.338451e+01 1.480000e+01
        vertex 1.368959e+00 9.338451e+01 1.480000e+01
    endloop
endfacet
facet normal -7.966605e-01 6.044270e-01 0.000000e+00
    outer loop
        vertex -1.676625e+00 9.297900e+01 5.500000e+00
        vertex -1.676625e+00 9.297900e+01 1.480000e+01
        vertex -1.368959e+00 9.338451e+01 5.500000e+00
    endloop
endfacet
facet normal -7.966605e-01 6.044270e-01 0.000000e+00
    outer loop
        vertex -1.676625e+00 9.297900e+01 1.480000e+01
        vertex -1.368959e+00 9.338451e+01 1.480000e+01
        vertex -1.368959e+00 9.338451e+01 5.500000e+00
    endloop
endfacet
facet normal -9.253920e-01 3.790115e-01 0.000000e+00
    outer loop
        vertex -1.870032e+00 9.250677e+01 5.500000e+00
        vertex -1.870032e+00 9.250677e+01 1.480000e+01
        vertex -1.676625e+00 9.297900e+01 5.500000e+00
    endloop
endfacet
facet normal -9.253920e-01 3.790115e-01 0.000000e+00
    outer loop
        vertex -1.870032e+00 9.250677e+01 1.480000e+01
        vertex -1.676625e+00 9.297900e+01 1.480000e+01
        vertex -1.676625e+00 9.297900e+01 5.500000e+00
    endloop
endfacet
facet normal -9.916338e-01 1.290825e-01 0.000000e+00
    outer loop
        vertex -1.936000e+00 9.200000e+01 5.500000e+00
        vertex -1.936000e+00 9.200000e+01 1.480000e+01
        vertex -1.870032e+00 9.250677e+01 5.500000e+00
    endloop
endfacet
facet normal -9.916338e-01 1.290825e-01 0.000000e+00
    outer loop
        vertex -1.936000e+00 9.200000e+01 1.480000e+01
        vertex -1.870032e+00 9.250677e+01 1.480000e+01
        vertex -1.870032e+00 9.250677e+01 5.500000e+00
    endloop
endfacet
facet normal -9.916338e-01 -1.290825e-01 0.000000e+00
    outer loop
        vertex -1.870032e+00 9.149323e+01 5.500000e+00
        vertex -1.870032e+00 9.149323e+01 1.480000e+01
        vertex -1.936000e+00 9.200000e+01 5.500000e+00
    endloop
endfacet
facet normal -9.916338e-01 -1.290825e-01 0.000000e+00
    outer loop
        vertex -1.870032e+00 9.149323e+01 1.480000e+01
        vertex -1.936000e+00 9.200000e+01 1.480000e+01
        vertex -1.936000e+00 9.200000e+01 5.500000e+00
    endloop
endfacet
facet normal -9.253920e-01 -3.790115e-01 0.000000e+00
    outer loop
        vertex -1.676625e+00 9.102100e+01 5.500000e+00
        vertex -1.676625e+00 9.102100e+01 1.480000e+01
        vertex -1.870032e+00 9.149323e+01 5.500000e+00
    endloop
endfacet
facet normal -9.253920e-01 -3.790115e-01 0.000000e+00
    outer loop
        vertex -1.676625e+00 9.102100e+01 1.480000e+01
        vertex -1.870032e+00 9.149323e+01 1.480000e+01
        vertex -1.870032e+00 9.149323e+01 5.500000e+00
    endloop
endfacet
facet normal -7.966605e-01 -6.044270e-01 0.000000e+00
    outer loop
        vertex -1.368959e+00 9.061549e+01 5.500000e+00
        vertex -1.368959e+00 9.061549e+01 1.480000e+01
        vertex -1.676625e+00 9.102100e+01 5.500000e+00
    endloop
endfacet
facet normal -7.966605e-01 -6.044270e-01 0.000000e+00
    outer loop
        vertex -1.368959e+00 9.061549e+01 1.480000e+01
        vertex -1.676625e+00 9.102100e+01 1.480000e+01
        vertex -1.676625e+00 9.102100e+01 5.500000e+00
    endloop
endfacet
facet normal -6.130815e-01 -7.900197e-01 0.000000e+00
    outer loop
        vertex -9.680000e-01 9.030433e+01 5.500000e+00
        vertex -9.680000e-01 9.030433e+01 1.480000e+01
        vertex -1.368959e+00 9.061549e+01 5.500000e+00
    endloop
endfacet
facet normal -6.130815e-01 -7.900197e-01 0.000000e+00
    outer loop
        vertex -9.680000e-01 9.030433e+01 1.480000e+01
        vertex -1.368959e+00 9.061549e+01 1.480000e+01
        vertex -1.368959e+00 9.061549e+01 5.500000e+00
    endloop
endfacet
facet normal -3.864072e-01 -9.223283e-01 0.000000e+00
    outer loop
        vertex -5.010737e-01 9.010871e+01 5.500000e+00
        vertex -5.010737e-01 9.010871e+01 1.480000e+01
        vertex -9.680000e-01 9.030433e+01 5.500000e+00
    endloop
endfacet
facet normal -3.864072e-01 -9.223283e-01 0.000000e+00
    outer loop
        vertex -5.010737e-01 9.010871e+01 1.480000e+01
        vertex -9.680000e-01 9.030433e+01 1.480000e+01
        vertex -9.680000e-01 9.030433e+01 5.500000e+00
    endloop
endfacet
facet normal -1.319725e-01 -9.912534e-01 0.000000e+00
    outer loop
        vertex 0.000000e+00 9.004200e+01 5.500000e+00
        vertex 0.000000e+00 9.004200e+01 1.480000e+01
        vertex -5.010737e-01 9.010871e+01 5.500000e+00
    endloop
endfacet
facet normal -1.319725e-01 -9.912534e-01 0.000000e+00
    outer loop
        vertex 0.000000e+00 9.004200e+01 1.480000e+01
        vertex -5.010737e-01 9.010871e+01 1.480000e+01
        vertex -5.010737e-01 9.010871e+01 5.500000e+00
    endloop
endfacet
facet normal 1.319725e-01 -9.912534e-01 0.000000e+00
    outer loop
        vertex 0.000000e+00 9.004200e+01 5.500000e+00
        vertex 5.010737e-01 9.010871e+01 5.500000e+00
        vertex 0.000000e+00 9.004200e+01 1.480000e+01
    endloop
endfacet
facet normal 1.319725e-01 -9.912534e-01 0.000000e+00
    outer loop
        vertex 0.000000e+00 9.004200e+01 1.480000e+01
        vertex 5.010737e-01 9.010871e+01 5.500000e+00
        vertex 5.010737e-01 9.010871e+01 1.480000e+01
    endloop
endfacet
facet normal 3.864072e-01 -9.223283e-01 0.000000e+00
    outer loop
        vertex 5.010737e-01 9.010871e+01 5.500000e+00
        vertex 9.680000e-01 9.030433e+01 5.500000e+00
        vertex 5.010737e-01 9.010871e+01 1.480000e+01
    endloop
endfacet
facet normal 3.864072e-01 -9.223283e-01 0.000000e+00
    outer loop
        vertex 5.010737e-01 9.010871e+01 1.480000e+01
        vertex 9.680000e-01 9.030433e+01 5.500000e+00
        vertex 9.680000e-01 9.030433e+01 1.480000e+01
    endloop
endfacet
facet normal 6.130815e-01 -7.900197e-01 0.000000e+00
    outer loop
        vertex 9.680000e-01 9.030433e+01 5.500000e+00
        vertex 1.368959e+00 9.061549e+01 5.500000e+00
        vertex 9.680000e-01 9.030433e+01 1.480000e+01
    endloop
endfacet
facet normal 6.130815e-01 -7.900197e-01 0.000000e+00
    outer loop
        vertex 9.680000e-01 9.030433e+01 1.480000e+01
        vertex 1.368959e+00 9.061549e+01 5.500000e+00
        vertex 1.368959e+00 9.061549e+01 1.480000e+01
    endloop
endfacet
facet normal 7.966605e-01 -6.044270e-01 0.000000e+00
    outer loop
        vertex 1.368959e+00 9.061549e+01 5.500000e+00
        vertex 1.676625e+00 9.102100e+01 5.500000e+00
        vertex 1.368959e+00 9.061549e+01 1.480000e+01
    endloop
endfacet
facet normal 7.966605e-01 -6.044270e-01 0.000000e+00
    outer loop
        vertex 1.368959e+00 9.061549e+01 1.480000e+01
        vertex 1.676625e+00 9.102100e+01 5.500000e+00
        vertex 1.676625e+00 9.102100e+01 1.480000e+01
    endloop
endfacet
facet normal 9.253920e-01 -3.790115e-01 0.000000e+00
    outer loop
        vertex 1.676625e+00 9.102100e+01 5.500000e+00
        vertex 1.870032e+00 9.149323e+01 5.500000e+00
        vertex 1.676625e+00 9.102100e+01 1.480000e+01
    endloop
endfacet
facet normal 9.253920e-01 -3.790115e-01 0.000000e+00
    outer loop
        vertex 1.676625e+00 9.102100e+01 1.480000e+01
        vertex 1.870032e+00 9.149323e+01 5.500000e+00
        vertex 1.870032e+00 9.149323e+01 1.480000e+01
    endloop
endfacet
facet normal 9.916338e-01 -1.290825e-01 0.000000e+00
    outer loop
        vertex 1.870032e+00 9.149323e+01 5.500000e+00
        vertex 1.936000e+00 9.200000e+01 5.500000e+00
        vertex 1.870032e+00 9.149323e+01 1.480000e+01
    endloop
endfacet
facet normal 9.916338e-01 -1.290825e-01 0.000000e+00
    outer loop
        vertex 1.870032e+00 9.149323e+01 1.480000e+01
        vertex 1.936000e+00 9.200000e+01 5.500000e+00
        vertex 1.936000e+00 9.200000e+01 1.480000e+01
    endloop
endfacet
facet normal 0.000000e+00 0.000000e+00 1.000000e+00
    outer loop
        vertex 1.676625e+00 9.297900e+01 1.480000e+01
        vertex 1.368959e+00 9.338451e+01 1.480000e+01
        vertex -1.368959e+00 9.338451e+01 1.480000e+01
    endloop
endfacet
facet normal 0.000000e+00 0.000000e+00 1.000000e+00
    outer loop
        vertex 1.676625e+00 9.297900e+01 1.480000e+01
        vertex -1.368959e+00 9.338451e+01 1.480000e+01
        vertex -1.676625e+00 9.297900e+01 1.480000e+01
    endloop
endfacet
facet normal 0.000000e+00 0.000000e+00 1.000000e+00
    outer loop
        vertex 1.870032e+00 9.250677e+01 1.480000e+01
        vertex 1.676625e+00 9.297900e+01 1.480000e+01
        vertex -1.676625e+00 9.297900e+01 1.480000e+01
    endloop
endfacet
facet normal 0.000000e+00 0.000000e+00 1.000000e+00
    outer loop
        vertex 1.870032e+00 9.250677e+01 1.480000e+01
        vertex -1.676625e+00 9.297900e+01 1.480000e+01
        vertex -1.870032e+00 9.250677e+01 1.480000e+01
    endloop
endfacet
facet normal 0.000000e+00 0.000000e+00 1.000000e+00
    outer loop
        vertex 1.936000e+00 9.200000e+01 1.480000e+01
        vertex 1.870032e+00 9.250677e+01 1.480000e+01
        vertex -1.870032e+00 9.250677e+01 1.480000e+01
    endloop
endfacet
facet normal 0.000000e+00 0.000000e+00 1.000000e+00
    outer loop
        vertex 1.936000e+00 9.200000e+01 1.480000e+01
        vertex -1.870032e+00 9.250677e+01 1.480000e+01
        vertex -1.936000e+00 9.200000e+01 1.480000e+01
    endloop
endfacet
facet normal 0.000000e+00 -0.000000e+00 1.000000e+00
    outer loop
        vertex 1.870032e+00 9.149323e+01 1.480000e+01
        vertex 1.936000e+00 9.200000e+01 1.480000e+01
        vertex -1.936000e+00 9.200000e+01 1.480000e+01
    endloop
endfacet
facet normal 0.000000e+00 0.000000e+00 1.000000e+00
    outer loop
        vertex 1.870032e+00 9.149323e+01 1.480000e+01
        vertex -1.936000e+00 9.200000e+01 1.480000e+01
        vertex -1.870032e+00 9.149323e+01 1.480000e+01
    endloop
endfacet
facet normal 0.000000e+00 -0.000000e+00 1.000000e+00
    outer loop
        vertex -1.676625e+00 9.102100e+01 1.480000e+01
        vertex 1.870032e+00 9.149323e+01 1.480000e+01
        vertex -1.870032e+00 9.149323e+01 1.480000e+01
    endloop
endfacet
facet normal 0.000000e+00 -0.000000e+00 1.000000e+00
    outer loop
        vertex 1.676625e+00 9.102100e+01 1.480000e+01
        vertex 1.870032e+00 9.149323e+01 1.480000e+01
        vertex -1.676625e+00 9.102100e+01 1.480000e+01
    endloop
endfacet
facet normal 0.000000e+00 -0.000000e+00 1.000000e+00
    outer loop
        vertex -1.368959e+00 9.061549e+01 1.480000e+01
        vertex 1.676625e+00 9.102100e+01 1.480000e+01
        vertex -1.676625e+00 9.102100e+01 1.480000e+01
    endloop
endfacet
facet normal 0.000000e+00 -0.000000e+00 1.000000e+00
    outer loop
        vertex 1.368959e+00 9.061549e+01 1.480000e+01
        vertex 1.676625e+00 9.102100e+01 1.480000e+01
        vertex -1.368959e+00 9.061549e+01 1.480000e+01
    endloop
endfacet
facet normal 0.000000e+00 -0.000000e+00 1.000000e+00
    outer loop
        vertex -9.680000e-01 9.030433e+01 1.480000e+01
        vertex 1.368959e+00 9.061549e+01 1.480000e+01
        vertex -1.368959e+00 9.061549e+01 1.480000e+01
    endloop
endfacet
facet normal 0.000000e+00 -0.000000e+00 1.000000e+00
    outer loop
        vertex 9.680000e-01 9.030433e+01 1.480000e+01
        vertex 1.368959e+00 9.061549e+01 1.480000e+01
        vertex -9.680000e-01 9.030433e+01 1.480000e+01
    endloop
endfacet
facet normal 0.000000e+00 -0.000000e+00 1.000000e+00
    outer loop
        vertex -5.010737e-01 9.010871e+01 1.480000e+01
        vertex 9.680000e-01 9.030433e+01 1.480000e+01
        vertex -9.680000e-01 9.030433e+01 1.480000e+01
    endloop
endfacet
facet normal 0.000000e+00 -0.000000e+00 1.000000e+00
    outer loop
        vertex 0.000000e+00 9.004200e+01 1.480000e+01
        vertex 5.010737e-01 9.010871e+01 1.480000e+01
        vertex -5.010737e-01 9.010871e+01 1.480000e+01
    endloop
endfacet
facet normal 0.000000e+00 0.000000e+00 1.000000e+00
    outer loop
        vertex -5.010737e-01 9.010871e+01 1.480000e+01
        vertex 5.010737e-01 9.010871e+01 1.480000e+01
        vertex 9.680000e-01 9.030433e+01 1.480000e+01
    endloop
endfacet
facet normal 3.642715e-01 -4.795727e-02 9.300572e-01
    outer loop
        vertex 6.803155e+00 9.017710e+01 3.500000e+00
        vertex 7.043145e+00 9.200000e+01 3.500000e+00
        vertex 1.870032e+00 9.149323e+01 5.500000e+00
    endloop
endfacet
facet normal 3.642346e-01 -4.741298e-02 9.300995e-01
    outer loop
        vertex 1.870032e+00 9.149323e+01 5.500000e+00
        vertex 7.043145e+00 9.200000e+01 3.500000e+00
        vertex 1.936000e+00 9.200000e+01 5.500000e+00
    endloop
endfacet
facet normal 3.642715e-01 4.795727e-02 9.300572e-01
    outer loop
        vertex 7.043145e+00 9.200000e+01 3.500000e+00
        vertex 6.803155e+00 9.382290e+01 3.500000e+00
        vertex 1.870032e+00 9.250677e+01 5.500000e+00
    endloop
endfacet
facet normal 3.642346e-01 4.741298e-02 9.300995e-01
    outer loop
        vertex 7.043145e+00 9.200000e+01 3.500000e+00
        vertex 1.870032e+00 9.250677e+01 5.500000e+00
        vertex 1.936000e+00 9.200000e+01 5.500000e+00
    endloop
endfacet
facet normal 3.396480e-01 1.406870e-01 9.299712e-01
    outer loop
        vertex 1.676625e+00 9.297900e+01 5.500000e+00
        vertex 6.803155e+00 9.382290e+01 3.500000e+00
        vertex 6.099543e+00 9.552157e+01 3.500000e+00
    endloop
endfacet
facet normal 3.399336e-01 1.392261e-01 9.300867e-01
    outer loop
        vertex 1.870032e+00 9.250677e+01 5.500000e+00
        vertex 6.803155e+00 9.382290e+01 3.500000e+00
        vertex 1.676625e+00 9.297900e+01 5.500000e+00
    endloop
endfacet
facet normal 2.919253e-01 2.240012e-01 9.298403e-01
    outer loop
        vertex 1.368959e+00 9.338451e+01 5.500000e+00
        vertex 6.099543e+00 9.552157e+01 3.500000e+00
        vertex 3.879946e+00 9.841422e+01 3.500000e+00
    endloop
endfacet
facet normal 2.928222e-01 2.221645e-01 9.299990e-01
    outer loop
        vertex 1.676625e+00 9.297900e+01 5.500000e+00
        vertex 6.099543e+00 9.552157e+01 3.500000e+00
        vertex 1.368959e+00 9.338451e+01 5.500000e+00
    endloop
endfacet
facet normal 0.000000e+00 3.694977e-01 9.292316e-01
    outer loop
        vertex -1.368959e+00 9.338451e+01 5.500000e+00
        vertex 3.879946e+00 9.841422e+01 3.500000e+00
        vertex -3.879946e+00 9.841422e+01 3.500000e+00
    endloop
endfacet
facet normal -0.000000e+00 3.694977e-01 9.292316e-01
    outer loop
        vertex -1.368959e+00 9.338451e+01 5.500000e+00
        vertex 1.368959e+00 9.338451e+01 5.500000e+00
        vertex 3.879946e+00 9.841422e+01 3.500000e+00
    endloop
endfacet
facet normal -2.928222e-01 2.221645e-01 9.299990e-01
    outer loop
        vertex -1.676625e+00 9.297900e+01 5.500000e+00
        vertex -1.368959e+00 9.338451e+01 5.500000e+00
        vertex -6.099543e+00 9.552157e+01 3.500000e+00
    endloop
endfacet
facet normal -2.919253e-01 2.240012e-01 9.298403e-01
    outer loop
        vertex -1.368959e+00 9.338451e+01 5.500000e+00
        vertex -3.879946e+00 9.841422e+01 3.500000e+00
        vertex -6.099543e+00 9.552157e+01 3.500000e+00
    endloop
endfacet
facet normal -3.399336e-01 1.392261e-01 9.300867e-01
    outer loop
        vertex -1.870032e+00 9.250677e+01 5.500000e+00
        vertex -1.676625e+00 9.297900e+01 5.500000e+00
        vertex -6.803155e+00 9.382290e+01 3.500000e+00
    endloop
endfacet
facet normal -3.396480e-01 1.406870e-01 9.299712e-01
    outer loop
        vertex -1.676625e+00 9.297900e+01 5.500000e+00
        vertex -6.099543e+00 9.552157e+01 3.500000e+00
        vertex -6.803155e+00 9.382290e+01 3.500000e+00
    endloop
endfacet
facet normal -3.642346e-01 4.741298e-02 9.300995e-01
    outer loop
        vertex -7.043145e+00 9.200000e+01 3.500000e+00
        vertex -1.936000e+00 9.200000e+01 5.500000e+00
        vertex -1.870032e+00 9.250677e+01 5.500000e+00
    endloop
endfacet
facet normal -3.642715e-01 4.795727e-02 9.300572e-01
    outer loop
        vertex -7.043145e+00 9.200000e+01 3.500000e+00
        vertex -1.870032e+00 9.250677e+01 5.500000e+00
        vertex -6.803155e+00 9.382290e+01 3.500000e+00
    endloop
endfacet
facet normal -3.642715e-01 -4.795727e-02 9.300572e-01
    outer loop
        vertex -6.803155e+00 9.017710e+01 3.500000e+00
        vertex -1.870032e+00 9.149323e+01 5.500000e+00
        vertex -7.043145e+00 9.200000e+01 3.500000e+00
    endloop
endfacet
facet normal -3.642346e-01 -4.741298e-02 9.300995e-01
    outer loop
        vertex -1.870032e+00 9.149323e+01 5.500000e+00
        vertex -1.936000e+00 9.200000e+01 5.500000e+00
        vertex -7.043145e+00 9.200000e+01 3.500000e+00
    endloop
endfacet
facet normal -3.396480e-01 -1.406870e-01 9.299712e-01
    outer loop
        vertex -6.099543e+00 8.847843e+01 3.500000e+00
        vertex -1.676625e+00 9.102100e+01 5.500000e+00
        vertex -6.803155e+00 9.017710e+01 3.500000e+00
    endloop
endfacet
facet normal -3.399336e-01 -1.392261e-01 9.300867e-01
    outer loop
        vertex -6.803155e+00 9.017710e+01 3.500000e+00
        vertex -1.676625e+00 9.102100e+01 5.500000e+00
        vertex -1.870032e+00 9.149323e+01 5.500000e+00
    endloop
endfacet
facet normal -2.919255e-01 -2.240008e-01 9.298404e-01
    outer loop
        vertex -4.980249e+00 8.701973e+01 3.500000e+00
        vertex -1.368959e+00 9.061549e+01 5.500000e+00
        vertex -6.099543e+00 8.847843e+01 3.500000e+00
    endloop
endfacet
facet normal -2.928222e-01 -2.221645e-01 9.299990e-01
    outer loop
        vertex -6.099543e+00 8.847843e+01 3.500000e+00
        vertex -1.368959e+00 9.061549e+01 5.500000e+00
        vertex -1.676625e+00 9.102100e+01 5.500000e+00
    endloop
endfacet
facet normal -2.242162e-01 -2.922085e-01 9.296996e-01
    outer loop
        vertex -3.521576e+00 8.590047e+01 3.500000e+00
        vertex -9.680000e-01 9.030433e+01 5.500000e+00
        vertex -4.980249e+00 8.701973e+01 3.500000e+00
    endloop
endfacet
facet normal -2.255625e-01 -2.906609e-01 9.298590e-01
    outer loop
        vertex -4.980249e+00 8.701973e+01 3.500000e+00
        vertex -9.680000e-01 9.030433e+01 5.500000e+00
        vertex -1.368959e+00 9.061549e+01 5.500000e+00
    endloop
endfacet
facet normal -1.410619e-01 -3.405445e-01 9.295865e-01
    outer loop
        vertex -1.822912e+00 8.519684e+01 3.500000e+00
        vertex -5.010737e-01 9.010871e+01 5.500000e+00
        vertex -3.521576e+00 8.590047e+01 3.500000e+00
    endloop
endfacet
facet normal -1.423165e-01 -3.397000e-01 9.297042e-01
    outer loop
        vertex -3.521576e+00 8.590047e+01 3.500000e+00
        vertex -5.010737e-01 9.010871e+01 5.500000e+00
        vertex -9.680000e-01 9.030433e+01 5.500000e+00
    endloop
endfacet
facet normal -4.812879e-02 -3.655872e-01 9.295319e-01
    outer loop
        vertex 0.000000e+00 8.495686e+01 3.500000e+00
        vertex 0.000000e+00 9.004200e+01 5.500000e+00
        vertex -1.822912e+00 8.519684e+01 3.500000e+00
    endloop
endfacet
facet normal -4.864945e-02 -3.654090e-01 9.295749e-01
    outer loop
        vertex -1.822912e+00 8.519684e+01 3.500000e+00
        vertex 0.000000e+00 9.004200e+01 5.500000e+00
        vertex -5.010737e-01 9.010871e+01 5.500000e+00
    endloop
endfacet
facet normal 4.812879e-02 -3.655872e-01 9.295319e-01
    outer loop
        vertex 0.000000e+00 8.495686e+01 3.500000e+00
        vertex 1.822912e+00 8.519684e+01 3.500000e+00
        vertex 0.000000e+00 9.004200e+01 5.500000e+00
    endloop
endfacet
facet normal 4.864945e-02 -3.654090e-01 9.295749e-01
    outer loop
        vertex 1.822912e+00 8.519684e+01 3.500000e+00
        vertex 5.010737e-01 9.010871e+01 5.500000e+00
        vertex 0.000000e+00 9.004200e+01 5.500000e+00
    endloop
endfacet
facet normal 1.410619e-01 -3.405445e-01 9.295865e-01
    outer loop
        vertex 1.822912e+00 8.519684e+01 3.500000e+00
        vertex 3.521576e+00 8.590047e+01 3.500000e+00
        vertex 5.010737e-01 9.010871e+01 5.500000e+00
    endloop
endfacet
facet normal 1.423165e-01 -3.397000e-01 9.297042e-01
    outer loop
        vertex 3.521576e+00 8.590047e+01 3.500000e+00
        vertex 9.680000e-01 9.030433e+01 5.500000e+00
        vertex 5.010737e-01 9.010871e+01 5.500000e+00
    endloop
endfacet
facet normal 2.242162e-01 -2.922085e-01 9.296996e-01
    outer loop
        vertex 3.521576e+00 8.590047e+01 3.500000e+00
        vertex 4.980249e+00 8.701973e+01 3.500000e+00
        vertex 9.680000e-01 9.030433e+01 5.500000e+00
    endloop
endfacet
facet normal 2.255625e-01 -2.906609e-01 9.298590e-01
    outer loop
        vertex 4.980249e+00 8.701973e+01 3.500000e+00
        vertex 1.368959e+00 9.061549e+01 5.500000e+00
        vertex 9.680000e-01 9.030433e+01 5.500000e+00
    endloop
endfacet
facet normal 2.919255e-01 -2.240008e-01 9.298404e-01
    outer loop
        vertex 4.980249e+00 8.701973e+01 3.500000e+00
        vertex 6.099543e+00 8.847843e+01 3.500000e+00
        vertex 1.368959e+00 9.061549e+01 5.500000e+00
    endloop
endfacet
facet normal 2.928222e-01 -2.221645e-01 9.299990e-01
    outer loop
        vertex 6.099543e+00 8.847843e+01 3.500000e+00
        vertex 1.676625e+00 9.102100e+01 5.500000e+00
        vertex 1.368959e+00 9.061549e+01 5.500000e+00
    endloop
endfacet
facet normal 3.396480e-01 -1.406870e-01 9.299712e-01
    outer loop
        vertex 6.099543e+00 8.847843e+01 3.500000e+00
        vertex 6.803155e+00 9.017710e+01 3.500000e+00
        vertex 1.676625e+00 9.102100e+01 5.500000e+00
    endloop
endfacet
facet normal 3.399336e-01 -1.392261e-01 9.300867e-01
    outer loop
        vertex 6.803155e+00 9.017710e+01 3.500000e+00
        vertex 1.870032e+00 9.149323e+01 5.500000e+00
        vertex 1.676625e+00 9.102100e+01 5.500000e+00
    endloop
endfacet
facet normal 9.914448e-01 -1.305262e-01 0.000000e+00
    outer loop
        vertex 6.803155e+00 9.017710e+01 -2.000000e+01
        vertex 7.043145e+00 9.200000e+01 -2.000000e+01
        vertex 6.803155e+00 9.017710e+01 3.500000e+00
    endloop
endfacet
facet normal 9.914448e-01 -1.305262e-01 0.000000e+00
    outer loop
        vertex 6.803155e+00 9.017710e+01 3.500000e+00
        vertex 7.043145e+00 9.200000e+01 -2.000000e+01
        vertex 7.043145e+00 9.200000e+01 3.500000e+00
    endloop
endfacet
facet normal 9.914448e-01 1.305262e-01 -0.000000e+00
    outer loop
        vertex 7.043145e+00 9.200000e+01 -2.000000e+01
        vertex 6.803155e+00 9.382290e+01 -2.000000e+01
        vertex 7.043145e+00 9.200000e+01 3.500000e+00
    endloop
endfacet
facet normal 9.914448e-01 1.305262e-01 0.000000e+00
    outer loop
        vertex 7.043145e+00 9.200000e+01 3.500000e+00
        vertex 6.803155e+00 9.382290e+01 -2.000000e+01
        vertex 6.803155e+00 9.382290e+01 3.500000e+00
    endloop
endfacet
facet normal 9.238794e-01 3.826838e-01 -0.000000e+00
    outer loop
        vertex 6.803155e+00 9.382290e+01 -2.000000e+01
        vertex 6.099543e+00 9.552157e+01 -2.000000e+01
        vertex 6.803155e+00 9.382290e+01 3.500000e+00
    endloop
endfacet
facet normal 9.238794e-01 3.826838e-01 0.000000e+00
    outer loop
        vertex 6.803155e+00 9.382290e+01 3.500000e+00
        vertex 6.099543e+00 9.552157e+01 -2.000000e+01
        vertex 6.099543e+00 9.552157e+01 3.500000e+00
    endloop
endfacet
facet normal 7.933546e-01 6.087598e-01 -0.000000e+00
    outer loop
        vertex 6.099543e+00 9.552157e+01 -2.000000e+01
        vertex 3.879946e+00 9.841422e+01 -2.000000e+01
        vertex 6.099543e+00 9.552157e+01 3.500000e+00
    endloop
endfacet
facet normal 7.933546e-01 6.087598e-01 0.000000e+00
    outer loop
        vertex 6.099543e+00 9.552157e+01 3.500000e+00
        vertex 3.879946e+00 9.841422e+01 -2.000000e+01
        vertex 3.879946e+00 9.841422e+01 3.500000e+00
    endloop
endfacet
facet normal 0.000000e+00 1.000000e+00 0.000000e+00
    outer loop
        vertex 3.879946e+00 9.841422e+01 -2.000000e+01
        vertex -3.879946e+00 9.841422e+01 -2.000000e+01
        vertex -3.879946e+00 9.841422e+01 3.500000e+00
    endloop
endfacet
facet normal 0.000000e+00 1.000000e+00 -0.000000e+00
    outer loop
        vertex 3.879946e+00 9.841422e+01 -2.000000e+01
        vertex -3.879946e+00 9.841422e+01 3.500000e+00
        vertex 3.879946e+00 9.841422e+01 3.500000e+00
    endloop
endfacet
facet normal -7.933546e-01 6.087598e-01 0.000000e+00
    outer loop
        vertex -6.099543e+00 9.552157e+01 -2.000000e+01
        vertex -6.099543e+00 9.552157e+01 3.500000e+00
        vertex -3.879946e+00 9.841422e+01 -2.000000e+01
    endloop
endfacet
facet normal -7.933546e-01 6.087598e-01 0.000000e+00
    outer loop
        vertex -6.099543e+00 9.552157e+01 3.500000e+00
        vertex -3.879946e+00 9.841422e+01 3.500000e+00
        vertex -3.879946e+00 9.841422e+01 -2.000000e+01
    endloop
endfacet
facet normal -9.238794e-01 3.826838e-01 0.000000e+00
    outer loop
        vertex -6.803155e+00 9.382290e+01 -2.000000e+01
        vertex -6.803155e+00 9.382290e+01 3.500000e+00
        vertex -6.099543e+00 9.552157e+01 -2.000000e+01
    endloop
endfacet
facet normal -9.238794e-01 3.826838e-01 0.000000e+00
    outer loop
        vertex -6.803155e+00 9.382290e+01 3.500000e+00
        vertex -6.099543e+00 9.552157e+01 3.500000e+00
        vertex -6.099543e+00 9.552157e+01 -2.000000e+01
    endloop
endfacet
facet normal -9.914448e-01 1.305262e-01 0.000000e+00
    outer loop
        vertex -7.043145e+00 9.200000e+01 -2.000000e+01
        vertex -7.043145e+00 9.200000e+01 3.500000e+00
        vertex -6.803155e+00 9.382290e+01 -2.000000e+01
    endloop
endfacet
facet normal -9.914448e-01 1.305262e-01 0.000000e+00
    outer loop
        vertex -7.043145e+00 9.200000e+01 3.500000e+00
        vertex -6.803155e+00 9.382290e+01 3.500000e+00
        vertex -6.803155e+00 9.382290e+01 -2.000000e+01
    endloop
endfacet
facet normal -9.914448e-01 -1.305262e-01 0.000000e+00
    outer loop
        vertex -6.803155e+00 9.017710e+01 -2.000000e+01
        vertex -6.803155e+00 9.017710e+01 3.500000e+00
        vertex -7.043145e+00 9.200000e+01 -2.000000e+01
    endloop
endfacet
facet normal -9.914448e-01 -1.305262e-01 0.000000e+00
    outer loop
        vertex -6.803155e+00 9.017710e+01 3.500000e+00
        vertex -7.043145e+00 9.200000e+01 3.500000e+00
        vertex -7.043145e+00 9.200000e+01 -2.000000e+01
    endloop
endfacet
facet normal -9.238794e-01 -3.826838e-01 0.000000e+00
    outer loop
        vertex -6.099543e+00 8.847843e+01 -2.000000e+01
        vertex -6.099543e+00 8.847843e+01 3.500000e+00
        vertex -6.803155e+00 9.017710e+01 -2.000000e+01
    endloop
endfacet
facet normal -9.238794e-01 -3.826838e-01 0.000000e+00
    outer loop
        vertex -6.099543e+00 8.847843e+01 3.500000e+00
        vertex -6.803155e+00 9.017710e+01 3.500000e+00
        vertex -6.803155e+00 9.017710e+01 -2.000000e+01
    endloop
endfacet
facet normal -7.933554e-01 -6.087587e-01 0.000000e+00
    outer loop
        vertex -4.980249e+00 8.701973e+01 -2.000000e+01
        vertex -4.980249e+00 8.701973e+01 3.500000e+00
        vertex -6.099543e+00 8.847843e+01 -2.000000e+01
    endloop
endfacet
facet normal -7.933554e-01 -6.087587e-01 0.000000e+00
    outer loop
        vertex -4.980249e+00 8.701973e+01 3.500000e+00
        vertex -6.099543e+00 8.847843e+01 3.500000e+00
        vertex -6.099543e+00 8.847843e+01 -2.000000e+01
    endloop
endfacet
facet normal -6.087558e-01 -7.933576e-01 0.000000e+00
    outer loop
        vertex -3.521576e+00 8.590047e+01 -2.000000e+01
        vertex -3.521576e+00 8.590047e+01 3.500000e+00
        vertex -4.980249e+00 8.701973e+01 -2.000000e+01
    endloop
endfacet
facet normal -6.087558e-01 -7.933576e-01 0.000000e+00
    outer loop
        vertex -3.521576e+00 8.590047e+01 3.500000e+00
        vertex -4.980249e+00 8.701973e+01 3.500000e+00
        vertex -4.980249e+00 8.701973e+01 -2.000000e+01
    endloop
endfacet
facet normal -3.826922e-01 -9.238759e-01 0.000000e+00
    outer loop
        vertex -1.822912e+00 8.519684e+01 -2.000000e+01
        vertex -1.822912e+00 8.519684e+01 3.500000e+00
        vertex -3.521576e+00 8.590047e+01 -2.000000e+01
    endloop
endfacet
facet normal -3.826922e-01 -9.238759e-01 0.000000e+00
    outer loop
        vertex -1.822912e+00 8.519684e+01 3.500000e+00
        vertex -3.521576e+00 8.590047e+01 3.500000e+00
        vertex -3.521576e+00 8.590047e+01 -2.000000e+01
    endloop
endfacet
facet normal -1.305217e-01 -9.914454e-01 0.000000e+00
    outer loop
        vertex 0.000000e+00 8.495686e+01 -2.000000e+01
        vertex 0.000000e+00 8.495686e+01 3.500000e+00
        vertex -1.822912e+00 8.519684e+01 -2.000000e+01
    endloop
endfacet
facet normal -1.305217e-01 -9.914454e-01 0.000000e+00
    outer loop
        vertex 0.000000e+00 8.495686e+01 3.500000e+00
        vertex -1.822912e+00 8.519684e+01 3.500000e+00
        vertex -1.822912e+00 8.519684e+01 -2.000000e+01
    endloop
endfacet
facet normal 1.305217e-01 -9.914454e-01 0.000000e+00
    outer loop
        vertex 0.000000e+00 8.495686e+01 -2.000000e+01
        vertex 1.822912e+00 8.519684e+01 -2.000000e+01
        vertex 0.000000e+00 8.495686e+01 3.500000e+00
    endloop
endfacet
facet normal 1.305217e-01 -9.914454e-01 0.000000e+00
    outer loop
        vertex 0.000000e+00 8.495686e+01 3.500000e+00
        vertex 1.822912e+00 8.519684e+01 -2.000000e+01
        vertex 1.822912e+00 8.519684e+01 3.500000e+00
    endloop
endfacet
facet normal 3.826922e-01 -9.238759e-01 0.000000e+00
    outer loop
        vertex 1.822912e+00 8.519684e+01 -2.000000e+01
        vertex 3.521576e+00 8.590047e+01 -2.000000e+01
        vertex 1.822912e+00 8.519684e+01 3.500000e+00
    endloop
endfacet
facet normal 3.826922e-01 -9.238759e-01 0.000000e+00
    outer loop
        vertex 1.822912e+00 8.519684e+01 3.500000e+00
        vertex 3.521576e+00 8.590047e+01 -2.000000e+01
        vertex 3.521576e+00 8.590047e+01 3.500000e+00
    endloop
endfacet
facet normal 6.087558e-01 -7.933576e-01 0.000000e+00
    outer loop
        vertex 3.521576e+00 8.590047e+01 -2.000000e+01
        vertex 4.980249e+00 8.701973e+01 -2.000000e+01
        vertex 3.521576e+00 8.590047e+01 3.500000e+00
    endloop
endfacet
facet normal 6.087558e-01 -7.933576e-01 0.000000e+00
    outer loop
        vertex 3.521576e+00 8.590047e+01 3.500000e+00
        vertex 4.980249e+00 8.701973e+01 -2.000000e+01
        vertex 4.980249e+00 8.701973e+01 3.500000e+00
    endloop
endfacet
facet normal 7.933554e-01 -6.087587e-01 0.000000e+00
    outer loop
        vertex 4.980249e+00 8.701973e+01 -2.000000e+01
        vertex 6.099543e+00 8.847843e+01 -2.000000e+01
        vertex 4.980249e+00 8.701973e+01 3.500000e+00
    endloop
endfacet
facet normal 7.933554e-01 -6.087587e-01 0.000000e+00
    outer loop
        vertex 4.980249e+00 8.701973e+01 3.500000e+00
        vertex 6.099543e+00 8.847843e+01 -2.000000e+01
        vertex 6.099543e+00 8.847843e+01 3.500000e+00
    endloop
endfacet
facet normal 9.238794e-01 -3.826838e-01 0.000000e+00
    outer loop
        vertex 6.099543e+00 8.847843e+01 -2.000000e+01
        vertex 6.803155e+00 9.017710e+01 -2.000000e+01
        vertex 6.099543e+00 8.847843e+01 3.500000e+00
    endloop
endfacet
facet normal 9.238794e-01 -3.826838e-01 0.000000e+00
    outer loop
        vertex 6.099543e+00 8.847843e+01 3.500000e+00
        vertex 6.803155e+00 9.017710e+01 -2.000000e+01
        vertex 6.803155e+00 9.017710e+01 3.500000e+00
    endloop
endfacet
endsolid tester-for-pusher-pinion.stl
