solid tester-for-pusher-pinion.stl
facet normal 0.000000e+00 0.000000e+00 -1.000000e+00
    outer loop
        vertex -6.099543e+00 9.552157e+01 -2.000000e+01
        vertex -3.879946e+00 9.841422e+01 -2.000000e+01
        vertex 3.879946e+00 9.841422e+01 -2.000000e+01
    endloop
endfacet
facet normal 0.000000e+00 0.000000e+00 -1.000000e+00
    outer loop
        vertex -6.099543e+00 9.552157e+01 -2.000000e+01
        vertex 3.879946e+00 9.841422e+01 -2.000000e+01
        vertex 6.099543e+00 9.552157e+01 -2.000000e+01
    endloop
endfacet
facet normal 0.000000e+00 0.000000e+00 -1.000000e+00
    outer loop
        vertex -6.803155e+00 9.382290e+01 -2.000000e+01
        vertex -6.099543e+00 9.552157e+01 -2.000000e+01
        vertex 6.099543e+00 9.552157e+01 -2.000000e+01
    endloop
endfacet
facet normal 0.000000e+00 0.000000e+00 -1.000000e+00
    outer loop
        vertex -7.043145e+00 9.200000e+01 -2.000000e+01
        vertex -6.803155e+00 9.382290e+01 -2.000000e+01
        vertex 6.099543e+00 9.552157e+01 -2.000000e+01
    endloop
endfacet
facet normal 0.000000e+00 0.000000e+00 -1.000000e+00
    outer loop
        vertex -6.803155e+00 9.017710e+01 -2.000000e+01
        vertex -7.043145e+00 9.200000e+01 -2.000000e+01
        vertex 6.099543e+00 9.552157e+01 -2.000000e+01
    endloop
endfacet
facet normal 0.000000e+00 0.000000e+00 -1.000000e+00
    outer loop
        vertex -6.099543e+00 8.847843e+01 -2.000000e+01
        vertex -6.803155e+00 9.017710e+01 -2.000000e+01
        vertex 6.099543e+00 9.552157e+01 -2.000000e+01
    endloop
endfacet
facet normal 0.000000e+00 0.000000e+00 -1.000000e+00
    outer loop
        vertex -4.980249e+00 8.701973e+01 -2.000000e+01
        vertex -6.099543e+00 8.847843e+01 -2.000000e+01
        vertex 6.099543e+00 9.552157e+01 -2.000000e+01
    endloop
endfacet
facet normal 0.000000e+00 0.000000e+00 -1.000000e+00
    outer loop
        vertex -4.980249e+00 8.701973e+01 -2.000000e+01
        vertex 6.099543e+00 9.552157e+01 -2.000000e+01
        vertex 6.803155e+00 9.382290e+01 -2.000000e+01
    endloop
endfacet
facet normal 0.000000e+00 0.000000e+00 -1.000000e+00
    outer loop
        vertex -4.980249e+00 8.701973e+01 -2.000000e+01
        vertex 6.803155e+00 9.382290e+01 -2.000000e+01
        vertex 7.043145e+00 9.200000e+01 -2.000000e+01
    endloop
endfacet
facet normal 0.000000e+00 0.000000e+00 -1.000000e+00
    outer loop
        vertex -4.980249e+00 8.701973e+01 -2.000000e+01
        vertex 7.043145e+00 9.200000e+01 -2.000000e+01
        vertex 6.803155e+00 9.017710e+01 -2.000000e+01
    endloop
endfacet
facet normal 0.000000e+00 0.000000e+00 -1.000000e+00
    outer loop
        vertex -4.980249e+00 8.701973e+01 -2.000000e+01
        vertex 6.803155e+00 9.017710e+01 -2.000000e+01
        vertex 6.099543e+00 8.847843e+01 -2.000000e+01
    endloop
endfacet
facet normal 0.000000e+00 0.000000e+00 -1.000000e+00
    outer loop
        vertex -4.980249e+00 8.701973e+01 -2.000000e+01
        vertex 6.099543e+00 8.847843e+01 -2.000000e+01
        vertex 4.980249e+00 8.701973e+01 -2.000000e+01
    endloop
endfacet
facet normal 0.000000e+00 0.000000e+00 -1.000000e+00
    outer loop
        vertex 3.521576e+00 8.590047e+01 -2.000000e+01
        vertex -4.980249e+00 8.701973e+01 -2.000000e+01
        vertex 4.980249e+00 8.701973e+01 -2.000000e+01
    endloop
endfacet
facet normal 0.000000e+00 0.000000e+00 -1.000000e+00
    outer loop
        vertex 1.822912e+00 8.519684e+01 -2.000000e+01
        vertex -4.980249e+00 8.701973e+01 -2.000000e+01
        vertex 3.521576e+00 8.590047e+01 -2.000000e+01
    endloop
endfacet
facet normal 0.000000e+00 0.000000e+00 -1.000000e+00
    outer loop
        vertex 1.822912e+00 8.519684e+01 -2.000000e+01
        vertex -3.521576e+00 8.590047e+01 -2.000000e+01
        vertex -4.980249e+00 8.701973e+01 -2.000000e+01
    endloop
endfacet
facet normal 0.000000e+00 0.000000e+00 -1.000000e+00
    outer loop
        vertex 0.000000e+00 8.495686e+01 -2.000000e+01
        vertex -3.521576e+00 8.590047e+01 -2.000000e+01
        vertex 1.822912e+00 8.519684e+01 -2.000000e+01
    endloop
endfacet
facet normal 0.000000e+00 0.000000e+00 -1.000000e+00
    outer loop
        vertex 0.000000e+00 8.495686e+01 -2.000000e+01
        vertex -1.822912e+00 8.519684e+01 -2.000000e+01
        vertex -3.521576e+00 8.590047e+01 -2.000000e+01
    endloop
endfacet
facet normal 9.916337e-01 1.290835e-01 -0.000000e+00
    outer loop
        vertex 1.760000e+00 9.200000e+01 5.500000e+00
        vertex 1.700029e+00 9.246070e+01 5.500000e+00
        vertex 1.760000e+00 9.200000e+01 1.480000e+01
    endloop
endfacet
facet normal 9.916337e-01 1.290835e-01 0.000000e+00
    outer loop
        vertex 1.760000e+00 9.200000e+01 1.480000e+01
        vertex 1.700029e+00 9.246070e+01 5.500000e+00
        vertex 1.700029e+00 9.246070e+01 1.480000e+01
    endloop
endfacet
facet normal 9.253939e-01 3.790069e-01 -0.000000e+00
    outer loop
        vertex 1.700029e+00 9.246070e+01 5.500000e+00
        vertex 1.524205e+00 9.289000e+01 5.500000e+00
        vertex 1.700029e+00 9.246070e+01 1.480000e+01
    endloop
endfacet
facet normal 9.253939e-01 3.790069e-01 0.000000e+00
    outer loop
        vertex 1.700029e+00 9.246070e+01 1.480000e+01
        vertex 1.524205e+00 9.289000e+01 5.500000e+00
        vertex 1.524205e+00 9.289000e+01 1.480000e+01
    endloop
endfacet
facet normal 7.966605e-01 6.044270e-01 -0.000000e+00
    outer loop
        vertex 1.524205e+00 9.289000e+01 5.500000e+00
        vertex 1.244508e+00 9.325865e+01 5.500000e+00
        vertex 1.524205e+00 9.289000e+01 1.480000e+01
    endloop
endfacet
facet normal 7.966605e-01 6.044270e-01 0.000000e+00
    outer loop
        vertex 1.524205e+00 9.289000e+01 1.480000e+01
        vertex 1.244508e+00 9.325865e+01 5.500000e+00
        vertex 1.244508e+00 9.325865e+01 1.480000e+01
    endloop
endfacet
facet normal 0.000000e+00 1.000000e+00 0.000000e+00
    outer loop
        vertex 1.244508e+00 9.325865e+01 5.500000e+00
        vertex -1.244508e+00 9.325865e+01 5.500000e+00
        vertex -1.244508e+00 9.325865e+01 1.480000e+01
    endloop
endfacet
facet normal 0.000000e+00 1.000000e+00 -0.000000e+00
    outer loop
        vertex 1.244508e+00 9.325865e+01 5.500000e+00
        vertex -1.244508e+00 9.325865e+01 1.480000e+01
        vertex 1.244508e+00 9.325865e+01 1.480000e+01
    endloop
endfacet
facet normal -7.966605e-01 6.044270e-01 0.000000e+00
    outer loop
        vertex -1.524205e+00 9.289000e+01 5.500000e+00
        vertex -1.524205e+00 9.289000e+01 1.480000e+01
        vertex -1.244508e+00 9.325865e+01 5.500000e+00
    endloop
endfacet
facet normal -7.966605e-01 6.044270e-01 0.000000e+00
    outer loop
        vertex -1.524205e+00 9.289000e+01 1.480000e+01
        vertex -1.244508e+00 9.325865e+01 1.480000e+01
        vertex -1.244508e+00 9.325865e+01 5.500000e+00
    endloop
endfacet
facet normal -9.253939e-01 3.790069e-01 0.000000e+00
    outer loop
        vertex -1.700029e+00 9.246070e+01 5.500000e+00
        vertex -1.700029e+00 9.246070e+01 1.480000e+01
        vertex -1.524205e+00 9.289000e+01 5.500000e+00
    endloop
endfacet
facet normal -9.253939e-01 3.790069e-01 0.000000e+00
    outer loop
        vertex -1.700029e+00 9.246070e+01 1.480000e+01
        vertex -1.524205e+00 9.289000e+01 1.480000e+01
        vertex -1.524205e+00 9.289000e+01 5.500000e+00
    endloop
endfacet
facet normal -9.916337e-01 1.290835e-01 0.000000e+00
    outer loop
        vertex -1.760000e+00 9.200000e+01 5.500000e+00
        vertex -1.760000e+00 9.200000e+01 1.480000e+01
        vertex -1.700029e+00 9.246070e+01 5.500000e+00
    endloop
endfacet
facet normal -9.916337e-01 1.290835e-01 0.000000e+00
    outer loop
        vertex -1.760000e+00 9.200000e+01 1.480000e+01
        vertex -1.700029e+00 9.246070e+01 1.480000e+01
        vertex -1.700029e+00 9.246070e+01 5.500000e+00
    endloop
endfacet
facet normal -9.916337e-01 -1.290835e-01 0.000000e+00
    outer loop
        vertex -1.700029e+00 9.153930e+01 5.500000e+00
        vertex -1.700029e+00 9.153930e+01 1.480000e+01
        vertex -1.760000e+00 9.200000e+01 5.500000e+00
    endloop
endfacet
facet normal -9.916337e-01 -1.290835e-01 0.000000e+00
    outer loop
        vertex -1.700029e+00 9.153930e+01 1.480000e+01
        vertex -1.760000e+00 9.200000e+01 1.480000e+01
        vertex -1.760000e+00 9.200000e+01 5.500000e+00
    endloop
endfacet
facet normal -9.253939e-01 -3.790069e-01 0.000000e+00
    outer loop
        vertex -1.524205e+00 9.111000e+01 5.500000e+00
        vertex -1.524205e+00 9.111000e+01 1.480000e+01
        vertex -1.700029e+00 9.153930e+01 5.500000e+00
    endloop
endfacet
facet normal -9.253939e-01 -3.790069e-01 0.000000e+00
    outer loop
        vertex -1.524205e+00 9.111000e+01 1.480000e+01
        vertex -1.700029e+00 9.153930e+01 1.480000e+01
        vertex -1.700029e+00 9.153930e+01 5.500000e+00
    endloop
endfacet
facet normal -7.966605e-01 -6.044270e-01 0.000000e+00
    outer loop
        vertex -1.244508e+00 9.074135e+01 5.500000e+00
        vertex -1.244508e+00 9.074135e+01 1.480000e+01
        vertex -1.524205e+00 9.111000e+01 5.500000e+00
    endloop
endfacet
facet normal -7.966605e-01 -6.044270e-01 0.000000e+00
    outer loop
        vertex -1.244508e+00 9.074135e+01 1.480000e+01
        vertex -1.524205e+00 9.111000e+01 1.480000e+01
        vertex -1.524205e+00 9.111000e+01 5.500000e+00
    endloop
endfacet
facet normal -6.130777e-01 -7.900226e-01 0.000000e+00
    outer loop
        vertex -8.800000e-01 9.045848e+01 5.500000e+00
        vertex -8.800000e-01 9.045848e+01 1.480000e+01
        vertex -1.244508e+00 9.074135e+01 5.500000e+00
    endloop
endfacet
facet normal -6.130777e-01 -7.900226e-01 0.000000e+00
    outer loop
        vertex -8.800000e-01 9.045848e+01 1.480000e+01
        vertex -1.244508e+00 9.074135e+01 1.480000e+01
        vertex -1.244508e+00 9.074135e+01 5.500000e+00
    endloop
endfacet
facet normal -3.864060e-01 -9.223288e-01 0.000000e+00
    outer loop
        vertex -4.555215e-01 9.028065e+01 5.500000e+00
        vertex -4.555215e-01 9.028065e+01 1.480000e+01
        vertex -8.800000e-01 9.045848e+01 5.500000e+00
    endloop
endfacet
facet normal -3.864060e-01 -9.223288e-01 0.000000e+00
    outer loop
        vertex -4.555215e-01 9.028065e+01 1.480000e+01
        vertex -8.800000e-01 9.045848e+01 1.480000e+01
        vertex -8.800000e-01 9.045848e+01 5.500000e+00
    endloop
endfacet
facet normal -1.319710e-01 -9.912536e-01 0.000000e+00
    outer loop
        vertex 0.000000e+00 9.022000e+01 5.500000e+00
        vertex 0.000000e+00 9.022000e+01 1.480000e+01
        vertex -4.555215e-01 9.028065e+01 5.500000e+00
    endloop
endfacet
facet normal -1.319710e-01 -9.912536e-01 0.000000e+00
    outer loop
        vertex 0.000000e+00 9.022000e+01 1.480000e+01
        vertex -4.555215e-01 9.028065e+01 1.480000e+01
        vertex -4.555215e-01 9.028065e+01 5.500000e+00
    endloop
endfacet
facet normal 1.319710e-01 -9.912536e-01 0.000000e+00
    outer loop
        vertex 0.000000e+00 9.022000e+01 5.500000e+00
        vertex 4.555215e-01 9.028065e+01 5.500000e+00
        vertex 0.000000e+00 9.022000e+01 1.480000e+01
    endloop
endfacet
facet normal 1.319710e-01 -9.912536e-01 0.000000e+00
    outer loop
        vertex 0.000000e+00 9.022000e+01 1.480000e+01
        vertex 4.555215e-01 9.028065e+01 5.500000e+00
        vertex 4.555215e-01 9.028065e+01 1.480000e+01
    endloop
endfacet
facet normal 3.864060e-01 -9.223288e-01 0.000000e+00
    outer loop
        vertex 4.555215e-01 9.028065e+01 5.500000e+00
        vertex 8.800000e-01 9.045848e+01 5.500000e+00
        vertex 4.555215e-01 9.028065e+01 1.480000e+01
    endloop
endfacet
facet normal 3.864060e-01 -9.223288e-01 0.000000e+00
    outer loop
        vertex 4.555215e-01 9.028065e+01 1.480000e+01
        vertex 8.800000e-01 9.045848e+01 5.500000e+00
        vertex 8.800000e-01 9.045848e+01 1.480000e+01
    endloop
endfacet
facet normal 6.130777e-01 -7.900226e-01 0.000000e+00
    outer loop
        vertex 8.800000e-01 9.045848e+01 5.500000e+00
        vertex 1.244508e+00 9.074135e+01 5.500000e+00
        vertex 8.800000e-01 9.045848e+01 1.480000e+01
    endloop
endfacet
facet normal 6.130777e-01 -7.900226e-01 0.000000e+00
    outer loop
        vertex 8.800000e-01 9.045848e+01 1.480000e+01
        vertex 1.244508e+00 9.074135e+01 5.500000e+00
        vertex 1.244508e+00 9.074135e+01 1.480000e+01
    endloop
endfacet
facet normal 7.966605e-01 -6.044270e-01 0.000000e+00
    outer loop
        vertex 1.244508e+00 9.074135e+01 5.500000e+00
        vertex 1.524205e+00 9.111000e+01 5.500000e+00
        vertex 1.244508e+00 9.074135e+01 1.480000e+01
    endloop
endfacet
facet normal 7.966605e-01 -6.044270e-01 0.000000e+00
    outer loop
        vertex 1.244508e+00 9.074135e+01 1.480000e+01
        vertex 1.524205e+00 9.111000e+01 5.500000e+00
        vertex 1.524205e+00 9.111000e+01 1.480000e+01
    endloop
endfacet
facet normal 9.253939e-01 -3.790069e-01 0.000000e+00
    outer loop
        vertex 1.524205e+00 9.111000e+01 5.500000e+00
        vertex 1.700029e+00 9.153930e+01 5.500000e+00
        vertex 1.524205e+00 9.111000e+01 1.480000e+01
    endloop
endfacet
facet normal 9.253939e-01 -3.790069e-01 0.000000e+00
    outer loop
        vertex 1.524205e+00 9.111000e+01 1.480000e+01
        vertex 1.700029e+00 9.153930e+01 5.500000e+00
        vertex 1.700029e+00 9.153930e+01 1.480000e+01
    endloop
endfacet
facet normal 9.916337e-01 -1.290835e-01 0.000000e+00
    outer loop
        vertex 1.700029e+00 9.153930e+01 5.500000e+00
        vertex 1.760000e+00 9.200000e+01 5.500000e+00
        vertex 1.700029e+00 9.153930e+01 1.480000e+01
    endloop
endfacet
facet normal 9.916337e-01 -1.290835e-01 0.000000e+00
    outer loop
        vertex 1.700029e+00 9.153930e+01 1.480000e+01
        vertex 1.760000e+00 9.200000e+01 5.500000e+00
        vertex 1.760000e+00 9.200000e+01 1.480000e+01
    endloop
endfacet
facet normal 0.000000e+00 0.000000e+00 1.000000e+00
    outer loop
        vertex 1.524205e+00 9.289000e+01 1.480000e+01
        vertex 1.244508e+00 9.325865e+01 1.480000e+01
        vertex -1.244508e+00 9.325865e+01 1.480000e+01
    endloop
endfacet
facet normal 0.000000e+00 0.000000e+00 1.000000e+00
    outer loop
        vertex 1.524205e+00 9.289000e+01 1.480000e+01
        vertex -1.244508e+00 9.325865e+01 1.480000e+01
        vertex -1.524205e+00 9.289000e+01 1.480000e+01
    endloop
endfacet
facet normal 0.000000e+00 0.000000e+00 1.000000e+00
    outer loop
        vertex 1.700029e+00 9.246070e+01 1.480000e+01
        vertex 1.524205e+00 9.289000e+01 1.480000e+01
        vertex -1.524205e+00 9.289000e+01 1.480000e+01
    endloop
endfacet
facet normal 0.000000e+00 0.000000e+00 1.000000e+00
    outer loop
        vertex 1.700029e+00 9.246070e+01 1.480000e+01
        vertex -1.524205e+00 9.289000e+01 1.480000e+01
        vertex -1.700029e+00 9.246070e+01 1.480000e+01
    endloop
endfacet
facet normal 0.000000e+00 0.000000e+00 1.000000e+00
    outer loop
        vertex 1.760000e+00 9.200000e+01 1.480000e+01
        vertex 1.700029e+00 9.246070e+01 1.480000e+01
        vertex -1.700029e+00 9.246070e+01 1.480000e+01
    endloop
endfacet
facet normal 0.000000e+00 0.000000e+00 1.000000e+00
    outer loop
        vertex 1.760000e+00 9.200000e+01 1.480000e+01
        vertex -1.700029e+00 9.246070e+01 1.480000e+01
        vertex -1.760000e+00 9.200000e+01 1.480000e+01
    endloop
endfacet
facet normal 0.000000e+00 -0.000000e+00 1.000000e+00
    outer loop
        vertex 1.700029e+00 9.153930e+01 1.480000e+01
        vertex 1.760000e+00 9.200000e+01 1.480000e+01
        vertex -1.760000e+00 9.200000e+01 1.480000e+01
    endloop
endfacet
facet normal 0.000000e+00 0.000000e+00 1.000000e+00
    outer loop
        vertex 1.700029e+00 9.153930e+01 1.480000e+01
        vertex -1.760000e+00 9.200000e+01 1.480000e+01
        vertex -1.700029e+00 9.153930e+01 1.480000e+01
    endloop
endfacet
facet normal 0.000000e+00 -0.000000e+00 1.000000e+00
    outer loop
        vertex -1.524205e+00 9.111000e+01 1.480000e+01
        vertex 1.700029e+00 9.153930e+01 1.480000e+01
        vertex -1.700029e+00 9.153930e+01 1.480000e+01
    endloop
endfacet
facet normal 0.000000e+00 -0.000000e+00 1.000000e+00
    outer loop
        vertex 1.524205e+00 9.111000e+01 1.480000e+01
        vertex 1.700029e+00 9.153930e+01 1.480000e+01
        vertex -1.524205e+00 9.111000e+01 1.480000e+01
    endloop
endfacet
facet normal 0.000000e+00 -0.000000e+00 1.000000e+00
    outer loop
        vertex -1.244508e+00 9.074135e+01 1.480000e+01
        vertex 1.524205e+00 9.111000e+01 1.480000e+01
        vertex -1.524205e+00 9.111000e+01 1.480000e+01
    endloop
endfacet
facet normal 0.000000e+00 -0.000000e+00 1.000000e+00
    outer loop
        vertex 1.244508e+00 9.074135e+01 1.480000e+01
        vertex 1.524205e+00 9.111000e+01 1.480000e+01
        vertex -1.244508e+00 9.074135e+01 1.480000e+01
    endloop
endfacet
facet normal 0.000000e+00 -0.000000e+00 1.000000e+00
    outer loop
        vertex -8.800000e-01 9.045848e+01 1.480000e+01
        vertex 1.244508e+00 9.074135e+01 1.480000e+01
        vertex -1.244508e+00 9.074135e+01 1.480000e+01
    endloop
endfacet
facet normal 0.000000e+00 -0.000000e+00 1.000000e+00
    outer loop
        vertex 8.800000e-01 9.045848e+01 1.480000e+01
        vertex 1.244508e+00 9.074135e+01 1.480000e+01
        vertex -8.800000e-01 9.045848e+01 1.480000e+01
    endloop
endfacet
facet normal 0.000000e+00 -0.000000e+00 1.000000e+00
    outer loop
        vertex -4.555215e-01 9.028065e+01 1.480000e+01
        vertex 8.800000e-01 9.045848e+01 1.480000e+01
        vertex -8.800000e-01 9.045848e+01 1.480000e+01
    endloop
endfacet
facet normal 0.000000e+00 -0.000000e+00 1.000000e+00
    outer loop
        vertex 0.000000e+00 9.022000e+01 1.480000e+01
        vertex 4.555215e-01 9.028065e+01 1.480000e+01
        vertex -4.555215e-01 9.028065e+01 1.480000e+01
    endloop
endfacet
facet normal 0.000000e+00 0.000000e+00 1.000000e+00
    outer loop
        vertex -4.555215e-01 9.028065e+01 1.480000e+01
        vertex 4.555215e-01 9.028065e+01 1.480000e+01
        vertex 8.800000e-01 9.045848e+01 1.480000e+01
    endloop
endfacet
facet normal 3.536985e-01 -4.656530e-02 9.341997e-01
    outer loop
        vertex 6.803155e+00 9.017710e+01 3.500000e+00
        vertex 7.043145e+00 9.200000e+01 3.500000e+00
        vertex 1.700029e+00 9.153930e+01 5.500000e+00
    endloop
endfacet
facet normal 3.536672e-01 -4.603776e-02 9.342377e-01
    outer loop
        vertex 1.700029e+00 9.153930e+01 5.500000e+00
        vertex 7.043145e+00 9.200000e+01 3.500000e+00
        vertex 1.760000e+00 9.200000e+01 5.500000e+00
    endloop
endfacet
facet normal 3.536985e-01 4.656530e-02 9.341997e-01
    outer loop
        vertex 7.043145e+00 9.200000e+01 3.500000e+00
        vertex 6.803155e+00 9.382290e+01 3.500000e+00
        vertex 1.700029e+00 9.246070e+01 5.500000e+00
    endloop
endfacet
facet normal 3.536672e-01 4.603776e-02 9.342377e-01
    outer loop
        vertex 7.043145e+00 9.200000e+01 3.500000e+00
        vertex 1.700029e+00 9.246070e+01 5.500000e+00
        vertex 1.760000e+00 9.200000e+01 5.500000e+00
    endloop
endfacet
facet normal 3.297676e-01 1.365944e-01 9.341281e-01
    outer loop
        vertex 1.524205e+00 9.289000e+01 5.500000e+00
        vertex 6.803155e+00 9.382290e+01 3.500000e+00
        vertex 6.099543e+00 9.552157e+01 3.500000e+00
    endloop
endfacet
facet normal 3.300570e-01 1.351791e-01 9.342318e-01
    outer loop
        vertex 1.700029e+00 9.246070e+01 5.500000e+00
        vertex 6.803155e+00 9.382290e+01 3.500000e+00
        vertex 1.524205e+00 9.289000e+01 5.500000e+00
    endloop
endfacet
facet normal 2.834043e-01 2.174628e-01 9.340192e-01
    outer loop
        vertex 1.244508e+00 9.325865e+01 5.500000e+00
        vertex 6.099543e+00 9.552157e+01 3.500000e+00
        vertex 3.879946e+00 9.841422e+01 3.500000e+00
    endloop
endfacet
facet normal 2.842890e-01 2.156903e-01 9.341614e-01
    outer loop
        vertex 1.524205e+00 9.289000e+01 5.500000e+00
        vertex 6.099543e+00 9.552157e+01 3.500000e+00
        vertex 1.244508e+00 9.325865e+01 5.500000e+00
    endloop
endfacet
facet normal 0.000000e+00 3.616699e-01 9.323062e-01
    outer loop
        vertex -1.244508e+00 9.325865e+01 5.500000e+00
        vertex 3.879946e+00 9.841422e+01 3.500000e+00
        vertex -3.879946e+00 9.841422e+01 3.500000e+00
    endloop
endfacet
facet normal -0.000000e+00 3.616699e-01 9.323062e-01
    outer loop
        vertex -1.244508e+00 9.325865e+01 5.500000e+00
        vertex 1.244508e+00 9.325865e+01 5.500000e+00
        vertex 3.879946e+00 9.841422e+01 3.500000e+00
    endloop
endfacet
facet normal -2.842890e-01 2.156903e-01 9.341614e-01
    outer loop
        vertex -1.524205e+00 9.289000e+01 5.500000e+00
        vertex -1.244508e+00 9.325865e+01 5.500000e+00
        vertex -6.099543e+00 9.552157e+01 3.500000e+00
    endloop
endfacet
facet normal -2.834043e-01 2.174628e-01 9.340192e-01
    outer loop
        vertex -1.244508e+00 9.325865e+01 5.500000e+00
        vertex -3.879946e+00 9.841422e+01 3.500000e+00
        vertex -6.099543e+00 9.552157e+01 3.500000e+00
    endloop
endfacet
facet normal -3.300570e-01 1.351791e-01 9.342318e-01
    outer loop
        vertex -1.700029e+00 9.246070e+01 5.500000e+00
        vertex -1.524205e+00 9.289000e+01 5.500000e+00
        vertex -6.803155e+00 9.382290e+01 3.500000e+00
    endloop
endfacet
facet normal -3.297676e-01 1.365944e-01 9.341281e-01
    outer loop
        vertex -1.524205e+00 9.289000e+01 5.500000e+00
        vertex -6.099543e+00 9.552157e+01 3.500000e+00
        vertex -6.803155e+00 9.382290e+01 3.500000e+00
    endloop
endfacet
facet normal -3.536672e-01 4.603776e-02 9.342377e-01
    outer loop
        vertex -7.043145e+00 9.200000e+01 3.500000e+00
        vertex -1.760000e+00 9.200000e+01 5.500000e+00
        vertex -1.700029e+00 9.246070e+01 5.500000e+00
    endloop
endfacet
facet normal -3.536985e-01 4.656530e-02 9.341997e-01
    outer loop
        vertex -7.043145e+00 9.200000e+01 3.500000e+00
        vertex -1.700029e+00 9.246070e+01 5.500000e+00
        vertex -6.803155e+00 9.382290e+01 3.500000e+00
    endloop
endfacet
facet normal -3.536985e-01 -4.656530e-02 9.341997e-01
    outer loop
        vertex -6.803155e+00 9.017710e+01 3.500000e+00
        vertex -1.700029e+00 9.153930e+01 5.500000e+00
        vertex -7.043145e+00 9.200000e+01 3.500000e+00
    endloop
endfacet
facet normal -3.536672e-01 -4.603776e-02 9.342377e-01
    outer loop
        vertex -1.700029e+00 9.153930e+01 5.500000e+00
        vertex -1.760000e+00 9.200000e+01 5.500000e+00
        vertex -7.043145e+00 9.200000e+01 3.500000e+00
    endloop
endfacet
facet normal -3.297676e-01 -1.365944e-01 9.341281e-01
    outer loop
        vertex -6.099543e+00 8.847843e+01 3.500000e+00
        vertex -1.524205e+00 9.111000e+01 5.500000e+00
        vertex -6.803155e+00 9.017710e+01 3.500000e+00
    endloop
endfacet
facet normal -3.300570e-01 -1.351791e-01 9.342318e-01
    outer loop
        vertex -6.803155e+00 9.017710e+01 3.500000e+00
        vertex -1.524205e+00 9.111000e+01 5.500000e+00
        vertex -1.700029e+00 9.153930e+01 5.500000e+00
    endloop
endfacet
facet normal -2.834045e-01 -2.174624e-01 9.340193e-01
    outer loop
        vertex -4.980249e+00 8.701973e+01 3.500000e+00
        vertex -1.244508e+00 9.074135e+01 5.500000e+00
        vertex -6.099543e+00 8.847843e+01 3.500000e+00
    endloop
endfacet
facet normal -2.842890e-01 -2.156903e-01 9.341614e-01
    outer loop
        vertex -6.099543e+00 8.847843e+01 3.500000e+00
        vertex -1.244508e+00 9.074135e+01 5.500000e+00
        vertex -1.524205e+00 9.111000e+01 5.500000e+00
    endloop
endfacet
facet normal -2.176476e-01 -2.836480e-01 9.339022e-01
    outer loop
        vertex -3.521576e+00 8.590047e+01 3.500000e+00
        vertex -8.800000e-01 9.045848e+01 5.500000e+00
        vertex -4.980249e+00 8.701973e+01 3.500000e+00
    endloop
endfacet
facet normal -2.189642e-01 -2.821611e-01 9.340449e-01
    outer loop
        vertex -4.980249e+00 8.701973e+01 3.500000e+00
        vertex -8.800000e-01 9.045848e+01 5.500000e+00
        vertex -1.244508e+00 9.074135e+01 5.500000e+00
    endloop
endfacet
facet normal -1.369174e-01 -3.305388e-01 9.338081e-01
    outer loop
        vertex -1.822912e+00 8.519684e+01 3.500000e+00
        vertex -4.555215e-01 9.028065e+01 5.500000e+00
        vertex -3.521576e+00 8.590047e+01 3.500000e+00
    endloop
endfacet
facet normal -1.381397e-01 -3.297314e-01 9.339136e-01
    outer loop
        vertex -3.521576e+00 8.590047e+01 3.500000e+00
        vertex -4.555215e-01 9.028065e+01 5.500000e+00
        vertex -8.800000e-01 9.045848e+01 5.500000e+00
    endloop
endfacet
facet normal -4.671272e-02 -3.548307e-01 9.337629e-01
    outer loop
        vertex 0.000000e+00 8.495686e+01 3.500000e+00
        vertex 0.000000e+00 9.022000e+01 5.500000e+00
        vertex -1.822912e+00 8.519684e+01 3.500000e+00
    endloop
endfacet
facet normal -4.721815e-02 -3.546625e-01 9.338014e-01
    outer loop
        vertex -1.822912e+00 8.519684e+01 3.500000e+00
        vertex 0.000000e+00 9.022000e+01 5.500000e+00
        vertex -4.555215e-01 9.028065e+01 5.500000e+00
    endloop
endfacet
facet normal 4.671272e-02 -3.548307e-01 9.337629e-01
    outer loop
        vertex 0.000000e+00 8.495686e+01 3.500000e+00
        vertex 1.822912e+00 8.519684e+01 3.500000e+00
        vertex 0.000000e+00 9.022000e+01 5.500000e+00
    endloop
endfacet
facet normal 4.721815e-02 -3.546625e-01 9.338014e-01
    outer loop
        vertex 1.822912e+00 8.519684e+01 3.500000e+00
        vertex 4.555215e-01 9.028065e+01 5.500000e+00
        vertex 0.000000e+00 9.022000e+01 5.500000e+00
    endloop
endfacet
facet normal 1.369174e-01 -3.305388e-01 9.338081e-01
    outer loop
        vertex 1.822912e+00 8.519684e+01 3.500000e+00
        vertex 3.521576e+00 8.590047e+01 3.500000e+00
        vertex 4.555215e-01 9.028065e+01 5.500000e+00
    endloop
endfacet
facet normal 1.381397e-01 -3.297314e-01 9.339136e-01
    outer loop
        vertex 3.521576e+00 8.590047e+01 3.500000e+00
        vertex 8.800000e-01 9.045848e+01 5.500000e+00
        vertex 4.555215e-01 9.028065e+01 5.500000e+00
    endloop
endfacet
facet normal 2.176476e-01 -2.836480e-01 9.339022e-01
    outer loop
        vertex 3.521576e+00 8.590047e+01 3.500000e+00
        vertex 4.980249e+00 8.701973e+01 3.500000e+00
        vertex 8.800000e-01 9.045848e+01 5.500000e+00
    endloop
endfacet
facet normal 2.189642e-01 -2.821611e-01 9.340449e-01
    outer loop
        vertex 4.980249e+00 8.701973e+01 3.500000e+00
        vertex 1.244508e+00 9.074135e+01 5.500000e+00
        vertex 8.800000e-01 9.045848e+01 5.500000e+00
    endloop
endfacet
facet normal 2.834045e-01 -2.174624e-01 9.340193e-01
    outer loop
        vertex 4.980249e+00 8.701973e+01 3.500000e+00
        vertex 6.099543e+00 8.847843e+01 3.500000e+00
        vertex 1.244508e+00 9.074135e+01 5.500000e+00
    endloop
endfacet
facet normal 2.842890e-01 -2.156903e-01 9.341614e-01
    outer loop
        vertex 6.099543e+00 8.847843e+01 3.500000e+00
        vertex 1.524205e+00 9.111000e+01 5.500000e+00
        vertex 1.244508e+00 9.074135e+01 5.500000e+00
    endloop
endfacet
facet normal 3.297676e-01 -1.365944e-01 9.341281e-01
    outer loop
        vertex 6.099543e+00 8.847843e+01 3.500000e+00
        vertex 6.803155e+00 9.017710e+01 3.500000e+00
        vertex 1.524205e+00 9.111000e+01 5.500000e+00
    endloop
endfacet
facet normal 3.300570e-01 -1.351791e-01 9.342318e-01
    outer loop
        vertex 6.803155e+00 9.017710e+01 3.500000e+00
        vertex 1.700029e+00 9.153930e+01 5.500000e+00
        vertex 1.524205e+00 9.111000e+01 5.500000e+00
    endloop
endfacet
facet normal 9.914448e-01 -1.305262e-01 0.000000e+00
    outer loop
        vertex 6.803155e+00 9.017710e+01 -2.000000e+01
        vertex 7.043145e+00 9.200000e+01 -2.000000e+01
        vertex 6.803155e+00 9.017710e+01 3.500000e+00
    endloop
endfacet
facet normal 9.914448e-01 -1.305262e-01 0.000000e+00
    outer loop
        vertex 6.803155e+00 9.017710e+01 3.500000e+00
        vertex 7.043145e+00 9.200000e+01 -2.000000e+01
        vertex 7.043145e+00 9.200000e+01 3.500000e+00
    endloop
endfacet
facet normal 9.914448e-01 1.305262e-01 -0.000000e+00
    outer loop
        vertex 7.043145e+00 9.200000e+01 -2.000000e+01
        vertex 6.803155e+00 9.382290e+01 -2.000000e+01
        vertex 7.043145e+00 9.200000e+01 3.500000e+00
    endloop
endfacet
facet normal 9.914448e-01 1.305262e-01 0.000000e+00
    outer loop
        vertex 7.043145e+00 9.200000e+01 3.500000e+00
        vertex 6.803155e+00 9.382290e+01 -2.000000e+01
        vertex 6.803155e+00 9.382290e+01 3.500000e+00
    endloop
endfacet
facet normal 9.238794e-01 3.826838e-01 -0.000000e+00
    outer loop
        vertex 6.803155e+00 9.382290e+01 -2.000000e+01
        vertex 6.099543e+00 9.552157e+01 -2.000000e+01
        vertex 6.803155e+00 9.382290e+01 3.500000e+00
    endloop
endfacet
facet normal 9.238794e-01 3.826838e-01 0.000000e+00
    outer loop
        vertex 6.803155e+00 9.382290e+01 3.500000e+00
        vertex 6.099543e+00 9.552157e+01 -2.000000e+01
        vertex 6.099543e+00 9.552157e+01 3.500000e+00
    endloop
endfacet
facet normal 7.933546e-01 6.087598e-01 -0.000000e+00
    outer loop
        vertex 6.099543e+00 9.552157e+01 -2.000000e+01
        vertex 3.879946e+00 9.841422e+01 -2.000000e+01
        vertex 6.099543e+00 9.552157e+01 3.500000e+00
    endloop
endfacet
facet normal 7.933546e-01 6.087598e-01 0.000000e+00
    outer loop
        vertex 6.099543e+00 9.552157e+01 3.500000e+00
        vertex 3.879946e+00 9.841422e+01 -2.000000e+01
        vertex 3.879946e+00 9.841422e+01 3.500000e+00
    endloop
endfacet
facet normal 0.000000e+00 1.000000e+00 0.000000e+00
    outer loop
        vertex 3.879946e+00 9.841422e+01 -2.000000e+01
        vertex -3.879946e+00 9.841422e+01 -2.000000e+01
        vertex -3.879946e+00 9.841422e+01 3.500000e+00
    endloop
endfacet
facet normal 0.000000e+00 1.000000e+00 -0.000000e+00
    outer loop
        vertex 3.879946e+00 9.841422e+01 -2.000000e+01
        vertex -3.879946e+00 9.841422e+01 3.500000e+00
        vertex 3.879946e+00 9.841422e+01 3.500000e+00
    endloop
endfacet
facet normal -7.933546e-01 6.087598e-01 0.000000e+00
    outer loop
        vertex -6.099543e+00 9.552157e+01 -2.000000e+01
        vertex -6.099543e+00 9.552157e+01 3.500000e+00
        vertex -3.879946e+00 9.841422e+01 -2.000000e+01
    endloop
endfacet
facet normal -7.933546e-01 6.087598e-01 0.000000e+00
    outer loop
        vertex -6.099543e+00 9.552157e+01 3.500000e+00
        vertex -3.879946e+00 9.841422e+01 3.500000e+00
        vertex -3.879946e+00 9.841422e+01 -2.000000e+01
    endloop
endfacet
facet normal -9.238794e-01 3.826838e-01 0.000000e+00
    outer loop
        vertex -6.803155e+00 9.382290e+01 -2.000000e+01
        vertex -6.803155e+00 9.382290e+01 3.500000e+00
        vertex -6.099543e+00 9.552157e+01 -2.000000e+01
    endloop
endfacet
facet normal -9.238794e-01 3.826838e-01 0.000000e+00
    outer loop
        vertex -6.803155e+00 9.382290e+01 3.500000e+00
        vertex -6.099543e+00 9.552157e+01 3.500000e+00
        vertex -6.099543e+00 9.552157e+01 -2.000000e+01
    endloop
endfacet
facet normal -9.914448e-01 1.305262e-01 0.000000e+00
    outer loop
        vertex -7.043145e+00 9.200000e+01 -2.000000e+01
        vertex -7.043145e+00 9.200000e+01 3.500000e+00
        vertex -6.803155e+00 9.382290e+01 -2.000000e+01
    endloop
endfacet
facet normal -9.914448e-01 1.305262e-01 0.000000e+00
    outer loop
        vertex -7.043145e+00 9.200000e+01 3.500000e+00
        vertex -6.803155e+00 9.382290e+01 3.500000e+00
        vertex -6.803155e+00 9.382290e+01 -2.000000e+01
    endloop
endfacet
facet normal -9.914448e-01 -1.305262e-01 0.000000e+00
    outer loop
        vertex -6.803155e+00 9.017710e+01 -2.000000e+01
        vertex -6.803155e+00 9.017710e+01 3.500000e+00
        vertex -7.043145e+00 9.200000e+01 -2.000000e+01
    endloop
endfacet
facet normal -9.914448e-01 -1.305262e-01 0.000000e+00
    outer loop
        vertex -6.803155e+00 9.017710e+01 3.500000e+00
        vertex -7.043145e+00 9.200000e+01 3.500000e+00
        vertex -7.043145e+00 9.200000e+01 -2.000000e+01
    endloop
endfacet
facet normal -9.238794e-01 -3.826838e-01 0.000000e+00
    outer loop
        vertex -6.099543e+00 8.847843e+01 -2.000000e+01
        vertex -6.099543e+00 8.847843e+01 3.500000e+00
        vertex -6.803155e+00 9.017710e+01 -2.000000e+01
    endloop
endfacet
facet normal -9.238794e-01 -3.826838e-01 0.000000e+00
    outer loop
        vertex -6.099543e+00 8.847843e+01 3.500000e+00
        vertex -6.803155e+00 9.017710e+01 3.500000e+00
        vertex -6.803155e+00 9.017710e+01 -2.000000e+01
    endloop
endfacet
facet normal -7.933554e-01 -6.087587e-01 0.000000e+00
    outer loop
        vertex -4.980249e+00 8.701973e+01 -2.000000e+01
        vertex -4.980249e+00 8.701973e+01 3.500000e+00
        vertex -6.099543e+00 8.847843e+01 -2.000000e+01
    endloop
endfacet
facet normal -7.933554e-01 -6.087587e-01 0.000000e+00
    outer loop
        vertex -4.980249e+00 8.701973e+01 3.500000e+00
        vertex -6.099543e+00 8.847843e+01 3.500000e+00
        vertex -6.099543e+00 8.847843e+01 -2.000000e+01
    endloop
endfacet
facet normal -6.087558e-01 -7.933576e-01 0.000000e+00
    outer loop
        vertex -3.521576e+00 8.590047e+01 -2.000000e+01
        vertex -3.521576e+00 8.590047e+01 3.500000e+00
        vertex -4.980249e+00 8.701973e+01 -2.000000e+01
    endloop
endfacet
facet normal -6.087558e-01 -7.933576e-01 0.000000e+00
    outer loop
        vertex -3.521576e+00 8.590047e+01 3.500000e+00
        vertex -4.980249e+00 8.701973e+01 3.500000e+00
        vertex -4.980249e+00 8.701973e+01 -2.000000e+01
    endloop
endfacet
facet normal -3.826922e-01 -9.238759e-01 0.000000e+00
    outer loop
        vertex -1.822912e+00 8.519684e+01 -2.000000e+01
        vertex -1.822912e+00 8.519684e+01 3.500000e+00
        vertex -3.521576e+00 8.590047e+01 -2.000000e+01
    endloop
endfacet
facet normal -3.826922e-01 -9.238759e-01 0.000000e+00
    outer loop
        vertex -1.822912e+00 8.519684e+01 3.500000e+00
        vertex -3.521576e+00 8.590047e+01 3.500000e+00
        vertex -3.521576e+00 8.590047e+01 -2.000000e+01
    endloop
endfacet
facet normal -1.305217e-01 -9.914454e-01 0.000000e+00
    outer loop
        vertex 0.000000e+00 8.495686e+01 -2.000000e+01
        vertex 0.000000e+00 8.495686e+01 3.500000e+00
        vertex -1.822912e+00 8.519684e+01 -2.000000e+01
    endloop
endfacet
facet normal -1.305217e-01 -9.914454e-01 0.000000e+00
    outer loop
        vertex 0.000000e+00 8.495686e+01 3.500000e+00
        vertex -1.822912e+00 8.519684e+01 3.500000e+00
        vertex -1.822912e+00 8.519684e+01 -2.000000e+01
    endloop
endfacet
facet normal 1.305217e-01 -9.914454e-01 0.000000e+00
    outer loop
        vertex 0.000000e+00 8.495686e+01 -2.000000e+01
        vertex 1.822912e+00 8.519684e+01 -2.000000e+01
        vertex 0.000000e+00 8.495686e+01 3.500000e+00
    endloop
endfacet
facet normal 1.305217e-01 -9.914454e-01 0.000000e+00
    outer loop
        vertex 0.000000e+00 8.495686e+01 3.500000e+00
        vertex 1.822912e+00 8.519684e+01 -2.000000e+01
        vertex 1.822912e+00 8.519684e+01 3.500000e+00
    endloop
endfacet
facet normal 3.826922e-01 -9.238759e-01 0.000000e+00
    outer loop
        vertex 1.822912e+00 8.519684e+01 -2.000000e+01
        vertex 3.521576e+00 8.590047e+01 -2.000000e+01
        vertex 1.822912e+00 8.519684e+01 3.500000e+00
    endloop
endfacet
facet normal 3.826922e-01 -9.238759e-01 0.000000e+00
    outer loop
        vertex 1.822912e+00 8.519684e+01 3.500000e+00
        vertex 3.521576e+00 8.590047e+01 -2.000000e+01
        vertex 3.521576e+00 8.590047e+01 3.500000e+00
    endloop
endfacet
facet normal 6.087558e-01 -7.933576e-01 0.000000e+00
    outer loop
        vertex 3.521576e+00 8.590047e+01 -2.000000e+01
        vertex 4.980249e+00 8.701973e+01 -2.000000e+01
        vertex 3.521576e+00 8.590047e+01 3.500000e+00
    endloop
endfacet
facet normal 6.087558e-01 -7.933576e-01 0.000000e+00
    outer loop
        vertex 3.521576e+00 8.590047e+01 3.500000e+00
        vertex 4.980249e+00 8.701973e+01 -2.000000e+01
        vertex 4.980249e+00 8.701973e+01 3.500000e+00
    endloop
endfacet
facet normal 7.933554e-01 -6.087587e-01 0.000000e+00
    outer loop
        vertex 4.980249e+00 8.701973e+01 -2.000000e+01
        vertex 6.099543e+00 8.847843e+01 -2.000000e+01
        vertex 4.980249e+00 8.701973e+01 3.500000e+00
    endloop
endfacet
facet normal 7.933554e-01 -6.087587e-01 0.000000e+00
    outer loop
        vertex 4.980249e+00 8.701973e+01 3.500000e+00
        vertex 6.099543e+00 8.847843e+01 -2.000000e+01
        vertex 6.099543e+00 8.847843e+01 3.500000e+00
    endloop
endfacet
facet normal 9.238794e-01 -3.826838e-01 0.000000e+00
    outer loop
        vertex 6.099543e+00 8.847843e+01 -2.000000e+01
        vertex 6.803155e+00 9.017710e+01 -2.000000e+01
        vertex 6.099543e+00 8.847843e+01 3.500000e+00
    endloop
endfacet
facet normal 9.238794e-01 -3.826838e-01 0.000000e+00
    outer loop
        vertex 6.099543e+00 8.847843e+01 3.500000e+00
        vertex 6.803155e+00 9.017710e+01 -2.000000e+01
        vertex 6.803155e+00 9.017710e+01 3.500000e+00
    endloop
endfacet
endsolid tester-for-pusher-pinion.stl
