solid tester-for-pusher-pinion.stl
facet normal 0.000000e+00 0.000000e+00 -1.000000e+00
    outer loop
        vertex -6.099543e+00 9.552157e+01 -2.000000e+01
        vertex -3.879946e+00 9.841422e+01 -2.000000e+01
        vertex 3.879946e+00 9.841422e+01 -2.000000e+01
    endloop
endfacet
facet normal 0.000000e+00 0.000000e+00 -1.000000e+00
    outer loop
        vertex -6.099543e+00 9.552157e+01 -2.000000e+01
        vertex 3.879946e+00 9.841422e+01 -2.000000e+01
        vertex 6.099543e+00 9.552157e+01 -2.000000e+01
    endloop
endfacet
facet normal 0.000000e+00 0.000000e+00 -1.000000e+00
    outer loop
        vertex -6.803155e+00 9.382290e+01 -2.000000e+01
        vertex -6.099543e+00 9.552157e+01 -2.000000e+01
        vertex 6.099543e+00 9.552157e+01 -2.000000e+01
    endloop
endfacet
facet normal 0.000000e+00 0.000000e+00 -1.000000e+00
    outer loop
        vertex -7.043145e+00 9.200000e+01 -2.000000e+01
        vertex -6.803155e+00 9.382290e+01 -2.000000e+01
        vertex 6.099543e+00 9.552157e+01 -2.000000e+01
    endloop
endfacet
facet normal 0.000000e+00 0.000000e+00 -1.000000e+00
    outer loop
        vertex -6.803155e+00 9.017710e+01 -2.000000e+01
        vertex -7.043145e+00 9.200000e+01 -2.000000e+01
        vertex 6.099543e+00 9.552157e+01 -2.000000e+01
    endloop
endfacet
facet normal 0.000000e+00 0.000000e+00 -1.000000e+00
    outer loop
        vertex -6.099543e+00 8.847843e+01 -2.000000e+01
        vertex -6.803155e+00 9.017710e+01 -2.000000e+01
        vertex 6.099543e+00 9.552157e+01 -2.000000e+01
    endloop
endfacet
facet normal 0.000000e+00 0.000000e+00 -1.000000e+00
    outer loop
        vertex -4.980249e+00 8.701973e+01 -2.000000e+01
        vertex -6.099543e+00 8.847843e+01 -2.000000e+01
        vertex 6.099543e+00 9.552157e+01 -2.000000e+01
    endloop
endfacet
facet normal 0.000000e+00 0.000000e+00 -1.000000e+00
    outer loop
        vertex -4.980249e+00 8.701973e+01 -2.000000e+01
        vertex 6.099543e+00 9.552157e+01 -2.000000e+01
        vertex 6.803155e+00 9.382290e+01 -2.000000e+01
    endloop
endfacet
facet normal 0.000000e+00 0.000000e+00 -1.000000e+00
    outer loop
        vertex -4.980249e+00 8.701973e+01 -2.000000e+01
        vertex 6.803155e+00 9.382290e+01 -2.000000e+01
        vertex 7.043145e+00 9.200000e+01 -2.000000e+01
    endloop
endfacet
facet normal 0.000000e+00 0.000000e+00 -1.000000e+00
    outer loop
        vertex -4.980249e+00 8.701973e+01 -2.000000e+01
        vertex 7.043145e+00 9.200000e+01 -2.000000e+01
        vertex 6.803155e+00 9.017710e+01 -2.000000e+01
    endloop
endfacet
facet normal 0.000000e+00 0.000000e+00 -1.000000e+00
    outer loop
        vertex -4.980249e+00 8.701973e+01 -2.000000e+01
        vertex 6.803155e+00 9.017710e+01 -2.000000e+01
        vertex 6.099543e+00 8.847843e+01 -2.000000e+01
    endloop
endfacet
facet normal 0.000000e+00 0.000000e+00 -1.000000e+00
    outer loop
        vertex -4.980249e+00 8.701973e+01 -2.000000e+01
        vertex 6.099543e+00 8.847843e+01 -2.000000e+01
        vertex 4.980249e+00 8.701973e+01 -2.000000e+01
    endloop
endfacet
facet normal 0.000000e+00 0.000000e+00 -1.000000e+00
    outer loop
        vertex 3.521576e+00 8.590047e+01 -2.000000e+01
        vertex -4.980249e+00 8.701973e+01 -2.000000e+01
        vertex 4.980249e+00 8.701973e+01 -2.000000e+01
    endloop
endfacet
facet normal 0.000000e+00 0.000000e+00 -1.000000e+00
    outer loop
        vertex 1.822912e+00 8.519684e+01 -2.000000e+01
        vertex -4.980249e+00 8.701973e+01 -2.000000e+01
        vertex 3.521576e+00 8.590047e+01 -2.000000e+01
    endloop
endfacet
facet normal 0.000000e+00 0.000000e+00 -1.000000e+00
    outer loop
        vertex 1.822912e+00 8.519684e+01 -2.000000e+01
        vertex -3.521576e+00 8.590047e+01 -2.000000e+01
        vertex -4.980249e+00 8.701973e+01 -2.000000e+01
    endloop
endfacet
facet normal 0.000000e+00 0.000000e+00 -1.000000e+00
    outer loop
        vertex 0.000000e+00 8.495686e+01 -2.000000e+01
        vertex -3.521576e+00 8.590047e+01 -2.000000e+01
        vertex 1.822912e+00 8.519684e+01 -2.000000e+01
    endloop
endfacet
facet normal 0.000000e+00 0.000000e+00 -1.000000e+00
    outer loop
        vertex 0.000000e+00 8.495686e+01 -2.000000e+01
        vertex -1.822912e+00 8.519684e+01 -2.000000e+01
        vertex -3.521576e+00 8.590047e+01 -2.000000e+01
    endloop
endfacet
facet normal 9.914449e-01 1.305260e-01 -0.000000e+00
    outer loop
        vertex 2.000000e+00 9.200000e+01 5.500000e+00
        vertex 1.931852e+00 9.251764e+01 5.500000e+00
        vertex 2.000000e+00 9.200000e+01 1.480000e+01
    endloop
endfacet
facet normal 9.914449e-01 1.305260e-01 0.000000e+00
    outer loop
        vertex 2.000000e+00 9.200000e+01 1.480000e+01
        vertex 1.931852e+00 9.251764e+01 5.500000e+00
        vertex 1.931852e+00 9.251764e+01 1.480000e+01
    endloop
endfacet
facet normal 9.238792e-01 3.826842e-01 -0.000000e+00
    outer loop
        vertex 1.931852e+00 9.251764e+01 5.500000e+00
        vertex 1.732051e+00 9.300000e+01 5.500000e+00
        vertex 1.931852e+00 9.251764e+01 1.480000e+01
    endloop
endfacet
facet normal 9.238792e-01 3.826842e-01 0.000000e+00
    outer loop
        vertex 1.931852e+00 9.251764e+01 1.480000e+01
        vertex 1.732051e+00 9.300000e+01 5.500000e+00
        vertex 1.732051e+00 9.300000e+01 1.480000e+01
    endloop
endfacet
facet normal 7.933545e-01 6.087600e-01 -0.000000e+00
    outer loop
        vertex 1.732051e+00 9.300000e+01 5.500000e+00
        vertex 1.414214e+00 9.341422e+01 5.500000e+00
        vertex 1.732051e+00 9.300000e+01 1.480000e+01
    endloop
endfacet
facet normal 7.933545e-01 6.087600e-01 0.000000e+00
    outer loop
        vertex 1.732051e+00 9.300000e+01 1.480000e+01
        vertex 1.414214e+00 9.341422e+01 5.500000e+00
        vertex 1.414214e+00 9.341422e+01 1.480000e+01
    endloop
endfacet
facet normal 0.000000e+00 1.000000e+00 0.000000e+00
    outer loop
        vertex 1.414214e+00 9.341422e+01 5.500000e+00
        vertex -1.414214e+00 9.341422e+01 5.500000e+00
        vertex -1.414214e+00 9.341422e+01 1.480000e+01
    endloop
endfacet
facet normal 0.000000e+00 1.000000e+00 -0.000000e+00
    outer loop
        vertex 1.414214e+00 9.341422e+01 5.500000e+00
        vertex -1.414214e+00 9.341422e+01 1.480000e+01
        vertex 1.414214e+00 9.341422e+01 1.480000e+01
    endloop
endfacet
facet normal -7.933545e-01 6.087600e-01 0.000000e+00
    outer loop
        vertex -1.732051e+00 9.300000e+01 5.500000e+00
        vertex -1.732051e+00 9.300000e+01 1.480000e+01
        vertex -1.414214e+00 9.341422e+01 5.500000e+00
    endloop
endfacet
facet normal -7.933545e-01 6.087600e-01 0.000000e+00
    outer loop
        vertex -1.732051e+00 9.300000e+01 1.480000e+01
        vertex -1.414214e+00 9.341422e+01 1.480000e+01
        vertex -1.414214e+00 9.341422e+01 5.500000e+00
    endloop
endfacet
facet normal -9.238792e-01 3.826842e-01 0.000000e+00
    outer loop
        vertex -1.931852e+00 9.251764e+01 5.500000e+00
        vertex -1.931852e+00 9.251764e+01 1.480000e+01
        vertex -1.732051e+00 9.300000e+01 5.500000e+00
    endloop
endfacet
facet normal -9.238792e-01 3.826842e-01 0.000000e+00
    outer loop
        vertex -1.931852e+00 9.251764e+01 1.480000e+01
        vertex -1.732051e+00 9.300000e+01 1.480000e+01
        vertex -1.732051e+00 9.300000e+01 5.500000e+00
    endloop
endfacet
facet normal -9.914449e-01 1.305260e-01 0.000000e+00
    outer loop
        vertex -2.000000e+00 9.200000e+01 5.500000e+00
        vertex -2.000000e+00 9.200000e+01 1.480000e+01
        vertex -1.931852e+00 9.251764e+01 5.500000e+00
    endloop
endfacet
facet normal -9.914449e-01 1.305260e-01 0.000000e+00
    outer loop
        vertex -2.000000e+00 9.200000e+01 1.480000e+01
        vertex -1.931852e+00 9.251764e+01 1.480000e+01
        vertex -1.931852e+00 9.251764e+01 5.500000e+00
    endloop
endfacet
facet normal -9.914449e-01 -1.305260e-01 0.000000e+00
    outer loop
        vertex -1.931852e+00 9.148236e+01 5.500000e+00
        vertex -1.931852e+00 9.148236e+01 1.480000e+01
        vertex -2.000000e+00 9.200000e+01 5.500000e+00
    endloop
endfacet
facet normal -9.914449e-01 -1.305260e-01 0.000000e+00
    outer loop
        vertex -1.931852e+00 9.148236e+01 1.480000e+01
        vertex -2.000000e+00 9.200000e+01 1.480000e+01
        vertex -2.000000e+00 9.200000e+01 5.500000e+00
    endloop
endfacet
facet normal -9.238792e-01 -3.826842e-01 0.000000e+00
    outer loop
        vertex -1.732051e+00 9.100000e+01 5.500000e+00
        vertex -1.732051e+00 9.100000e+01 1.480000e+01
        vertex -1.931852e+00 9.148236e+01 5.500000e+00
    endloop
endfacet
facet normal -9.238792e-01 -3.826842e-01 0.000000e+00
    outer loop
        vertex -1.732051e+00 9.100000e+01 1.480000e+01
        vertex -1.931852e+00 9.148236e+01 1.480000e+01
        vertex -1.931852e+00 9.148236e+01 5.500000e+00
    endloop
endfacet
facet normal -7.933545e-01 -6.087600e-01 0.000000e+00
    outer loop
        vertex -1.414214e+00 9.058578e+01 5.500000e+00
        vertex -1.414214e+00 9.058578e+01 1.480000e+01
        vertex -1.732051e+00 9.100000e+01 5.500000e+00
    endloop
endfacet
facet normal -7.933545e-01 -6.087600e-01 0.000000e+00
    outer loop
        vertex -1.414214e+00 9.058578e+01 1.480000e+01
        vertex -1.732051e+00 9.100000e+01 1.480000e+01
        vertex -1.732051e+00 9.100000e+01 5.500000e+00
    endloop
endfacet
facet normal -6.087562e-01 -7.933573e-01 0.000000e+00
    outer loop
        vertex -1.000000e+00 9.026795e+01 5.500000e+00
        vertex -1.000000e+00 9.026795e+01 1.480000e+01
        vertex -1.414214e+00 9.058578e+01 5.500000e+00
    endloop
endfacet
facet normal -6.087562e-01 -7.933573e-01 0.000000e+00
    outer loop
        vertex -1.000000e+00 9.026795e+01 1.480000e+01
        vertex -1.414214e+00 9.058578e+01 1.480000e+01
        vertex -1.414214e+00 9.058578e+01 5.500000e+00
    endloop
endfacet
facet normal -3.826922e-01 -9.238759e-01 0.000000e+00
    outer loop
        vertex -5.176381e-01 9.006815e+01 5.500000e+00
        vertex -5.176381e-01 9.006815e+01 1.480000e+01
        vertex -1.000000e+00 9.026795e+01 5.500000e+00
    endloop
endfacet
facet normal -3.826922e-01 -9.238759e-01 0.000000e+00
    outer loop
        vertex -5.176381e-01 9.006815e+01 1.480000e+01
        vertex -1.000000e+00 9.026795e+01 1.480000e+01
        vertex -1.000000e+00 9.026795e+01 5.500000e+00
    endloop
endfacet
facet normal -1.305213e-01 -9.914455e-01 0.000000e+00
    outer loop
        vertex 0.000000e+00 9.000000e+01 5.500000e+00
        vertex 0.000000e+00 9.000000e+01 1.480000e+01
        vertex -5.176381e-01 9.006815e+01 5.500000e+00
    endloop
endfacet
facet normal -1.305213e-01 -9.914455e-01 0.000000e+00
    outer loop
        vertex 0.000000e+00 9.000000e+01 1.480000e+01
        vertex -5.176381e-01 9.006815e+01 1.480000e+01
        vertex -5.176381e-01 9.006815e+01 5.500000e+00
    endloop
endfacet
facet normal 1.305213e-01 -9.914455e-01 0.000000e+00
    outer loop
        vertex 0.000000e+00 9.000000e+01 5.500000e+00
        vertex 5.176381e-01 9.006815e+01 5.500000e+00
        vertex 0.000000e+00 9.000000e+01 1.480000e+01
    endloop
endfacet
facet normal 1.305213e-01 -9.914455e-01 0.000000e+00
    outer loop
        vertex 0.000000e+00 9.000000e+01 1.480000e+01
        vertex 5.176381e-01 9.006815e+01 5.500000e+00
        vertex 5.176381e-01 9.006815e+01 1.480000e+01
    endloop
endfacet
facet normal 3.826922e-01 -9.238759e-01 0.000000e+00
    outer loop
        vertex 5.176381e-01 9.006815e+01 5.500000e+00
        vertex 1.000000e+00 9.026795e+01 5.500000e+00
        vertex 5.176381e-01 9.006815e+01 1.480000e+01
    endloop
endfacet
facet normal 3.826922e-01 -9.238759e-01 0.000000e+00
    outer loop
        vertex 5.176381e-01 9.006815e+01 1.480000e+01
        vertex 1.000000e+00 9.026795e+01 5.500000e+00
        vertex 1.000000e+00 9.026795e+01 1.480000e+01
    endloop
endfacet
facet normal 6.087562e-01 -7.933573e-01 0.000000e+00
    outer loop
        vertex 1.000000e+00 9.026795e+01 5.500000e+00
        vertex 1.414214e+00 9.058578e+01 5.500000e+00
        vertex 1.000000e+00 9.026795e+01 1.480000e+01
    endloop
endfacet
facet normal 6.087562e-01 -7.933573e-01 0.000000e+00
    outer loop
        vertex 1.000000e+00 9.026795e+01 1.480000e+01
        vertex 1.414214e+00 9.058578e+01 5.500000e+00
        vertex 1.414214e+00 9.058578e+01 1.480000e+01
    endloop
endfacet
facet normal 7.933545e-01 -6.087600e-01 0.000000e+00
    outer loop
        vertex 1.414214e+00 9.058578e+01 5.500000e+00
        vertex 1.732051e+00 9.100000e+01 5.500000e+00
        vertex 1.414214e+00 9.058578e+01 1.480000e+01
    endloop
endfacet
facet normal 7.933545e-01 -6.087600e-01 0.000000e+00
    outer loop
        vertex 1.414214e+00 9.058578e+01 1.480000e+01
        vertex 1.732051e+00 9.100000e+01 5.500000e+00
        vertex 1.732051e+00 9.100000e+01 1.480000e+01
    endloop
endfacet
facet normal 9.238792e-01 -3.826842e-01 0.000000e+00
    outer loop
        vertex 1.732051e+00 9.100000e+01 5.500000e+00
        vertex 1.931852e+00 9.148236e+01 5.500000e+00
        vertex 1.732051e+00 9.100000e+01 1.480000e+01
    endloop
endfacet
facet normal 9.238792e-01 -3.826842e-01 0.000000e+00
    outer loop
        vertex 1.732051e+00 9.100000e+01 1.480000e+01
        vertex 1.931852e+00 9.148236e+01 5.500000e+00
        vertex 1.931852e+00 9.148236e+01 1.480000e+01
    endloop
endfacet
facet normal 9.914449e-01 -1.305260e-01 0.000000e+00
    outer loop
        vertex 1.931852e+00 9.148236e+01 5.500000e+00
        vertex 2.000000e+00 9.200000e+01 5.500000e+00
        vertex 1.931852e+00 9.148236e+01 1.480000e+01
    endloop
endfacet
facet normal 9.914449e-01 -1.305260e-01 0.000000e+00
    outer loop
        vertex 1.931852e+00 9.148236e+01 1.480000e+01
        vertex 2.000000e+00 9.200000e+01 5.500000e+00
        vertex 2.000000e+00 9.200000e+01 1.480000e+01
    endloop
endfacet
facet normal 0.000000e+00 0.000000e+00 1.000000e+00
    outer loop
        vertex 1.732051e+00 9.300000e+01 1.480000e+01
        vertex 1.414214e+00 9.341422e+01 1.480000e+01
        vertex -1.414214e+00 9.341422e+01 1.480000e+01
    endloop
endfacet
facet normal 0.000000e+00 0.000000e+00 1.000000e+00
    outer loop
        vertex 1.732051e+00 9.300000e+01 1.480000e+01
        vertex -1.414214e+00 9.341422e+01 1.480000e+01
        vertex -1.732051e+00 9.300000e+01 1.480000e+01
    endloop
endfacet
facet normal 0.000000e+00 0.000000e+00 1.000000e+00
    outer loop
        vertex 1.931852e+00 9.251764e+01 1.480000e+01
        vertex 1.732051e+00 9.300000e+01 1.480000e+01
        vertex -1.732051e+00 9.300000e+01 1.480000e+01
    endloop
endfacet
facet normal 0.000000e+00 0.000000e+00 1.000000e+00
    outer loop
        vertex 2.000000e+00 9.200000e+01 1.480000e+01
        vertex 1.931852e+00 9.251764e+01 1.480000e+01
        vertex -1.732051e+00 9.300000e+01 1.480000e+01
    endloop
endfacet
facet normal 0.000000e+00 -0.000000e+00 1.000000e+00
    outer loop
        vertex 1.931852e+00 9.148236e+01 1.480000e+01
        vertex 2.000000e+00 9.200000e+01 1.480000e+01
        vertex -1.732051e+00 9.300000e+01 1.480000e+01
    endloop
endfacet
facet normal 0.000000e+00 -0.000000e+00 1.000000e+00
    outer loop
        vertex 1.732051e+00 9.100000e+01 1.480000e+01
        vertex 1.931852e+00 9.148236e+01 1.480000e+01
        vertex -1.732051e+00 9.300000e+01 1.480000e+01
    endloop
endfacet
facet normal 0.000000e+00 -0.000000e+00 1.000000e+00
    outer loop
        vertex 1.414214e+00 9.058578e+01 1.480000e+01
        vertex 1.732051e+00 9.100000e+01 1.480000e+01
        vertex -1.732051e+00 9.300000e+01 1.480000e+01
    endloop
endfacet
facet normal 0.000000e+00 0.000000e+00 1.000000e+00
    outer loop
        vertex 1.414214e+00 9.058578e+01 1.480000e+01
        vertex -1.732051e+00 9.300000e+01 1.480000e+01
        vertex -1.931852e+00 9.251764e+01 1.480000e+01
    endloop
endfacet
facet normal 0.000000e+00 0.000000e+00 1.000000e+00
    outer loop
        vertex 1.414214e+00 9.058578e+01 1.480000e+01
        vertex -1.931852e+00 9.251764e+01 1.480000e+01
        vertex -2.000000e+00 9.200000e+01 1.480000e+01
    endloop
endfacet
facet normal 0.000000e+00 0.000000e+00 1.000000e+00
    outer loop
        vertex 1.414214e+00 9.058578e+01 1.480000e+01
        vertex -2.000000e+00 9.200000e+01 1.480000e+01
        vertex -1.931852e+00 9.148236e+01 1.480000e+01
    endloop
endfacet
facet normal 0.000000e+00 0.000000e+00 1.000000e+00
    outer loop
        vertex 1.414214e+00 9.058578e+01 1.480000e+01
        vertex -1.931852e+00 9.148236e+01 1.480000e+01
        vertex -1.732051e+00 9.100000e+01 1.480000e+01
    endloop
endfacet
facet normal 0.000000e+00 0.000000e+00 1.000000e+00
    outer loop
        vertex 1.414214e+00 9.058578e+01 1.480000e+01
        vertex -1.732051e+00 9.100000e+01 1.480000e+01
        vertex -1.414214e+00 9.058578e+01 1.480000e+01
    endloop
endfacet
facet normal 0.000000e+00 -0.000000e+00 1.000000e+00
    outer loop
        vertex -1.000000e+00 9.026795e+01 1.480000e+01
        vertex 1.414214e+00 9.058578e+01 1.480000e+01
        vertex -1.414214e+00 9.058578e+01 1.480000e+01
    endloop
endfacet
facet normal 0.000000e+00 -0.000000e+00 1.000000e+00
    outer loop
        vertex -5.176381e-01 9.006815e+01 1.480000e+01
        vertex 1.414214e+00 9.058578e+01 1.480000e+01
        vertex -1.000000e+00 9.026795e+01 1.480000e+01
    endloop
endfacet
facet normal 0.000000e+00 0.000000e+00 1.000000e+00
    outer loop
        vertex -5.176381e-01 9.006815e+01 1.480000e+01
        vertex 1.000000e+00 9.026795e+01 1.480000e+01
        vertex 1.414214e+00 9.058578e+01 1.480000e+01
    endloop
endfacet
facet normal 0.000000e+00 -0.000000e+00 1.000000e+00
    outer loop
        vertex 0.000000e+00 9.000000e+01 1.480000e+01
        vertex 1.000000e+00 9.026795e+01 1.480000e+01
        vertex -5.176381e-01 9.006815e+01 1.480000e+01
    endloop
endfacet
facet normal 0.000000e+00 0.000000e+00 1.000000e+00
    outer loop
        vertex 0.000000e+00 9.000000e+01 1.480000e+01
        vertex 5.176381e-01 9.006815e+01 1.480000e+01
        vertex 1.000000e+00 9.026795e+01 1.480000e+01
    endloop
endfacet
facet normal 3.682134e-01 -4.847623e-02 9.284767e-01
    outer loop
        vertex 6.803155e+00 9.017710e+01 3.500000e+00
        vertex 7.043145e+00 9.200000e+01 3.500000e+00
        vertex 2.000000e+00 9.200000e+01 5.500000e+00
    endloop
endfacet
facet normal 3.682134e-01 -4.847613e-02 9.284767e-01
    outer loop
        vertex 6.803155e+00 9.017710e+01 3.500000e+00
        vertex 2.000000e+00 9.200000e+01 5.500000e+00
        vertex 1.931852e+00 9.148236e+01 5.500000e+00
    endloop
endfacet
facet normal 3.682134e-01 4.847623e-02 9.284767e-01
    outer loop
        vertex 7.043145e+00 9.200000e+01 3.500000e+00
        vertex 6.803155e+00 9.382290e+01 3.500000e+00
        vertex 2.000000e+00 9.200000e+01 5.500000e+00
    endloop
endfacet
facet normal 3.682134e-01 4.847613e-02 9.284767e-01
    outer loop
        vertex 2.000000e+00 9.200000e+01 5.500000e+00
        vertex 6.803155e+00 9.382290e+01 3.500000e+00
        vertex 1.931852e+00 9.251764e+01 5.500000e+00
    endloop
endfacet
facet normal 3.431202e-01 1.421252e-01 9.284766e-01
    outer loop
        vertex 1.931852e+00 9.251764e+01 5.500000e+00
        vertex 6.803155e+00 9.382290e+01 3.500000e+00
        vertex 6.099543e+00 9.552157e+01 3.500000e+00
    endloop
endfacet
facet normal 3.431202e-01 1.421254e-01 9.284767e-01
    outer loop
        vertex 1.931852e+00 9.251764e+01 5.500000e+00
        vertex 6.099543e+00 9.552157e+01 3.500000e+00
        vertex 1.732051e+00 9.300000e+01 5.500000e+00
    endloop
endfacet
facet normal 2.946445e-01 2.260877e-01 9.284767e-01
    outer loop
        vertex 1.414214e+00 9.341422e+01 5.500000e+00
        vertex 6.099543e+00 9.552157e+01 3.500000e+00
        vertex 3.879946e+00 9.841422e+01 3.500000e+00
    endloop
endfacet
facet normal 2.946445e-01 2.260878e-01 9.284767e-01
    outer loop
        vertex 1.732051e+00 9.300000e+01 5.500000e+00
        vertex 6.099543e+00 9.552157e+01 3.500000e+00
        vertex 1.414214e+00 9.341422e+01 5.500000e+00
    endloop
endfacet
facet normal 0.000000e+00 3.713907e-01 9.284767e-01
    outer loop
        vertex -1.414214e+00 9.341422e+01 5.500000e+00
        vertex 3.879946e+00 9.841422e+01 3.500000e+00
        vertex -3.879946e+00 9.841422e+01 3.500000e+00
    endloop
endfacet
facet normal -0.000000e+00 3.713907e-01 9.284767e-01
    outer loop
        vertex -1.414214e+00 9.341422e+01 5.500000e+00
        vertex 1.414214e+00 9.341422e+01 5.500000e+00
        vertex 3.879946e+00 9.841422e+01 3.500000e+00
    endloop
endfacet
facet normal -2.946445e-01 2.260878e-01 9.284767e-01
    outer loop
        vertex -1.732051e+00 9.300000e+01 5.500000e+00
        vertex -1.414214e+00 9.341422e+01 5.500000e+00
        vertex -6.099543e+00 9.552157e+01 3.500000e+00
    endloop
endfacet
facet normal -2.946445e-01 2.260877e-01 9.284767e-01
    outer loop
        vertex -1.414214e+00 9.341422e+01 5.500000e+00
        vertex -3.879946e+00 9.841422e+01 3.500000e+00
        vertex -6.099543e+00 9.552157e+01 3.500000e+00
    endloop
endfacet
facet normal -3.431202e-01 1.421252e-01 9.284766e-01
    outer loop
        vertex -1.931852e+00 9.251764e+01 5.500000e+00
        vertex -6.099543e+00 9.552157e+01 3.500000e+00
        vertex -6.803155e+00 9.382290e+01 3.500000e+00
    endloop
endfacet
facet normal -3.431202e-01 1.421254e-01 9.284767e-01
    outer loop
        vertex -1.931852e+00 9.251764e+01 5.500000e+00
        vertex -1.732051e+00 9.300000e+01 5.500000e+00
        vertex -6.099543e+00 9.552157e+01 3.500000e+00
    endloop
endfacet
facet normal -3.682134e-01 4.847623e-02 9.284767e-01
    outer loop
        vertex -7.043145e+00 9.200000e+01 3.500000e+00
        vertex -2.000000e+00 9.200000e+01 5.500000e+00
        vertex -6.803155e+00 9.382290e+01 3.500000e+00
    endloop
endfacet
facet normal -3.682134e-01 4.847613e-02 9.284767e-01
    outer loop
        vertex -2.000000e+00 9.200000e+01 5.500000e+00
        vertex -1.931852e+00 9.251764e+01 5.500000e+00
        vertex -6.803155e+00 9.382290e+01 3.500000e+00
    endloop
endfacet
facet normal -3.682134e-01 -4.847613e-02 9.284767e-01
    outer loop
        vertex -6.803155e+00 9.017710e+01 3.500000e+00
        vertex -1.931852e+00 9.148236e+01 5.500000e+00
        vertex -2.000000e+00 9.200000e+01 5.500000e+00
    endloop
endfacet
facet normal -3.682134e-01 -4.847623e-02 9.284767e-01
    outer loop
        vertex -6.803155e+00 9.017710e+01 3.500000e+00
        vertex -2.000000e+00 9.200000e+01 5.500000e+00
        vertex -7.043145e+00 9.200000e+01 3.500000e+00
    endloop
endfacet
facet normal -3.431202e-01 -1.421254e-01 9.284767e-01
    outer loop
        vertex -6.099543e+00 8.847843e+01 3.500000e+00
        vertex -1.732051e+00 9.100000e+01 5.500000e+00
        vertex -1.931852e+00 9.148236e+01 5.500000e+00
    endloop
endfacet
facet normal -3.431202e-01 -1.421252e-01 9.284766e-01
    outer loop
        vertex -6.099543e+00 8.847843e+01 3.500000e+00
        vertex -1.931852e+00 9.148236e+01 5.500000e+00
        vertex -6.803155e+00 9.017710e+01 3.500000e+00
    endloop
endfacet
facet normal -2.946447e-01 -2.260873e-01 9.284767e-01
    outer loop
        vertex -4.980249e+00 8.701973e+01 3.500000e+00
        vertex -1.414214e+00 9.058578e+01 5.500000e+00
        vertex -6.099543e+00 8.847843e+01 3.500000e+00
    endloop
endfacet
facet normal -2.946445e-01 -2.260878e-01 9.284767e-01
    outer loop
        vertex -6.099543e+00 8.847843e+01 3.500000e+00
        vertex -1.414214e+00 9.058578e+01 5.500000e+00
        vertex -1.732051e+00 9.100000e+01 5.500000e+00
    endloop
endfacet
facet normal -2.260863e-01 -2.946454e-01 9.284768e-01
    outer loop
        vertex -3.521576e+00 8.590047e+01 3.500000e+00
        vertex -1.000000e+00 9.026795e+01 5.500000e+00
        vertex -1.414214e+00 9.058578e+01 5.500000e+00
    endloop
endfacet
facet normal -2.260862e-01 -2.946455e-01 9.284768e-01
    outer loop
        vertex -3.521576e+00 8.590047e+01 3.500000e+00
        vertex -1.414214e+00 9.058578e+01 5.500000e+00
        vertex -4.980249e+00 8.701973e+01 3.500000e+00
    endloop
endfacet
facet normal -1.421283e-01 -3.431188e-01 9.284768e-01
    outer loop
        vertex -1.822912e+00 8.519684e+01 3.500000e+00
        vertex -5.176381e-01 9.006815e+01 5.500000e+00
        vertex -3.521576e+00 8.590047e+01 3.500000e+00
    endloop
endfacet
facet normal -1.421283e-01 -3.431188e-01 9.284768e-01
    outer loop
        vertex -3.521576e+00 8.590047e+01 3.500000e+00
        vertex -5.176381e-01 9.006815e+01 5.500000e+00
        vertex -1.000000e+00 9.026795e+01 5.500000e+00
    endloop
endfacet
facet normal -4.847438e-02 -3.682134e-01 9.284768e-01
    outer loop
        vertex 0.000000e+00 8.495686e+01 3.500000e+00
        vertex 0.000000e+00 9.000000e+01 5.500000e+00
        vertex -5.176381e-01 9.006815e+01 5.500000e+00
    endloop
endfacet
facet normal -4.847453e-02 -3.682134e-01 9.284768e-01
    outer loop
        vertex 0.000000e+00 8.495686e+01 3.500000e+00
        vertex -5.176381e-01 9.006815e+01 5.500000e+00
        vertex -1.822912e+00 8.519684e+01 3.500000e+00
    endloop
endfacet
facet normal 4.847453e-02 -3.682134e-01 9.284768e-01
    outer loop
        vertex 0.000000e+00 8.495686e+01 3.500000e+00
        vertex 1.822912e+00 8.519684e+01 3.500000e+00
        vertex 5.176381e-01 9.006815e+01 5.500000e+00
    endloop
endfacet
facet normal 4.847438e-02 -3.682134e-01 9.284768e-01
    outer loop
        vertex 0.000000e+00 8.495686e+01 3.500000e+00
        vertex 5.176381e-01 9.006815e+01 5.500000e+00
        vertex 0.000000e+00 9.000000e+01 5.500000e+00
    endloop
endfacet
facet normal 1.421283e-01 -3.431188e-01 9.284768e-01
    outer loop
        vertex 1.822912e+00 8.519684e+01 3.500000e+00
        vertex 3.521576e+00 8.590047e+01 3.500000e+00
        vertex 5.176381e-01 9.006815e+01 5.500000e+00
    endloop
endfacet
facet normal 1.421283e-01 -3.431188e-01 9.284768e-01
    outer loop
        vertex 3.521576e+00 8.590047e+01 3.500000e+00
        vertex 1.000000e+00 9.026795e+01 5.500000e+00
        vertex 5.176381e-01 9.006815e+01 5.500000e+00
    endloop
endfacet
facet normal 2.260862e-01 -2.946455e-01 9.284768e-01
    outer loop
        vertex 3.521576e+00 8.590047e+01 3.500000e+00
        vertex 4.980249e+00 8.701973e+01 3.500000e+00
        vertex 1.414214e+00 9.058578e+01 5.500000e+00
    endloop
endfacet
facet normal 2.260863e-01 -2.946454e-01 9.284768e-01
    outer loop
        vertex 3.521576e+00 8.590047e+01 3.500000e+00
        vertex 1.414214e+00 9.058578e+01 5.500000e+00
        vertex 1.000000e+00 9.026795e+01 5.500000e+00
    endloop
endfacet
facet normal 2.946447e-01 -2.260873e-01 9.284767e-01
    outer loop
        vertex 4.980249e+00 8.701973e+01 3.500000e+00
        vertex 6.099543e+00 8.847843e+01 3.500000e+00
        vertex 1.414214e+00 9.058578e+01 5.500000e+00
    endloop
endfacet
facet normal 2.946445e-01 -2.260878e-01 9.284767e-01
    outer loop
        vertex 6.099543e+00 8.847843e+01 3.500000e+00
        vertex 1.732051e+00 9.100000e+01 5.500000e+00
        vertex 1.414214e+00 9.058578e+01 5.500000e+00
    endloop
endfacet
facet normal 3.431202e-01 -1.421252e-01 9.284766e-01
    outer loop
        vertex 6.099543e+00 8.847843e+01 3.500000e+00
        vertex 6.803155e+00 9.017710e+01 3.500000e+00
        vertex 1.931852e+00 9.148236e+01 5.500000e+00
    endloop
endfacet
facet normal 3.431202e-01 -1.421254e-01 9.284767e-01
    outer loop
        vertex 6.099543e+00 8.847843e+01 3.500000e+00
        vertex 1.931852e+00 9.148236e+01 5.500000e+00
        vertex 1.732051e+00 9.100000e+01 5.500000e+00
    endloop
endfacet
facet normal 9.914448e-01 -1.305262e-01 0.000000e+00
    outer loop
        vertex 6.803155e+00 9.017710e+01 -2.000000e+01
        vertex 7.043145e+00 9.200000e+01 -2.000000e+01
        vertex 6.803155e+00 9.017710e+01 3.500000e+00
    endloop
endfacet
facet normal 9.914448e-01 -1.305262e-01 0.000000e+00
    outer loop
        vertex 6.803155e+00 9.017710e+01 3.500000e+00
        vertex 7.043145e+00 9.200000e+01 -2.000000e+01
        vertex 7.043145e+00 9.200000e+01 3.500000e+00
    endloop
endfacet
facet normal 9.914448e-01 1.305262e-01 -0.000000e+00
    outer loop
        vertex 7.043145e+00 9.200000e+01 -2.000000e+01
        vertex 6.803155e+00 9.382290e+01 -2.000000e+01
        vertex 7.043145e+00 9.200000e+01 3.500000e+00
    endloop
endfacet
facet normal 9.914448e-01 1.305262e-01 0.000000e+00
    outer loop
        vertex 7.043145e+00 9.200000e+01 3.500000e+00
        vertex 6.803155e+00 9.382290e+01 -2.000000e+01
        vertex 6.803155e+00 9.382290e+01 3.500000e+00
    endloop
endfacet
facet normal 9.238794e-01 3.826838e-01 -0.000000e+00
    outer loop
        vertex 6.803155e+00 9.382290e+01 -2.000000e+01
        vertex 6.099543e+00 9.552157e+01 -2.000000e+01
        vertex 6.803155e+00 9.382290e+01 3.500000e+00
    endloop
endfacet
facet normal 9.238794e-01 3.826838e-01 0.000000e+00
    outer loop
        vertex 6.803155e+00 9.382290e+01 3.500000e+00
        vertex 6.099543e+00 9.552157e+01 -2.000000e+01
        vertex 6.099543e+00 9.552157e+01 3.500000e+00
    endloop
endfacet
facet normal 7.933546e-01 6.087598e-01 -0.000000e+00
    outer loop
        vertex 6.099543e+00 9.552157e+01 -2.000000e+01
        vertex 3.879946e+00 9.841422e+01 -2.000000e+01
        vertex 6.099543e+00 9.552157e+01 3.500000e+00
    endloop
endfacet
facet normal 7.933546e-01 6.087598e-01 0.000000e+00
    outer loop
        vertex 6.099543e+00 9.552157e+01 3.500000e+00
        vertex 3.879946e+00 9.841422e+01 -2.000000e+01
        vertex 3.879946e+00 9.841422e+01 3.500000e+00
    endloop
endfacet
facet normal 0.000000e+00 1.000000e+00 0.000000e+00
    outer loop
        vertex 3.879946e+00 9.841422e+01 -2.000000e+01
        vertex -3.879946e+00 9.841422e+01 -2.000000e+01
        vertex -3.879946e+00 9.841422e+01 3.500000e+00
    endloop
endfacet
facet normal 0.000000e+00 1.000000e+00 -0.000000e+00
    outer loop
        vertex 3.879946e+00 9.841422e+01 -2.000000e+01
        vertex -3.879946e+00 9.841422e+01 3.500000e+00
        vertex 3.879946e+00 9.841422e+01 3.500000e+00
    endloop
endfacet
facet normal -7.933546e-01 6.087598e-01 0.000000e+00
    outer loop
        vertex -6.099543e+00 9.552157e+01 -2.000000e+01
        vertex -6.099543e+00 9.552157e+01 3.500000e+00
        vertex -3.879946e+00 9.841422e+01 -2.000000e+01
    endloop
endfacet
facet normal -7.933546e-01 6.087598e-01 0.000000e+00
    outer loop
        vertex -6.099543e+00 9.552157e+01 3.500000e+00
        vertex -3.879946e+00 9.841422e+01 3.500000e+00
        vertex -3.879946e+00 9.841422e+01 -2.000000e+01
    endloop
endfacet
facet normal -9.238794e-01 3.826838e-01 0.000000e+00
    outer loop
        vertex -6.803155e+00 9.382290e+01 -2.000000e+01
        vertex -6.803155e+00 9.382290e+01 3.500000e+00
        vertex -6.099543e+00 9.552157e+01 -2.000000e+01
    endloop
endfacet
facet normal -9.238794e-01 3.826838e-01 0.000000e+00
    outer loop
        vertex -6.803155e+00 9.382290e+01 3.500000e+00
        vertex -6.099543e+00 9.552157e+01 3.500000e+00
        vertex -6.099543e+00 9.552157e+01 -2.000000e+01
    endloop
endfacet
facet normal -9.914448e-01 1.305262e-01 0.000000e+00
    outer loop
        vertex -7.043145e+00 9.200000e+01 -2.000000e+01
        vertex -7.043145e+00 9.200000e+01 3.500000e+00
        vertex -6.803155e+00 9.382290e+01 -2.000000e+01
    endloop
endfacet
facet normal -9.914448e-01 1.305262e-01 0.000000e+00
    outer loop
        vertex -7.043145e+00 9.200000e+01 3.500000e+00
        vertex -6.803155e+00 9.382290e+01 3.500000e+00
        vertex -6.803155e+00 9.382290e+01 -2.000000e+01
    endloop
endfacet
facet normal -9.914448e-01 -1.305262e-01 0.000000e+00
    outer loop
        vertex -6.803155e+00 9.017710e+01 -2.000000e+01
        vertex -6.803155e+00 9.017710e+01 3.500000e+00
        vertex -7.043145e+00 9.200000e+01 -2.000000e+01
    endloop
endfacet
facet normal -9.914448e-01 -1.305262e-01 0.000000e+00
    outer loop
        vertex -6.803155e+00 9.017710e+01 3.500000e+00
        vertex -7.043145e+00 9.200000e+01 3.500000e+00
        vertex -7.043145e+00 9.200000e+01 -2.000000e+01
    endloop
endfacet
facet normal -9.238794e-01 -3.826838e-01 0.000000e+00
    outer loop
        vertex -6.099543e+00 8.847843e+01 -2.000000e+01
        vertex -6.099543e+00 8.847843e+01 3.500000e+00
        vertex -6.803155e+00 9.017710e+01 -2.000000e+01
    endloop
endfacet
facet normal -9.238794e-01 -3.826838e-01 0.000000e+00
    outer loop
        vertex -6.099543e+00 8.847843e+01 3.500000e+00
        vertex -6.803155e+00 9.017710e+01 3.500000e+00
        vertex -6.803155e+00 9.017710e+01 -2.000000e+01
    endloop
endfacet
facet normal -7.933554e-01 -6.087587e-01 0.000000e+00
    outer loop
        vertex -4.980249e+00 8.701973e+01 -2.000000e+01
        vertex -4.980249e+00 8.701973e+01 3.500000e+00
        vertex -6.099543e+00 8.847843e+01 -2.000000e+01
    endloop
endfacet
facet normal -7.933554e-01 -6.087587e-01 0.000000e+00
    outer loop
        vertex -4.980249e+00 8.701973e+01 3.500000e+00
        vertex -6.099543e+00 8.847843e+01 3.500000e+00
        vertex -6.099543e+00 8.847843e+01 -2.000000e+01
    endloop
endfacet
facet normal -6.087558e-01 -7.933576e-01 0.000000e+00
    outer loop
        vertex -3.521576e+00 8.590047e+01 -2.000000e+01
        vertex -3.521576e+00 8.590047e+01 3.500000e+00
        vertex -4.980249e+00 8.701973e+01 -2.000000e+01
    endloop
endfacet
facet normal -6.087558e-01 -7.933576e-01 0.000000e+00
    outer loop
        vertex -3.521576e+00 8.590047e+01 3.500000e+00
        vertex -4.980249e+00 8.701973e+01 3.500000e+00
        vertex -4.980249e+00 8.701973e+01 -2.000000e+01
    endloop
endfacet
facet normal -3.826922e-01 -9.238759e-01 0.000000e+00
    outer loop
        vertex -1.822912e+00 8.519684e+01 -2.000000e+01
        vertex -1.822912e+00 8.519684e+01 3.500000e+00
        vertex -3.521576e+00 8.590047e+01 -2.000000e+01
    endloop
endfacet
facet normal -3.826922e-01 -9.238759e-01 0.000000e+00
    outer loop
        vertex -1.822912e+00 8.519684e+01 3.500000e+00
        vertex -3.521576e+00 8.590047e+01 3.500000e+00
        vertex -3.521576e+00 8.590047e+01 -2.000000e+01
    endloop
endfacet
facet normal -1.305217e-01 -9.914454e-01 0.000000e+00
    outer loop
        vertex 0.000000e+00 8.495686e+01 -2.000000e+01
        vertex 0.000000e+00 8.495686e+01 3.500000e+00
        vertex -1.822912e+00 8.519684e+01 -2.000000e+01
    endloop
endfacet
facet normal -1.305217e-01 -9.914454e-01 0.000000e+00
    outer loop
        vertex 0.000000e+00 8.495686e+01 3.500000e+00
        vertex -1.822912e+00 8.519684e+01 3.500000e+00
        vertex -1.822912e+00 8.519684e+01 -2.000000e+01
    endloop
endfacet
facet normal 1.305217e-01 -9.914454e-01 0.000000e+00
    outer loop
        vertex 0.000000e+00 8.495686e+01 -2.000000e+01
        vertex 1.822912e+00 8.519684e+01 -2.000000e+01
        vertex 0.000000e+00 8.495686e+01 3.500000e+00
    endloop
endfacet
facet normal 1.305217e-01 -9.914454e-01 0.000000e+00
    outer loop
        vertex 0.000000e+00 8.495686e+01 3.500000e+00
        vertex 1.822912e+00 8.519684e+01 -2.000000e+01
        vertex 1.822912e+00 8.519684e+01 3.500000e+00
    endloop
endfacet
facet normal 3.826922e-01 -9.238759e-01 0.000000e+00
    outer loop
        vertex 1.822912e+00 8.519684e+01 -2.000000e+01
        vertex 3.521576e+00 8.590047e+01 -2.000000e+01
        vertex 1.822912e+00 8.519684e+01 3.500000e+00
    endloop
endfacet
facet normal 3.826922e-01 -9.238759e-01 0.000000e+00
    outer loop
        vertex 1.822912e+00 8.519684e+01 3.500000e+00
        vertex 3.521576e+00 8.590047e+01 -2.000000e+01
        vertex 3.521576e+00 8.590047e+01 3.500000e+00
    endloop
endfacet
facet normal 6.087558e-01 -7.933576e-01 0.000000e+00
    outer loop
        vertex 3.521576e+00 8.590047e+01 -2.000000e+01
        vertex 4.980249e+00 8.701973e+01 -2.000000e+01
        vertex 3.521576e+00 8.590047e+01 3.500000e+00
    endloop
endfacet
facet normal 6.087558e-01 -7.933576e-01 0.000000e+00
    outer loop
        vertex 3.521576e+00 8.590047e+01 3.500000e+00
        vertex 4.980249e+00 8.701973e+01 -2.000000e+01
        vertex 4.980249e+00 8.701973e+01 3.500000e+00
    endloop
endfacet
facet normal 7.933554e-01 -6.087587e-01 0.000000e+00
    outer loop
        vertex 4.980249e+00 8.701973e+01 -2.000000e+01
        vertex 6.099543e+00 8.847843e+01 -2.000000e+01
        vertex 4.980249e+00 8.701973e+01 3.500000e+00
    endloop
endfacet
facet normal 7.933554e-01 -6.087587e-01 0.000000e+00
    outer loop
        vertex 4.980249e+00 8.701973e+01 3.500000e+00
        vertex 6.099543e+00 8.847843e+01 -2.000000e+01
        vertex 6.099543e+00 8.847843e+01 3.500000e+00
    endloop
endfacet
facet normal 9.238794e-01 -3.826838e-01 0.000000e+00
    outer loop
        vertex 6.099543e+00 8.847843e+01 -2.000000e+01
        vertex 6.803155e+00 9.017710e+01 -2.000000e+01
        vertex 6.099543e+00 8.847843e+01 3.500000e+00
    endloop
endfacet
facet normal 9.238794e-01 -3.826838e-01 0.000000e+00
    outer loop
        vertex 6.099543e+00 8.847843e+01 3.500000e+00
        vertex 6.803155e+00 9.017710e+01 -2.000000e+01
        vertex 6.803155e+00 9.017710e+01 3.500000e+00
    endloop
endfacet
endsolid tester-for-pusher-pinion.stl
