solid pusher.stl
facet normal 0.000000e+00 0.000000e+00 1.000000e+00
    outer loop
        vertex 5.100000e+01 -7.000000e+00 1.150000e+02
        vertex 6.500000e+01 -7.000000e+00 1.150000e+02
        vertex 5.100000e+01 5.000000e+00 1.150000e+02
    endloop
endfacet
facet normal 0.000000e+00 -0.000000e+00 1.000000e+00
    outer loop
        vertex 6.500000e+01 -7.000000e+00 1.150000e+02
        vertex 6.500000e+01 5.000000e+00 1.150000e+02
        vertex 5.100000e+01 5.000000e+00 1.150000e+02
    endloop
endfacet
facet normal 0.000000e+00 0.000000e+00 -1.000000e+00
    outer loop
        vertex 5.100000e+01 -7.000000e+00 7.000000e+01
        vertex 5.100000e+01 5.000000e+00 7.000000e+01
        vertex 6.500000e+01 -7.000000e+00 7.000000e+01
    endloop
endfacet
facet normal 0.000000e+00 0.000000e+00 -1.000000e+00
    outer loop
        vertex 6.500000e+01 -7.000000e+00 7.000000e+01
        vertex 5.100000e+01 5.000000e+00 7.000000e+01
        vertex 6.500000e+01 5.000000e+00 7.000000e+01
    endloop
endfacet
facet normal 0.000000e+00 -1.000000e+00 0.000000e+00
    outer loop
        vertex 5.400000e+01 -7.000000e+00 1.100000e+02
        vertex 6.500000e+01 -7.000000e+00 1.150000e+02
        vertex 5.100000e+01 -7.000000e+00 1.150000e+02
    endloop
endfacet
facet normal 0.000000e+00 -1.000000e+00 0.000000e+00
    outer loop
        vertex 5.400000e+01 -7.000000e+00 1.100000e+02
        vertex 6.200000e+01 -7.000000e+00 1.100000e+02
        vertex 6.500000e+01 -7.000000e+00 1.150000e+02
    endloop
endfacet
facet normal 0.000000e+00 -1.000000e+00 0.000000e+00
    outer loop
        vertex 6.200000e+01 -7.000000e+00 7.600000e+01
        vertex 6.500000e+01 -7.000000e+00 1.150000e+02
        vertex 6.200000e+01 -7.000000e+00 1.100000e+02
    endloop
endfacet
facet normal 0.000000e+00 -1.000000e+00 0.000000e+00
    outer loop
        vertex 6.500000e+01 -7.000000e+00 7.000000e+01
        vertex 6.500000e+01 -7.000000e+00 1.150000e+02
        vertex 6.200000e+01 -7.000000e+00 7.600000e+01
    endloop
endfacet
facet normal 0.000000e+00 -1.000000e+00 0.000000e+00
    outer loop
        vertex 6.500000e+01 -7.000000e+00 7.000000e+01
        vertex 6.200000e+01 -7.000000e+00 7.600000e+01
        vertex 5.400000e+01 -7.000000e+00 7.600000e+01
    endloop
endfacet
facet normal 0.000000e+00 -1.000000e+00 0.000000e+00
    outer loop
        vertex 5.400000e+01 -7.000000e+00 7.600000e+01
        vertex 5.400000e+01 -7.000000e+00 1.100000e+02
        vertex 5.100000e+01 -7.000000e+00 1.150000e+02
    endloop
endfacet
facet normal 0.000000e+00 -1.000000e+00 0.000000e+00
    outer loop
        vertex 5.100000e+01 -7.000000e+00 7.000000e+01
        vertex 5.400000e+01 -7.000000e+00 7.600000e+01
        vertex 5.100000e+01 -7.000000e+00 1.150000e+02
    endloop
endfacet
facet normal 0.000000e+00 -1.000000e+00 0.000000e+00
    outer loop
        vertex 5.100000e+01 -7.000000e+00 7.000000e+01
        vertex 6.500000e+01 -7.000000e+00 7.000000e+01
        vertex 5.400000e+01 -7.000000e+00 7.600000e+01
    endloop
endfacet
facet normal 0.000000e+00 1.000000e+00 -0.000000e+00
    outer loop
        vertex 5.400000e+01 5.000000e+00 1.100000e+02
        vertex 5.100000e+01 5.000000e+00 1.150000e+02
        vertex 6.500000e+01 5.000000e+00 1.150000e+02
    endloop
endfacet
facet normal 0.000000e+00 1.000000e+00 0.000000e+00
    outer loop
        vertex 5.400000e+01 5.000000e+00 1.100000e+02
        vertex 6.500000e+01 5.000000e+00 1.150000e+02
        vertex 6.200000e+01 5.000000e+00 1.100000e+02
    endloop
endfacet
facet normal 0.000000e+00 1.000000e+00 -0.000000e+00
    outer loop
        vertex 5.400000e+01 5.000000e+00 7.600000e+01
        vertex 5.100000e+01 5.000000e+00 1.150000e+02
        vertex 5.400000e+01 5.000000e+00 1.100000e+02
    endloop
endfacet
facet normal 0.000000e+00 1.000000e+00 0.000000e+00
    outer loop
        vertex 5.100000e+01 5.000000e+00 7.000000e+01
        vertex 5.100000e+01 5.000000e+00 1.150000e+02
        vertex 5.400000e+01 5.000000e+00 7.600000e+01
    endloop
endfacet
facet normal 0.000000e+00 1.000000e+00 0.000000e+00
    outer loop
        vertex 5.100000e+01 5.000000e+00 7.000000e+01
        vertex 5.400000e+01 5.000000e+00 7.600000e+01
        vertex 6.500000e+01 5.000000e+00 7.000000e+01
    endloop
endfacet
facet normal 0.000000e+00 1.000000e+00 0.000000e+00
    outer loop
        vertex 6.500000e+01 5.000000e+00 7.000000e+01
        vertex 5.400000e+01 5.000000e+00 7.600000e+01
        vertex 6.200000e+01 5.000000e+00 7.600000e+01
    endloop
endfacet
facet normal 0.000000e+00 1.000000e+00 -0.000000e+00
    outer loop
        vertex 6.500000e+01 5.000000e+00 7.000000e+01
        vertex 6.200000e+01 5.000000e+00 7.600000e+01
        vertex 6.500000e+01 5.000000e+00 1.150000e+02
    endloop
endfacet
facet normal 0.000000e+00 1.000000e+00 0.000000e+00
    outer loop
        vertex 6.200000e+01 5.000000e+00 7.600000e+01
        vertex 6.200000e+01 5.000000e+00 1.100000e+02
        vertex 6.500000e+01 5.000000e+00 1.150000e+02
    endloop
endfacet
facet normal 1.000000e+00 0.000000e+00 0.000000e+00
    outer loop
        vertex 5.400000e+01 -7.000000e+00 7.600000e+01
        vertex 5.400000e+01 5.000000e+00 7.600000e+01
        vertex 5.400000e+01 -7.000000e+00 1.100000e+02
    endloop
endfacet
facet normal 1.000000e+00 -0.000000e+00 0.000000e+00
    outer loop
        vertex 5.400000e+01 -7.000000e+00 1.100000e+02
        vertex 5.400000e+01 5.000000e+00 7.600000e+01
        vertex 5.400000e+01 5.000000e+00 1.100000e+02
    endloop
endfacet
facet normal 0.000000e+00 0.000000e+00 -1.000000e+00
    outer loop
        vertex 5.400000e+01 -7.000000e+00 1.100000e+02
        vertex 5.400000e+01 5.000000e+00 1.100000e+02
        vertex 6.200000e+01 -7.000000e+00 1.100000e+02
    endloop
endfacet
facet normal 0.000000e+00 0.000000e+00 -1.000000e+00
    outer loop
        vertex 6.200000e+01 -7.000000e+00 1.100000e+02
        vertex 5.400000e+01 5.000000e+00 1.100000e+02
        vertex 6.200000e+01 5.000000e+00 1.100000e+02
    endloop
endfacet
facet normal -1.000000e+00 0.000000e+00 0.000000e+00
    outer loop
        vertex 6.200000e+01 -7.000000e+00 7.600000e+01
        vertex 6.200000e+01 -7.000000e+00 1.100000e+02
        vertex 6.200000e+01 5.000000e+00 1.100000e+02
    endloop
endfacet
facet normal -1.000000e+00 0.000000e+00 0.000000e+00
    outer loop
        vertex 6.200000e+01 -7.000000e+00 7.600000e+01
        vertex 6.200000e+01 5.000000e+00 1.100000e+02
        vertex 6.200000e+01 5.000000e+00 7.600000e+01
    endloop
endfacet
facet normal 0.000000e+00 0.000000e+00 1.000000e+00
    outer loop
        vertex 5.400000e+01 -7.000000e+00 7.600000e+01
        vertex 6.200000e+01 -7.000000e+00 7.600000e+01
        vertex 6.200000e+01 5.000000e+00 7.600000e+01
    endloop
endfacet
facet normal 0.000000e+00 0.000000e+00 1.000000e+00
    outer loop
        vertex 5.400000e+01 -7.000000e+00 7.600000e+01
        vertex 6.200000e+01 5.000000e+00 7.600000e+01
        vertex 5.400000e+01 5.000000e+00 7.600000e+01
    endloop
endfacet
facet normal -1.000000e+00 0.000000e+00 0.000000e+00
    outer loop
        vertex 5.100000e+01 -7.000000e+00 1.150000e+02
        vertex 5.100000e+01 5.000000e+00 1.150000e+02
        vertex 5.100000e+01 1.552914e+00 8.579556e+01
    endloop
endfacet
facet normal -1.000000e+00 0.000000e+00 0.000000e+00
    outer loop
        vertex 5.100000e+01 1.552914e+00 8.579556e+01
        vertex 5.100000e+01 5.000000e+00 1.150000e+02
        vertex 5.100000e+01 3.000000e+00 8.519615e+01
    endloop
endfacet
facet normal -1.000000e+00 0.000000e+00 0.000000e+00
    outer loop
        vertex 5.100000e+01 3.000000e+00 8.519615e+01
        vertex 5.100000e+01 5.000000e+00 1.150000e+02
        vertex 5.100000e+01 4.992640e+00 8.424264e+01
    endloop
endfacet
facet normal -1.000000e+00 0.000000e+00 0.000000e+00
    outer loop
        vertex 5.100000e+01 -7.000000e+00 1.150000e+02
        vertex 5.100000e+01 1.552914e+00 8.579556e+01
        vertex 5.100000e+01 -4.440892e-16 8.600000e+01
    endloop
endfacet
facet normal -1.000000e+00 0.000000e+00 0.000000e+00
    outer loop
        vertex 5.100000e+01 -7.000000e+00 1.150000e+02
        vertex 5.100000e+01 -4.440892e-16 8.600000e+01
        vertex 5.100000e+01 -1.552914e+00 8.579556e+01
    endloop
endfacet
facet normal -1.000000e+00 0.000000e+00 0.000000e+00
    outer loop
        vertex 5.100000e+01 -7.000000e+00 1.150000e+02
        vertex 5.100000e+01 -1.552914e+00 8.579556e+01
        vertex 5.100000e+01 -3.000000e+00 8.519615e+01
    endloop
endfacet
facet normal -1.000000e+00 0.000000e+00 0.000000e+00
    outer loop
        vertex 5.100000e+01 -7.000000e+00 1.150000e+02
        vertex 5.100000e+01 -3.000000e+00 8.519615e+01
        vertex 5.100000e+01 -4.242640e+00 8.424264e+01
    endloop
endfacet
facet normal -1.000000e+00 0.000000e+00 0.000000e+00
    outer loop
        vertex 5.100000e+01 -7.000000e+00 1.150000e+02
        vertex 5.100000e+01 -4.242640e+00 8.424264e+01
        vertex 5.100000e+01 -5.196152e+00 8.300000e+01
    endloop
endfacet
facet normal -1.000000e+00 0.000000e+00 0.000000e+00
    outer loop
        vertex 5.100000e+01 -7.000000e+00 1.150000e+02
        vertex 5.100000e+01 -5.196152e+00 8.300000e+01
        vertex 5.100000e+01 -5.795555e+00 8.155292e+01
    endloop
endfacet
facet normal -1.000000e+00 0.000000e+00 0.000000e+00
    outer loop
        vertex 5.100000e+01 -7.000000e+00 1.150000e+02
        vertex 5.100000e+01 -5.795555e+00 8.155292e+01
        vertex 5.100000e+01 -6.000000e+00 8.000000e+01
    endloop
endfacet
facet normal -1.000000e+00 0.000000e+00 0.000000e+00
    outer loop
        vertex 5.100000e+01 -7.000000e+00 7.000000e+01
        vertex 5.100000e+01 -7.000000e+00 1.150000e+02
        vertex 5.100000e+01 -6.000000e+00 8.000000e+01
    endloop
endfacet
facet normal -1.000000e+00 0.000000e+00 0.000000e+00
    outer loop
        vertex 5.100000e+01 -7.000000e+00 7.000000e+01
        vertex 5.100000e+01 -6.000000e+00 8.000000e+01
        vertex 5.100000e+01 -5.795555e+00 7.844708e+01
    endloop
endfacet
facet normal -1.000000e+00 0.000000e+00 0.000000e+00
    outer loop
        vertex 5.100000e+01 -7.000000e+00 7.000000e+01
        vertex 5.100000e+01 -5.795555e+00 7.844708e+01
        vertex 5.100000e+01 -5.196152e+00 7.700000e+01
    endloop
endfacet
facet normal -1.000000e+00 0.000000e+00 0.000000e+00
    outer loop
        vertex 5.100000e+01 -7.000000e+00 7.000000e+01
        vertex 5.100000e+01 -5.196152e+00 7.700000e+01
        vertex 5.100000e+01 -4.242640e+00 7.575736e+01
    endloop
endfacet
facet normal -1.000000e+00 0.000000e+00 0.000000e+00
    outer loop
        vertex 5.100000e+01 -7.000000e+00 7.000000e+01
        vertex 5.100000e+01 -4.242640e+00 7.575736e+01
        vertex 5.100000e+01 5.000000e+00 7.000000e+01
    endloop
endfacet
facet normal -1.000000e+00 0.000000e+00 0.000000e+00
    outer loop
        vertex 5.100000e+01 -4.242640e+00 7.575736e+01
        vertex 5.100000e+01 4.992640e+00 7.575736e+01
        vertex 5.100000e+01 5.000000e+00 7.000000e+01
    endloop
endfacet
facet normal -1.000000e+00 0.000000e+00 0.000000e+00
    outer loop
        vertex 5.100000e+01 4.992640e+00 7.575736e+01
        vertex 5.100000e+01 4.992640e+00 8.424264e+01
        vertex 5.100000e+01 5.000000e+00 7.000000e+01
    endloop
endfacet
facet normal -1.000000e+00 0.000000e+00 0.000000e+00
    outer loop
        vertex 5.100000e+01 4.992640e+00 8.424264e+01
        vertex 5.100000e+01 5.000000e+00 1.150000e+02
        vertex 5.100000e+01 5.000000e+00 7.000000e+01
    endloop
endfacet
facet normal 1.000000e+00 -0.000000e+00 0.000000e+00
    outer loop
        vertex 6.500000e+01 -7.000000e+00 1.150000e+02
        vertex 6.500000e+01 1.552914e+00 8.579556e+01
        vertex 6.500000e+01 5.000000e+00 1.150000e+02
    endloop
endfacet
facet normal 1.000000e+00 -0.000000e+00 0.000000e+00
    outer loop
        vertex 6.500000e+01 1.552914e+00 8.579556e+01
        vertex 6.500000e+01 3.000000e+00 8.519615e+01
        vertex 6.500000e+01 5.000000e+00 1.150000e+02
    endloop
endfacet
facet normal 1.000000e+00 -0.000000e+00 0.000000e+00
    outer loop
        vertex 6.500000e+01 3.000000e+00 8.519615e+01
        vertex 6.500000e+01 4.992640e+00 8.424264e+01
        vertex 6.500000e+01 5.000000e+00 1.150000e+02
    endloop
endfacet
facet normal 1.000000e+00 0.000000e+00 0.000000e+00
    outer loop
        vertex 6.500000e+01 -7.000000e+00 1.150000e+02
        vertex 6.500000e+01 -4.440892e-16 8.600000e+01
        vertex 6.500000e+01 1.552914e+00 8.579556e+01
    endloop
endfacet
facet normal 1.000000e+00 0.000000e+00 0.000000e+00
    outer loop
        vertex 6.500000e+01 -7.000000e+00 1.150000e+02
        vertex 6.500000e+01 -1.552914e+00 8.579556e+01
        vertex 6.500000e+01 -4.440892e-16 8.600000e+01
    endloop
endfacet
facet normal 1.000000e+00 0.000000e+00 0.000000e+00
    outer loop
        vertex 6.500000e+01 -7.000000e+00 1.150000e+02
        vertex 6.500000e+01 -3.000000e+00 8.519615e+01
        vertex 6.500000e+01 -1.552914e+00 8.579556e+01
    endloop
endfacet
facet normal 1.000000e+00 0.000000e+00 0.000000e+00
    outer loop
        vertex 6.500000e+01 -7.000000e+00 1.150000e+02
        vertex 6.500000e+01 -4.242640e+00 8.424264e+01
        vertex 6.500000e+01 -3.000000e+00 8.519615e+01
    endloop
endfacet
facet normal 1.000000e+00 0.000000e+00 0.000000e+00
    outer loop
        vertex 6.500000e+01 -7.000000e+00 1.150000e+02
        vertex 6.500000e+01 -5.196152e+00 8.300000e+01
        vertex 6.500000e+01 -4.242640e+00 8.424264e+01
    endloop
endfacet
facet normal 1.000000e+00 0.000000e+00 0.000000e+00
    outer loop
        vertex 6.500000e+01 -7.000000e+00 1.150000e+02
        vertex 6.500000e+01 -5.795555e+00 8.155292e+01
        vertex 6.500000e+01 -5.196152e+00 8.300000e+01
    endloop
endfacet
facet normal 1.000000e+00 0.000000e+00 0.000000e+00
    outer loop
        vertex 6.500000e+01 -7.000000e+00 1.150000e+02
        vertex 6.500000e+01 -6.000000e+00 8.000000e+01
        vertex 6.500000e+01 -5.795555e+00 8.155292e+01
    endloop
endfacet
facet normal 1.000000e+00 0.000000e+00 0.000000e+00
    outer loop
        vertex 6.500000e+01 -7.000000e+00 7.000000e+01
        vertex 6.500000e+01 -6.000000e+00 8.000000e+01
        vertex 6.500000e+01 -7.000000e+00 1.150000e+02
    endloop
endfacet
facet normal 1.000000e+00 0.000000e+00 0.000000e+00
    outer loop
        vertex 6.500000e+01 -7.000000e+00 7.000000e+01
        vertex 6.500000e+01 -5.795555e+00 7.844708e+01
        vertex 6.500000e+01 -6.000000e+00 8.000000e+01
    endloop
endfacet
facet normal 1.000000e+00 0.000000e+00 0.000000e+00
    outer loop
        vertex 6.500000e+01 -7.000000e+00 7.000000e+01
        vertex 6.500000e+01 -5.196152e+00 7.700000e+01
        vertex 6.500000e+01 -5.795555e+00 7.844708e+01
    endloop
endfacet
facet normal 1.000000e+00 0.000000e+00 0.000000e+00
    outer loop
        vertex 6.500000e+01 -7.000000e+00 7.000000e+01
        vertex 6.500000e+01 -4.242640e+00 7.575736e+01
        vertex 6.500000e+01 -5.196152e+00 7.700000e+01
    endloop
endfacet
facet normal 1.000000e+00 0.000000e+00 0.000000e+00
    outer loop
        vertex 6.500000e+01 -7.000000e+00 7.000000e+01
        vertex 6.500000e+01 5.000000e+00 7.000000e+01
        vertex 6.500000e+01 -4.242640e+00 7.575736e+01
    endloop
endfacet
facet normal 1.000000e+00 -0.000000e+00 0.000000e+00
    outer loop
        vertex 6.500000e+01 -4.242640e+00 7.575736e+01
        vertex 6.500000e+01 5.000000e+00 7.000000e+01
        vertex 6.500000e+01 4.992640e+00 7.575736e+01
    endloop
endfacet
facet normal 1.000000e+00 -0.000000e+00 0.000000e+00
    outer loop
        vertex 6.500000e+01 4.992640e+00 8.424264e+01
        vertex 6.500000e+01 5.000000e+00 7.000000e+01
        vertex 6.500000e+01 5.000000e+00 1.150000e+02
    endloop
endfacet
facet normal 1.000000e+00 -0.000000e+00 0.000000e+00
    outer loop
        vertex 6.500000e+01 4.992640e+00 7.575736e+01
        vertex 6.500000e+01 5.000000e+00 7.000000e+01
        vertex 6.500000e+01 4.992640e+00 8.424264e+01
    endloop
endfacet
facet normal 1.000000e+00 0.000000e+00 0.000000e+00
    outer loop
        vertex 9.219070e+01 -3.749496e+00 7.675736e+01
        vertex 9.219070e+01 3.242640e+00 7.675736e+01
        vertex 9.219070e+01 3.242640e+00 8.374950e+01
    endloop
endfacet
facet normal 1.000000e+00 -0.000000e+00 0.000000e+00
    outer loop
        vertex 9.219070e+01 -4.322654e+00 7.750432e+01
        vertex 9.219070e+01 -3.749496e+00 7.675736e+01
        vertex 9.219070e+01 3.242640e+00 8.374950e+01
    endloop
endfacet
facet normal 1.000000e+00 -0.000000e+00 0.000000e+00
    outer loop
        vertex 9.219070e+01 -4.821294e+00 7.870814e+01
        vertex 9.219070e+01 -4.322654e+00 7.750432e+01
        vertex 9.219070e+01 3.242640e+00 8.374950e+01
    endloop
endfacet
facet normal 1.000000e+00 -0.000000e+00 0.000000e+00
    outer loop
        vertex 9.219070e+01 -4.991371e+00 8.000000e+01
        vertex 9.219070e+01 -4.821294e+00 7.870814e+01
        vertex 9.219070e+01 3.242640e+00 8.374950e+01
    endloop
endfacet
facet normal 1.000000e+00 0.000000e+00 0.000000e+00
    outer loop
        vertex 9.219070e+01 -4.991371e+00 8.000000e+01
        vertex 9.219070e+01 3.242640e+00 8.374950e+01
        vertex 9.219070e+01 -4.821294e+00 8.129186e+01
    endloop
endfacet
facet normal 1.000000e+00 0.000000e+00 0.000000e+00
    outer loop
        vertex 9.219070e+01 -4.821294e+00 8.129186e+01
        vertex 9.219070e+01 3.242640e+00 8.374950e+01
        vertex 9.219070e+01 -4.322654e+00 8.249568e+01
    endloop
endfacet
facet normal 1.000000e+00 0.000000e+00 0.000000e+00
    outer loop
        vertex 9.219070e+01 -4.322654e+00 8.249568e+01
        vertex 9.219070e+01 3.242640e+00 8.374950e+01
        vertex 9.219070e+01 -3.529432e+00 8.352943e+01
    endloop
endfacet
facet normal 1.000000e+00 0.000000e+00 0.000000e+00
    outer loop
        vertex 9.219070e+01 -3.529432e+00 8.352943e+01
        vertex 9.219070e+01 3.242640e+00 8.374950e+01
        vertex 9.219070e+01 -2.495685e+00 8.432265e+01
    endloop
endfacet
facet normal 1.000000e+00 -0.000000e+00 0.000000e+00
    outer loop
        vertex 9.219070e+01 -2.495685e+00 8.432265e+01
        vertex 9.219070e+01 3.242640e+00 8.374950e+01
        vertex 9.219070e+01 -1.291862e+00 8.482130e+01
    endloop
endfacet
facet normal 1.000000e+00 -0.000000e+00 0.000000e+00
    outer loop
        vertex 9.219070e+01 -1.291862e+00 8.482130e+01
        vertex 9.219070e+01 3.242640e+00 8.374950e+01
        vertex 9.219070e+01 0.000000e+00 8.499137e+01
    endloop
endfacet
facet normal 1.000000e+00 0.000000e+00 0.000000e+00
    outer loop
        vertex 9.219070e+01 0.000000e+00 8.499137e+01
        vertex 9.219070e+01 3.242640e+00 8.374950e+01
        vertex 9.219070e+01 2.495685e+00 8.432265e+01
    endloop
endfacet
facet normal 1.000000e+00 0.000000e+00 0.000000e+00
    outer loop
        vertex 9.219070e+01 0.000000e+00 8.499137e+01
        vertex 9.219070e+01 2.495685e+00 8.432265e+01
        vertex 9.219070e+01 1.291862e+00 8.482130e+01
    endloop
endfacet
facet normal 6.585046e-01 7.525767e-01 0.000000e+00
    outer loop
        vertex 9.219070e+01 3.242640e+00 7.675736e+01
        vertex 9.019070e+01 4.992640e+00 7.575736e+01
        vertex 9.019070e+01 4.992640e+00 8.424264e+01
    endloop
endfacet
facet normal 6.585046e-01 7.525767e-01 -0.000000e+00
    outer loop
        vertex 9.219070e+01 3.242640e+00 7.675736e+01
        vertex 9.019070e+01 4.992640e+00 8.424264e+01
        vertex 9.219070e+01 3.242640e+00 8.374950e+01
    endloop
endfacet
facet normal 4.472136e-01 0.000000e+00 -8.944272e-01
    outer loop
        vertex 9.019070e+01 -4.242640e+00 7.575736e+01
        vertex 9.019070e+01 4.992640e+00 7.575736e+01
        vertex 9.219070e+01 3.242640e+00 7.675736e+01
    endloop
endfacet
facet normal 4.472136e-01 0.000000e+00 -8.944272e-01
    outer loop
        vertex 9.019070e+01 -4.242640e+00 7.575736e+01
        vertex 9.219070e+01 3.242640e+00 7.675736e+01
        vertex 9.219070e+01 -3.749496e+00 7.675736e+01
    endloop
endfacet
facet normal 4.472136e-01 -7.095962e-01 -5.444936e-01
    outer loop
        vertex 9.019070e+01 -5.196152e+00 7.700000e+01
        vertex 9.019070e+01 -4.242640e+00 7.575736e+01
        vertex 9.219070e+01 -3.749496e+00 7.675736e+01
    endloop
endfacet
facet normal 4.472144e-01 -7.095969e-01 -5.444920e-01
    outer loop
        vertex 9.019070e+01 -5.196152e+00 7.700000e+01
        vertex 9.219070e+01 -3.749496e+00 7.675736e+01
        vertex 9.219070e+01 -4.322654e+00 7.750432e+01
    endloop
endfacet
facet normal 4.472140e-01 -8.263424e-01 -3.422832e-01
    outer loop
        vertex 9.019070e+01 -5.795555e+00 7.844708e+01
        vertex 9.019070e+01 -5.196152e+00 7.700000e+01
        vertex 9.219070e+01 -4.322654e+00 7.750432e+01
    endloop
endfacet
facet normal 4.472139e-01 -8.263424e-01 -3.422835e-01
    outer loop
        vertex 9.019070e+01 -5.795555e+00 7.844708e+01
        vertex 9.219070e+01 -4.322654e+00 7.750432e+01
        vertex 9.219070e+01 -4.821294e+00 7.870814e+01
    endloop
endfacet
facet normal 4.472137e-01 -8.867753e-01 -1.167458e-01
    outer loop
        vertex 9.019070e+01 -6.000000e+00 8.000000e+01
        vertex 9.019070e+01 -5.795555e+00 7.844708e+01
        vertex 9.219070e+01 -4.821294e+00 7.870814e+01
    endloop
endfacet
facet normal 4.472136e-01 -8.867753e-01 -1.167461e-01
    outer loop
        vertex 9.019070e+01 -6.000000e+00 8.000000e+01
        vertex 9.219070e+01 -4.821294e+00 7.870814e+01
        vertex 9.219070e+01 -4.991371e+00 8.000000e+01
    endloop
endfacet
facet normal 4.472136e-01 -8.867753e-01 1.167461e-01
    outer loop
        vertex 9.019070e+01 -6.000000e+00 8.000000e+01
        vertex 9.219070e+01 -4.991371e+00 8.000000e+01
        vertex 9.219070e+01 -4.821294e+00 8.129186e+01
    endloop
endfacet
facet normal 4.472137e-01 -8.867753e-01 1.167458e-01
    outer loop
        vertex 9.019070e+01 -6.000000e+00 8.000000e+01
        vertex 9.219070e+01 -4.821294e+00 8.129186e+01
        vertex 9.019070e+01 -5.795555e+00 8.155292e+01
    endloop
endfacet
facet normal 4.472139e-01 -8.263424e-01 3.422835e-01
    outer loop
        vertex 9.019070e+01 -5.795555e+00 8.155292e+01
        vertex 9.219070e+01 -4.821294e+00 8.129186e+01
        vertex 9.219070e+01 -4.322654e+00 8.249568e+01
    endloop
endfacet
facet normal 4.472140e-01 -8.263424e-01 3.422832e-01
    outer loop
        vertex 9.019070e+01 -5.795555e+00 8.155292e+01
        vertex 9.219070e+01 -4.322654e+00 8.249568e+01
        vertex 9.019070e+01 -5.196152e+00 8.300000e+01
    endloop
endfacet
facet normal 4.472143e-01 -7.095960e-01 5.444933e-01
    outer loop
        vertex 9.019070e+01 -5.196152e+00 8.300000e+01
        vertex 9.219070e+01 -4.322654e+00 8.249568e+01
        vertex 9.219070e+01 -3.529432e+00 8.352943e+01
    endloop
endfacet
facet normal 4.472142e-01 -7.095959e-01 5.444934e-01
    outer loop
        vertex 9.019070e+01 -5.196152e+00 8.300000e+01
        vertex 9.219070e+01 -3.529432e+00 8.352943e+01
        vertex 9.019070e+01 -4.242640e+00 8.424264e+01
    endloop
endfacet
facet normal 4.472133e-01 -5.444953e-01 7.095951e-01
    outer loop
        vertex 9.219070e+01 -3.529432e+00 8.352943e+01
        vertex 9.219070e+01 -2.495685e+00 8.432265e+01
        vertex 9.019070e+01 -3.000000e+00 8.519615e+01
    endloop
endfacet
facet normal 4.472144e-01 -5.444934e-01 7.095958e-01
    outer loop
        vertex 9.019070e+01 -4.242640e+00 8.424264e+01
        vertex 9.219070e+01 -3.529432e+00 8.352943e+01
        vertex 9.019070e+01 -3.000000e+00 8.519615e+01
    endloop
endfacet
facet normal 4.472128e-01 -3.422839e-01 8.263428e-01
    outer loop
        vertex 9.219070e+01 -2.495685e+00 8.432265e+01
        vertex 9.219070e+01 -1.291862e+00 8.482130e+01
        vertex 9.019070e+01 -1.552914e+00 8.579556e+01
    endloop
endfacet
facet normal 4.472133e-01 -3.422829e-01 8.263429e-01
    outer loop
        vertex 9.019070e+01 -3.000000e+00 8.519615e+01
        vertex 9.219070e+01 -2.495685e+00 8.432265e+01
        vertex 9.019070e+01 -1.552914e+00 8.579556e+01
    endloop
endfacet
facet normal 4.472136e-01 -1.167446e-01 8.867754e-01
    outer loop
        vertex 9.219070e+01 -1.291862e+00 8.482130e+01
        vertex 9.219070e+01 0.000000e+00 8.499137e+01
        vertex 9.019070e+01 0.000000e+00 8.600000e+01
    endloop
endfacet
facet normal 4.472128e-01 -1.167461e-01 8.867757e-01
    outer loop
        vertex 9.019070e+01 -1.552914e+00 8.579556e+01
        vertex 9.219070e+01 -1.291862e+00 8.482130e+01
        vertex 9.019070e+01 0.000000e+00 8.600000e+01
    endloop
endfacet
facet normal 4.472128e-01 1.167461e-01 8.867757e-01
    outer loop
        vertex 9.019070e+01 0.000000e+00 8.600000e+01
        vertex 9.219070e+01 1.291862e+00 8.482130e+01
        vertex 9.019070e+01 1.552914e+00 8.579556e+01
    endloop
endfacet
facet normal 4.472136e-01 1.167446e-01 8.867754e-01
    outer loop
        vertex 9.219070e+01 0.000000e+00 8.499137e+01
        vertex 9.219070e+01 1.291862e+00 8.482130e+01
        vertex 9.019070e+01 0.000000e+00 8.600000e+01
    endloop
endfacet
facet normal 4.472133e-01 3.422829e-01 8.263429e-01
    outer loop
        vertex 9.019070e+01 1.552914e+00 8.579556e+01
        vertex 9.219070e+01 2.495685e+00 8.432265e+01
        vertex 9.019070e+01 3.000000e+00 8.519615e+01
    endloop
endfacet
facet normal 4.472128e-01 3.422839e-01 8.263428e-01
    outer loop
        vertex 9.219070e+01 1.291862e+00 8.482130e+01
        vertex 9.219070e+01 2.495685e+00 8.432265e+01
        vertex 9.019070e+01 1.552914e+00 8.579556e+01
    endloop
endfacet
facet normal 5.145627e-01 3.701145e-01 7.734601e-01
    outer loop
        vertex 9.019070e+01 3.000000e+00 8.519615e+01
        vertex 9.219070e+01 3.242640e+00 8.374950e+01
        vertex 9.019070e+01 4.992640e+00 8.424264e+01
    endloop
endfacet
facet normal 4.472135e-01 5.444921e-01 7.095973e-01
    outer loop
        vertex 9.219070e+01 2.495685e+00 8.432265e+01
        vertex 9.219070e+01 3.242640e+00 8.374950e+01
        vertex 9.019070e+01 3.000000e+00 8.519615e+01
    endloop
endfacet
facet normal -1.000000e+00 0.000000e+00 0.000000e+00
    outer loop
        vertex -1.019070e+01 -3.749496e+00 7.675736e+01
        vertex -1.019070e+01 3.242640e+00 8.374950e+01
        vertex -1.019070e+01 3.242640e+00 7.675736e+01
    endloop
endfacet
facet normal -1.000000e+00 0.000000e+00 0.000000e+00
    outer loop
        vertex -1.019070e+01 -4.322654e+00 7.750432e+01
        vertex -1.019070e+01 3.242640e+00 8.374950e+01
        vertex -1.019070e+01 -3.749496e+00 7.675736e+01
    endloop
endfacet
facet normal -1.000000e+00 0.000000e+00 0.000000e+00
    outer loop
        vertex -1.019070e+01 -4.821294e+00 7.870814e+01
        vertex -1.019070e+01 3.242640e+00 8.374950e+01
        vertex -1.019070e+01 -4.322654e+00 7.750432e+01
    endloop
endfacet
facet normal -1.000000e+00 0.000000e+00 0.000000e+00
    outer loop
        vertex -1.019070e+01 -4.991371e+00 8.000000e+01
        vertex -1.019070e+01 3.242640e+00 8.374950e+01
        vertex -1.019070e+01 -4.821294e+00 7.870814e+01
    endloop
endfacet
facet normal -1.000000e+00 0.000000e+00 0.000000e+00
    outer loop
        vertex -1.019070e+01 -4.991371e+00 8.000000e+01
        vertex -1.019070e+01 -4.821294e+00 8.129186e+01
        vertex -1.019070e+01 3.242640e+00 8.374950e+01
    endloop
endfacet
facet normal -1.000000e+00 0.000000e+00 0.000000e+00
    outer loop
        vertex -1.019070e+01 -4.821294e+00 8.129186e+01
        vertex -1.019070e+01 -4.322654e+00 8.249568e+01
        vertex -1.019070e+01 3.242640e+00 8.374950e+01
    endloop
endfacet
facet normal -1.000000e+00 0.000000e+00 0.000000e+00
    outer loop
        vertex -1.019070e+01 -4.322654e+00 8.249568e+01
        vertex -1.019070e+01 -3.529432e+00 8.352943e+01
        vertex -1.019070e+01 3.242640e+00 8.374950e+01
    endloop
endfacet
facet normal -1.000000e+00 0.000000e+00 0.000000e+00
    outer loop
        vertex -1.019070e+01 -3.529432e+00 8.352943e+01
        vertex -1.019070e+01 -2.495685e+00 8.432265e+01
        vertex -1.019070e+01 3.242640e+00 8.374950e+01
    endloop
endfacet
facet normal -1.000000e+00 0.000000e+00 0.000000e+00
    outer loop
        vertex -1.019070e+01 -2.495685e+00 8.432265e+01
        vertex -1.019070e+01 -1.291862e+00 8.482130e+01
        vertex -1.019070e+01 3.242640e+00 8.374950e+01
    endloop
endfacet
facet normal -1.000000e+00 0.000000e+00 0.000000e+00
    outer loop
        vertex -1.019070e+01 -1.291862e+00 8.482130e+01
        vertex -1.019070e+01 0.000000e+00 8.499137e+01
        vertex -1.019070e+01 3.242640e+00 8.374950e+01
    endloop
endfacet
facet normal -1.000000e+00 0.000000e+00 0.000000e+00
    outer loop
        vertex -1.019070e+01 0.000000e+00 8.499137e+01
        vertex -1.019070e+01 1.291862e+00 8.482130e+01
        vertex -1.019070e+01 2.495685e+00 8.432265e+01
    endloop
endfacet
facet normal -1.000000e+00 0.000000e+00 0.000000e+00
    outer loop
        vertex -1.019070e+01 0.000000e+00 8.499137e+01
        vertex -1.019070e+01 2.495685e+00 8.432265e+01
        vertex -1.019070e+01 3.242640e+00 8.374950e+01
    endloop
endfacet
facet normal -6.585046e-01 7.525767e-01 0.000000e+00
    outer loop
        vertex -1.019070e+01 3.242640e+00 7.675736e+01
        vertex -8.190704e+00 4.992640e+00 8.424264e+01
        vertex -8.190704e+00 4.992640e+00 7.575736e+01
    endloop
endfacet
facet normal -6.585046e-01 7.525767e-01 0.000000e+00
    outer loop
        vertex -1.019070e+01 3.242640e+00 7.675736e+01
        vertex -1.019070e+01 3.242640e+00 8.374950e+01
        vertex -8.190704e+00 4.992640e+00 8.424264e+01
    endloop
endfacet
facet normal -4.472136e-01 0.000000e+00 -8.944272e-01
    outer loop
        vertex -8.190704e+00 -4.242640e+00 7.575736e+01
        vertex -1.019070e+01 -3.749496e+00 7.675736e+01
        vertex -1.019070e+01 3.242640e+00 7.675736e+01
    endloop
endfacet
facet normal -4.472136e-01 0.000000e+00 -8.944272e-01
    outer loop
        vertex -8.190704e+00 -4.242640e+00 7.575736e+01
        vertex -1.019070e+01 3.242640e+00 7.675736e+01
        vertex -8.190704e+00 4.992640e+00 7.575736e+01
    endloop
endfacet
facet normal -4.472136e-01 -7.095962e-01 -5.444936e-01
    outer loop
        vertex -8.190704e+00 -5.196152e+00 7.700000e+01
        vertex -1.019070e+01 -3.749496e+00 7.675736e+01
        vertex -8.190704e+00 -4.242640e+00 7.575736e+01
    endloop
endfacet
facet normal -4.472144e-01 -7.095969e-01 -5.444920e-01
    outer loop
        vertex -8.190704e+00 -5.196152e+00 7.700000e+01
        vertex -1.019070e+01 -4.322654e+00 7.750432e+01
        vertex -1.019070e+01 -3.749496e+00 7.675736e+01
    endloop
endfacet
facet normal -4.472140e-01 -8.263424e-01 -3.422832e-01
    outer loop
        vertex -8.190704e+00 -5.795555e+00 7.844708e+01
        vertex -1.019070e+01 -4.322654e+00 7.750432e+01
        vertex -8.190704e+00 -5.196152e+00 7.700000e+01
    endloop
endfacet
facet normal -4.472139e-01 -8.263424e-01 -3.422835e-01
    outer loop
        vertex -8.190704e+00 -5.795555e+00 7.844708e+01
        vertex -1.019070e+01 -4.821294e+00 7.870814e+01
        vertex -1.019070e+01 -4.322654e+00 7.750432e+01
    endloop
endfacet
facet normal -4.472137e-01 -8.867753e-01 -1.167458e-01
    outer loop
        vertex -8.190704e+00 -6.000000e+00 8.000000e+01
        vertex -1.019070e+01 -4.821294e+00 7.870814e+01
        vertex -8.190704e+00 -5.795555e+00 7.844708e+01
    endloop
endfacet
facet normal -4.472136e-01 -8.867753e-01 -1.167461e-01
    outer loop
        vertex -8.190704e+00 -6.000000e+00 8.000000e+01
        vertex -1.019070e+01 -4.991371e+00 8.000000e+01
        vertex -1.019070e+01 -4.821294e+00 7.870814e+01
    endloop
endfacet
facet normal -4.472137e-01 -8.867753e-01 1.167458e-01
    outer loop
        vertex -8.190704e+00 -6.000000e+00 8.000000e+01
        vertex -8.190704e+00 -5.795555e+00 8.155292e+01
        vertex -1.019070e+01 -4.821294e+00 8.129186e+01
    endloop
endfacet
facet normal -4.472136e-01 -8.867753e-01 1.167461e-01
    outer loop
        vertex -8.190704e+00 -6.000000e+00 8.000000e+01
        vertex -1.019070e+01 -4.821294e+00 8.129186e+01
        vertex -1.019070e+01 -4.991371e+00 8.000000e+01
    endloop
endfacet
facet normal -4.472139e-01 -8.263424e-01 3.422835e-01
    outer loop
        vertex -8.190704e+00 -5.795555e+00 8.155292e+01
        vertex -1.019070e+01 -4.322654e+00 8.249568e+01
        vertex -1.019070e+01 -4.821294e+00 8.129186e+01
    endloop
endfacet
facet normal -4.472140e-01 -8.263424e-01 3.422832e-01
    outer loop
        vertex -8.190704e+00 -5.795555e+00 8.155292e+01
        vertex -8.190704e+00 -5.196152e+00 8.300000e+01
        vertex -1.019070e+01 -4.322654e+00 8.249568e+01
    endloop
endfacet
facet normal -4.472143e-01 -7.095960e-01 5.444933e-01
    outer loop
        vertex -8.190704e+00 -5.196152e+00 8.300000e+01
        vertex -1.019070e+01 -3.529432e+00 8.352943e+01
        vertex -1.019070e+01 -4.322654e+00 8.249568e+01
    endloop
endfacet
facet normal -4.472142e-01 -7.095959e-01 5.444934e-01
    outer loop
        vertex -8.190704e+00 -5.196152e+00 8.300000e+01
        vertex -8.190704e+00 -4.242640e+00 8.424264e+01
        vertex -1.019070e+01 -3.529432e+00 8.352943e+01
    endloop
endfacet
facet normal -4.472144e-01 -5.444934e-01 7.095958e-01
    outer loop
        vertex -8.190704e+00 -4.242640e+00 8.424264e+01
        vertex -8.190704e+00 -3.000000e+00 8.519615e+01
        vertex -1.019070e+01 -3.529432e+00 8.352943e+01
    endloop
endfacet
facet normal -4.472133e-01 -5.444953e-01 7.095951e-01
    outer loop
        vertex -1.019070e+01 -3.529432e+00 8.352943e+01
        vertex -8.190704e+00 -3.000000e+00 8.519615e+01
        vertex -1.019070e+01 -2.495685e+00 8.432265e+01
    endloop
endfacet
facet normal -4.472133e-01 -3.422829e-01 8.263429e-01
    outer loop
        vertex -8.190704e+00 -3.000000e+00 8.519615e+01
        vertex -8.190704e+00 -1.552914e+00 8.579556e+01
        vertex -1.019070e+01 -2.495685e+00 8.432265e+01
    endloop
endfacet
facet normal -4.472128e-01 -3.422839e-01 8.263428e-01
    outer loop
        vertex -1.019070e+01 -2.495685e+00 8.432265e+01
        vertex -8.190704e+00 -1.552914e+00 8.579556e+01
        vertex -1.019070e+01 -1.291862e+00 8.482130e+01
    endloop
endfacet
facet normal -4.472128e-01 -1.167461e-01 8.867757e-01
    outer loop
        vertex -8.190704e+00 -1.552914e+00 8.579556e+01
        vertex -8.190704e+00 0.000000e+00 8.600000e+01
        vertex -1.019070e+01 -1.291862e+00 8.482130e+01
    endloop
endfacet
facet normal -4.472136e-01 -1.167446e-01 8.867754e-01
    outer loop
        vertex -1.019070e+01 -1.291862e+00 8.482130e+01
        vertex -8.190704e+00 0.000000e+00 8.600000e+01
        vertex -1.019070e+01 0.000000e+00 8.499137e+01
    endloop
endfacet
facet normal -4.472136e-01 1.167446e-01 8.867754e-01
    outer loop
        vertex -1.019070e+01 0.000000e+00 8.499137e+01
        vertex -8.190704e+00 0.000000e+00 8.600000e+01
        vertex -1.019070e+01 1.291862e+00 8.482130e+01
    endloop
endfacet
facet normal -4.472128e-01 1.167461e-01 8.867757e-01
    outer loop
        vertex -8.190704e+00 0.000000e+00 8.600000e+01
        vertex -8.190704e+00 1.552914e+00 8.579556e+01
        vertex -1.019070e+01 1.291862e+00 8.482130e+01
    endloop
endfacet
facet normal -4.472128e-01 3.422839e-01 8.263428e-01
    outer loop
        vertex -1.019070e+01 1.291862e+00 8.482130e+01
        vertex -8.190704e+00 1.552914e+00 8.579556e+01
        vertex -1.019070e+01 2.495685e+00 8.432265e+01
    endloop
endfacet
facet normal -4.472133e-01 3.422829e-01 8.263429e-01
    outer loop
        vertex -8.190704e+00 1.552914e+00 8.579556e+01
        vertex -8.190704e+00 3.000000e+00 8.519615e+01
        vertex -1.019070e+01 2.495685e+00 8.432265e+01
    endloop
endfacet
facet normal -4.472135e-01 5.444921e-01 7.095973e-01
    outer loop
        vertex -1.019070e+01 2.495685e+00 8.432265e+01
        vertex -8.190704e+00 3.000000e+00 8.519615e+01
        vertex -1.019070e+01 3.242640e+00 8.374950e+01
    endloop
endfacet
facet normal -5.145627e-01 3.701145e-01 7.734601e-01
    outer loop
        vertex -8.190704e+00 3.000000e+00 8.519615e+01
        vertex -8.190704e+00 4.992640e+00 8.424264e+01
        vertex -1.019070e+01 3.242640e+00 8.374950e+01
    endloop
endfacet
facet normal 0.000000e+00 1.000000e+00 -0.000000e+00
    outer loop
        vertex 9.019070e+01 4.992640e+00 7.575736e+01
        vertex 6.500000e+01 4.992640e+00 8.424264e+01
        vertex 9.019070e+01 4.992640e+00 8.424264e+01
    endloop
endfacet
facet normal 0.000000e+00 1.000000e+00 0.000000e+00
    outer loop
        vertex 6.500000e+01 4.992640e+00 7.575736e+01
        vertex 6.500000e+01 4.992640e+00 8.424264e+01
        vertex 9.019070e+01 4.992640e+00 7.575736e+01
    endloop
endfacet
facet normal -0.000000e+00 4.316442e-01 9.020439e-01
    outer loop
        vertex 6.500000e+01 3.000000e+00 8.519615e+01
        vertex 9.019070e+01 3.000000e+00 8.519615e+01
        vertex 9.019070e+01 4.992640e+00 8.424264e+01
    endloop
endfacet
facet normal 0.000000e+00 4.316442e-01 9.020439e-01
    outer loop
        vertex 6.500000e+01 3.000000e+00 8.519615e+01
        vertex 9.019070e+01 4.992640e+00 8.424264e+01
        vertex 6.500000e+01 4.992640e+00 8.424264e+01
    endloop
endfacet
facet normal -0.000000e+00 3.826839e-01 9.238793e-01
    outer loop
        vertex 6.500000e+01 1.552914e+00 8.579556e+01
        vertex 9.019070e+01 1.552914e+00 8.579556e+01
        vertex 9.019070e+01 3.000000e+00 8.519615e+01
    endloop
endfacet
facet normal 0.000000e+00 3.826839e-01 9.238793e-01
    outer loop
        vertex 6.500000e+01 1.552914e+00 8.579556e+01
        vertex 9.019070e+01 3.000000e+00 8.519615e+01
        vertex 6.500000e+01 3.000000e+00 8.519615e+01
    endloop
endfacet
facet normal 0.000000e+00 1.305261e-01 9.914449e-01
    outer loop
        vertex 9.019070e+01 0.000000e+00 8.600000e+01
        vertex 9.019070e+01 1.552914e+00 8.579556e+01
        vertex 6.500000e+01 1.552914e+00 8.579556e+01
    endloop
endfacet
facet normal -2.301056e-18 1.305261e-01 9.914449e-01
    outer loop
        vertex 6.500000e+01 -4.440892e-16 8.600000e+01
        vertex 9.019070e+01 0.000000e+00 8.600000e+01
        vertex 6.500000e+01 1.552914e+00 8.579556e+01
    endloop
endfacet
facet normal 0.000000e+00 -1.305261e-01 9.914449e-01
    outer loop
        vertex 6.500000e+01 -1.552914e+00 8.579556e+01
        vertex 9.019070e+01 -1.552914e+00 8.579556e+01
        vertex 6.500000e+01 -4.440892e-16 8.600000e+01
    endloop
endfacet
facet normal 2.813786e-18 -1.305261e-01 9.914449e-01
    outer loop
        vertex 9.019070e+01 -1.552914e+00 8.579556e+01
        vertex 9.019070e+01 0.000000e+00 8.600000e+01
        vertex 6.500000e+01 -4.440892e-16 8.600000e+01
    endloop
endfacet
facet normal 0.000000e+00 -3.826839e-01 9.238793e-01
    outer loop
        vertex 9.019070e+01 -3.000000e+00 8.519615e+01
        vertex 9.019070e+01 -1.552914e+00 8.579556e+01
        vertex 6.500000e+01 -1.552914e+00 8.579556e+01
    endloop
endfacet
facet normal 0.000000e+00 -3.826839e-01 9.238793e-01
    outer loop
        vertex 6.500000e+01 -3.000000e+00 8.519615e+01
        vertex 9.019070e+01 -3.000000e+00 8.519615e+01
        vertex 6.500000e+01 -1.552914e+00 8.579556e+01
    endloop
endfacet
facet normal 0.000000e+00 -6.087624e-01 7.933525e-01
    outer loop
        vertex 9.019070e+01 -4.242640e+00 8.424264e+01
        vertex 9.019070e+01 -3.000000e+00 8.519615e+01
        vertex 6.500000e+01 -3.000000e+00 8.519615e+01
    endloop
endfacet
facet normal 0.000000e+00 -6.087624e-01 7.933525e-01
    outer loop
        vertex 6.500000e+01 -4.242640e+00 8.424264e+01
        vertex 9.019070e+01 -4.242640e+00 8.424264e+01
        vertex 6.500000e+01 -3.000000e+00 8.519615e+01
    endloop
endfacet
facet normal 0.000000e+00 -7.933526e-01 6.087624e-01
    outer loop
        vertex 9.019070e+01 -5.196152e+00 8.300000e+01
        vertex 9.019070e+01 -4.242640e+00 8.424264e+01
        vertex 6.500000e+01 -4.242640e+00 8.424264e+01
    endloop
endfacet
facet normal 0.000000e+00 -7.933526e-01 6.087624e-01
    outer loop
        vertex 6.500000e+01 -5.196152e+00 8.300000e+01
        vertex 9.019070e+01 -5.196152e+00 8.300000e+01
        vertex 6.500000e+01 -4.242640e+00 8.424264e+01
    endloop
endfacet
facet normal 0.000000e+00 -9.238791e-01 3.826844e-01
    outer loop
        vertex 9.019070e+01 -5.795555e+00 8.155292e+01
        vertex 9.019070e+01 -5.196152e+00 8.300000e+01
        vertex 6.500000e+01 -5.196152e+00 8.300000e+01
    endloop
endfacet
facet normal 0.000000e+00 -9.238791e-01 3.826844e-01
    outer loop
        vertex 6.500000e+01 -5.795555e+00 8.155292e+01
        vertex 9.019070e+01 -5.795555e+00 8.155292e+01
        vertex 6.500000e+01 -5.196152e+00 8.300000e+01
    endloop
endfacet
facet normal 0.000000e+00 -9.914449e-01 1.305258e-01
    outer loop
        vertex 9.019070e+01 -6.000000e+00 8.000000e+01
        vertex 9.019070e+01 -5.795555e+00 8.155292e+01
        vertex 6.500000e+01 -5.795555e+00 8.155292e+01
    endloop
endfacet
facet normal 0.000000e+00 -9.914449e-01 1.305258e-01
    outer loop
        vertex 6.500000e+01 -6.000000e+00 8.000000e+01
        vertex 9.019070e+01 -6.000000e+00 8.000000e+01
        vertex 6.500000e+01 -5.795555e+00 8.155292e+01
    endloop
endfacet
facet normal 0.000000e+00 -9.914449e-01 -1.305258e-01
    outer loop
        vertex 6.500000e+01 -6.000000e+00 8.000000e+01
        vertex 9.019070e+01 -5.795555e+00 7.844708e+01
        vertex 9.019070e+01 -6.000000e+00 8.000000e+01
    endloop
endfacet
facet normal 0.000000e+00 -9.914449e-01 -1.305258e-01
    outer loop
        vertex 6.500000e+01 -6.000000e+00 8.000000e+01
        vertex 6.500000e+01 -5.795555e+00 7.844708e+01
        vertex 9.019070e+01 -5.795555e+00 7.844708e+01
    endloop
endfacet
facet normal 0.000000e+00 -9.238791e-01 -3.826844e-01
    outer loop
        vertex 6.500000e+01 -5.795555e+00 7.844708e+01
        vertex 9.019070e+01 -5.196152e+00 7.700000e+01
        vertex 9.019070e+01 -5.795555e+00 7.844708e+01
    endloop
endfacet
facet normal 0.000000e+00 -9.238791e-01 -3.826844e-01
    outer loop
        vertex 6.500000e+01 -5.795555e+00 7.844708e+01
        vertex 6.500000e+01 -5.196152e+00 7.700000e+01
        vertex 9.019070e+01 -5.196152e+00 7.700000e+01
    endloop
endfacet
facet normal 0.000000e+00 -7.933526e-01 -6.087624e-01
    outer loop
        vertex 6.500000e+01 -5.196152e+00 7.700000e+01
        vertex 9.019070e+01 -4.242640e+00 7.575736e+01
        vertex 9.019070e+01 -5.196152e+00 7.700000e+01
    endloop
endfacet
facet normal 0.000000e+00 -7.933526e-01 -6.087624e-01
    outer loop
        vertex 6.500000e+01 -5.196152e+00 7.700000e+01
        vertex 6.500000e+01 -4.242640e+00 7.575736e+01
        vertex 9.019070e+01 -4.242640e+00 7.575736e+01
    endloop
endfacet
facet normal 0.000000e+00 0.000000e+00 -1.000000e+00
    outer loop
        vertex 9.019070e+01 -4.242640e+00 7.575736e+01
        vertex 6.500000e+01 4.992640e+00 7.575736e+01
        vertex 9.019070e+01 4.992640e+00 7.575736e+01
    endloop
endfacet
facet normal 0.000000e+00 0.000000e+00 -1.000000e+00
    outer loop
        vertex 6.500000e+01 -4.242640e+00 7.575736e+01
        vertex 6.500000e+01 4.992640e+00 7.575736e+01
        vertex 9.019070e+01 -4.242640e+00 7.575736e+01
    endloop
endfacet
facet normal 0.000000e+00 1.000000e+00 0.000000e+00
    outer loop
        vertex -8.190704e+00 4.992640e+00 7.575736e+01
        vertex -8.190704e+00 4.992640e+00 8.424264e+01
        vertex 5.100000e+01 4.992640e+00 8.424264e+01
    endloop
endfacet
facet normal 0.000000e+00 1.000000e+00 0.000000e+00
    outer loop
        vertex -8.190704e+00 4.992640e+00 7.575736e+01
        vertex 5.100000e+01 4.992640e+00 8.424264e+01
        vertex 5.100000e+01 4.992640e+00 7.575736e+01
    endloop
endfacet
facet normal -0.000000e+00 4.316442e-01 9.020439e-01
    outer loop
        vertex -8.190704e+00 3.000000e+00 8.519615e+01
        vertex 5.100000e+01 3.000000e+00 8.519615e+01
        vertex -8.190704e+00 4.992640e+00 8.424264e+01
    endloop
endfacet
facet normal 0.000000e+00 4.316442e-01 9.020439e-01
    outer loop
        vertex 5.100000e+01 3.000000e+00 8.519615e+01
        vertex 5.100000e+01 4.992640e+00 8.424264e+01
        vertex -8.190704e+00 4.992640e+00 8.424264e+01
    endloop
endfacet
facet normal -0.000000e+00 3.826839e-01 9.238793e-01
    outer loop
        vertex -8.190704e+00 1.552914e+00 8.579556e+01
        vertex 5.100000e+01 1.552914e+00 8.579556e+01
        vertex -8.190704e+00 3.000000e+00 8.519615e+01
    endloop
endfacet
facet normal 0.000000e+00 3.826839e-01 9.238793e-01
    outer loop
        vertex 5.100000e+01 1.552914e+00 8.579556e+01
        vertex 5.100000e+01 3.000000e+00 8.519615e+01
        vertex -8.190704e+00 3.000000e+00 8.519615e+01
    endloop
endfacet
facet normal 9.792961e-19 1.305261e-01 9.914449e-01
    outer loop
        vertex 5.100000e+01 -4.440892e-16 8.600000e+01
        vertex -8.190704e+00 1.552914e+00 8.579556e+01
        vertex -8.190704e+00 0.000000e+00 8.600000e+01
    endloop
endfacet
facet normal 0.000000e+00 1.305261e-01 9.914449e-01
    outer loop
        vertex 5.100000e+01 -4.440892e-16 8.600000e+01
        vertex 5.100000e+01 1.552914e+00 8.579556e+01
        vertex -8.190704e+00 1.552914e+00 8.579556e+01
    endloop
endfacet
facet normal -1.197506e-18 -1.305261e-01 9.914449e-01
    outer loop
        vertex -8.190704e+00 -1.552914e+00 8.579556e+01
        vertex 5.100000e+01 -4.440892e-16 8.600000e+01
        vertex -8.190704e+00 0.000000e+00 8.600000e+01
    endloop
endfacet
facet normal 0.000000e+00 -1.305261e-01 9.914449e-01
    outer loop
        vertex -8.190704e+00 -1.552914e+00 8.579556e+01
        vertex 5.100000e+01 -1.552914e+00 8.579556e+01
        vertex 5.100000e+01 -4.440892e-16 8.600000e+01
    endloop
endfacet
facet normal 0.000000e+00 -3.826839e-01 9.238793e-01
    outer loop
        vertex -8.190704e+00 -3.000000e+00 8.519615e+01
        vertex 5.100000e+01 -1.552914e+00 8.579556e+01
        vertex -8.190704e+00 -1.552914e+00 8.579556e+01
    endloop
endfacet
facet normal 0.000000e+00 -3.826839e-01 9.238793e-01
    outer loop
        vertex -8.190704e+00 -3.000000e+00 8.519615e+01
        vertex 5.100000e+01 -3.000000e+00 8.519615e+01
        vertex 5.100000e+01 -1.552914e+00 8.579556e+01
    endloop
endfacet
facet normal 0.000000e+00 -6.087624e-01 7.933525e-01
    outer loop
        vertex -8.190704e+00 -4.242640e+00 8.424264e+01
        vertex 5.100000e+01 -3.000000e+00 8.519615e+01
        vertex -8.190704e+00 -3.000000e+00 8.519615e+01
    endloop
endfacet
facet normal 0.000000e+00 -6.087624e-01 7.933525e-01
    outer loop
        vertex -8.190704e+00 -4.242640e+00 8.424264e+01
        vertex 5.100000e+01 -4.242640e+00 8.424264e+01
        vertex 5.100000e+01 -3.000000e+00 8.519615e+01
    endloop
endfacet
facet normal 0.000000e+00 -7.933526e-01 6.087624e-01
    outer loop
        vertex -8.190704e+00 -5.196152e+00 8.300000e+01
        vertex 5.100000e+01 -4.242640e+00 8.424264e+01
        vertex -8.190704e+00 -4.242640e+00 8.424264e+01
    endloop
endfacet
facet normal 0.000000e+00 -7.933526e-01 6.087624e-01
    outer loop
        vertex -8.190704e+00 -5.196152e+00 8.300000e+01
        vertex 5.100000e+01 -5.196152e+00 8.300000e+01
        vertex 5.100000e+01 -4.242640e+00 8.424264e+01
    endloop
endfacet
facet normal 0.000000e+00 -9.238791e-01 3.826844e-01
    outer loop
        vertex -8.190704e+00 -5.795555e+00 8.155292e+01
        vertex 5.100000e+01 -5.196152e+00 8.300000e+01
        vertex -8.190704e+00 -5.196152e+00 8.300000e+01
    endloop
endfacet
facet normal 0.000000e+00 -9.238791e-01 3.826844e-01
    outer loop
        vertex -8.190704e+00 -5.795555e+00 8.155292e+01
        vertex 5.100000e+01 -5.795555e+00 8.155292e+01
        vertex 5.100000e+01 -5.196152e+00 8.300000e+01
    endloop
endfacet
facet normal 0.000000e+00 -9.914449e-01 1.305258e-01
    outer loop
        vertex -8.190704e+00 -6.000000e+00 8.000000e+01
        vertex 5.100000e+01 -5.795555e+00 8.155292e+01
        vertex -8.190704e+00 -5.795555e+00 8.155292e+01
    endloop
endfacet
facet normal 0.000000e+00 -9.914449e-01 1.305258e-01
    outer loop
        vertex -8.190704e+00 -6.000000e+00 8.000000e+01
        vertex 5.100000e+01 -6.000000e+00 8.000000e+01
        vertex 5.100000e+01 -5.795555e+00 8.155292e+01
    endloop
endfacet
facet normal 0.000000e+00 -9.914449e-01 -1.305258e-01
    outer loop
        vertex -8.190704e+00 -6.000000e+00 8.000000e+01
        vertex -8.190704e+00 -5.795555e+00 7.844708e+01
        vertex 5.100000e+01 -6.000000e+00 8.000000e+01
    endloop
endfacet
facet normal 0.000000e+00 -9.914449e-01 -1.305258e-01
    outer loop
        vertex 5.100000e+01 -6.000000e+00 8.000000e+01
        vertex -8.190704e+00 -5.795555e+00 7.844708e+01
        vertex 5.100000e+01 -5.795555e+00 7.844708e+01
    endloop
endfacet
facet normal 0.000000e+00 -9.238791e-01 -3.826844e-01
    outer loop
        vertex -8.190704e+00 -5.795555e+00 7.844708e+01
        vertex -8.190704e+00 -5.196152e+00 7.700000e+01
        vertex 5.100000e+01 -5.795555e+00 7.844708e+01
    endloop
endfacet
facet normal 0.000000e+00 -9.238791e-01 -3.826844e-01
    outer loop
        vertex 5.100000e+01 -5.795555e+00 7.844708e+01
        vertex -8.190704e+00 -5.196152e+00 7.700000e+01
        vertex 5.100000e+01 -5.196152e+00 7.700000e+01
    endloop
endfacet
facet normal 0.000000e+00 -7.933526e-01 -6.087624e-01
    outer loop
        vertex -8.190704e+00 -5.196152e+00 7.700000e+01
        vertex -8.190704e+00 -4.242640e+00 7.575736e+01
        vertex 5.100000e+01 -5.196152e+00 7.700000e+01
    endloop
endfacet
facet normal 0.000000e+00 -7.933526e-01 -6.087624e-01
    outer loop
        vertex 5.100000e+01 -5.196152e+00 7.700000e+01
        vertex -8.190704e+00 -4.242640e+00 7.575736e+01
        vertex 5.100000e+01 -4.242640e+00 7.575736e+01
    endloop
endfacet
facet normal 0.000000e+00 0.000000e+00 -1.000000e+00
    outer loop
        vertex -8.190704e+00 -4.242640e+00 7.575736e+01
        vertex -8.190704e+00 4.992640e+00 7.575736e+01
        vertex 5.100000e+01 4.992640e+00 7.575736e+01
    endloop
endfacet
facet normal 0.000000e+00 0.000000e+00 -1.000000e+00
    outer loop
        vertex -8.190704e+00 -4.242640e+00 7.575736e+01
        vertex 5.100000e+01 4.992640e+00 7.575736e+01
        vertex 5.100000e+01 -4.242640e+00 7.575736e+01
    endloop
endfacet
endsolid pusher.stl
