solid upper.stl
facet normal 0.000000e+00 -1.000000e+00 0.000000e+00
    outer loop
        vertex 4.500000e+01 -1.400000e+01 4.100000e+01
        vertex 1.300000e+02 -1.400000e+01 4.100000e+01
        vertex 4.500000e+01 -1.400000e+01 1.230000e+02
    endloop
endfacet
facet normal 0.000000e+00 -1.000000e+00 0.000000e+00
    outer loop
        vertex 1.300000e+02 -1.400000e+01 4.100000e+01
        vertex 1.300000e+02 -1.400000e+01 1.230000e+02
        vertex 4.500000e+01 -1.400000e+01 1.230000e+02
    endloop
endfacet
facet normal 0.000000e+00 0.000000e+00 1.000000e+00
    outer loop
        vertex 4.500000e+01 -1.400000e+01 1.230000e+02
        vertex 1.300000e+02 -1.400000e+01 1.230000e+02
        vertex 4.500000e+01 1.400000e+01 1.230000e+02
    endloop
endfacet
facet normal 0.000000e+00 -0.000000e+00 1.000000e+00
    outer loop
        vertex 1.300000e+02 -1.400000e+01 1.230000e+02
        vertex 1.300000e+02 1.400000e+01 1.230000e+02
        vertex 4.500000e+01 1.400000e+01 1.230000e+02
    endloop
endfacet
facet normal -1.000000e+00 0.000000e+00 0.000000e+00
    outer loop
        vertex 4.500000e+01 1.100000e+01 4.100000e+01
        vertex 4.500000e+01 1.100000e+01 9.000000e+01
        vertex 4.500000e+01 1.400000e+01 4.100000e+01
    endloop
endfacet
facet normal -1.000000e+00 0.000000e+00 0.000000e+00
    outer loop
        vertex 4.500000e+01 -1.400000e+01 4.100000e+01
        vertex 4.500000e+01 -1.100000e+01 9.000000e+01
        vertex 4.500000e+01 -1.100000e+01 4.100000e+01
    endloop
endfacet
facet normal -1.000000e+00 0.000000e+00 0.000000e+00
    outer loop
        vertex 4.500000e+01 1.100000e+01 9.000000e+01
        vertex 4.500000e+01 1.400000e+01 1.230000e+02
        vertex 4.500000e+01 1.400000e+01 4.100000e+01
    endloop
endfacet
facet normal -1.000000e+00 0.000000e+00 0.000000e+00
    outer loop
        vertex 4.500000e+01 -1.400000e+01 1.230000e+02
        vertex 4.500000e+01 1.400000e+01 1.230000e+02
        vertex 4.500000e+01 1.100000e+01 9.000000e+01
    endloop
endfacet
facet normal -1.000000e+00 0.000000e+00 0.000000e+00
    outer loop
        vertex 4.500000e+01 -1.400000e+01 1.230000e+02
        vertex 4.500000e+01 1.100000e+01 9.000000e+01
        vertex 4.500000e+01 -1.100000e+01 9.000000e+01
    endloop
endfacet
facet normal -1.000000e+00 0.000000e+00 0.000000e+00
    outer loop
        vertex 4.500000e+01 -1.400000e+01 4.100000e+01
        vertex 4.500000e+01 -1.400000e+01 1.230000e+02
        vertex 4.500000e+01 -1.100000e+01 9.000000e+01
    endloop
endfacet
facet normal 1.000000e+00 0.000000e+00 0.000000e+00
    outer loop
        vertex 1.300000e+02 -1.400000e+01 4.100000e+01
        vertex 1.300000e+02 -1.100000e+01 4.100000e+01
        vertex 1.300000e+02 -1.100000e+01 9.000000e+01
    endloop
endfacet
facet normal 1.000000e+00 0.000000e+00 0.000000e+00
    outer loop
        vertex 1.300000e+02 1.100000e+01 4.100000e+01
        vertex 1.300000e+02 1.400000e+01 4.100000e+01
        vertex 1.300000e+02 1.100000e+01 9.000000e+01
    endloop
endfacet
facet normal 1.000000e+00 0.000000e+00 0.000000e+00
    outer loop
        vertex 1.300000e+02 -1.400000e+01 4.100000e+01
        vertex 1.300000e+02 -1.100000e+01 9.000000e+01
        vertex 1.300000e+02 -1.400000e+01 1.230000e+02
    endloop
endfacet
facet normal 1.000000e+00 -0.000000e+00 0.000000e+00
    outer loop
        vertex 1.300000e+02 -1.400000e+01 1.230000e+02
        vertex 1.300000e+02 -1.100000e+01 9.000000e+01
        vertex 1.300000e+02 1.400000e+01 1.230000e+02
    endloop
endfacet
facet normal 1.000000e+00 0.000000e+00 0.000000e+00
    outer loop
        vertex 1.300000e+02 -1.100000e+01 9.000000e+01
        vertex 1.300000e+02 1.100000e+01 9.000000e+01
        vertex 1.300000e+02 1.400000e+01 1.230000e+02
    endloop
endfacet
facet normal 1.000000e+00 -0.000000e+00 0.000000e+00
    outer loop
        vertex 1.300000e+02 1.100000e+01 9.000000e+01
        vertex 1.300000e+02 1.400000e+01 4.100000e+01
        vertex 1.300000e+02 1.400000e+01 1.230000e+02
    endloop
endfacet
facet normal 0.000000e+00 0.000000e+00 -1.000000e+00
    outer loop
        vertex 1.300000e+02 1.100000e+01 4.100000e+01
        vertex 4.500000e+01 1.400000e+01 4.100000e+01
        vertex 1.300000e+02 1.400000e+01 4.100000e+01
    endloop
endfacet
facet normal 0.000000e+00 0.000000e+00 -1.000000e+00
    outer loop
        vertex 4.500000e+01 1.100000e+01 4.100000e+01
        vertex 4.500000e+01 1.400000e+01 4.100000e+01
        vertex 1.300000e+02 1.100000e+01 4.100000e+01
    endloop
endfacet
facet normal 0.000000e+00 0.000000e+00 -1.000000e+00
    outer loop
        vertex 4.500000e+01 -1.400000e+01 4.100000e+01
        vertex 1.300000e+02 -1.100000e+01 4.100000e+01
        vertex 1.300000e+02 -1.400000e+01 4.100000e+01
    endloop
endfacet
facet normal 0.000000e+00 0.000000e+00 -1.000000e+00
    outer loop
        vertex 4.500000e+01 -1.400000e+01 4.100000e+01
        vertex 4.500000e+01 -1.100000e+01 4.100000e+01
        vertex 1.300000e+02 -1.100000e+01 4.100000e+01
    endloop
endfacet
facet normal 0.000000e+00 0.000000e+00 -1.000000e+00
    outer loop
        vertex 5.000000e+01 -8.000000e+00 1.160000e+02
        vertex 5.000000e+01 1.100000e+01 1.160000e+02
        vertex 1.220000e+02 -8.000000e+00 1.160000e+02
    endloop
endfacet
facet normal 0.000000e+00 0.000000e+00 -1.000000e+00
    outer loop
        vertex 1.220000e+02 -8.000000e+00 1.160000e+02
        vertex 5.000000e+01 1.100000e+01 1.160000e+02
        vertex 1.220000e+02 1.100000e+01 1.160000e+02
    endloop
endfacet
facet normal 1.000000e+00 -0.000000e+00 0.000000e+00
    outer loop
        vertex 5.000000e+01 -8.000000e+00 1.160000e+02
        vertex 5.000000e+01 1.100000e+01 9.000000e+01
        vertex 5.000000e+01 1.100000e+01 1.160000e+02
    endloop
endfacet
facet normal 1.000000e+00 0.000000e+00 0.000000e+00
    outer loop
        vertex 5.000000e+01 -8.000000e+00 9.000000e+01
        vertex 5.000000e+01 1.100000e+01 9.000000e+01
        vertex 5.000000e+01 -8.000000e+00 1.160000e+02
    endloop
endfacet
facet normal -1.000000e+00 0.000000e+00 0.000000e+00
    outer loop
        vertex 1.220000e+02 -8.000000e+00 1.160000e+02
        vertex 1.220000e+02 1.100000e+01 1.160000e+02
        vertex 1.220000e+02 1.100000e+01 9.000000e+01
    endloop
endfacet
facet normal -1.000000e+00 0.000000e+00 0.000000e+00
    outer loop
        vertex 1.220000e+02 -8.000000e+00 9.000000e+01
        vertex 1.220000e+02 -8.000000e+00 1.160000e+02
        vertex 1.220000e+02 1.100000e+01 9.000000e+01
    endloop
endfacet
facet normal 0.000000e+00 1.000000e+00 0.000000e+00
    outer loop
        vertex 4.500000e+01 -1.100000e+01 4.100000e+01
        vertex 4.500000e+01 -1.100000e+01 9.000000e+01
        vertex 1.300000e+02 -1.100000e+01 9.000000e+01
    endloop
endfacet
facet normal 0.000000e+00 1.000000e+00 0.000000e+00
    outer loop
        vertex 4.500000e+01 -1.100000e+01 4.100000e+01
        vertex 1.300000e+02 -1.100000e+01 9.000000e+01
        vertex 1.300000e+02 -1.100000e+01 4.100000e+01
    endloop
endfacet
facet normal 0.000000e+00 0.000000e+00 -1.000000e+00
    outer loop
        vertex 1.220000e+02 -8.000000e+00 9.000000e+01
        vertex 1.220000e+02 1.100000e+01 9.000000e+01
        vertex 1.300000e+02 1.100000e+01 9.000000e+01
    endloop
endfacet
facet normal 0.000000e+00 0.000000e+00 -1.000000e+00
    outer loop
        vertex 5.000000e+01 -8.000000e+00 9.000000e+01
        vertex 4.500000e+01 1.100000e+01 9.000000e+01
        vertex 5.000000e+01 1.100000e+01 9.000000e+01
    endloop
endfacet
facet normal 0.000000e+00 0.000000e+00 -1.000000e+00
    outer loop
        vertex 4.500000e+01 -1.100000e+01 9.000000e+01
        vertex 4.500000e+01 1.100000e+01 9.000000e+01
        vertex 5.000000e+01 -8.000000e+00 9.000000e+01
    endloop
endfacet
facet normal 0.000000e+00 0.000000e+00 -1.000000e+00
    outer loop
        vertex 4.500000e+01 -1.100000e+01 9.000000e+01
        vertex 5.000000e+01 -8.000000e+00 9.000000e+01
        vertex 1.220000e+02 -8.000000e+00 9.000000e+01
    endloop
endfacet
facet normal 0.000000e+00 0.000000e+00 -1.000000e+00
    outer loop
        vertex 4.500000e+01 -1.100000e+01 9.000000e+01
        vertex 1.220000e+02 -8.000000e+00 9.000000e+01
        vertex 1.300000e+02 -1.100000e+01 9.000000e+01
    endloop
endfacet
facet normal 0.000000e+00 0.000000e+00 -1.000000e+00
    outer loop
        vertex 1.300000e+02 -1.100000e+01 9.000000e+01
        vertex 1.220000e+02 -8.000000e+00 9.000000e+01
        vertex 1.300000e+02 1.100000e+01 9.000000e+01
    endloop
endfacet
facet normal 0.000000e+00 1.000000e+00 -0.000000e+00
    outer loop
        vertex 1.220000e+02 -8.000000e+00 9.000000e+01
        vertex 5.000000e+01 -8.000000e+00 1.160000e+02
        vertex 1.220000e+02 -8.000000e+00 1.160000e+02
    endloop
endfacet
facet normal 0.000000e+00 1.000000e+00 0.000000e+00
    outer loop
        vertex 5.000000e+01 -8.000000e+00 9.000000e+01
        vertex 5.000000e+01 -8.000000e+00 1.160000e+02
        vertex 1.220000e+02 -8.000000e+00 9.000000e+01
    endloop
endfacet
facet normal 0.000000e+00 1.000000e+00 0.000000e+00
    outer loop
        vertex 4.500000e+01 1.400000e+01 4.100000e+01
        vertex 4.500000e+01 1.400000e+01 1.230000e+02
        vertex 7.647372e+01 1.400000e+01 7.450000e+01
    endloop
endfacet
facet normal 0.000000e+00 1.000000e+00 0.000000e+00
    outer loop
        vertex 4.500000e+01 1.400000e+01 4.100000e+01
        vertex 7.647372e+01 1.400000e+01 7.450000e+01
        vertex 7.822182e+01 1.400000e+01 7.222182e+01
    endloop
endfacet
facet normal 0.000000e+00 1.000000e+00 0.000000e+00
    outer loop
        vertex 4.500000e+01 1.400000e+01 4.100000e+01
        vertex 7.822182e+01 1.400000e+01 7.222182e+01
        vertex 8.050000e+01 1.400000e+01 7.047372e+01
    endloop
endfacet
facet normal 0.000000e+00 1.000000e+00 0.000000e+00
    outer loop
        vertex 4.500000e+01 1.400000e+01 4.100000e+01
        vertex 8.050000e+01 1.400000e+01 7.047372e+01
        vertex 1.300000e+02 1.400000e+01 4.100000e+01
    endloop
endfacet
facet normal 0.000000e+00 1.000000e+00 0.000000e+00
    outer loop
        vertex 7.647372e+01 1.400000e+01 7.450000e+01
        vertex 4.500000e+01 1.400000e+01 1.230000e+02
        vertex 7.537482e+01 1.400000e+01 7.715299e+01
    endloop
endfacet
facet normal 0.000000e+00 1.000000e+00 0.000000e+00
    outer loop
        vertex 7.537482e+01 1.400000e+01 7.715299e+01
        vertex 4.500000e+01 1.400000e+01 1.230000e+02
        vertex 7.500000e+01 1.400000e+01 8.000000e+01
    endloop
endfacet
facet normal 0.000000e+00 1.000000e+00 -0.000000e+00
    outer loop
        vertex 7.500000e+01 1.400000e+01 8.000000e+01
        vertex 4.500000e+01 1.400000e+01 1.230000e+02
        vertex 7.537482e+01 1.400000e+01 8.284701e+01
    endloop
endfacet
facet normal 0.000000e+00 1.000000e+00 -0.000000e+00
    outer loop
        vertex 7.537482e+01 1.400000e+01 8.284701e+01
        vertex 4.500000e+01 1.400000e+01 1.230000e+02
        vertex 7.647372e+01 1.400000e+01 8.550000e+01
    endloop
endfacet
facet normal 0.000000e+00 1.000000e+00 -0.000000e+00
    outer loop
        vertex 7.647372e+01 1.400000e+01 8.550000e+01
        vertex 4.500000e+01 1.400000e+01 1.230000e+02
        vertex 7.822182e+01 1.400000e+01 8.777818e+01
    endloop
endfacet
facet normal 0.000000e+00 1.000000e+00 -0.000000e+00
    outer loop
        vertex 7.822182e+01 1.400000e+01 8.777818e+01
        vertex 4.500000e+01 1.400000e+01 1.230000e+02
        vertex 8.050000e+01 1.400000e+01 8.952628e+01
    endloop
endfacet
facet normal 0.000000e+00 1.000000e+00 -0.000000e+00
    outer loop
        vertex 8.050000e+01 1.400000e+01 8.952628e+01
        vertex 4.500000e+01 1.400000e+01 1.230000e+02
        vertex 1.300000e+02 1.400000e+01 1.230000e+02
    endloop
endfacet
facet normal 0.000000e+00 1.000000e+00 0.000000e+00
    outer loop
        vertex 8.050000e+01 1.400000e+01 8.952628e+01
        vertex 1.300000e+02 1.400000e+01 1.230000e+02
        vertex 8.315299e+01 1.400000e+01 9.062518e+01
    endloop
endfacet
facet normal 0.000000e+00 1.000000e+00 0.000000e+00
    outer loop
        vertex 8.315299e+01 1.400000e+01 9.062518e+01
        vertex 1.300000e+02 1.400000e+01 1.230000e+02
        vertex 8.600000e+01 1.400000e+01 9.100000e+01
    endloop
endfacet
facet normal 0.000000e+00 1.000000e+00 -0.000000e+00
    outer loop
        vertex 8.884701e+01 1.400000e+01 9.062518e+01
        vertex 8.600000e+01 1.400000e+01 9.100000e+01
        vertex 1.300000e+02 1.400000e+01 1.230000e+02
    endloop
endfacet
facet normal 0.000000e+00 1.000000e+00 -0.000000e+00
    outer loop
        vertex 9.150000e+01 1.400000e+01 8.952628e+01
        vertex 8.884701e+01 1.400000e+01 9.062518e+01
        vertex 1.300000e+02 1.400000e+01 1.230000e+02
    endloop
endfacet
facet normal 0.000000e+00 1.000000e+00 -0.000000e+00
    outer loop
        vertex 9.377818e+01 1.400000e+01 8.777818e+01
        vertex 9.150000e+01 1.400000e+01 8.952628e+01
        vertex 1.300000e+02 1.400000e+01 1.230000e+02
    endloop
endfacet
facet normal 0.000000e+00 1.000000e+00 -0.000000e+00
    outer loop
        vertex 1.300000e+02 1.400000e+01 4.100000e+01
        vertex 9.377818e+01 1.400000e+01 8.777818e+01
        vertex 1.300000e+02 1.400000e+01 1.230000e+02
    endloop
endfacet
facet normal 0.000000e+00 1.000000e+00 0.000000e+00
    outer loop
        vertex 1.300000e+02 1.400000e+01 4.100000e+01
        vertex 8.050000e+01 1.400000e+01 7.047372e+01
        vertex 8.315299e+01 1.400000e+01 6.937482e+01
    endloop
endfacet
facet normal 0.000000e+00 1.000000e+00 0.000000e+00
    outer loop
        vertex 1.300000e+02 1.400000e+01 4.100000e+01
        vertex 8.315299e+01 1.400000e+01 6.937482e+01
        vertex 8.600000e+01 1.400000e+01 6.900000e+01
    endloop
endfacet
facet normal 0.000000e+00 1.000000e+00 0.000000e+00
    outer loop
        vertex 1.300000e+02 1.400000e+01 4.100000e+01
        vertex 8.600000e+01 1.400000e+01 6.900000e+01
        vertex 8.884701e+01 1.400000e+01 6.937482e+01
    endloop
endfacet
facet normal 0.000000e+00 1.000000e+00 0.000000e+00
    outer loop
        vertex 1.300000e+02 1.400000e+01 4.100000e+01
        vertex 8.884701e+01 1.400000e+01 6.937482e+01
        vertex 9.150000e+01 1.400000e+01 7.047372e+01
    endloop
endfacet
facet normal 0.000000e+00 1.000000e+00 0.000000e+00
    outer loop
        vertex 1.300000e+02 1.400000e+01 4.100000e+01
        vertex 9.150000e+01 1.400000e+01 7.047372e+01
        vertex 9.377818e+01 1.400000e+01 7.222182e+01
    endloop
endfacet
facet normal 0.000000e+00 1.000000e+00 0.000000e+00
    outer loop
        vertex 1.300000e+02 1.400000e+01 4.100000e+01
        vertex 9.377818e+01 1.400000e+01 7.222182e+01
        vertex 9.552628e+01 1.400000e+01 7.450000e+01
    endloop
endfacet
facet normal 0.000000e+00 1.000000e+00 0.000000e+00
    outer loop
        vertex 1.300000e+02 1.400000e+01 4.100000e+01
        vertex 9.552628e+01 1.400000e+01 7.450000e+01
        vertex 9.662518e+01 1.400000e+01 7.715299e+01
    endloop
endfacet
facet normal 0.000000e+00 1.000000e+00 0.000000e+00
    outer loop
        vertex 1.300000e+02 1.400000e+01 4.100000e+01
        vertex 9.662518e+01 1.400000e+01 7.715299e+01
        vertex 9.700000e+01 1.400000e+01 8.000000e+01
    endloop
endfacet
facet normal 0.000000e+00 1.000000e+00 0.000000e+00
    outer loop
        vertex 1.300000e+02 1.400000e+01 4.100000e+01
        vertex 9.700000e+01 1.400000e+01 8.000000e+01
        vertex 9.662518e+01 1.400000e+01 8.284701e+01
    endloop
endfacet
facet normal 0.000000e+00 1.000000e+00 0.000000e+00
    outer loop
        vertex 1.300000e+02 1.400000e+01 4.100000e+01
        vertex 9.662518e+01 1.400000e+01 8.284701e+01
        vertex 9.552628e+01 1.400000e+01 8.550000e+01
    endloop
endfacet
facet normal 0.000000e+00 1.000000e+00 0.000000e+00
    outer loop
        vertex 1.300000e+02 1.400000e+01 4.100000e+01
        vertex 9.552628e+01 1.400000e+01 8.550000e+01
        vertex 9.377818e+01 1.400000e+01 8.777818e+01
    endloop
endfacet
facet normal 0.000000e+00 1.000000e+00 0.000000e+00
    outer loop
        vertex 4.500000e+01 1.100000e+01 4.100000e+01
        vertex 4.500000e+01 1.100000e+01 9.000000e+01
        vertex 1.300000e+02 1.100000e+01 4.100000e+01
    endloop
endfacet
facet normal 0.000000e+00 1.000000e+00 0.000000e+00
    outer loop
        vertex 9.662518e+01 1.100000e+01 8.284701e+01
        vertex 1.220000e+02 1.100000e+01 1.160000e+02
        vertex 1.220000e+02 1.100000e+01 9.000000e+01
    endloop
endfacet
facet normal 0.000000e+00 1.000000e+00 0.000000e+00
    outer loop
        vertex 5.000000e+01 1.100000e+01 9.000000e+01
        vertex 5.000000e+01 1.100000e+01 1.160000e+02
        vertex 1.220000e+02 1.100000e+01 1.160000e+02
    endloop
endfacet
facet normal 0.000000e+00 1.000000e+00 -0.000000e+00
    outer loop
        vertex 1.300000e+02 1.100000e+01 4.100000e+01
        vertex 1.220000e+02 1.100000e+01 9.000000e+01
        vertex 1.300000e+02 1.100000e+01 9.000000e+01
    endloop
endfacet
facet normal 0.000000e+00 1.000000e+00 0.000000e+00
    outer loop
        vertex 1.300000e+02 1.100000e+01 4.100000e+01
        vertex 9.662518e+01 1.100000e+01 8.284701e+01
        vertex 1.220000e+02 1.100000e+01 9.000000e+01
    endloop
endfacet
facet normal 0.000000e+00 1.000000e+00 -0.000000e+00
    outer loop
        vertex 9.662518e+01 1.100000e+01 8.284701e+01
        vertex 9.552628e+01 1.100000e+01 8.550000e+01
        vertex 1.220000e+02 1.100000e+01 1.160000e+02
    endloop
endfacet
facet normal 0.000000e+00 1.000000e+00 -0.000000e+00
    outer loop
        vertex 9.552628e+01 1.100000e+01 8.550000e+01
        vertex 9.377818e+01 1.100000e+01 8.777818e+01
        vertex 1.220000e+02 1.100000e+01 1.160000e+02
    endloop
endfacet
facet normal 0.000000e+00 1.000000e+00 -0.000000e+00
    outer loop
        vertex 9.377818e+01 1.100000e+01 8.777818e+01
        vertex 9.150000e+01 1.100000e+01 8.952628e+01
        vertex 1.220000e+02 1.100000e+01 1.160000e+02
    endloop
endfacet
facet normal 0.000000e+00 1.000000e+00 -0.000000e+00
    outer loop
        vertex 9.150000e+01 1.100000e+01 8.952628e+01
        vertex 8.884701e+01 1.100000e+01 9.062518e+01
        vertex 1.220000e+02 1.100000e+01 1.160000e+02
    endloop
endfacet
facet normal 0.000000e+00 1.000000e+00 -0.000000e+00
    outer loop
        vertex 8.884701e+01 1.100000e+01 9.062518e+01
        vertex 8.600000e+01 1.100000e+01 9.100000e+01
        vertex 1.220000e+02 1.100000e+01 1.160000e+02
    endloop
endfacet
facet normal 0.000000e+00 1.000000e+00 0.000000e+00
    outer loop
        vertex 5.000000e+01 1.100000e+01 9.000000e+01
        vertex 1.220000e+02 1.100000e+01 1.160000e+02
        vertex 8.600000e+01 1.100000e+01 9.100000e+01
    endloop
endfacet
facet normal 0.000000e+00 1.000000e+00 0.000000e+00
    outer loop
        vertex 1.300000e+02 1.100000e+01 4.100000e+01
        vertex 9.700000e+01 1.100000e+01 8.000000e+01
        vertex 9.662518e+01 1.100000e+01 8.284701e+01
    endloop
endfacet
facet normal 0.000000e+00 1.000000e+00 0.000000e+00
    outer loop
        vertex 1.300000e+02 1.100000e+01 4.100000e+01
        vertex 9.662518e+01 1.100000e+01 7.715299e+01
        vertex 9.700000e+01 1.100000e+01 8.000000e+01
    endloop
endfacet
facet normal 0.000000e+00 1.000000e+00 0.000000e+00
    outer loop
        vertex 1.300000e+02 1.100000e+01 4.100000e+01
        vertex 9.552628e+01 1.100000e+01 7.450000e+01
        vertex 9.662518e+01 1.100000e+01 7.715299e+01
    endloop
endfacet
facet normal 0.000000e+00 1.000000e+00 0.000000e+00
    outer loop
        vertex 1.300000e+02 1.100000e+01 4.100000e+01
        vertex 9.377818e+01 1.100000e+01 7.222182e+01
        vertex 9.552628e+01 1.100000e+01 7.450000e+01
    endloop
endfacet
facet normal 0.000000e+00 1.000000e+00 0.000000e+00
    outer loop
        vertex 1.300000e+02 1.100000e+01 4.100000e+01
        vertex 9.150000e+01 1.100000e+01 7.047372e+01
        vertex 9.377818e+01 1.100000e+01 7.222182e+01
    endloop
endfacet
facet normal 0.000000e+00 1.000000e+00 0.000000e+00
    outer loop
        vertex 1.300000e+02 1.100000e+01 4.100000e+01
        vertex 8.884701e+01 1.100000e+01 6.937482e+01
        vertex 9.150000e+01 1.100000e+01 7.047372e+01
    endloop
endfacet
facet normal 0.000000e+00 1.000000e+00 0.000000e+00
    outer loop
        vertex 1.300000e+02 1.100000e+01 4.100000e+01
        vertex 8.600000e+01 1.100000e+01 6.900000e+01
        vertex 8.884701e+01 1.100000e+01 6.937482e+01
    endloop
endfacet
facet normal 0.000000e+00 1.000000e+00 0.000000e+00
    outer loop
        vertex 1.300000e+02 1.100000e+01 4.100000e+01
        vertex 8.315299e+01 1.100000e+01 6.937482e+01
        vertex 8.600000e+01 1.100000e+01 6.900000e+01
    endloop
endfacet
facet normal 0.000000e+00 1.000000e+00 0.000000e+00
    outer loop
        vertex 5.000000e+01 1.100000e+01 9.000000e+01
        vertex 8.600000e+01 1.100000e+01 9.100000e+01
        vertex 8.315299e+01 1.100000e+01 9.062518e+01
    endloop
endfacet
facet normal 0.000000e+00 1.000000e+00 -0.000000e+00
    outer loop
        vertex 8.050000e+01 1.100000e+01 8.952628e+01
        vertex 5.000000e+01 1.100000e+01 9.000000e+01
        vertex 8.315299e+01 1.100000e+01 9.062518e+01
    endloop
endfacet
facet normal 0.000000e+00 1.000000e+00 -0.000000e+00
    outer loop
        vertex 7.822182e+01 1.100000e+01 8.777818e+01
        vertex 5.000000e+01 1.100000e+01 9.000000e+01
        vertex 8.050000e+01 1.100000e+01 8.952628e+01
    endloop
endfacet
facet normal 0.000000e+00 1.000000e+00 -0.000000e+00
    outer loop
        vertex 7.647372e+01 1.100000e+01 8.550000e+01
        vertex 5.000000e+01 1.100000e+01 9.000000e+01
        vertex 7.822182e+01 1.100000e+01 8.777818e+01
    endloop
endfacet
facet normal 0.000000e+00 1.000000e+00 -0.000000e+00
    outer loop
        vertex 7.537482e+01 1.100000e+01 8.284701e+01
        vertex 5.000000e+01 1.100000e+01 9.000000e+01
        vertex 7.647372e+01 1.100000e+01 8.550000e+01
    endloop
endfacet
facet normal 0.000000e+00 1.000000e+00 -0.000000e+00
    outer loop
        vertex 7.500000e+01 1.100000e+01 8.000000e+01
        vertex 5.000000e+01 1.100000e+01 9.000000e+01
        vertex 7.537482e+01 1.100000e+01 8.284701e+01
    endloop
endfacet
facet normal 0.000000e+00 1.000000e+00 0.000000e+00
    outer loop
        vertex 7.537482e+01 1.100000e+01 7.715299e+01
        vertex 5.000000e+01 1.100000e+01 9.000000e+01
        vertex 7.500000e+01 1.100000e+01 8.000000e+01
    endloop
endfacet
facet normal 0.000000e+00 1.000000e+00 0.000000e+00
    outer loop
        vertex 7.537482e+01 1.100000e+01 7.715299e+01
        vertex 4.500000e+01 1.100000e+01 9.000000e+01
        vertex 5.000000e+01 1.100000e+01 9.000000e+01
    endloop
endfacet
facet normal 0.000000e+00 1.000000e+00 0.000000e+00
    outer loop
        vertex 7.647372e+01 1.100000e+01 7.450000e+01
        vertex 4.500000e+01 1.100000e+01 9.000000e+01
        vertex 7.537482e+01 1.100000e+01 7.715299e+01
    endloop
endfacet
facet normal 0.000000e+00 1.000000e+00 0.000000e+00
    outer loop
        vertex 7.822182e+01 1.100000e+01 7.222182e+01
        vertex 4.500000e+01 1.100000e+01 9.000000e+01
        vertex 7.647372e+01 1.100000e+01 7.450000e+01
    endloop
endfacet
facet normal 0.000000e+00 1.000000e+00 0.000000e+00
    outer loop
        vertex 8.050000e+01 1.100000e+01 7.047372e+01
        vertex 4.500000e+01 1.100000e+01 9.000000e+01
        vertex 7.822182e+01 1.100000e+01 7.222182e+01
    endloop
endfacet
facet normal 0.000000e+00 1.000000e+00 0.000000e+00
    outer loop
        vertex 1.300000e+02 1.100000e+01 4.100000e+01
        vertex 4.500000e+01 1.100000e+01 9.000000e+01
        vertex 8.050000e+01 1.100000e+01 7.047372e+01
    endloop
endfacet
facet normal 0.000000e+00 1.000000e+00 0.000000e+00
    outer loop
        vertex 1.300000e+02 1.100000e+01 4.100000e+01
        vertex 8.050000e+01 1.100000e+01 7.047372e+01
        vertex 8.315299e+01 1.100000e+01 6.937482e+01
    endloop
endfacet
facet normal -1.305266e-01 0.000000e+00 -9.914448e-01
    outer loop
        vertex 8.884701e+01 1.100000e+01 9.062518e+01
        vertex 8.600000e+01 1.400000e+01 9.100000e+01
        vertex 8.884701e+01 1.400000e+01 9.062518e+01
    endloop
endfacet
facet normal -1.305266e-01 0.000000e+00 -9.914448e-01
    outer loop
        vertex 8.884701e+01 1.100000e+01 9.062518e+01
        vertex 8.600000e+01 1.100000e+01 9.100000e+01
        vertex 8.600000e+01 1.400000e+01 9.100000e+01
    endloop
endfacet
facet normal -3.826841e-01 0.000000e+00 -9.238793e-01
    outer loop
        vertex 9.150000e+01 1.100000e+01 8.952628e+01
        vertex 8.884701e+01 1.400000e+01 9.062518e+01
        vertex 9.150000e+01 1.400000e+01 8.952628e+01
    endloop
endfacet
facet normal -3.826841e-01 0.000000e+00 -9.238793e-01
    outer loop
        vertex 9.150000e+01 1.100000e+01 8.952628e+01
        vertex 8.884701e+01 1.100000e+01 9.062518e+01
        vertex 8.884701e+01 1.400000e+01 9.062518e+01
    endloop
endfacet
facet normal -6.087603e-01 0.000000e+00 -7.933542e-01
    outer loop
        vertex 9.377818e+01 1.100000e+01 8.777818e+01
        vertex 9.150000e+01 1.400000e+01 8.952628e+01
        vertex 9.377818e+01 1.400000e+01 8.777818e+01
    endloop
endfacet
facet normal -6.087603e-01 0.000000e+00 -7.933542e-01
    outer loop
        vertex 9.377818e+01 1.100000e+01 8.777818e+01
        vertex 9.150000e+01 1.100000e+01 8.952628e+01
        vertex 9.150000e+01 1.400000e+01 8.952628e+01
    endloop
endfacet
facet normal -7.933542e-01 0.000000e+00 -6.087603e-01
    outer loop
        vertex 9.552628e+01 1.100000e+01 8.550000e+01
        vertex 9.377818e+01 1.400000e+01 8.777818e+01
        vertex 9.552628e+01 1.400000e+01 8.550000e+01
    endloop
endfacet
facet normal -7.933542e-01 0.000000e+00 -6.087603e-01
    outer loop
        vertex 9.552628e+01 1.100000e+01 8.550000e+01
        vertex 9.377818e+01 1.100000e+01 8.777818e+01
        vertex 9.377818e+01 1.400000e+01 8.777818e+01
    endloop
endfacet
facet normal -9.238793e-01 0.000000e+00 -3.826841e-01
    outer loop
        vertex 9.662518e+01 1.100000e+01 8.284701e+01
        vertex 9.552628e+01 1.400000e+01 8.550000e+01
        vertex 9.662518e+01 1.400000e+01 8.284701e+01
    endloop
endfacet
facet normal -9.238793e-01 0.000000e+00 -3.826841e-01
    outer loop
        vertex 9.662518e+01 1.100000e+01 8.284701e+01
        vertex 9.552628e+01 1.100000e+01 8.550000e+01
        vertex 9.552628e+01 1.400000e+01 8.550000e+01
    endloop
endfacet
facet normal -9.914448e-01 0.000000e+00 -1.305266e-01
    outer loop
        vertex 9.700000e+01 1.100000e+01 8.000000e+01
        vertex 9.662518e+01 1.400000e+01 8.284701e+01
        vertex 9.700000e+01 1.400000e+01 8.000000e+01
    endloop
endfacet
facet normal -9.914448e-01 0.000000e+00 -1.305266e-01
    outer loop
        vertex 9.700000e+01 1.100000e+01 8.000000e+01
        vertex 9.662518e+01 1.100000e+01 8.284701e+01
        vertex 9.662518e+01 1.400000e+01 8.284701e+01
    endloop
endfacet
facet normal -9.914448e-01 0.000000e+00 1.305266e-01
    outer loop
        vertex 9.662518e+01 1.100000e+01 7.715299e+01
        vertex 9.700000e+01 1.400000e+01 8.000000e+01
        vertex 9.662518e+01 1.400000e+01 7.715299e+01
    endloop
endfacet
facet normal -9.914448e-01 0.000000e+00 1.305266e-01
    outer loop
        vertex 9.662518e+01 1.100000e+01 7.715299e+01
        vertex 9.700000e+01 1.100000e+01 8.000000e+01
        vertex 9.700000e+01 1.400000e+01 8.000000e+01
    endloop
endfacet
facet normal -9.238793e-01 0.000000e+00 3.826841e-01
    outer loop
        vertex 9.552628e+01 1.100000e+01 7.450000e+01
        vertex 9.662518e+01 1.400000e+01 7.715299e+01
        vertex 9.552628e+01 1.400000e+01 7.450000e+01
    endloop
endfacet
facet normal -9.238793e-01 0.000000e+00 3.826841e-01
    outer loop
        vertex 9.552628e+01 1.100000e+01 7.450000e+01
        vertex 9.662518e+01 1.100000e+01 7.715299e+01
        vertex 9.662518e+01 1.400000e+01 7.715299e+01
    endloop
endfacet
facet normal -7.933542e-01 0.000000e+00 6.087603e-01
    outer loop
        vertex 9.377818e+01 1.100000e+01 7.222182e+01
        vertex 9.552628e+01 1.400000e+01 7.450000e+01
        vertex 9.377818e+01 1.400000e+01 7.222182e+01
    endloop
endfacet
facet normal -7.933542e-01 0.000000e+00 6.087603e-01
    outer loop
        vertex 9.377818e+01 1.100000e+01 7.222182e+01
        vertex 9.552628e+01 1.100000e+01 7.450000e+01
        vertex 9.552628e+01 1.400000e+01 7.450000e+01
    endloop
endfacet
facet normal -6.087603e-01 0.000000e+00 7.933542e-01
    outer loop
        vertex 9.150000e+01 1.100000e+01 7.047372e+01
        vertex 9.377818e+01 1.400000e+01 7.222182e+01
        vertex 9.150000e+01 1.400000e+01 7.047372e+01
    endloop
endfacet
facet normal -6.087603e-01 0.000000e+00 7.933542e-01
    outer loop
        vertex 9.150000e+01 1.100000e+01 7.047372e+01
        vertex 9.377818e+01 1.100000e+01 7.222182e+01
        vertex 9.377818e+01 1.400000e+01 7.222182e+01
    endloop
endfacet
facet normal -3.826841e-01 0.000000e+00 9.238793e-01
    outer loop
        vertex 8.884701e+01 1.100000e+01 6.937482e+01
        vertex 9.150000e+01 1.400000e+01 7.047372e+01
        vertex 8.884701e+01 1.400000e+01 6.937482e+01
    endloop
endfacet
facet normal -3.826841e-01 0.000000e+00 9.238793e-01
    outer loop
        vertex 8.884701e+01 1.100000e+01 6.937482e+01
        vertex 9.150000e+01 1.100000e+01 7.047372e+01
        vertex 9.150000e+01 1.400000e+01 7.047372e+01
    endloop
endfacet
facet normal -1.305266e-01 0.000000e+00 9.914448e-01
    outer loop
        vertex 8.600000e+01 1.100000e+01 6.900000e+01
        vertex 8.884701e+01 1.400000e+01 6.937482e+01
        vertex 8.600000e+01 1.400000e+01 6.900000e+01
    endloop
endfacet
facet normal -1.305266e-01 0.000000e+00 9.914448e-01
    outer loop
        vertex 8.600000e+01 1.100000e+01 6.900000e+01
        vertex 8.884701e+01 1.100000e+01 6.937482e+01
        vertex 8.884701e+01 1.400000e+01 6.937482e+01
    endloop
endfacet
facet normal 1.305266e-01 -0.000000e+00 9.914448e-01
    outer loop
        vertex 8.315299e+01 1.100000e+01 6.937482e+01
        vertex 8.600000e+01 1.400000e+01 6.900000e+01
        vertex 8.315299e+01 1.400000e+01 6.937482e+01
    endloop
endfacet
facet normal 1.305266e-01 -0.000000e+00 9.914448e-01
    outer loop
        vertex 8.600000e+01 1.100000e+01 6.900000e+01
        vertex 8.600000e+01 1.400000e+01 6.900000e+01
        vertex 8.315299e+01 1.100000e+01 6.937482e+01
    endloop
endfacet
facet normal 3.826841e-01 -0.000000e+00 9.238793e-01
    outer loop
        vertex 8.050000e+01 1.100000e+01 7.047372e+01
        vertex 8.315299e+01 1.400000e+01 6.937482e+01
        vertex 8.050000e+01 1.400000e+01 7.047372e+01
    endloop
endfacet
facet normal 3.826841e-01 -0.000000e+00 9.238793e-01
    outer loop
        vertex 8.315299e+01 1.100000e+01 6.937482e+01
        vertex 8.315299e+01 1.400000e+01 6.937482e+01
        vertex 8.050000e+01 1.100000e+01 7.047372e+01
    endloop
endfacet
facet normal 6.087603e-01 -0.000000e+00 7.933542e-01
    outer loop
        vertex 7.822182e+01 1.100000e+01 7.222182e+01
        vertex 8.050000e+01 1.400000e+01 7.047372e+01
        vertex 7.822182e+01 1.400000e+01 7.222182e+01
    endloop
endfacet
facet normal 6.087603e-01 -0.000000e+00 7.933542e-01
    outer loop
        vertex 8.050000e+01 1.100000e+01 7.047372e+01
        vertex 8.050000e+01 1.400000e+01 7.047372e+01
        vertex 7.822182e+01 1.100000e+01 7.222182e+01
    endloop
endfacet
facet normal 7.933542e-01 -0.000000e+00 6.087603e-01
    outer loop
        vertex 7.647372e+01 1.100000e+01 7.450000e+01
        vertex 7.822182e+01 1.400000e+01 7.222182e+01
        vertex 7.647372e+01 1.400000e+01 7.450000e+01
    endloop
endfacet
facet normal 7.933542e-01 -0.000000e+00 6.087603e-01
    outer loop
        vertex 7.822182e+01 1.100000e+01 7.222182e+01
        vertex 7.822182e+01 1.400000e+01 7.222182e+01
        vertex 7.647372e+01 1.100000e+01 7.450000e+01
    endloop
endfacet
facet normal 9.238793e-01 -0.000000e+00 3.826841e-01
    outer loop
        vertex 7.537482e+01 1.100000e+01 7.715299e+01
        vertex 7.647372e+01 1.400000e+01 7.450000e+01
        vertex 7.537482e+01 1.400000e+01 7.715299e+01
    endloop
endfacet
facet normal 9.238793e-01 -0.000000e+00 3.826841e-01
    outer loop
        vertex 7.647372e+01 1.100000e+01 7.450000e+01
        vertex 7.647372e+01 1.400000e+01 7.450000e+01
        vertex 7.537482e+01 1.100000e+01 7.715299e+01
    endloop
endfacet
facet normal 9.914448e-01 -0.000000e+00 1.305266e-01
    outer loop
        vertex 7.500000e+01 1.100000e+01 8.000000e+01
        vertex 7.537482e+01 1.400000e+01 7.715299e+01
        vertex 7.500000e+01 1.400000e+01 8.000000e+01
    endloop
endfacet
facet normal 9.914448e-01 -0.000000e+00 1.305266e-01
    outer loop
        vertex 7.537482e+01 1.100000e+01 7.715299e+01
        vertex 7.537482e+01 1.400000e+01 7.715299e+01
        vertex 7.500000e+01 1.100000e+01 8.000000e+01
    endloop
endfacet
facet normal 9.914448e-01 0.000000e+00 -1.305266e-01
    outer loop
        vertex 7.537482e+01 1.100000e+01 8.284701e+01
        vertex 7.500000e+01 1.400000e+01 8.000000e+01
        vertex 7.537482e+01 1.400000e+01 8.284701e+01
    endloop
endfacet
facet normal 9.914448e-01 0.000000e+00 -1.305266e-01
    outer loop
        vertex 7.500000e+01 1.100000e+01 8.000000e+01
        vertex 7.500000e+01 1.400000e+01 8.000000e+01
        vertex 7.537482e+01 1.100000e+01 8.284701e+01
    endloop
endfacet
facet normal 9.238793e-01 0.000000e+00 -3.826841e-01
    outer loop
        vertex 7.647372e+01 1.100000e+01 8.550000e+01
        vertex 7.537482e+01 1.400000e+01 8.284701e+01
        vertex 7.647372e+01 1.400000e+01 8.550000e+01
    endloop
endfacet
facet normal 9.238793e-01 0.000000e+00 -3.826841e-01
    outer loop
        vertex 7.537482e+01 1.100000e+01 8.284701e+01
        vertex 7.537482e+01 1.400000e+01 8.284701e+01
        vertex 7.647372e+01 1.100000e+01 8.550000e+01
    endloop
endfacet
facet normal 7.933542e-01 0.000000e+00 -6.087603e-01
    outer loop
        vertex 7.822182e+01 1.100000e+01 8.777818e+01
        vertex 7.647372e+01 1.400000e+01 8.550000e+01
        vertex 7.822182e+01 1.400000e+01 8.777818e+01
    endloop
endfacet
facet normal 7.933542e-01 0.000000e+00 -6.087603e-01
    outer loop
        vertex 7.647372e+01 1.100000e+01 8.550000e+01
        vertex 7.647372e+01 1.400000e+01 8.550000e+01
        vertex 7.822182e+01 1.100000e+01 8.777818e+01
    endloop
endfacet
facet normal 6.087603e-01 0.000000e+00 -7.933542e-01
    outer loop
        vertex 8.050000e+01 1.100000e+01 8.952628e+01
        vertex 7.822182e+01 1.400000e+01 8.777818e+01
        vertex 8.050000e+01 1.400000e+01 8.952628e+01
    endloop
endfacet
facet normal 6.087603e-01 0.000000e+00 -7.933542e-01
    outer loop
        vertex 7.822182e+01 1.100000e+01 8.777818e+01
        vertex 7.822182e+01 1.400000e+01 8.777818e+01
        vertex 8.050000e+01 1.100000e+01 8.952628e+01
    endloop
endfacet
facet normal 3.826841e-01 0.000000e+00 -9.238793e-01
    outer loop
        vertex 8.315299e+01 1.100000e+01 9.062518e+01
        vertex 8.050000e+01 1.400000e+01 8.952628e+01
        vertex 8.315299e+01 1.400000e+01 9.062518e+01
    endloop
endfacet
facet normal 3.826841e-01 0.000000e+00 -9.238793e-01
    outer loop
        vertex 8.050000e+01 1.100000e+01 8.952628e+01
        vertex 8.050000e+01 1.400000e+01 8.952628e+01
        vertex 8.315299e+01 1.100000e+01 9.062518e+01
    endloop
endfacet
facet normal 1.305266e-01 0.000000e+00 -9.914448e-01
    outer loop
        vertex 8.600000e+01 1.100000e+01 9.100000e+01
        vertex 8.315299e+01 1.400000e+01 9.062518e+01
        vertex 8.600000e+01 1.400000e+01 9.100000e+01
    endloop
endfacet
facet normal 1.305266e-01 0.000000e+00 -9.914448e-01
    outer loop
        vertex 8.315299e+01 1.100000e+01 9.062518e+01
        vertex 8.315299e+01 1.400000e+01 9.062518e+01
        vertex 8.600000e+01 1.100000e+01 9.100000e+01
    endloop
endfacet
endsolid upper.stl
